M48
;Layer_Color=6063383
;FILE_FORMAT=4:4
METRIC,LZ
;TYPE=PLATED
T1F00S00C0.2500
T2F00S00C0.3000
T3F00S00C0.5000
T4F00S00C0.6500
T5F00S00C0.7100
T6F00S00C0.7112
T7F00S00C0.9000
T8F00S00C1.0000
T9F00S00C1.0160
T10F00S00C1.1100
T11F00S00C5.3000
%
T01
X00044256Y-00059978
X0006277Y-00063851
X0008185
X0010093
X0010474Y-00046149
X000952
X0008566
X0007612
X0006658
X00057045Y-0004586
X00048594Y-00041432
X00030684Y-00046849
X00027157Y-00037985
X00026149Y-00028499
X00025647Y-00018972
X00025881Y00000103
X00025792Y00011759
X00025922Y00021298
X00044082Y00029908
X00044391Y0001084
X00044408Y-0000441
X00043851Y-00013934
X0003652Y-00054396
X002015Y00075
X0005875Y004785
X-00007338Y00847826
X00011652Y0086046
T02
X00009998Y-00070001
X00029998
X00049998
X00069998
X00089998
X00109998
X00269997
X00289997
X00309997
X00329997
X-00010002Y00009998
X-00030002
X-00050002
X-00070002
X-00090002
X-00060002Y00029998
X-00050002Y00049998
X-00027654Y00046013
X-00015279Y0003585
X-00006031Y00038193
X-00008639Y00057698
X-00000002Y00069998
X-00010002Y00089998
X-00030002
X-00050002
X-00060002Y00069998
X-00090002Y00129998
X-00110002
X-00130002
X-00150002
X-00170002
X-00160002Y00109998
X-00170002Y00089998
Y00009998
X-00150002
X-00100002Y00149998
X-00090002Y00169998
X-00050002
X-0004Y00198
X-00111Y00196
X-00118Y00203
X-00104Y00217
X-00112Y00227
X-0012Y00244
X-00173Y00237
X-00170002Y00289998
X-00148Y00315
X-00119Y0032
X-00090002Y00329998
X-00080002Y00309998
X-00090002Y00289998
X-00030002
X-00010002
X-00020002Y00309998
X-00040002
X-00050002Y00329998
X-00030002
X-00010002
X-00000002Y00309998
X00009998Y00329998
X00051Y003315
X00056896Y00319532
X00069998Y00329998
X00128Y00325
X00158Y00308999
X00168Y00309
X00178Y00308999
X001875Y00309
X0021Y00314
X00201Y00325
X00194Y00335
X00182Y00339
X0017
X00168Y00262
Y00249
Y00236
X00181
X00194
Y00249
X00181
Y00262
X00194
X00209997Y00209998
X00225Y00208
X0026975Y0019925
X00286492Y0018794
X00299997Y00189998
X00310662Y00188714
X00328662Y00202714
X00337566Y00210058
X00337662Y00220714
X00322326Y00218694
X00341884Y00249428
X00337662Y00259714
X00333502Y00274574
X00309997Y00289998
X00294Y00274
X00299662Y00249714
X0026Y00257
X0026035Y00238252
X00262533Y00276709
X00266Y00299
X00369997Y00249998
X00350774Y00180594
X00353314Y00128524
X00369997Y00129998
X00389997
Y00089998
X00368662Y00095714
X00354076Y0010287
X00359997Y00109998
X00358996Y00061031
X00348631Y00061458
X00339636Y00061157
X00332059Y00056301
X00323059
X00314059
X00305059Y00056358
X00279769Y00056858
X00270783Y00056358
X00262858Y00060623
X00245142Y0005839
X00246255Y0004946
X00251438Y00042102
X00260112Y00039699
X00259997Y00029998
X00239997
X00219997
X00199997
X00179997
X00159997
X00139998
X00119998
X00099998
X00100744Y00039989
X00108588Y00044402
X00112194Y00052648
X00112858Y00061623
X00119998Y00069998
X00129998Y00049998
X00149997
X00169997
X00189997
X00209997
X00229997
X00239997Y00069998
X00272542Y00097282
X00267716Y00131572
X00239997Y00149998
X00199997
X00179997
X00159997
X00149997Y00129998
X00169997
X001875Y001235
X00199997Y00109998
X00189997Y00089998
X00179997Y00069998
X00159997
Y00109998
X00139998
X00136Y00088
X00089998Y00089998
X00079998Y00069998
X00081337Y00055858
X00090323Y00056358
X00095142Y00063959
X00059998Y00069998
X00039998
X00043077Y00055858
X00029313Y00056408
X00019792Y00055807
X00010252
X00000712
X00003509Y00038193
X00013049
X00022589
X00048276Y00039157
X00057261Y00038642
X00059998Y00029998
X00079998
X0007385Y00038421
X00069998Y00009998
X00089998
X00109998
X00099998Y-00010002
X00079998
X00059998
X00069998Y-00030001
X00089998
X00109998
X00009998
X00019998Y-00050002
Y-00010002
X00009998Y00009998
X00019998Y00069998
X00009998Y00089998
X00029998
X00049998
X00039998Y00109998
X00019998
X00049998Y00129998
X00056Y00137
X00075
X00071Y00148
X00079998Y00149998
Y00189998
X00119998
X00109998Y00169998
Y00129998
Y00209998
X001505Y001975
X00181Y00178
X00130048Y0027559
X00121Y00279
X00108204Y002794
X00095504Y00268224
X0007239Y00265938
X0007874Y00259334
X00066294Y0024892
X00039998Y00229998
X00029998Y00169998
X00009998
X00036Y00153
X0032385Y00132588
X00325071Y00039699
X00334071
X00341447Y00034542
X00350447
X00362458Y00043723
Y00052723
X00389997Y00049998
Y00009998
X00349997
X00309997
X00289997
X00269997
X00259997Y-00010002
X00279997
X00299997
X00319997
X00309997Y-00030001
X00289997
X00269997
X00259997Y-00050002
X00279997
X00299997
X00319997
X00329997Y-00030001
X00316071Y00039699
X00287019Y00039395
X00279997Y00029998
X00399997
X00409997Y00009998
X00429997
X00489997
X00499997Y00109998
X00489997Y00129998
X00469997
X00449997
X00459997Y00149998
X00479997
X00499997
X00489997Y00169998
X00469997
X00449997
X00459997Y00189998
X00479997
X00499997
X00489997Y00209998
X00469997
X004505Y002075
X00459997Y00229998
X00439997
X0041375Y0023125
X0040075Y0021925
Y001945
X0041375Y0018025
X00409997Y00169998
X00419997Y00149998
X00409997Y00129998
X00399997Y00109998
X00419997
X00409997Y00089998
X00399997Y00069998
X00479997Y00229998
X00499997
X00489997Y00249998
X00469997
X00479997Y00269998
X00499997
X00489997Y00289998
X00469997
X00479997Y00309998
X00499997
X00489997Y00329998
X00469997
X00439997Y00309998
Y00349998
X00459997
X00479997
X00499997
X00489997Y00369998
X00469997
X00446786Y0036703
X00439997Y00389998
X00416Y00393
X00479997Y00389998
X00499997
X00489997Y00409998
X00469997
X00459997Y00429998
X00464058Y0043942
X00479997Y00429998
X00499997
X00489997Y00449997
X00479806Y00453644
X0044704Y00454406
X00439997Y00469997
X00459997
Y00509997
X00479044Y00503174
X00493522Y0050038
X00489204Y0049149
X00499997Y00469997
X00469997Y00529997
X00449997
X00459997Y00549997
X00479997
X00469997Y00569997
X00451888Y00589026
X00427482Y00595122
X00429997Y00569997
X00440944Y00630936
X00451612Y00622046
X00423926Y0063627
X00427736Y00648462
X00430022Y0067691
X00440312Y0068466
X00456438Y00677164
X00479997Y00669997
X00489997Y00689997
Y00729997
X00474472Y00731012
X00449997Y00729997
X00411734Y00679958
X00399997Y00669997
X0041575Y004795
X00404Y0046575
X0039575Y004165
X00349997Y00409998
X00332232Y00409448
X00333756Y00425958
X00323214Y00425704
X00319997Y00469997
X00329997Y00489997
X00339997Y00509997
X00311999Y00507999
X00312Y00522
Y00534
X00297
Y00522
X00296999Y00507999
X00253Y00508
Y00525
X00242316Y00531876
X00229997Y00529997
X00220472Y00538734
X00219997Y00549997
X0021101Y00564027
X00187Y0056
X0016Y00548
X00158Y00534
X0015Y00526
X00139Y00543
X00126Y0055
X00125Y0056
X00099
X00099998Y00549997
X00074Y00543
X00062Y0056
X00049022Y00560894
X00049998Y00489997
X00029998
X00001524Y00506876
Y00519876
X00079Y00502
X00099998Y00509997
X00130556Y00507746
X00135174Y00499618
X0013Y00466
X00122Y00459
X00153Y00458
X00161Y00465
X00163Y00437
X00179Y00447
X00138Y00438
X00146Y00426
X00112Y00428999
X00107Y00437
Y00404
X00112Y00395999
X00107Y00388
X00113Y00381
X00089998Y00369998
X00093218Y004064
X00059998Y00429998
X0004445Y00441198
X00051308Y0044831
X00011684Y00429768
X00005334Y0039624
X00048985Y00368
X00059998Y00349998
X00072898Y00343408
X00222Y00373
X00227Y00381
X00221Y00389
X00227Y00396
X0023495Y00426212
X00222Y00438
X00229Y00445
X00233934Y00460502
X00232918Y0048895
X00209997Y00529997
X00201Y00529
X00159997Y00589997
Y00629997
X00179997
X00199997
X00197358Y00646176
X0020955
X00211582Y0065532
X00229997Y00649997
X00227584Y00632714
X00239014
X00249174
X00259334Y00632968
X00249997Y00649997
X00269997
Y00689997
X00259997Y00709997
X00239997
X00219997
X00199997
X00209997Y00729997
X00229997
X00249997
X00269997
X00348488Y00724662
X00359997Y00709997
X00379997
Y00669997
X00389997Y00649997
X0034163Y00667512
X00340106Y00679704
X00329997Y00689997
X003175Y00667512
Y0064008
X00316738Y00590296
X00330454Y00578104
X00388366Y0051689
X00370078Y00491744
X00359918Y00450088
X00351282Y00456438
X00379997Y00349998
X00169997Y00649997
X00149997
X00119998Y00629997
X00099998
X00079998
X00039998
X00019998
X00009998Y00649997
X00029998
X00049998
X00039998Y00669997
X00019998
X00018Y00709
X00041Y00698
X00087
X00107Y00709
X00109998Y00729997
X00089998
X00067Y00727
X00126Y0072025
X00129998Y00729997
X00149997
X00169997
X00159997Y00709997
X-00010002Y00689997
X-00000002Y00669997
X-00010002Y00649997
X-00020002Y00629997
X-0003048Y00631444
X-00000002Y00629997
X-00000254Y0056134
Y00550926
X-00012954Y00551434
X-00040002Y00549997
X-00060002
X-00080002
X-00100002
X-00090002Y00569997
X-00070002
X-00050002
X-00049784Y0057912
X-00087376Y00589788
X-00085598Y0059944
X-00090002Y00609997
X-00110002
X-00130002
X-00150002
X-00170002
X-00160002Y00589997
X-00140002
X-00150002Y00569997
X-00160002Y00549997
X-00170002Y00529997
X-00150002
Y00489997
X-00170002
X-00168148Y0047244
X-00123444Y00474726
X-00110002Y00489997
X-00068072Y00474472
X-00061214Y00441452
X-00060002Y00429998
X-00040002
X-00050002Y00449997
X-00030002
X-00010002
X-00014986Y00441706
X-00000002Y00429998
Y00469997
X-00013476Y00506876
Y00519876
X-00040002Y00509997
X-00060002
X-00100002Y00589997
X-00099568Y00674116
X-00085598Y0067437
X-00071628Y00674624
X-00070002Y00689997
X-00090002
X-00110002
X-00130002
X-00150002
X-00170002
X-00160002Y00669997
X-00140002
X-00120002
X-00130002Y00649997
X-00170002
X-00140002Y00709997
X-00138218Y00730542
X-00147218
X-0013068Y00735459
X-00100002Y00709997
X-00072Y00727
X-00042Y00719
X-00050002Y00689997
X-00060002Y00389998
X-00080002
X-00100002
X-00120002
X-00140002
X-00110002Y00369998
X-00080002Y00349998
X-00040002
X-00020002
X-00000002
X-00020002Y00389998
X-00040002
Y00749997
X-00060002
X-00080002
X-00100002
X-00120002
X-00130542Y00744458
X-00157458Y00741356
Y00750356
X-00152301Y00766732
Y00775732
Y00784732
X-00152004Y00793727
X-00149087Y00802241
X-00143392Y00809211
X-00135631Y00813767
X-00126762Y00815301
X-00117762
X-00108762
X-00099762
X-00090762
X-00081762
X-00072762
X-00063773Y00815753
X-00059301Y00823563
Y00832563
Y00841563
X-00059311Y00850563
X-0005739Y00859355
X-00052471Y00866892
X-00045121Y00872086
X-0003638Y0087423
X-00028301Y00879145
Y00888145
X-00028055Y00897142
X-00025189Y00905673
X-00019358Y00912529
X-00011397Y00916726
X-00002461Y00917801
X-00000693Y00901199
X-00009462Y00899172
X-00011699Y00890454
Y00881454
X-00011142Y00872471
X-00033694Y00857644
X-00041749Y00853629
X-00042699Y0084468
Y0083568
Y0082668
X-00043125Y0081769
X-00046461Y00809331
X-00052717Y0080286
X-00060958Y00799243
X-00069941Y00798699
X-00078941
X-00087941
X-00096941
X-00105941
X-00114941
X-00123941
X-00132673Y00796517
X-00135699Y00788041
Y00779041
Y00770041
X-00120002Y00789997
X-00100002
X-00090002Y00769997
X-00070002
X-00050002
X-00030002
X-00040002Y00789997
X-00060002
X-00030002Y00809997
X-00020002Y00829997
X-00000002
X-00080002
X-00070002Y00849997
X-00050002Y00889997
X-00060002Y00909997
X-00040002
X-00050002Y00929997
X-00070002
X-00090002
X-00150002
X-00160002Y00829997
X-00170002Y00809997
X-00020002Y00749997
X-00030002Y00929997
X-00010002
X00009998
X00006539Y00917801
X00015539
X00024539
X00033539
X00042539
X00051539
X00060539
X00049998Y00929997
X00029998
X00019998Y00949996
X00039998
X00029998Y00969996
X00009998
X00019998Y00989996
X00039998
X00029998Y01009996
X00009998
X00049998
X00077897Y01008215
X00085963Y01012207
X00094902Y01013259
X00097872Y00996741
X00088933Y00995695
X0008426Y00988003
X00084607Y00979009
X00084412Y00970011
X00084858Y00961022
Y00948023
X00084259Y00939043
X00084858Y00930063
X00084259Y00921083
X00084858Y00903623
X0008432Y00894639
X0006768Y00894382
X00053306Y00901199
X00044307
X00035306
X00026307
X00017306
X00008306
X00009998Y00889997
X00029998
X00049998
X00039998Y00869997
X00049998Y00849997
X00072516Y00853462
X00081517
X00089998Y00849997
X00109998
X00129998
X00149997
X00169997
X00159997Y00829997
X00139998
X00119998
X00099998
X00079998
X00059998
X00039998
X00014988Y0083004
X00009998Y00809997
X00099998Y00789997
X00119998
X00139998
X00159997
X00179997
X00169997Y00769997
X00149997
X0013775Y00765
X00116Y00773
X0017675Y007535
X00199997Y00749997
X00219997
X00239997
X00259997
X00249997Y00769997
X00229997
X00209997
Y00809997
X00229997
X00249997
X00269997
X00259997Y00829997
X00239997
X00219997
X00209997Y00849997
X00229997
X00249997
X00269997
Y00889997
X00249997
X00229997
X00209997
X00219997Y00909997
X00239997
X00259997
X00279997
X00299997
X00319997
X00339997
X00359997
X00379997
X00369997Y00889997
X00349997
X00329997
X00309997
X00289997
X00299997Y00869997
X00319997
Y00829997
X00335Y00795
X00348Y00779
X00349997Y00809997
X00389382Y00816102
X00389128Y0084709
X00379997Y00869997
X00389997Y00889997
Y00929997
X00369997
X00349997
X00329997
X00309997
X00289997
X00269997
X00249997
X00259997Y00949996
X00279997
X00299997
X00319997
X00309997Y00969996
X00289997
X00269997
X00249997
X00259997Y00989996
X00279997
X00299997
X00319997
X00309997Y01009996
X00289997
X00269997
X00249997
X00329997
Y00969996
X00316Y00746
X00289997Y00769997
X00269997
X00174Y00816
X00129998Y00889997
X00109998
X00099998Y00909997
X00119998
X00099998Y00949996
X00067562Y00953263
X00067258Y00944268
X00067741Y0096638
Y00984353
X00068304Y00993335
X00071736Y01001655
X00049998Y00969996
X00409997Y00929997
X00429997
X00399997Y00909997
Y00869997
X00409997Y00849997
X00411988Y0080645
X00419997Y00789997
X00399997
Y00749997
X00422656Y00738124
X00458216Y00738378
X00469997Y00769997
Y00809997
X00457708Y00806196
X00489997Y00809997
X00501904Y0081661
X00508508Y00824484
X00489997Y00929997
T03
X00110236Y00249936
X-00097028Y00364236
T04
X-0002272Y007873
Y008
X-0001002
Y007873
X0000268
Y008
X0001538
X0002808
Y007873
X0001538
T05
X-0014986Y00627794
Y00647794
T06
X-00014Y00415
Y004638
T07
X-001604Y00149
Y001744
Y001998
Y002252
Y002506
Y00276
Y003014
Y003268
X-00135
Y003014
Y00276
Y002506
Y002252
Y001998
Y001744
Y00149
X000514Y00184
X00252984Y00476758
X00278384
X00303784
X-000858Y00513
X-001112
X-001366
X-00162
X-001628Y00565
X-001374
X-00112
X-00135Y003776
X-001604
Y003522
X-00135
T08
X-00064Y001496
Y00175
X00026Y00184
X00332486Y00290068
Y00315468
X00344678Y00534924
Y00560324
X0033274Y00736854
X00021082Y00581152
Y00555752
X00017018Y00511556
X00042418
X-00089Y00458
Y004326
X-0009144Y0062738
Y0065278
X0015075Y0090275
X0017615
X0020155
X003366Y00871
Y008456
X00362
Y00871
Y008202
X003366
X0033274Y00762254
X00432562Y00760984
Y00786384
X00457962
Y00760984
X00483362
Y00786384
T09
X00074Y00615
X000994
X001248
X001502
X001756
X00201
T10
X00382016Y00142494
Y00167894
Y00193294
Y00218694
Y00244094
Y00269494
Y00294894
Y00320294
X00432016
Y00294894
Y00269494
Y00244094
Y00218694
Y00193294
Y00167894
Y00142494
X00431038Y00378206
Y00403606
Y00429006
Y00454406
Y00479806
Y00505206
Y00530606
Y00556006
X00381038
Y00530606
Y00505206
Y00479806
Y00454406
Y00429006
Y00403606
Y00378206
T11
X-00121Y000625
X00461
X-00121Y008775
X00461
M30
