G04 Layer_Color=8479232*
%FSLAX44Y44*%
%MOMM*%
G71*
G01*
G75*
%ADD39R,0.6096X0.5842*%
%ADD40R,0.5842X0.6096*%
%ADD58C,0.2000*%
%ADD66C,1.5000*%
%ADD68R,1.5000X1.5000*%
%ADD69C,1.8000*%
%ADD70P,1.9483X8X292.5*%
%ADD71C,1.5240*%
%ADD72C,1.3000*%
%ADD73O,1.3970X1.7780*%
%ADD74R,1.3970X1.7780*%
%ADD77P,1.9483X8X22.5*%
%ADD78C,10.0000*%
%ADD79C,1.0500*%
%ADD80P,1.1365X8X292.5*%
%ADD81C,1.5748*%
%ADD105R,1.9000X1.3000*%
%ADD106R,2.8000X1.0000*%
%ADD107R,0.8000X1.0000*%
%ADD108R,1.2000X1.0000*%
%ADD109R,1.2000X0.7000*%
%ADD110R,0.6000X1.0500*%
%ADD111R,1.5000X0.5500*%
%ADD112R,1.9800X0.5300*%
%ADD113R,0.4500X1.0500*%
%ADD166R,0.7500X0.7500*%
%ADD168R,0.7500X0.7500*%
%ADD169R,1.4000X1.4000*%
%ADD179C,1.6000*%
G04:AMPARAMS|DCode=180|XSize=1.6mm|YSize=1.6mm|CornerRadius=0.125mm|HoleSize=0mm|Usage=FLASHONLY|Rotation=90.000|XOffset=0mm|YOffset=0mm|HoleType=Round|Shape=RoundedRectangle|*
%AMROUNDEDRECTD180*
21,1,1.6000,1.3500,0,0,90.0*
21,1,1.3500,1.6000,0,0,90.0*
1,1,0.2500,0.6750,0.6750*
1,1,0.2500,0.6750,-0.6750*
1,1,0.2500,-0.6750,-0.6750*
1,1,0.2500,-0.6750,0.6750*
%
%ADD180ROUNDEDRECTD180*%
G04:AMPARAMS|DCode=181|XSize=1.8mm|YSize=1.8mm|CornerRadius=0.22mm|HoleSize=0mm|Usage=FLASHONLY|Rotation=0.000|XOffset=0mm|YOffset=0mm|HoleType=Round|Shape=RoundedRectangle|*
%AMROUNDEDRECTD181*
21,1,1.8000,1.3600,0,0,0.0*
21,1,1.3600,1.8000,0,0,0.0*
1,1,0.4400,0.6800,-0.6800*
1,1,0.4400,-0.6800,-0.6800*
1,1,0.4400,-0.6800,0.6800*
1,1,0.4400,0.6800,0.6800*
%
%ADD181ROUNDEDRECTD181*%
%ADD182R,1.7000X1.7000*%
%ADD183R,1.4000X1.4000*%
D39*
X30734Y382016D02*
D03*
X40894D02*
D03*
X8636Y382270D02*
D03*
X18796D02*
D03*
X22606Y430022D02*
D03*
X32766D02*
D03*
X351282Y227838D02*
D03*
X361442D02*
D03*
X350012Y166624D02*
D03*
X360172D02*
D03*
X350012Y141732D02*
D03*
X360172D02*
D03*
X351282Y194056D02*
D03*
X361442D02*
D03*
X351282Y210312D02*
D03*
X361442D02*
D03*
X320160Y274000D02*
D03*
X310000D02*
D03*
X282822Y255714D02*
D03*
X272662D02*
D03*
D40*
X256662Y206554D02*
D03*
Y216714D02*
D03*
X242662Y195554D02*
D03*
Y205714D02*
D03*
D58*
X520000Y930000D02*
G03*
X510000Y940000I-10000J0D01*
G01*
Y0D02*
G03*
X520000Y10000I0J10000D01*
G01*
X-180000D02*
G03*
X-170000Y0I10000J0D01*
G01*
Y940000D02*
G03*
X-180000Y930000I0J-10000D01*
G01*
X0Y-85000D02*
X340000D01*
X0Y1025000D02*
X340000D01*
X0Y940000D02*
Y1025000D01*
X340000Y940000D02*
Y1025000D01*
Y-85000D02*
Y0D01*
X0Y-85000D02*
Y0D01*
X-165000D02*
X0D01*
X-170000Y940000D02*
X0D01*
X-180000Y10000D02*
Y930000D01*
X340000Y940000D02*
X505000D01*
X340000Y0D02*
X505000D01*
X520000Y10000D02*
Y930000D01*
X505000Y940000D02*
X510000D01*
X505000Y0D02*
X510000D01*
X-170000D02*
X-165000D01*
D66*
X-85800Y513000D02*
D03*
X-111200D02*
D03*
X-136600D02*
D03*
X432562Y786384D02*
D03*
X457962Y760984D02*
D03*
Y786384D02*
D03*
X483362Y760984D02*
D03*
Y786384D02*
D03*
X-137400Y565000D02*
D03*
X-162800D02*
D03*
X278384Y476758D02*
D03*
X303784D02*
D03*
D68*
X-162000Y513000D02*
D03*
X432562Y760984D02*
D03*
X-112000Y565000D02*
D03*
X252984Y476758D02*
D03*
D69*
X21082Y555752D02*
D03*
X332740Y736854D02*
D03*
X51400Y184000D02*
D03*
X201550Y902750D02*
D03*
X176150D02*
D03*
X332486Y315468D02*
D03*
X42418Y511556D02*
D03*
X-64000Y149600D02*
D03*
X-89000Y432600D02*
D03*
X344678Y560324D02*
D03*
X-91440Y652780D02*
D03*
X336600Y845600D02*
D03*
X362000D02*
D03*
X336600Y871000D02*
D03*
X362000Y820200D02*
D03*
X336600D02*
D03*
D70*
X21082Y581152D02*
D03*
X332740Y762254D02*
D03*
X332486Y290068D02*
D03*
X-64000Y175000D02*
D03*
X-89000Y458000D02*
D03*
X344678Y534924D02*
D03*
X-91440Y627380D02*
D03*
D71*
X431038Y378206D02*
D03*
Y403606D02*
D03*
Y429006D02*
D03*
Y454406D02*
D03*
Y479806D02*
D03*
Y505206D02*
D03*
Y530606D02*
D03*
Y556006D02*
D03*
X381038Y378206D02*
D03*
Y403606D02*
D03*
Y429006D02*
D03*
Y454406D02*
D03*
Y479806D02*
D03*
Y505206D02*
D03*
Y530606D02*
D03*
Y556006D02*
D03*
X432016Y142494D02*
D03*
Y167894D02*
D03*
Y193294D02*
D03*
Y218694D02*
D03*
Y244094D02*
D03*
Y269494D02*
D03*
Y294894D02*
D03*
Y320294D02*
D03*
X382016Y142494D02*
D03*
Y167894D02*
D03*
Y193294D02*
D03*
Y218694D02*
D03*
Y244094D02*
D03*
Y269494D02*
D03*
Y294894D02*
D03*
Y320294D02*
D03*
D72*
X-149860Y627794D02*
D03*
Y647794D02*
D03*
D73*
X150200Y615000D02*
D03*
X99400D02*
D03*
X175600D02*
D03*
X124800D02*
D03*
X74000D02*
D03*
D74*
X201000D02*
D03*
D77*
X150750Y902750D02*
D03*
X17018Y511556D02*
D03*
X362000Y871000D02*
D03*
D78*
X461000Y62500D02*
D03*
X-121000D02*
D03*
X461000Y877500D02*
D03*
X-121000D02*
D03*
D79*
X-22720Y800000D02*
D03*
X-10020D02*
D03*
X2680D02*
D03*
X15380D02*
D03*
X-22720Y787300D02*
D03*
X-10020D02*
D03*
X2680D02*
D03*
X15380D02*
D03*
X28080D02*
D03*
D80*
Y800000D02*
D03*
D81*
X-14000Y415000D02*
D03*
Y463800D02*
D03*
D105*
X451612Y574802D02*
D03*
D106*
X447112Y709802D02*
D03*
D107*
X405612D02*
D03*
D108*
X343612D02*
D03*
X300612Y598302D02*
D03*
D109*
Y700302D02*
D03*
Y690802D02*
D03*
Y679802D02*
D03*
Y668802D02*
D03*
Y657802D02*
D03*
Y646802D02*
D03*
Y635802D02*
D03*
Y624802D02*
D03*
Y613802D02*
D03*
D110*
X75032Y392614D02*
D03*
X56032D02*
D03*
X65532Y415614D02*
D03*
D111*
X37084Y415240D02*
D03*
Y396240D02*
D03*
X14084Y405740D02*
D03*
D112*
X251662Y96714D02*
D03*
Y109414D02*
D03*
Y122114D02*
D03*
Y134814D02*
D03*
X301662Y96714D02*
D03*
Y109414D02*
D03*
Y122114D02*
D03*
Y134814D02*
D03*
D113*
X274162Y230214D02*
D03*
X280662D02*
D03*
X287162D02*
D03*
X293662D02*
D03*
X300162D02*
D03*
X306662D02*
D03*
X313162D02*
D03*
X319662D02*
D03*
X326162D02*
D03*
X332662D02*
D03*
X274162Y174714D02*
D03*
X280662D02*
D03*
X287162D02*
D03*
X293662D02*
D03*
X300162D02*
D03*
X306662D02*
D03*
X313162D02*
D03*
X319662D02*
D03*
X326162D02*
D03*
X332662D02*
D03*
D166*
X294220Y158750D02*
D03*
X305220D02*
D03*
X35710Y370586D02*
D03*
X24710D02*
D03*
X270598Y158496D02*
D03*
X281598D02*
D03*
X356362Y275590D02*
D03*
X345362D02*
D03*
X316572Y160274D02*
D03*
X327572D02*
D03*
X309162Y249714D02*
D03*
X320162D02*
D03*
D168*
X323662Y72214D02*
D03*
Y83214D02*
D03*
D169*
X356362Y242824D02*
D03*
Y260824D02*
D03*
D179*
X-160400Y377600D02*
D03*
X-135000D02*
D03*
X-160400Y352200D02*
D03*
X-135000D02*
D03*
X-160400Y326800D02*
D03*
X-135000D02*
D03*
X-160400Y301400D02*
D03*
X-135000D02*
D03*
X-160400Y276000D02*
D03*
X-135000D02*
D03*
X-160400Y250600D02*
D03*
X-135000D02*
D03*
X-160400Y225200D02*
D03*
X-135000D02*
D03*
X-160400Y199800D02*
D03*
X-135000D02*
D03*
X-160400Y174400D02*
D03*
X-135000D02*
D03*
X-160400Y149000D02*
D03*
D180*
X-135000D02*
D03*
D181*
X26000Y184000D02*
D03*
D182*
X339162Y101214D02*
D03*
Y125214D02*
D03*
D183*
X284116Y77724D02*
D03*
X302116D02*
D03*
M02*
