G04 Layer_Color=33789*
%FSLAX44Y44*%
%MOMM*%
G71*
G01*
G75*
%ADD58C,0.2000*%
%ADD196C,0.0508*%
%ADD197C,0.0677*%
%ADD198C,0.0339*%
D58*
X520000Y930000D02*
G03*
X510000Y940000I-10000J0D01*
G01*
Y0D02*
G03*
X520000Y10000I0J10000D01*
G01*
X-180000D02*
G03*
X-170000Y0I10000J0D01*
G01*
Y940000D02*
G03*
X-180000Y930000I0J-10000D01*
G01*
X0Y-85000D02*
X340000D01*
X0Y1025000D02*
X340000D01*
X0Y940000D02*
Y1025000D01*
X340000Y940000D02*
Y1025000D01*
Y-85000D02*
Y0D01*
X0Y-85000D02*
Y0D01*
X-165000D02*
X0D01*
X-170000Y940000D02*
X0D01*
X-180000Y10000D02*
Y930000D01*
X340000Y940000D02*
X505000D01*
X340000Y0D02*
X505000D01*
X520000Y10000D02*
Y930000D01*
X505000Y940000D02*
X510000D01*
X505000Y0D02*
X510000D01*
X-170000D02*
X-165000D01*
D196*
X-162432Y375568D02*
Y379632D01*
X-158368D01*
Y375568D01*
X-162432D01*
X-137032D02*
Y379632D01*
X-132968D01*
Y375568D01*
X-137032D01*
X-162432Y350168D02*
Y354232D01*
X-158368D01*
Y350168D01*
X-162432D01*
X-137032D02*
Y354232D01*
X-132968D01*
Y350168D01*
X-137032D01*
X-162432Y324768D02*
Y328832D01*
X-158368D01*
Y324768D01*
X-162432D01*
X-137032D02*
Y328832D01*
X-132968D01*
Y324768D01*
X-137032D01*
X-162432Y299368D02*
Y303432D01*
X-158368D01*
Y299368D01*
X-162432D01*
X-137032D02*
Y303432D01*
X-132968D01*
Y299368D01*
X-137032D01*
X-162432Y273968D02*
Y278032D01*
X-158368D01*
Y273968D01*
X-162432D01*
X-137032D02*
Y278032D01*
X-132968D01*
Y273968D01*
X-137032D01*
X-162432Y248568D02*
Y252632D01*
X-158368D01*
Y248568D01*
X-162432D01*
X-137032D02*
Y252632D01*
X-132968D01*
Y248568D01*
X-137032D01*
X-162432Y223168D02*
Y227232D01*
X-158368D01*
Y223168D01*
X-162432D01*
X-137032D02*
Y227232D01*
X-132968D01*
Y223168D01*
X-137032D01*
X-162432Y197768D02*
Y201832D01*
X-158368D01*
Y197768D01*
X-162432D01*
X-137032D02*
Y201832D01*
X-132968D01*
Y197768D01*
X-137032D01*
X-162432Y172368D02*
Y176432D01*
X-158368D01*
Y172368D01*
X-162432D01*
X-137032D02*
Y176432D01*
X-132968D01*
Y172368D01*
X-137032D01*
X-162432Y146968D02*
Y151032D01*
X-158368D01*
Y146968D01*
X-162432D01*
X-137032D02*
Y151032D01*
X-132968D01*
Y146968D01*
X-137032D01*
X-87832Y510968D02*
Y515032D01*
X-83768D01*
Y510968D01*
X-87832D01*
X-113232D02*
Y515032D01*
X-109168D01*
Y510968D01*
X-113232D01*
X-138632D02*
Y515032D01*
X-134568D01*
Y510968D01*
X-138632D01*
X-164032D02*
Y515032D01*
X-159968D01*
Y510968D01*
X-164032D01*
X-114032Y562968D02*
Y567032D01*
X-109968D01*
Y562968D01*
X-114032D01*
X-139432D02*
Y567032D01*
X-135368D01*
Y562968D01*
X-139432D01*
X-164832D02*
Y567032D01*
X-160768D01*
Y562968D01*
X-164832D01*
X250952Y474726D02*
Y478790D01*
X255016D01*
Y474726D01*
X250952D01*
X276352D02*
Y478790D01*
X280416D01*
Y474726D01*
X276352D01*
X301752D02*
Y478790D01*
X305816D01*
Y474726D01*
X301752D01*
X431038Y376174D02*
X429006Y380238D01*
X433070D01*
X431038Y376174D01*
Y401574D02*
X429006Y405638D01*
X433070D01*
X431038Y401574D01*
Y426974D02*
X429006Y431038D01*
X433070D01*
X431038Y426974D01*
Y452374D02*
X429006Y456438D01*
X433070D01*
X431038Y452374D01*
Y477774D02*
X429006Y481838D01*
X433070D01*
X431038Y477774D01*
Y503174D02*
X429006Y507238D01*
X433070D01*
X431038Y503174D01*
Y528574D02*
X429006Y532638D01*
X433070D01*
X431038Y528574D01*
Y553974D02*
X429006Y558038D01*
X433070D01*
X431038Y553974D01*
X381038Y376174D02*
X379006Y380238D01*
X383070D01*
X381038Y376174D01*
Y401574D02*
X379006Y405638D01*
X383070D01*
X381038Y401574D01*
Y426974D02*
X379006Y431038D01*
X383070D01*
X381038Y426974D01*
Y452374D02*
X379006Y456438D01*
X383070D01*
X381038Y452374D01*
Y477774D02*
X379006Y481838D01*
X383070D01*
X381038Y477774D01*
Y503174D02*
X379006Y507238D01*
X383070D01*
X381038Y503174D01*
Y528574D02*
X379006Y532638D01*
X383070D01*
X381038Y528574D01*
Y553974D02*
X379006Y558038D01*
X383070D01*
X381038Y553974D01*
X432016Y140462D02*
X429984Y144526D01*
X434048D01*
X432016Y140462D01*
Y165862D02*
X429984Y169926D01*
X434048D01*
X432016Y165862D01*
Y191262D02*
X429984Y195326D01*
X434048D01*
X432016Y191262D01*
Y216662D02*
X429984Y220726D01*
X434048D01*
X432016Y216662D01*
Y242062D02*
X429984Y246126D01*
X434048D01*
X432016Y242062D01*
Y267462D02*
X429984Y271526D01*
X434048D01*
X432016Y267462D01*
Y292862D02*
X429984Y296926D01*
X434048D01*
X432016Y292862D01*
Y318262D02*
X429984Y322326D01*
X434048D01*
X432016Y318262D01*
X382016Y140462D02*
X379984Y144526D01*
X384048D01*
X382016Y140462D01*
Y165862D02*
X379984Y169926D01*
X384048D01*
X382016Y165862D01*
Y191262D02*
X379984Y195326D01*
X384048D01*
X382016Y191262D01*
Y216662D02*
X379984Y220726D01*
X384048D01*
X382016Y216662D01*
Y242062D02*
X379984Y246126D01*
X384048D01*
X382016Y242062D01*
Y267462D02*
X379984Y271526D01*
X384048D01*
X382016Y267462D01*
Y292862D02*
X379984Y296926D01*
X384048D01*
X382016Y292862D01*
Y318262D02*
X379984Y322326D01*
X384048D01*
X382016Y318262D01*
X-149860Y625762D02*
X-148844Y626778D01*
X-147828D01*
X-148844Y627794D01*
X-147828Y628810D01*
X-148844D01*
X-149860Y629826D01*
X-150876Y628810D01*
X-151892D01*
X-150876Y627794D01*
X-151892Y626778D01*
X-150876D01*
X-149860Y625762D01*
Y645762D02*
X-148844Y646778D01*
X-147828D01*
X-148844Y647794D01*
X-147828Y648810D01*
X-148844D01*
X-149860Y649826D01*
X-150876Y648810D01*
X-151892D01*
X-150876Y647794D01*
X-151892Y646778D01*
X-150876D01*
X-149860Y645762D01*
X148168Y612968D02*
X149184Y615000D01*
X148168Y617032D01*
X150200Y616016D01*
X152232Y617032D01*
X151216Y615000D01*
X152232Y612968D01*
X150200Y613984D01*
X148168Y612968D01*
X97368D02*
X98384Y615000D01*
X97368Y617032D01*
X99400Y616016D01*
X101432Y617032D01*
X100416Y615000D01*
X101432Y612968D01*
X99400Y613984D01*
X97368Y612968D01*
X173568D02*
X174584Y615000D01*
X173568Y617032D01*
X175600Y616016D01*
X177632Y617032D01*
X176616Y615000D01*
X177632Y612968D01*
X175600Y613984D01*
X173568Y612968D01*
X198968D02*
X199984Y615000D01*
X198968Y617032D01*
X201000Y616016D01*
X203032Y617032D01*
X202016Y615000D01*
X203032Y612968D01*
X201000Y613984D01*
X198968Y612968D01*
X122768D02*
X123784Y615000D01*
X122768Y617032D01*
X124800Y616016D01*
X126832Y617032D01*
X125816Y615000D01*
X126832Y612968D01*
X124800Y613984D01*
X122768Y612968D01*
X71968D02*
X72984Y615000D01*
X71968Y617032D01*
X74000Y616016D01*
X76032Y617032D01*
X75016Y615000D01*
X76032Y612968D01*
X74000Y613984D01*
X71968Y612968D01*
X49368Y181968D02*
Y186032D01*
X53432D01*
Y181968D01*
X49368D01*
X459984Y61484D02*
Y60468D01*
X462016D01*
Y61484D01*
X463032D01*
Y63516D01*
X462016D01*
Y64532D01*
X459984D01*
Y63516D01*
X458968D01*
Y61484D01*
X459984D01*
X-122016D02*
Y60468D01*
X-119984D01*
Y61484D01*
X-118968D01*
Y63516D01*
X-119984D01*
Y64532D01*
X-122016D01*
Y63516D01*
X-123032D01*
Y61484D01*
X-122016D01*
X459984Y876484D02*
Y875468D01*
X462016D01*
Y876484D01*
X463032D01*
Y878516D01*
X462016D01*
Y879532D01*
X459984D01*
Y878516D01*
X458968D01*
Y876484D01*
X459984D01*
X-122016D02*
Y875468D01*
X-119984D01*
Y876484D01*
X-118968D01*
Y878516D01*
X-119984D01*
Y879532D01*
X-122016D01*
Y878516D01*
X-123032D01*
Y876484D01*
X-122016D01*
X-24752Y797968D02*
X-23736D01*
X-22720Y798984D01*
X-21704Y797968D01*
X-20688D01*
Y798984D01*
X-21704Y800000D01*
X-20688Y801016D01*
Y802032D01*
X-21704D01*
X-22720Y801016D01*
X-23736Y802032D01*
X-24752D01*
Y801016D01*
X-23736Y800000D01*
X-24752Y798984D01*
Y797968D01*
X-12052D02*
X-11036D01*
X-10020Y798984D01*
X-9004Y797968D01*
X-7988D01*
Y798984D01*
X-9004Y800000D01*
X-7988Y801016D01*
Y802032D01*
X-9004D01*
X-10020Y801016D01*
X-11036Y802032D01*
X-12052D01*
Y801016D01*
X-11036Y800000D01*
X-12052Y798984D01*
Y797968D01*
X648D02*
X1664D01*
X2680Y798984D01*
X3696Y797968D01*
X4712D01*
Y798984D01*
X3696Y800000D01*
X4712Y801016D01*
Y802032D01*
X3696D01*
X2680Y801016D01*
X1664Y802032D01*
X648D01*
Y801016D01*
X1664Y800000D01*
X648Y798984D01*
Y797968D01*
X13348D02*
X14364D01*
X15380Y798984D01*
X16396Y797968D01*
X17412D01*
Y798984D01*
X16396Y800000D01*
X17412Y801016D01*
Y802032D01*
X16396D01*
X15380Y801016D01*
X14364Y802032D01*
X13348D01*
Y801016D01*
X14364Y800000D01*
X13348Y798984D01*
Y797968D01*
X26048D02*
X27064D01*
X28080Y798984D01*
X29096Y797968D01*
X30112D01*
Y798984D01*
X29096Y800000D01*
X30112Y801016D01*
Y802032D01*
X29096D01*
X28080Y801016D01*
X27064Y802032D01*
X26048D01*
Y801016D01*
X27064Y800000D01*
X26048Y798984D01*
Y797968D01*
X-24752Y785268D02*
X-23736D01*
X-22720Y786284D01*
X-21704Y785268D01*
X-20688D01*
Y786284D01*
X-21704Y787300D01*
X-20688Y788316D01*
Y789332D01*
X-21704D01*
X-22720Y788316D01*
X-23736Y789332D01*
X-24752D01*
Y788316D01*
X-23736Y787300D01*
X-24752Y786284D01*
Y785268D01*
X-12052D02*
X-11036D01*
X-10020Y786284D01*
X-9004Y785268D01*
X-7988D01*
Y786284D01*
X-9004Y787300D01*
X-7988Y788316D01*
Y789332D01*
X-9004D01*
X-10020Y788316D01*
X-11036Y789332D01*
X-12052D01*
Y788316D01*
X-11036Y787300D01*
X-12052Y786284D01*
Y785268D01*
X648D02*
X1664D01*
X2680Y786284D01*
X3696Y785268D01*
X4712D01*
Y786284D01*
X3696Y787300D01*
X4712Y788316D01*
Y789332D01*
X3696D01*
X2680Y788316D01*
X1664Y789332D01*
X648D01*
Y788316D01*
X1664Y787300D01*
X648Y786284D01*
Y785268D01*
X13348D02*
X14364D01*
X15380Y786284D01*
X16396Y785268D01*
X17412D01*
Y786284D01*
X16396Y787300D01*
X17412Y788316D01*
Y789332D01*
X16396D01*
X15380Y788316D01*
X14364Y789332D01*
X13348D01*
Y788316D01*
X14364Y787300D01*
X13348Y786284D01*
Y785268D01*
X26048D02*
X27064D01*
X28080Y786284D01*
X29096Y785268D01*
X30112D01*
Y786284D01*
X29096Y787300D01*
X30112Y788316D01*
Y789332D01*
X29096D01*
X28080Y788316D01*
X27064Y789332D01*
X26048D01*
Y788316D01*
X27064Y787300D01*
X26048Y786284D01*
Y785268D01*
X-16032Y415000D02*
X-14000Y417032D01*
X-11968Y415000D01*
X-14000Y412968D01*
X-16032Y415000D01*
Y463800D02*
X-14000Y465832D01*
X-11968Y463800D01*
X-14000Y461768D01*
X-16032Y463800D01*
X-170180Y470408D02*
Y474472D01*
X-166116D01*
Y470408D01*
X-170180D01*
X-169164Y471424D02*
Y473456D01*
X-167132D01*
Y471424D01*
X-169164D01*
X176968Y444968D02*
Y449032D01*
X181032D01*
Y444968D01*
X176968D01*
X177984Y445984D02*
Y448016D01*
X180016D01*
Y445984D01*
X177984D01*
X257302Y630936D02*
Y635000D01*
X261366D01*
Y630936D01*
X257302D01*
X258318Y631952D02*
Y633984D01*
X260350D01*
Y631952D01*
X258318D01*
X247142Y630682D02*
Y634746D01*
X251206D01*
Y630682D01*
X247142D01*
X248158Y631698D02*
Y633730D01*
X250190D01*
Y631698D01*
X248158D01*
X236982Y630682D02*
Y634746D01*
X241046D01*
Y630682D01*
X236982D01*
X237998Y631698D02*
Y633730D01*
X240030D01*
Y631698D01*
X237998D01*
X46953Y365968D02*
Y370032D01*
X51017D01*
Y365968D01*
X46953D01*
X47969Y366984D02*
Y369016D01*
X50001D01*
Y366984D01*
X47969D01*
X42418Y439166D02*
Y443230D01*
X46482D01*
Y439166D01*
X42418D01*
X43434Y440182D02*
Y442214D01*
X45466D01*
Y440182D01*
X43434D01*
X-17018Y439674D02*
Y443738D01*
X-12954D01*
Y439674D01*
X-17018D01*
X-16002Y440690D02*
Y442722D01*
X-13970D01*
Y440690D01*
X-16002D01*
X-89408Y587756D02*
Y591820D01*
X-85344D01*
Y587756D01*
X-89408D01*
X-88392Y588772D02*
Y590804D01*
X-86360D01*
Y588772D01*
X-88392D01*
X258318Y236220D02*
Y240284D01*
X262382D01*
Y236220D01*
X258318D01*
X259334Y237236D02*
Y239268D01*
X261366D01*
Y237236D01*
X259334D01*
X158968Y462968D02*
Y467032D01*
X163032D01*
Y462968D01*
X158968D01*
X159984Y463984D02*
Y466016D01*
X162016D01*
Y463984D01*
X159984D01*
X230886Y486918D02*
Y490982D01*
X234950D01*
Y486918D01*
X230886D01*
X231902Y487934D02*
Y489966D01*
X233934D01*
Y487934D01*
X231902D01*
X472440Y728980D02*
Y733044D01*
X476504D01*
Y728980D01*
X472440D01*
X473456Y729996D02*
Y732028D01*
X475488D01*
Y729996D01*
X473456D01*
X454406Y675132D02*
Y679196D01*
X458470D01*
Y675132D01*
X454406D01*
X455422Y676148D02*
Y678180D01*
X457454D01*
Y676148D01*
X455422D01*
X449580Y620014D02*
Y624078D01*
X453644D01*
Y620014D01*
X449580D01*
X450596Y621030D02*
Y623062D01*
X452628D01*
Y621030D01*
X450596D01*
X449856Y586994D02*
Y591058D01*
X453920D01*
Y586994D01*
X449856D01*
X450872Y588010D02*
Y590042D01*
X452904D01*
Y588010D01*
X450872D01*
X346456Y722630D02*
Y726694D01*
X350520D01*
Y722630D01*
X346456D01*
X347472Y723646D02*
Y725678D01*
X349504D01*
Y723646D01*
X347472D01*
X208978Y561996D02*
Y566059D01*
X213042D01*
Y561996D01*
X208978D01*
X209994Y563012D02*
Y565043D01*
X212026D01*
Y563012D01*
X209994D01*
X191968Y332968D02*
Y337032D01*
X196032D01*
Y332968D01*
X191968D01*
X192984Y333984D02*
Y336016D01*
X195016D01*
Y333984D01*
X192984D01*
X198968Y322968D02*
Y327032D01*
X203032D01*
Y322968D01*
X198968D01*
X199984Y323984D02*
Y326016D01*
X202016D01*
Y323984D01*
X199984D01*
X155968Y306967D02*
Y311031D01*
X160032D01*
Y306967D01*
X155968D01*
X156984Y307983D02*
Y310015D01*
X159016D01*
Y307983D01*
X156984D01*
X185468Y306968D02*
Y311032D01*
X189532D01*
Y306968D01*
X185468D01*
X186484Y307984D02*
Y310016D01*
X188516D01*
Y307984D01*
X186484D01*
X175968Y306967D02*
Y311031D01*
X180032D01*
Y306967D01*
X175968D01*
X176984Y307983D02*
Y310015D01*
X179016D01*
Y307983D01*
X176984D01*
X207968Y311968D02*
Y316032D01*
X212032D01*
Y311968D01*
X207968D01*
X208984Y312984D02*
Y315016D01*
X211016D01*
Y312984D01*
X208984D01*
X167968Y336968D02*
Y341032D01*
X172032D01*
Y336968D01*
X167968D01*
X168984Y337984D02*
Y340016D01*
X171016D01*
Y337984D01*
X168984D01*
X179968Y336968D02*
Y341032D01*
X184032D01*
Y336968D01*
X179968D01*
X180984Y337984D02*
Y340016D01*
X183016D01*
Y337984D01*
X180984D01*
X165968Y306968D02*
Y311032D01*
X170032D01*
Y306968D01*
X165968D01*
X166984Y307984D02*
Y310016D01*
X169016D01*
Y307984D01*
X166984D01*
X191968Y233968D02*
Y238032D01*
X196032D01*
Y233968D01*
X191968D01*
X192984Y234984D02*
Y237016D01*
X195016D01*
Y234984D01*
X192984D01*
X178968Y233968D02*
Y238032D01*
X183032D01*
Y233968D01*
X178968D01*
X179984Y234984D02*
Y237016D01*
X182016D01*
Y234984D01*
X179984D01*
X165968Y233968D02*
Y238032D01*
X170032D01*
Y233968D01*
X165968D01*
X166984Y234984D02*
Y237016D01*
X169016D01*
Y234984D01*
X166984D01*
X191968Y246968D02*
Y251032D01*
X196032D01*
Y246968D01*
X191968D01*
X192984Y247984D02*
Y250016D01*
X195016D01*
Y247984D01*
X192984D01*
X178968Y246968D02*
Y251032D01*
X183032D01*
Y246968D01*
X178968D01*
X179984Y247984D02*
Y250016D01*
X182016D01*
Y247984D01*
X179984D01*
X165968Y246968D02*
Y251032D01*
X170032D01*
Y246968D01*
X165968D01*
X166984Y247984D02*
Y250016D01*
X169016D01*
Y247984D01*
X166984D01*
X191968Y259968D02*
Y264032D01*
X196032D01*
Y259968D01*
X191968D01*
X192984Y260984D02*
Y263016D01*
X195016D01*
Y260984D01*
X192984D01*
X178968Y259968D02*
Y264032D01*
X183032D01*
Y259968D01*
X178968D01*
X179984Y260984D02*
Y263016D01*
X182016D01*
Y260984D01*
X179984D01*
X165968Y259968D02*
Y264032D01*
X170032D01*
Y259968D01*
X165968D01*
X166984Y260984D02*
Y263016D01*
X169016D01*
Y260984D01*
X166984D01*
X219968Y370968D02*
Y375032D01*
X224032D01*
Y370968D01*
X219968D01*
X220984Y371984D02*
Y374016D01*
X223016D01*
Y371984D01*
X220984D01*
X53968Y134968D02*
Y139032D01*
X58032D01*
Y134968D01*
X53968D01*
X54984Y135984D02*
Y138016D01*
X57016D01*
Y135984D01*
X54984D01*
X222968Y205968D02*
Y210032D01*
X227032D01*
Y205968D01*
X222968D01*
X223984Y206984D02*
Y209016D01*
X226016D01*
Y206984D01*
X223984D01*
X313968Y743968D02*
Y748032D01*
X318032D01*
Y743968D01*
X313968D01*
X314984Y744984D02*
Y747016D01*
X317016D01*
Y744984D01*
X314984D01*
X250968Y505968D02*
Y510032D01*
X255032D01*
Y505968D01*
X250968D01*
X251984Y506984D02*
Y509016D01*
X254016D01*
Y506984D01*
X251984D01*
X207518Y644144D02*
Y648208D01*
X211582D01*
Y644144D01*
X207518D01*
X208534Y645160D02*
Y647192D01*
X210566D01*
Y645160D01*
X208534D01*
X-87630Y597408D02*
Y601472D01*
X-83566D01*
Y597408D01*
X-87630D01*
X-86614Y598424D02*
Y600456D01*
X-84582D01*
Y598424D01*
X-86614D01*
X12956Y828008D02*
Y832072D01*
X17020D01*
Y828008D01*
X12956D01*
X13972Y829024D02*
Y831056D01*
X16004D01*
Y829024D01*
X13972D01*
X157968Y545968D02*
Y550032D01*
X162032D01*
Y545968D01*
X157968D01*
X158984Y546984D02*
Y549016D01*
X161016D01*
Y546984D01*
X158984D01*
X309967Y505967D02*
Y510031D01*
X314031D01*
Y505967D01*
X309967D01*
X310983Y506983D02*
Y509015D01*
X313015D01*
Y506983D01*
X310983D01*
X294967Y505967D02*
Y510031D01*
X299031D01*
Y505967D01*
X294967D01*
X295983Y506983D02*
Y509015D01*
X298015D01*
Y506983D01*
X295983D01*
X294968Y531968D02*
Y536032D01*
X299032D01*
Y531968D01*
X294968D01*
X295984Y532984D02*
Y535016D01*
X298016D01*
Y532984D01*
X295984D01*
X309968Y531968D02*
Y536032D01*
X314032D01*
Y531968D01*
X309968D01*
X310984Y532984D02*
Y535016D01*
X313016D01*
Y532984D01*
X310984D01*
X-15508Y504844D02*
Y508908D01*
X-11444D01*
Y504844D01*
X-15508D01*
X-14492Y505860D02*
Y507892D01*
X-12460D01*
Y505860D01*
X-14492D01*
X-508Y504844D02*
Y508908D01*
X3556D01*
Y504844D01*
X-508D01*
X508Y505860D02*
Y507892D01*
X2540D01*
Y505860D01*
X508D01*
X-508Y517844D02*
Y521908D01*
X3556D01*
Y517844D01*
X-508D01*
X508Y518860D02*
Y520892D01*
X2540D01*
Y518860D01*
X508D01*
X-15508Y517844D02*
Y521908D01*
X-11444D01*
Y517844D01*
X-15508D01*
X-14492Y518860D02*
Y520892D01*
X-12460D01*
Y518860D01*
X-14492D01*
X-14986Y549402D02*
Y553466D01*
X-10922D01*
Y549402D01*
X-14986D01*
X-13970Y550418D02*
Y552450D01*
X-11938D01*
Y550418D01*
X-13970D01*
X46990Y558862D02*
Y562926D01*
X51054D01*
Y558862D01*
X46990D01*
X48006Y559878D02*
Y561910D01*
X50038D01*
Y559878D01*
X48006D01*
X-2286Y548894D02*
Y552958D01*
X1778D01*
Y548894D01*
X-2286D01*
X-1270Y549910D02*
Y551942D01*
X762D01*
Y549910D01*
X-1270D01*
X-42032Y195968D02*
Y200032D01*
X-37968D01*
Y195968D01*
X-42032D01*
X-41016Y196984D02*
Y199016D01*
X-38984D01*
Y196984D01*
X-41016D01*
X198968Y526968D02*
Y531032D01*
X203032D01*
Y526968D01*
X198968D01*
X199984Y527984D02*
Y530016D01*
X202016D01*
Y527984D01*
X199984D01*
X33968Y150968D02*
Y155032D01*
X38032D01*
Y150968D01*
X33968D01*
X34984Y151984D02*
Y154016D01*
X37016D01*
Y151984D01*
X34984D01*
X185468Y121468D02*
Y125532D01*
X189532D01*
Y121468D01*
X185468D01*
X186484Y122484D02*
Y124516D01*
X188516D01*
Y122484D01*
X186484D01*
X178968Y175968D02*
Y180032D01*
X183032D01*
Y175968D01*
X178968D01*
X179984Y176984D02*
Y179016D01*
X182016D01*
Y176984D01*
X179984D01*
X148468Y195468D02*
Y199532D01*
X152532D01*
Y195468D01*
X148468D01*
X149484Y196484D02*
Y198516D01*
X151516D01*
Y196484D01*
X149484D01*
X-121032Y317968D02*
Y322032D01*
X-116968D01*
Y317968D01*
X-121032D01*
X-120016Y318984D02*
Y321016D01*
X-117984D01*
Y318984D01*
X-120016D01*
X119968Y456968D02*
Y461032D01*
X124032D01*
Y456968D01*
X119968D01*
X120984Y457984D02*
Y460016D01*
X123016D01*
Y457984D01*
X120984D01*
X127968Y463968D02*
Y468032D01*
X132032D01*
Y463968D01*
X127968D01*
X128984Y464984D02*
Y467016D01*
X131016D01*
Y464984D01*
X128984D01*
X143968Y423968D02*
Y428032D01*
X148032D01*
Y423968D01*
X143968D01*
X144984Y424984D02*
Y427016D01*
X147016D01*
Y424984D01*
X144984D01*
X135968Y435968D02*
Y440032D01*
X140032D01*
Y435968D01*
X135968D01*
X136984Y436984D02*
Y439016D01*
X139016D01*
Y436984D01*
X136984D01*
X-150032Y312968D02*
Y317032D01*
X-145968D01*
Y312968D01*
X-150032D01*
X-149016Y313984D02*
Y316016D01*
X-146984D01*
Y313984D01*
X-149016D01*
X-114032Y224968D02*
Y229032D01*
X-109968D01*
Y224968D01*
X-114032D01*
X-113016Y225984D02*
Y228016D01*
X-110984D01*
Y225984D01*
X-113016D01*
X-122032Y241968D02*
Y246032D01*
X-117968D01*
Y241968D01*
X-122032D01*
X-121016Y242984D02*
Y245016D01*
X-118984D01*
Y242984D01*
X-121016D01*
X-175032Y234968D02*
Y239032D01*
X-170968D01*
Y234968D01*
X-175032D01*
X-174016Y235984D02*
Y238016D01*
X-171984D01*
Y235984D01*
X-174016D01*
X125968Y322968D02*
Y327032D01*
X130032D01*
Y322968D01*
X125968D01*
X126984Y323984D02*
Y326016D01*
X129016D01*
Y323984D01*
X126984D01*
X-106032Y214968D02*
Y219032D01*
X-101968D01*
Y214968D01*
X-106032D01*
X-105016Y215984D02*
Y218016D01*
X-102984D01*
Y215984D01*
X-105016D01*
X-113032Y193968D02*
Y198032D01*
X-108968D01*
Y193968D01*
X-113032D01*
X-112016Y194984D02*
Y197016D01*
X-109984D01*
Y194984D01*
X-112016D01*
X-120032Y200968D02*
Y205032D01*
X-115968D01*
Y200968D01*
X-120032D01*
X-119016Y201984D02*
Y204016D01*
X-116984D01*
Y201984D01*
X-119016D01*
X160968Y434968D02*
Y439032D01*
X165032D01*
Y434968D01*
X160968D01*
X161984Y435984D02*
Y438016D01*
X164016D01*
Y435984D01*
X161984D01*
X76968Y499968D02*
Y504032D01*
X81032D01*
Y499968D01*
X76968D01*
X77984Y500984D02*
Y503016D01*
X80016D01*
Y500984D01*
X77984D01*
X96968Y557968D02*
Y562032D01*
X101032D01*
Y557968D01*
X96968D01*
X97984Y558984D02*
Y561016D01*
X100016D01*
Y558984D01*
X97984D01*
X71968Y540968D02*
Y545032D01*
X76032D01*
Y540968D01*
X71968D01*
X72984Y541984D02*
Y544016D01*
X75016D01*
Y541984D01*
X72984D01*
X136968Y540968D02*
Y545032D01*
X141032D01*
Y540968D01*
X136968D01*
X137984Y541984D02*
Y544016D01*
X140016D01*
Y541984D01*
X137984D01*
X147968Y523968D02*
Y528032D01*
X152032D01*
Y523968D01*
X147968D01*
X148984Y524984D02*
Y527016D01*
X151016D01*
Y524984D01*
X148984D01*
X155968Y531968D02*
Y536032D01*
X160032D01*
Y531968D01*
X155968D01*
X156984Y532984D02*
Y535016D01*
X159016D01*
Y532984D01*
X156984D01*
X184968Y557968D02*
Y562032D01*
X189032D01*
Y557968D01*
X184968D01*
X185984Y558984D02*
Y561016D01*
X188016D01*
Y558984D01*
X185984D01*
X224968Y393968D02*
Y398032D01*
X229032D01*
Y393968D01*
X224968D01*
X225984Y394984D02*
Y397016D01*
X228016D01*
Y394984D01*
X225984D01*
X104968Y401968D02*
Y406032D01*
X109032D01*
Y401968D01*
X104968D01*
X105984Y402984D02*
Y405016D01*
X108016D01*
Y402984D01*
X105984D01*
X109968Y393967D02*
Y398031D01*
X114032D01*
Y393967D01*
X109968D01*
X110984Y394983D02*
Y397015D01*
X113016D01*
Y394983D01*
X110984D01*
X104968Y385968D02*
Y390032D01*
X109032D01*
Y385968D01*
X104968D01*
X105984Y386984D02*
Y389016D01*
X108016D01*
Y386984D01*
X105984D01*
X110968Y378968D02*
Y383032D01*
X115032D01*
Y378968D01*
X110968D01*
X111984Y379984D02*
Y382016D01*
X114016D01*
Y379984D01*
X111984D01*
X171968Y813968D02*
Y818032D01*
X176032D01*
Y813968D01*
X171968D01*
X172984Y814984D02*
Y817016D01*
X175016D01*
Y814984D01*
X172984D01*
X332968Y792968D02*
Y797032D01*
X337032D01*
Y792968D01*
X332968D01*
X333984Y793984D02*
Y796016D01*
X336016D01*
Y793984D01*
X333984D01*
X263968Y296968D02*
Y301032D01*
X268032D01*
Y296968D01*
X263968D01*
X264984Y297984D02*
Y300016D01*
X267016D01*
Y297984D01*
X264984D01*
X59968Y557968D02*
Y562032D01*
X64032D01*
Y557968D01*
X59968D01*
X60984Y558984D02*
Y561016D01*
X63016D01*
Y558984D01*
X60984D01*
X-74032Y724968D02*
Y729032D01*
X-69968D01*
Y724968D01*
X-74032D01*
X-73016Y725984D02*
Y728016D01*
X-70984D01*
Y725984D01*
X-73016D01*
X-44032Y716968D02*
Y721032D01*
X-39968D01*
Y716968D01*
X-44032D01*
X-43016Y717984D02*
Y720016D01*
X-40984D01*
Y717984D01*
X-43016D01*
X38968Y695968D02*
Y700032D01*
X43032D01*
Y695968D01*
X38968D01*
X39984Y696984D02*
Y699016D01*
X42016D01*
Y696984D01*
X39984D01*
X15968Y706968D02*
Y711032D01*
X20032D01*
Y706968D01*
X15968D01*
X16984Y707984D02*
Y710016D01*
X19016D01*
Y707984D01*
X16984D01*
X104968Y706968D02*
Y711032D01*
X109032D01*
Y706968D01*
X104968D01*
X105984Y707984D02*
Y710016D01*
X108016D01*
Y707984D01*
X105984D01*
X345968Y776968D02*
Y781032D01*
X350032D01*
Y776968D01*
X345968D01*
X346984Y777984D02*
Y780016D01*
X349016D01*
Y777984D01*
X346984D01*
X308630Y186682D02*
Y190746D01*
X312694D01*
Y186682D01*
X308630D01*
X309646Y187698D02*
Y189730D01*
X311678D01*
Y187698D01*
X309646D01*
X297630Y247682D02*
Y251746D01*
X301694D01*
Y247682D01*
X297630D01*
X298646Y248698D02*
Y250730D01*
X300678D01*
Y248698D01*
X298646D01*
X218968Y386968D02*
Y391032D01*
X223032D01*
Y386968D01*
X218968D01*
X219984Y387984D02*
Y390016D01*
X222016D01*
Y387984D01*
X219984D01*
X224968Y378968D02*
Y383032D01*
X229032D01*
Y378968D01*
X224968D01*
X225984Y379984D02*
Y382016D01*
X228016D01*
Y379984D01*
X225984D01*
X84968Y695968D02*
Y700032D01*
X89032D01*
Y695968D01*
X84968D01*
X85984Y696984D02*
Y699016D01*
X88016D01*
Y696984D01*
X85984D01*
X68968Y145968D02*
Y150032D01*
X73032D01*
Y145968D01*
X68968D01*
X69984Y146984D02*
Y149016D01*
X72016D01*
Y146984D01*
X69984D01*
X72968Y134968D02*
Y139032D01*
X77032D01*
Y134968D01*
X72968D01*
X73984Y135984D02*
Y138016D01*
X76016D01*
Y135984D01*
X73984D01*
X133968Y85968D02*
Y90032D01*
X138032D01*
Y85968D01*
X133968D01*
X134984Y86984D02*
Y89016D01*
X137016D01*
Y86984D01*
X134984D01*
X366630Y93682D02*
Y97746D01*
X370694D01*
Y93682D01*
X366630D01*
X367646Y94698D02*
Y96730D01*
X369678D01*
Y94698D01*
X367646D01*
X291968Y271968D02*
Y276032D01*
X296032D01*
Y271968D01*
X291968D01*
X292984Y272984D02*
Y275016D01*
X295016D01*
Y272984D01*
X292984D01*
X95840Y994709D02*
Y998773D01*
X99904D01*
Y994709D01*
X95840D01*
X96856Y995725D02*
Y997757D01*
X98888D01*
Y995725D01*
X96856D01*
X86901Y993663D02*
Y997727D01*
X90965D01*
Y993663D01*
X86901D01*
X87917Y994679D02*
Y996711D01*
X89949D01*
Y994679D01*
X87917D01*
X82228Y985971D02*
Y990035D01*
X86292D01*
Y985971D01*
X82228D01*
X83244Y986987D02*
Y989019D01*
X85276D01*
Y986987D01*
X83244D01*
X82380Y967979D02*
Y972043D01*
X86444D01*
Y967979D01*
X82380D01*
X83396Y968995D02*
Y971027D01*
X85428D01*
Y968995D01*
X83396D01*
X82826Y958990D02*
Y963055D01*
X86890D01*
Y958990D01*
X82826D01*
X83842Y960006D02*
Y962038D01*
X85874D01*
Y960006D01*
X83842D01*
X65709Y964348D02*
Y968412D01*
X69773D01*
Y964348D01*
X65709D01*
X66725Y965364D02*
Y967396D01*
X68757D01*
Y965364D01*
X66725D01*
X65709Y982321D02*
Y986385D01*
X69773D01*
Y982321D01*
X65709D01*
X66725Y983337D02*
Y985369D01*
X68757D01*
Y983337D01*
X66725D01*
X66272Y991303D02*
Y995367D01*
X70336D01*
Y991303D01*
X66272D01*
X67288Y992319D02*
Y994351D01*
X69320D01*
Y992319D01*
X67288D01*
X69704Y999623D02*
Y1003687D01*
X73768D01*
Y999623D01*
X69704D01*
X70720Y1000639D02*
Y1002671D01*
X72752D01*
Y1000639D01*
X70720D01*
X75865Y1006183D02*
Y1010247D01*
X79929D01*
Y1006183D01*
X75865D01*
X76881Y1007199D02*
Y1009231D01*
X78913D01*
Y1007199D01*
X76881D01*
X83931Y1010175D02*
Y1014239D01*
X87995D01*
Y1010175D01*
X83931D01*
X84947Y1011191D02*
Y1013223D01*
X86979D01*
Y1011191D01*
X84947D01*
X92870Y1011227D02*
Y1015291D01*
X96934D01*
Y1011227D01*
X92870D01*
X93886Y1012243D02*
Y1014275D01*
X95918D01*
Y1012243D01*
X93886D01*
X51274Y899167D02*
Y903231D01*
X55339D01*
Y899167D01*
X51274D01*
X52291Y900183D02*
Y902215D01*
X54323D01*
Y900183D01*
X52291D01*
X42274Y899167D02*
Y903231D01*
X46339D01*
Y899167D01*
X42274D01*
X43291Y900183D02*
Y902215D01*
X45322D01*
Y900183D01*
X43291D01*
X33275Y899167D02*
Y903231D01*
X37339D01*
Y899167D01*
X33275D01*
X34290Y900183D02*
Y902215D01*
X36323D01*
Y900183D01*
X34290D01*
X24274Y899167D02*
Y903231D01*
X28338D01*
Y899167D01*
X24274D01*
X25291Y900183D02*
Y902215D01*
X27322D01*
Y900183D01*
X25291D01*
X15274Y899167D02*
Y903231D01*
X19339D01*
Y899167D01*
X15274D01*
X16291Y900183D02*
Y902215D01*
X18322D01*
Y900183D01*
X16291D01*
X6274Y899167D02*
Y903231D01*
X10338D01*
Y899167D01*
X6274D01*
X7290Y900183D02*
Y902215D01*
X9323D01*
Y900183D01*
X7290D01*
X-2725Y899167D02*
Y903231D01*
X1338D01*
Y899167D01*
X-2725D01*
X-1709Y900183D02*
Y902215D01*
X322D01*
Y900183D01*
X-1709D01*
X-11494Y897140D02*
Y901204D01*
X-7430D01*
Y897140D01*
X-11494D01*
X-10478Y898156D02*
Y900188D01*
X-8446D01*
Y898156D01*
X-10478D01*
X-13731Y888422D02*
Y892486D01*
X-9667D01*
Y888422D01*
X-13731D01*
X-12715Y889438D02*
Y891470D01*
X-10683D01*
Y889438D01*
X-12715D01*
X-13731Y879422D02*
Y883486D01*
X-9667D01*
Y879422D01*
X-13731D01*
X-12715Y880438D02*
Y882470D01*
X-10683D01*
Y880438D01*
X-12715D01*
X-13174Y870439D02*
Y874503D01*
X-9110D01*
Y870439D01*
X-13174D01*
X-12158Y871455D02*
Y873487D01*
X-10126D01*
Y871455D01*
X-12158D01*
X-30333Y877113D02*
Y881177D01*
X-26269D01*
Y877113D01*
X-30333D01*
X-29317Y878129D02*
Y880161D01*
X-27285D01*
Y878129D01*
X-29317D01*
X-30333Y886113D02*
Y890177D01*
X-26269D01*
Y886113D01*
X-30333D01*
X-29317Y887129D02*
Y889161D01*
X-27285D01*
Y887129D01*
X-29317D01*
X-30087Y895110D02*
Y899174D01*
X-26023D01*
Y895110D01*
X-30087D01*
X-29071Y896126D02*
Y898158D01*
X-27039D01*
Y896126D01*
X-29071D01*
X-27221Y903641D02*
Y907705D01*
X-23157D01*
Y903641D01*
X-27221D01*
X-26205Y904657D02*
Y906689D01*
X-24173D01*
Y904657D01*
X-26205D01*
X-21390Y910497D02*
Y914561D01*
X-17326D01*
Y910497D01*
X-21390D01*
X-20374Y911513D02*
Y913545D01*
X-18342D01*
Y911513D01*
X-20374D01*
X-13429Y914694D02*
Y918758D01*
X-9365D01*
Y914694D01*
X-13429D01*
X-12413Y915710D02*
Y917742D01*
X-10381D01*
Y915710D01*
X-12413D01*
X-4493Y915769D02*
Y919833D01*
X-429D01*
Y915769D01*
X-4493D01*
X-3477Y916785D02*
Y918817D01*
X-1445D01*
Y916785D01*
X-3477D01*
X4507Y915769D02*
Y919833D01*
X8571D01*
Y915769D01*
X4507D01*
X5523Y916785D02*
Y918817D01*
X7555D01*
Y916785D01*
X5523D01*
X13507Y915769D02*
Y919833D01*
X17571D01*
Y915769D01*
X13507D01*
X14523Y916785D02*
Y918817D01*
X16555D01*
Y916785D01*
X14523D01*
X22507Y915769D02*
Y919833D01*
X26571D01*
Y915769D01*
X22507D01*
X23523Y916785D02*
Y918817D01*
X25555D01*
Y916785D01*
X23523D01*
X31507Y915769D02*
Y919833D01*
X35571D01*
Y915769D01*
X31507D01*
X32523Y916785D02*
Y918817D01*
X34555D01*
Y916785D01*
X32523D01*
X40507Y915769D02*
Y919833D01*
X44571D01*
Y915769D01*
X40507D01*
X41523Y916785D02*
Y918817D01*
X43555D01*
Y916785D01*
X41523D01*
X49507Y915769D02*
Y919833D01*
X53571D01*
Y915769D01*
X49507D01*
X50523Y916785D02*
Y918817D01*
X52555D01*
Y916785D01*
X50523D01*
X58507Y915769D02*
Y919833D01*
X62571D01*
Y915769D01*
X58507D01*
X59523Y916785D02*
Y918817D01*
X61555D01*
Y916785D01*
X59523D01*
X82826Y945991D02*
Y950055D01*
X86890D01*
Y945991D01*
X82826D01*
X83842Y947007D02*
Y949039D01*
X85874D01*
Y947007D01*
X83842D01*
X82227Y937011D02*
Y941075D01*
X86291D01*
Y937011D01*
X82227D01*
X83243Y938027D02*
Y940059D01*
X85275D01*
Y938027D01*
X83243D01*
X82826Y928031D02*
Y932095D01*
X86890D01*
Y928031D01*
X82826D01*
X83842Y929047D02*
Y931079D01*
X85874D01*
Y929047D01*
X83842D01*
X82227Y919051D02*
Y923115D01*
X86291D01*
Y919051D01*
X82227D01*
X83243Y920067D02*
Y922099D01*
X85275D01*
Y920067D01*
X83243D01*
X65226Y942236D02*
Y946300D01*
X69290D01*
Y942236D01*
X65226D01*
X66242Y943252D02*
Y945284D01*
X68274D01*
Y943252D01*
X66242D01*
X65531Y951231D02*
Y955295D01*
X69594D01*
Y951231D01*
X65531D01*
X66547Y952247D02*
Y954279D01*
X68579D01*
Y952247D01*
X66547D01*
X82826Y901591D02*
Y905655D01*
X86890D01*
Y901591D01*
X82826D01*
X83842Y902607D02*
Y904639D01*
X85874D01*
Y902607D01*
X83842D01*
X82288Y892607D02*
Y896671D01*
X86352D01*
Y892607D01*
X82288D01*
X83304Y893623D02*
Y895655D01*
X85336D01*
Y893623D01*
X83304D01*
X79485Y851430D02*
Y855494D01*
X83548D01*
Y851430D01*
X79485D01*
X80500Y852446D02*
Y854478D01*
X82533D01*
Y852446D01*
X80500D01*
X70484Y851430D02*
Y855494D01*
X74549D01*
Y851430D01*
X70484D01*
X71501Y852446D02*
Y854478D01*
X73533D01*
Y852446D01*
X71501D01*
X65648Y892350D02*
Y896414D01*
X69712D01*
Y892350D01*
X65648D01*
X66664Y893366D02*
Y895398D01*
X68696D01*
Y893366D01*
X66664D01*
X260826Y58591D02*
Y62655D01*
X264890D01*
Y58591D01*
X260826D01*
X261842Y59607D02*
Y61639D01*
X263874D01*
Y59607D01*
X261842D01*
X268751Y54326D02*
Y58390D01*
X272815D01*
Y54326D01*
X268751D01*
X269767Y55342D02*
Y57374D01*
X271799D01*
Y55342D01*
X269767D01*
X277737Y54826D02*
Y58890D01*
X281801D01*
Y54826D01*
X277737D01*
X278753Y55842D02*
Y57874D01*
X280785D01*
Y55842D01*
X278753D01*
X284987Y37363D02*
Y41427D01*
X289051D01*
Y37363D01*
X284987D01*
X286003Y38379D02*
Y40411D01*
X288035D01*
Y38379D01*
X286003D01*
X258080Y37667D02*
Y41731D01*
X262144D01*
Y37667D01*
X258080D01*
X259096Y38683D02*
Y40715D01*
X261128D01*
Y38683D01*
X259096D01*
X249406Y40070D02*
Y44134D01*
X253470D01*
Y40070D01*
X249406D01*
X250422Y41086D02*
Y43118D01*
X252454D01*
Y41086D01*
X250422D01*
X244223Y47428D02*
Y51491D01*
X248287D01*
Y47428D01*
X244223D01*
X245239Y48443D02*
Y50476D01*
X247271D01*
Y48443D01*
X245239D01*
X243110Y56358D02*
Y60422D01*
X247174D01*
Y56358D01*
X243110D01*
X244126Y57374D02*
Y59406D01*
X246158D01*
Y57374D01*
X244126D01*
X356964Y58999D02*
Y63063D01*
X361028D01*
Y58999D01*
X356964D01*
X357980Y60015D02*
Y62047D01*
X360012D01*
Y60015D01*
X357980D01*
X360426Y41691D02*
Y45755D01*
X364490D01*
Y41691D01*
X360426D01*
X361442Y42707D02*
Y44739D01*
X363474D01*
Y42707D01*
X361442D01*
X348415Y32510D02*
Y36574D01*
X352479D01*
Y32510D01*
X348415D01*
X349431Y33526D02*
Y35558D01*
X351463D01*
Y33526D01*
X349431D01*
X339415Y32510D02*
Y36574D01*
X343479D01*
Y32510D01*
X339415D01*
X340431Y33526D02*
Y35558D01*
X342463D01*
Y33526D01*
X340431D01*
X303027Y54326D02*
Y58390D01*
X307091D01*
Y54326D01*
X303027D01*
X304043Y55342D02*
Y57374D01*
X306075D01*
Y55342D01*
X304043D01*
X312027Y54269D02*
Y58333D01*
X316091D01*
Y54269D01*
X312027D01*
X313043Y55285D02*
Y57317D01*
X315075D01*
Y55285D01*
X313043D01*
X321027Y54269D02*
Y58333D01*
X325091D01*
Y54269D01*
X321027D01*
X322043Y55285D02*
Y57317D01*
X324075D01*
Y55285D01*
X322043D01*
X330027Y54269D02*
Y58333D01*
X334091D01*
Y54269D01*
X330027D01*
X331043Y55285D02*
Y57317D01*
X333075D01*
Y55285D01*
X331043D01*
X337604Y59125D02*
Y63189D01*
X341668D01*
Y59125D01*
X337604D01*
X338620Y60141D02*
Y62173D01*
X340652D01*
Y60141D01*
X338620D01*
X346599Y59426D02*
Y63490D01*
X350663D01*
Y59426D01*
X346599D01*
X347615Y60442D02*
Y62474D01*
X349647D01*
Y60442D01*
X347615D01*
X110162Y50616D02*
Y54680D01*
X114226D01*
Y50616D01*
X110162D01*
X111178Y51632D02*
Y53664D01*
X113210D01*
Y51632D01*
X111178D01*
X106556Y42370D02*
Y46434D01*
X110620D01*
Y42370D01*
X106556D01*
X107572Y43386D02*
Y45418D01*
X109604D01*
Y43386D01*
X107572D01*
X98712Y37957D02*
Y42021D01*
X102776D01*
Y37957D01*
X98712D01*
X99728Y38973D02*
Y41005D01*
X101760D01*
Y38973D01*
X99728D01*
X71818Y36389D02*
Y40453D01*
X75882D01*
Y36389D01*
X71818D01*
X72834Y37405D02*
Y39437D01*
X74866D01*
Y37405D01*
X72834D01*
X79305Y53826D02*
Y57890D01*
X83369D01*
Y53826D01*
X79305D01*
X80321Y54842D02*
Y56874D01*
X82353D01*
Y54842D01*
X80321D01*
X88291Y54326D02*
Y58390D01*
X92355D01*
Y54326D01*
X88291D01*
X89307Y55342D02*
Y57374D01*
X91339D01*
Y55342D01*
X89307D01*
X93110Y61927D02*
Y65991D01*
X97174D01*
Y61927D01*
X93110D01*
X94126Y62943D02*
Y64975D01*
X96158D01*
Y62943D01*
X94126D01*
X55229Y36610D02*
Y40674D01*
X59293D01*
Y36610D01*
X55229D01*
X56245Y37626D02*
Y39658D01*
X58277D01*
Y37626D01*
X56245D01*
X46244Y37125D02*
Y41189D01*
X50308D01*
Y37125D01*
X46244D01*
X47260Y38141D02*
Y40173D01*
X49292D01*
Y38141D01*
X47260D01*
X41045Y53826D02*
Y57890D01*
X45109D01*
Y53826D01*
X41045D01*
X42061Y54842D02*
Y56874D01*
X44093D01*
Y54842D01*
X42061D01*
X267718Y197218D02*
Y201282D01*
X271782D01*
Y197218D01*
X267718D01*
X268734Y198234D02*
Y200266D01*
X270766D01*
Y198234D01*
X268734D01*
X284460Y185908D02*
Y189972D01*
X288524D01*
Y185908D01*
X284460D01*
X285476Y186924D02*
Y188956D01*
X287508D01*
Y186924D01*
X285476D01*
X260501Y274677D02*
Y278741D01*
X264565D01*
Y274677D01*
X260501D01*
X261517Y275693D02*
Y277725D01*
X263549D01*
Y275693D01*
X261517D01*
X257968Y254968D02*
Y259032D01*
X262032D01*
Y254968D01*
X257968D01*
X258984Y255984D02*
Y258016D01*
X261016D01*
Y255984D01*
X258984D01*
X70866Y341376D02*
Y345440D01*
X74930D01*
Y341376D01*
X70866D01*
X71882Y342392D02*
Y344424D01*
X73914D01*
Y342392D01*
X71882D01*
X-97028Y362204D02*
X-99060Y366268D01*
X-94996D01*
X-97028Y362204D01*
Y363220D02*
X-98044Y365252D01*
X-96012D01*
X-97028Y363220D01*
X49276Y446278D02*
Y450342D01*
X53340D01*
Y446278D01*
X49276D01*
X50292Y447294D02*
Y449326D01*
X52324D01*
Y447294D01*
X50292D01*
X109968Y426967D02*
Y431031D01*
X114032D01*
Y426967D01*
X109968D01*
X110984Y427983D02*
Y430015D01*
X113016D01*
Y427983D01*
X110984D01*
X104968Y434968D02*
Y439032D01*
X109032D01*
Y434968D01*
X104968D01*
X105984Y435984D02*
Y438016D01*
X108016D01*
Y435984D01*
X105984D01*
X91186Y404368D02*
Y408432D01*
X95250D01*
Y404368D01*
X91186D01*
X92202Y405384D02*
Y407416D01*
X94234D01*
Y405384D01*
X92202D01*
X3302Y394208D02*
Y398272D01*
X7366D01*
Y394208D01*
X3302D01*
X4318Y395224D02*
Y397256D01*
X6350D01*
Y395224D01*
X4318D01*
X54864Y317500D02*
Y321564D01*
X58928D01*
Y317500D01*
X54864D01*
X55880Y318516D02*
Y320548D01*
X57912D01*
Y318516D01*
X55880D01*
X48968Y329468D02*
Y333532D01*
X53032D01*
Y329468D01*
X48968D01*
X49984Y330484D02*
Y332516D01*
X52016D01*
Y330484D01*
X49984D01*
X64262Y246888D02*
Y250952D01*
X68326D01*
Y246888D01*
X64262D01*
X65278Y247904D02*
Y249936D01*
X67310D01*
Y247904D01*
X65278D01*
X70358Y263906D02*
Y267970D01*
X74422D01*
Y263906D01*
X70358D01*
X71374Y264922D02*
Y266954D01*
X73406D01*
Y264922D01*
X71374D01*
X118968Y276968D02*
Y281032D01*
X123032D01*
Y276968D01*
X118968D01*
X119984Y277984D02*
Y280016D01*
X122016D01*
Y277984D01*
X119984D01*
X128016Y273558D02*
Y277622D01*
X132080D01*
Y273558D01*
X128016D01*
X129032Y274574D02*
Y276606D01*
X131064D01*
Y274574D01*
X129032D01*
X93472Y266192D02*
Y270256D01*
X97536D01*
Y266192D01*
X93472D01*
X94488Y267208D02*
Y269240D01*
X96520D01*
Y267208D01*
X94488D01*
X76708Y257302D02*
Y261366D01*
X80772D01*
Y257302D01*
X76708D01*
X77724Y258318D02*
Y260350D01*
X79756D01*
Y258318D01*
X77724D01*
X110236Y247904D02*
X108204Y251968D01*
X112268D01*
X110236Y247904D01*
Y248920D02*
X109220Y250952D01*
X111252D01*
X110236Y248920D01*
X106172Y277368D02*
Y281432D01*
X110236D01*
Y277368D01*
X106172D01*
X107188Y278384D02*
Y280416D01*
X109220D01*
Y278384D01*
X107188D01*
X360426Y50691D02*
Y54755D01*
X364490D01*
Y50691D01*
X360426D01*
X361442Y51707D02*
Y53739D01*
X363474D01*
Y51707D01*
X361442D01*
X122968Y557968D02*
Y562032D01*
X127032D01*
Y557968D01*
X122968D01*
X123984Y558984D02*
Y561016D01*
X126016D01*
Y558984D01*
X123984D01*
X123968Y547968D02*
Y552032D01*
X128032D01*
Y547968D01*
X123968D01*
X124984Y548984D02*
Y551016D01*
X127016D01*
Y548984D01*
X124984D01*
X150968Y455968D02*
Y460032D01*
X155032D01*
Y455968D01*
X150968D01*
X151984Y456984D02*
Y459016D01*
X154016D01*
Y456984D01*
X151984D01*
X321182Y423672D02*
Y427736D01*
X325246D01*
Y423672D01*
X321182D01*
X322198Y424688D02*
Y426720D01*
X324230D01*
Y424688D01*
X322198D01*
X444754Y364998D02*
Y369062D01*
X448818D01*
Y364998D01*
X444754D01*
X445770Y366014D02*
Y368046D01*
X447802D01*
Y366014D01*
X445770D01*
X445008Y452374D02*
Y456438D01*
X449072D01*
Y452374D01*
X445008D01*
X446024Y453390D02*
Y455422D01*
X448056D01*
Y453390D01*
X446024D01*
X338074Y677672D02*
Y681736D01*
X342138D01*
Y677672D01*
X338074D01*
X339090Y678688D02*
Y680720D01*
X341122D01*
Y678688D01*
X339090D01*
X409702Y677926D02*
Y681990D01*
X413766D01*
Y677926D01*
X409702D01*
X410718Y678942D02*
Y680974D01*
X412750D01*
Y678942D01*
X410718D01*
X409956Y804418D02*
Y808482D01*
X414020D01*
Y804418D01*
X409956D01*
X410972Y805434D02*
Y807466D01*
X413004D01*
Y805434D01*
X410972D01*
X455676Y804164D02*
Y808228D01*
X459740D01*
Y804164D01*
X455676D01*
X456692Y805180D02*
Y807212D01*
X458724D01*
Y805180D01*
X456692D01*
X425450Y593090D02*
Y597154D01*
X429514D01*
Y593090D01*
X425450D01*
X426466Y594106D02*
Y596138D01*
X428498D01*
Y594106D01*
X426466D01*
X421894Y634238D02*
Y638302D01*
X425958D01*
Y634238D01*
X421894D01*
X422910Y635254D02*
Y637286D01*
X424942D01*
Y635254D01*
X422910D01*
X420624Y736092D02*
Y740156D01*
X424688D01*
Y736092D01*
X420624D01*
X421640Y737108D02*
Y739140D01*
X423672D01*
Y737108D01*
X421640D01*
X456184Y736346D02*
Y740410D01*
X460248D01*
Y736346D01*
X456184D01*
X457200Y737362D02*
Y739394D01*
X459232D01*
Y737362D01*
X457200D01*
X331724Y423926D02*
Y427990D01*
X335788D01*
Y423926D01*
X331724D01*
X332740Y424942D02*
Y426974D01*
X334772D01*
Y424942D01*
X332740D01*
X330200Y407416D02*
Y411480D01*
X334264D01*
Y407416D01*
X330200D01*
X331216Y408432D02*
Y410464D01*
X333248D01*
Y408432D01*
X331216D01*
X357886Y448056D02*
Y452120D01*
X361950D01*
Y448056D01*
X357886D01*
X358902Y449072D02*
Y451104D01*
X360934D01*
Y449072D01*
X358902D01*
X349250Y454406D02*
Y458470D01*
X353314D01*
Y454406D01*
X349250D01*
X350266Y455422D02*
Y457454D01*
X352298D01*
Y455422D01*
X350266D01*
X386334Y514858D02*
Y518922D01*
X390398D01*
Y514858D01*
X386334D01*
X387350Y515874D02*
Y517906D01*
X389382D01*
Y515874D01*
X387350D01*
X462026Y437388D02*
Y441452D01*
X466090D01*
Y437388D01*
X462026D01*
X463042Y438404D02*
Y440436D01*
X465074D01*
Y438404D01*
X463042D01*
X477012Y501142D02*
Y505206D01*
X481076D01*
Y501142D01*
X477012D01*
X478028Y502158D02*
Y504190D01*
X480060D01*
Y502158D01*
X478028D01*
X477774Y451612D02*
Y455676D01*
X481838D01*
Y451612D01*
X477774D01*
X478790Y452628D02*
Y454660D01*
X480822D01*
Y452628D01*
X478790D01*
X491490Y498348D02*
Y502412D01*
X495554D01*
Y498348D01*
X491490D01*
X492506Y499364D02*
Y501396D01*
X494538D01*
Y499364D01*
X492506D01*
X499872Y814578D02*
Y818642D01*
X503936D01*
Y814578D01*
X499872D01*
X500888Y815594D02*
Y817626D01*
X502920D01*
Y815594D01*
X500888D01*
X387350Y814070D02*
Y818134D01*
X391414D01*
Y814070D01*
X387350D01*
X388366Y815086D02*
Y817118D01*
X390398D01*
Y815086D01*
X388366D01*
X387096Y845058D02*
Y849122D01*
X391160D01*
Y845058D01*
X387096D01*
X388112Y846074D02*
Y848106D01*
X390144D01*
Y846074D01*
X388112D01*
X368046Y489712D02*
Y493776D01*
X372110D01*
Y489712D01*
X368046D01*
X369062Y490728D02*
Y492760D01*
X371094D01*
Y490728D01*
X369062D01*
X487172Y489458D02*
Y493522D01*
X491236D01*
Y489458D01*
X487172D01*
X488188Y490474D02*
Y492506D01*
X490220D01*
Y490474D01*
X488188D01*
X506476Y822452D02*
Y826516D01*
X510540D01*
Y822452D01*
X506476D01*
X507492Y823468D02*
Y825500D01*
X509524D01*
Y823468D01*
X507492D01*
X326630Y200682D02*
Y204746D01*
X330694D01*
Y200682D01*
X326630D01*
X327646Y201698D02*
Y203730D01*
X329678D01*
Y201698D01*
X327646D01*
X335630Y218682D02*
Y222746D01*
X339694D01*
Y218682D01*
X335630D01*
X336646Y219698D02*
Y221730D01*
X338678D01*
Y219698D01*
X336646D01*
X348742Y178562D02*
Y182626D01*
X352806D01*
Y178562D01*
X348742D01*
X349758Y179578D02*
Y181610D01*
X351790D01*
Y179578D01*
X349758D01*
X335630Y257682D02*
Y261746D01*
X339694D01*
Y257682D01*
X335630D01*
X336646Y258698D02*
Y260730D01*
X338678D01*
Y258698D01*
X336646D01*
X331470Y272542D02*
Y276606D01*
X335534D01*
Y272542D01*
X331470D01*
X332486Y273558D02*
Y275590D01*
X334518D01*
Y273558D01*
X332486D01*
X9652Y427736D02*
Y431800D01*
X13716D01*
Y427736D01*
X9652D01*
X10668Y428752D02*
Y430784D01*
X12700D01*
Y428752D01*
X10668D01*
X-63246Y439420D02*
Y443484D01*
X-59182D01*
Y439420D01*
X-63246D01*
X-62230Y440436D02*
Y442468D01*
X-60198D01*
Y440436D01*
X-62230D01*
X-70104Y472440D02*
Y476504D01*
X-66040D01*
Y472440D01*
X-70104D01*
X-69088Y473456D02*
Y475488D01*
X-67056D01*
Y473456D01*
X-69088D01*
X-10671Y55665D02*
Y59729D01*
X-6607D01*
Y55665D01*
X-10671D01*
X-9655Y56681D02*
Y58713D01*
X-7623D01*
Y56681D01*
X-9655D01*
X-1320Y53775D02*
Y57839D01*
X2744D01*
Y53775D01*
X-1320D01*
X-304Y54791D02*
Y56823D01*
X1728D01*
Y54791D01*
X-304D01*
X8220Y53775D02*
Y57839D01*
X12284D01*
Y53775D01*
X8220D01*
X9236Y54791D02*
Y56823D01*
X11268D01*
Y54791D01*
X9236D01*
X17760Y53775D02*
Y57839D01*
X21824D01*
Y53775D01*
X17760D01*
X18776Y54791D02*
Y56823D01*
X20808D01*
Y54791D01*
X18776D01*
X27281Y54376D02*
Y58440D01*
X31345D01*
Y54376D01*
X27281D01*
X28297Y55392D02*
Y57424D01*
X30329D01*
Y55392D01*
X28297D01*
X20557Y36161D02*
Y40225D01*
X24621D01*
Y36161D01*
X20557D01*
X21573Y37177D02*
Y39209D01*
X23605D01*
Y37177D01*
X21573D01*
X11017Y36161D02*
Y40225D01*
X15081D01*
Y36161D01*
X11017D01*
X12033Y37177D02*
Y39209D01*
X14065D01*
Y37177D01*
X12033D01*
X1477Y36161D02*
Y40225D01*
X5541D01*
Y36161D01*
X1477D01*
X2493Y37177D02*
Y39209D01*
X4525D01*
Y37177D01*
X2493D01*
X-8063Y36161D02*
Y40225D01*
X-3999D01*
Y36161D01*
X-8063D01*
X-7047Y37177D02*
Y39209D01*
X-5015D01*
Y37177D01*
X-7047D01*
X-17311Y33818D02*
Y37882D01*
X-13247D01*
Y33818D01*
X-17311D01*
X-16295Y34834D02*
Y36866D01*
X-14263D01*
Y34834D01*
X-16295D01*
X-29686Y43981D02*
Y48045D01*
X-25622D01*
Y43981D01*
X-29686D01*
X-28670Y44997D02*
Y47029D01*
X-26638D01*
Y44997D01*
X-28670D01*
X427990Y674878D02*
Y678942D01*
X432054D01*
Y674878D01*
X427990D01*
X429006Y675894D02*
Y677926D01*
X431038D01*
Y675894D01*
X429006D01*
X438280Y682628D02*
Y686692D01*
X442344D01*
Y682628D01*
X438280D01*
X439296Y683644D02*
Y685676D01*
X441328D01*
Y683644D01*
X439296D01*
X339852Y247396D02*
Y251460D01*
X343916D01*
Y247396D01*
X339852D01*
X340868Y248412D02*
Y250444D01*
X342900D01*
Y248412D01*
X340868D01*
X438912Y628904D02*
Y632968D01*
X442976D01*
Y628904D01*
X438912D01*
X439928Y629920D02*
Y631952D01*
X441960D01*
Y629920D01*
X439928D01*
X425704Y646430D02*
Y650494D01*
X429768D01*
Y646430D01*
X425704D01*
X426720Y647446D02*
Y649478D01*
X428752D01*
Y647446D01*
X426720D01*
X339598Y665480D02*
Y669544D01*
X343662D01*
Y665480D01*
X339598D01*
X340614Y666496D02*
Y668528D01*
X342646D01*
Y666496D01*
X340614D01*
X315468Y665480D02*
Y669544D01*
X319532D01*
Y665480D01*
X315468D01*
X316484Y666496D02*
Y668528D01*
X318516D01*
Y666496D01*
X316484D01*
X315468Y638048D02*
Y642112D01*
X319532D01*
Y638048D01*
X315468D01*
X316484Y639064D02*
Y641096D01*
X318516D01*
Y639064D01*
X316484D01*
X64968Y724968D02*
Y729032D01*
X69032D01*
Y724968D01*
X64968D01*
X65984Y725984D02*
Y728016D01*
X68016D01*
Y725984D01*
X65984D01*
X123968Y718218D02*
Y722282D01*
X128032D01*
Y718218D01*
X123968D01*
X124984Y719234D02*
Y721266D01*
X127016D01*
Y719234D01*
X124984D01*
X113968Y770968D02*
Y775032D01*
X118032D01*
Y770968D01*
X113968D01*
X114984Y771984D02*
Y774016D01*
X117016D01*
Y771984D01*
X114984D01*
X135718Y762968D02*
Y767032D01*
X139782D01*
Y762968D01*
X135718D01*
X136734Y763984D02*
Y766016D01*
X138766D01*
Y763984D01*
X136734D01*
X174718Y751468D02*
Y755532D01*
X178782D01*
Y751468D01*
X174718D01*
X175734Y752484D02*
Y754516D01*
X177766D01*
Y752484D01*
X175734D01*
X82575Y976977D02*
Y981041D01*
X86639D01*
Y976977D01*
X82575D01*
X83591Y977993D02*
Y980025D01*
X85623D01*
Y977993D01*
X83591D01*
X110826Y59591D02*
Y63655D01*
X114890D01*
Y59591D01*
X110826D01*
X111842Y60607D02*
Y62639D01*
X113874D01*
Y60607D01*
X111842D01*
X195326Y644144D02*
Y648208D01*
X199390D01*
Y644144D01*
X195326D01*
X196342Y645160D02*
Y647192D01*
X198374D01*
Y645160D01*
X196342D01*
X209550Y653288D02*
Y657352D01*
X213614D01*
Y653288D01*
X209550D01*
X210566Y654304D02*
Y656336D01*
X212598D01*
Y654304D01*
X210566D01*
X225552Y630682D02*
Y634746D01*
X229616D01*
Y630682D01*
X225552D01*
X226568Y631698D02*
Y633730D01*
X228600D01*
Y631698D01*
X226568D01*
X-73660Y672592D02*
Y676656D01*
X-69596D01*
Y672592D01*
X-73660D01*
X-72644Y673608D02*
Y675640D01*
X-70612D01*
Y673608D01*
X-72644D01*
X-87630Y672338D02*
Y676402D01*
X-83566D01*
Y672338D01*
X-87630D01*
X-86614Y673354D02*
Y675386D01*
X-84582D01*
Y673354D01*
X-86614D01*
X-101600Y672084D02*
Y676148D01*
X-97536D01*
Y672084D01*
X-101600D01*
X-100584Y673100D02*
Y675132D01*
X-98552D01*
Y673100D01*
X-100584D01*
X413718Y477468D02*
Y481532D01*
X417782D01*
Y477468D01*
X413718D01*
X414734Y478484D02*
Y480516D01*
X416766D01*
Y478484D01*
X414734D01*
X401968Y463718D02*
Y467782D01*
X406032D01*
Y463718D01*
X401968D01*
X402984Y464734D02*
Y466766D01*
X405016D01*
Y464734D01*
X402984D01*
X393718Y414468D02*
Y418532D01*
X397782D01*
Y414468D01*
X393718D01*
X394734Y415484D02*
Y417516D01*
X396766D01*
Y415484D01*
X394734D01*
X411718Y178218D02*
Y182282D01*
X415782D01*
Y178218D01*
X411718D01*
X412734Y179234D02*
Y181266D01*
X414766D01*
Y179234D01*
X412734D01*
X398718Y192468D02*
Y196532D01*
X402782D01*
Y192468D01*
X398718D01*
X399734Y193484D02*
Y195516D01*
X401766D01*
Y193484D01*
X399734D01*
X398718Y217218D02*
Y221282D01*
X402782D01*
Y217218D01*
X398718D01*
X399734Y218234D02*
Y220266D01*
X401766D01*
Y218234D01*
X399734D01*
X413968Y390968D02*
Y395032D01*
X418032D01*
Y390968D01*
X413968D01*
X414984Y391984D02*
Y394016D01*
X417016D01*
Y391984D01*
X414984D01*
X411718Y229218D02*
Y233282D01*
X415782D01*
Y229218D01*
X411718D01*
X412734Y230234D02*
Y232266D01*
X414766D01*
Y230234D01*
X412734D01*
X448468Y205468D02*
Y209532D01*
X452532D01*
Y205468D01*
X448468D01*
X449484Y206484D02*
Y208516D01*
X451516D01*
Y206484D01*
X449484D01*
X-51816Y577088D02*
Y581152D01*
X-47752D01*
Y577088D01*
X-51816D01*
X-50800Y578104D02*
Y580136D01*
X-48768D01*
Y578104D01*
X-50800D01*
X-32512Y629412D02*
Y633476D01*
X-28448D01*
Y629412D01*
X-32512D01*
X-31496Y630428D02*
Y632460D01*
X-29464D01*
Y630428D01*
X-31496D01*
X309968Y519968D02*
Y524032D01*
X314032D01*
Y519968D01*
X309968D01*
X310984Y520984D02*
Y523016D01*
X313016D01*
Y520984D01*
X310984D01*
X232918Y424180D02*
Y428244D01*
X236982D01*
Y424180D01*
X232918D01*
X233934Y425196D02*
Y427228D01*
X235966D01*
Y425196D01*
X233934D01*
X219968Y435968D02*
Y440032D01*
X224032D01*
Y435968D01*
X219968D01*
X220984Y436984D02*
Y439016D01*
X223016D01*
Y436984D01*
X220984D01*
X226968Y442968D02*
Y447032D01*
X231032D01*
Y442968D01*
X226968D01*
X227984Y443984D02*
Y446016D01*
X230016D01*
Y443984D01*
X227984D01*
X231902Y458470D02*
Y462534D01*
X235966D01*
Y458470D01*
X231902D01*
X232918Y459486D02*
Y461518D01*
X234950D01*
Y459486D01*
X232918D01*
X133142Y497586D02*
Y501650D01*
X137206D01*
Y497586D01*
X133142D01*
X134158Y498602D02*
Y500634D01*
X136190D01*
Y498602D01*
X134158D01*
X128524Y505714D02*
Y509778D01*
X132588D01*
Y505714D01*
X128524D01*
X129540Y506730D02*
Y508762D01*
X131572D01*
Y506730D01*
X129540D01*
X294968Y519968D02*
Y524032D01*
X299032D01*
Y519968D01*
X294968D01*
X295984Y520984D02*
Y523016D01*
X298016D01*
Y520984D01*
X295984D01*
X240284Y529844D02*
Y533908D01*
X244348D01*
Y529844D01*
X240284D01*
X241300Y530860D02*
Y532892D01*
X243332D01*
Y530860D01*
X241300D01*
X218440Y536702D02*
Y540766D01*
X222504D01*
Y536702D01*
X218440D01*
X219456Y537718D02*
Y539750D01*
X221488D01*
Y537718D01*
X219456D01*
X314706Y588264D02*
Y592328D01*
X318770D01*
Y588264D01*
X314706D01*
X315722Y589280D02*
Y591312D01*
X317754D01*
Y589280D01*
X315722D01*
X328422Y576072D02*
Y580136D01*
X332486D01*
Y576072D01*
X328422D01*
X329438Y577088D02*
Y579120D01*
X331470D01*
Y577088D01*
X329438D01*
X250968Y522968D02*
Y527032D01*
X255032D01*
Y522968D01*
X250968D01*
X251984Y523984D02*
Y526016D01*
X254016D01*
Y523984D01*
X251984D01*
X-2286Y559308D02*
Y563372D01*
X1778D01*
Y559308D01*
X-2286D01*
X-1270Y560324D02*
Y562356D01*
X762D01*
Y560324D01*
X-1270D01*
X-125476Y472694D02*
Y476758D01*
X-121412D01*
Y472694D01*
X-125476D01*
X-124460Y473710D02*
Y475742D01*
X-122428D01*
Y473710D01*
X-124460D01*
X332039Y37667D02*
Y41731D01*
X336103D01*
Y37667D01*
X332039D01*
X333055Y38683D02*
Y40715D01*
X335087D01*
Y38683D01*
X333055D01*
X314039Y37667D02*
Y41731D01*
X318103D01*
Y37667D01*
X314039D01*
X315055Y38683D02*
Y40715D01*
X317087D01*
Y38683D01*
X315055D01*
X323039Y37667D02*
Y41731D01*
X327103D01*
Y37667D01*
X323039D01*
X324055Y38683D02*
Y40715D01*
X326087D01*
Y38683D01*
X324055D01*
X-35726Y855612D02*
Y859676D01*
X-31662D01*
Y855612D01*
X-35726D01*
X-34710Y856628D02*
Y858660D01*
X-32678D01*
Y856628D01*
X-34710D01*
X-43781Y851597D02*
Y855661D01*
X-39717D01*
Y851597D01*
X-43781D01*
X-42765Y852613D02*
Y854645D01*
X-40733D01*
Y852613D01*
X-42765D01*
X-44731Y842648D02*
Y846712D01*
X-40667D01*
Y842648D01*
X-44731D01*
X-43715Y843664D02*
Y845696D01*
X-41683D01*
Y843664D01*
X-43715D01*
X-44731Y833648D02*
Y837712D01*
X-40667D01*
Y833648D01*
X-44731D01*
X-43715Y834664D02*
Y836696D01*
X-41683D01*
Y834664D01*
X-43715D01*
X-44731Y824648D02*
Y828712D01*
X-40667D01*
Y824648D01*
X-44731D01*
X-43715Y825664D02*
Y827696D01*
X-41683D01*
Y825664D01*
X-43715D01*
X-45157Y815658D02*
Y819722D01*
X-41093D01*
Y815658D01*
X-45157D01*
X-44141Y816674D02*
Y818706D01*
X-42109D01*
Y816674D01*
X-44141D01*
X-48493Y807299D02*
Y811363D01*
X-44429D01*
Y807299D01*
X-48493D01*
X-47477Y808315D02*
Y810347D01*
X-45445D01*
Y808315D01*
X-47477D01*
X-54749Y800828D02*
Y804892D01*
X-50685D01*
Y800828D01*
X-54749D01*
X-53733Y801844D02*
Y803876D01*
X-51701D01*
Y801844D01*
X-53733D01*
X-62990Y797211D02*
Y801275D01*
X-58926D01*
Y797211D01*
X-62990D01*
X-61974Y798227D02*
Y800259D01*
X-59942D01*
Y798227D01*
X-61974D01*
X-71973Y796667D02*
Y800731D01*
X-67909D01*
Y796667D01*
X-71973D01*
X-70957Y797683D02*
Y799715D01*
X-68925D01*
Y797683D01*
X-70957D01*
X-80973Y796667D02*
Y800731D01*
X-76909D01*
Y796667D01*
X-80973D01*
X-79957Y797683D02*
Y799715D01*
X-77925D01*
Y797683D01*
X-79957D01*
X-89973Y796667D02*
Y800731D01*
X-85909D01*
Y796667D01*
X-89973D01*
X-88957Y797683D02*
Y799715D01*
X-86925D01*
Y797683D01*
X-88957D01*
X-98973Y796667D02*
Y800731D01*
X-94909D01*
Y796667D01*
X-98973D01*
X-97957Y797683D02*
Y799715D01*
X-95925D01*
Y797683D01*
X-97957D01*
X-107973Y796667D02*
Y800731D01*
X-103909D01*
Y796667D01*
X-107973D01*
X-106957Y797683D02*
Y799715D01*
X-104925D01*
Y797683D01*
X-106957D01*
X-116973Y796667D02*
Y800731D01*
X-112909D01*
Y796667D01*
X-116973D01*
X-115957Y797683D02*
Y799715D01*
X-113925D01*
Y797683D01*
X-115957D01*
X-125973Y796667D02*
Y800731D01*
X-121909D01*
Y796667D01*
X-125973D01*
X-124957Y797683D02*
Y799715D01*
X-122925D01*
Y797683D01*
X-124957D01*
X-134705Y794485D02*
Y798549D01*
X-130641D01*
Y794485D01*
X-134705D01*
X-133689Y795501D02*
Y797533D01*
X-131657D01*
Y795501D01*
X-133689D01*
X-137731Y786009D02*
Y790073D01*
X-133667D01*
Y786009D01*
X-137731D01*
X-136715Y787025D02*
Y789057D01*
X-134683D01*
Y787025D01*
X-136715D01*
X-137731Y777009D02*
Y781073D01*
X-133667D01*
Y777009D01*
X-137731D01*
X-136715Y778025D02*
Y780057D01*
X-134683D01*
Y778025D01*
X-136715D01*
X-137731Y768009D02*
Y772073D01*
X-133667D01*
Y768009D01*
X-137731D01*
X-136715Y769025D02*
Y771057D01*
X-134683D01*
Y769025D01*
X-136715D01*
X-132574Y742426D02*
Y746490D01*
X-128510D01*
Y742426D01*
X-132574D01*
X-131558Y743442D02*
Y745474D01*
X-129526D01*
Y743442D01*
X-131558D01*
X-132712Y733427D02*
Y737491D01*
X-128648D01*
Y733427D01*
X-132712D01*
X-131696Y734443D02*
Y736475D01*
X-129664D01*
Y734443D01*
X-131696D01*
X-140250Y728510D02*
Y732574D01*
X-136186D01*
Y728510D01*
X-140250D01*
X-139234Y729526D02*
Y731558D01*
X-137202D01*
Y729526D01*
X-139234D01*
X-149250Y728510D02*
Y732574D01*
X-145186D01*
Y728510D01*
X-149250D01*
X-148234Y729526D02*
Y731558D01*
X-146202D01*
Y729526D01*
X-148234D01*
X-159490Y739324D02*
Y743388D01*
X-155426D01*
Y739324D01*
X-159490D01*
X-158474Y740340D02*
Y742372D01*
X-156442D01*
Y740340D01*
X-158474D01*
X-159490Y748324D02*
Y752388D01*
X-155426D01*
Y748324D01*
X-159490D01*
X-158474Y749340D02*
Y751372D01*
X-156442D01*
Y749340D01*
X-158474D01*
X-154333Y764700D02*
Y768764D01*
X-150269D01*
Y764700D01*
X-154333D01*
X-153317Y765716D02*
Y767748D01*
X-151285D01*
Y765716D01*
X-153317D01*
X-154333Y773700D02*
Y777764D01*
X-150269D01*
Y773700D01*
X-154333D01*
X-153317Y774716D02*
Y776748D01*
X-151285D01*
Y774716D01*
X-153317D01*
X-154333Y782700D02*
Y786764D01*
X-150269D01*
Y782700D01*
X-154333D01*
X-153317Y783716D02*
Y785748D01*
X-151285D01*
Y783716D01*
X-153317D01*
X-154036Y791695D02*
Y795760D01*
X-149972D01*
Y791695D01*
X-154036D01*
X-153020Y792711D02*
Y794743D01*
X-150988D01*
Y792711D01*
X-153020D01*
X-151118Y800209D02*
Y804273D01*
X-147055D01*
Y800209D01*
X-151118D01*
X-150103Y801225D02*
Y803257D01*
X-148070D01*
Y801225D01*
X-150103D01*
X-145424Y807179D02*
Y811243D01*
X-141360D01*
Y807179D01*
X-145424D01*
X-144408Y808195D02*
Y810227D01*
X-142376D01*
Y808195D01*
X-144408D01*
X-137663Y811735D02*
Y815799D01*
X-133599D01*
Y811735D01*
X-137663D01*
X-136647Y812751D02*
Y814783D01*
X-134615D01*
Y812751D01*
X-136647D01*
X-128794Y813269D02*
Y817333D01*
X-124730D01*
Y813269D01*
X-128794D01*
X-127778Y814285D02*
Y816317D01*
X-125746D01*
Y814285D01*
X-127778D01*
X-119794Y813269D02*
Y817333D01*
X-115730D01*
Y813269D01*
X-119794D01*
X-118778Y814285D02*
Y816317D01*
X-116746D01*
Y814285D01*
X-118778D01*
X-110794Y813269D02*
Y817333D01*
X-106730D01*
Y813269D01*
X-110794D01*
X-109778Y814285D02*
Y816317D01*
X-107746D01*
Y814285D01*
X-109778D01*
X-101794Y813269D02*
Y817333D01*
X-97730D01*
Y813269D01*
X-101794D01*
X-100778Y814285D02*
Y816317D01*
X-98746D01*
Y814285D01*
X-100778D01*
X-92794Y813269D02*
Y817333D01*
X-88730D01*
Y813269D01*
X-92794D01*
X-91778Y814285D02*
Y816317D01*
X-89746D01*
Y814285D01*
X-91778D01*
X-83794Y813269D02*
Y817333D01*
X-79730D01*
Y813269D01*
X-83794D01*
X-82778Y814285D02*
Y816317D01*
X-80746D01*
Y814285D01*
X-82778D01*
X-74794Y813269D02*
Y817333D01*
X-70730D01*
Y813269D01*
X-74794D01*
X-73778Y814285D02*
Y816317D01*
X-71746D01*
Y814285D01*
X-73778D01*
X-65806Y813721D02*
Y817785D01*
X-61741D01*
Y813721D01*
X-65806D01*
X-64790Y814737D02*
Y816769D01*
X-62758D01*
Y814737D01*
X-64790D01*
X-61333Y821531D02*
Y825595D01*
X-57269D01*
Y821531D01*
X-61333D01*
X-60317Y822547D02*
Y824579D01*
X-58285D01*
Y822547D01*
X-60317D01*
X-61333Y830531D02*
Y834595D01*
X-57269D01*
Y830531D01*
X-61333D01*
X-60317Y831547D02*
Y833579D01*
X-58285D01*
Y831547D01*
X-60317D01*
X-61333Y839531D02*
Y843595D01*
X-57269D01*
Y839531D01*
X-61333D01*
X-60317Y840547D02*
Y842579D01*
X-58285D01*
Y840547D01*
X-60317D01*
X-61343Y848531D02*
Y852595D01*
X-57279D01*
Y848531D01*
X-61343D01*
X-60327Y849547D02*
Y851579D01*
X-58295D01*
Y849547D01*
X-60327D01*
X-59422Y857323D02*
Y861387D01*
X-55358D01*
Y857323D01*
X-59422D01*
X-58406Y858339D02*
Y860371D01*
X-56374D01*
Y858339D01*
X-58406D01*
X-54503Y864860D02*
Y868924D01*
X-50439D01*
Y864860D01*
X-54503D01*
X-53487Y865876D02*
Y867908D01*
X-51455D01*
Y865876D01*
X-53487D01*
X-47153Y870054D02*
Y874118D01*
X-43089D01*
Y870054D01*
X-47153D01*
X-46137Y871070D02*
Y873102D01*
X-44105D01*
Y871070D01*
X-46137D01*
X-38412Y872198D02*
Y876263D01*
X-34348D01*
Y872198D01*
X-38412D01*
X-37396Y873214D02*
Y875247D01*
X-35364D01*
Y873214D01*
X-37396D01*
X270510Y95250D02*
Y99314D01*
X274574D01*
Y95250D01*
X270510D01*
X271526Y96266D02*
Y98298D01*
X273558D01*
Y96266D01*
X271526D01*
X352044Y100838D02*
Y104902D01*
X356108D01*
Y100838D01*
X352044D01*
X353060Y101854D02*
Y103886D01*
X355092D01*
Y101854D01*
X353060D01*
X335534Y208026D02*
Y212090D01*
X339598D01*
Y208026D01*
X335534D01*
X336550Y209042D02*
Y211074D01*
X338582D01*
Y209042D01*
X336550D01*
X351282Y126492D02*
Y130556D01*
X355346D01*
Y126492D01*
X351282D01*
X352298Y127508D02*
Y129540D01*
X354330D01*
Y127508D01*
X352298D01*
X265684Y129540D02*
Y133604D01*
X269748D01*
Y129540D01*
X265684D01*
X266700Y130556D02*
Y132588D01*
X268732D01*
Y130556D01*
X266700D01*
X321818D02*
Y134620D01*
X325882D01*
Y130556D01*
X321818D01*
X322834Y131572D02*
Y133604D01*
X324866D01*
Y131572D01*
X322834D01*
X320294Y216662D02*
Y220726D01*
X324358D01*
Y216662D01*
X320294D01*
X321310Y217678D02*
Y219710D01*
X323342D01*
Y217678D01*
X321310D01*
X-172034Y7966D02*
Y12030D01*
X-167970D01*
Y7966D01*
X-172034D01*
X-171018Y8982D02*
Y11014D01*
X-168986D01*
Y8982D01*
X-171018D01*
X-172034Y87966D02*
Y92030D01*
X-167970D01*
Y87966D01*
X-172034D01*
X-171018Y88982D02*
Y91014D01*
X-168986D01*
Y88982D01*
X-171018D01*
X-162034Y107966D02*
Y112030D01*
X-157970D01*
Y107966D01*
X-162034D01*
X-161018Y108982D02*
Y111014D01*
X-158986D01*
Y108982D01*
X-161018D01*
X-172034Y127966D02*
Y132030D01*
X-167970D01*
Y127966D01*
X-172034D01*
X-171018Y128982D02*
Y131014D01*
X-168986D01*
Y128982D01*
X-171018D01*
X-172034Y287966D02*
Y292030D01*
X-167970D01*
Y287966D01*
X-172034D01*
X-171018Y288982D02*
Y291014D01*
X-168986D01*
Y288982D01*
X-171018D01*
X-172034Y487965D02*
Y492029D01*
X-167970D01*
Y487965D01*
X-172034D01*
X-171018Y488981D02*
Y491013D01*
X-168986D01*
Y488981D01*
X-171018D01*
X-172034Y527965D02*
Y532029D01*
X-167970D01*
Y527965D01*
X-172034D01*
X-171018Y528981D02*
Y531013D01*
X-168986D01*
Y528981D01*
X-171018D01*
X-162034Y547965D02*
Y552029D01*
X-157970D01*
Y547965D01*
X-162034D01*
X-161018Y548981D02*
Y551013D01*
X-158986D01*
Y548981D01*
X-161018D01*
X-162034Y587965D02*
Y592029D01*
X-157970D01*
Y587965D01*
X-162034D01*
X-161018Y588981D02*
Y591013D01*
X-158986D01*
Y588981D01*
X-161018D01*
X-172034Y607965D02*
Y612029D01*
X-167970D01*
Y607965D01*
X-172034D01*
X-171018Y608981D02*
Y611013D01*
X-168986D01*
Y608981D01*
X-171018D01*
X-172034Y647965D02*
Y652029D01*
X-167970D01*
Y647965D01*
X-172034D01*
X-171018Y648981D02*
Y651013D01*
X-168986D01*
Y648981D01*
X-171018D01*
X-162034Y667965D02*
Y672029D01*
X-157970D01*
Y667965D01*
X-162034D01*
X-161018Y668981D02*
Y671013D01*
X-158986D01*
Y668981D01*
X-161018D01*
X-172034Y687965D02*
Y692029D01*
X-167970D01*
Y687965D01*
X-172034D01*
X-171018Y688981D02*
Y691013D01*
X-168986D01*
Y688981D01*
X-171018D01*
X-172034Y807965D02*
Y812029D01*
X-167970D01*
Y807965D01*
X-172034D01*
X-171018Y808981D02*
Y811013D01*
X-168986D01*
Y808981D01*
X-171018D01*
X-162034Y827965D02*
Y832029D01*
X-157970D01*
Y827965D01*
X-162034D01*
X-161018Y828981D02*
Y831013D01*
X-158986D01*
Y828981D01*
X-161018D01*
X-152034Y7966D02*
Y12030D01*
X-147970D01*
Y7966D01*
X-152034D01*
X-151018Y8982D02*
Y11014D01*
X-148986D01*
Y8982D01*
X-151018D01*
X-152034Y127966D02*
Y132030D01*
X-147970D01*
Y127966D01*
X-152034D01*
X-151018Y128982D02*
Y131014D01*
X-148986D01*
Y128982D01*
X-151018D01*
X-142034Y387966D02*
Y392030D01*
X-137970D01*
Y387966D01*
X-142034D01*
X-141018Y388982D02*
Y391014D01*
X-138986D01*
Y388982D01*
X-141018D01*
X-152034Y487965D02*
Y492029D01*
X-147970D01*
Y487965D01*
X-152034D01*
X-151018Y488981D02*
Y491013D01*
X-148986D01*
Y488981D01*
X-151018D01*
X-152034Y527965D02*
Y532029D01*
X-147970D01*
Y527965D01*
X-152034D01*
X-151018Y528981D02*
Y531013D01*
X-148986D01*
Y528981D01*
X-151018D01*
X-152034Y567965D02*
Y572029D01*
X-147970D01*
Y567965D01*
X-152034D01*
X-151018Y568981D02*
Y571013D01*
X-148986D01*
Y568981D01*
X-151018D01*
X-142034Y587965D02*
Y592029D01*
X-137970D01*
Y587965D01*
X-142034D01*
X-141018Y588981D02*
Y591013D01*
X-138986D01*
Y588981D01*
X-141018D01*
X-152034Y607965D02*
Y612029D01*
X-147970D01*
Y607965D01*
X-152034D01*
X-151018Y608981D02*
Y611013D01*
X-148986D01*
Y608981D01*
X-151018D01*
X-142034Y667965D02*
Y672029D01*
X-137970D01*
Y667965D01*
X-142034D01*
X-141018Y668981D02*
Y671013D01*
X-138986D01*
Y668981D01*
X-141018D01*
X-152034Y687965D02*
Y692029D01*
X-147970D01*
Y687965D01*
X-152034D01*
X-151018Y688981D02*
Y691013D01*
X-148986D01*
Y688981D01*
X-151018D01*
X-142034Y707965D02*
Y712029D01*
X-137970D01*
Y707965D01*
X-142034D01*
X-141018Y708981D02*
Y711013D01*
X-138986D01*
Y708981D01*
X-141018D01*
X-152034Y927965D02*
Y932029D01*
X-147970D01*
Y927965D01*
X-152034D01*
X-151018Y928981D02*
Y931013D01*
X-148986D01*
Y928981D01*
X-151018D01*
X-132034Y127966D02*
Y132030D01*
X-127970D01*
Y127966D01*
X-132034D01*
X-131018Y128982D02*
Y131014D01*
X-128986D01*
Y128982D01*
X-131018D01*
X-122034Y387966D02*
Y392030D01*
X-117970D01*
Y387966D01*
X-122034D01*
X-121018Y388982D02*
Y391014D01*
X-118986D01*
Y388982D01*
X-121018D01*
X-132034Y607965D02*
Y612029D01*
X-127970D01*
Y607965D01*
X-132034D01*
X-131018Y608981D02*
Y611013D01*
X-128986D01*
Y608981D01*
X-131018D01*
X-132034Y647965D02*
Y652029D01*
X-127970D01*
Y647965D01*
X-132034D01*
X-131018Y648981D02*
Y651013D01*
X-128986D01*
Y648981D01*
X-131018D01*
X-122034Y667965D02*
Y672029D01*
X-117970D01*
Y667965D01*
X-122034D01*
X-121018Y668981D02*
Y671013D01*
X-118986D01*
Y668981D01*
X-121018D01*
X-132034Y687965D02*
Y692029D01*
X-127970D01*
Y687965D01*
X-132034D01*
X-131018Y688981D02*
Y691013D01*
X-128986D01*
Y688981D01*
X-131018D01*
X-122034Y747965D02*
Y752029D01*
X-117970D01*
Y747965D01*
X-122034D01*
X-121018Y748981D02*
Y751013D01*
X-118986D01*
Y748981D01*
X-121018D01*
X-122034Y787965D02*
Y792029D01*
X-117970D01*
Y787965D01*
X-122034D01*
X-121018Y788981D02*
Y791013D01*
X-118986D01*
Y788981D01*
X-121018D01*
X-112034Y127966D02*
Y132030D01*
X-107970D01*
Y127966D01*
X-112034D01*
X-111018Y128982D02*
Y131014D01*
X-108986D01*
Y128982D01*
X-111018D01*
X-102034Y147966D02*
Y152030D01*
X-97970D01*
Y147966D01*
X-102034D01*
X-101018Y148982D02*
Y151014D01*
X-98986D01*
Y148982D01*
X-101018D01*
X-112034Y367966D02*
Y372030D01*
X-107970D01*
Y367966D01*
X-112034D01*
X-111018Y368982D02*
Y371014D01*
X-108986D01*
Y368982D01*
X-111018D01*
X-102034Y387966D02*
Y392030D01*
X-97970D01*
Y387966D01*
X-102034D01*
X-101018Y388982D02*
Y391014D01*
X-98986D01*
Y388982D01*
X-101018D01*
X-112034Y487965D02*
Y492029D01*
X-107970D01*
Y487965D01*
X-112034D01*
X-111018Y488981D02*
Y491013D01*
X-108986D01*
Y488981D01*
X-111018D01*
X-102034Y547965D02*
Y552029D01*
X-97970D01*
Y547965D01*
X-102034D01*
X-101018Y548981D02*
Y551013D01*
X-98986D01*
Y548981D01*
X-101018D01*
X-102034Y587965D02*
Y592029D01*
X-97970D01*
Y587965D01*
X-102034D01*
X-101018Y588981D02*
Y591013D01*
X-98986D01*
Y588981D01*
X-101018D01*
X-112034Y607965D02*
Y612029D01*
X-107970D01*
Y607965D01*
X-112034D01*
X-111018Y608981D02*
Y611013D01*
X-108986D01*
Y608981D01*
X-111018D01*
X-112034Y687965D02*
Y692029D01*
X-107970D01*
Y687965D01*
X-112034D01*
X-111018Y688981D02*
Y691013D01*
X-108986D01*
Y688981D01*
X-111018D01*
X-102034Y707965D02*
Y712029D01*
X-97970D01*
Y707965D01*
X-102034D01*
X-101018Y708981D02*
Y711013D01*
X-98986D01*
Y708981D01*
X-101018D01*
X-102034Y747965D02*
Y752029D01*
X-97970D01*
Y747965D01*
X-102034D01*
X-101018Y748981D02*
Y751013D01*
X-98986D01*
Y748981D01*
X-101018D01*
X-102034Y787965D02*
Y792029D01*
X-97970D01*
Y787965D01*
X-102034D01*
X-101018Y788981D02*
Y791013D01*
X-98986D01*
Y788981D01*
X-101018D01*
X-92034Y7966D02*
Y12030D01*
X-87970D01*
Y7966D01*
X-92034D01*
X-91018Y8982D02*
Y11014D01*
X-88986D01*
Y8982D01*
X-91018D01*
X-92034Y127966D02*
Y132030D01*
X-87970D01*
Y127966D01*
X-92034D01*
X-91018Y128982D02*
Y131014D01*
X-88986D01*
Y128982D01*
X-91018D01*
X-92034Y167966D02*
Y172030D01*
X-87970D01*
Y167966D01*
X-92034D01*
X-91018Y168982D02*
Y171014D01*
X-88986D01*
Y168982D01*
X-91018D01*
X-92034Y287966D02*
Y292030D01*
X-87970D01*
Y287966D01*
X-92034D01*
X-91018Y288982D02*
Y291014D01*
X-88986D01*
Y288982D01*
X-91018D01*
X-82034Y307966D02*
Y312030D01*
X-77970D01*
Y307966D01*
X-82034D01*
X-81018Y308982D02*
Y311014D01*
X-78986D01*
Y308982D01*
X-81018D01*
X-92034Y327966D02*
Y332030D01*
X-87970D01*
Y327966D01*
X-92034D01*
X-91018Y328982D02*
Y331014D01*
X-88986D01*
Y328982D01*
X-91018D01*
X-82034Y347966D02*
Y352030D01*
X-77970D01*
Y347966D01*
X-82034D01*
X-81018Y348982D02*
Y351014D01*
X-78986D01*
Y348982D01*
X-81018D01*
X-82034Y387966D02*
Y392030D01*
X-77970D01*
Y387966D01*
X-82034D01*
X-81018Y388982D02*
Y391014D01*
X-78986D01*
Y388982D01*
X-81018D01*
X-82034Y547965D02*
Y552029D01*
X-77970D01*
Y547965D01*
X-82034D01*
X-81018Y548981D02*
Y551013D01*
X-78986D01*
Y548981D01*
X-81018D01*
X-92034Y567965D02*
Y572029D01*
X-87970D01*
Y567965D01*
X-92034D01*
X-91018Y568981D02*
Y571013D01*
X-88986D01*
Y568981D01*
X-91018D01*
X-92034Y607965D02*
Y612029D01*
X-87970D01*
Y607965D01*
X-92034D01*
X-91018Y608981D02*
Y611013D01*
X-88986D01*
Y608981D01*
X-91018D01*
X-92034Y687965D02*
Y692029D01*
X-87970D01*
Y687965D01*
X-92034D01*
X-91018Y688981D02*
Y691013D01*
X-88986D01*
Y688981D01*
X-91018D01*
X-82034Y747965D02*
Y752029D01*
X-77970D01*
Y747965D01*
X-82034D01*
X-81018Y748981D02*
Y751013D01*
X-78986D01*
Y748981D01*
X-81018D01*
X-92034Y767965D02*
Y772029D01*
X-87970D01*
Y767965D01*
X-92034D01*
X-91018Y768981D02*
Y771013D01*
X-88986D01*
Y768981D01*
X-91018D01*
X-82034Y827965D02*
Y832029D01*
X-77970D01*
Y827965D01*
X-82034D01*
X-81018Y828981D02*
Y831013D01*
X-78986D01*
Y828981D01*
X-81018D01*
X-92034Y927965D02*
Y932029D01*
X-87970D01*
Y927965D01*
X-92034D01*
X-91018Y928981D02*
Y931013D01*
X-88986D01*
Y928981D01*
X-91018D01*
X-72034Y7966D02*
Y12030D01*
X-67970D01*
Y7966D01*
X-72034D01*
X-71018Y8982D02*
Y11014D01*
X-68986D01*
Y8982D01*
X-71018D01*
X-62034Y27966D02*
Y32030D01*
X-57970D01*
Y27966D01*
X-62034D01*
X-61018Y28982D02*
Y31014D01*
X-58986D01*
Y28982D01*
X-61018D01*
X-62034Y67966D02*
Y72030D01*
X-57970D01*
Y67966D01*
X-62034D01*
X-61018Y68982D02*
Y71014D01*
X-58986D01*
Y68982D01*
X-61018D01*
X-62034Y387966D02*
Y392030D01*
X-57970D01*
Y387966D01*
X-62034D01*
X-61018Y388982D02*
Y391014D01*
X-58986D01*
Y388982D01*
X-61018D01*
X-62034Y427966D02*
Y432030D01*
X-57970D01*
Y427966D01*
X-62034D01*
X-61018Y428982D02*
Y431014D01*
X-58986D01*
Y428982D01*
X-61018D01*
X-62034Y507965D02*
Y512029D01*
X-57970D01*
Y507965D01*
X-62034D01*
X-61018Y508981D02*
Y511013D01*
X-58986D01*
Y508981D01*
X-61018D01*
X-62034Y547965D02*
Y552029D01*
X-57970D01*
Y547965D01*
X-62034D01*
X-61018Y548981D02*
Y551013D01*
X-58986D01*
Y548981D01*
X-61018D01*
X-72034Y567965D02*
Y572029D01*
X-67970D01*
Y567965D01*
X-72034D01*
X-71018Y568981D02*
Y571013D01*
X-68986D01*
Y568981D01*
X-71018D01*
X-72034Y687965D02*
Y692029D01*
X-67970D01*
Y687965D01*
X-72034D01*
X-71018Y688981D02*
Y691013D01*
X-68986D01*
Y688981D01*
X-71018D01*
X-62034Y747965D02*
Y752029D01*
X-57970D01*
Y747965D01*
X-62034D01*
X-61018Y748981D02*
Y751013D01*
X-58986D01*
Y748981D01*
X-61018D01*
X-72034Y767965D02*
Y772029D01*
X-67970D01*
Y767965D01*
X-72034D01*
X-71018Y768981D02*
Y771013D01*
X-68986D01*
Y768981D01*
X-71018D01*
X-62034Y787965D02*
Y792029D01*
X-57970D01*
Y787965D01*
X-62034D01*
X-61018Y788981D02*
Y791013D01*
X-58986D01*
Y788981D01*
X-61018D01*
X-72034Y847965D02*
Y852029D01*
X-67970D01*
Y847965D01*
X-72034D01*
X-71018Y848981D02*
Y851013D01*
X-68986D01*
Y848981D01*
X-71018D01*
X-62034Y907965D02*
Y912029D01*
X-57970D01*
Y907965D01*
X-62034D01*
X-61018Y908981D02*
Y911013D01*
X-58986D01*
Y908981D01*
X-61018D01*
X-72034Y927965D02*
Y932029D01*
X-67970D01*
Y927965D01*
X-72034D01*
X-71018Y928981D02*
Y931013D01*
X-68986D01*
Y928981D01*
X-71018D01*
X-52034Y7966D02*
Y12030D01*
X-47970D01*
Y7966D01*
X-52034D01*
X-51018Y8982D02*
Y11014D01*
X-48986D01*
Y8982D01*
X-51018D01*
X-52034Y47966D02*
Y52030D01*
X-47970D01*
Y47966D01*
X-52034D01*
X-51018Y48982D02*
Y51014D01*
X-48986D01*
Y48982D01*
X-51018D01*
X-52034Y87966D02*
Y92030D01*
X-47970D01*
Y87966D01*
X-52034D01*
X-51018Y88982D02*
Y91014D01*
X-48986D01*
Y88982D01*
X-51018D01*
X-52034Y167966D02*
Y172030D01*
X-47970D01*
Y167966D01*
X-52034D01*
X-51018Y168982D02*
Y171014D01*
X-48986D01*
Y168982D01*
X-51018D01*
X-42034Y307966D02*
Y312030D01*
X-37970D01*
Y307966D01*
X-42034D01*
X-41018Y308982D02*
Y311014D01*
X-38986D01*
Y308982D01*
X-41018D01*
X-52034Y327966D02*
Y332030D01*
X-47970D01*
Y327966D01*
X-52034D01*
X-51018Y328982D02*
Y331014D01*
X-48986D01*
Y328982D01*
X-51018D01*
X-42034Y347966D02*
Y352030D01*
X-37970D01*
Y347966D01*
X-42034D01*
X-41018Y348982D02*
Y351014D01*
X-38986D01*
Y348982D01*
X-41018D01*
X-42034Y387966D02*
Y392030D01*
X-37970D01*
Y387966D01*
X-42034D01*
X-41018Y388982D02*
Y391014D01*
X-38986D01*
Y388982D01*
X-41018D01*
X-42034Y427966D02*
Y432030D01*
X-37970D01*
Y427966D01*
X-42034D01*
X-41018Y428982D02*
Y431014D01*
X-38986D01*
Y428982D01*
X-41018D01*
X-52034Y447966D02*
Y452029D01*
X-47970D01*
Y447966D01*
X-52034D01*
X-51018Y448982D02*
Y451013D01*
X-48986D01*
Y448982D01*
X-51018D01*
X-42034Y507965D02*
Y512029D01*
X-37970D01*
Y507965D01*
X-42034D01*
X-41018Y508981D02*
Y511013D01*
X-38986D01*
Y508981D01*
X-41018D01*
X-42034Y547965D02*
Y552029D01*
X-37970D01*
Y547965D01*
X-42034D01*
X-41018Y548981D02*
Y551013D01*
X-38986D01*
Y548981D01*
X-41018D01*
X-52034Y567965D02*
Y572029D01*
X-47970D01*
Y567965D01*
X-52034D01*
X-51018Y568981D02*
Y571013D01*
X-48986D01*
Y568981D01*
X-51018D01*
X-52034Y687965D02*
Y692029D01*
X-47970D01*
Y687965D01*
X-52034D01*
X-51018Y688981D02*
Y691013D01*
X-48986D01*
Y688981D01*
X-51018D01*
X-42034Y747965D02*
Y752029D01*
X-37970D01*
Y747965D01*
X-42034D01*
X-41018Y748981D02*
Y751013D01*
X-38986D01*
Y748981D01*
X-41018D01*
X-52034Y767965D02*
Y772029D01*
X-47970D01*
Y767965D01*
X-52034D01*
X-51018Y768981D02*
Y771013D01*
X-48986D01*
Y768981D01*
X-51018D01*
X-42034Y787965D02*
Y792029D01*
X-37970D01*
Y787965D01*
X-42034D01*
X-41018Y788981D02*
Y791013D01*
X-38986D01*
Y788981D01*
X-41018D01*
X-52034Y887965D02*
Y892029D01*
X-47970D01*
Y887965D01*
X-52034D01*
X-51018Y888981D02*
Y891013D01*
X-48986D01*
Y888981D01*
X-51018D01*
X-42034Y907965D02*
Y912029D01*
X-37970D01*
Y907965D01*
X-42034D01*
X-41018Y908981D02*
Y911013D01*
X-38986D01*
Y908981D01*
X-41018D01*
X-52034Y927965D02*
Y932029D01*
X-47970D01*
Y927965D01*
X-52034D01*
X-51018Y928981D02*
Y931013D01*
X-48986D01*
Y928981D01*
X-51018D01*
X-32034Y7966D02*
Y12030D01*
X-27970D01*
Y7966D01*
X-32034D01*
X-31018Y8982D02*
Y11014D01*
X-28986D01*
Y8982D01*
X-31018D01*
X-32034Y87966D02*
Y92030D01*
X-27970D01*
Y87966D01*
X-32034D01*
X-31018Y88982D02*
Y91014D01*
X-28986D01*
Y88982D01*
X-31018D01*
X-32034Y287966D02*
Y292030D01*
X-27970D01*
Y287966D01*
X-32034D01*
X-31018Y288982D02*
Y291014D01*
X-28986D01*
Y288982D01*
X-31018D01*
X-22034Y307966D02*
Y312030D01*
X-17970D01*
Y307966D01*
X-22034D01*
X-21018Y308982D02*
Y311014D01*
X-18986D01*
Y308982D01*
X-21018D01*
X-32034Y327966D02*
Y332030D01*
X-27970D01*
Y327966D01*
X-32034D01*
X-31018Y328982D02*
Y331014D01*
X-28986D01*
Y328982D01*
X-31018D01*
X-22034Y347966D02*
Y352030D01*
X-17970D01*
Y347966D01*
X-22034D01*
X-21018Y348982D02*
Y351014D01*
X-18986D01*
Y348982D01*
X-21018D01*
X-22034Y387966D02*
Y392030D01*
X-17970D01*
Y387966D01*
X-22034D01*
X-21018Y388982D02*
Y391014D01*
X-18986D01*
Y388982D01*
X-21018D01*
X-32034Y447966D02*
Y452029D01*
X-27970D01*
Y447966D01*
X-32034D01*
X-31018Y448982D02*
Y451013D01*
X-28986D01*
Y448982D01*
X-31018D01*
X-22034Y627965D02*
Y632029D01*
X-17970D01*
Y627965D01*
X-22034D01*
X-21018Y628981D02*
Y631013D01*
X-18986D01*
Y628981D01*
X-21018D01*
X-22034Y747965D02*
Y752029D01*
X-17970D01*
Y747965D01*
X-22034D01*
X-21018Y748981D02*
Y751013D01*
X-18986D01*
Y748981D01*
X-21018D01*
X-32034Y767965D02*
Y772029D01*
X-27970D01*
Y767965D01*
X-32034D01*
X-31018Y768981D02*
Y771013D01*
X-28986D01*
Y768981D01*
X-31018D01*
X-32034Y807965D02*
Y812029D01*
X-27970D01*
Y807965D01*
X-32034D01*
X-31018Y808981D02*
Y811013D01*
X-28986D01*
Y808981D01*
X-31018D01*
X-22034Y827965D02*
Y832029D01*
X-17970D01*
Y827965D01*
X-22034D01*
X-21018Y828981D02*
Y831013D01*
X-18986D01*
Y828981D01*
X-21018D01*
X-32034Y927965D02*
Y932029D01*
X-27970D01*
Y927965D01*
X-32034D01*
X-31018Y928981D02*
Y931013D01*
X-28986D01*
Y928981D01*
X-31018D01*
X-12034Y7966D02*
Y12030D01*
X-7970D01*
Y7966D01*
X-12034D01*
X-11018Y8982D02*
Y11014D01*
X-8986D01*
Y8982D01*
X-11018D01*
X-2034Y67966D02*
Y72030D01*
X2030D01*
Y67966D01*
X-2034D01*
X-1018Y68982D02*
Y71014D01*
X1014D01*
Y68982D01*
X-1018D01*
X-12034Y87966D02*
Y92030D01*
X-7970D01*
Y87966D01*
X-12034D01*
X-11018Y88982D02*
Y91014D01*
X-8986D01*
Y88982D01*
X-11018D01*
X-12034Y287966D02*
Y292030D01*
X-7970D01*
Y287966D01*
X-12034D01*
X-11018Y288982D02*
Y291014D01*
X-8986D01*
Y288982D01*
X-11018D01*
X-2034Y307966D02*
Y312030D01*
X2030D01*
Y307966D01*
X-2034D01*
X-1018Y308982D02*
Y311014D01*
X1014D01*
Y308982D01*
X-1018D01*
X-12034Y327966D02*
Y332030D01*
X-7970D01*
Y327966D01*
X-12034D01*
X-11018Y328982D02*
Y331014D01*
X-8986D01*
Y328982D01*
X-11018D01*
X-2034Y347966D02*
Y352030D01*
X2030D01*
Y347966D01*
X-2034D01*
X-1018Y348982D02*
Y351014D01*
X1014D01*
Y348982D01*
X-1018D01*
X-2034Y427966D02*
Y432030D01*
X2030D01*
Y427966D01*
X-2034D01*
X-1018Y428982D02*
Y431014D01*
X1014D01*
Y428982D01*
X-1018D01*
X-12034Y447966D02*
Y452029D01*
X-7970D01*
Y447966D01*
X-12034D01*
X-11018Y448982D02*
Y451013D01*
X-8986D01*
Y448982D01*
X-11018D01*
X-2034Y467966D02*
Y472029D01*
X2030D01*
Y467966D01*
X-2034D01*
X-1018Y468982D02*
Y471013D01*
X1014D01*
Y468982D01*
X-1018D01*
X-2034Y627965D02*
Y632029D01*
X2030D01*
Y627965D01*
X-2034D01*
X-1018Y628981D02*
Y631013D01*
X1014D01*
Y628981D01*
X-1018D01*
X-12034Y647965D02*
Y652029D01*
X-7970D01*
Y647965D01*
X-12034D01*
X-11018Y648981D02*
Y651013D01*
X-8986D01*
Y648981D01*
X-11018D01*
X-2034Y667965D02*
Y672029D01*
X2030D01*
Y667965D01*
X-2034D01*
X-1018Y668981D02*
Y671013D01*
X1014D01*
Y668981D01*
X-1018D01*
X-12034Y687965D02*
Y692029D01*
X-7970D01*
Y687965D01*
X-12034D01*
X-11018Y688981D02*
Y691013D01*
X-8986D01*
Y688981D01*
X-11018D01*
X-2034Y827965D02*
Y832029D01*
X2030D01*
Y827965D01*
X-2034D01*
X-1018Y828981D02*
Y831013D01*
X1014D01*
Y828981D01*
X-1018D01*
X-12034Y927965D02*
Y932029D01*
X-7970D01*
Y927965D01*
X-12034D01*
X-11018Y928981D02*
Y931013D01*
X-8986D01*
Y928981D01*
X-11018D01*
X7966Y-72033D02*
Y-67969D01*
X12030D01*
Y-72033D01*
X7966D01*
X8982Y-71017D02*
Y-68985D01*
X11014D01*
Y-71017D01*
X8982D01*
X17966Y-52034D02*
Y-47969D01*
X22030D01*
Y-52034D01*
X17966D01*
X18982Y-51017D02*
Y-48986D01*
X21014D01*
Y-51017D01*
X18982D01*
X7966Y-32034D02*
Y-27970D01*
X12030D01*
Y-32034D01*
X7966D01*
X8982Y-31017D02*
Y-28986D01*
X11014D01*
Y-31017D01*
X8982D01*
X17966Y-12034D02*
Y-7970D01*
X22030D01*
Y-12034D01*
X17966D01*
X18982Y-11018D02*
Y-8986D01*
X21014D01*
Y-11018D01*
X18982D01*
X7966Y7966D02*
Y12030D01*
X12030D01*
Y7966D01*
X7966D01*
X8982Y8982D02*
Y11014D01*
X11014D01*
Y8982D01*
X8982D01*
X17966Y67966D02*
Y72030D01*
X22030D01*
Y67966D01*
X17966D01*
X18982Y68982D02*
Y71014D01*
X21014D01*
Y68982D01*
X18982D01*
X7966Y87966D02*
Y92030D01*
X12030D01*
Y87966D01*
X7966D01*
X8982Y88982D02*
Y91014D01*
X11014D01*
Y88982D01*
X8982D01*
X17966Y107966D02*
Y112030D01*
X22030D01*
Y107966D01*
X17966D01*
X18982Y108982D02*
Y111014D01*
X21014D01*
Y108982D01*
X18982D01*
X7966Y167966D02*
Y172030D01*
X12030D01*
Y167966D01*
X7966D01*
X8982Y168982D02*
Y171014D01*
X11014D01*
Y168982D01*
X8982D01*
X7966Y327966D02*
Y332030D01*
X12030D01*
Y327966D01*
X7966D01*
X8982Y328982D02*
Y331014D01*
X11014D01*
Y328982D01*
X8982D01*
X17966Y627965D02*
Y632029D01*
X22030D01*
Y627965D01*
X17966D01*
X18982Y628981D02*
Y631013D01*
X21014D01*
Y628981D01*
X18982D01*
X7966Y647965D02*
Y652029D01*
X12030D01*
Y647965D01*
X7966D01*
X8982Y648981D02*
Y651013D01*
X11014D01*
Y648981D01*
X8982D01*
X17966Y667965D02*
Y672029D01*
X22030D01*
Y667965D01*
X17966D01*
X18982Y668981D02*
Y671013D01*
X21014D01*
Y668981D01*
X18982D01*
X7966Y807965D02*
Y812029D01*
X12030D01*
Y807965D01*
X7966D01*
X8982Y808981D02*
Y811013D01*
X11014D01*
Y808981D01*
X8982D01*
X7966Y887965D02*
Y892029D01*
X12030D01*
Y887965D01*
X7966D01*
X8982Y888981D02*
Y891013D01*
X11014D01*
Y888981D01*
X8982D01*
X7966Y927965D02*
Y932029D01*
X12030D01*
Y927965D01*
X7966D01*
X8982Y928981D02*
Y931013D01*
X11014D01*
Y928981D01*
X8982D01*
X17966Y947964D02*
Y952029D01*
X22030D01*
Y947964D01*
X17966D01*
X18982Y948980D02*
Y951012D01*
X21014D01*
Y948980D01*
X18982D01*
X7966Y967964D02*
Y972029D01*
X12030D01*
Y967964D01*
X7966D01*
X8982Y968980D02*
Y971012D01*
X11014D01*
Y968980D01*
X8982D01*
X17966Y987964D02*
Y992028D01*
X22030D01*
Y987964D01*
X17966D01*
X18982Y988980D02*
Y991012D01*
X21014D01*
Y988980D01*
X18982D01*
X7966Y1007964D02*
Y1012028D01*
X12030D01*
Y1007964D01*
X7966D01*
X8982Y1008980D02*
Y1011012D01*
X11014D01*
Y1008980D01*
X8982D01*
X27966Y-72033D02*
Y-67969D01*
X32030D01*
Y-72033D01*
X27966D01*
X28982Y-71017D02*
Y-68985D01*
X31014D01*
Y-71017D01*
X28982D01*
X37966Y67966D02*
Y72030D01*
X42030D01*
Y67966D01*
X37966D01*
X38982Y68982D02*
Y71014D01*
X41014D01*
Y68982D01*
X38982D01*
X27966Y87966D02*
Y92030D01*
X32030D01*
Y87966D01*
X27966D01*
X28982Y88982D02*
Y91014D01*
X31014D01*
Y88982D01*
X28982D01*
X37966Y107966D02*
Y112030D01*
X42030D01*
Y107966D01*
X37966D01*
X38982Y108982D02*
Y111014D01*
X41014D01*
Y108982D01*
X38982D01*
X27966Y167966D02*
Y172030D01*
X32030D01*
Y167966D01*
X27966D01*
X28982Y168982D02*
Y171014D01*
X31014D01*
Y168982D01*
X28982D01*
X37966Y227966D02*
Y232030D01*
X42030D01*
Y227966D01*
X37966D01*
X38982Y228982D02*
Y231014D01*
X41014D01*
Y228982D01*
X38982D01*
X27966Y487965D02*
Y492029D01*
X32030D01*
Y487965D01*
X27966D01*
X28982Y488981D02*
Y491013D01*
X31014D01*
Y488981D01*
X28982D01*
X37966Y627965D02*
Y632029D01*
X42030D01*
Y627965D01*
X37966D01*
X38982Y628981D02*
Y631013D01*
X41014D01*
Y628981D01*
X38982D01*
X27966Y647965D02*
Y652029D01*
X32030D01*
Y647965D01*
X27966D01*
X28982Y648981D02*
Y651013D01*
X31014D01*
Y648981D01*
X28982D01*
X37966Y667965D02*
Y672029D01*
X42030D01*
Y667965D01*
X37966D01*
X38982Y668981D02*
Y671013D01*
X41014D01*
Y668981D01*
X38982D01*
X37966Y827965D02*
Y832029D01*
X42030D01*
Y827965D01*
X37966D01*
X38982Y828981D02*
Y831013D01*
X41014D01*
Y828981D01*
X38982D01*
X37966Y867965D02*
Y872029D01*
X42030D01*
Y867965D01*
X37966D01*
X38982Y868981D02*
Y871013D01*
X41014D01*
Y868981D01*
X38982D01*
X27966Y887965D02*
Y892029D01*
X32030D01*
Y887965D01*
X27966D01*
X28982Y888981D02*
Y891013D01*
X31014D01*
Y888981D01*
X28982D01*
X27966Y927965D02*
Y932029D01*
X32030D01*
Y927965D01*
X27966D01*
X28982Y928981D02*
Y931013D01*
X31014D01*
Y928981D01*
X28982D01*
X37966Y947964D02*
Y952029D01*
X42030D01*
Y947964D01*
X37966D01*
X38982Y948980D02*
Y951012D01*
X41014D01*
Y948980D01*
X38982D01*
X27966Y967964D02*
Y972029D01*
X32030D01*
Y967964D01*
X27966D01*
X28982Y968980D02*
Y971012D01*
X31014D01*
Y968980D01*
X28982D01*
X37966Y987964D02*
Y992028D01*
X42030D01*
Y987964D01*
X37966D01*
X38982Y988980D02*
Y991012D01*
X41014D01*
Y988980D01*
X38982D01*
X27966Y1007964D02*
Y1012028D01*
X32030D01*
Y1007964D01*
X27966D01*
X28982Y1008980D02*
Y1011012D01*
X31014D01*
Y1008980D01*
X28982D01*
X47966Y-72033D02*
Y-67969D01*
X52030D01*
Y-72033D01*
X47966D01*
X48982Y-71017D02*
Y-68985D01*
X51014D01*
Y-71017D01*
X48982D01*
X57966Y-12034D02*
Y-7970D01*
X62030D01*
Y-12034D01*
X57966D01*
X58982Y-11018D02*
Y-8986D01*
X61014D01*
Y-11018D01*
X58982D01*
X57966Y27966D02*
Y32030D01*
X62030D01*
Y27966D01*
X57966D01*
X58982Y28982D02*
Y31014D01*
X61014D01*
Y28982D01*
X58982D01*
X57966Y67966D02*
Y72030D01*
X62030D01*
Y67966D01*
X57966D01*
X58982Y68982D02*
Y71014D01*
X61014D01*
Y68982D01*
X58982D01*
X47966Y87966D02*
Y92030D01*
X52030D01*
Y87966D01*
X47966D01*
X48982Y88982D02*
Y91014D01*
X51014D01*
Y88982D01*
X48982D01*
X47966Y127966D02*
Y132030D01*
X52030D01*
Y127966D01*
X47966D01*
X48982Y128982D02*
Y131014D01*
X51014D01*
Y128982D01*
X48982D01*
X57966Y347966D02*
Y352030D01*
X62030D01*
Y347966D01*
X57966D01*
X58982Y348982D02*
Y351014D01*
X61014D01*
Y348982D01*
X58982D01*
X57966Y427966D02*
Y432030D01*
X62030D01*
Y427966D01*
X57966D01*
X58982Y428982D02*
Y431014D01*
X61014D01*
Y428982D01*
X58982D01*
X47966Y487965D02*
Y492029D01*
X52030D01*
Y487965D01*
X47966D01*
X48982Y488981D02*
Y491013D01*
X51014D01*
Y488981D01*
X48982D01*
X47966Y647965D02*
Y652029D01*
X52030D01*
Y647965D01*
X47966D01*
X48982Y648981D02*
Y651013D01*
X51014D01*
Y648981D01*
X48982D01*
X57966Y827965D02*
Y832029D01*
X62030D01*
Y827965D01*
X57966D01*
X58982Y828981D02*
Y831013D01*
X61014D01*
Y828981D01*
X58982D01*
X47966Y847965D02*
Y852029D01*
X52030D01*
Y847965D01*
X47966D01*
X48982Y848981D02*
Y851013D01*
X51014D01*
Y848981D01*
X48982D01*
X47966Y887965D02*
Y892029D01*
X52030D01*
Y887965D01*
X47966D01*
X48982Y888981D02*
Y891013D01*
X51014D01*
Y888981D01*
X48982D01*
X47966Y927965D02*
Y932029D01*
X52030D01*
Y927965D01*
X47966D01*
X48982Y928981D02*
Y931013D01*
X51014D01*
Y928981D01*
X48982D01*
X47966Y967964D02*
Y972029D01*
X52030D01*
Y967964D01*
X47966D01*
X48982Y968980D02*
Y971012D01*
X51014D01*
Y968980D01*
X48982D01*
X47966Y1007964D02*
Y1012028D01*
X52030D01*
Y1007964D01*
X47966D01*
X48982Y1008980D02*
Y1011012D01*
X51014D01*
Y1008980D01*
X48982D01*
X67966Y-72033D02*
Y-67969D01*
X72030D01*
Y-72033D01*
X67966D01*
X68982Y-71017D02*
Y-68985D01*
X71014D01*
Y-71017D01*
X68982D01*
X67966Y-32034D02*
Y-27970D01*
X72030D01*
Y-32034D01*
X67966D01*
X68982Y-31017D02*
Y-28986D01*
X71014D01*
Y-31017D01*
X68982D01*
X77966Y-12034D02*
Y-7970D01*
X82030D01*
Y-12034D01*
X77966D01*
X78982Y-11018D02*
Y-8986D01*
X81014D01*
Y-11018D01*
X78982D01*
X67966Y7966D02*
Y12030D01*
X72030D01*
Y7966D01*
X67966D01*
X68982Y8982D02*
Y11014D01*
X71014D01*
Y8982D01*
X68982D01*
X77966Y27966D02*
Y32030D01*
X82030D01*
Y27966D01*
X77966D01*
X78982Y28982D02*
Y31014D01*
X81014D01*
Y28982D01*
X78982D01*
X77966Y67966D02*
Y72030D01*
X82030D01*
Y67966D01*
X77966D01*
X78982Y68982D02*
Y71014D01*
X81014D01*
Y68982D01*
X78982D01*
X77966Y147966D02*
Y152030D01*
X82030D01*
Y147966D01*
X77966D01*
X78982Y148982D02*
Y151014D01*
X81014D01*
Y148982D01*
X78982D01*
X77966Y187966D02*
Y192030D01*
X82030D01*
Y187966D01*
X77966D01*
X78982Y188982D02*
Y191014D01*
X81014D01*
Y188982D01*
X78982D01*
X67966Y327966D02*
Y332030D01*
X72030D01*
Y327966D01*
X67966D01*
X68982Y328982D02*
Y331014D01*
X71014D01*
Y328982D01*
X68982D01*
X77966Y627965D02*
Y632029D01*
X82030D01*
Y627965D01*
X77966D01*
X78982Y628981D02*
Y631013D01*
X81014D01*
Y628981D01*
X78982D01*
X77966Y827965D02*
Y832029D01*
X82030D01*
Y827965D01*
X77966D01*
X78982Y828981D02*
Y831013D01*
X81014D01*
Y828981D01*
X78982D01*
X87966Y-72033D02*
Y-67969D01*
X92030D01*
Y-72033D01*
X87966D01*
X88982Y-71017D02*
Y-68985D01*
X91014D01*
Y-71017D01*
X88982D01*
X87966Y-32034D02*
Y-27970D01*
X92030D01*
Y-32034D01*
X87966D01*
X88982Y-31017D02*
Y-28986D01*
X91014D01*
Y-31017D01*
X88982D01*
X97965Y-12034D02*
Y-7970D01*
X102029D01*
Y-12034D01*
X97965D01*
X98982Y-11018D02*
Y-8986D01*
X101013D01*
Y-11018D01*
X98982D01*
X87966Y7966D02*
Y12030D01*
X92030D01*
Y7966D01*
X87966D01*
X88982Y8982D02*
Y11014D01*
X91014D01*
Y8982D01*
X88982D01*
X97965Y27966D02*
Y32030D01*
X102029D01*
Y27966D01*
X97965D01*
X98982Y28982D02*
Y31014D01*
X101013D01*
Y28982D01*
X98982D01*
X87966Y87966D02*
Y92030D01*
X92030D01*
Y87966D01*
X87966D01*
X88982Y88982D02*
Y91014D01*
X91014D01*
Y88982D01*
X88982D01*
X87966Y367966D02*
Y372030D01*
X92030D01*
Y367966D01*
X87966D01*
X88982Y368982D02*
Y371014D01*
X91014D01*
Y368982D01*
X88982D01*
X97965Y507965D02*
Y512029D01*
X102029D01*
Y507965D01*
X97965D01*
X98982Y508981D02*
Y511013D01*
X101013D01*
Y508981D01*
X98982D01*
X97965Y547965D02*
Y552029D01*
X102029D01*
Y547965D01*
X97965D01*
X98982Y548981D02*
Y551013D01*
X101013D01*
Y548981D01*
X98982D01*
X97965Y627965D02*
Y632029D01*
X102029D01*
Y627965D01*
X97965D01*
X98982Y628981D02*
Y631013D01*
X101013D01*
Y628981D01*
X98982D01*
X87966Y727965D02*
Y732029D01*
X92030D01*
Y727965D01*
X87966D01*
X88982Y728981D02*
Y731013D01*
X91014D01*
Y728981D01*
X88982D01*
X97965Y787965D02*
Y792029D01*
X102029D01*
Y787965D01*
X97965D01*
X98982Y788981D02*
Y791013D01*
X101013D01*
Y788981D01*
X98982D01*
X97965Y827965D02*
Y832029D01*
X102029D01*
Y827965D01*
X97965D01*
X98982Y828981D02*
Y831013D01*
X101013D01*
Y828981D01*
X98982D01*
X87966Y847965D02*
Y852029D01*
X92030D01*
Y847965D01*
X87966D01*
X88982Y848981D02*
Y851013D01*
X91014D01*
Y848981D01*
X88982D01*
X97965Y907965D02*
Y912029D01*
X102029D01*
Y907965D01*
X97965D01*
X98982Y908981D02*
Y911013D01*
X101013D01*
Y908981D01*
X98982D01*
X97965Y947964D02*
Y952029D01*
X102029D01*
Y947964D01*
X97965D01*
X98982Y948980D02*
Y951012D01*
X101013D01*
Y948980D01*
X98982D01*
X107965Y-72033D02*
Y-67969D01*
X112029D01*
Y-72033D01*
X107965D01*
X108982Y-71017D02*
Y-68985D01*
X111013D01*
Y-71017D01*
X108982D01*
X107965Y-32034D02*
Y-27970D01*
X112029D01*
Y-32034D01*
X107965D01*
X108982Y-31017D02*
Y-28986D01*
X111013D01*
Y-31017D01*
X108982D01*
X107965Y7966D02*
Y12030D01*
X112029D01*
Y7966D01*
X107965D01*
X108982Y8982D02*
Y11014D01*
X111013D01*
Y8982D01*
X108982D01*
X117965Y27966D02*
Y32030D01*
X122029D01*
Y27966D01*
X117965D01*
X118982Y28982D02*
Y31014D01*
X121013D01*
Y28982D01*
X118982D01*
X117965Y67966D02*
Y72030D01*
X122029D01*
Y67966D01*
X117965D01*
X118982Y68982D02*
Y71014D01*
X121013D01*
Y68982D01*
X118982D01*
X107965Y127966D02*
Y132030D01*
X112029D01*
Y127966D01*
X107965D01*
X108982Y128982D02*
Y131014D01*
X111013D01*
Y128982D01*
X108982D01*
X107965Y167966D02*
Y172030D01*
X112029D01*
Y167966D01*
X107965D01*
X108982Y168982D02*
Y171014D01*
X111013D01*
Y168982D01*
X108982D01*
X117965Y187966D02*
Y192030D01*
X122029D01*
Y187966D01*
X117965D01*
X118982Y188982D02*
Y191014D01*
X121013D01*
Y188982D01*
X118982D01*
X107965Y207966D02*
Y212030D01*
X112029D01*
Y207966D01*
X107965D01*
X108982Y208982D02*
Y211014D01*
X111013D01*
Y208982D01*
X108982D01*
X117965Y627965D02*
Y632029D01*
X122029D01*
Y627965D01*
X117965D01*
X118982Y628981D02*
Y631013D01*
X121013D01*
Y628981D01*
X118982D01*
X107965Y727965D02*
Y732029D01*
X112029D01*
Y727965D01*
X107965D01*
X108982Y728981D02*
Y731013D01*
X111013D01*
Y728981D01*
X108982D01*
X117965Y787965D02*
Y792029D01*
X122029D01*
Y787965D01*
X117965D01*
X118982Y788981D02*
Y791013D01*
X121013D01*
Y788981D01*
X118982D01*
X117965Y827965D02*
Y832029D01*
X122029D01*
Y827965D01*
X117965D01*
X118982Y828981D02*
Y831013D01*
X121013D01*
Y828981D01*
X118982D01*
X107965Y847965D02*
Y852029D01*
X112029D01*
Y847965D01*
X107965D01*
X108982Y848981D02*
Y851013D01*
X111013D01*
Y848981D01*
X108982D01*
X107965Y887965D02*
Y892029D01*
X112029D01*
Y887965D01*
X107965D01*
X108982Y888981D02*
Y891013D01*
X111013D01*
Y888981D01*
X108982D01*
X117965Y907965D02*
Y912029D01*
X122029D01*
Y907965D01*
X117965D01*
X118982Y908981D02*
Y911013D01*
X121013D01*
Y908981D01*
X118982D01*
X137965Y27966D02*
Y32030D01*
X142029D01*
Y27966D01*
X137965D01*
X138982Y28982D02*
Y31014D01*
X141013D01*
Y28982D01*
X138982D01*
X127965Y47966D02*
Y52030D01*
X132029D01*
Y47966D01*
X127965D01*
X128982Y48982D02*
Y51014D01*
X131013D01*
Y48982D01*
X128982D01*
X137965Y107966D02*
Y112030D01*
X142029D01*
Y107966D01*
X137965D01*
X138982Y108982D02*
Y111014D01*
X141013D01*
Y108982D01*
X138982D01*
X127965Y727965D02*
Y732029D01*
X132029D01*
Y727965D01*
X127965D01*
X128982Y728981D02*
Y731013D01*
X131013D01*
Y728981D01*
X128982D01*
X137965Y787965D02*
Y792029D01*
X142029D01*
Y787965D01*
X137965D01*
X138982Y788981D02*
Y791013D01*
X141013D01*
Y788981D01*
X138982D01*
X137965Y827965D02*
Y832029D01*
X142029D01*
Y827965D01*
X137965D01*
X138982Y828981D02*
Y831013D01*
X141013D01*
Y828981D01*
X138982D01*
X127965Y847965D02*
Y852029D01*
X132029D01*
Y847965D01*
X127965D01*
X128982Y848981D02*
Y851013D01*
X131013D01*
Y848981D01*
X128982D01*
X127965Y887965D02*
Y892029D01*
X132029D01*
Y887965D01*
X127965D01*
X128982Y888981D02*
Y891013D01*
X131013D01*
Y888981D01*
X128982D01*
X157965Y27966D02*
Y32030D01*
X162029D01*
Y27966D01*
X157965D01*
X158981Y28982D02*
Y31014D01*
X161013D01*
Y28982D01*
X158981D01*
X147965Y47966D02*
Y52030D01*
X152029D01*
Y47966D01*
X147965D01*
X148981Y48982D02*
Y51014D01*
X151013D01*
Y48982D01*
X148981D01*
X157965Y67966D02*
Y72030D01*
X162029D01*
Y67966D01*
X157965D01*
X158981Y68982D02*
Y71014D01*
X161013D01*
Y68982D01*
X158981D01*
X157965Y107966D02*
Y112030D01*
X162029D01*
Y107966D01*
X157965D01*
X158981Y108982D02*
Y111014D01*
X161013D01*
Y108982D01*
X158981D01*
X147965Y127966D02*
Y132030D01*
X152029D01*
Y127966D01*
X147965D01*
X148981Y128982D02*
Y131014D01*
X151013D01*
Y128982D01*
X148981D01*
X157965Y147966D02*
Y152030D01*
X162029D01*
Y147966D01*
X157965D01*
X158981Y148982D02*
Y151014D01*
X161013D01*
Y148982D01*
X158981D01*
X157965Y587965D02*
Y592029D01*
X162029D01*
Y587965D01*
X157965D01*
X158981Y588981D02*
Y591013D01*
X161013D01*
Y588981D01*
X158981D01*
X157965Y627965D02*
Y632029D01*
X162029D01*
Y627965D01*
X157965D01*
X158981Y628981D02*
Y631013D01*
X161013D01*
Y628981D01*
X158981D01*
X147965Y647965D02*
Y652029D01*
X152029D01*
Y647965D01*
X147965D01*
X148981Y648981D02*
Y651013D01*
X151013D01*
Y648981D01*
X148981D01*
X157965Y707965D02*
Y712029D01*
X162029D01*
Y707965D01*
X157965D01*
X158981Y708981D02*
Y711013D01*
X161013D01*
Y708981D01*
X158981D01*
X147965Y727965D02*
Y732029D01*
X152029D01*
Y727965D01*
X147965D01*
X148981Y728981D02*
Y731013D01*
X151013D01*
Y728981D01*
X148981D01*
X147965Y767965D02*
Y772029D01*
X152029D01*
Y767965D01*
X147965D01*
X148981Y768981D02*
Y771013D01*
X151013D01*
Y768981D01*
X148981D01*
X157965Y787965D02*
Y792029D01*
X162029D01*
Y787965D01*
X157965D01*
X158981Y788981D02*
Y791013D01*
X161013D01*
Y788981D01*
X158981D01*
X157965Y827965D02*
Y832029D01*
X162029D01*
Y827965D01*
X157965D01*
X158981Y828981D02*
Y831013D01*
X161013D01*
Y828981D01*
X158981D01*
X147965Y847965D02*
Y852029D01*
X152029D01*
Y847965D01*
X147965D01*
X148981Y848981D02*
Y851013D01*
X151013D01*
Y848981D01*
X148981D01*
X177965Y27966D02*
Y32030D01*
X182029D01*
Y27966D01*
X177965D01*
X178981Y28982D02*
Y31014D01*
X181013D01*
Y28982D01*
X178981D01*
X167965Y47966D02*
Y52030D01*
X172029D01*
Y47966D01*
X167965D01*
X168981Y48982D02*
Y51014D01*
X171013D01*
Y48982D01*
X168981D01*
X177965Y67966D02*
Y72030D01*
X182029D01*
Y67966D01*
X177965D01*
X178981Y68982D02*
Y71014D01*
X181013D01*
Y68982D01*
X178981D01*
X167965Y127966D02*
Y132030D01*
X172029D01*
Y127966D01*
X167965D01*
X168981Y128982D02*
Y131014D01*
X171013D01*
Y128982D01*
X168981D01*
X177965Y147966D02*
Y152030D01*
X182029D01*
Y147966D01*
X177965D01*
X178981Y148982D02*
Y151014D01*
X181013D01*
Y148982D01*
X178981D01*
X177965Y627965D02*
Y632029D01*
X182029D01*
Y627965D01*
X177965D01*
X178981Y628981D02*
Y631013D01*
X181013D01*
Y628981D01*
X178981D01*
X167965Y647965D02*
Y652029D01*
X172029D01*
Y647965D01*
X167965D01*
X168981Y648981D02*
Y651013D01*
X171013D01*
Y648981D01*
X168981D01*
X167965Y727965D02*
Y732029D01*
X172029D01*
Y727965D01*
X167965D01*
X168981Y728981D02*
Y731013D01*
X171013D01*
Y728981D01*
X168981D01*
X167965Y767965D02*
Y772029D01*
X172029D01*
Y767965D01*
X167965D01*
X168981Y768981D02*
Y771013D01*
X171013D01*
Y768981D01*
X168981D01*
X177965Y787965D02*
Y792029D01*
X182029D01*
Y787965D01*
X177965D01*
X178981Y788981D02*
Y791013D01*
X181013D01*
Y788981D01*
X178981D01*
X167965Y847965D02*
Y852029D01*
X172029D01*
Y847965D01*
X167965D01*
X168981Y848981D02*
Y851013D01*
X171013D01*
Y848981D01*
X168981D01*
X197965Y27966D02*
Y32030D01*
X202029D01*
Y27966D01*
X197965D01*
X198981Y28982D02*
Y31014D01*
X201013D01*
Y28982D01*
X198981D01*
X187965Y47966D02*
Y52030D01*
X192029D01*
Y47966D01*
X187965D01*
X188981Y48982D02*
Y51014D01*
X191013D01*
Y48982D01*
X188981D01*
X187965Y87966D02*
Y92030D01*
X192029D01*
Y87966D01*
X187965D01*
X188981Y88982D02*
Y91014D01*
X191013D01*
Y88982D01*
X188981D01*
X197965Y107966D02*
Y112030D01*
X202029D01*
Y107966D01*
X197965D01*
X198981Y108982D02*
Y111014D01*
X201013D01*
Y108982D01*
X198981D01*
X197965Y147966D02*
Y152030D01*
X202029D01*
Y147966D01*
X197965D01*
X198981Y148982D02*
Y151014D01*
X201013D01*
Y148982D01*
X198981D01*
X197965Y627965D02*
Y632029D01*
X202029D01*
Y627965D01*
X197965D01*
X198981Y628981D02*
Y631013D01*
X201013D01*
Y628981D01*
X198981D01*
X197965Y707965D02*
Y712029D01*
X202029D01*
Y707965D01*
X197965D01*
X198981Y708981D02*
Y711013D01*
X201013D01*
Y708981D01*
X198981D01*
X197965Y747965D02*
Y752029D01*
X202029D01*
Y747965D01*
X197965D01*
X198981Y748981D02*
Y751013D01*
X201013D01*
Y748981D01*
X198981D01*
X217965Y27966D02*
Y32030D01*
X222029D01*
Y27966D01*
X217965D01*
X218981Y28982D02*
Y31014D01*
X221013D01*
Y28982D01*
X218981D01*
X207965Y47966D02*
Y52030D01*
X212029D01*
Y47966D01*
X207965D01*
X208981Y48982D02*
Y51014D01*
X211013D01*
Y48982D01*
X208981D01*
X207965Y207966D02*
Y212030D01*
X212029D01*
Y207966D01*
X207965D01*
X208981Y208982D02*
Y211014D01*
X211013D01*
Y208982D01*
X208981D01*
X207965Y527965D02*
Y532029D01*
X212029D01*
Y527965D01*
X207965D01*
X208981Y528981D02*
Y531013D01*
X211013D01*
Y528981D01*
X208981D01*
X217965Y547965D02*
Y552029D01*
X222029D01*
Y547965D01*
X217965D01*
X218981Y548981D02*
Y551013D01*
X221013D01*
Y548981D01*
X218981D01*
X217965Y707965D02*
Y712029D01*
X222029D01*
Y707965D01*
X217965D01*
X218981Y708981D02*
Y711013D01*
X221013D01*
Y708981D01*
X218981D01*
X207965Y727965D02*
Y732029D01*
X212029D01*
Y727965D01*
X207965D01*
X208981Y728981D02*
Y731013D01*
X211013D01*
Y728981D01*
X208981D01*
X217965Y747965D02*
Y752029D01*
X222029D01*
Y747965D01*
X217965D01*
X218981Y748981D02*
Y751013D01*
X221013D01*
Y748981D01*
X218981D01*
X207965Y767965D02*
Y772029D01*
X212029D01*
Y767965D01*
X207965D01*
X208981Y768981D02*
Y771013D01*
X211013D01*
Y768981D01*
X208981D01*
X207965Y807965D02*
Y812029D01*
X212029D01*
Y807965D01*
X207965D01*
X208981Y808981D02*
Y811013D01*
X211013D01*
Y808981D01*
X208981D01*
X217965Y827965D02*
Y832029D01*
X222029D01*
Y827965D01*
X217965D01*
X218981Y828981D02*
Y831013D01*
X221013D01*
Y828981D01*
X218981D01*
X207965Y847965D02*
Y852029D01*
X212029D01*
Y847965D01*
X207965D01*
X208981Y848981D02*
Y851013D01*
X211013D01*
Y848981D01*
X208981D01*
X207965Y887965D02*
Y892029D01*
X212029D01*
Y887965D01*
X207965D01*
X208981Y888981D02*
Y891013D01*
X211013D01*
Y888981D01*
X208981D01*
X217965Y907965D02*
Y912029D01*
X222029D01*
Y907965D01*
X217965D01*
X218981Y908981D02*
Y911013D01*
X221013D01*
Y908981D01*
X218981D01*
X237965Y27966D02*
Y32030D01*
X242029D01*
Y27966D01*
X237965D01*
X238981Y28982D02*
Y31014D01*
X241013D01*
Y28982D01*
X238981D01*
X227965Y47966D02*
Y52030D01*
X232029D01*
Y47966D01*
X227965D01*
X228981Y48982D02*
Y51014D01*
X231013D01*
Y48982D01*
X228981D01*
X237965Y67966D02*
Y72030D01*
X242029D01*
Y67966D01*
X237965D01*
X238981Y68982D02*
Y71014D01*
X241013D01*
Y68982D01*
X238981D01*
X237965Y147966D02*
Y152030D01*
X242029D01*
Y147966D01*
X237965D01*
X238981Y148982D02*
Y151014D01*
X241013D01*
Y148982D01*
X238981D01*
X227965Y527965D02*
Y532029D01*
X232029D01*
Y527965D01*
X227965D01*
X228981Y528981D02*
Y531013D01*
X231013D01*
Y528981D01*
X228981D01*
X227965Y647965D02*
Y652029D01*
X232029D01*
Y647965D01*
X227965D01*
X228981Y648981D02*
Y651013D01*
X231013D01*
Y648981D01*
X228981D01*
X237965Y707965D02*
Y712029D01*
X242029D01*
Y707965D01*
X237965D01*
X238981Y708981D02*
Y711013D01*
X241013D01*
Y708981D01*
X238981D01*
X227965Y727965D02*
Y732029D01*
X232029D01*
Y727965D01*
X227965D01*
X228981Y728981D02*
Y731013D01*
X231013D01*
Y728981D01*
X228981D01*
X237965Y747965D02*
Y752029D01*
X242029D01*
Y747965D01*
X237965D01*
X238981Y748981D02*
Y751013D01*
X241013D01*
Y748981D01*
X238981D01*
X227965Y767965D02*
Y772029D01*
X232029D01*
Y767965D01*
X227965D01*
X228981Y768981D02*
Y771013D01*
X231013D01*
Y768981D01*
X228981D01*
X227965Y807965D02*
Y812029D01*
X232029D01*
Y807965D01*
X227965D01*
X228981Y808981D02*
Y811013D01*
X231013D01*
Y808981D01*
X228981D01*
X237965Y827965D02*
Y832029D01*
X242029D01*
Y827965D01*
X237965D01*
X238981Y828981D02*
Y831013D01*
X241013D01*
Y828981D01*
X238981D01*
X227965Y847965D02*
Y852029D01*
X232029D01*
Y847965D01*
X227965D01*
X228981Y848981D02*
Y851013D01*
X231013D01*
Y848981D01*
X228981D01*
X227965Y887965D02*
Y892029D01*
X232029D01*
Y887965D01*
X227965D01*
X228981Y888981D02*
Y891013D01*
X231013D01*
Y888981D01*
X228981D01*
X237965Y907965D02*
Y912029D01*
X242029D01*
Y907965D01*
X237965D01*
X238981Y908981D02*
Y911013D01*
X241013D01*
Y908981D01*
X238981D01*
X257965Y-52034D02*
Y-47969D01*
X262029D01*
Y-52034D01*
X257965D01*
X258981Y-51017D02*
Y-48986D01*
X261013D01*
Y-51017D01*
X258981D01*
X257965Y-12034D02*
Y-7970D01*
X262029D01*
Y-12034D01*
X257965D01*
X258981Y-11018D02*
Y-8986D01*
X261013D01*
Y-11018D01*
X258981D01*
X257965Y27966D02*
Y32030D01*
X262029D01*
Y27966D01*
X257965D01*
X258981Y28982D02*
Y31014D01*
X261013D01*
Y28982D01*
X258981D01*
X247965Y647965D02*
Y652029D01*
X252029D01*
Y647965D01*
X247965D01*
X248981Y648981D02*
Y651013D01*
X251013D01*
Y648981D01*
X248981D01*
X257965Y707965D02*
Y712029D01*
X262029D01*
Y707965D01*
X257965D01*
X258981Y708981D02*
Y711013D01*
X261013D01*
Y708981D01*
X258981D01*
X247965Y727965D02*
Y732029D01*
X252029D01*
Y727965D01*
X247965D01*
X248981Y728981D02*
Y731013D01*
X251013D01*
Y728981D01*
X248981D01*
X257965Y747965D02*
Y752029D01*
X262029D01*
Y747965D01*
X257965D01*
X258981Y748981D02*
Y751013D01*
X261013D01*
Y748981D01*
X258981D01*
X247965Y767965D02*
Y772029D01*
X252029D01*
Y767965D01*
X247965D01*
X248981Y768981D02*
Y771013D01*
X251013D01*
Y768981D01*
X248981D01*
X247965Y807965D02*
Y812029D01*
X252029D01*
Y807965D01*
X247965D01*
X248981Y808981D02*
Y811013D01*
X251013D01*
Y808981D01*
X248981D01*
X257965Y827965D02*
Y832029D01*
X262029D01*
Y827965D01*
X257965D01*
X258981Y828981D02*
Y831013D01*
X261013D01*
Y828981D01*
X258981D01*
X247965Y847965D02*
Y852029D01*
X252029D01*
Y847965D01*
X247965D01*
X248981Y848981D02*
Y851013D01*
X251013D01*
Y848981D01*
X248981D01*
X247965Y887965D02*
Y892029D01*
X252029D01*
Y887965D01*
X247965D01*
X248981Y888981D02*
Y891013D01*
X251013D01*
Y888981D01*
X248981D01*
X257965Y907965D02*
Y912029D01*
X262029D01*
Y907965D01*
X257965D01*
X258981Y908981D02*
Y911013D01*
X261013D01*
Y908981D01*
X258981D01*
X247965Y927965D02*
Y932029D01*
X252029D01*
Y927965D01*
X247965D01*
X248981Y928981D02*
Y931013D01*
X251013D01*
Y928981D01*
X248981D01*
X257965Y947964D02*
Y952029D01*
X262029D01*
Y947964D01*
X257965D01*
X258981Y948980D02*
Y951012D01*
X261013D01*
Y948980D01*
X258981D01*
X247965Y967964D02*
Y972029D01*
X252029D01*
Y967964D01*
X247965D01*
X248981Y968980D02*
Y971012D01*
X251013D01*
Y968980D01*
X248981D01*
X257965Y987964D02*
Y992028D01*
X262029D01*
Y987964D01*
X257965D01*
X258981Y988980D02*
Y991012D01*
X261013D01*
Y988980D01*
X258981D01*
X247965Y1007964D02*
Y1012028D01*
X252029D01*
Y1007964D01*
X247965D01*
X248981Y1008980D02*
Y1011012D01*
X251013D01*
Y1008980D01*
X248981D01*
X267965Y-72033D02*
Y-67969D01*
X272029D01*
Y-72033D01*
X267965D01*
X268981Y-71017D02*
Y-68985D01*
X271013D01*
Y-71017D01*
X268981D01*
X277965Y-52034D02*
Y-47969D01*
X282029D01*
Y-52034D01*
X277965D01*
X278981Y-51017D02*
Y-48986D01*
X281013D01*
Y-51017D01*
X278981D01*
X267965Y-32034D02*
Y-27970D01*
X272029D01*
Y-32034D01*
X267965D01*
X268981Y-31017D02*
Y-28986D01*
X271013D01*
Y-31017D01*
X268981D01*
X277965Y-12034D02*
Y-7970D01*
X282029D01*
Y-12034D01*
X277965D01*
X278981Y-11018D02*
Y-8986D01*
X281013D01*
Y-11018D01*
X278981D01*
X267965Y7966D02*
Y12030D01*
X272029D01*
Y7966D01*
X267965D01*
X268981Y8982D02*
Y11014D01*
X271013D01*
Y8982D01*
X268981D01*
X277965Y27966D02*
Y32030D01*
X282029D01*
Y27966D01*
X277965D01*
X278981Y28982D02*
Y31014D01*
X281013D01*
Y28982D01*
X278981D01*
X267965Y647965D02*
Y652029D01*
X272029D01*
Y647965D01*
X267965D01*
X268981Y648981D02*
Y651013D01*
X271013D01*
Y648981D01*
X268981D01*
X267965Y687965D02*
Y692029D01*
X272029D01*
Y687965D01*
X267965D01*
X268981Y688981D02*
Y691013D01*
X271013D01*
Y688981D01*
X268981D01*
X267965Y727965D02*
Y732029D01*
X272029D01*
Y727965D01*
X267965D01*
X268981Y728981D02*
Y731013D01*
X271013D01*
Y728981D01*
X268981D01*
X267965Y767965D02*
Y772029D01*
X272029D01*
Y767965D01*
X267965D01*
X268981Y768981D02*
Y771013D01*
X271013D01*
Y768981D01*
X268981D01*
X267965Y807965D02*
Y812029D01*
X272029D01*
Y807965D01*
X267965D01*
X268981Y808981D02*
Y811013D01*
X271013D01*
Y808981D01*
X268981D01*
X267965Y847965D02*
Y852029D01*
X272029D01*
Y847965D01*
X267965D01*
X268981Y848981D02*
Y851013D01*
X271013D01*
Y848981D01*
X268981D01*
X267965Y887965D02*
Y892029D01*
X272029D01*
Y887965D01*
X267965D01*
X268981Y888981D02*
Y891013D01*
X271013D01*
Y888981D01*
X268981D01*
X277965Y907965D02*
Y912029D01*
X282029D01*
Y907965D01*
X277965D01*
X278981Y908981D02*
Y911013D01*
X281013D01*
Y908981D01*
X278981D01*
X267965Y927965D02*
Y932029D01*
X272029D01*
Y927965D01*
X267965D01*
X268981Y928981D02*
Y931013D01*
X271013D01*
Y928981D01*
X268981D01*
X277965Y947964D02*
Y952029D01*
X282029D01*
Y947964D01*
X277965D01*
X278981Y948980D02*
Y951012D01*
X281013D01*
Y948980D01*
X278981D01*
X267965Y967964D02*
Y972029D01*
X272029D01*
Y967964D01*
X267965D01*
X268981Y968980D02*
Y971012D01*
X271013D01*
Y968980D01*
X268981D01*
X277965Y987964D02*
Y992028D01*
X282029D01*
Y987964D01*
X277965D01*
X278981Y988980D02*
Y991012D01*
X281013D01*
Y988980D01*
X278981D01*
X267965Y1007964D02*
Y1012028D01*
X272029D01*
Y1007964D01*
X267965D01*
X268981Y1008980D02*
Y1011012D01*
X271013D01*
Y1008980D01*
X268981D01*
X287965Y-72033D02*
Y-67969D01*
X292029D01*
Y-72033D01*
X287965D01*
X288981Y-71017D02*
Y-68985D01*
X291013D01*
Y-71017D01*
X288981D01*
X297965Y-52034D02*
Y-47969D01*
X302029D01*
Y-52034D01*
X297965D01*
X298981Y-51017D02*
Y-48986D01*
X301013D01*
Y-51017D01*
X298981D01*
X287965Y-32034D02*
Y-27970D01*
X292029D01*
Y-32034D01*
X287965D01*
X288981Y-31017D02*
Y-28986D01*
X291013D01*
Y-31017D01*
X288981D01*
X297965Y-12034D02*
Y-7970D01*
X302029D01*
Y-12034D01*
X297965D01*
X298981Y-11018D02*
Y-8986D01*
X301013D01*
Y-11018D01*
X298981D01*
X287965Y7966D02*
Y12030D01*
X292029D01*
Y7966D01*
X287965D01*
X288981Y8982D02*
Y11014D01*
X291013D01*
Y8982D01*
X288981D01*
X297965Y187966D02*
Y192030D01*
X302029D01*
Y187966D01*
X297965D01*
X298981Y188982D02*
Y191014D01*
X301013D01*
Y188982D01*
X298981D01*
X287965Y767965D02*
Y772029D01*
X292029D01*
Y767965D01*
X287965D01*
X288981Y768981D02*
Y771013D01*
X291013D01*
Y768981D01*
X288981D01*
X297965Y867965D02*
Y872029D01*
X302029D01*
Y867965D01*
X297965D01*
X298981Y868981D02*
Y871013D01*
X301013D01*
Y868981D01*
X298981D01*
X287965Y887965D02*
Y892029D01*
X292029D01*
Y887965D01*
X287965D01*
X288981Y888981D02*
Y891013D01*
X291013D01*
Y888981D01*
X288981D01*
X297965Y907965D02*
Y912029D01*
X302029D01*
Y907965D01*
X297965D01*
X298981Y908981D02*
Y911013D01*
X301013D01*
Y908981D01*
X298981D01*
X287965Y927965D02*
Y932029D01*
X292029D01*
Y927965D01*
X287965D01*
X288981Y928981D02*
Y931013D01*
X291013D01*
Y928981D01*
X288981D01*
X297965Y947964D02*
Y952029D01*
X302029D01*
Y947964D01*
X297965D01*
X298981Y948980D02*
Y951012D01*
X301013D01*
Y948980D01*
X298981D01*
X287965Y967964D02*
Y972029D01*
X292029D01*
Y967964D01*
X287965D01*
X288981Y968980D02*
Y971012D01*
X291013D01*
Y968980D01*
X288981D01*
X297965Y987964D02*
Y992028D01*
X302029D01*
Y987964D01*
X297965D01*
X298981Y988980D02*
Y991012D01*
X301013D01*
Y988980D01*
X298981D01*
X287965Y1007964D02*
Y1012028D01*
X292029D01*
Y1007964D01*
X287965D01*
X288981Y1008980D02*
Y1011012D01*
X291013D01*
Y1008980D01*
X288981D01*
X307965Y-72033D02*
Y-67969D01*
X312029D01*
Y-72033D01*
X307965D01*
X308981Y-71017D02*
Y-68985D01*
X311013D01*
Y-71017D01*
X308981D01*
X317965Y-52034D02*
Y-47969D01*
X322029D01*
Y-52034D01*
X317965D01*
X318981Y-51017D02*
Y-48986D01*
X321013D01*
Y-51017D01*
X318981D01*
X307965Y-32034D02*
Y-27970D01*
X312029D01*
Y-32034D01*
X307965D01*
X308981Y-31017D02*
Y-28986D01*
X311013D01*
Y-31017D01*
X308981D01*
X317965Y-12034D02*
Y-7970D01*
X322029D01*
Y-12034D01*
X317965D01*
X318981Y-11018D02*
Y-8986D01*
X321013D01*
Y-11018D01*
X318981D01*
X307965Y7966D02*
Y12030D01*
X312029D01*
Y7966D01*
X307965D01*
X308981Y8982D02*
Y11014D01*
X311013D01*
Y8982D01*
X308981D01*
X307965Y287966D02*
Y292030D01*
X312029D01*
Y287966D01*
X307965D01*
X308981Y288982D02*
Y291014D01*
X311013D01*
Y288982D01*
X308981D01*
X317965Y467966D02*
Y472029D01*
X322029D01*
Y467966D01*
X317965D01*
X318981Y468982D02*
Y471013D01*
X321013D01*
Y468982D01*
X318981D01*
X317965Y827965D02*
Y832029D01*
X322029D01*
Y827965D01*
X317965D01*
X318981Y828981D02*
Y831013D01*
X321013D01*
Y828981D01*
X318981D01*
X317965Y867965D02*
Y872029D01*
X322029D01*
Y867965D01*
X317965D01*
X318981Y868981D02*
Y871013D01*
X321013D01*
Y868981D01*
X318981D01*
X307965Y887965D02*
Y892029D01*
X312029D01*
Y887965D01*
X307965D01*
X308981Y888981D02*
Y891013D01*
X311013D01*
Y888981D01*
X308981D01*
X317965Y907965D02*
Y912029D01*
X322029D01*
Y907965D01*
X317965D01*
X318981Y908981D02*
Y911013D01*
X321013D01*
Y908981D01*
X318981D01*
X307965Y927965D02*
Y932029D01*
X312029D01*
Y927965D01*
X307965D01*
X308981Y928981D02*
Y931013D01*
X311013D01*
Y928981D01*
X308981D01*
X317965Y947964D02*
Y952029D01*
X322029D01*
Y947964D01*
X317965D01*
X318981Y948980D02*
Y951012D01*
X321013D01*
Y948980D01*
X318981D01*
X307965Y967964D02*
Y972029D01*
X312029D01*
Y967964D01*
X307965D01*
X308981Y968980D02*
Y971012D01*
X311013D01*
Y968980D01*
X308981D01*
X317965Y987964D02*
Y992028D01*
X322029D01*
Y987964D01*
X317965D01*
X318981Y988980D02*
Y991012D01*
X321013D01*
Y988980D01*
X318981D01*
X307965Y1007964D02*
Y1012028D01*
X312029D01*
Y1007964D01*
X307965D01*
X308981Y1008980D02*
Y1011012D01*
X311013D01*
Y1008980D01*
X308981D01*
X327965Y-72033D02*
Y-67969D01*
X332029D01*
Y-72033D01*
X327965D01*
X328981Y-71017D02*
Y-68985D01*
X331013D01*
Y-71017D01*
X328981D01*
X327965Y-32034D02*
Y-27970D01*
X332029D01*
Y-32034D01*
X327965D01*
X328981Y-31017D02*
Y-28986D01*
X331013D01*
Y-31017D01*
X328981D01*
X327965Y487965D02*
Y492029D01*
X332029D01*
Y487965D01*
X327965D01*
X328981Y488981D02*
Y491013D01*
X331013D01*
Y488981D01*
X328981D01*
X337965Y507965D02*
Y512029D01*
X342029D01*
Y507965D01*
X337965D01*
X338981Y508981D02*
Y511013D01*
X341013D01*
Y508981D01*
X338981D01*
X327965Y687965D02*
Y692029D01*
X332029D01*
Y687965D01*
X327965D01*
X328981Y688981D02*
Y691013D01*
X331013D01*
Y688981D01*
X328981D01*
X327965Y887965D02*
Y892029D01*
X332029D01*
Y887965D01*
X327965D01*
X328981Y888981D02*
Y891013D01*
X331013D01*
Y888981D01*
X328981D01*
X337965Y907965D02*
Y912029D01*
X342029D01*
Y907965D01*
X337965D01*
X338981Y908981D02*
Y911013D01*
X341013D01*
Y908981D01*
X338981D01*
X327965Y927965D02*
Y932029D01*
X332029D01*
Y927965D01*
X327965D01*
X328981Y928981D02*
Y931013D01*
X331013D01*
Y928981D01*
X328981D01*
X327965Y967964D02*
Y972029D01*
X332029D01*
Y967964D01*
X327965D01*
X328981Y968980D02*
Y971012D01*
X331013D01*
Y968980D01*
X328981D01*
X327965Y1007964D02*
Y1012028D01*
X332029D01*
Y1007964D01*
X327965D01*
X328981Y1008980D02*
Y1011012D01*
X331013D01*
Y1008980D01*
X328981D01*
X347965Y7966D02*
Y12030D01*
X352029D01*
Y7966D01*
X347965D01*
X348981Y8982D02*
Y11014D01*
X351013D01*
Y8982D01*
X348981D01*
X357965Y107966D02*
Y112030D01*
X362029D01*
Y107966D01*
X357965D01*
X358981Y108982D02*
Y111014D01*
X361013D01*
Y108982D01*
X358981D01*
X347965Y407966D02*
Y412030D01*
X352029D01*
Y407966D01*
X347965D01*
X348981Y408982D02*
Y411014D01*
X351013D01*
Y408982D01*
X348981D01*
X357965Y707965D02*
Y712029D01*
X362029D01*
Y707965D01*
X357965D01*
X358981Y708981D02*
Y711013D01*
X361013D01*
Y708981D01*
X358981D01*
X347965Y807965D02*
Y812029D01*
X352029D01*
Y807965D01*
X347965D01*
X348981Y808981D02*
Y811013D01*
X351013D01*
Y808981D01*
X348981D01*
X347965Y887965D02*
Y892029D01*
X352029D01*
Y887965D01*
X347965D01*
X348981Y888981D02*
Y891013D01*
X351013D01*
Y888981D01*
X348981D01*
X357965Y907965D02*
Y912029D01*
X362029D01*
Y907965D01*
X357965D01*
X358981Y908981D02*
Y911013D01*
X361013D01*
Y908981D01*
X358981D01*
X347965Y927965D02*
Y932029D01*
X352029D01*
Y927965D01*
X347965D01*
X348981Y928981D02*
Y931013D01*
X351013D01*
Y928981D01*
X348981D01*
X367965Y127966D02*
Y132030D01*
X372029D01*
Y127966D01*
X367965D01*
X368981Y128982D02*
Y131014D01*
X371013D01*
Y128982D01*
X368981D01*
X367965Y247966D02*
Y252030D01*
X372029D01*
Y247966D01*
X367965D01*
X368981Y248982D02*
Y251014D01*
X371013D01*
Y248982D01*
X368981D01*
X377965Y347966D02*
Y352030D01*
X382029D01*
Y347966D01*
X377965D01*
X378981Y348982D02*
Y351014D01*
X381013D01*
Y348982D01*
X378981D01*
X377965Y667965D02*
Y672029D01*
X382029D01*
Y667965D01*
X377965D01*
X378981Y668981D02*
Y671013D01*
X381013D01*
Y668981D01*
X378981D01*
X377965Y707965D02*
Y712029D01*
X382029D01*
Y707965D01*
X377965D01*
X378981Y708981D02*
Y711013D01*
X381013D01*
Y708981D01*
X378981D01*
X377965Y867965D02*
Y872029D01*
X382029D01*
Y867965D01*
X377965D01*
X378981Y868981D02*
Y871013D01*
X381013D01*
Y868981D01*
X378981D01*
X367965Y887965D02*
Y892029D01*
X372029D01*
Y887965D01*
X367965D01*
X368981Y888981D02*
Y891013D01*
X371013D01*
Y888981D01*
X368981D01*
X377965Y907965D02*
Y912029D01*
X382029D01*
Y907965D01*
X377965D01*
X378981Y908981D02*
Y911013D01*
X381013D01*
Y908981D01*
X378981D01*
X367965Y927965D02*
Y932029D01*
X372029D01*
Y927965D01*
X367965D01*
X368981Y928981D02*
Y931013D01*
X371013D01*
Y928981D01*
X368981D01*
X387965Y7966D02*
Y12030D01*
X392029D01*
Y7966D01*
X387965D01*
X388981Y8982D02*
Y11014D01*
X391013D01*
Y8982D01*
X388981D01*
X397965Y27966D02*
Y32030D01*
X402029D01*
Y27966D01*
X397965D01*
X398981Y28982D02*
Y31014D01*
X401013D01*
Y28982D01*
X398981D01*
X387965Y47966D02*
Y52030D01*
X392029D01*
Y47966D01*
X387965D01*
X388981Y48982D02*
Y51014D01*
X391013D01*
Y48982D01*
X388981D01*
X397965Y67966D02*
Y72030D01*
X402029D01*
Y67966D01*
X397965D01*
X398981Y68982D02*
Y71014D01*
X401013D01*
Y68982D01*
X398981D01*
X387965Y87966D02*
Y92030D01*
X392029D01*
Y87966D01*
X387965D01*
X388981Y88982D02*
Y91014D01*
X391013D01*
Y88982D01*
X388981D01*
X397965Y107966D02*
Y112030D01*
X402029D01*
Y107966D01*
X397965D01*
X398981Y108982D02*
Y111014D01*
X401013D01*
Y108982D01*
X398981D01*
X387965Y127966D02*
Y132030D01*
X392029D01*
Y127966D01*
X387965D01*
X388981Y128982D02*
Y131014D01*
X391013D01*
Y128982D01*
X388981D01*
X387965Y647965D02*
Y652029D01*
X392029D01*
Y647965D01*
X387965D01*
X388981Y648981D02*
Y651013D01*
X391013D01*
Y648981D01*
X388981D01*
X397965Y667965D02*
Y672029D01*
X402029D01*
Y667965D01*
X397965D01*
X398981Y668981D02*
Y671013D01*
X401013D01*
Y668981D01*
X398981D01*
X397965Y747965D02*
Y752029D01*
X402029D01*
Y747965D01*
X397965D01*
X398981Y748981D02*
Y751013D01*
X401013D01*
Y748981D01*
X398981D01*
X397965Y787965D02*
Y792029D01*
X402029D01*
Y787965D01*
X397965D01*
X398981Y788981D02*
Y791013D01*
X401013D01*
Y788981D01*
X398981D01*
X397965Y867965D02*
Y872029D01*
X402029D01*
Y867965D01*
X397965D01*
X398981Y868981D02*
Y871013D01*
X401013D01*
Y868981D01*
X398981D01*
X387965Y887965D02*
Y892029D01*
X392029D01*
Y887965D01*
X387965D01*
X388981Y888981D02*
Y891013D01*
X391013D01*
Y888981D01*
X388981D01*
X397965Y907965D02*
Y912029D01*
X402029D01*
Y907965D01*
X397965D01*
X398981Y908981D02*
Y911013D01*
X401013D01*
Y908981D01*
X398981D01*
X387965Y927965D02*
Y932029D01*
X392029D01*
Y927965D01*
X387965D01*
X388981Y928981D02*
Y931013D01*
X391013D01*
Y928981D01*
X388981D01*
X407965Y7966D02*
Y12030D01*
X412029D01*
Y7966D01*
X407965D01*
X408981Y8982D02*
Y11014D01*
X411013D01*
Y8982D01*
X408981D01*
X407965Y87966D02*
Y92030D01*
X412029D01*
Y87966D01*
X407965D01*
X408981Y88982D02*
Y91014D01*
X411013D01*
Y88982D01*
X408981D01*
X417965Y107966D02*
Y112030D01*
X422029D01*
Y107966D01*
X417965D01*
X418981Y108982D02*
Y111014D01*
X421013D01*
Y108982D01*
X418981D01*
X407965Y127966D02*
Y132030D01*
X412029D01*
Y127966D01*
X407965D01*
X408981Y128982D02*
Y131014D01*
X411013D01*
Y128982D01*
X408981D01*
X417965Y147966D02*
Y152030D01*
X422029D01*
Y147966D01*
X417965D01*
X418981Y148982D02*
Y151014D01*
X421013D01*
Y148982D01*
X418981D01*
X407965Y167966D02*
Y172030D01*
X412029D01*
Y167966D01*
X407965D01*
X408981Y168982D02*
Y171014D01*
X411013D01*
Y168982D01*
X408981D01*
X417965Y787965D02*
Y792029D01*
X422029D01*
Y787965D01*
X417965D01*
X418981Y788981D02*
Y791013D01*
X421013D01*
Y788981D01*
X418981D01*
X407965Y847965D02*
Y852029D01*
X412029D01*
Y847965D01*
X407965D01*
X408981Y848981D02*
Y851013D01*
X411013D01*
Y848981D01*
X408981D01*
X407965Y927965D02*
Y932029D01*
X412029D01*
Y927965D01*
X407965D01*
X408981Y928981D02*
Y931013D01*
X411013D01*
Y928981D01*
X408981D01*
X427965Y7966D02*
Y12030D01*
X432029D01*
Y7966D01*
X427965D01*
X428981Y8982D02*
Y11014D01*
X431013D01*
Y8982D01*
X428981D01*
X437965Y227966D02*
Y232030D01*
X442029D01*
Y227966D01*
X437965D01*
X438981Y228982D02*
Y231014D01*
X441013D01*
Y228982D01*
X438981D01*
X437965Y307966D02*
Y312030D01*
X442029D01*
Y307966D01*
X437965D01*
X438981Y308982D02*
Y311014D01*
X441013D01*
Y308982D01*
X438981D01*
X437965Y347966D02*
Y352030D01*
X442029D01*
Y347966D01*
X437965D01*
X438981Y348982D02*
Y351014D01*
X441013D01*
Y348982D01*
X438981D01*
X437965Y387966D02*
Y392030D01*
X442029D01*
Y387966D01*
X437965D01*
X438981Y388982D02*
Y391014D01*
X441013D01*
Y388982D01*
X438981D01*
X437965Y467966D02*
Y472029D01*
X442029D01*
Y467966D01*
X437965D01*
X438981Y468982D02*
Y471013D01*
X441013D01*
Y468982D01*
X438981D01*
X427965Y567965D02*
Y572029D01*
X432029D01*
Y567965D01*
X427965D01*
X428981Y568981D02*
Y571013D01*
X431013D01*
Y568981D01*
X428981D01*
X427965Y927965D02*
Y932029D01*
X432029D01*
Y927965D01*
X427965D01*
X428981Y928981D02*
Y931013D01*
X431013D01*
Y928981D01*
X428981D01*
X447965Y127966D02*
Y132030D01*
X452029D01*
Y127966D01*
X447965D01*
X448981Y128982D02*
Y131014D01*
X451013D01*
Y128982D01*
X448981D01*
X457965Y147966D02*
Y152030D01*
X462029D01*
Y147966D01*
X457965D01*
X458981Y148982D02*
Y151014D01*
X461013D01*
Y148982D01*
X458981D01*
X447965Y167966D02*
Y172030D01*
X452029D01*
Y167966D01*
X447965D01*
X448981Y168982D02*
Y171014D01*
X451013D01*
Y168982D01*
X448981D01*
X457965Y187966D02*
Y192030D01*
X462029D01*
Y187966D01*
X457965D01*
X458981Y188982D02*
Y191014D01*
X461013D01*
Y188982D01*
X458981D01*
X457965Y227966D02*
Y232030D01*
X462029D01*
Y227966D01*
X457965D01*
X458981Y228982D02*
Y231014D01*
X461013D01*
Y228982D01*
X458981D01*
X457965Y347966D02*
Y352030D01*
X462029D01*
Y347966D01*
X457965D01*
X458981Y348982D02*
Y351014D01*
X461013D01*
Y348982D01*
X458981D01*
X457965Y427966D02*
Y432030D01*
X462029D01*
Y427966D01*
X457965D01*
X458981Y428982D02*
Y431014D01*
X461013D01*
Y428982D01*
X458981D01*
X457965Y467966D02*
Y472029D01*
X462029D01*
Y467966D01*
X457965D01*
X458981Y468982D02*
Y471013D01*
X461013D01*
Y468982D01*
X458981D01*
X457965Y507965D02*
Y512029D01*
X462029D01*
Y507965D01*
X457965D01*
X458981Y508981D02*
Y511013D01*
X461013D01*
Y508981D01*
X458981D01*
X447965Y527965D02*
Y532029D01*
X452029D01*
Y527965D01*
X447965D01*
X448981Y528981D02*
Y531013D01*
X451013D01*
Y528981D01*
X448981D01*
X457965Y547965D02*
Y552029D01*
X462029D01*
Y547965D01*
X457965D01*
X458981Y548981D02*
Y551013D01*
X461013D01*
Y548981D01*
X458981D01*
X447965Y727965D02*
Y732029D01*
X452029D01*
Y727965D01*
X447965D01*
X448981Y728981D02*
Y731013D01*
X451013D01*
Y728981D01*
X448981D01*
X467965Y127966D02*
Y132030D01*
X472029D01*
Y127966D01*
X467965D01*
X468981Y128982D02*
Y131014D01*
X471013D01*
Y128982D01*
X468981D01*
X477965Y147966D02*
Y152030D01*
X482029D01*
Y147966D01*
X477965D01*
X478981Y148982D02*
Y151014D01*
X481013D01*
Y148982D01*
X478981D01*
X467965Y167966D02*
Y172030D01*
X472029D01*
Y167966D01*
X467965D01*
X468981Y168982D02*
Y171014D01*
X471013D01*
Y168982D01*
X468981D01*
X477965Y187966D02*
Y192030D01*
X482029D01*
Y187966D01*
X477965D01*
X478981Y188982D02*
Y191014D01*
X481013D01*
Y188982D01*
X478981D01*
X467965Y207966D02*
Y212030D01*
X472029D01*
Y207966D01*
X467965D01*
X468981Y208982D02*
Y211014D01*
X471013D01*
Y208982D01*
X468981D01*
X477965Y227966D02*
Y232030D01*
X482029D01*
Y227966D01*
X477965D01*
X478981Y228982D02*
Y231014D01*
X481013D01*
Y228982D01*
X478981D01*
X467965Y247966D02*
Y252030D01*
X472029D01*
Y247966D01*
X467965D01*
X468981Y248982D02*
Y251014D01*
X471013D01*
Y248982D01*
X468981D01*
X477965Y267966D02*
Y272030D01*
X482029D01*
Y267966D01*
X477965D01*
X478981Y268982D02*
Y271014D01*
X481013D01*
Y268982D01*
X478981D01*
X467965Y287966D02*
Y292030D01*
X472029D01*
Y287966D01*
X467965D01*
X468981Y288982D02*
Y291014D01*
X471013D01*
Y288982D01*
X468981D01*
X477965Y307966D02*
Y312030D01*
X482029D01*
Y307966D01*
X477965D01*
X478981Y308982D02*
Y311014D01*
X481013D01*
Y308982D01*
X478981D01*
X467965Y327966D02*
Y332030D01*
X472029D01*
Y327966D01*
X467965D01*
X468981Y328982D02*
Y331014D01*
X471013D01*
Y328982D01*
X468981D01*
X477965Y347966D02*
Y352030D01*
X482029D01*
Y347966D01*
X477965D01*
X478981Y348982D02*
Y351014D01*
X481013D01*
Y348982D01*
X478981D01*
X467965Y367966D02*
Y372030D01*
X472029D01*
Y367966D01*
X467965D01*
X468981Y368982D02*
Y371014D01*
X471013D01*
Y368982D01*
X468981D01*
X477965Y387966D02*
Y392030D01*
X482029D01*
Y387966D01*
X477965D01*
X478981Y388982D02*
Y391014D01*
X481013D01*
Y388982D01*
X478981D01*
X467965Y407966D02*
Y412030D01*
X472029D01*
Y407966D01*
X467965D01*
X468981Y408982D02*
Y411014D01*
X471013D01*
Y408982D01*
X468981D01*
X477965Y427966D02*
Y432030D01*
X482029D01*
Y427966D01*
X477965D01*
X478981Y428982D02*
Y431014D01*
X481013D01*
Y428982D01*
X478981D01*
X467965Y527965D02*
Y532029D01*
X472029D01*
Y527965D01*
X467965D01*
X468981Y528981D02*
Y531013D01*
X471013D01*
Y528981D01*
X468981D01*
X477965Y547965D02*
Y552029D01*
X482029D01*
Y547965D01*
X477965D01*
X478981Y548981D02*
Y551013D01*
X481013D01*
Y548981D01*
X478981D01*
X467965Y567965D02*
Y572029D01*
X472029D01*
Y567965D01*
X467965D01*
X468981Y568981D02*
Y571013D01*
X471013D01*
Y568981D01*
X468981D01*
X477965Y667965D02*
Y672029D01*
X482029D01*
Y667965D01*
X477965D01*
X478981Y668981D02*
Y671013D01*
X481013D01*
Y668981D01*
X478981D01*
X467965Y767965D02*
Y772029D01*
X472029D01*
Y767965D01*
X467965D01*
X468981Y768981D02*
Y771013D01*
X471013D01*
Y768981D01*
X468981D01*
X467965Y807965D02*
Y812029D01*
X472029D01*
Y807965D01*
X467965D01*
X468981Y808981D02*
Y811013D01*
X471013D01*
Y808981D01*
X468981D01*
X487965Y7966D02*
Y12030D01*
X492029D01*
Y7966D01*
X487965D01*
X488981Y8982D02*
Y11014D01*
X491013D01*
Y8982D01*
X488981D01*
X497965Y107966D02*
Y112030D01*
X502029D01*
Y107966D01*
X497965D01*
X498981Y108982D02*
Y111014D01*
X501013D01*
Y108982D01*
X498981D01*
X487965Y127966D02*
Y132030D01*
X492029D01*
Y127966D01*
X487965D01*
X488981Y128982D02*
Y131014D01*
X491013D01*
Y128982D01*
X488981D01*
X497965Y147966D02*
Y152030D01*
X502029D01*
Y147966D01*
X497965D01*
X498981Y148982D02*
Y151014D01*
X501013D01*
Y148982D01*
X498981D01*
X487965Y167966D02*
Y172030D01*
X492029D01*
Y167966D01*
X487965D01*
X488981Y168982D02*
Y171014D01*
X491013D01*
Y168982D01*
X488981D01*
X497965Y187966D02*
Y192030D01*
X502029D01*
Y187966D01*
X497965D01*
X498981Y188982D02*
Y191014D01*
X501013D01*
Y188982D01*
X498981D01*
X487965Y207966D02*
Y212030D01*
X492029D01*
Y207966D01*
X487965D01*
X488981Y208982D02*
Y211014D01*
X491013D01*
Y208982D01*
X488981D01*
X497965Y227966D02*
Y232030D01*
X502029D01*
Y227966D01*
X497965D01*
X498981Y228982D02*
Y231014D01*
X501013D01*
Y228982D01*
X498981D01*
X487965Y247966D02*
Y252030D01*
X492029D01*
Y247966D01*
X487965D01*
X488981Y248982D02*
Y251014D01*
X491013D01*
Y248982D01*
X488981D01*
X497965Y267966D02*
Y272030D01*
X502029D01*
Y267966D01*
X497965D01*
X498981Y268982D02*
Y271014D01*
X501013D01*
Y268982D01*
X498981D01*
X487965Y287966D02*
Y292030D01*
X492029D01*
Y287966D01*
X487965D01*
X488981Y288982D02*
Y291014D01*
X491013D01*
Y288982D01*
X488981D01*
X497965Y307966D02*
Y312030D01*
X502029D01*
Y307966D01*
X497965D01*
X498981Y308982D02*
Y311014D01*
X501013D01*
Y308982D01*
X498981D01*
X487965Y327966D02*
Y332030D01*
X492029D01*
Y327966D01*
X487965D01*
X488981Y328982D02*
Y331014D01*
X491013D01*
Y328982D01*
X488981D01*
X497965Y347966D02*
Y352030D01*
X502029D01*
Y347966D01*
X497965D01*
X498981Y348982D02*
Y351014D01*
X501013D01*
Y348982D01*
X498981D01*
X487965Y367966D02*
Y372030D01*
X492029D01*
Y367966D01*
X487965D01*
X488981Y368982D02*
Y371014D01*
X491013D01*
Y368982D01*
X488981D01*
X497965Y387966D02*
Y392030D01*
X502029D01*
Y387966D01*
X497965D01*
X498981Y388982D02*
Y391014D01*
X501013D01*
Y388982D01*
X498981D01*
X487965Y407966D02*
Y412030D01*
X492029D01*
Y407966D01*
X487965D01*
X488981Y408982D02*
Y411014D01*
X491013D01*
Y408982D01*
X488981D01*
X497965Y427966D02*
Y432030D01*
X502029D01*
Y427966D01*
X497965D01*
X498981Y428982D02*
Y431014D01*
X501013D01*
Y428982D01*
X498981D01*
X487965Y447966D02*
Y452029D01*
X492029D01*
Y447966D01*
X487965D01*
X488981Y448982D02*
Y451013D01*
X491013D01*
Y448982D01*
X488981D01*
X497965Y467966D02*
Y472029D01*
X502029D01*
Y467966D01*
X497965D01*
X498981Y468982D02*
Y471013D01*
X501013D01*
Y468982D01*
X498981D01*
X487965Y687965D02*
Y692029D01*
X492029D01*
Y687965D01*
X487965D01*
X488981Y688981D02*
Y691013D01*
X491013D01*
Y688981D01*
X488981D01*
X487965Y727965D02*
Y732029D01*
X492029D01*
Y727965D01*
X487965D01*
X488981Y728981D02*
Y731013D01*
X491013D01*
Y728981D01*
X488981D01*
X487965Y807965D02*
Y812029D01*
X492029D01*
Y807965D01*
X487965D01*
X488981Y808981D02*
Y811013D01*
X491013D01*
Y808981D01*
X488981D01*
X487965Y927965D02*
Y932029D01*
X492029D01*
Y927965D01*
X487965D01*
X488981Y928981D02*
Y931013D01*
X491013D01*
Y928981D01*
X488981D01*
D197*
X434594Y760984D02*
G03*
X434594Y760984I-2032J0D01*
G01*
Y786384D02*
G03*
X434594Y786384I-2032J0D01*
G01*
X459994Y760984D02*
G03*
X459994Y760984I-2032J0D01*
G01*
Y786384D02*
G03*
X459994Y786384I-2032J0D01*
G01*
X485394Y760984D02*
G03*
X485394Y760984I-2032J0D01*
G01*
Y786384D02*
G03*
X485394Y786384I-2032J0D01*
G01*
X23114Y555752D02*
G03*
X23114Y555752I-2032J0D01*
G01*
Y581152D02*
G03*
X23114Y581152I-2032J0D01*
G01*
X334772Y736854D02*
G03*
X334772Y736854I-2032J0D01*
G01*
Y762254D02*
G03*
X334772Y762254I-2032J0D01*
G01*
X28032Y184000D02*
G03*
X28032Y184000I-2032J0D01*
G01*
X152782Y902750D02*
G03*
X152782Y902750I-2032J0D01*
G01*
X203582D02*
G03*
X203582Y902750I-2032J0D01*
G01*
X178182D02*
G03*
X178182Y902750I-2032J0D01*
G01*
X334518Y315468D02*
G03*
X334518Y315468I-2032J0D01*
G01*
Y290068D02*
G03*
X334518Y290068I-2032J0D01*
G01*
X44450Y511556D02*
G03*
X44450Y511556I-2032J0D01*
G01*
X19050D02*
G03*
X19050Y511556I-2032J0D01*
G01*
X-61968Y149600D02*
G03*
X-61968Y149600I-2032J0D01*
G01*
Y175000D02*
G03*
X-61968Y175000I-2032J0D01*
G01*
X-86968Y432600D02*
G03*
X-86968Y432600I-2032J0D01*
G01*
Y458000D02*
G03*
X-86968Y458000I-2032J0D01*
G01*
X346710Y560324D02*
G03*
X346710Y560324I-2032J0D01*
G01*
Y534924D02*
G03*
X346710Y534924I-2032J0D01*
G01*
X-89408Y652780D02*
G03*
X-89408Y652780I-2032J0D01*
G01*
Y627380D02*
G03*
X-89408Y627380I-2032J0D01*
G01*
X338632Y845600D02*
G03*
X338632Y845600I-2032J0D01*
G01*
X364032D02*
G03*
X364032Y845600I-2032J0D01*
G01*
X338632Y871000D02*
G03*
X338632Y871000I-2032J0D01*
G01*
X364032D02*
G03*
X364032Y871000I-2032J0D01*
G01*
Y820200D02*
G03*
X364032Y820200I-2032J0D01*
G01*
X338632D02*
G03*
X338632Y820200I-2032J0D01*
G01*
X203532Y75000D02*
G03*
X203532Y75000I-2032J0D01*
G01*
X13684Y860460D02*
G03*
X13684Y860460I-2032J0D01*
G01*
X-5306Y847826D02*
G03*
X-5306Y847826I-2032J0D01*
G01*
X46440Y-4410D02*
G03*
X46440Y-4410I-2032J0D01*
G01*
X45883Y-13934D02*
G03*
X45883Y-13934I-2032J0D01*
G01*
X50626Y-41432D02*
G03*
X50626Y-41432I-2032J0D01*
G01*
X59077Y-45860D02*
G03*
X59077Y-45860I-2032J0D01*
G01*
X68612Y-46149D02*
G03*
X68612Y-46149I-2032J0D01*
G01*
X78152D02*
G03*
X78152Y-46149I-2032J0D01*
G01*
X87692D02*
G03*
X87692Y-46149I-2032J0D01*
G01*
X97232D02*
G03*
X97232Y-46149I-2032J0D01*
G01*
X106772D02*
G03*
X106772Y-46149I-2032J0D01*
G01*
X102962Y-63851D02*
G03*
X102962Y-63851I-2032J0D01*
G01*
X83882D02*
G03*
X83882Y-63851I-2032J0D01*
G01*
X64802D02*
G03*
X64802Y-63851I-2032J0D01*
G01*
X46288Y-59978D02*
G03*
X46288Y-59978I-2032J0D01*
G01*
X38552Y-54396D02*
G03*
X38552Y-54396I-2032J0D01*
G01*
X32716Y-46849D02*
G03*
X32716Y-46849I-2032J0D01*
G01*
X29189Y-37985D02*
G03*
X29189Y-37985I-2032J0D01*
G01*
X28180Y-28499D02*
G03*
X28180Y-28499I-2032J0D01*
G01*
X27679Y-18972D02*
G03*
X27679Y-18972I-2032J0D01*
G01*
X27913Y103D02*
G03*
X27913Y103I-2032J0D01*
G01*
X46114Y29908D02*
G03*
X46114Y29908I-2032J0D01*
G01*
X46423Y10840D02*
G03*
X46423Y10840I-2032J0D01*
G01*
X27824Y11759D02*
G03*
X27824Y11759I-2032J0D01*
G01*
X27954Y21298D02*
G03*
X27954Y21298I-2032J0D01*
G01*
X60782Y478500D02*
G03*
X60782Y478500I-2032J0D01*
G01*
D198*
X202516Y75000D02*
G03*
X202516Y75000I-1016J0D01*
G01*
X12668Y860460D02*
G03*
X12668Y860460I-1016J0D01*
G01*
X-6322Y847826D02*
G03*
X-6322Y847826I-1016J0D01*
G01*
X45424Y-4410D02*
G03*
X45424Y-4410I-1016J0D01*
G01*
X44868Y-13934D02*
G03*
X44868Y-13934I-1016J0D01*
G01*
X49610Y-41432D02*
G03*
X49610Y-41432I-1016J0D01*
G01*
X58061Y-45860D02*
G03*
X58061Y-45860I-1016J0D01*
G01*
X67596Y-46149D02*
G03*
X67596Y-46149I-1016J0D01*
G01*
X77136D02*
G03*
X77136Y-46149I-1016J0D01*
G01*
X86676D02*
G03*
X86676Y-46149I-1016J0D01*
G01*
X96216D02*
G03*
X96216Y-46149I-1016J0D01*
G01*
X105756D02*
G03*
X105756Y-46149I-1016J0D01*
G01*
X101946Y-63851D02*
G03*
X101946Y-63851I-1016J0D01*
G01*
X82866D02*
G03*
X82866Y-63851I-1016J0D01*
G01*
X63786D02*
G03*
X63786Y-63851I-1016J0D01*
G01*
X45272Y-59978D02*
G03*
X45272Y-59978I-1016J0D01*
G01*
X37536Y-54396D02*
G03*
X37536Y-54396I-1016J0D01*
G01*
X31700Y-46849D02*
G03*
X31700Y-46849I-1016J0D01*
G01*
X28173Y-37985D02*
G03*
X28173Y-37985I-1016J0D01*
G01*
X27164Y-28499D02*
G03*
X27164Y-28499I-1016J0D01*
G01*
X26663Y-18972D02*
G03*
X26663Y-18972I-1016J0D01*
G01*
X26897Y103D02*
G03*
X26897Y103I-1016J0D01*
G01*
X45098Y29908D02*
G03*
X45098Y29908I-1016J0D01*
G01*
X45406Y10840D02*
G03*
X45406Y10840I-1016J0D01*
G01*
X26808Y11759D02*
G03*
X26808Y11759I-1016J0D01*
G01*
X26938Y21298D02*
G03*
X26938Y21298I-1016J0D01*
G01*
X59766Y478500D02*
G03*
X59766Y478500I-1016J0D01*
G01*
M02*
