G04 Layer_Physical_Order=4*
G04 Layer_Color=16711680*
%FSLAX44Y44*%
%MOMM*%
G71*
G01*
G75*
%ADD12C,0.3048*%
%ADD13C,0.2540*%
%ADD16R,0.6500X0.6500*%
%ADD18R,0.6500X0.6500*%
%ADD19R,1.3000X1.3000*%
%ADD39R,0.6096X0.5842*%
%ADD40R,0.5842X0.6096*%
%ADD57C,0.5080*%
%ADD58C,0.2000*%
%ADD60C,0.2286*%
%ADD63C,0.1000*%
%ADD66C,1.5000*%
G04:AMPARAMS|DCode=67|XSize=1.5mm|YSize=1.5mm|CornerRadius=0.075mm|HoleSize=0mm|Usage=FLASHONLY|Rotation=90.000|XOffset=0mm|YOffset=0mm|HoleType=Round|Shape=RoundedRectangle|*
%AMROUNDEDRECTD67*
21,1,1.5000,1.3500,0,0,90.0*
21,1,1.3500,1.5000,0,0,90.0*
1,1,0.1500,0.6750,0.6750*
1,1,0.1500,0.6750,-0.6750*
1,1,0.1500,-0.6750,-0.6750*
1,1,0.1500,-0.6750,0.6750*
%
%ADD67ROUNDEDRECTD67*%
%ADD68R,1.5000X1.5000*%
%ADD69C,1.8000*%
%ADD70P,1.9483X8X292.5*%
%ADD71C,1.5240*%
%ADD72C,1.3000*%
%ADD73O,1.3970X1.7780*%
%ADD74R,1.3970X1.7780*%
G04:AMPARAMS|DCode=75|XSize=1.7mm|YSize=1.7mm|CornerRadius=0.17mm|HoleSize=0mm|Usage=FLASHONLY|Rotation=0.000|XOffset=0mm|YOffset=0mm|HoleType=Round|Shape=RoundedRectangle|*
%AMROUNDEDRECTD75*
21,1,1.7000,1.3600,0,0,0.0*
21,1,1.3600,1.7000,0,0,0.0*
1,1,0.3400,0.6800,-0.6800*
1,1,0.3400,-0.6800,-0.6800*
1,1,0.3400,-0.6800,0.6800*
1,1,0.3400,0.6800,0.6800*
%
%ADD75ROUNDEDRECTD75*%
%ADD76C,1.7000*%
%ADD77P,1.9483X8X22.5*%
%ADD78C,10.0000*%
%ADD79C,1.0500*%
%ADD80P,1.1365X8X292.5*%
%ADD81C,1.5748*%
%ADD82C,0.7000*%
%ADD83C,0.8500*%
%ADD102C,0.3000*%
%ADD103R,1.6000X1.6000*%
%ADD104R,1.3000X1.3000*%
%ADD105R,1.9000X1.3000*%
%ADD106R,2.8000X1.0000*%
%ADD107R,0.8000X1.0000*%
%ADD108R,1.2000X1.0000*%
%ADD109R,1.2000X0.7000*%
%ADD110R,0.6000X1.0500*%
%ADD111R,1.5000X0.5500*%
%ADD112R,1.9800X0.5300*%
%ADD113R,0.4500X1.0500*%
%ADD114C,0.4572*%
G36*
X409702Y329154D02*
X409702Y329154D01*
X426495D01*
X426926Y327884D01*
X425512Y326799D01*
X424050Y324893D01*
X423314Y323118D01*
X390718D01*
X389982Y324893D01*
X388521Y326799D01*
X386992Y327972D01*
X387423Y329242D01*
X409260D01*
X409702Y329154D01*
D02*
G37*
G36*
X189375Y315020D02*
X188750Y313849D01*
X187500Y314098D01*
X185549Y313710D01*
X183895Y312605D01*
X183513Y312033D01*
X181986D01*
X181604Y312604D01*
X179951Y313709D01*
X178000Y314097D01*
X176049Y313709D01*
X174395Y312604D01*
X173764Y311660D01*
X172236D01*
X171605Y312605D01*
X169951Y313710D01*
X168000Y314098D01*
X166049Y313710D01*
X164395Y312605D01*
X163763Y311659D01*
X162236D01*
X161604Y312604D01*
X159951Y313709D01*
X158000Y314097D01*
X156049Y313709D01*
X154395Y312604D01*
X153290Y310950D01*
X152902Y308999D01*
X153149Y307754D01*
X145944Y300549D01*
X141950D01*
X141424Y301819D01*
X157056Y317451D01*
X186944D01*
X189375Y315020D01*
D02*
G37*
G36*
X455926Y327580D02*
Y255920D01*
X446924Y246918D01*
X440718D01*
X439982Y248693D01*
X438521Y250599D01*
X436615Y252060D01*
X434397Y252979D01*
X432016Y253293D01*
X429635Y252979D01*
X427417Y252060D01*
X425512Y250599D01*
X424050Y248693D01*
X423314Y246918D01*
X390718D01*
X389982Y248693D01*
X388521Y250599D01*
X386615Y252060D01*
X384397Y252979D01*
X382016Y253293D01*
X379635Y252979D01*
X377417Y252060D01*
X375512Y250599D01*
X374050Y248693D01*
X373131Y246475D01*
X372817Y244094D01*
X373131Y241713D01*
X374050Y239495D01*
X375512Y237589D01*
X377417Y236128D01*
X378704Y235594D01*
X378452Y234324D01*
X374250D01*
X374250Y234324D01*
X373169Y234109D01*
X372253Y233497D01*
X372253Y233497D01*
X369418Y230662D01*
X365990D01*
Y232259D01*
X362192D01*
X361442Y232408D01*
X360692Y232259D01*
X357100D01*
X356894Y232259D01*
X355830D01*
X355624Y232259D01*
X346734D01*
Y230662D01*
X344578D01*
X343029Y232211D01*
X342113Y232823D01*
X341032Y233038D01*
X341032Y233038D01*
X336412D01*
Y236964D01*
X328986D01*
Y239214D01*
X328986Y239214D01*
X328771Y240295D01*
X328159Y241211D01*
X328159Y241211D01*
X325045Y244325D01*
X325571Y245595D01*
X338621D01*
X339933Y244718D01*
X341884Y244330D01*
X343835Y244718D01*
X345489Y245823D01*
X346594Y247477D01*
X347862Y247343D01*
Y244094D01*
X355092D01*
Y251324D01*
X351808D01*
X351013Y252594D01*
X351125Y252824D01*
X364362D01*
Y268824D01*
X351057D01*
X350688Y270094D01*
X351091Y270350D01*
X351112Y270340D01*
X351175Y270340D01*
X355092D01*
Y275590D01*
Y280840D01*
X351175D01*
X351112Y280840D01*
X350049Y280340D01*
X349842Y280340D01*
X340612D01*
Y270840D01*
X341583D01*
Y264635D01*
X340313Y263956D01*
X339613Y264424D01*
X337662Y264812D01*
X335711Y264424D01*
X334057Y263319D01*
X333536Y262538D01*
X297662D01*
X296581Y262323D01*
X295665Y261711D01*
X295665Y261711D01*
X292242Y258288D01*
X287370D01*
Y260135D01*
X278480D01*
X278274Y260135D01*
X277210D01*
X277004Y260135D01*
X271859D01*
X265997Y265997D01*
X265081Y266609D01*
X264000Y266824D01*
X264000Y266824D01*
X241170D01*
X235228Y272766D01*
X235755Y274036D01*
X258306D01*
X258928Y273104D01*
X260582Y271999D01*
X262533Y271611D01*
X264484Y271999D01*
X266138Y273104D01*
X266659Y273885D01*
X274571D01*
X276453Y272003D01*
X277369Y271391D01*
X278450Y271176D01*
X289874D01*
X290395Y270395D01*
X292049Y269290D01*
X294000Y268902D01*
X295951Y269290D01*
X297605Y270395D01*
X298126Y271176D01*
X305452D01*
Y269579D01*
X314342D01*
X314548Y269579D01*
X315612D01*
X315818Y269579D01*
X324708D01*
Y271750D01*
X329376D01*
X329897Y270969D01*
X331551Y269864D01*
X333502Y269476D01*
X335453Y269864D01*
X337107Y270969D01*
X338212Y272623D01*
X338600Y274574D01*
X338212Y276525D01*
X337107Y278179D01*
X336928Y278298D01*
X337314Y279568D01*
X337736D01*
X342986Y284818D01*
Y295318D01*
X342033Y296271D01*
X342606Y297494D01*
X343633Y297919D01*
X344109Y299067D01*
Y307068D01*
X343633Y308216D01*
X342485Y308691D01*
X341956D01*
X341395Y309830D01*
X341658Y310173D01*
X342716Y312727D01*
X343077Y315468D01*
X342716Y318209D01*
X341658Y320763D01*
X339975Y322957D01*
X337781Y324640D01*
X335227Y325698D01*
X332486Y326059D01*
X329745Y325698D01*
X327191Y324640D01*
X324997Y322957D01*
X323314Y320763D01*
X322256Y318209D01*
X321895Y315468D01*
X322256Y312727D01*
X323314Y310173D01*
X323577Y309831D01*
X323015Y308692D01*
X322486D01*
X321338Y308216D01*
X320862Y307068D01*
Y299068D01*
X321338Y297920D01*
X322366Y297494D01*
X322939Y296271D01*
X321986Y295318D01*
Y284818D01*
X327236Y279568D01*
X329690D01*
X330048Y278390D01*
X329296Y277398D01*
X324708D01*
Y278421D01*
X315818D01*
X315612Y278421D01*
X314548D01*
X314342Y278421D01*
X305452D01*
Y276824D01*
X298126D01*
X297605Y277605D01*
X295951Y278710D01*
X294000Y279098D01*
X292049Y278710D01*
X290395Y277605D01*
X289874Y276824D01*
X279620D01*
X277738Y278706D01*
X276822Y279318D01*
X275741Y279533D01*
X275741Y279533D01*
X267899D01*
X267140Y279684D01*
X266558D01*
X266138Y280314D01*
X264484Y281419D01*
X262533Y281807D01*
X260582Y281419D01*
X258928Y280314D01*
X258508Y279684D01*
X235310D01*
X230654Y284340D01*
Y327170D01*
X230654Y327170D01*
X230495Y327972D01*
X230994Y328886D01*
X231305Y329242D01*
X376609D01*
X377040Y327972D01*
X375512Y326799D01*
X374050Y324893D01*
X373131Y322675D01*
X372817Y320294D01*
X373131Y317913D01*
X374050Y315695D01*
X375512Y313790D01*
X377417Y312328D01*
X379635Y311409D01*
X382016Y311095D01*
X384397Y311409D01*
X386615Y312328D01*
X388521Y313790D01*
X389982Y315695D01*
X390718Y317470D01*
X423314D01*
X424050Y315695D01*
X425512Y313790D01*
X427417Y312328D01*
X429635Y311409D01*
X432016Y311095D01*
X434397Y311409D01*
X436615Y312328D01*
X438521Y313790D01*
X439982Y315695D01*
X440901Y317913D01*
X441215Y320294D01*
X440901Y322675D01*
X439982Y324893D01*
X438521Y326799D01*
X437106Y327884D01*
X437537Y329154D01*
X441352D01*
X447176Y323330D01*
Y277420D01*
X442074Y272318D01*
X440718D01*
X439982Y274093D01*
X438521Y275998D01*
X436615Y277460D01*
X434397Y278379D01*
X432016Y278693D01*
X429635Y278379D01*
X427417Y277460D01*
X425512Y275998D01*
X424050Y274093D01*
X423314Y272318D01*
X390718D01*
X389982Y274093D01*
X388521Y275998D01*
X386615Y277460D01*
X384397Y278379D01*
X382016Y278693D01*
X379635Y278379D01*
X377417Y277460D01*
X375512Y275998D01*
X374050Y274093D01*
X373131Y271875D01*
X372817Y269494D01*
X373131Y267113D01*
X374050Y264895D01*
X375512Y262990D01*
X377417Y261528D01*
X379635Y260609D01*
X382016Y260295D01*
X384397Y260609D01*
X386615Y261528D01*
X388521Y262990D01*
X389982Y264895D01*
X390718Y266670D01*
X423314D01*
X424050Y264895D01*
X425512Y262990D01*
X427417Y261528D01*
X429635Y260609D01*
X432016Y260295D01*
X434397Y260609D01*
X436615Y261528D01*
X438521Y262990D01*
X439982Y264895D01*
X440718Y266670D01*
X443244D01*
X443244Y266670D01*
X444325Y266885D01*
X445241Y267497D01*
X451997Y274253D01*
X451997Y274253D01*
X452609Y275169D01*
X452824Y276250D01*
X452824Y276250D01*
Y324500D01*
X452609Y325581D01*
X451997Y326497D01*
X451997Y326497D01*
X444519Y333975D01*
X443603Y334587D01*
X442827Y334742D01*
X442952Y336012D01*
X447494D01*
X455926Y327580D01*
D02*
G37*
G36*
X378657Y412491D02*
X376439Y411572D01*
X374534Y410111D01*
X373072Y408205D01*
X372153Y405987D01*
X371839Y403606D01*
X372153Y401225D01*
X373072Y399007D01*
X374534Y397102D01*
X376439Y395640D01*
X378359Y394844D01*
X378106Y393574D01*
X373250D01*
X372169Y393359D01*
X371253Y392747D01*
X371253Y392747D01*
X370330Y391824D01*
X233139D01*
X232420Y393094D01*
X232468Y393176D01*
X351042D01*
X351042Y393176D01*
X352123Y393391D01*
X353039Y394003D01*
X372712Y413676D01*
X378362D01*
X378657Y412491D01*
D02*
G37*
G36*
X105049Y399290D02*
X106469Y399008D01*
X107142Y398140D01*
X107232Y397660D01*
X106902Y395999D01*
X107232Y394340D01*
X107142Y393858D01*
X106468Y392992D01*
X105049Y392710D01*
X103395Y391605D01*
X102290Y389951D01*
X101902Y388000D01*
X102290Y386049D01*
X103395Y384395D01*
X105049Y383290D01*
X107000Y382902D01*
X108065Y381819D01*
X107902Y381000D01*
X108290Y379049D01*
X109395Y377395D01*
X111049Y376290D01*
X113000Y375902D01*
X114951Y376290D01*
X116605Y377395D01*
X117126Y378176D01*
X164830D01*
X181162Y361844D01*
X180636Y360574D01*
X69610D01*
X69225Y361844D01*
X69815Y362239D01*
X102227Y394651D01*
X102227Y394651D01*
X102839Y395567D01*
X103054Y396648D01*
Y399096D01*
X104324Y399774D01*
X105049Y399290D01*
D02*
G37*
G36*
X215926Y319330D02*
Y316727D01*
X214749Y316019D01*
X214656Y316032D01*
X213605Y317605D01*
X211951Y318710D01*
X210000Y319098D01*
X208049Y318710D01*
X206395Y317605D01*
X205690Y316549D01*
X195056D01*
X190424Y321181D01*
X190950Y322451D01*
X196690D01*
X197395Y321395D01*
X199049Y320290D01*
X201000Y319902D01*
X202951Y320290D01*
X204605Y321395D01*
X205710Y323049D01*
X206098Y325000D01*
X205710Y326951D01*
X204605Y328605D01*
X202951Y329710D01*
X201000Y330098D01*
X199049Y329710D01*
X197395Y328605D01*
X196690Y327549D01*
X191813D01*
X191327Y328722D01*
X192755Y330150D01*
X194000Y329902D01*
X195951Y330290D01*
X197605Y331395D01*
X198710Y333049D01*
X198992Y334468D01*
X200304Y334952D01*
X215926Y319330D01*
D02*
G37*
G36*
X103430Y281029D02*
X103106Y279400D01*
X103494Y277449D01*
X104599Y275795D01*
X105655Y275090D01*
Y261914D01*
X98790Y255049D01*
X83418D01*
X82739Y256319D01*
X83450Y257383D01*
X83838Y259334D01*
X83450Y261285D01*
X82893Y262119D01*
X83571Y263389D01*
X89510D01*
X90485Y263583D01*
X91312Y264136D01*
X91468Y264291D01*
X91899Y264619D01*
X93553Y263514D01*
X95504Y263126D01*
X97455Y263514D01*
X99109Y264619D01*
X100214Y266273D01*
X100602Y268224D01*
X100214Y270175D01*
X99109Y271829D01*
X97455Y272934D01*
X95687Y273286D01*
X95344Y273878D01*
X95152Y274547D01*
X102339Y281735D01*
X103430Y281029D01*
D02*
G37*
G36*
X-3924Y232681D02*
X-7056Y229549D01*
X-107690D01*
X-108395Y230605D01*
X-110049Y231710D01*
X-112000Y232098D01*
X-113951Y231710D01*
X-115605Y230605D01*
X-116710Y228951D01*
X-117098Y227000D01*
X-116710Y225049D01*
X-115605Y223395D01*
X-113951Y222290D01*
X-112000Y221902D01*
X-110049Y222290D01*
X-108395Y223395D01*
X-107690Y224451D01*
X-101950D01*
X-101424Y223181D01*
X-102754Y221850D01*
X-104000Y222098D01*
X-105951Y221710D01*
X-107605Y220605D01*
X-108710Y218951D01*
X-109098Y217000D01*
X-108710Y215049D01*
X-108088Y214119D01*
X-108767Y212849D01*
X-144444D01*
X-152456Y220861D01*
X-151632Y222850D01*
X-151322Y225200D01*
X-151632Y227549D01*
X-152539Y229739D01*
X-153981Y231619D01*
X-155365Y232681D01*
X-154934Y233951D01*
X-140466D01*
X-140035Y232681D01*
X-141419Y231619D01*
X-142861Y229739D01*
X-143768Y227549D01*
X-144078Y225200D01*
X-143768Y222850D01*
X-142861Y220661D01*
X-141419Y218781D01*
X-139539Y217339D01*
X-137350Y216432D01*
X-135000Y216122D01*
X-132650Y216432D01*
X-130461Y217339D01*
X-128581Y218781D01*
X-127139Y220661D01*
X-126232Y222850D01*
X-125922Y225200D01*
X-126232Y227549D01*
X-127139Y229739D01*
X-128581Y231619D01*
X-129965Y232681D01*
X-129534Y233951D01*
X-4450D01*
X-3924Y232681D01*
D02*
G37*
G36*
X424050Y214095D02*
X425512Y212190D01*
X426646Y211319D01*
X426215Y210049D01*
X387817D01*
X387386Y211319D01*
X388521Y212190D01*
X389982Y214095D01*
X390411Y215131D01*
X397915D01*
X398799Y214540D01*
X400750Y214152D01*
X402701Y214540D01*
X403585Y215131D01*
X423620D01*
X424050Y214095D01*
D02*
G37*
G36*
X297338Y202384D02*
X292492Y197538D01*
X276276D01*
X275750Y198808D01*
X289159Y212217D01*
X289159Y212217D01*
X289771Y213133D01*
X289986Y214214D01*
X289986Y214214D01*
Y223464D01*
X297338D01*
Y202384D01*
D02*
G37*
G36*
X255928Y259906D02*
X255290Y258951D01*
X254902Y257000D01*
X255290Y255049D01*
X256395Y253395D01*
X258049Y252290D01*
X260000Y251902D01*
X261951Y252290D01*
X263605Y253395D01*
X264710Y255049D01*
X265098Y257000D01*
X265070Y257140D01*
X266241Y257765D01*
X268003Y256003D01*
X268114Y255929D01*
Y251293D01*
X277004D01*
X277210Y251293D01*
X278274D01*
X278480Y251293D01*
X287370D01*
Y252640D01*
X293412D01*
X293412Y252640D01*
X294178Y252792D01*
X294916Y251974D01*
X295018Y251763D01*
X294952Y251665D01*
X294564Y249714D01*
X294952Y247763D01*
X296057Y246109D01*
X297711Y245004D01*
X299662Y244616D01*
X301613Y245004D01*
X303142Y246026D01*
X303721Y245882D01*
X304412Y245537D01*
Y244964D01*
X313912D01*
Y254464D01*
X304412D01*
Y253891D01*
X303721Y253546D01*
X303142Y253402D01*
X301613Y254424D01*
X299662Y254812D01*
X298274Y254536D01*
X297649Y255706D01*
X298832Y256890D01*
X333536D01*
X334057Y256109D01*
X334550Y255780D01*
X334806Y254081D01*
X334604Y253833D01*
X324912D01*
Y254464D01*
X315412D01*
Y244964D01*
X317387D01*
X317553Y244133D01*
X318165Y243217D01*
X322648Y238734D01*
X322122Y237464D01*
X320932D01*
Y230214D01*
Y222964D01*
X323912D01*
Y223464D01*
X332075D01*
X332858Y222194D01*
X332564Y220714D01*
X332952Y218763D01*
X334057Y217109D01*
X335621Y216064D01*
X335677Y215567D01*
X335657Y215301D01*
X335569Y214737D01*
X333961Y213663D01*
X333440Y212882D01*
X321488D01*
X315986Y218384D01*
Y222964D01*
X318392D01*
Y230214D01*
Y237464D01*
X315412D01*
Y236964D01*
X270412D01*
Y223464D01*
X284338D01*
Y215384D01*
X272428Y203474D01*
X271701Y203960D01*
X269750Y204348D01*
X267799Y203960D01*
X266145Y202855D01*
X265624Y202074D01*
X264296D01*
X261083Y205287D01*
Y210896D01*
X261083Y211102D01*
Y212166D01*
X261083Y212372D01*
Y221262D01*
X259486D01*
Y232445D01*
X260350Y233154D01*
X262301Y233542D01*
X263955Y234647D01*
X265060Y236301D01*
X265448Y238252D01*
X265060Y240203D01*
X263955Y241857D01*
X262301Y242962D01*
X260350Y243350D01*
X258399Y242962D01*
X256745Y241857D01*
X255640Y240203D01*
X255252Y238252D01*
X255435Y237331D01*
X254665Y236561D01*
X254053Y235645D01*
X253838Y234564D01*
X253838Y234564D01*
Y221262D01*
X252241D01*
Y212372D01*
X252241Y212166D01*
Y211102D01*
X252241Y210896D01*
Y202006D01*
X256376D01*
X259670Y198712D01*
X259184Y197538D01*
X247083D01*
Y199896D01*
X247083Y200102D01*
Y201166D01*
X247083Y201372D01*
Y210262D01*
X245486D01*
Y223714D01*
X245271Y224795D01*
X245211Y224885D01*
Y246542D01*
X245017Y247518D01*
X244464Y248344D01*
X242549Y250260D01*
Y261176D01*
X255249D01*
X255928Y259906D01*
D02*
G37*
G36*
X-3963Y247181D02*
X-4451Y246549D01*
X-115075D01*
X-115489Y247181D01*
X-114809Y248451D01*
X-4548D01*
X-3963Y247181D01*
D02*
G37*
G36*
X-3424Y240181D02*
X-4556Y239049D01*
X-116124D01*
X-116509Y240319D01*
X-116395Y240395D01*
X-115690Y241451D01*
X-3950D01*
X-3424Y240181D01*
D02*
G37*
G36*
X319328Y428888D02*
X318504Y427655D01*
X318116Y425704D01*
X318299Y424783D01*
X315782Y422266D01*
X239854D01*
X239176Y423536D01*
X239660Y424261D01*
X240048Y426212D01*
X239660Y428163D01*
X239176Y428888D01*
X239854Y430158D01*
X318768D01*
X319328Y428888D01*
D02*
G37*
G36*
X229133Y451735D02*
X229133Y451735D01*
X230049Y451123D01*
X229670Y449965D01*
X229000Y450098D01*
X227049Y449710D01*
X225395Y448605D01*
X224290Y446951D01*
X223902Y445000D01*
X224106Y443974D01*
X223026Y442894D01*
X222000Y443098D01*
X220049Y442710D01*
X218395Y441605D01*
X217290Y439951D01*
X216902Y438000D01*
X217290Y436049D01*
X217774Y435324D01*
X217096Y434054D01*
X214940D01*
X209997Y438997D01*
X209081Y439609D01*
X208000Y439824D01*
X208000Y439824D01*
X167126D01*
X166605Y440605D01*
X164951Y441710D01*
X163000Y442098D01*
X161049Y441710D01*
X159395Y440605D01*
X158290Y438951D01*
X157902Y437000D01*
X158290Y435049D01*
X159395Y433395D01*
X161049Y432290D01*
X163000Y431902D01*
X164951Y432290D01*
X166605Y433395D01*
X167126Y434176D01*
X206830D01*
X211773Y429233D01*
X211773Y429233D01*
X212689Y428621D01*
X213770Y428406D01*
X224804D01*
X224804Y428406D01*
X225885Y428621D01*
X226801Y429233D01*
X227726Y430158D01*
X230046D01*
X230724Y428888D01*
X230240Y428163D01*
X229852Y426212D01*
X230240Y424261D01*
X230724Y423536D01*
X230046Y422266D01*
X153728D01*
X150915Y425079D01*
X151098Y426000D01*
X150710Y427951D01*
X149605Y429605D01*
X147951Y430710D01*
X146000Y431098D01*
X144049Y430710D01*
X142395Y429605D01*
X141290Y427951D01*
X140902Y426000D01*
X141290Y424049D01*
X142395Y422395D01*
X144049Y421290D01*
X146000Y420902D01*
X146921Y421085D01*
X149106Y418900D01*
X148620Y417726D01*
X142268D01*
X120997Y438997D01*
X120081Y439609D01*
X119000Y439824D01*
X119000Y439824D01*
X111126D01*
X110605Y440605D01*
X110154Y440906D01*
X110540Y442176D01*
X120830D01*
X127003Y436003D01*
X127003Y436003D01*
X127919Y435391D01*
X129000Y435176D01*
X129000Y435176D01*
X133874D01*
X134395Y434395D01*
X136049Y433290D01*
X138000Y432902D01*
X139951Y433290D01*
X141605Y434395D01*
X142710Y436049D01*
X143098Y438000D01*
X142710Y439951D01*
X141605Y441605D01*
X139951Y442710D01*
X138000Y443098D01*
X136049Y442710D01*
X134395Y441605D01*
X133874Y440824D01*
X130170D01*
X124088Y446906D01*
X124128Y447292D01*
X124519Y448176D01*
X172844D01*
X173902Y447000D01*
X174290Y445049D01*
X175395Y443395D01*
X177049Y442290D01*
X179000Y441902D01*
X180951Y442290D01*
X182605Y443395D01*
X183710Y445049D01*
X184098Y447000D01*
X183710Y448951D01*
X182605Y450605D01*
X180951Y451710D01*
X180157Y451868D01*
X180282Y453138D01*
X227730D01*
X229133Y451735D01*
D02*
G37*
G36*
X456926Y413330D02*
Y367920D01*
X452699Y363693D01*
X452152Y363774D01*
X451507Y365057D01*
X451511Y365153D01*
X451884Y367030D01*
X451496Y368981D01*
X450391Y370635D01*
X448737Y371740D01*
X446786Y372128D01*
X444835Y371740D01*
X443181Y370635D01*
X442660Y369854D01*
X437932D01*
X437524Y371057D01*
X437899Y371345D01*
X439441Y373354D01*
X440410Y375695D01*
X440574Y376936D01*
X431038D01*
X421502D01*
X421666Y375695D01*
X422635Y373354D01*
X424177Y371345D01*
X424552Y371057D01*
X424144Y369854D01*
X387932D01*
X387524Y371057D01*
X387899Y371345D01*
X389441Y373354D01*
X390410Y375695D01*
X390574Y376936D01*
X381038D01*
X370751D01*
X370253Y376691D01*
X366947Y379997D01*
X366031Y380609D01*
X364950Y380824D01*
X364950Y380824D01*
X237170D01*
X234997Y382997D01*
X234081Y383609D01*
X233000Y383824D01*
X233000Y383824D01*
X231126D01*
X230605Y384605D01*
X230154Y384906D01*
X230540Y386176D01*
X371500D01*
X371500Y386176D01*
X372581Y386391D01*
X373497Y387003D01*
X374420Y387926D01*
X376047D01*
X376299Y386656D01*
X376186Y386609D01*
X374177Y385067D01*
X372635Y383058D01*
X371666Y380717D01*
X371502Y379476D01*
X381038D01*
X390574D01*
X390410Y380717D01*
X389441Y383058D01*
X387899Y385067D01*
X385890Y386609D01*
X385777Y386656D01*
X386029Y387926D01*
X413750D01*
X413750Y387926D01*
X414815Y388138D01*
X416000Y387902D01*
X417951Y388290D01*
X419605Y389395D01*
X420710Y391049D01*
X421098Y393000D01*
X420710Y394951D01*
X419605Y396605D01*
X417951Y397710D01*
X416000Y398098D01*
X414049Y397710D01*
X412395Y396605D01*
X411290Y394951D01*
X411016Y393574D01*
X383970D01*
X383717Y394844D01*
X385637Y395640D01*
X387542Y397102D01*
X389004Y399007D01*
X389203Y399487D01*
X422873D01*
X423072Y399007D01*
X424534Y397102D01*
X426439Y395640D01*
X428657Y394721D01*
X431038Y394407D01*
X433419Y394721D01*
X435637Y395640D01*
X437542Y397102D01*
X439004Y399007D01*
X439923Y401225D01*
X440237Y403606D01*
X439923Y405987D01*
X439004Y408205D01*
X437542Y410111D01*
X435637Y411572D01*
X433419Y412491D01*
X431038Y412805D01*
X428657Y412491D01*
X426439Y411572D01*
X424534Y410111D01*
X423072Y408205D01*
X422873Y407725D01*
X389203D01*
X389004Y408205D01*
X387542Y410111D01*
X385637Y411572D01*
X383419Y412491D01*
X383714Y413676D01*
X391624D01*
X392145Y412895D01*
X393799Y411790D01*
X395750Y411402D01*
X397701Y411790D01*
X399355Y412895D01*
X400460Y414549D01*
X400848Y416500D01*
X400460Y418451D01*
X399355Y420105D01*
X397701Y421210D01*
X395750Y421598D01*
X393799Y421210D01*
X392145Y420105D01*
X391624Y419324D01*
X384815D01*
X384562Y420594D01*
X385637Y421040D01*
X387542Y422501D01*
X389004Y424407D01*
X389740Y426182D01*
X422336D01*
X423072Y424407D01*
X424534Y422501D01*
X426439Y421040D01*
X428657Y420121D01*
X431038Y419807D01*
X433419Y420121D01*
X435637Y421040D01*
X437542Y422501D01*
X439004Y424407D01*
X439740Y426182D01*
X444074D01*
X456926Y413330D01*
D02*
G37*
G36*
X424913Y435802D02*
X424534Y435510D01*
X423072Y433605D01*
X422336Y431830D01*
X389740D01*
X389004Y433605D01*
X387542Y435510D01*
X387163Y435802D01*
X387594Y437072D01*
X424482D01*
X424913Y435802D01*
D02*
G37*
G36*
X337451Y940000D02*
X337645Y939025D01*
X338198Y938198D01*
X339025Y937645D01*
X340000Y937451D01*
X517300D01*
X517451Y937451D01*
X517451Y2549D01*
X340000D01*
X339025Y2355D01*
X338198Y1802D01*
X337645Y975D01*
X337451Y0D01*
Y-82451D01*
X250874D01*
Y-46250D01*
Y20010D01*
X250398Y21158D01*
X249250Y21634D01*
X246250D01*
Y22000D01*
X114250D01*
Y-82451D01*
X2549D01*
Y0D01*
X2355Y975D01*
X1802Y1802D01*
X975Y2355D01*
X0Y2549D01*
X-176181D01*
X-177449Y3754D01*
X-177451Y3775D01*
Y232550D01*
X-176181Y233112D01*
X-174951Y232290D01*
X-173000Y231902D01*
X-171049Y232290D01*
X-169395Y233395D01*
X-169024Y233951D01*
X-165866D01*
X-165435Y232681D01*
X-166819Y231619D01*
X-168262Y229739D01*
X-169168Y227549D01*
X-169478Y225200D01*
X-169168Y222850D01*
X-168262Y220661D01*
X-166819Y218781D01*
X-164939Y217339D01*
X-162750Y216432D01*
X-160400Y216122D01*
X-158050Y216432D01*
X-156061Y217256D01*
X-147302Y208498D01*
X-146475Y207945D01*
X-145500Y207751D01*
X-141508D01*
X-141077Y206481D01*
X-141419Y206219D01*
X-142861Y204339D01*
X-143768Y202150D01*
X-144078Y199800D01*
X-143768Y197451D01*
X-142861Y195261D01*
X-141419Y193381D01*
X-139539Y191939D01*
X-137350Y191032D01*
X-135000Y190722D01*
X-132650Y191032D01*
X-130461Y191939D01*
X-128581Y193381D01*
X-127139Y195261D01*
X-126232Y197451D01*
X-125922Y199800D01*
X-126232Y202150D01*
X-127139Y204339D01*
X-128581Y206219D01*
X-128923Y206481D01*
X-128492Y207751D01*
X-122175D01*
X-121830Y207057D01*
X-121687Y206481D01*
X-122710Y204951D01*
X-123098Y203000D01*
X-122710Y201049D01*
X-121605Y199395D01*
X-119951Y198290D01*
X-118000Y197902D01*
X-116974Y198106D01*
X-115894Y197026D01*
X-116098Y196000D01*
X-115710Y194049D01*
X-114605Y192395D01*
X-112951Y191290D01*
X-111000Y190902D01*
X-109049Y191290D01*
X-107395Y192395D01*
X-106690Y193451D01*
X-99000D01*
X-98025Y193645D01*
X-97198Y194198D01*
X-86944Y204451D01*
X2000D01*
X2975Y204645D01*
X3802Y205198D01*
X44976Y246371D01*
X61984D01*
X62689Y245315D01*
X64343Y244210D01*
X66294Y243822D01*
X68245Y244210D01*
X69899Y245315D01*
X71004Y246969D01*
X71392Y248920D01*
X71004Y250871D01*
X70516Y251601D01*
X71195Y252871D01*
X72406D01*
X74579Y250698D01*
X75406Y250145D01*
X76382Y249951D01*
X98790D01*
X100608Y248134D01*
X101434Y247581D01*
X102410Y247387D01*
X105024D01*
X106090Y245791D01*
X107992Y244520D01*
X110236Y244073D01*
X112479Y244520D01*
X114382Y245791D01*
X115652Y247693D01*
X116099Y249936D01*
X115652Y252180D01*
X114382Y254081D01*
X112479Y255352D01*
X110236Y255799D01*
X109300Y255612D01*
X107857Y256611D01*
X107815Y256864D01*
X110260Y259310D01*
X110813Y260137D01*
X111007Y261112D01*
X110813Y262087D01*
X110753Y262177D01*
Y275090D01*
X111809Y275795D01*
X112914Y277449D01*
X113302Y279400D01*
X112914Y281351D01*
X112359Y282181D01*
X113038Y283451D01*
X116550D01*
X117112Y282181D01*
X116290Y280951D01*
X115902Y279000D01*
X116290Y277049D01*
X117395Y275395D01*
X119049Y274290D01*
X121000Y273902D01*
X122951Y274290D01*
X124605Y275395D01*
X125710Y277049D01*
X126098Y279000D01*
X125710Y280951D01*
X124888Y282181D01*
X125450Y283451D01*
X177000D01*
X177976Y283645D01*
X178802Y284198D01*
X189302Y294698D01*
X189855Y295525D01*
X190049Y296500D01*
Y304690D01*
X191105Y305395D01*
X192210Y307049D01*
X192598Y309000D01*
X192276Y310618D01*
X192635Y311110D01*
X192931Y311385D01*
X193278Y311595D01*
X194000Y311451D01*
X205690D01*
X206395Y310395D01*
X208049Y309290D01*
X210000Y308902D01*
X211951Y309290D01*
X213605Y310395D01*
X214656Y311968D01*
X214749Y311981D01*
X215926Y311273D01*
Y274081D01*
X215906Y273980D01*
X215906Y273980D01*
Y93400D01*
X202421Y79915D01*
X201500Y80098D01*
X199549Y79710D01*
X197895Y78605D01*
X196790Y76951D01*
X196402Y75000D01*
X196790Y73049D01*
X197895Y71395D01*
X199549Y70290D01*
X201500Y69902D01*
X203451Y70290D01*
X205105Y71395D01*
X206210Y73049D01*
X206598Y75000D01*
X206415Y75921D01*
X220727Y90233D01*
X221339Y91149D01*
X221554Y92230D01*
Y273899D01*
X221574Y274000D01*
Y276772D01*
X222748Y277258D01*
X237451Y262555D01*
Y249204D01*
X237645Y248228D01*
X238198Y247402D01*
X240113Y245486D01*
Y224885D01*
X240053Y224795D01*
X239838Y223714D01*
Y210262D01*
X238241D01*
Y201372D01*
X238241Y201166D01*
Y200102D01*
X238241Y199896D01*
Y198378D01*
X236448D01*
X235367Y198163D01*
X234451Y197551D01*
X234451Y197551D01*
X231429Y194529D01*
X230817Y193613D01*
X230602Y192532D01*
X230602Y192532D01*
Y101346D01*
X230602Y101346D01*
X230817Y100265D01*
X231429Y99349D01*
X236061Y94717D01*
X236061Y94717D01*
X236977Y94105D01*
X238058Y93890D01*
X238058Y93890D01*
X240262D01*
Y92564D01*
X263062D01*
Y100864D01*
X240262D01*
Y100108D01*
X238992Y99774D01*
X236250Y102516D01*
Y191144D01*
X237070Y191796D01*
X238241Y191283D01*
Y191006D01*
X247083D01*
Y191890D01*
X260072D01*
X261478Y190483D01*
X262395Y189871D01*
X263475Y189656D01*
X265950D01*
X266436Y188482D01*
X249665Y171711D01*
X249053Y170795D01*
X248838Y169714D01*
X248838Y169714D01*
Y138964D01*
X240262D01*
Y130664D01*
X263062D01*
Y138964D01*
X254486D01*
Y168544D01*
X271058Y185116D01*
X282366D01*
X282887Y184335D01*
X284541Y183230D01*
X286492Y182842D01*
X288443Y183230D01*
X290097Y184335D01*
X291202Y185989D01*
X291590Y187940D01*
X291202Y189891D01*
X290715Y190620D01*
X291394Y191890D01*
X293662D01*
X293662Y191890D01*
X294743Y192105D01*
X295659Y192717D01*
X302159Y199217D01*
X302771Y200133D01*
X302986Y201214D01*
X302986Y201214D01*
Y204980D01*
X304256Y205329D01*
X304665Y204717D01*
X317665Y191717D01*
X318581Y191105D01*
X319662Y190890D01*
X319662Y190890D01*
X346734D01*
Y189635D01*
X347950D01*
Y184720D01*
X347169Y184199D01*
X346064Y182545D01*
X345676Y180594D01*
X346064Y178643D01*
X347169Y176989D01*
X348823Y175884D01*
X350774Y175496D01*
X352725Y175884D01*
X354379Y176989D01*
X355484Y178643D01*
X355872Y180594D01*
X355484Y182545D01*
X354379Y184199D01*
X353598Y184720D01*
Y189635D01*
X355830D01*
Y189635D01*
X356894D01*
Y189635D01*
X365990D01*
Y198477D01*
X363991D01*
Y199136D01*
X363797Y200111D01*
X363244Y200938D01*
X359666Y204516D01*
X359510Y204621D01*
X359895Y205891D01*
X365990D01*
Y207763D01*
X370800D01*
X372866Y205698D01*
X373693Y205145D01*
X374668Y204951D01*
X446190D01*
X446895Y203895D01*
X448549Y202790D01*
X450500Y202402D01*
X452451Y202790D01*
X454105Y203895D01*
X455210Y205549D01*
X455598Y207500D01*
X455210Y209451D01*
X454105Y211105D01*
X452451Y212210D01*
X450500Y212598D01*
X448549Y212210D01*
X446895Y211105D01*
X446190Y210049D01*
X437817D01*
X437386Y211319D01*
X438521Y212190D01*
X439982Y214095D01*
X440901Y216313D01*
X441215Y218694D01*
X440901Y221075D01*
X439982Y223293D01*
X438521Y225198D01*
X436615Y226660D01*
X434397Y227579D01*
X432016Y227893D01*
X429635Y227579D01*
X427417Y226660D01*
X425512Y225198D01*
X424108Y223369D01*
X403585D01*
X402701Y223960D01*
X400750Y224348D01*
X398799Y223960D01*
X397915Y223369D01*
X389924D01*
X388521Y225198D01*
X386615Y226660D01*
X384816Y227406D01*
X385068Y228676D01*
X409457D01*
X410145Y227645D01*
X411799Y226540D01*
X413750Y226152D01*
X415701Y226540D01*
X417355Y227645D01*
X418460Y229299D01*
X418848Y231250D01*
X418460Y233201D01*
X417355Y234855D01*
X415701Y235960D01*
X413750Y236348D01*
X411799Y235960D01*
X410145Y234855D01*
X409791Y234324D01*
X385580D01*
X385328Y235594D01*
X386615Y236128D01*
X388521Y237589D01*
X389982Y239495D01*
X390718Y241270D01*
X423314D01*
X424050Y239495D01*
X425512Y237589D01*
X427417Y236128D01*
X429635Y235209D01*
X432016Y234895D01*
X434397Y235209D01*
X436615Y236128D01*
X438521Y237589D01*
X439982Y239495D01*
X440718Y241270D01*
X448094D01*
X448094Y241270D01*
X449175Y241485D01*
X450091Y242097D01*
X460747Y252753D01*
X460747Y252753D01*
X461359Y253669D01*
X461574Y254750D01*
Y328750D01*
X461359Y329831D01*
X460747Y330747D01*
X460747Y330747D01*
X450661Y340833D01*
X449745Y341445D01*
X448664Y341660D01*
X448664Y341660D01*
X231334D01*
X175077Y397917D01*
X174161Y398529D01*
X173080Y398744D01*
X173080Y398744D01*
X126250D01*
X118997Y405997D01*
X118081Y406609D01*
X117000Y406824D01*
X117000Y406824D01*
X111126D01*
X110605Y407605D01*
X108951Y408710D01*
X107000Y409098D01*
X105049Y408710D01*
X104324Y408226D01*
X103054Y408904D01*
Y411799D01*
X103054Y411799D01*
X102839Y412880D01*
X102227Y413797D01*
X102227Y413797D01*
X98709Y417314D01*
Y437107D01*
X101044Y439442D01*
X102220Y438956D01*
X102275Y438877D01*
X101902Y437000D01*
X102290Y435049D01*
X103395Y433395D01*
X105049Y432290D01*
X106469Y432008D01*
X107142Y431140D01*
X107232Y430659D01*
X106902Y428999D01*
X107290Y427048D01*
X108395Y425394D01*
X110049Y424289D01*
X112000Y423901D01*
X113951Y424289D01*
X115604Y425394D01*
X116521Y425485D01*
X134003Y408003D01*
X134919Y407391D01*
X136000Y407176D01*
X136000Y407176D01*
X327737D01*
X328627Y405843D01*
X330281Y404738D01*
X332232Y404350D01*
X334183Y404738D01*
X335837Y405843D01*
X336942Y407497D01*
X337330Y409448D01*
X336942Y411399D01*
X335837Y413053D01*
X334183Y414158D01*
X332232Y414546D01*
X330281Y414158D01*
X328627Y413053D01*
X328475Y412824D01*
X326413D01*
X325886Y414094D01*
X332835Y421043D01*
X333756Y420860D01*
X335707Y421248D01*
X337361Y422353D01*
X338466Y424007D01*
X338854Y425958D01*
X338466Y427909D01*
X338151Y428380D01*
X338830Y429650D01*
X369105D01*
X369105Y429650D01*
X370186Y429865D01*
X370718Y430220D01*
X371841Y429621D01*
X371910Y429541D01*
X371839Y429006D01*
X372153Y426625D01*
X373072Y424407D01*
X374534Y422501D01*
X376439Y421040D01*
X377514Y420594D01*
X377261Y419324D01*
X371542D01*
X370461Y419109D01*
X369545Y418497D01*
X369545Y418497D01*
X349872Y398824D01*
X231126D01*
X230605Y399605D01*
X228951Y400710D01*
X227000Y401098D01*
X225049Y400710D01*
X223395Y399605D01*
X222290Y397951D01*
X221902Y396000D01*
X222065Y395181D01*
X221000Y394098D01*
X219049Y393710D01*
X217395Y392605D01*
X216290Y390951D01*
X215902Y389000D01*
X216290Y387049D01*
X217395Y385395D01*
X219049Y384290D01*
X221000Y383902D01*
X221459Y383993D01*
X222290Y382951D01*
X221902Y381000D01*
X222232Y379341D01*
X222142Y378859D01*
X221469Y377992D01*
X220049Y377710D01*
X218395Y376605D01*
X217290Y374951D01*
X216902Y373000D01*
X217290Y371049D01*
X218395Y369395D01*
X220049Y368290D01*
X222000Y367902D01*
X223951Y368290D01*
X225605Y369395D01*
X226126Y370176D01*
X351000D01*
X363001Y358175D01*
X363917Y357563D01*
X364998Y357348D01*
X364998Y357348D01*
X453172D01*
X453172Y357348D01*
X454253Y357563D01*
X455169Y358175D01*
X461747Y364753D01*
X461747Y364753D01*
X462359Y365669D01*
X462574Y366750D01*
Y414500D01*
X462574Y414500D01*
X462359Y415581D01*
X461747Y416497D01*
X461747Y416497D01*
X447241Y431003D01*
X446325Y431615D01*
X445244Y431830D01*
X445244Y431830D01*
X439740D01*
X439004Y433605D01*
X437542Y435510D01*
X437163Y435802D01*
X437594Y437072D01*
X459614D01*
X460453Y435815D01*
X462107Y434710D01*
X464058Y434322D01*
X466009Y434710D01*
X467663Y435815D01*
X468768Y437469D01*
X469156Y439420D01*
X468768Y441371D01*
X467663Y443025D01*
X466009Y444130D01*
X464058Y444518D01*
X462107Y444130D01*
X460453Y443025D01*
X460250Y442720D01*
X376527D01*
X376527Y442720D01*
X375446Y442505D01*
X374530Y441893D01*
X367935Y435298D01*
X337826D01*
X337387Y435591D01*
X336306Y435806D01*
X336306Y435806D01*
X246810D01*
X246284Y437076D01*
X256051Y446844D01*
X356072D01*
X356313Y446483D01*
X357967Y445378D01*
X359918Y444990D01*
X361869Y445378D01*
X363523Y446483D01*
X364628Y448137D01*
X365016Y450088D01*
X364628Y452039D01*
X363523Y453693D01*
X361869Y454798D01*
X359918Y455186D01*
X357967Y454798D01*
X357254Y454321D01*
X356111Y455085D01*
X356380Y456438D01*
X355992Y458389D01*
X354887Y460043D01*
X353398Y461037D01*
X353177Y461380D01*
X352907Y462508D01*
X353217Y462926D01*
X375074D01*
X375505Y461656D01*
X374534Y460910D01*
X373072Y459005D01*
X372153Y456787D01*
X371839Y454406D01*
X372153Y452025D01*
X373072Y449807D01*
X374534Y447901D01*
X376439Y446440D01*
X378657Y445521D01*
X381038Y445207D01*
X383419Y445521D01*
X385637Y446440D01*
X387542Y447901D01*
X389004Y449807D01*
X389740Y451582D01*
X422336D01*
X423072Y449807D01*
X424534Y447901D01*
X426439Y446440D01*
X428657Y445521D01*
X431038Y445207D01*
X433419Y445521D01*
X435637Y446440D01*
X437542Y447901D01*
X439004Y449807D01*
X439740Y451582D01*
X442914D01*
X443435Y450801D01*
X445089Y449696D01*
X447040Y449308D01*
X448991Y449696D01*
X450645Y450801D01*
X451166Y451582D01*
X475171D01*
X476201Y450039D01*
X477855Y448934D01*
X479806Y448546D01*
X481757Y448934D01*
X483411Y450039D01*
X484516Y451693D01*
X484904Y453644D01*
X484516Y455595D01*
X483411Y457249D01*
X481757Y458354D01*
X479806Y458742D01*
X477855Y458354D01*
X476201Y457249D01*
X476189Y457230D01*
X451166D01*
X450645Y458011D01*
X448991Y459116D01*
X447040Y459504D01*
X445089Y459116D01*
X443435Y458011D01*
X442914Y457230D01*
X439740D01*
X439004Y459005D01*
X437542Y460910D01*
X435637Y462372D01*
X433419Y463291D01*
X431038Y463605D01*
X428657Y463291D01*
X426439Y462372D01*
X424534Y460910D01*
X423072Y459005D01*
X422336Y457230D01*
X389740D01*
X389004Y459005D01*
X387542Y460910D01*
X386571Y461656D01*
X387002Y462926D01*
X399874D01*
X400395Y462145D01*
X402049Y461040D01*
X404000Y460652D01*
X405951Y461040D01*
X407605Y462145D01*
X408710Y463799D01*
X409098Y465750D01*
X408710Y467701D01*
X407605Y469355D01*
X405951Y470460D01*
X404000Y470848D01*
X402049Y470460D01*
X400395Y469355D01*
X399874Y468574D01*
X351020D01*
X349939Y468359D01*
X349023Y467747D01*
X349023Y467747D01*
X345078Y463802D01*
X249871D01*
X248790Y463587D01*
X247874Y462975D01*
X247874Y462975D01*
X241455Y456556D01*
X238838D01*
X238160Y457826D01*
X238644Y458551D01*
X239032Y460502D01*
X238644Y462453D01*
X237539Y464107D01*
X235885Y465212D01*
X233934Y465600D01*
X231983Y465212D01*
X230329Y464107D01*
X229808Y463326D01*
X166823D01*
X165959Y464303D01*
X166098Y465000D01*
X165710Y466951D01*
X164605Y468605D01*
X162951Y469710D01*
X161000Y470098D01*
X159049Y469710D01*
X157395Y468605D01*
X156290Y466951D01*
X155902Y465000D01*
X156223Y463387D01*
X155331Y462611D01*
X155194Y462548D01*
X154951Y462710D01*
X153000Y463098D01*
X151049Y462710D01*
X149395Y461605D01*
X148290Y459951D01*
X147902Y458000D01*
X148290Y456049D01*
X148928Y455094D01*
X148249Y453824D01*
X125540D01*
X125154Y455094D01*
X125605Y455395D01*
X126710Y457049D01*
X127098Y459000D01*
X126777Y460612D01*
X127669Y461390D01*
X127807Y461452D01*
X128049Y461290D01*
X130000Y460902D01*
X131951Y461290D01*
X133605Y462395D01*
X134710Y464049D01*
X135098Y466000D01*
X134710Y467951D01*
X133605Y469605D01*
X131951Y470710D01*
X130000Y471098D01*
X128049Y470710D01*
X126395Y469605D01*
X125874Y468824D01*
X39170D01*
X9997Y497997D01*
X9081Y498609D01*
X8000Y498824D01*
X8000Y498824D01*
X4995D01*
X3914Y498609D01*
X3772Y498514D01*
X-67320D01*
X-77742Y508936D01*
X-77032Y510650D01*
X-76722Y513000D01*
X-77032Y515350D01*
X-77939Y517539D01*
X-79381Y519419D01*
X-81261Y520861D01*
X-83450Y521768D01*
X-85800Y522078D01*
X-88149Y521768D01*
X-90339Y520861D01*
X-92219Y519419D01*
X-93661Y517539D01*
X-94568Y515350D01*
X-94878Y513000D01*
X-94568Y510650D01*
X-93661Y508461D01*
X-92219Y506581D01*
X-90339Y505139D01*
X-88149Y504232D01*
X-85800Y503922D01*
X-83450Y504232D01*
X-81736Y504942D01*
X-70487Y493693D01*
X-69571Y493081D01*
X-69764Y491824D01*
X-86030D01*
X-103142Y508936D01*
X-102432Y510650D01*
X-102122Y513000D01*
X-102432Y515350D01*
X-103339Y517539D01*
X-104781Y519419D01*
X-106661Y520861D01*
X-108850Y521768D01*
X-111200Y522078D01*
X-113549Y521768D01*
X-115739Y520861D01*
X-117619Y519419D01*
X-119061Y517539D01*
X-119968Y515350D01*
X-120278Y513000D01*
X-119968Y510650D01*
X-119061Y508461D01*
X-117619Y506581D01*
X-115739Y505139D01*
X-113549Y504232D01*
X-111200Y503922D01*
X-108850Y504232D01*
X-107136Y504942D01*
X-89197Y487003D01*
X-89197Y487003D01*
X-88281Y486391D01*
X-87200Y486176D01*
X-87200Y486176D01*
X3815D01*
X3864Y486094D01*
X3144Y484824D01*
X-158588D01*
X-158588Y484824D01*
X-159669Y484609D01*
X-160585Y483997D01*
X-167227Y477355D01*
X-168148Y477538D01*
X-170099Y477150D01*
X-171753Y476045D01*
X-172858Y474391D01*
X-173246Y472440D01*
X-172858Y470489D01*
X-171753Y468835D01*
X-170099Y467730D01*
X-168148Y467342D01*
X-166197Y467730D01*
X-164543Y468835D01*
X-163438Y470489D01*
X-163050Y472440D01*
X-163233Y473361D01*
X-157418Y479176D01*
X-127896D01*
X-127333Y477906D01*
X-128154Y476677D01*
X-128542Y474726D01*
X-128154Y472775D01*
X-127049Y471121D01*
X-125395Y470016D01*
X-123444Y469628D01*
X-121493Y470016D01*
X-119839Y471121D01*
X-119318Y471902D01*
X-72368D01*
X-71677Y470867D01*
X-70023Y469762D01*
X-68072Y469374D01*
X-66121Y469762D01*
X-64467Y470867D01*
X-63362Y472521D01*
X-62974Y474472D01*
X-63362Y476423D01*
X-64353Y477906D01*
X-64000Y479176D01*
X2830D01*
X28253Y453753D01*
X28253Y453753D01*
X29169Y453141D01*
X30250Y452926D01*
X46141D01*
X46798Y451656D01*
X46428Y451134D01*
X4618D01*
X-5082Y460834D01*
X-4867Y461353D01*
X-4545Y463800D01*
X-4867Y466247D01*
X-5812Y468527D01*
X-7314Y470486D01*
X-9273Y471988D01*
X-11553Y472933D01*
X-14000Y473255D01*
X-16447Y472933D01*
X-18727Y471988D01*
X-20686Y470486D01*
X-22188Y468527D01*
X-23133Y466247D01*
X-23455Y463800D01*
X-23133Y461353D01*
X-22188Y459073D01*
X-20686Y457114D01*
X-18727Y455612D01*
X-16447Y454667D01*
X-14000Y454345D01*
X-11553Y454667D01*
X-9273Y455612D01*
X-8466Y456230D01*
X1451Y446313D01*
X1451Y446313D01*
X2367Y445701D01*
X3448Y445486D01*
X38513D01*
X39232Y444216D01*
X39116Y444022D01*
X-2286D01*
X-2286Y444022D01*
X-3367Y443807D01*
X-4283Y443195D01*
X-15947Y431531D01*
X-16559Y430615D01*
X-16774Y429534D01*
X-16774Y429534D01*
Y423997D01*
X-18727Y423188D01*
X-20686Y421686D01*
X-22188Y419728D01*
X-23133Y417447D01*
X-23455Y415000D01*
X-23133Y412553D01*
X-22188Y410273D01*
X-20686Y408314D01*
X-18727Y406812D01*
X-16447Y405867D01*
X-14000Y405545D01*
X-11553Y405867D01*
X-9273Y406812D01*
X-7314Y408314D01*
X-5812Y410273D01*
X-4867Y412553D01*
X-4545Y415000D01*
X-4867Y417447D01*
X-5812Y419728D01*
X-7314Y421686D01*
X-9273Y423188D01*
X-11126Y423956D01*
Y428364D01*
X-1116Y438374D01*
X40324D01*
X40845Y437593D01*
X42499Y436488D01*
X44450Y436100D01*
X46401Y436488D01*
X48055Y437593D01*
X49160Y439247D01*
X49548Y441198D01*
X49327Y442311D01*
X50407Y443391D01*
X51308Y443212D01*
X53259Y443600D01*
X54913Y444705D01*
X56018Y446359D01*
X56406Y448310D01*
X56018Y450261D01*
X55086Y451656D01*
X55512Y452926D01*
X63080D01*
X67003Y449003D01*
X67919Y448391D01*
X69000Y448176D01*
X69000Y448176D01*
X100089D01*
X100480Y447292D01*
X100520Y446906D01*
X93888Y440274D01*
X93276Y439358D01*
X93061Y438277D01*
X93061Y438277D01*
Y416144D01*
X93061Y416144D01*
X93276Y415064D01*
X93888Y414147D01*
X95868Y412167D01*
X95217Y411183D01*
X95119Y411120D01*
X93218Y411498D01*
X91267Y411110D01*
X89613Y410005D01*
X88508Y408351D01*
X88120Y406400D01*
X88508Y404449D01*
X89613Y402795D01*
X89959Y402564D01*
X90063Y401143D01*
X84358Y395438D01*
X79532D01*
Y399364D01*
X70532D01*
Y385864D01*
X79532D01*
Y389790D01*
X85528D01*
X85528Y389790D01*
X86609Y390005D01*
X87525Y390617D01*
X95215Y398307D01*
X95215Y398307D01*
X95827Y399223D01*
X96042Y400304D01*
X96042Y400304D01*
Y400946D01*
X96136Y401002D01*
X97406Y400283D01*
Y397818D01*
X66648Y367060D01*
X55191D01*
X54288Y367826D01*
X54042Y368205D01*
X53695Y369951D01*
X52590Y371605D01*
X50936Y372710D01*
X48985Y373098D01*
X47034Y372710D01*
X45380Y371605D01*
X44275Y369951D01*
X43928Y368205D01*
X43682Y367826D01*
X42779Y367060D01*
X40960D01*
Y369316D01*
X35710D01*
Y371856D01*
X40960D01*
Y375825D01*
X40960Y375836D01*
X40987Y377095D01*
X45942D01*
Y380746D01*
X40894D01*
Y382016D01*
X39624D01*
Y386937D01*
X35846D01*
X34783Y386437D01*
X34576Y386437D01*
X26186D01*
Y384840D01*
X23344D01*
Y386691D01*
X14248D01*
Y386691D01*
X13184D01*
X12741Y387010D01*
X12533Y388523D01*
X16081Y392071D01*
X16693Y392987D01*
X16908Y394068D01*
X16908Y394068D01*
Y401490D01*
X23084D01*
Y407635D01*
X24257Y408120D01*
X26959Y405419D01*
X26959Y405419D01*
X27875Y404807D01*
X28956Y404592D01*
X32104D01*
X34260Y402436D01*
Y400490D01*
X28084D01*
Y391990D01*
X46084D01*
Y400490D01*
X39908D01*
Y403606D01*
X39908Y403606D01*
X39693Y404687D01*
X39081Y405603D01*
X35271Y409413D01*
X34812Y409720D01*
X35197Y410990D01*
X46084D01*
Y412416D01*
X61032D01*
Y408864D01*
X70032D01*
Y422364D01*
X61032D01*
Y418064D01*
X46084D01*
Y419490D01*
X39908D01*
Y420370D01*
X39693Y421451D01*
X39081Y422367D01*
X39081Y422367D01*
X36884Y424564D01*
X37314Y425601D01*
X37314D01*
Y434443D01*
X28218D01*
Y434443D01*
X27154D01*
Y434443D01*
X18058D01*
Y432846D01*
X15641D01*
X15289Y433373D01*
X13635Y434478D01*
X11684Y434866D01*
X9733Y434478D01*
X8079Y433373D01*
X6974Y431719D01*
X6586Y429768D01*
X6974Y427817D01*
X8079Y426163D01*
X9733Y425058D01*
X11684Y424670D01*
X13635Y425058D01*
X15289Y426163D01*
X15980Y427198D01*
X18058D01*
Y425601D01*
X19782D01*
Y413766D01*
X19782Y413766D01*
X19997Y412685D01*
X20609Y411769D01*
X21215Y411163D01*
X20728Y409990D01*
X5084D01*
Y402485D01*
X5084Y401490D01*
X3988Y401070D01*
X3383Y400950D01*
X1729Y399845D01*
X624Y398191D01*
X236Y396240D01*
X419Y395319D01*
X-3775Y391125D01*
X-4387Y390209D01*
X-4602Y389128D01*
X-4602Y389128D01*
Y378460D01*
X-4602Y378460D01*
X-4387Y377379D01*
X-3775Y376463D01*
X4099Y368589D01*
X4099Y368589D01*
X4486Y368330D01*
X4482Y367868D01*
X4101Y367060D01*
X-92000D01*
X-92882Y368382D01*
X-94784Y369652D01*
X-97028Y370099D01*
X-99271Y369652D01*
X-101173Y368382D01*
X-102444Y366479D01*
X-102891Y364236D01*
X-102444Y361992D01*
X-101655Y360810D01*
X-102333Y359540D01*
X-110296D01*
X-117503Y366747D01*
X-118419Y367359D01*
X-119500Y367574D01*
X-119500Y367574D01*
X-132482D01*
X-132650Y368832D01*
X-130461Y369739D01*
X-128581Y371181D01*
X-127139Y373061D01*
X-126232Y375251D01*
X-125922Y377600D01*
X-126232Y379949D01*
X-127139Y382139D01*
X-128581Y384019D01*
X-130461Y385462D01*
X-132650Y386368D01*
X-135000Y386678D01*
X-137350Y386368D01*
X-139539Y385462D01*
X-141419Y384019D01*
X-142861Y382139D01*
X-143768Y379949D01*
X-144078Y377600D01*
X-143768Y375251D01*
X-142861Y373061D01*
X-141419Y371181D01*
X-139539Y369739D01*
X-137350Y368832D01*
X-137518Y367574D01*
X-147850D01*
X-148931Y367359D01*
X-149847Y366747D01*
X-149847Y366747D01*
X-156336Y360258D01*
X-158050Y360968D01*
X-160400Y361278D01*
X-162750Y360968D01*
X-164939Y360061D01*
X-166819Y358619D01*
X-168262Y356739D01*
X-169168Y354549D01*
X-169478Y352200D01*
X-169168Y349851D01*
X-168262Y347661D01*
X-166819Y345781D01*
X-164939Y344339D01*
X-162750Y343432D01*
X-160400Y343122D01*
X-158050Y343432D01*
X-155861Y344339D01*
X-153981Y345781D01*
X-152539Y347661D01*
X-151632Y349851D01*
X-151322Y352200D01*
X-151632Y354549D01*
X-152342Y356264D01*
X-146680Y361926D01*
X-138357D01*
X-138104Y360656D01*
X-139539Y360061D01*
X-141419Y358619D01*
X-142861Y356739D01*
X-143768Y354549D01*
X-144078Y352200D01*
X-143768Y349851D01*
X-142861Y347661D01*
X-141419Y345781D01*
X-139539Y344339D01*
X-137350Y343432D01*
X-135000Y343122D01*
X-132650Y343432D01*
X-130461Y344339D01*
X-128581Y345781D01*
X-127139Y347661D01*
X-126232Y349851D01*
X-125922Y352200D01*
X-126232Y354549D01*
X-127139Y356739D01*
X-128581Y358619D01*
X-130461Y360061D01*
X-131896Y360656D01*
X-131643Y361926D01*
X-120670D01*
X-113463Y354719D01*
X-113463Y354719D01*
X-112547Y354107D01*
X-111466Y353892D01*
X-93913D01*
X-93913Y353892D01*
X-92832Y354107D01*
X-91916Y354719D01*
X-91709Y354926D01*
X42070D01*
X42303Y354693D01*
X42303Y354693D01*
X43219Y354081D01*
X44300Y353866D01*
X53670D01*
X53670Y353866D01*
X54751Y354081D01*
X55667Y354693D01*
X55900Y354926D01*
X180330D01*
X193952Y341304D01*
X193468Y339992D01*
X192049Y339710D01*
X190395Y338605D01*
X189290Y336951D01*
X188902Y335000D01*
X189150Y333755D01*
X186944Y331549D01*
X152272D01*
X151297Y331355D01*
X150470Y330802D01*
X135216Y315549D01*
X87000D01*
X86025Y315355D01*
X85198Y314802D01*
X70944Y300549D01*
X23000D01*
X22025Y300355D01*
X21198Y299802D01*
X-6056Y272549D01*
X-106944D01*
X-111451Y277056D01*
Y305000D01*
X-111645Y305975D01*
X-112198Y306802D01*
X-119126Y313731D01*
X-118584Y314985D01*
X-117049Y315290D01*
X-115395Y316395D01*
X-115002Y316983D01*
X52586D01*
X53291Y315927D01*
X54945Y314822D01*
X56896Y314434D01*
X58847Y314822D01*
X60501Y315927D01*
X61206Y316983D01*
X122532D01*
X123507Y317177D01*
X124334Y317730D01*
X126755Y320150D01*
X128000Y319902D01*
X129951Y320290D01*
X131605Y321395D01*
X132710Y323049D01*
X133098Y325000D01*
X132710Y326951D01*
X131605Y328605D01*
X129951Y329710D01*
X128000Y330098D01*
X126049Y329710D01*
X124395Y328605D01*
X123290Y326951D01*
X122902Y325000D01*
X123150Y323755D01*
X121476Y322081D01*
X61206D01*
X60501Y323137D01*
X58847Y324242D01*
X56896Y324630D01*
X54945Y324242D01*
X53291Y323137D01*
X52586Y322081D01*
X-114377D01*
X-115395Y323605D01*
X-117049Y324710D01*
X-119000Y325098D01*
X-120951Y324710D01*
X-122605Y323605D01*
X-123710Y321951D01*
X-124098Y320000D01*
X-123854Y318774D01*
X-123857Y318749D01*
X-124776Y317563D01*
X-124807Y317549D01*
X-130497D01*
X-130750Y318819D01*
X-130461Y318939D01*
X-128581Y320381D01*
X-127139Y322261D01*
X-126232Y324450D01*
X-125922Y326800D01*
X-126232Y329150D01*
X-127139Y331339D01*
X-128581Y333219D01*
X-130461Y334661D01*
X-132650Y335568D01*
X-135000Y335878D01*
X-137350Y335568D01*
X-139539Y334661D01*
X-141419Y333219D01*
X-142861Y331339D01*
X-143768Y329150D01*
X-144078Y326800D01*
X-143768Y324450D01*
X-142861Y322261D01*
X-141419Y320381D01*
X-139539Y318939D01*
X-139250Y318819D01*
X-139503Y317549D01*
X-143690D01*
X-144395Y318605D01*
X-146049Y319710D01*
X-148000Y320098D01*
X-149951Y319710D01*
X-151605Y318605D01*
X-152710Y316951D01*
X-153098Y315000D01*
X-152710Y313049D01*
X-151605Y311395D01*
X-149951Y310290D01*
X-148000Y309902D01*
X-146049Y310290D01*
X-144395Y311395D01*
X-143690Y312451D01*
X-125056D01*
X-116549Y303944D01*
Y284950D01*
X-117819Y284424D01*
X-123198Y289802D01*
X-124025Y290355D01*
X-125000Y290549D01*
X-148400D01*
X-149375Y290355D01*
X-150202Y289802D01*
X-156061Y283944D01*
X-158050Y284768D01*
X-160400Y285078D01*
X-162750Y284768D01*
X-164939Y283862D01*
X-166819Y282419D01*
X-168262Y280539D01*
X-169168Y278349D01*
X-169478Y276000D01*
X-169168Y273650D01*
X-168262Y271461D01*
X-166819Y269581D01*
X-164939Y268139D01*
X-162750Y267232D01*
X-160400Y266922D01*
X-158050Y267232D01*
X-155861Y268139D01*
X-153981Y269581D01*
X-152539Y271461D01*
X-151632Y273650D01*
X-151322Y276000D01*
X-151632Y278349D01*
X-152456Y280339D01*
X-147344Y285451D01*
X-139020D01*
X-138767Y284181D01*
X-139539Y283862D01*
X-141419Y282419D01*
X-142861Y280539D01*
X-143768Y278349D01*
X-144078Y276000D01*
X-143768Y273650D01*
X-142861Y271461D01*
X-141419Y269581D01*
X-139539Y268139D01*
X-137350Y267232D01*
X-135000Y266922D01*
X-132650Y267232D01*
X-130461Y268139D01*
X-128581Y269581D01*
X-127139Y271461D01*
X-126232Y273650D01*
X-125922Y276000D01*
X-126232Y278349D01*
X-127139Y280539D01*
X-128581Y282419D01*
X-130461Y283862D01*
X-131233Y284181D01*
X-130980Y285451D01*
X-126056D01*
X-121549Y280944D01*
Y272000D01*
X-121355Y271024D01*
X-120802Y270198D01*
X-112802Y262198D01*
X-111975Y261645D01*
X-111000Y261451D01*
X-5548D01*
X-4963Y260181D01*
X-5451Y259549D01*
X-114944D01*
X-118298Y262902D01*
X-119125Y263455D01*
X-120100Y263649D01*
X-149900D01*
X-150876Y263455D01*
X-151702Y262902D01*
X-156061Y258544D01*
X-158050Y259368D01*
X-160400Y259678D01*
X-162750Y259368D01*
X-164939Y258461D01*
X-166819Y257019D01*
X-168262Y255139D01*
X-169168Y252950D01*
X-169478Y250600D01*
X-169168Y248251D01*
X-168262Y246061D01*
X-166819Y244181D01*
X-164939Y242739D01*
X-162750Y241832D01*
X-160400Y241522D01*
X-158050Y241832D01*
X-155861Y242739D01*
X-153981Y244181D01*
X-152539Y246061D01*
X-151632Y248251D01*
X-151322Y250600D01*
X-151632Y252950D01*
X-152456Y254939D01*
X-148844Y258551D01*
X-141508D01*
X-141077Y257281D01*
X-141419Y257019D01*
X-142861Y255139D01*
X-143768Y252950D01*
X-144078Y250600D01*
X-143768Y248251D01*
X-142861Y246061D01*
X-141419Y244181D01*
X-139539Y242739D01*
X-137350Y241832D01*
X-135000Y241522D01*
X-132650Y241832D01*
X-130461Y242739D01*
X-128581Y244181D01*
X-127139Y246061D01*
X-126232Y248251D01*
X-126205Y248451D01*
X-124450D01*
X-123888Y247181D01*
X-124710Y245951D01*
X-125098Y244000D01*
X-124710Y242049D01*
X-123605Y240395D01*
X-123491Y240319D01*
X-123876Y239049D01*
X-168356D01*
X-169395Y240605D01*
X-171049Y241710D01*
X-173000Y242098D01*
X-174951Y241710D01*
X-176181Y240888D01*
X-177451Y241450D01*
X-177451Y841960D01*
X-170044D01*
Y857865D01*
X-168791Y858072D01*
X-168682Y857750D01*
X-165696Y851695D01*
X-161945Y846082D01*
X-157494Y841006D01*
X-152418Y836555D01*
X-146805Y832804D01*
X-140750Y829818D01*
X-134358Y827648D01*
X-127736Y826331D01*
X-121000Y825890D01*
X-114263Y826331D01*
X-107642Y827648D01*
X-101249Y829818D01*
X-95195Y832804D01*
X-89581Y836555D01*
X-84506Y841006D01*
X-80055Y846082D01*
X-76304Y851695D01*
X-73318Y857750D01*
X-71148Y864142D01*
X-69831Y870764D01*
X-69389Y877500D01*
X-69831Y884237D01*
X-71148Y890858D01*
X-73318Y897251D01*
X-76304Y903305D01*
X-80055Y908919D01*
X-84506Y913994D01*
X-89581Y918446D01*
X-95195Y922196D01*
X-101249Y925182D01*
X-107642Y927352D01*
X-114263Y928669D01*
X-121000Y929111D01*
X-127736Y928669D01*
X-134358Y927352D01*
X-140750Y925182D01*
X-146805Y922196D01*
X-152418Y918446D01*
X-157494Y913994D01*
X-161945Y908919D01*
X-165696Y903305D01*
X-168682Y897251D01*
X-168791Y896928D01*
X-170044Y897135D01*
Y937451D01*
X0Y937451D01*
X975Y937645D01*
X1802Y938198D01*
X2355Y939025D01*
X2549Y940000D01*
Y1022451D01*
X106000D01*
Y918250D01*
X238000D01*
Y918616D01*
X241000D01*
X242148Y919092D01*
X242624Y920240D01*
Y987000D01*
Y1022451D01*
X337451D01*
Y940000D01*
D02*
G37*
%LPC*%
G36*
X357632Y280840D02*
Y276860D01*
X361612D01*
Y280840D01*
X357632D01*
D02*
G37*
G36*
X361612Y274320D02*
X357632D01*
Y270340D01*
X361612D01*
Y274320D01*
D02*
G37*
G36*
X364862Y251324D02*
X357632D01*
Y244094D01*
X364862D01*
Y251324D01*
D02*
G37*
G36*
Y241554D02*
X357632D01*
Y234324D01*
X364862D01*
Y241554D01*
D02*
G37*
G36*
X355092D02*
X347862D01*
Y234324D01*
X355092D01*
Y241554D01*
D02*
G37*
G36*
X432016Y304093D02*
X429635Y303779D01*
X427417Y302860D01*
X425512Y301399D01*
X424050Y299493D01*
X423314Y297718D01*
X390718D01*
X389982Y299493D01*
X388521Y301399D01*
X386615Y302860D01*
X384397Y303779D01*
X382016Y304093D01*
X379635Y303779D01*
X377417Y302860D01*
X375512Y301399D01*
X374050Y299493D01*
X373131Y297275D01*
X372817Y294894D01*
X373131Y292513D01*
X374050Y290295D01*
X375512Y288389D01*
X377417Y286928D01*
X379635Y286009D01*
X382016Y285695D01*
X384397Y286009D01*
X386615Y286928D01*
X388521Y288389D01*
X389982Y290295D01*
X390718Y292070D01*
X423314D01*
X424050Y290295D01*
X425512Y288389D01*
X427417Y286928D01*
X429635Y286009D01*
X432016Y285695D01*
X434397Y286009D01*
X436615Y286928D01*
X438521Y288389D01*
X439982Y290295D01*
X440901Y292513D01*
X441215Y294894D01*
X440901Y297275D01*
X439982Y299493D01*
X438521Y301399D01*
X436615Y302860D01*
X434397Y303779D01*
X432016Y304093D01*
D02*
G37*
G36*
X429768Y387742D02*
X428527Y387578D01*
X426186Y386609D01*
X424177Y385067D01*
X422635Y383058D01*
X421666Y380717D01*
X421502Y379476D01*
X429768D01*
Y387742D01*
D02*
G37*
G36*
X432308Y387742D02*
Y379476D01*
X440574D01*
X440410Y380717D01*
X439441Y383058D01*
X437899Y385067D01*
X435890Y386609D01*
X433549Y387578D01*
X432308Y387742D01*
D02*
G37*
G36*
X251714Y475488D02*
X243484D01*
Y467258D01*
X251714D01*
Y475488D01*
D02*
G37*
G36*
X-14986Y446804D02*
X-16937Y446416D01*
X-18591Y445311D01*
X-19112Y444530D01*
X-57257D01*
X-57609Y445057D01*
X-59263Y446162D01*
X-61214Y446550D01*
X-63165Y446162D01*
X-64819Y445057D01*
X-65924Y443403D01*
X-66312Y441452D01*
X-65924Y439501D01*
X-64819Y437847D01*
X-63165Y436742D01*
X-61214Y436354D01*
X-59263Y436742D01*
X-57609Y437847D01*
X-56918Y438882D01*
X-19112D01*
X-18591Y438101D01*
X-16937Y436996D01*
X-14986Y436608D01*
X-13035Y436996D01*
X-11381Y438101D01*
X-10276Y439755D01*
X-9888Y441706D01*
X-10276Y443657D01*
X-11381Y445311D01*
X-13035Y446416D01*
X-14986Y446804D01*
D02*
G37*
G36*
X432016Y202493D02*
X429635Y202179D01*
X427417Y201260D01*
X425512Y199799D01*
X424607Y198619D01*
X403585D01*
X402701Y199210D01*
X400750Y199598D01*
X398799Y199210D01*
X397915Y198619D01*
X389425D01*
X388521Y199799D01*
X386615Y201260D01*
X384397Y202179D01*
X382016Y202493D01*
X379635Y202179D01*
X377417Y201260D01*
X375512Y199799D01*
X374050Y197893D01*
X373131Y195675D01*
X372817Y193294D01*
X373131Y190913D01*
X374050Y188695D01*
X375512Y186789D01*
X377417Y185328D01*
X379635Y184409D01*
X380125Y184344D01*
X380042Y183074D01*
X365416D01*
X364335Y182859D01*
X363419Y182247D01*
X363419Y182247D01*
X358175Y177003D01*
X357563Y176087D01*
X357348Y175006D01*
X357348Y175006D01*
Y171045D01*
X355830D01*
X355624Y171045D01*
X354560D01*
X354354Y171045D01*
X345464D01*
Y169448D01*
X344170D01*
X344170Y169448D01*
X343089Y169233D01*
X342173Y168621D01*
X342173Y168621D01*
X339125Y165573D01*
X338513Y164657D01*
X338298Y163576D01*
X338298Y163576D01*
Y152300D01*
X336536Y150538D01*
X280662D01*
X280662Y150538D01*
X279581Y150323D01*
X278665Y149711D01*
X273665Y144711D01*
X273053Y143795D01*
X272838Y142714D01*
X272838Y142714D01*
Y126884D01*
X270892Y124938D01*
X263062D01*
Y126264D01*
X240262D01*
Y117964D01*
X263062D01*
Y119290D01*
X272062D01*
X272062Y119290D01*
X273143Y119505D01*
X274059Y120117D01*
X277568Y123626D01*
X277954Y123586D01*
X278838Y123195D01*
Y115884D01*
X275192Y112238D01*
X263062D01*
Y113564D01*
X240262D01*
Y105264D01*
X263062D01*
Y106590D01*
X276362D01*
X276362Y106590D01*
X277443Y106805D01*
X278359Y107417D01*
X283659Y112717D01*
X283659Y112717D01*
X284271Y113633D01*
X284486Y114714D01*
Y137544D01*
X285832Y138890D01*
X289762D01*
Y136084D01*
X313562D01*
Y138890D01*
X333756D01*
X333756Y138890D01*
X333847Y138908D01*
X345464D01*
Y137311D01*
X354354D01*
X354560Y137311D01*
X355624D01*
X355830Y137311D01*
X364720D01*
Y146153D01*
X362996D01*
Y162203D01*
X364720D01*
Y171045D01*
X362996D01*
Y173836D01*
X366586Y177426D01*
X376634D01*
X376906Y176847D01*
X376980Y176156D01*
X375155Y174755D01*
X373613Y172745D01*
X372644Y170405D01*
X372480Y169164D01*
X382016D01*
X391552D01*
X391388Y170405D01*
X390419Y172745D01*
X388877Y174755D01*
X387052Y176156D01*
X387126Y176847D01*
X387398Y177426D01*
X409624D01*
X410145Y176645D01*
X411799Y175540D01*
X413750Y175152D01*
X415701Y175540D01*
X417355Y176645D01*
X418460Y178299D01*
X418848Y180250D01*
X418460Y182201D01*
X417355Y183855D01*
X415701Y184960D01*
X413750Y185348D01*
X411799Y184960D01*
X410145Y183855D01*
X409624Y183074D01*
X383990D01*
X383907Y184344D01*
X384397Y184409D01*
X386615Y185328D01*
X388521Y186789D01*
X389982Y188695D01*
X390681Y190381D01*
X397915D01*
X398799Y189790D01*
X400750Y189402D01*
X402701Y189790D01*
X403585Y190381D01*
X423351D01*
X424050Y188695D01*
X425512Y186789D01*
X427417Y185328D01*
X429635Y184409D01*
X432016Y184095D01*
X434397Y184409D01*
X436615Y185328D01*
X438521Y186789D01*
X439982Y188695D01*
X440901Y190913D01*
X441215Y193294D01*
X440901Y195675D01*
X439982Y197893D01*
X438521Y199799D01*
X436615Y201260D01*
X434397Y202179D01*
X432016Y202493D01*
D02*
G37*
G36*
X-13476Y511974D02*
X-15427Y511586D01*
X-17081Y510481D01*
X-18186Y508827D01*
X-18574Y506876D01*
X-18186Y504925D01*
X-17081Y503271D01*
X-15427Y502166D01*
X-13476Y501778D01*
X-11525Y502166D01*
X-9871Y503271D01*
X-8766Y504925D01*
X-8378Y506876D01*
X-8766Y508827D01*
X-9871Y510481D01*
X-11525Y511586D01*
X-13476Y511974D01*
D02*
G37*
G36*
X150500Y202598D02*
X148549Y202210D01*
X146895Y201105D01*
X145790Y199451D01*
X145402Y197500D01*
X145790Y195549D01*
X146895Y193895D01*
X148549Y192790D01*
X150500Y192402D01*
X152451Y192790D01*
X154105Y193895D01*
X155210Y195549D01*
X155598Y197500D01*
X155210Y199451D01*
X154105Y201105D01*
X152451Y202210D01*
X150500Y202598D01*
D02*
G37*
G36*
X-40000Y203098D02*
X-41951Y202710D01*
X-42835Y202119D01*
X-77000D01*
X-78576Y201806D01*
X-79913Y200913D01*
X-114706Y166119D01*
X-128921D01*
X-129353Y167389D01*
X-128581Y167981D01*
X-127139Y169861D01*
X-126232Y172050D01*
X-125922Y174400D01*
X-126232Y176749D01*
X-127139Y178939D01*
X-128581Y180819D01*
X-130461Y182262D01*
X-132650Y183168D01*
X-135000Y183478D01*
X-137350Y183168D01*
X-139539Y182262D01*
X-141419Y180819D01*
X-142861Y178939D01*
X-143768Y176749D01*
X-144078Y174400D01*
X-143768Y172050D01*
X-142861Y169861D01*
X-141419Y167981D01*
X-140647Y167389D01*
X-141079Y166119D01*
X-147400D01*
X-148976Y165806D01*
X-150313Y164913D01*
X-157631Y157594D01*
X-158050Y157768D01*
X-160400Y158078D01*
X-162750Y157768D01*
X-164939Y156861D01*
X-166819Y155419D01*
X-168262Y153539D01*
X-169168Y151349D01*
X-169478Y149000D01*
X-169168Y146650D01*
X-168262Y144461D01*
X-166819Y142581D01*
X-164939Y141139D01*
X-162750Y140232D01*
X-160400Y139922D01*
X-158050Y140232D01*
X-155861Y141139D01*
X-153981Y142581D01*
X-152539Y144461D01*
X-151632Y146650D01*
X-151322Y149000D01*
X-151632Y151349D01*
X-151805Y151769D01*
X-145736Y157839D01*
X-144482Y157740D01*
X-143869Y156628D01*
X-144044Y155750D01*
Y142250D01*
X-143869Y141372D01*
X-143372Y140628D01*
X-142628Y140131D01*
X-141750Y139956D01*
X-128250D01*
X-127372Y140131D01*
X-126628Y140628D01*
X-126131Y141372D01*
X-125956Y142250D01*
Y155750D01*
X-126131Y156628D01*
X-125440Y157881D01*
X-113000D01*
X-111424Y158194D01*
X-110087Y159087D01*
X-75294Y193881D01*
X-42835D01*
X-41951Y193290D01*
X-40000Y192902D01*
X-38049Y193290D01*
X-36395Y194395D01*
X-35290Y196049D01*
X-34902Y198000D01*
X-35290Y199951D01*
X-36395Y201605D01*
X-38049Y202710D01*
X-40000Y203098D01*
D02*
G37*
G36*
X262484Y475488D02*
X254254D01*
Y467258D01*
X262484D01*
Y475488D01*
D02*
G37*
G36*
X79000Y507098D02*
X77049Y506710D01*
X75395Y505605D01*
X74290Y503951D01*
X73902Y502000D01*
X74290Y500049D01*
X75395Y498395D01*
X77049Y497290D01*
X79000Y496902D01*
X80951Y497290D01*
X82605Y498395D01*
X83710Y500049D01*
X84098Y502000D01*
X83710Y503951D01*
X82605Y505605D01*
X80951Y506710D01*
X79000Y507098D01*
D02*
G37*
G36*
X61032Y399864D02*
X57302D01*
Y393884D01*
X61032D01*
Y399864D01*
D02*
G37*
G36*
X-160400Y386678D02*
X-162750Y386368D01*
X-164939Y385462D01*
X-166819Y384019D01*
X-168262Y382139D01*
X-169168Y379949D01*
X-169478Y377600D01*
X-169168Y375251D01*
X-168262Y373061D01*
X-166819Y371181D01*
X-164939Y369739D01*
X-162750Y368832D01*
X-160400Y368522D01*
X-158050Y368832D01*
X-155861Y369739D01*
X-153981Y371181D01*
X-152539Y373061D01*
X-151632Y375251D01*
X-151322Y377600D01*
X-151632Y379949D01*
X-152539Y382139D01*
X-153981Y384019D01*
X-155861Y385462D01*
X-158050Y386368D01*
X-160400Y386678D01*
D02*
G37*
G36*
X61032Y391344D02*
X57302D01*
Y385364D01*
X61032D01*
Y391344D01*
D02*
G37*
G36*
X54762Y399864D02*
X51032D01*
Y393884D01*
X54762D01*
Y399864D01*
D02*
G37*
G36*
X42164Y386937D02*
Y383286D01*
X45942D01*
Y386937D01*
X42164D01*
D02*
G37*
G36*
X54762Y391344D02*
X51032D01*
Y385364D01*
X54762D01*
Y391344D01*
D02*
G37*
G36*
X-160400Y335878D02*
X-162750Y335568D01*
X-164939Y334661D01*
X-166819Y333219D01*
X-168262Y331339D01*
X-169168Y329150D01*
X-169478Y326800D01*
X-169168Y324450D01*
X-168262Y322261D01*
X-166819Y320381D01*
X-164939Y318939D01*
X-162750Y318032D01*
X-160400Y317722D01*
X-158050Y318032D01*
X-155861Y318939D01*
X-153981Y320381D01*
X-152539Y322261D01*
X-151632Y324450D01*
X-151322Y326800D01*
X-151632Y329150D01*
X-152539Y331339D01*
X-153981Y333219D01*
X-155861Y334661D01*
X-158050Y335568D01*
X-160400Y335878D01*
D02*
G37*
G36*
Y310478D02*
X-162750Y310168D01*
X-164939Y309261D01*
X-166819Y307819D01*
X-168262Y305939D01*
X-169168Y303750D01*
X-169478Y301400D01*
X-169168Y299051D01*
X-168262Y296861D01*
X-166819Y294981D01*
X-164939Y293539D01*
X-162750Y292632D01*
X-160400Y292322D01*
X-158050Y292632D01*
X-155861Y293539D01*
X-153981Y294981D01*
X-152539Y296861D01*
X-151632Y299051D01*
X-151322Y301400D01*
X-151632Y303750D01*
X-152539Y305939D01*
X-153981Y307819D01*
X-155861Y309261D01*
X-158050Y310168D01*
X-160400Y310478D01*
D02*
G37*
G36*
X-135000D02*
X-137350Y310168D01*
X-139539Y309261D01*
X-141419Y307819D01*
X-142861Y305939D01*
X-143768Y303750D01*
X-144078Y301400D01*
X-143768Y299051D01*
X-142861Y296861D01*
X-141419Y294981D01*
X-139539Y293539D01*
X-137350Y292632D01*
X-135000Y292322D01*
X-132650Y292632D01*
X-130461Y293539D01*
X-128581Y294981D01*
X-127139Y296861D01*
X-126232Y299051D01*
X-125922Y301400D01*
X-126232Y303750D01*
X-127139Y305939D01*
X-128581Y307819D01*
X-130461Y309261D01*
X-132650Y310168D01*
X-135000Y310478D01*
D02*
G37*
G36*
X182000Y344098D02*
X180049Y343710D01*
X178395Y342605D01*
X177290Y340951D01*
X176902Y339000D01*
X177290Y337049D01*
X178395Y335395D01*
X180049Y334290D01*
X182000Y333902D01*
X183951Y334290D01*
X185605Y335395D01*
X186710Y337049D01*
X187098Y339000D01*
X186710Y340951D01*
X185605Y342605D01*
X183951Y343710D01*
X182000Y344098D01*
D02*
G37*
G36*
X72898Y348506D02*
X70947Y348118D01*
X69293Y347013D01*
X68188Y345359D01*
X67800Y343408D01*
X68188Y341457D01*
X69293Y339803D01*
X70947Y338698D01*
X72898Y338310D01*
X74849Y338698D01*
X76503Y339803D01*
X77608Y341457D01*
X77996Y343408D01*
X77608Y345359D01*
X76503Y347013D01*
X74849Y348118D01*
X72898Y348506D01*
D02*
G37*
G36*
X-83750Y468500D02*
X-94250D01*
X-99500Y463250D01*
Y452750D01*
X-98548Y451798D01*
X-99120Y450574D01*
X-100147Y450149D01*
X-100623Y449001D01*
Y441001D01*
X-100147Y439853D01*
X-98999Y439377D01*
X-98470D01*
X-97909Y438238D01*
X-98172Y437895D01*
X-99230Y435341D01*
X-99591Y432600D01*
X-99230Y429859D01*
X-98172Y427305D01*
X-96489Y425111D01*
X-94295Y423428D01*
X-91741Y422370D01*
X-89000Y422009D01*
X-86259Y422370D01*
X-83705Y423428D01*
X-81511Y425111D01*
X-79828Y427305D01*
X-78770Y429859D01*
X-78409Y432600D01*
X-78770Y435341D01*
X-79828Y437895D01*
X-80091Y438238D01*
X-79530Y439377D01*
X-78999D01*
X-77851Y439853D01*
X-77376Y441001D01*
Y449001D01*
X-77851Y450149D01*
X-78879Y450575D01*
X-79452Y451798D01*
X-78500Y452750D01*
Y463250D01*
X-83750Y468500D01*
D02*
G37*
G36*
X51000Y336598D02*
X49049Y336210D01*
X47395Y335105D01*
X46290Y333451D01*
X45902Y331500D01*
X46290Y329549D01*
X47395Y327895D01*
X49049Y326790D01*
X51000Y326402D01*
X52951Y326790D01*
X54605Y327895D01*
X55710Y329549D01*
X56098Y331500D01*
X55710Y333451D01*
X54605Y335105D01*
X52951Y336210D01*
X51000Y336598D01*
D02*
G37*
G36*
X313562Y133544D02*
X302932D01*
Y130164D01*
X313562D01*
Y133544D01*
D02*
G37*
G36*
X75000Y142098D02*
X73049Y141710D01*
X71395Y140605D01*
X70290Y138951D01*
X69902Y137000D01*
X70290Y135049D01*
X71395Y133395D01*
X73049Y132290D01*
X75000Y131902D01*
X76951Y132290D01*
X78605Y133395D01*
X79710Y135049D01*
X80098Y137000D01*
X79710Y138951D01*
X78605Y140605D01*
X76951Y141710D01*
X75000Y142098D01*
D02*
G37*
G36*
X300392Y133544D02*
X289762D01*
Y130164D01*
X300392D01*
Y133544D01*
D02*
G37*
G36*
X187500Y128598D02*
X185549Y128210D01*
X183895Y127105D01*
X182790Y125451D01*
X182402Y123500D01*
X182790Y121549D01*
X183895Y119895D01*
X185549Y118790D01*
X187500Y118402D01*
X189451Y118790D01*
X191105Y119895D01*
X192210Y121549D01*
X192598Y123500D01*
X192210Y125451D01*
X191105Y127105D01*
X189451Y128210D01*
X187500Y128598D01*
D02*
G37*
G36*
X348662Y134714D02*
X329662D01*
Y125974D01*
X313062D01*
Y126264D01*
X290262D01*
Y117964D01*
X313062D01*
Y118254D01*
X329662D01*
Y115714D01*
X348662D01*
Y121354D01*
X350004D01*
X350004Y121354D01*
X351481Y121648D01*
X352733Y122484D01*
X353765Y123516D01*
X355265Y123814D01*
X356919Y124919D01*
X358024Y126573D01*
X358412Y128524D01*
X358024Y130475D01*
X356919Y132129D01*
X355265Y133234D01*
X353314Y133622D01*
X351363Y133234D01*
X349932Y132278D01*
X348662Y132673D01*
Y134714D01*
D02*
G37*
G36*
X391552Y141224D02*
X383286D01*
Y132958D01*
X384527Y133122D01*
X386867Y134091D01*
X388877Y135633D01*
X390419Y137642D01*
X391388Y139983D01*
X391552Y141224D01*
D02*
G37*
G36*
X-58750Y185500D02*
X-69250D01*
X-74500Y180250D01*
Y169750D01*
X-73548Y168798D01*
X-74120Y167574D01*
X-75147Y167149D01*
X-75623Y166001D01*
Y158001D01*
X-75147Y156853D01*
X-73999Y156377D01*
X-73470D01*
X-72909Y155238D01*
X-73172Y154895D01*
X-74230Y152341D01*
X-74591Y149600D01*
X-74230Y146859D01*
X-73172Y144305D01*
X-71489Y142111D01*
X-69295Y140428D01*
X-66741Y139370D01*
X-64000Y139009D01*
X-61259Y139370D01*
X-58705Y140428D01*
X-56511Y142111D01*
X-54828Y144305D01*
X-53770Y146859D01*
X-53409Y149600D01*
X-53770Y152341D01*
X-54828Y154895D01*
X-55091Y155238D01*
X-54530Y156377D01*
X-53999D01*
X-52851Y156853D01*
X-52376Y158001D01*
Y166001D01*
X-52851Y167149D01*
X-53879Y167575D01*
X-54452Y168798D01*
X-53500Y169750D01*
Y180250D01*
X-58750Y185500D01*
D02*
G37*
G36*
X71000Y153098D02*
X69049Y152710D01*
X67395Y151605D01*
X66690Y150549D01*
X61000D01*
X60025Y150355D01*
X59198Y149802D01*
X54198Y144802D01*
X53645Y143975D01*
X53451Y143000D01*
Y141310D01*
X52395Y140605D01*
X51290Y138951D01*
X50902Y137000D01*
X51290Y135049D01*
X52395Y133395D01*
X54049Y132290D01*
X56000Y131902D01*
X57951Y132290D01*
X59605Y133395D01*
X60710Y135049D01*
X61098Y137000D01*
X60710Y138951D01*
X59605Y140605D01*
X59137Y140918D01*
X59018Y142413D01*
X62056Y145451D01*
X66690D01*
X67395Y144395D01*
X69049Y143290D01*
X71000Y142902D01*
X72951Y143290D01*
X74605Y144395D01*
X75710Y146049D01*
X76098Y148000D01*
X75710Y149951D01*
X74605Y151605D01*
X72951Y152710D01*
X71000Y153098D01*
D02*
G37*
G36*
X430746Y141224D02*
X422480D01*
X422644Y139983D01*
X423613Y137642D01*
X425155Y135633D01*
X427164Y134091D01*
X429505Y133122D01*
X430746Y132958D01*
Y141224D01*
D02*
G37*
G36*
X441552D02*
X433286D01*
Y132958D01*
X434527Y133122D01*
X436867Y134091D01*
X438877Y135633D01*
X440419Y137642D01*
X441388Y139983D01*
X441552Y141224D01*
D02*
G37*
G36*
X380746D02*
X372480D01*
X372644Y139983D01*
X373613Y137642D01*
X375155Y135633D01*
X377164Y134091D01*
X379505Y133122D01*
X380746Y132958D01*
Y141224D01*
D02*
G37*
G36*
X313062Y113564D02*
X290262D01*
Y105264D01*
X313062D01*
Y105554D01*
X314691D01*
X321760Y98484D01*
X321760Y98484D01*
X323013Y97648D01*
X324490Y97354D01*
X324490Y97354D01*
X329662D01*
Y91714D01*
X348662D01*
Y97354D01*
X352420D01*
X352420Y97354D01*
X353897Y97648D01*
X354087Y97774D01*
X356027Y98160D01*
X357681Y99265D01*
X358786Y100919D01*
X359174Y102870D01*
X358786Y104821D01*
X357681Y106475D01*
X356027Y107580D01*
X354076Y107968D01*
X352125Y107580D01*
X350471Y106475D01*
X349932Y105668D01*
X348662Y106053D01*
Y110714D01*
X329662D01*
Y105074D01*
X326089D01*
X319020Y112144D01*
X317767Y112980D01*
X316290Y113274D01*
X316290Y113274D01*
X313062D01*
Y113564D01*
D02*
G37*
G36*
X328912Y70944D02*
X324932D01*
Y66964D01*
X328912D01*
Y70944D01*
D02*
G37*
G36*
X282846Y76454D02*
X275616D01*
Y69224D01*
X282846D01*
Y76454D01*
D02*
G37*
G36*
X322392Y70944D02*
X318412D01*
Y66964D01*
X322392D01*
Y70944D01*
D02*
G37*
G36*
X-121000Y114111D02*
X-127736Y113669D01*
X-134358Y112352D01*
X-140750Y110182D01*
X-146805Y107196D01*
X-152418Y103446D01*
X-157494Y98994D01*
X-161945Y93919D01*
X-165696Y88305D01*
X-168682Y82251D01*
X-170852Y75858D01*
X-172169Y69237D01*
X-172610Y62500D01*
X-172169Y55764D01*
X-170852Y49142D01*
X-168682Y42750D01*
X-165696Y36695D01*
X-161945Y31082D01*
X-157494Y26006D01*
X-152418Y21555D01*
X-146805Y17804D01*
X-140750Y14818D01*
X-134358Y12648D01*
X-127736Y11331D01*
X-121000Y10890D01*
X-114263Y11331D01*
X-107642Y12648D01*
X-101249Y14818D01*
X-95195Y17804D01*
X-89581Y21555D01*
X-84506Y26006D01*
X-80055Y31082D01*
X-76304Y36695D01*
X-73318Y42750D01*
X-71148Y49142D01*
X-69831Y55764D01*
X-69389Y62500D01*
X-69831Y69237D01*
X-71148Y75858D01*
X-73318Y82251D01*
X-76304Y88305D01*
X-80055Y93919D01*
X-84506Y98994D01*
X-89581Y103446D01*
X-95195Y107196D01*
X-101249Y110182D01*
X-107642Y112352D01*
X-114263Y113669D01*
X-121000Y114111D01*
D02*
G37*
G36*
X461000D02*
X454264Y113669D01*
X447642Y112352D01*
X441250Y110182D01*
X435195Y107196D01*
X429582Y103446D01*
X424506Y98994D01*
X420055Y93919D01*
X416304Y88305D01*
X413318Y82251D01*
X411148Y75858D01*
X409831Y69237D01*
X409390Y62500D01*
X409831Y55764D01*
X411148Y49142D01*
X413318Y42750D01*
X416304Y36695D01*
X420055Y31082D01*
X424506Y26006D01*
X429582Y21555D01*
X435195Y17804D01*
X441250Y14818D01*
X447642Y12648D01*
X454264Y11331D01*
X461000Y10890D01*
X467737Y11331D01*
X474358Y12648D01*
X480751Y14818D01*
X486805Y17804D01*
X492419Y21555D01*
X497494Y26006D01*
X501945Y31082D01*
X505696Y36695D01*
X508682Y42750D01*
X510852Y49142D01*
X512169Y55764D01*
X512611Y62500D01*
X512169Y69237D01*
X510852Y75858D01*
X508682Y82251D01*
X505696Y88305D01*
X501945Y93919D01*
X497494Y98994D01*
X492419Y103446D01*
X486805Y107196D01*
X480751Y110182D01*
X474358Y112352D01*
X467737Y113669D01*
X461000Y114111D01*
D02*
G37*
G36*
X292616Y76454D02*
X285386D01*
Y69224D01*
X292616D01*
Y76454D01*
D02*
G37*
G36*
X136000Y93098D02*
X134049Y92710D01*
X132395Y91605D01*
X131290Y89951D01*
X130902Y88000D01*
X131290Y86049D01*
X132395Y84395D01*
X134049Y83290D01*
X136000Y82902D01*
X137951Y83290D01*
X139605Y84395D01*
X140710Y86049D01*
X141098Y88000D01*
X140710Y89951D01*
X139605Y91605D01*
X137951Y92710D01*
X136000Y93098D01*
D02*
G37*
G36*
X272542Y102380D02*
X270591Y101992D01*
X268937Y100887D01*
X267832Y99233D01*
X267444Y97282D01*
X267832Y95331D01*
X268937Y93677D01*
X270591Y92572D01*
X272542Y92184D01*
X274493Y92572D01*
X276147Y93677D01*
X277252Y95331D01*
X277640Y97282D01*
X277252Y99233D01*
X276147Y100887D01*
X274493Y101992D01*
X272542Y102380D01*
D02*
G37*
G36*
X292616Y86224D02*
X285386D01*
Y78994D01*
X292616D01*
Y86224D01*
D02*
G37*
G36*
X313062Y100864D02*
X290262D01*
Y92564D01*
X297543D01*
Y85724D01*
X294116D01*
Y69724D01*
X310116D01*
Y73605D01*
X314960D01*
X316536Y73918D01*
X317142Y74323D01*
X318412Y73644D01*
Y73484D01*
X323662D01*
X328912D01*
Y77464D01*
X328912D01*
X328737Y77835D01*
X329475Y79095D01*
X356162D01*
X357738Y79408D01*
X359075Y80301D01*
X369570Y90797D01*
X370613Y91004D01*
X372267Y92109D01*
X373372Y93763D01*
X373760Y95714D01*
X373372Y97665D01*
X372267Y99319D01*
X370613Y100424D01*
X368662Y100812D01*
X366711Y100424D01*
X365057Y99319D01*
X363952Y97665D01*
X363745Y96622D01*
X354456Y87333D01*
X328412D01*
Y87964D01*
X318912D01*
Y87027D01*
X318874Y87020D01*
X317537Y86127D01*
X313254Y81843D01*
X310116D01*
Y85724D01*
X305781D01*
Y92564D01*
X313062D01*
Y100864D01*
D02*
G37*
G36*
X282846Y86224D02*
X275616D01*
Y78994D01*
X282846D01*
Y86224D01*
D02*
G37*
G36*
X430746Y177430D02*
X429505Y177266D01*
X427164Y176297D01*
X425155Y174755D01*
X423613Y172745D01*
X422644Y170405D01*
X422480Y169164D01*
X430746D01*
Y177430D01*
D02*
G37*
G36*
X433286Y177430D02*
Y169164D01*
X441552D01*
X441388Y170405D01*
X440419Y172745D01*
X438877Y174755D01*
X436867Y176297D01*
X434527Y177266D01*
X433286Y177430D01*
D02*
G37*
G36*
X336912Y173444D02*
X333932D01*
Y167464D01*
X336912D01*
Y173444D01*
D02*
G37*
G36*
X-161670Y173130D02*
X-169815D01*
X-169655Y171920D01*
X-168698Y169609D01*
X-167176Y167625D01*
X-165191Y166102D01*
X-162880Y165145D01*
X-161670Y164985D01*
Y173130D01*
D02*
G37*
G36*
X-150985D02*
X-159130D01*
Y164985D01*
X-157920Y165145D01*
X-155609Y166102D01*
X-153625Y167625D01*
X-152102Y169609D01*
X-151145Y171920D01*
X-150985Y173130D01*
D02*
G37*
G36*
X51400Y194086D02*
X48790Y193743D01*
X46357Y192735D01*
X44268Y191132D01*
X42665Y189043D01*
X41657Y186611D01*
X41314Y184000D01*
X41657Y181390D01*
X42665Y178957D01*
X44268Y176868D01*
X46357Y175265D01*
X48790Y174257D01*
X51400Y173914D01*
X54011Y174257D01*
X56443Y175265D01*
X58532Y176868D01*
X60135Y178957D01*
X61143Y181390D01*
X61486Y184000D01*
X61143Y186611D01*
X60135Y189043D01*
X58532Y191132D01*
X56443Y192735D01*
X54011Y193743D01*
X51400Y194086D01*
D02*
G37*
G36*
X336912Y181964D02*
X333932D01*
Y175984D01*
X336912D01*
Y181964D01*
D02*
G37*
G36*
X-160400Y208878D02*
X-162750Y208568D01*
X-164939Y207661D01*
X-166819Y206219D01*
X-168262Y204339D01*
X-169168Y202150D01*
X-169478Y199800D01*
X-169168Y197451D01*
X-168262Y195261D01*
X-166819Y193381D01*
X-164939Y191939D01*
X-162750Y191032D01*
X-160400Y190722D01*
X-158050Y191032D01*
X-155861Y191939D01*
X-153981Y193381D01*
X-152539Y195261D01*
X-151632Y197451D01*
X-151322Y199800D01*
X-151632Y202150D01*
X-152539Y204339D01*
X-153981Y206219D01*
X-155861Y207661D01*
X-158050Y208568D01*
X-160400Y208878D01*
D02*
G37*
G36*
X-159130Y183815D02*
Y175670D01*
X-150985D01*
X-151145Y176880D01*
X-152102Y179191D01*
X-153625Y181175D01*
X-155609Y182698D01*
X-157920Y183655D01*
X-159130Y183815D01*
D02*
G37*
G36*
X32800Y194063D02*
X19200D01*
X17951Y193814D01*
X16893Y193107D01*
X16186Y192048D01*
X15937Y190800D01*
Y177200D01*
X16186Y175951D01*
X16893Y174893D01*
X17951Y174186D01*
X19200Y173937D01*
X32800D01*
X34049Y174186D01*
X35107Y174893D01*
X35814Y175951D01*
X36063Y177200D01*
Y190800D01*
X35814Y192048D01*
X35107Y193107D01*
X34049Y193814D01*
X32800Y194063D01*
D02*
G37*
G36*
X-161670Y183815D02*
X-162880Y183655D01*
X-165191Y182698D01*
X-167176Y181175D01*
X-168698Y179191D01*
X-169655Y176880D01*
X-169815Y175670D01*
X-161670D01*
Y183815D01*
D02*
G37*
G36*
X269328Y163746D02*
X265348D01*
Y159766D01*
X269328D01*
Y163746D01*
D02*
G37*
G36*
X433286Y152030D02*
Y143764D01*
X441552D01*
X441388Y145005D01*
X440419Y147346D01*
X438877Y149355D01*
X436867Y150897D01*
X434527Y151866D01*
X433286Y152030D01*
D02*
G37*
G36*
X36000Y158098D02*
X34049Y157710D01*
X32395Y156605D01*
X31290Y154951D01*
X30902Y153000D01*
X31290Y151049D01*
X32395Y149395D01*
X34049Y148290D01*
X36000Y147902D01*
X37951Y148290D01*
X39605Y149395D01*
X40710Y151049D01*
X41098Y153000D01*
X40710Y154951D01*
X39605Y156605D01*
X37951Y157710D01*
X36000Y158098D01*
D02*
G37*
G36*
X383286Y152030D02*
Y143764D01*
X391552D01*
X391388Y145005D01*
X390419Y147346D01*
X388877Y149355D01*
X386867Y150897D01*
X384527Y151866D01*
X383286Y152030D01*
D02*
G37*
G36*
X380746Y152030D02*
X379505Y151866D01*
X377164Y150897D01*
X375155Y149355D01*
X373613Y147346D01*
X372644Y145005D01*
X372480Y143764D01*
X380746D01*
Y152030D01*
D02*
G37*
G36*
X430746D02*
X429505Y151866D01*
X427164Y150897D01*
X425155Y149355D01*
X423613Y147346D01*
X422644Y145005D01*
X422480Y143764D01*
X430746D01*
Y152030D01*
D02*
G37*
G36*
X269328Y157226D02*
X265348D01*
Y153246D01*
X269328D01*
Y157226D01*
D02*
G37*
G36*
X380746Y166624D02*
X372480D01*
X372644Y165383D01*
X373613Y163043D01*
X375155Y161033D01*
X377164Y159491D01*
X379505Y158522D01*
X380746Y158358D01*
Y166624D01*
D02*
G37*
G36*
X430746D02*
X422480D01*
X422644Y165383D01*
X423613Y163043D01*
X425155Y161033D01*
X427164Y159491D01*
X429505Y158522D01*
X430746Y158358D01*
Y166624D01*
D02*
G37*
G36*
X391552D02*
X383286D01*
Y158358D01*
X384527Y158522D01*
X386867Y159491D01*
X388877Y161033D01*
X390419Y163043D01*
X391388Y165383D01*
X391552Y166624D01*
D02*
G37*
G36*
X310662Y193812D02*
X308711Y193424D01*
X307057Y192319D01*
X305952Y190665D01*
X305564Y188714D01*
X305952Y186763D01*
X307057Y185109D01*
X308711Y184004D01*
X310662Y183616D01*
X311583Y183799D01*
X312745Y182637D01*
X312258Y181464D01*
X270412D01*
Y167964D01*
X285276D01*
X285802Y166694D01*
X282354Y163246D01*
X277118D01*
X276911Y163246D01*
X275848Y163746D01*
X275785Y163746D01*
X271868D01*
Y158496D01*
Y153246D01*
X275785D01*
X275848Y153246D01*
X276911Y153746D01*
X277118Y153746D01*
X286348D01*
Y159252D01*
X288297Y161201D01*
X289470Y160714D01*
Y154000D01*
X298970D01*
Y158227D01*
X299200Y158381D01*
X300470Y157702D01*
Y154000D01*
X309970D01*
Y163500D01*
X307937D01*
X307702Y164770D01*
X308659Y165727D01*
X308659Y165727D01*
X309134Y166438D01*
X309974Y166442D01*
X310456Y166304D01*
X310553Y165817D01*
X311165Y164901D01*
X311822Y164244D01*
Y155524D01*
X321322D01*
Y165024D01*
X318877D01*
X318569Y165485D01*
X318569Y165485D01*
X317264Y166791D01*
X317750Y167964D01*
X322117D01*
X323312Y167640D01*
X323527Y166559D01*
X323704Y166294D01*
X323025Y165024D01*
X322822D01*
Y155524D01*
X332322D01*
Y165024D01*
X330675D01*
X330467Y166289D01*
X331392Y167405D01*
Y174714D01*
Y181964D01*
X328412D01*
Y181464D01*
X321824D01*
X321659Y181711D01*
X321659Y181711D01*
X315577Y187793D01*
X315760Y188714D01*
X315372Y190665D01*
X314267Y192319D01*
X312613Y193424D01*
X310662Y193812D01*
D02*
G37*
G36*
X441552Y166624D02*
X433286D01*
Y158358D01*
X434527Y158522D01*
X436867Y159491D01*
X438877Y161033D01*
X440419Y163043D01*
X441388Y165383D01*
X441552Y166624D01*
D02*
G37*
G36*
X67000Y732098D02*
X65049Y731710D01*
X63395Y730605D01*
X62874Y729824D01*
X-67874D01*
X-68395Y730605D01*
X-70049Y731710D01*
X-72000Y732098D01*
X-73951Y731710D01*
X-75605Y730605D01*
X-76710Y728951D01*
X-77098Y727000D01*
X-76710Y725049D01*
X-75605Y723395D01*
X-73951Y722290D01*
X-72000Y721902D01*
X-70049Y722290D01*
X-68395Y723395D01*
X-67874Y724176D01*
X-45540D01*
X-45154Y722906D01*
X-45605Y722605D01*
X-46710Y720951D01*
X-47098Y719000D01*
X-46710Y717049D01*
X-45605Y715395D01*
X-43951Y714290D01*
X-42000Y713902D01*
X-40049Y714290D01*
X-38395Y715395D01*
X-37290Y717049D01*
X-37219Y717406D01*
X121887D01*
X122395Y716645D01*
X124049Y715540D01*
X126000Y715152D01*
X127951Y715540D01*
X129605Y716645D01*
X130710Y718299D01*
X131098Y720250D01*
X130710Y722201D01*
X129605Y723855D01*
X127951Y724960D01*
X126000Y725348D01*
X124049Y724960D01*
X122395Y723855D01*
X121860Y723054D01*
X71904D01*
X71226Y724324D01*
X71710Y725049D01*
X72098Y727000D01*
X71710Y728951D01*
X70605Y730605D01*
X68951Y731710D01*
X67000Y732098D01*
D02*
G37*
G36*
X458216Y743476D02*
X456265Y743088D01*
X454611Y741983D01*
X453920Y740948D01*
X426782D01*
X426261Y741729D01*
X424607Y742834D01*
X422656Y743222D01*
X420705Y742834D01*
X419051Y741729D01*
X417946Y740075D01*
X417558Y738124D01*
X417946Y736173D01*
X419051Y734519D01*
X420705Y733414D01*
X422656Y733026D01*
X424607Y733414D01*
X426261Y734519D01*
X426782Y735300D01*
X454259D01*
X454611Y734773D01*
X456265Y733668D01*
X458216Y733280D01*
X460167Y733668D01*
X461821Y734773D01*
X462926Y736427D01*
X463314Y738378D01*
X462926Y740329D01*
X461821Y741983D01*
X460167Y743088D01*
X458216Y743476D01*
D02*
G37*
G36*
X107000Y714098D02*
X105049Y713710D01*
X103395Y712605D01*
X102874Y711824D01*
X22126D01*
X21605Y712605D01*
X19951Y713710D01*
X18000Y714098D01*
X16049Y713710D01*
X14395Y712605D01*
X13290Y710951D01*
X12902Y709000D01*
X13290Y707049D01*
X14395Y705395D01*
X16049Y704290D01*
X18000Y703902D01*
X19951Y704290D01*
X21605Y705395D01*
X22126Y706176D01*
X102874D01*
X103395Y705395D01*
X105049Y704290D01*
X107000Y703902D01*
X108951Y704290D01*
X110605Y705395D01*
X111710Y707049D01*
X112098Y709000D01*
X111710Y710951D01*
X110605Y712605D01*
X108951Y713710D01*
X107000Y714098D01*
D02*
G37*
G36*
X411112Y716302D02*
X400112D01*
Y703302D01*
X411112D01*
Y716302D01*
D02*
G37*
G36*
X462612D02*
X431612D01*
Y703302D01*
X462612D01*
Y716302D01*
D02*
G37*
G36*
X457962Y770062D02*
X455612Y769752D01*
X453423Y768846D01*
X451543Y767403D01*
X450101Y765523D01*
X449194Y763334D01*
X448884Y760984D01*
X449194Y758634D01*
X450101Y756445D01*
X451543Y754565D01*
X453423Y753122D01*
X455612Y752216D01*
X457962Y751906D01*
X460312Y752216D01*
X462501Y753122D01*
X464381Y754565D01*
X465824Y756445D01*
X466730Y758634D01*
X467040Y760984D01*
X466730Y763334D01*
X465824Y765523D01*
X464381Y767403D01*
X462501Y768846D01*
X460312Y769752D01*
X457962Y770062D01*
D02*
G37*
G36*
X482092Y785114D02*
X473947D01*
X474106Y783904D01*
X475064Y781593D01*
X476586Y779609D01*
X478571Y778086D01*
X480882Y777129D01*
X482092Y776969D01*
Y785114D01*
D02*
G37*
G36*
X492777D02*
X484632D01*
Y776969D01*
X485842Y777129D01*
X488153Y778086D01*
X490137Y779609D01*
X491660Y781593D01*
X492617Y783904D01*
X492777Y785114D01*
D02*
G37*
G36*
X348000Y784098D02*
X346049Y783710D01*
X344395Y782605D01*
X343874Y781824D01*
X323000D01*
X321919Y781609D01*
X321003Y780997D01*
X314003Y773997D01*
X313391Y773081D01*
X313176Y772000D01*
X313176Y772000D01*
Y750126D01*
X312395Y749605D01*
X311290Y747951D01*
X310902Y746000D01*
X311290Y744049D01*
X312395Y742395D01*
X314049Y741290D01*
X316000Y740902D01*
X317951Y741290D01*
X319605Y742395D01*
X320422Y743618D01*
X321333Y743998D01*
X321984Y743944D01*
X322741Y743631D01*
X323269D01*
X323831Y742492D01*
X323568Y742149D01*
X322510Y739595D01*
X322149Y736854D01*
X322510Y734113D01*
X323568Y731559D01*
X325251Y729365D01*
X327445Y727682D01*
X329999Y726624D01*
X332740Y726263D01*
X335481Y726624D01*
X338035Y727682D01*
X340229Y729365D01*
X341912Y731559D01*
X342970Y734113D01*
X343331Y736854D01*
X342970Y739595D01*
X341912Y742149D01*
X341649Y742492D01*
X342211Y743631D01*
X342741D01*
X343889Y744106D01*
X344159Y744759D01*
X345429Y744507D01*
Y728632D01*
X344883Y728267D01*
X343778Y726613D01*
X343390Y724662D01*
X343778Y722711D01*
X344883Y721057D01*
X346537Y719952D01*
X348488Y719564D01*
X350439Y719952D01*
X352093Y721057D01*
X353198Y722711D01*
X353586Y724662D01*
X353198Y726613D01*
X352093Y728267D01*
X351547Y728632D01*
Y759968D01*
X351314Y761139D01*
X350651Y762131D01*
X350651Y762131D01*
X348365Y764417D01*
X347373Y765080D01*
X346202Y765313D01*
X346202Y765313D01*
X343240D01*
Y767504D01*
X337990Y772754D01*
X327490D01*
X322240Y767504D01*
Y757004D01*
X323193Y756051D01*
X322620Y754828D01*
X321593Y754402D01*
X321118Y753254D01*
Y749627D01*
X319848Y749242D01*
X319605Y749605D01*
X318824Y750126D01*
Y770830D01*
X324170Y776176D01*
X343874D01*
X344395Y775395D01*
X346049Y774290D01*
X348000Y773902D01*
X349951Y774290D01*
X351605Y775395D01*
X352710Y777049D01*
X353098Y779000D01*
X352710Y780951D01*
X351605Y782605D01*
X349951Y783710D01*
X348000Y784098D01*
D02*
G37*
G36*
X483362Y770062D02*
X481012Y769752D01*
X478823Y768846D01*
X476943Y767403D01*
X475500Y765523D01*
X474594Y763334D01*
X474284Y760984D01*
X474594Y758634D01*
X475500Y756445D01*
X476943Y754565D01*
X478823Y753122D01*
X481012Y752216D01*
X483362Y751906D01*
X485712Y752216D01*
X487901Y753122D01*
X489781Y754565D01*
X491223Y756445D01*
X492130Y758634D01*
X492440Y760984D01*
X492130Y763334D01*
X491223Y765523D01*
X489781Y767403D01*
X487901Y768846D01*
X485712Y769752D01*
X483362Y770062D01*
D02*
G37*
G36*
X441562Y769984D02*
X423562D01*
Y751984D01*
X441562D01*
Y769984D01*
D02*
G37*
G36*
X351112Y716302D02*
X336112D01*
Y703302D01*
X351112D01*
Y716302D01*
D02*
G37*
G36*
X-151130Y646524D02*
X-158266D01*
X-158141Y645575D01*
X-157285Y643507D01*
X-155922Y641732D01*
X-154147Y640369D01*
X-152079Y639513D01*
X-151130Y639388D01*
Y646524D01*
D02*
G37*
G36*
Y656200D02*
X-152079Y656075D01*
X-154147Y655219D01*
X-155922Y653856D01*
X-157285Y652081D01*
X-158141Y650013D01*
X-158266Y649064D01*
X-151130D01*
Y656200D01*
D02*
G37*
G36*
X-141454Y646524D02*
X-148590D01*
Y639388D01*
X-147641Y639513D01*
X-145573Y640369D01*
X-143798Y641732D01*
X-142435Y643507D01*
X-141579Y645575D01*
X-141454Y646524D01*
D02*
G37*
G36*
X227584Y637812D02*
X225633Y637424D01*
X223979Y636319D01*
X222874Y634665D01*
X222486Y632714D01*
X222874Y630763D01*
X223979Y629109D01*
X225633Y628004D01*
X227584Y627616D01*
X229535Y628004D01*
X231189Y629109D01*
X232294Y630763D01*
X232682Y632714D01*
X232294Y634665D01*
X231189Y636319D01*
X229535Y637424D01*
X227584Y637812D01*
D02*
G37*
G36*
X259334Y638066D02*
X257383Y637678D01*
X255729Y636573D01*
X254933Y635381D01*
X253578Y635257D01*
X253464Y635294D01*
X252779Y636319D01*
X251125Y637424D01*
X249174Y637812D01*
X247223Y637424D01*
X245569Y636319D01*
X244816Y635191D01*
X243372D01*
X242619Y636319D01*
X240965Y637424D01*
X239014Y637812D01*
X237063Y637424D01*
X235409Y636319D01*
X234304Y634665D01*
X233916Y632714D01*
X234304Y630763D01*
X235409Y629109D01*
X237063Y628004D01*
X239014Y627616D01*
X240965Y628004D01*
X242619Y629109D01*
X243372Y630237D01*
X244816D01*
X245569Y629109D01*
X247223Y628004D01*
X249174Y627616D01*
X251125Y628004D01*
X252779Y629109D01*
X253575Y630301D01*
X254930Y630425D01*
X255044Y630388D01*
X255729Y629363D01*
X257383Y628258D01*
X259334Y627870D01*
X261285Y628258D01*
X262939Y629363D01*
X264044Y631017D01*
X264432Y632968D01*
X264044Y634919D01*
X262939Y636573D01*
X261285Y637678D01*
X259334Y638066D01*
D02*
G37*
G36*
X-148590Y656200D02*
Y649064D01*
X-141454D01*
X-141579Y650013D01*
X-142435Y652081D01*
X-143798Y653856D01*
X-145573Y655219D01*
X-147641Y656075D01*
X-148590Y656200D01*
D02*
G37*
G36*
X474472Y736110D02*
X472521Y735722D01*
X470867Y734617D01*
X469762Y732963D01*
X469374Y731012D01*
X469762Y729061D01*
X470353Y728177D01*
Y707064D01*
X453525Y690237D01*
X452632Y688900D01*
X452319Y687324D01*
Y679999D01*
X451728Y679115D01*
X451521Y678072D01*
X448699Y675251D01*
X447806Y673914D01*
X447493Y672338D01*
Y671497D01*
X433207D01*
X432822Y672767D01*
X433627Y673305D01*
X434732Y674959D01*
X435120Y676910D01*
X434732Y678861D01*
X433627Y680515D01*
X431973Y681620D01*
X430022Y682008D01*
X428071Y681620D01*
X426417Y680515D01*
X425312Y678861D01*
X424924Y676910D01*
X425107Y675989D01*
X424303Y675185D01*
X423691Y674269D01*
X423476Y673188D01*
X423476Y673188D01*
Y671010D01*
X415732Y663266D01*
X414558Y663752D01*
Y675832D01*
X415339Y676353D01*
X416444Y678007D01*
X416832Y679958D01*
X416444Y681909D01*
X415339Y683563D01*
X413685Y684668D01*
X411734Y685056D01*
X409783Y684668D01*
X408129Y683563D01*
X407024Y681909D01*
X406636Y679958D01*
X407024Y678007D01*
X408129Y676353D01*
X408910Y675832D01*
Y662865D01*
X403539Y657494D01*
X402927Y656578D01*
X402712Y655497D01*
X402712Y655497D01*
Y607868D01*
X396726Y601882D01*
X352834D01*
X336484Y618232D01*
Y639992D01*
X336269Y641073D01*
X335657Y641990D01*
X335657Y641990D01*
X316286Y661361D01*
X316912Y662531D01*
X317500Y662414D01*
X319451Y662802D01*
X320335Y663393D01*
X338795D01*
X339679Y662802D01*
X341630Y662414D01*
X343581Y662802D01*
X345235Y663907D01*
X346340Y665561D01*
X346728Y667512D01*
X346340Y669463D01*
X345235Y671117D01*
X343581Y672222D01*
X341630Y672610D01*
X339679Y672222D01*
X338795Y671631D01*
X320335D01*
X319451Y672222D01*
X317500Y672610D01*
X315549Y672222D01*
X313976Y671171D01*
X313547Y671265D01*
X312706Y671623D01*
Y677924D01*
X312510Y678912D01*
X312518Y679048D01*
X313232Y680182D01*
X334616D01*
X335008Y679704D01*
X335396Y677753D01*
X336501Y676099D01*
X338155Y674994D01*
X340106Y674606D01*
X342057Y674994D01*
X343711Y676099D01*
X344816Y677753D01*
X345204Y679704D01*
X344816Y681655D01*
X343711Y683309D01*
X342057Y684414D01*
X340106Y684802D01*
X339185Y684619D01*
X338801Y685003D01*
X337885Y685615D01*
X336804Y685830D01*
X336804Y685830D01*
X311208D01*
X310127Y685615D01*
X309382Y685117D01*
X308836Y685245D01*
X308112Y686072D01*
Y695302D01*
Y705302D01*
X293112D01*
Y695302D01*
Y686072D01*
X293112Y685802D01*
Y684802D01*
X293112Y684532D01*
Y675365D01*
X292612Y674302D01*
X292612D01*
X292612Y674302D01*
Y670072D01*
X300612D01*
Y667532D01*
X292612D01*
Y663302D01*
X292612D01*
X293112Y662802D01*
Y652802D01*
X293112D01*
Y651802D01*
X293112D01*
Y641802D01*
X293112D01*
Y640802D01*
X293112D01*
Y630802D01*
X293112D01*
Y629802D01*
X293112D01*
Y620072D01*
X293112Y619802D01*
Y618802D01*
X293112Y618532D01*
Y608802D01*
X308112D01*
Y618532D01*
X308112Y618786D01*
X309021Y619672D01*
X310104Y618590D01*
Y608520D01*
X310104Y608520D01*
X310319Y607439D01*
X310931Y606523D01*
X334537Y582917D01*
X333727Y581930D01*
X333372Y582168D01*
X332405Y582814D01*
X330454Y583202D01*
X328503Y582814D01*
X327182Y581931D01*
X325912Y582419D01*
Y583946D01*
X325697Y585027D01*
X325085Y585943D01*
X325085Y585943D01*
X321653Y589375D01*
X321836Y590296D01*
X321448Y592247D01*
X320343Y593901D01*
X318689Y595006D01*
X316738Y595394D01*
X314787Y595006D01*
X313133Y593901D01*
X312028Y592247D01*
X311640Y590296D01*
X312028Y588345D01*
X313133Y586691D01*
X314787Y585586D01*
X316738Y585198D01*
X317659Y585381D01*
X320264Y582776D01*
Y507304D01*
X316684Y503724D01*
X315697Y504533D01*
X316709Y506048D01*
X317097Y507999D01*
X316709Y509950D01*
X315604Y511604D01*
X313950Y512709D01*
X311999Y513097D01*
X310049Y512709D01*
X308395Y511604D01*
X307290Y509950D01*
X306901Y507999D01*
X307290Y506048D01*
X308395Y504394D01*
X310049Y503289D01*
X311999Y502901D01*
X313950Y503289D01*
X315465Y504301D01*
X316275Y503315D01*
X310742Y497782D01*
X249416D01*
X237455Y509743D01*
X236539Y510355D01*
X235458Y510570D01*
X235458Y510570D01*
X134682D01*
X134161Y511351D01*
X132507Y512456D01*
X131497Y512657D01*
X130799Y512796D01*
X130924Y514066D01*
X227330D01*
X227330Y514066D01*
X228411Y514281D01*
X229327Y514893D01*
X241395Y526961D01*
X242316Y526778D01*
X244267Y527166D01*
X245921Y528271D01*
X247026Y529925D01*
X247414Y531876D01*
X247026Y533827D01*
X245921Y535481D01*
X244267Y536586D01*
X242316Y536974D01*
X240365Y536586D01*
X238711Y535481D01*
X237606Y533827D01*
X237218Y531876D01*
X237401Y530955D01*
X226160Y519714D01*
X150539D01*
X150414Y520984D01*
X150790Y521059D01*
X151951Y521290D01*
X153605Y522395D01*
X154710Y524049D01*
X155098Y526000D01*
X154710Y527951D01*
X153857Y529227D01*
X154773Y530143D01*
X156049Y529290D01*
X158000Y528902D01*
X159951Y529290D01*
X161605Y530395D01*
X162710Y532049D01*
X163098Y534000D01*
X162710Y535951D01*
X161605Y537605D01*
X159951Y538710D01*
X158000Y539098D01*
X156049Y538710D01*
X154395Y537605D01*
X153874Y536824D01*
X140091D01*
X139966Y538094D01*
X140951Y538290D01*
X142605Y539395D01*
X143710Y541049D01*
X144098Y543000D01*
X143710Y544951D01*
X142605Y546605D01*
X140951Y547710D01*
X139000Y548098D01*
X137049Y547710D01*
X135395Y546605D01*
X134874Y545824D01*
X78126D01*
X77605Y546605D01*
X75951Y547710D01*
X74000Y548098D01*
X72049Y547710D01*
X70395Y546605D01*
X69290Y544951D01*
X68902Y543000D01*
X69290Y541049D01*
X70395Y539395D01*
X72049Y538290D01*
X73034Y538094D01*
X72909Y536824D01*
X67170D01*
X65295Y538699D01*
X64379Y539311D01*
X63298Y539526D01*
X63298Y539526D01*
X-103224D01*
X-109176Y545478D01*
Y556000D01*
X-103000D01*
Y574000D01*
X-121000D01*
Y556000D01*
X-114824D01*
Y544308D01*
X-114824Y544308D01*
X-114609Y543227D01*
X-113997Y542311D01*
X-106391Y534705D01*
X-105513Y534118D01*
X-105490Y534015D01*
X-105724Y532848D01*
X-125756D01*
X-134576Y541668D01*
Y556428D01*
X-132861Y557138D01*
X-130981Y558581D01*
X-129539Y560461D01*
X-128632Y562650D01*
X-128322Y565000D01*
X-128632Y567350D01*
X-129539Y569539D01*
X-130981Y571419D01*
X-132861Y572861D01*
X-135050Y573768D01*
X-137400Y574078D01*
X-139749Y573768D01*
X-141939Y572861D01*
X-143819Y571419D01*
X-145261Y569539D01*
X-146168Y567350D01*
X-146478Y565000D01*
X-146168Y562650D01*
X-145261Y560461D01*
X-143819Y558581D01*
X-141939Y557138D01*
X-140224Y556428D01*
Y540498D01*
X-140224Y540498D01*
X-140009Y539417D01*
X-139397Y538501D01*
X-128923Y528027D01*
X-128007Y527415D01*
X-126926Y527200D01*
X-126926Y527200D01*
X60806D01*
X64003Y524003D01*
X64003Y524003D01*
X64919Y523391D01*
X66000Y523176D01*
X145874D01*
X146395Y522395D01*
X148049Y521290D01*
X149210Y521059D01*
X149586Y520984D01*
X149461Y519714D01*
X123698D01*
X122617Y519499D01*
X121701Y518887D01*
X96112Y493298D01*
X70724D01*
X69643Y493083D01*
X68727Y492471D01*
X68727Y492471D01*
X59671Y483415D01*
X58750Y483598D01*
X56799Y483210D01*
X55145Y482105D01*
X54040Y480451D01*
X53652Y478500D01*
X54040Y476549D01*
X55145Y474895D01*
X56799Y473790D01*
X58750Y473402D01*
X60701Y473790D01*
X62355Y474895D01*
X63460Y476549D01*
X63848Y478500D01*
X63665Y479421D01*
X71894Y487650D01*
X97282D01*
X97282Y487650D01*
X98363Y487865D01*
X99279Y488477D01*
X124868Y514066D01*
X130188D01*
X130314Y512796D01*
X129615Y512657D01*
X128605Y512456D01*
X126951Y511351D01*
X125846Y509697D01*
X125458Y507746D01*
X125846Y505795D01*
X126951Y504141D01*
X128605Y503036D01*
X129763Y502806D01*
X130456Y501584D01*
X130445Y501474D01*
X130076Y499618D01*
X130464Y497667D01*
X131569Y496013D01*
X133223Y494908D01*
X135174Y494520D01*
X137125Y494908D01*
X138779Y496013D01*
X139300Y496794D01*
X233526D01*
X235663Y494656D01*
X234869Y493660D01*
X232918Y494048D01*
X230967Y493660D01*
X229313Y492555D01*
X228208Y490901D01*
X227820Y488950D01*
X228208Y486999D01*
X229313Y485345D01*
X230967Y484240D01*
X232918Y483852D01*
X234869Y484240D01*
X236523Y485345D01*
X237628Y486999D01*
X238016Y488950D01*
X237628Y490901D01*
X238624Y491695D01*
X242983Y487337D01*
X243484Y486258D01*
X243484D01*
X243484Y486258D01*
Y478028D01*
X262484D01*
Y485176D01*
X272484D01*
X272915Y483906D01*
X271965Y483177D01*
X270522Y481297D01*
X269616Y479108D01*
X269306Y476758D01*
X269616Y474408D01*
X270522Y472219D01*
X271965Y470339D01*
X273845Y468896D01*
X276035Y467990D01*
X278384Y467680D01*
X280734Y467990D01*
X282923Y468896D01*
X284803Y470339D01*
X286245Y472219D01*
X287152Y474408D01*
X287462Y476758D01*
X287152Y479108D01*
X286245Y481297D01*
X284803Y483177D01*
X283853Y483906D01*
X284284Y485176D01*
X297884D01*
X298315Y483906D01*
X297365Y483177D01*
X295923Y481297D01*
X295016Y479108D01*
X294706Y476758D01*
X295016Y474408D01*
X295923Y472219D01*
X297365Y470339D01*
X299245Y468896D01*
X301434Y467990D01*
X303784Y467680D01*
X306133Y467990D01*
X308323Y468896D01*
X310203Y470339D01*
X311646Y472219D01*
X312552Y474408D01*
X312862Y476758D01*
X312552Y479108D01*
X311646Y481297D01*
X310203Y483177D01*
X309253Y483906D01*
X309684Y485176D01*
X316550D01*
X316550Y485176D01*
X317631Y485391D01*
X318547Y486003D01*
X332451Y499907D01*
X332451Y499907D01*
X333063Y500823D01*
X333278Y501904D01*
Y528780D01*
X334548Y529304D01*
X339428Y524424D01*
X349928D01*
X355178Y529674D01*
Y540174D01*
X354225Y541127D01*
X354798Y542350D01*
X355825Y542775D01*
X356301Y543923D01*
Y551923D01*
X355825Y553072D01*
X354677Y553547D01*
X354148D01*
X353587Y554686D01*
X353850Y555029D01*
X354908Y557583D01*
X355269Y560324D01*
X354908Y563065D01*
X353850Y565619D01*
X352167Y567813D01*
X349973Y569496D01*
X347419Y570554D01*
X344678Y570915D01*
X341937Y570554D01*
X339383Y569496D01*
X337189Y567813D01*
X335506Y565619D01*
X334548Y563307D01*
X333278Y563559D01*
Y573978D01*
X334059Y574499D01*
X335164Y576153D01*
X335552Y578104D01*
X335164Y580055D01*
X334518Y581022D01*
X334280Y581377D01*
X335267Y582187D01*
X341093Y576361D01*
X342009Y575749D01*
X343090Y575534D01*
X343090Y575534D01*
X416052D01*
X416052Y575534D01*
X417133Y575749D01*
X418049Y576361D01*
X429479Y587791D01*
X430091Y588707D01*
X430306Y589788D01*
Y590996D01*
X431087Y591517D01*
X432192Y593171D01*
X432580Y595122D01*
X432192Y597073D01*
X431087Y598727D01*
X429433Y599832D01*
X427482Y600220D01*
X427433Y600210D01*
X426983Y600683D01*
X426571Y601334D01*
X426750Y602234D01*
Y632144D01*
X427531Y632665D01*
X428636Y634319D01*
X429024Y636270D01*
X428636Y638221D01*
X427531Y639875D01*
X425877Y640980D01*
X423926Y641368D01*
X421975Y640980D01*
X421275Y640512D01*
X420005Y641191D01*
Y649504D01*
X433760Y663259D01*
X447493D01*
Y624881D01*
X446902Y623997D01*
X446514Y622046D01*
X446902Y620095D01*
X447769Y618797D01*
Y591861D01*
X447178Y590977D01*
X446790Y589026D01*
X447178Y587075D01*
X448284Y585421D01*
X449937Y584316D01*
X451165Y584072D01*
X451040Y582802D01*
X440612D01*
Y566802D01*
X462612D01*
Y582802D01*
X452737D01*
X452612Y584072D01*
X453839Y584316D01*
X455493Y585421D01*
X456598Y587075D01*
X456986Y589026D01*
X456598Y590977D01*
X456007Y591861D01*
Y619624D01*
X456322Y620095D01*
X456710Y622046D01*
X456322Y623997D01*
X455731Y624881D01*
Y667258D01*
Y670632D01*
X457346Y672247D01*
X458389Y672454D01*
X460043Y673559D01*
X461148Y675213D01*
X461536Y677164D01*
X461148Y679115D01*
X460557Y679999D01*
Y685618D01*
X477385Y702445D01*
X478278Y703782D01*
X478591Y705358D01*
Y728177D01*
X479182Y729061D01*
X479570Y731012D01*
X479182Y732963D01*
X478077Y734617D01*
X476423Y735722D01*
X474472Y736110D01*
D02*
G37*
G36*
X87000Y703098D02*
X85049Y702710D01*
X83395Y701605D01*
X82874Y700824D01*
X45126D01*
X44605Y701605D01*
X42951Y702710D01*
X41000Y703098D01*
X39049Y702710D01*
X37395Y701605D01*
X36290Y699951D01*
X35902Y698000D01*
X36290Y696049D01*
X37395Y694395D01*
X39049Y693290D01*
X41000Y692902D01*
X42951Y693290D01*
X44605Y694395D01*
X45126Y695176D01*
X82874D01*
X83395Y694395D01*
X85049Y693290D01*
X87000Y692902D01*
X88951Y693290D01*
X90605Y694395D01*
X91710Y696049D01*
X92098Y698000D01*
X91710Y699951D01*
X90605Y701605D01*
X88951Y702710D01*
X87000Y703098D01*
D02*
G37*
G36*
X-71628Y679722D02*
X-73579Y679334D01*
X-75233Y678229D01*
X-76338Y676575D01*
X-76726Y674624D01*
X-76338Y672673D01*
X-75233Y671019D01*
X-73579Y669914D01*
X-71628Y669526D01*
X-69677Y669914D01*
X-68023Y671019D01*
X-66918Y672673D01*
X-66530Y674624D01*
X-66918Y676575D01*
X-68023Y678229D01*
X-69677Y679334D01*
X-71628Y679722D01*
D02*
G37*
G36*
X-99568Y679214D02*
X-101519Y678826D01*
X-103173Y677721D01*
X-104278Y676067D01*
X-104666Y674116D01*
X-104278Y672165D01*
X-103173Y670511D01*
X-101519Y669406D01*
X-99568Y669018D01*
X-97617Y669406D01*
X-95963Y670511D01*
X-94858Y672165D01*
X-94470Y674116D01*
X-94858Y676067D01*
X-95963Y677721D01*
X-97617Y678826D01*
X-99568Y679214D01*
D02*
G37*
G36*
X-85598Y679468D02*
X-87549Y679080D01*
X-89203Y677975D01*
X-90308Y676321D01*
X-90696Y674370D01*
X-90308Y672419D01*
X-89203Y670765D01*
X-87549Y669660D01*
X-85598Y669272D01*
X-83647Y669660D01*
X-81993Y670765D01*
X-80888Y672419D01*
X-80500Y674370D01*
X-80888Y676321D01*
X-81993Y677975D01*
X-83647Y679080D01*
X-85598Y679468D01*
D02*
G37*
G36*
X360730Y882000D02*
X356500D01*
X351000Y876500D01*
Y872270D01*
X360730D01*
Y882000D01*
D02*
G37*
G36*
X367500D02*
X363270D01*
Y872270D01*
X373000D01*
Y876500D01*
X367500Y882000D01*
D02*
G37*
G36*
X336600Y881591D02*
X333859Y881230D01*
X331305Y880172D01*
X329111Y878489D01*
X327428Y876295D01*
X326370Y873741D01*
X326009Y871000D01*
X326370Y868259D01*
X326857Y867083D01*
X306967Y847193D01*
X306074Y845856D01*
X305761Y844280D01*
Y799119D01*
X196706D01*
X178917Y816908D01*
X178710Y817951D01*
X177605Y819605D01*
X175951Y820710D01*
X174000Y821098D01*
X172049Y820710D01*
X170395Y819605D01*
X169290Y817951D01*
X168902Y816000D01*
X169290Y814049D01*
X170395Y812395D01*
X172049Y811290D01*
X173092Y811083D01*
X192087Y792087D01*
X193424Y791194D01*
X195000Y790881D01*
X332165D01*
X333049Y790290D01*
X335000Y789902D01*
X336951Y790290D01*
X338605Y791395D01*
X339710Y793049D01*
X340098Y795000D01*
X339710Y796951D01*
X338605Y798605D01*
X336951Y799710D01*
X335000Y800098D01*
X333049Y799710D01*
X332165Y799119D01*
X313999D01*
Y842574D01*
X332683Y861257D01*
X333859Y860770D01*
X336600Y860409D01*
X339341Y860770D01*
X341895Y861828D01*
X344089Y863511D01*
X345772Y865705D01*
X346830Y868259D01*
X347191Y871000D01*
X346830Y873741D01*
X345772Y876295D01*
X344089Y878489D01*
X341895Y880172D01*
X339341Y881230D01*
X336600Y881591D01*
D02*
G37*
G36*
X360730Y869730D02*
X351000D01*
Y865500D01*
X356500Y860000D01*
X360730D01*
Y869730D01*
D02*
G37*
G36*
X373000D02*
X363270D01*
Y860000D01*
X367500D01*
X373000Y865500D01*
Y869730D01*
D02*
G37*
G36*
X149480Y901480D02*
X139750D01*
Y897250D01*
X145250Y891750D01*
X149480D01*
Y901480D01*
D02*
G37*
G36*
Y913750D02*
X145250D01*
X139750Y908250D01*
Y904020D01*
X149480D01*
Y913750D01*
D02*
G37*
G36*
X156250D02*
X152020D01*
Y904020D01*
X161750D01*
Y908250D01*
X156250Y913750D01*
D02*
G37*
G36*
X201550Y913341D02*
X198809Y912980D01*
X196255Y911922D01*
X194061Y910239D01*
X192378Y908045D01*
X191320Y905491D01*
X190959Y902750D01*
X191320Y900009D01*
X192378Y897455D01*
X194061Y895261D01*
X196255Y893578D01*
X198809Y892520D01*
X201550Y892159D01*
X204291Y892520D01*
X206845Y893578D01*
X209039Y895261D01*
X210722Y897455D01*
X211780Y900009D01*
X212141Y902750D01*
X211780Y905491D01*
X210722Y908045D01*
X209039Y910239D01*
X206845Y911922D01*
X204291Y912980D01*
X201550Y913341D01*
D02*
G37*
G36*
X161750Y901480D02*
X152020D01*
Y891750D01*
X156250D01*
X161750Y897250D01*
Y901480D01*
D02*
G37*
G36*
X176150Y913341D02*
X173409Y912980D01*
X170855Y911922D01*
X168661Y910239D01*
X166978Y908045D01*
X165920Y905491D01*
X165559Y902750D01*
X165920Y900009D01*
X166978Y897455D01*
X168661Y895261D01*
X170855Y893578D01*
X173409Y892520D01*
X176150Y892159D01*
X178891Y892520D01*
X181445Y893578D01*
X183639Y895261D01*
X185322Y897455D01*
X186380Y900009D01*
X186741Y902750D01*
X186380Y905491D01*
X185322Y908045D01*
X183639Y910239D01*
X181445Y911922D01*
X178891Y912980D01*
X176150Y913341D01*
D02*
G37*
G36*
X11652Y865558D02*
X9701Y865170D01*
X8048Y864064D01*
X6942Y862411D01*
X6554Y860460D01*
X6942Y858509D01*
X8048Y856855D01*
X9701Y855750D01*
X11652Y855362D01*
X13603Y855750D01*
X15257Y856855D01*
X16362Y858509D01*
X16750Y860460D01*
X16362Y862411D01*
X15257Y864064D01*
X13603Y865170D01*
X11652Y865558D01*
D02*
G37*
G36*
X484632Y795799D02*
Y787654D01*
X492777D01*
X492617Y788864D01*
X491660Y791175D01*
X490137Y793159D01*
X488153Y794682D01*
X485842Y795639D01*
X484632Y795799D01*
D02*
G37*
G36*
X411988Y811548D02*
X410037Y811160D01*
X408383Y810055D01*
X407278Y808401D01*
X406890Y806450D01*
X407278Y804499D01*
X408383Y802845D01*
X410037Y801740D01*
X411988Y801352D01*
X413939Y801740D01*
X415593Y802845D01*
X415945Y803372D01*
X453582D01*
X454103Y802591D01*
X455757Y801486D01*
X457708Y801098D01*
X459659Y801486D01*
X461313Y802591D01*
X462418Y804245D01*
X462806Y806196D01*
X462418Y808147D01*
X461313Y809801D01*
X459659Y810906D01*
X457708Y811294D01*
X455757Y810906D01*
X454103Y809801D01*
X453582Y809020D01*
X416284D01*
X415593Y810055D01*
X413939Y811160D01*
X411988Y811548D01*
D02*
G37*
G36*
X482092Y795799D02*
X480882Y795639D01*
X478571Y794682D01*
X476586Y793159D01*
X475064Y791175D01*
X474106Y788864D01*
X473947Y787654D01*
X482092D01*
Y795799D01*
D02*
G37*
G36*
X432562Y795462D02*
X430213Y795152D01*
X428023Y794246D01*
X426143Y792803D01*
X424701Y790923D01*
X423794Y788734D01*
X423484Y786384D01*
X423794Y784035D01*
X424701Y781845D01*
X426143Y779965D01*
X428023Y778522D01*
X430213Y777616D01*
X432562Y777306D01*
X434911Y777616D01*
X437101Y778522D01*
X438981Y779965D01*
X440424Y781845D01*
X441330Y784035D01*
X441640Y786384D01*
X441330Y788734D01*
X440424Y790923D01*
X438981Y792803D01*
X437101Y794246D01*
X434911Y795152D01*
X432562Y795462D01*
D02*
G37*
G36*
X457962D02*
X455612Y795152D01*
X453423Y794246D01*
X451543Y792803D01*
X450101Y790923D01*
X449194Y788734D01*
X448884Y786384D01*
X449194Y784035D01*
X450101Y781845D01*
X451543Y779965D01*
X453423Y778522D01*
X455612Y777616D01*
X457962Y777306D01*
X460312Y777616D01*
X462501Y778522D01*
X464381Y779965D01*
X465824Y781845D01*
X466730Y784035D01*
X467040Y786384D01*
X466730Y788734D01*
X465824Y790923D01*
X464381Y792803D01*
X462501Y794246D01*
X460312Y795152D01*
X457962Y795462D01*
D02*
G37*
G36*
X14110Y807145D02*
X13487Y807063D01*
X11724Y806333D01*
X10209Y805171D01*
X9830Y804677D01*
X8230D01*
X7851Y805171D01*
X6336Y806333D01*
X4573Y807063D01*
X3950Y807145D01*
Y800000D01*
X1410D01*
Y807145D01*
X787Y807063D01*
X-976Y806333D01*
X-2491Y805171D01*
X-3185Y804266D01*
X-4692Y804190D01*
X-4749Y804219D01*
X-5206Y804814D01*
X-6616Y805896D01*
X-8258Y806576D01*
X-10020Y806808D01*
X-11782Y806576D01*
X-13424Y805896D01*
X-14834Y804814D01*
X-15613Y803799D01*
X-15915Y803701D01*
X-16825D01*
X-17127Y803799D01*
X-17906Y804814D01*
X-19316Y805896D01*
X-20958Y806576D01*
X-22720Y806808D01*
X-24482Y806576D01*
X-26124Y805896D01*
X-27534Y804814D01*
X-28616Y803404D01*
X-29296Y801762D01*
X-29528Y800000D01*
X-29296Y798238D01*
X-28616Y796596D01*
X-27534Y795186D01*
X-26519Y794407D01*
X-26421Y794105D01*
Y793195D01*
X-26519Y792893D01*
X-27534Y792114D01*
X-28616Y790704D01*
X-29296Y789062D01*
X-29528Y787300D01*
X-29296Y785538D01*
X-28616Y783896D01*
X-27534Y782486D01*
X-26124Y781404D01*
X-25544Y781164D01*
Y770030D01*
X-25544Y770030D01*
X-25329Y768949D01*
X-24717Y768033D01*
X-8187Y751503D01*
X-8187Y751503D01*
X-7271Y750891D01*
X-6190Y750676D01*
X172624D01*
X173145Y749895D01*
X174799Y748790D01*
X176750Y748402D01*
X178701Y748790D01*
X180355Y749895D01*
X181460Y751549D01*
X181848Y753500D01*
X181460Y755451D01*
X180355Y757105D01*
X178701Y758210D01*
X176750Y758598D01*
X174799Y758210D01*
X173145Y757105D01*
X172624Y756324D01*
X-5020D01*
X-19896Y771200D01*
Y781164D01*
X-19316Y781404D01*
X-17906Y782486D01*
X-17127Y783501D01*
X-16825Y783599D01*
X-15915D01*
X-15613Y783501D01*
X-14834Y782486D01*
X-13424Y781404D01*
X-12844Y781164D01*
Y774270D01*
X-12844Y774270D01*
X-12629Y773189D01*
X-12017Y772273D01*
X-2747Y763003D01*
X-2747Y763003D01*
X-1831Y762391D01*
X-750Y762176D01*
X-750Y762176D01*
X133624D01*
X134145Y761395D01*
X135799Y760290D01*
X137750Y759902D01*
X139701Y760290D01*
X141355Y761395D01*
X142460Y763049D01*
X142848Y765000D01*
X142460Y766951D01*
X141355Y768605D01*
X139701Y769710D01*
X137750Y770098D01*
X135799Y769710D01*
X134145Y768605D01*
X133624Y767824D01*
X119540D01*
X119154Y769094D01*
X119605Y769395D01*
X120710Y771049D01*
X121098Y773000D01*
X120710Y774951D01*
X119605Y776605D01*
X117951Y777710D01*
X116000Y778098D01*
X114049Y777710D01*
X112395Y776605D01*
X112208Y776324D01*
X8170D01*
X5504Y778990D01*
Y781164D01*
X6084Y781404D01*
X7494Y782486D01*
X8273Y783501D01*
X8575Y783599D01*
X9485D01*
X9787Y783501D01*
X10566Y782486D01*
X11976Y781404D01*
X13618Y780724D01*
X15380Y780492D01*
X17142Y780724D01*
X18784Y781404D01*
X20194Y782486D01*
X20973Y783501D01*
X21275Y783599D01*
X22185D01*
X22487Y783501D01*
X23266Y782486D01*
X24676Y781404D01*
X26318Y780724D01*
X28080Y780492D01*
X29842Y780724D01*
X31484Y781404D01*
X32894Y782486D01*
X33976Y783896D01*
X34656Y785538D01*
X34888Y787300D01*
X34656Y789062D01*
X33976Y790704D01*
X32894Y792114D01*
X32453Y792452D01*
X32343Y794138D01*
X34830Y796625D01*
Y803375D01*
X31455Y806750D01*
X24705D01*
X22350Y804395D01*
X21082Y804478D01*
X20551Y805171D01*
X19036Y806333D01*
X17273Y807063D01*
X16650Y807145D01*
Y800000D01*
X14110D01*
Y807145D01*
D02*
G37*
G36*
X362000Y856191D02*
X359259Y855830D01*
X356705Y854772D01*
X354511Y853089D01*
X352828Y850895D01*
X351770Y848341D01*
X351409Y845600D01*
X351770Y842859D01*
X352828Y840305D01*
X354511Y838111D01*
X356705Y836428D01*
X359259Y835370D01*
X362000Y835009D01*
X364741Y835370D01*
X367295Y836428D01*
X369489Y838111D01*
X371172Y840305D01*
X372230Y842859D01*
X372415Y844266D01*
X385002D01*
X385523Y843485D01*
X387177Y842380D01*
X389128Y841992D01*
X391079Y842380D01*
X392733Y843485D01*
X393838Y845139D01*
X394226Y847090D01*
X393838Y849041D01*
X392733Y850695D01*
X391079Y851800D01*
X389128Y852188D01*
X387177Y851800D01*
X385523Y850695D01*
X385002Y849914D01*
X371578D01*
X371172Y850895D01*
X369489Y853089D01*
X367295Y854772D01*
X364741Y855830D01*
X362000Y856191D01*
D02*
G37*
G36*
X-7338Y852924D02*
X-9289Y852535D01*
X-10943Y851430D01*
X-12048Y849777D01*
X-12436Y847826D01*
X-12048Y845875D01*
X-10943Y844221D01*
X-9289Y843116D01*
X-7338Y842728D01*
X-5387Y843116D01*
X-3733Y844221D01*
X-2628Y845875D01*
X-2240Y847826D01*
X-2628Y849777D01*
X-3733Y851430D01*
X-5387Y852535D01*
X-7338Y852924D01*
D02*
G37*
G36*
X336600Y856191D02*
X333859Y855830D01*
X331305Y854772D01*
X329111Y853089D01*
X327428Y850895D01*
X326370Y848341D01*
X326009Y845600D01*
X326370Y842859D01*
X327428Y840305D01*
X329111Y838111D01*
X331305Y836428D01*
X333859Y835370D01*
X336600Y835009D01*
X339341Y835370D01*
X341895Y836428D01*
X344089Y838111D01*
X345772Y840305D01*
X346830Y842859D01*
X347191Y845600D01*
X346830Y848341D01*
X345772Y850895D01*
X344089Y853089D01*
X341895Y854772D01*
X339341Y855830D01*
X336600Y856191D01*
D02*
G37*
G36*
Y830791D02*
X333859Y830430D01*
X331305Y829372D01*
X329111Y827689D01*
X327428Y825495D01*
X326370Y822941D01*
X326009Y820200D01*
X326370Y817459D01*
X327428Y814905D01*
X329111Y812711D01*
X331305Y811028D01*
X333859Y809970D01*
X336600Y809609D01*
X339341Y809970D01*
X341895Y811028D01*
X344089Y812711D01*
X345772Y814905D01*
X346830Y817459D01*
X347191Y820200D01*
X346830Y822941D01*
X345772Y825495D01*
X344089Y827689D01*
X341895Y829372D01*
X339341Y830430D01*
X336600Y830791D01*
D02*
G37*
G36*
X461000Y929111D02*
X454264Y928669D01*
X447642Y927352D01*
X441250Y925182D01*
X435195Y922196D01*
X429582Y918446D01*
X424506Y913994D01*
X420055Y908919D01*
X416304Y903305D01*
X413318Y897251D01*
X411148Y890858D01*
X409831Y884237D01*
X409390Y877500D01*
X409831Y870764D01*
X411148Y864142D01*
X413318Y857750D01*
X416304Y851695D01*
X420055Y846082D01*
X424506Y841006D01*
X429582Y836555D01*
X435195Y832804D01*
X441250Y829818D01*
X445650Y828324D01*
X445441Y827054D01*
X381508D01*
X381508Y827054D01*
X380427Y826839D01*
X379511Y826227D01*
X379511Y826227D01*
X376308Y823024D01*
X372195D01*
X371172Y825495D01*
X369489Y827689D01*
X367295Y829372D01*
X364741Y830430D01*
X362000Y830791D01*
X359259Y830430D01*
X356705Y829372D01*
X354511Y827689D01*
X352828Y825495D01*
X351770Y822941D01*
X351409Y820200D01*
X351770Y817459D01*
X352828Y814905D01*
X354511Y812711D01*
X356705Y811028D01*
X359259Y809970D01*
X362000Y809609D01*
X364741Y809970D01*
X367295Y811028D01*
X369489Y812711D01*
X371172Y814905D01*
X372195Y817376D01*
X377478D01*
X377478Y817376D01*
X378559Y817591D01*
X379475Y818203D01*
X382678Y821406D01*
X386034D01*
X386419Y820136D01*
X385777Y819707D01*
X384672Y818053D01*
X384284Y816102D01*
X384672Y814151D01*
X385777Y812497D01*
X387431Y811392D01*
X389382Y811004D01*
X391333Y811392D01*
X392987Y812497D01*
X393848Y813786D01*
X497778D01*
X498299Y813005D01*
X499953Y811900D01*
X501904Y811512D01*
X503855Y811900D01*
X505509Y813005D01*
X506614Y814659D01*
X507002Y816610D01*
X506614Y818561D01*
X507449Y819597D01*
X508508Y819386D01*
X510459Y819774D01*
X512113Y820879D01*
X513218Y822533D01*
X513606Y824484D01*
X513218Y826435D01*
X512113Y828089D01*
X510459Y829194D01*
X508508Y829582D01*
X506557Y829194D01*
X504903Y828089D01*
X504212Y827054D01*
X476559D01*
X476350Y828324D01*
X480751Y829818D01*
X486805Y832804D01*
X492419Y836555D01*
X497494Y841006D01*
X501945Y846082D01*
X505696Y851695D01*
X508682Y857750D01*
X510852Y864142D01*
X512169Y870764D01*
X512611Y877500D01*
X512169Y884237D01*
X510852Y890858D01*
X508682Y897251D01*
X505696Y903305D01*
X501945Y908919D01*
X497494Y913994D01*
X492419Y918446D01*
X486805Y922196D01*
X480751Y925182D01*
X474358Y927352D01*
X467737Y928669D01*
X461000Y929111D01*
D02*
G37*
G36*
X-30480Y636542D02*
X-32431Y636154D01*
X-34085Y635049D01*
X-35190Y633395D01*
X-35578Y631444D01*
X-35364Y630371D01*
X-51690Y614045D01*
X-52274Y613171D01*
X-52479Y612140D01*
Y583333D01*
X-53389Y582725D01*
X-54494Y581071D01*
X-54882Y579120D01*
X-54494Y577169D01*
X-53389Y575515D01*
X-51735Y574410D01*
X-49784Y574022D01*
X-47833Y574410D01*
X-46179Y575515D01*
X-45074Y577169D01*
X-44686Y579120D01*
X-45074Y581071D01*
X-46179Y582725D01*
X-47089Y583333D01*
Y611024D01*
X-31553Y626560D01*
X-30480Y626346D01*
X-28529Y626734D01*
X-26875Y627839D01*
X-25770Y629493D01*
X-25382Y631444D01*
X-25770Y633395D01*
X-26875Y635049D01*
X-28529Y636154D01*
X-30480Y636542D01*
D02*
G37*
G36*
X297000Y539098D02*
X295049Y538710D01*
X293395Y537605D01*
X292290Y535951D01*
X291902Y534000D01*
X292290Y532049D01*
X293395Y530395D01*
X295049Y529290D01*
X297000Y528902D01*
X298951Y529290D01*
X300605Y530395D01*
X301710Y532049D01*
X302098Y534000D01*
X301710Y535951D01*
X300605Y537605D01*
X298951Y538710D01*
X297000Y539098D01*
D02*
G37*
G36*
X312000D02*
X310049Y538710D01*
X308395Y537605D01*
X307290Y535951D01*
X306902Y534000D01*
X307290Y532049D01*
X308395Y530395D01*
X310049Y529290D01*
X312000Y528902D01*
X313951Y529290D01*
X315605Y530395D01*
X316710Y532049D01*
X317098Y534000D01*
X316710Y535951D01*
X315605Y537605D01*
X313951Y538710D01*
X312000Y539098D01*
D02*
G37*
G36*
Y527098D02*
X310049Y526710D01*
X308395Y525605D01*
X307290Y523951D01*
X306902Y522000D01*
X307290Y520049D01*
X308395Y518395D01*
X310049Y517290D01*
X312000Y516902D01*
X313951Y517290D01*
X315605Y518395D01*
X316710Y520049D01*
X317098Y522000D01*
X316710Y523951D01*
X315605Y525605D01*
X313951Y526710D01*
X312000Y527098D01*
D02*
G37*
G36*
X201000Y534098D02*
X199049Y533710D01*
X197395Y532605D01*
X196290Y530951D01*
X195902Y529000D01*
X196290Y527049D01*
X197395Y525395D01*
X199049Y524290D01*
X201000Y523902D01*
X202951Y524290D01*
X204605Y525395D01*
X205710Y527049D01*
X206098Y529000D01*
X205710Y530951D01*
X204605Y532605D01*
X202951Y533710D01*
X201000Y534098D01*
D02*
G37*
G36*
X431038Y539805D02*
X428657Y539491D01*
X426439Y538572D01*
X424534Y537110D01*
X423072Y535205D01*
X422336Y533430D01*
X389740D01*
X389004Y535205D01*
X387542Y537110D01*
X385637Y538572D01*
X383419Y539491D01*
X381038Y539805D01*
X378657Y539491D01*
X376439Y538572D01*
X374534Y537110D01*
X373072Y535205D01*
X372153Y532987D01*
X371839Y530606D01*
X372153Y528225D01*
X373072Y526007D01*
X374534Y524101D01*
X376439Y522640D01*
X378657Y521721D01*
X381038Y521407D01*
X383419Y521721D01*
X385637Y522640D01*
X387542Y524101D01*
X389004Y526007D01*
X389740Y527782D01*
X422336D01*
X423072Y526007D01*
X424534Y524101D01*
X426439Y522640D01*
X428657Y521721D01*
X431038Y521407D01*
X433419Y521721D01*
X435637Y522640D01*
X437542Y524101D01*
X439004Y526007D01*
X439923Y528225D01*
X440237Y530606D01*
X439923Y532987D01*
X439004Y535205D01*
X437542Y537110D01*
X435637Y538572D01*
X433419Y539491D01*
X431038Y539805D01*
D02*
G37*
G36*
X-254Y566438D02*
X-2205Y566050D01*
X-3859Y564945D01*
X-4964Y563291D01*
X-5352Y561340D01*
X-4964Y559389D01*
X-3859Y557735D01*
X-2517Y556839D01*
X-2438Y556534D01*
Y555732D01*
X-2517Y555427D01*
X-3859Y554531D01*
X-4964Y552877D01*
X-5352Y550926D01*
X-4964Y548975D01*
X-3859Y547321D01*
X-2205Y546216D01*
X-254Y545828D01*
X1697Y546216D01*
X3351Y547321D01*
X4456Y548975D01*
X4844Y550926D01*
X4456Y552877D01*
X3351Y554531D01*
X2009Y555427D01*
X1930Y555732D01*
Y556534D01*
X2009Y556839D01*
X3351Y557735D01*
X4456Y559389D01*
X4844Y561340D01*
X4456Y563291D01*
X3351Y564945D01*
X1697Y566050D01*
X-254Y566438D01*
D02*
G37*
G36*
X-12954Y556532D02*
X-14905Y556144D01*
X-16559Y555039D01*
X-17664Y553385D01*
X-18052Y551434D01*
X-17664Y549483D01*
X-16559Y547829D01*
X-14905Y546724D01*
X-12954Y546336D01*
X-11003Y546724D01*
X-9349Y547829D01*
X-8244Y549483D01*
X-7856Y551434D01*
X-8244Y553385D01*
X-9349Y555039D01*
X-11003Y556144D01*
X-12954Y556532D01*
D02*
G37*
G36*
X160000Y553098D02*
X158049Y552710D01*
X156395Y551605D01*
X155290Y549951D01*
X154902Y548000D01*
X155290Y546049D01*
X156395Y544395D01*
X158049Y543290D01*
X160000Y542902D01*
X161951Y543290D01*
X163605Y544395D01*
X164710Y546049D01*
X165098Y548000D01*
X164710Y549951D01*
X163605Y551605D01*
X161951Y552710D01*
X160000Y553098D01*
D02*
G37*
G36*
X26332Y591652D02*
X15832D01*
X10582Y586402D01*
Y575902D01*
X11535Y574949D01*
X10962Y573726D01*
X9935Y573300D01*
X9459Y572152D01*
Y564152D01*
X9935Y563004D01*
X11083Y562529D01*
X11611D01*
X12173Y561390D01*
X11910Y561047D01*
X10852Y558493D01*
X10491Y555752D01*
X10852Y553011D01*
X11910Y550457D01*
X13593Y548263D01*
X15787Y546580D01*
X18341Y545522D01*
X21082Y545161D01*
X23823Y545522D01*
X26377Y546580D01*
X28571Y548263D01*
X30254Y550457D01*
X31312Y553011D01*
X31673Y555752D01*
X31312Y558493D01*
X30254Y561047D01*
X29991Y561390D01*
X30553Y562529D01*
X31083D01*
X32231Y563004D01*
X32706Y564152D01*
Y572152D01*
X32231Y573300D01*
X31202Y573726D01*
X30629Y574949D01*
X31582Y575902D01*
Y586402D01*
X26332Y591652D01*
D02*
G37*
G36*
X297000Y527098D02*
X295049Y526710D01*
X293395Y525605D01*
X292290Y523951D01*
X291902Y522000D01*
X292290Y520049D01*
X293395Y518395D01*
X295049Y517290D01*
X297000Y516902D01*
X298951Y517290D01*
X300605Y518395D01*
X301710Y520049D01*
X302098Y522000D01*
X301710Y523951D01*
X300605Y525605D01*
X298951Y526710D01*
X297000Y527098D01*
D02*
G37*
G36*
X-152500Y511730D02*
X-160730D01*
Y503500D01*
X-152500D01*
Y511730D01*
D02*
G37*
G36*
X-136600Y522078D02*
X-138949Y521768D01*
X-141139Y520861D01*
X-143019Y519419D01*
X-144461Y517539D01*
X-145368Y515350D01*
X-145678Y513000D01*
X-145368Y510650D01*
X-144461Y508461D01*
X-143019Y506581D01*
X-141139Y505139D01*
X-138949Y504232D01*
X-136600Y503922D01*
X-134250Y504232D01*
X-132061Y505139D01*
X-130181Y506581D01*
X-128739Y508461D01*
X-127832Y510650D01*
X-127522Y513000D01*
X-127832Y515350D01*
X-128739Y517539D01*
X-130181Y519419D01*
X-132061Y520861D01*
X-134250Y521768D01*
X-136600Y522078D01*
D02*
G37*
G36*
X296999Y513097D02*
X295049Y512709D01*
X293395Y511604D01*
X292290Y509950D01*
X291901Y507999D01*
X292290Y506048D01*
X293395Y504394D01*
X295049Y503289D01*
X296999Y502901D01*
X298950Y503289D01*
X300604Y504394D01*
X301709Y506048D01*
X302097Y507999D01*
X301709Y509950D01*
X300604Y511604D01*
X298950Y512709D01*
X296999Y513097D01*
D02*
G37*
G36*
X-163270Y511730D02*
X-171500D01*
Y503500D01*
X-163270D01*
Y511730D01*
D02*
G37*
G36*
X1524Y524974D02*
X-427Y524586D01*
X-2081Y523481D01*
X-3186Y521827D01*
X-3574Y519876D01*
X-3186Y517925D01*
X-2081Y516271D01*
X-427Y515166D01*
X1524Y514778D01*
X3475Y515166D01*
X5129Y516271D01*
X5248Y516450D01*
X6518Y516064D01*
Y510688D01*
X5248Y510302D01*
X5129Y510481D01*
X3475Y511586D01*
X1524Y511974D01*
X-427Y511586D01*
X-2081Y510481D01*
X-3186Y508827D01*
X-3574Y506876D01*
X-3186Y504925D01*
X-2081Y503271D01*
X-427Y502166D01*
X1524Y501778D01*
X3475Y502166D01*
X5129Y503271D01*
X6181Y504847D01*
X6283Y504936D01*
X7590Y505234D01*
X11768Y501056D01*
X22268D01*
X23221Y502009D01*
X24444Y501436D01*
X24870Y500409D01*
X26018Y499933D01*
X34018D01*
X35166Y500409D01*
X35641Y501557D01*
Y502085D01*
X36780Y502647D01*
X37123Y502384D01*
X39677Y501326D01*
X42418Y500965D01*
X45159Y501326D01*
X47713Y502384D01*
X49907Y504067D01*
X51590Y506261D01*
X52648Y508815D01*
X53009Y511556D01*
X52648Y514297D01*
X51590Y516851D01*
X49907Y519045D01*
X47713Y520728D01*
X45159Y521786D01*
X42418Y522147D01*
X39677Y521786D01*
X37123Y520728D01*
X36781Y520465D01*
X35642Y521027D01*
Y521557D01*
X35166Y522705D01*
X34018Y523180D01*
X26018D01*
X24870Y522705D01*
X24444Y521676D01*
X23221Y521103D01*
X22268Y522056D01*
X11768D01*
X7502Y517790D01*
X6331Y518415D01*
X6622Y519876D01*
X6234Y521827D01*
X5129Y523481D01*
X3475Y524586D01*
X1524Y524974D01*
D02*
G37*
G36*
X-152500Y522500D02*
X-160730D01*
Y514270D01*
X-152500D01*
Y522500D01*
D02*
G37*
G36*
X-13476Y524974D02*
X-15427Y524586D01*
X-17081Y523481D01*
X-18186Y521827D01*
X-18574Y519876D01*
X-18186Y517925D01*
X-17081Y516271D01*
X-15427Y515166D01*
X-13476Y514778D01*
X-11525Y515166D01*
X-9871Y516271D01*
X-8766Y517925D01*
X-8378Y519876D01*
X-8766Y521827D01*
X-9871Y523481D01*
X-11525Y524586D01*
X-13476Y524974D01*
D02*
G37*
G36*
X388366Y521988D02*
X386415Y521600D01*
X384761Y520495D01*
X383656Y518841D01*
X383268Y516890D01*
X383574Y515352D01*
X382907Y514399D01*
X382625Y514196D01*
X381038Y514405D01*
X378657Y514091D01*
X376439Y513172D01*
X374534Y511711D01*
X373072Y509805D01*
X372153Y507587D01*
X371839Y505206D01*
X372153Y502825D01*
X373072Y500607D01*
X374534Y498702D01*
X376439Y497240D01*
X378657Y496321D01*
X381038Y496007D01*
X383419Y496321D01*
X385637Y497240D01*
X387542Y498702D01*
X389004Y500607D01*
X389667Y502207D01*
X422685Y501539D01*
X423072Y500607D01*
X424534Y498702D01*
X426439Y497240D01*
X428657Y496321D01*
X431038Y496007D01*
X433419Y496321D01*
X435637Y497240D01*
X437542Y498702D01*
X438807Y500350D01*
X474918D01*
X475439Y499569D01*
X477093Y498464D01*
X479044Y498076D01*
X480995Y498464D01*
X482649Y499569D01*
X483754Y501223D01*
X484142Y503174D01*
X483944Y504167D01*
X485115Y504793D01*
X488607Y501301D01*
X488424Y500380D01*
X488812Y498429D01*
X489238Y497791D01*
X489237Y497752D01*
X488596Y496467D01*
X487253Y496200D01*
X485599Y495095D01*
X485247Y494568D01*
X374204D01*
X373683Y495349D01*
X372029Y496454D01*
X370078Y496842D01*
X368127Y496454D01*
X366473Y495349D01*
X365368Y493695D01*
X364980Y491744D01*
X365368Y489793D01*
X366473Y488139D01*
X368127Y487034D01*
X370078Y486646D01*
X372029Y487034D01*
X373683Y488139D01*
X374204Y488920D01*
X375927D01*
X376238Y488223D01*
X376279Y487650D01*
X374534Y486311D01*
X373072Y484405D01*
X372153Y482187D01*
X371839Y479806D01*
X372153Y477425D01*
X373072Y475207D01*
X374534Y473302D01*
X376439Y471840D01*
X378657Y470921D01*
X381038Y470607D01*
X383419Y470921D01*
X385637Y471840D01*
X387542Y473302D01*
X389004Y475207D01*
X389740Y476982D01*
X411419D01*
X412145Y475895D01*
X413799Y474790D01*
X415750Y474402D01*
X417701Y474790D01*
X419355Y475895D01*
X420081Y476982D01*
X422336D01*
X423072Y475207D01*
X424534Y473302D01*
X426439Y471840D01*
X428657Y470921D01*
X431038Y470607D01*
X433419Y470921D01*
X435637Y471840D01*
X437542Y473302D01*
X439004Y475207D01*
X439923Y477425D01*
X440237Y479806D01*
X439923Y482187D01*
X439004Y484405D01*
X437542Y486311D01*
X435797Y487650D01*
X435838Y488223D01*
X436149Y488920D01*
X484908D01*
X485599Y487885D01*
X487253Y486780D01*
X489204Y486392D01*
X491155Y486780D01*
X492809Y487885D01*
X493914Y489539D01*
X494302Y491490D01*
X493914Y493441D01*
X493488Y494079D01*
X493489Y494118D01*
X494130Y495403D01*
X495473Y495670D01*
X497127Y496775D01*
X498232Y498429D01*
X498620Y500380D01*
X498232Y502331D01*
X497127Y503985D01*
X495473Y505090D01*
X493522Y505478D01*
X492601Y505295D01*
X479009Y518887D01*
X478093Y519499D01*
X477012Y519714D01*
X477012Y519714D01*
X392492D01*
X391971Y520495D01*
X390317Y521600D01*
X388366Y521988D01*
D02*
G37*
G36*
X-163270Y522500D02*
X-171500D01*
Y514270D01*
X-163270D01*
Y522500D01*
D02*
G37*
G36*
X-164070Y563730D02*
X-172215D01*
X-172055Y562520D01*
X-171098Y560209D01*
X-169576Y558224D01*
X-167591Y556702D01*
X-165280Y555745D01*
X-164070Y555585D01*
Y563730D01*
D02*
G37*
G36*
X99400Y625463D02*
X97185Y625172D01*
X95121Y624317D01*
X93348Y622957D01*
X91988Y621184D01*
X91133Y619120D01*
X90842Y616905D01*
Y613095D01*
X91133Y610880D01*
X91988Y608816D01*
X93348Y607043D01*
X95121Y605683D01*
X97185Y604828D01*
X99400Y604537D01*
X101615Y604828D01*
X103679Y605683D01*
X105452Y607043D01*
X106812Y608816D01*
X107667Y610880D01*
X107958Y613095D01*
Y616905D01*
X107667Y619120D01*
X106812Y621184D01*
X105452Y622957D01*
X103679Y624317D01*
X101615Y625172D01*
X99400Y625463D01*
D02*
G37*
G36*
X124800D02*
X122585Y625172D01*
X120521Y624317D01*
X118748Y622957D01*
X117388Y621184D01*
X116533Y619120D01*
X116242Y616905D01*
Y613095D01*
X116533Y610880D01*
X117388Y608816D01*
X118748Y607043D01*
X120521Y605683D01*
X122585Y604828D01*
X124800Y604537D01*
X127015Y604828D01*
X129079Y605683D01*
X130852Y607043D01*
X132212Y608816D01*
X133067Y610880D01*
X133358Y613095D01*
Y616905D01*
X133067Y619120D01*
X132212Y621184D01*
X130852Y622957D01*
X129079Y624317D01*
X127015Y625172D01*
X124800Y625463D01*
D02*
G37*
G36*
X74000D02*
X71785Y625172D01*
X69721Y624317D01*
X67948Y622957D01*
X66588Y621184D01*
X65733Y619120D01*
X65442Y616905D01*
Y613095D01*
X65733Y610880D01*
X66588Y608816D01*
X67948Y607043D01*
X69721Y605683D01*
X71785Y604828D01*
X74000Y604537D01*
X76215Y604828D01*
X78279Y605683D01*
X80052Y607043D01*
X81412Y608816D01*
X82267Y610880D01*
X82558Y613095D01*
Y616905D01*
X82267Y619120D01*
X81412Y621184D01*
X80052Y622957D01*
X78279Y624317D01*
X76215Y625172D01*
X74000Y625463D01*
D02*
G37*
G36*
X148930Y613730D02*
X141138D01*
Y613095D01*
X141446Y610750D01*
X142352Y608564D01*
X143792Y606687D01*
X145669Y605247D01*
X147854Y604341D01*
X148930Y604200D01*
Y613730D01*
D02*
G37*
G36*
X159263D02*
X151470D01*
Y604200D01*
X152546Y604341D01*
X154731Y605247D01*
X156608Y606687D01*
X158048Y608564D01*
X158954Y610750D01*
X159263Y613095D01*
Y613730D01*
D02*
G37*
G36*
X175600Y625463D02*
X173385Y625172D01*
X171321Y624317D01*
X169548Y622957D01*
X168188Y621184D01*
X167333Y619120D01*
X167042Y616905D01*
Y613095D01*
X167333Y610880D01*
X168188Y608816D01*
X169548Y607043D01*
X171321Y605683D01*
X173385Y604828D01*
X175600Y604537D01*
X177815Y604828D01*
X179879Y605683D01*
X181652Y607043D01*
X183012Y608816D01*
X183867Y610880D01*
X184158Y613095D01*
Y616905D01*
X183867Y619120D01*
X183012Y621184D01*
X181652Y622957D01*
X179879Y624317D01*
X177815Y625172D01*
X175600Y625463D01*
D02*
G37*
G36*
X-91440Y663371D02*
X-94181Y663010D01*
X-96735Y661952D01*
X-98929Y660269D01*
X-100612Y658075D01*
X-101670Y655521D01*
X-102031Y652780D01*
X-101670Y650039D01*
X-100612Y647485D01*
X-100349Y647143D01*
X-100911Y646004D01*
X-101440D01*
X-102588Y645528D01*
X-103064Y644380D01*
Y636380D01*
X-102588Y635232D01*
X-101560Y634806D01*
X-100987Y633583D01*
X-101940Y632630D01*
Y622130D01*
X-96690Y616880D01*
X-86190D01*
X-80940Y622130D01*
Y632630D01*
X-81893Y633583D01*
X-81320Y634806D01*
X-80293Y635231D01*
X-79817Y636380D01*
Y644380D01*
X-80293Y645527D01*
X-81441Y646003D01*
X-81969D01*
X-82531Y647142D01*
X-82268Y647485D01*
X-81210Y650039D01*
X-80849Y652780D01*
X-81210Y655521D01*
X-82268Y658075D01*
X-83951Y660269D01*
X-86145Y661952D01*
X-88699Y663010D01*
X-91440Y663371D01*
D02*
G37*
G36*
X-149860Y635863D02*
X-151948Y635588D01*
X-153895Y634782D01*
X-155566Y633500D01*
X-156848Y631828D01*
X-157654Y629882D01*
X-157929Y627794D01*
X-157654Y625706D01*
X-156848Y623759D01*
X-155566Y622088D01*
X-153895Y620806D01*
X-151948Y620000D01*
X-149860Y619725D01*
X-147772Y620000D01*
X-145826Y620806D01*
X-144154Y622088D01*
X-142872Y623759D01*
X-142066Y625706D01*
X-141791Y627794D01*
X-142066Y629882D01*
X-142872Y631828D01*
X-144154Y633500D01*
X-145826Y634782D01*
X-147772Y635588D01*
X-149860Y635863D01*
D02*
G37*
G36*
X151470Y625800D02*
Y616270D01*
X159263D01*
Y616905D01*
X158954Y619251D01*
X158048Y621436D01*
X156608Y623313D01*
X154731Y624753D01*
X152546Y625659D01*
X151470Y625800D01*
D02*
G37*
G36*
X209485Y625390D02*
X192515D01*
Y604610D01*
X209485D01*
Y625390D01*
D02*
G37*
G36*
X148930Y625800D02*
X147854Y625659D01*
X145669Y624753D01*
X143792Y623313D01*
X142352Y621436D01*
X141446Y619251D01*
X141138Y616905D01*
Y616270D01*
X148930D01*
Y625800D01*
D02*
G37*
G36*
X308112Y604802D02*
X293112D01*
Y591802D01*
X308112D01*
Y604802D01*
D02*
G37*
G36*
X187000Y565098D02*
X185049Y564710D01*
X183395Y563605D01*
X182874Y562824D01*
X129126D01*
X128605Y563605D01*
X126951Y564710D01*
X125000Y565098D01*
X123049Y564710D01*
X121395Y563605D01*
X120290Y561951D01*
X119902Y560000D01*
X120290Y558049D01*
X121395Y556395D01*
X123049Y555290D01*
X125000Y554902D01*
X126951Y555290D01*
X128605Y556395D01*
X129126Y557176D01*
X182874D01*
X183395Y556395D01*
X185049Y555290D01*
X187000Y554902D01*
X188951Y555290D01*
X190605Y556395D01*
X191710Y558049D01*
X192098Y560000D01*
X191710Y561951D01*
X190605Y563605D01*
X188951Y564710D01*
X187000Y565098D01*
D02*
G37*
G36*
X99000D02*
X97049Y564710D01*
X95395Y563605D01*
X94874Y562824D01*
X66126D01*
X65605Y563605D01*
X63951Y564710D01*
X62000Y565098D01*
X60049Y564710D01*
X58395Y563605D01*
X57290Y561951D01*
X56902Y560000D01*
X57290Y558049D01*
X58395Y556395D01*
X60049Y555290D01*
X62000Y554902D01*
X63951Y555290D01*
X65605Y556395D01*
X66126Y557176D01*
X94874D01*
X95395Y556395D01*
X97049Y555290D01*
X99000Y554902D01*
X100951Y555290D01*
X102605Y556395D01*
X103710Y558049D01*
X104098Y560000D01*
X103710Y561951D01*
X102605Y563605D01*
X100951Y564710D01*
X99000Y565098D01*
D02*
G37*
G36*
X431038Y565205D02*
X428657Y564891D01*
X426439Y563972D01*
X424534Y562510D01*
X423072Y560605D01*
X422336Y558830D01*
X389740D01*
X389004Y560605D01*
X387542Y562510D01*
X385637Y563972D01*
X383419Y564891D01*
X381038Y565205D01*
X378657Y564891D01*
X376439Y563972D01*
X374534Y562510D01*
X373072Y560605D01*
X372153Y558387D01*
X371839Y556006D01*
X372153Y553625D01*
X373072Y551407D01*
X374534Y549501D01*
X376439Y548040D01*
X378657Y547121D01*
X381038Y546807D01*
X383419Y547121D01*
X385637Y548040D01*
X387542Y549501D01*
X389004Y551407D01*
X389740Y553182D01*
X422336D01*
X423072Y551407D01*
X424534Y549501D01*
X426439Y548040D01*
X428657Y547121D01*
X431038Y546807D01*
X433419Y547121D01*
X435637Y548040D01*
X437542Y549501D01*
X439004Y551407D01*
X439923Y553625D01*
X440237Y556006D01*
X439923Y558387D01*
X439004Y560605D01*
X437542Y562510D01*
X435637Y563972D01*
X433419Y564891D01*
X431038Y565205D01*
D02*
G37*
G36*
X-164070Y574415D02*
X-165280Y574255D01*
X-167591Y573298D01*
X-169576Y571775D01*
X-171098Y569791D01*
X-172055Y567480D01*
X-172215Y566270D01*
X-164070D01*
Y574415D01*
D02*
G37*
G36*
X49022Y565992D02*
X47071Y565604D01*
X45417Y564499D01*
X44312Y562845D01*
X43924Y560894D01*
X44312Y558943D01*
X45417Y557289D01*
X47071Y556184D01*
X49022Y555796D01*
X50973Y556184D01*
X52627Y557289D01*
X53732Y558943D01*
X54120Y560894D01*
X53732Y562845D01*
X52627Y564499D01*
X50973Y565604D01*
X49022Y565992D01*
D02*
G37*
G36*
X-153385Y563730D02*
X-161530D01*
Y555585D01*
X-160320Y555745D01*
X-158009Y556702D01*
X-156025Y558224D01*
X-154502Y560209D01*
X-153545Y562520D01*
X-153385Y563730D01*
D02*
G37*
G36*
X-161530Y574415D02*
Y566270D01*
X-153385D01*
X-153545Y567480D01*
X-154502Y569791D01*
X-156025Y571775D01*
X-158009Y573298D01*
X-160320Y574255D01*
X-161530Y574415D01*
D02*
G37*
%LPD*%
G36*
X345464Y162203D02*
Y162203D01*
X354354D01*
X354560Y162203D01*
X355624D01*
X355830Y162203D01*
X357348D01*
Y146153D01*
X355830D01*
X355624Y146153D01*
X354560D01*
X354354Y146153D01*
X345464D01*
Y144556D01*
X340252D01*
X339868Y145368D01*
X339812Y145826D01*
X343119Y149133D01*
X343119Y149133D01*
X343731Y150049D01*
X343946Y151130D01*
X343946Y151130D01*
Y161394D01*
X345216Y162291D01*
X345464Y162203D01*
D02*
G37*
G36*
X327630Y573088D02*
Y503074D01*
X315380Y490824D01*
X248606D01*
X248582Y490864D01*
X249301Y492134D01*
X311912D01*
X311912Y492134D01*
X312993Y492349D01*
X313909Y492961D01*
X325085Y504137D01*
X325697Y505053D01*
X325912Y506134D01*
X325912Y506134D01*
Y572728D01*
X327182Y573396D01*
X327630Y573088D01*
D02*
G37*
G36*
X235665Y503544D02*
X235040Y502374D01*
X234696Y502442D01*
X234696Y502442D01*
X139300D01*
X138779Y503223D01*
X138137Y503652D01*
X138522Y504922D01*
X234288D01*
X235665Y503544D01*
D02*
G37*
G36*
X146846Y529906D02*
X146395Y529605D01*
X145874Y528824D01*
X67170D01*
X66088Y529906D01*
X66614Y531176D01*
X146460D01*
X146846Y529906D01*
D02*
G37*
G36*
X135395Y539395D02*
X137049Y538290D01*
X138034Y538094D01*
X137908Y536824D01*
X75092D01*
X74966Y538094D01*
X75951Y538290D01*
X77605Y539395D01*
X78126Y540176D01*
X134874D01*
X135395Y539395D01*
D02*
G37*
G36*
X-2913Y783501D02*
X-2134Y782486D01*
X-724Y781404D01*
X-144Y781164D01*
Y777820D01*
X-144Y777820D01*
X71Y776739D01*
X683Y775823D01*
X5003Y771503D01*
X5003Y771503D01*
X5919Y770891D01*
X7000Y770676D01*
X111540D01*
X112395Y769395D01*
X112846Y769094D01*
X112460Y767824D01*
X420D01*
X-7196Y775440D01*
Y781164D01*
X-6616Y781404D01*
X-5206Y782486D01*
X-4427Y783501D01*
X-4125Y783599D01*
X-3215D01*
X-2913Y783501D01*
D02*
G37*
G36*
X497864Y820164D02*
X497305Y819434D01*
X393287D01*
X392613Y820184D01*
X393030Y821406D01*
X497298D01*
X497864Y820164D01*
D02*
G37*
G36*
X426238Y488223D02*
X426279Y487650D01*
X424534Y486311D01*
X423072Y484405D01*
X422336Y482630D01*
X419672D01*
X419355Y483105D01*
X417701Y484210D01*
X415750Y484598D01*
X413799Y484210D01*
X412145Y483105D01*
X411828Y482630D01*
X389740D01*
X389004Y484405D01*
X387542Y486311D01*
X385797Y487650D01*
X385838Y488223D01*
X386149Y488920D01*
X425927D01*
X426238Y488223D01*
D02*
G37*
G36*
X425948Y512796D02*
X424534Y511711D01*
X423072Y509805D01*
X422153Y507587D01*
X422102Y507201D01*
X389813Y507853D01*
X389004Y509805D01*
X388404Y510588D01*
X388986Y511915D01*
X390317Y512180D01*
X391971Y513285D01*
X392492Y514066D01*
X425517D01*
X425948Y512796D01*
D02*
G37*
G36*
X480663Y509245D02*
X480037Y508074D01*
X479044Y508272D01*
X477093Y507884D01*
X475439Y506779D01*
X474918Y505998D01*
X440132D01*
X439923Y507587D01*
X439004Y509805D01*
X437542Y511711D01*
X436128Y512796D01*
X436559Y514066D01*
X475842D01*
X480663Y509245D01*
D02*
G37*
D12*
X300162Y164692D02*
Y174714D01*
X294220Y158750D02*
X300162Y164692D01*
D13*
X-168148Y472440D02*
X-158588Y482000D01*
X4000D01*
X30250Y455750D02*
X64250D01*
X4000Y482000D02*
X30250Y455750D01*
X175000Y451000D02*
X179000Y447000D01*
X64250Y455750D02*
X69000Y451000D01*
X175000D01*
X447040Y454406D02*
X479806D01*
X234140Y276860D02*
X267140D01*
X376527Y439896D02*
X464058D01*
X136000Y410000D02*
X332232D01*
X431423Y504386D02*
X431546Y504444D01*
X431018Y504196D02*
X431423Y504386D01*
X381038Y505206D02*
X431018Y504196D01*
X381038Y479806D02*
X431038D01*
X18796Y370586D02*
X24710D01*
X326136Y174688D02*
X326162Y174714D01*
X326136Y167640D02*
Y174688D01*
Y167640D02*
X327572Y166204D01*
Y160274D02*
Y166204D01*
X313162Y166898D02*
Y174714D01*
Y166898D02*
X316572Y163488D01*
Y160274D02*
Y163488D01*
X-160400Y352200D02*
X-147850Y364750D01*
X69000Y459000D02*
X122000D01*
X67498Y460502D02*
X69000Y459000D01*
X-13950Y429534D02*
X-2286Y441198D01*
X44450D01*
X34498Y460502D02*
X67498D01*
X-1778Y378460D02*
X6096Y370586D01*
X18796D01*
X-97028Y364236D02*
X43175D01*
X-92879Y357750D02*
X43240D01*
X43175Y364236D02*
X46181Y361230D01*
X-60960Y441706D02*
X-14986D01*
X37084Y396240D02*
Y403606D01*
X33274Y407416D02*
X37084Y403606D01*
X28956Y407416D02*
X33274D01*
X22606Y413766D02*
X28956Y407416D01*
X22606Y413766D02*
Y430022D01*
X278450Y274000D02*
X294000D01*
X275741Y276709D02*
X278450Y274000D01*
X262533Y276709D02*
X275741D01*
X227830Y283170D02*
X234140Y276860D01*
X256662Y234564D02*
X260350Y238252D01*
X336306Y432982D02*
X336814Y432474D01*
X322700Y414902D02*
X333756Y425958D01*
X119000Y437000D02*
X141098Y414902D01*
X316952Y419442D02*
X323214Y425704D01*
X146000Y426000D02*
X152558Y419442D01*
X117001Y428999D02*
X136000Y410000D01*
X243213Y438000D02*
X254881Y449668D01*
X161000Y465000D02*
X165498Y460502D01*
X161579Y458000D02*
X163617Y455962D01*
X153000Y458000D02*
X161579D01*
X412242Y806196D02*
X457708D01*
X411988Y806450D02*
X412242Y806196D01*
X249871Y460978D02*
X346248D01*
X-147850Y364750D02*
X-119500D01*
X113000Y381000D02*
X166000D01*
X125080Y395920D02*
X173080D01*
X117000Y404000D02*
X125080Y395920D01*
X120000Y386000D02*
X169000D01*
X123000Y391000D02*
X171000D01*
X-111200Y513000D02*
X-87200Y489000D01*
X218750Y274000D02*
Y320500D01*
X223290Y280710D02*
X240000Y264000D01*
X163000Y437000D02*
X208000D01*
X251662Y134814D02*
Y169714D01*
X316000Y746000D02*
Y772000D01*
X122000Y445000D02*
X129000Y438000D01*
X138000D01*
X233000Y381000D02*
X236000Y378000D01*
X112000Y428000D02*
X112000Y428000D01*
X107000Y404000D02*
X117000D01*
X112000Y395999D02*
X118001D01*
X123000Y391000D01*
X118000Y388000D02*
X120000Y386000D01*
X107000Y388000D02*
X118000D01*
X62000Y560000D02*
X99000D01*
X41000Y698000D02*
X87000D01*
X18000Y709000D02*
X107000D01*
X236000Y378000D02*
X364950D01*
X306662Y206714D02*
X319662Y193714D01*
X319662Y174714D02*
Y179714D01*
X310662Y188714D02*
X319662Y179714D01*
X299662Y249714D02*
X309162D01*
X326162Y234714D02*
Y239214D01*
X320162Y245214D02*
Y249714D01*
Y245214D02*
X326162Y239214D01*
X227000Y381000D02*
X233000D01*
X319662Y222714D02*
Y230214D01*
X319662Y193714D02*
X350774D01*
X251662Y122114D02*
X272062D01*
X251662Y109414D02*
X276362D01*
X251662Y134814D02*
X251762Y134714D01*
X300162Y201214D02*
Y230214D01*
X276362Y109414D02*
X281662Y114714D01*
X272062Y122114D02*
X275662Y125714D01*
X294000Y274000D02*
X309000D01*
X256662Y217714D02*
Y234564D01*
X242662Y206714D02*
Y223714D01*
X287162Y214214D02*
Y230214D01*
X283072Y255464D02*
X293412D01*
X293662Y194714D02*
X300162Y201214D01*
X251662Y169714D02*
X269888Y187940D01*
X269750Y199250D02*
X272198D01*
X256662Y205714D02*
X263126Y199250D01*
X269750D01*
X261241Y194714D02*
X263475Y192480D01*
X272198Y199250D02*
X287162Y214214D01*
X263475Y192480D02*
X272554D01*
X274788Y194714D01*
X293662D01*
X269888Y187940D02*
X286492D01*
X240000Y264000D02*
X264000D01*
X270000Y258000D01*
X337706Y147714D02*
X341122Y151130D01*
Y163576D01*
X344170Y166624D01*
X350012D01*
X333774Y141732D02*
X350012D01*
X333756Y141714D02*
X333774Y141732D01*
X323000Y779000D02*
X348000D01*
X316000Y772000D02*
X323000Y779000D01*
X227830Y283170D02*
Y327170D01*
X169000Y386000D02*
X227830Y327170D01*
X223290Y280710D02*
Y323710D01*
X166000Y381000D02*
X223290Y323710D01*
X181500Y357750D02*
X218750Y320500D01*
X38000Y466000D02*
X130000D01*
X-93913Y356716D02*
X-92879Y357750D01*
X-111466Y356716D02*
X-93913D01*
X-119500Y364750D02*
X-111466Y356716D01*
X3448Y448310D02*
X51308D01*
X112000Y428000D02*
Y428999D01*
X117001D01*
X107000Y437000D02*
X119000D01*
X102608Y445000D02*
X122000D01*
X43240Y357750D02*
X44300Y356690D01*
X53670D01*
X54730Y357750D01*
X181500D01*
X54795Y364236D02*
X67818D01*
X51789Y361230D02*
X54795Y364236D01*
X46181Y361230D02*
X51789D01*
X37084Y415240D02*
X65158D01*
X65532Y415614D01*
X32766Y424688D02*
Y430022D01*
Y424688D02*
X37084Y420370D01*
Y415240D02*
Y420370D01*
X19050Y382016D02*
X30734D01*
X18796Y382270D02*
X19050Y382016D01*
X8636Y382270D02*
Y388620D01*
X14084Y394068D01*
Y405740D01*
X95885Y438277D02*
X102608Y445000D01*
X67818Y364236D02*
X100230Y396648D01*
X95885Y416144D02*
X100230Y411799D01*
X95885Y416144D02*
Y438277D01*
X100230Y396648D02*
Y406804D01*
X100230Y406804D01*
Y411799D01*
X93218Y400304D02*
Y406400D01*
X85528Y392614D02*
X93218Y400304D01*
X75032Y392614D02*
X85528D01*
X-1778Y389128D02*
X5334Y396240D01*
X-1778Y378460D02*
Y389128D01*
X382016Y294894D02*
X432016D01*
X381038Y530606D02*
X431038D01*
X381038Y556006D02*
X431038D01*
X74000Y543000D02*
X139000D01*
X125000Y560000D02*
X187000D01*
X66000Y534000D02*
X158000D01*
X-87200Y489000D02*
X6000D01*
X4685Y495690D02*
X4995Y496000D01*
X8000D01*
X-68490Y495690D02*
X4685D01*
X-85800Y513000D02*
X-68490Y495690D01*
X6000Y489000D02*
X34498Y460502D01*
X8000Y496000D02*
X38000Y466000D01*
X361442Y227838D02*
Y229584D01*
X381038Y429006D02*
X431038D01*
X227000Y396000D02*
X351042D01*
X431038Y454406D02*
X447040D01*
X364950Y378000D02*
X375920Y367030D01*
X446786D01*
X222000Y373000D02*
X352170D01*
X364998Y360172D01*
X423458Y635802D02*
X423926Y636270D01*
X422656Y738124D02*
X457962D01*
X458216Y738378D01*
X359498Y449668D02*
X359918Y450088D01*
X254881Y449668D02*
X359498D01*
X251752Y456438D02*
X351282D01*
X431423Y504386D02*
X431423Y504386D01*
X431546Y504444D02*
X432816Y503174D01*
X479044D01*
X388366Y516890D02*
X477012D01*
X493522Y500380D01*
X389890Y816610D02*
X501904D01*
X389382Y816102D02*
X389890Y816610D01*
X363490Y847090D02*
X389128D01*
X362000Y845600D02*
X363490Y847090D01*
X370078Y491744D02*
X488950D01*
X489204Y491490D01*
X508254Y824230D02*
X508508Y824484D01*
X381508Y824230D02*
X508254D01*
X377478Y820200D02*
X381508Y824230D01*
X362000Y820200D02*
X377478D01*
X328662Y202714D02*
X350266D01*
X360172Y166624D02*
Y175006D01*
X350774Y180594D02*
Y193714D01*
X293412Y255464D02*
X297662Y259714D01*
X337662D01*
X320734Y274574D02*
X333502D01*
X320160Y274000D02*
X320734Y274574D01*
X173080Y395920D02*
X230164Y338836D01*
X171000Y391000D02*
X229934Y332066D01*
X409614D01*
X409702Y331978D01*
X11938Y430022D02*
X22606D01*
X11684Y429768D02*
X11938Y430022D01*
X-13950Y414908D02*
Y429534D01*
X-61214Y441452D02*
X-60960Y441706D01*
X426300Y673188D02*
X430022Y676910D01*
X300612Y624802D02*
X307886D01*
X312928Y619760D01*
X416052Y578358D02*
X427482Y589788D01*
Y595122D01*
X404590Y582898D02*
X423926Y602234D01*
Y636270D01*
X300612Y635802D02*
X309586D01*
X317500Y627888D01*
X399777Y594518D02*
X410076Y604817D01*
Y653616D01*
X426300Y669840D01*
Y673188D01*
X300612Y657802D02*
X309430D01*
X397896Y599058D02*
X405536Y606698D01*
Y655497D01*
X411734Y661695D01*
Y679958D01*
X336804Y683006D02*
X340106Y679704D01*
X300612Y679802D02*
X308004D01*
X309882Y677924D01*
X311208Y683006D02*
X336804D01*
X308004Y679802D02*
X311208Y683006D01*
X309882Y663771D02*
Y677924D01*
Y663771D02*
X333660Y639992D01*
X309430Y657802D02*
X329120Y638112D01*
Y615182D02*
Y638112D01*
X317500Y610368D02*
Y627888D01*
X312928Y608520D02*
Y619760D01*
X-72000Y727000D02*
X67000D01*
X125980Y720230D02*
X126000Y720250D01*
X-40770Y720230D02*
X125980D01*
X-42000Y719000D02*
X-40770Y720230D01*
X115500Y773500D02*
X116000Y773000D01*
X-22720Y770030D02*
Y787300D01*
Y770030D02*
X-6190Y753500D01*
X176750D01*
X-10020Y774270D02*
Y787300D01*
Y774270D02*
X-750Y765000D01*
X137750D01*
X2680Y777820D02*
Y787300D01*
Y777820D02*
X7000Y773500D01*
X115500D01*
X409702Y331978D02*
X442522D01*
X450000Y324500D01*
Y276250D02*
Y324500D01*
X443244Y269494D02*
X450000Y276250D01*
X432016Y269494D02*
X443244D01*
X382016D02*
X432016D01*
X230164Y338836D02*
X448664D01*
X458750Y328750D01*
Y254750D02*
Y328750D01*
X448094Y244094D02*
X458750Y254750D01*
X432016Y244094D02*
X448094D01*
X382016D02*
X432016D01*
X382016Y320294D02*
X432016D01*
X346248Y460978D02*
X351020Y465750D01*
X404000D01*
X381038Y454406D02*
X431038D01*
X336814Y432474D02*
X369105D01*
X376527Y439896D01*
X371542Y416500D02*
X395750D01*
X351042Y396000D02*
X371542Y416500D01*
X365416Y180250D02*
X413750D01*
X360172Y175006D02*
X365416Y180250D01*
X221000Y389000D02*
X371500D01*
X373250Y390750D01*
X413750D01*
X416000Y393000D01*
X360172Y141732D02*
Y166624D01*
X361442Y227838D02*
X370588D01*
X374250Y231500D01*
X413500D01*
X413750Y231250D01*
X364998Y360172D02*
X453172D01*
X459750Y366750D01*
Y414500D01*
X445244Y429006D02*
X459750Y414500D01*
X431038Y429006D02*
X445244D01*
X208000Y437000D02*
X213770Y431230D01*
X66000Y526000D02*
X150000D01*
X141098Y414902D02*
X322700D01*
X152558Y419442D02*
X316952D01*
X213770Y431230D02*
X224804D01*
X226556Y432982D01*
X336306D01*
X222000Y438000D02*
X243213D01*
X165498Y460502D02*
X233934D01*
X163617Y455962D02*
X228900D01*
X229000Y445000D02*
X240314D01*
X228900Y455962D02*
X231130Y453732D01*
X240314Y445000D02*
X251752Y456438D01*
X231130Y453732D02*
X242625D01*
X249871Y460978D01*
X234696Y499618D02*
X246314Y488000D01*
X135174Y499618D02*
X234696D01*
X130556Y507746D02*
X235458D01*
X70724Y490474D02*
X97282D01*
X123698Y516890D01*
X227330D01*
X242316Y531876D01*
X58750Y478500D02*
X70724Y490474D01*
X246314Y488000D02*
X316550D01*
X235458Y507746D02*
X248246Y494958D01*
X311912D02*
X323088Y506134D01*
X333660Y617062D02*
Y639992D01*
Y617062D02*
X351664Y599058D01*
X397896D01*
X329120Y615182D02*
X349784Y594518D01*
X399777D01*
X317500Y610368D02*
X344970Y582898D01*
X404590D01*
X312928Y608520D02*
X343090Y578358D01*
X416052D01*
X323088Y506134D02*
Y583946D01*
X316738Y590296D02*
X323088Y583946D01*
X248246Y494958D02*
X311912D01*
X330454Y501904D02*
Y578104D01*
X316550Y488000D02*
X330454Y501904D01*
X61976Y530024D02*
X66000Y526000D01*
X-126926Y530024D02*
X61976D01*
X-137400Y540498D02*
X-126926Y530024D01*
X-137400Y540498D02*
Y565000D01*
X63298Y536702D02*
X66000Y534000D01*
X-104394Y536702D02*
X63298D01*
X-112000Y544308D02*
X-104394Y536702D01*
X-112000Y544308D02*
Y565000D01*
X-123444Y474726D02*
X-68326D01*
X-68072Y474472D01*
X18796Y370586D02*
Y382270D01*
X218730Y273980D02*
X218750Y274000D01*
X218730Y92230D02*
Y273980D01*
X201500Y75000D02*
X218730Y92230D01*
X233426Y101346D02*
X238058Y96714D01*
X233426Y101346D02*
Y192532D01*
X236448Y195554D01*
X242662D01*
X238058Y96714D02*
X251662D01*
X242662Y194714D02*
X261241D01*
X337566Y210058D02*
X350266D01*
X320318D02*
X337566D01*
X313162Y217214D02*
X320318Y210058D01*
X313162Y217214D02*
Y230214D01*
X275662Y125714D02*
Y142714D01*
X281662Y114714D02*
Y138714D01*
X275662Y142714D02*
X280662Y147714D01*
X281662Y138714D02*
X284662Y141714D01*
X280662Y147714D02*
X337706D01*
X284662Y141714D02*
X333756D01*
X332662Y230214D02*
X341032D01*
X343408Y227838D01*
X351282D01*
X306662Y206714D02*
Y230214D01*
X319662Y222714D02*
X322326Y220050D01*
Y218694D02*
Y220050D01*
X306662Y167724D02*
Y174714D01*
X304712Y160274D02*
Y165774D01*
X306662Y167724D01*
X281598Y158496D02*
X288456Y165354D01*
X291338D01*
X293662Y167678D01*
Y174714D01*
X-13950Y465708D02*
X3448Y448310D01*
D16*
X294220Y158750D02*
D03*
X305220D02*
D03*
X35710Y370586D02*
D03*
X24710D02*
D03*
X270598Y158496D02*
D03*
X281598D02*
D03*
X356362Y275590D02*
D03*
X345362D02*
D03*
X316572Y160274D02*
D03*
X327572D02*
D03*
X309162Y249714D02*
D03*
X320162D02*
D03*
D18*
X323662Y72214D02*
D03*
Y83214D02*
D03*
D19*
X356362Y242824D02*
D03*
Y260824D02*
D03*
D39*
X30734Y382016D02*
D03*
X40894D02*
D03*
X8636Y382270D02*
D03*
X18796D02*
D03*
X22606Y430022D02*
D03*
X32766D02*
D03*
X351282Y227838D02*
D03*
X361442D02*
D03*
X350012Y166624D02*
D03*
X360172D02*
D03*
X350012Y141732D02*
D03*
X360172D02*
D03*
X351282Y194056D02*
D03*
X361442D02*
D03*
X351282Y210312D02*
D03*
X361442D02*
D03*
X320160Y274000D02*
D03*
X310000D02*
D03*
X282822Y255714D02*
D03*
X272662D02*
D03*
D40*
X256662Y206554D02*
D03*
Y216714D02*
D03*
X242662Y195554D02*
D03*
Y205714D02*
D03*
D57*
X311286Y646802D02*
X323310Y634778D01*
X430460Y219250D02*
X430960Y219750D01*
X383072D02*
X383572Y219250D01*
X369316Y246380D02*
Y271526D01*
X382016Y167894D02*
X432016D01*
X309880Y795000D02*
X335000D01*
X195000D02*
X309880D01*
Y844280D01*
X336600Y871000D01*
X345702Y261366D02*
Y275250D01*
Y261366D02*
X346244Y260824D01*
X345362Y275590D02*
X345702Y275250D01*
X474472Y705358D02*
Y731012D01*
X456438Y687324D02*
X474472Y705358D01*
X456438Y677164D02*
Y687324D01*
X451612Y667258D02*
Y672338D01*
Y622046D02*
Y667258D01*
X451492Y667378D02*
X451612Y667258D01*
Y672338D02*
X456438Y677164D01*
X451612Y622046D02*
X451888Y621770D01*
Y589026D02*
Y621770D01*
X-160400Y149000D02*
X-147400Y162000D01*
X-113000D01*
X-77000Y198000D01*
X-40000D01*
X174000Y816000D02*
X195000Y795000D01*
X356362Y242824D02*
X365760D01*
X369316Y246380D01*
X365252Y275590D02*
X369316Y271526D01*
X356362Y275590D02*
X365252D01*
X320162Y249714D02*
X341662D01*
X346244Y260824D02*
X356362D01*
X382016Y142494D02*
X432016D01*
X381038Y403606D02*
X431038D01*
X381038Y378206D02*
X431038D01*
X345702Y253246D02*
Y261366D01*
X341884Y249428D02*
X345702Y253246D01*
X300612Y646802D02*
X311286D01*
X402183Y588708D02*
X415886Y602411D01*
X432054Y667378D02*
X451492D01*
X317500Y667512D02*
X341630D01*
X415886Y602411D02*
Y651210D01*
X432054Y667378D01*
X323310Y612775D02*
Y634778D01*
X382016Y193294D02*
X383222Y194500D01*
X400750D01*
X430810D02*
X432016Y193294D01*
X400750Y194500D02*
X430810D01*
X382016Y218694D02*
X383072Y219750D01*
X430960D02*
X432016Y218694D01*
X400750Y219250D02*
X430460D01*
X383572D02*
X400750D01*
X323310Y612775D02*
X347377Y588708D01*
X402183D01*
X323662Y83214D02*
X356162D01*
X368662Y95714D01*
X301662Y78178D02*
Y96714D01*
X320450Y83214D02*
X323662D01*
X314960Y77724D02*
X320450Y83214D01*
X302116Y77724D02*
X314960D01*
D58*
X78740Y259420D02*
X81146D01*
X40420D02*
X78740D01*
X-135000Y251000D02*
X-3000D01*
X153929Y325000D02*
X201000D01*
X136929Y308000D02*
X153929Y325000D01*
X194000Y314000D02*
X210000D01*
X147000Y298000D02*
X158000Y308999D01*
X187500Y296500D02*
Y309000D01*
X178000Y301000D02*
Y308999D01*
X168000Y303000D02*
Y309000D01*
X-99000Y222000D02*
X-4000D01*
X-112000Y227000D02*
X-6000D01*
X-172500Y236500D02*
X-3500D01*
X-120000Y244000D02*
X-3000D01*
X-116000Y257000D02*
X-4000D01*
X-111000Y264000D02*
X-4000D01*
X-108000Y270000D02*
X-5000D01*
X-114000Y276000D02*
X-108000Y270000D01*
X-104000Y217000D02*
X-99000Y222000D01*
X177000Y286000D02*
X187500Y296500D01*
X167000Y290000D02*
X178000Y301000D01*
X159000Y294000D02*
X168000Y303000D01*
X-88000Y207000D02*
X2000D01*
X-99000Y196000D02*
X-88000Y207000D01*
X-111000Y196000D02*
X-99000D01*
X-91000Y212000D02*
X0D01*
X-100000Y203000D02*
X-91000Y212000D01*
X-118000Y203000D02*
X-100000D01*
X-94000Y217000D02*
X-2000D01*
X-100700Y210300D02*
X-94000Y217000D01*
X-145500Y210300D02*
X-100700D01*
X-114000Y276000D02*
Y305000D01*
X-124000Y315000D02*
X-114000Y305000D01*
X-119000Y272000D02*
Y282000D01*
X-125000Y288000D02*
X-119000Y282000D01*
X-148400Y288000D02*
X-125000D01*
X-119000Y272000D02*
X-111000Y264000D01*
X-160400Y276000D02*
X-148400Y288000D01*
X-148000Y315000D02*
X-124000D01*
X-120100Y261100D02*
X-116000Y257000D01*
X-149900Y261100D02*
X-120100D01*
X-160400Y250600D02*
X-149900Y261100D01*
X-173000Y237000D02*
X-172500Y236500D01*
X-160400Y225200D02*
X-145500Y210300D01*
X56000Y137000D02*
Y143000D01*
X61000Y148000D01*
X71000D01*
X242662Y223714D02*
Y246542D01*
X240000Y249204D02*
X242662Y246542D01*
X240000Y249204D02*
Y264000D01*
X350266Y202714D02*
X357864D01*
X361442Y199136D01*
Y194056D02*
Y199136D01*
Y210312D02*
Y215900D01*
X139000Y303000D02*
X156000Y320000D01*
X188000D01*
X194000Y314000D01*
X136272Y313000D02*
X152272Y329000D01*
X188000D01*
X194000Y335000D01*
X56896Y319532D02*
X122532D01*
X-119000Y320000D02*
X-118532Y319532D01*
X56896D01*
X122532D02*
X128000Y325000D01*
X89000Y308000D02*
X136929D01*
X87000Y313000D02*
X136272D01*
X-5000Y270000D02*
X23000Y298000D01*
X72000D01*
X87000Y313000D01*
X43920Y248920D02*
X66294D01*
X2000Y207000D02*
X43920Y248920D01*
X0Y212000D02*
X43420Y255420D01*
X-2000Y217000D02*
X40420Y259420D01*
X39938Y265938D02*
X72390D01*
X-4000Y222000D02*
X39938Y265938D01*
X-4000Y264000D02*
X25000Y293000D01*
X-4000Y257000D02*
X27438Y288438D01*
X-3000Y251000D02*
X30438Y284438D01*
X-3000Y244000D02*
X33438Y280438D01*
X-3500Y236500D02*
X36438Y276438D01*
X-6000Y227000D02*
X39438Y272438D01*
X25000Y293000D02*
X74000D01*
X89000Y308000D01*
X27438Y288438D02*
X76438D01*
X91000Y303000D01*
X30438Y284438D02*
X79438D01*
X33438Y280438D02*
X82438D01*
X79438Y284438D02*
X93000Y298000D01*
X82438Y280438D02*
X96000Y294000D01*
X86438Y276438D02*
X100000Y290000D01*
X36438Y276438D02*
X86438D01*
X91000Y303000D02*
X139000D01*
X93000Y298000D02*
X147000D01*
X96000Y294000D02*
X159000D01*
X100000Y290000D02*
X167000D01*
X103000Y286000D02*
X177000D01*
X39438Y272438D02*
X89438D01*
X103000Y286000D01*
X91796Y268224D02*
X95504D01*
X89510Y265938D02*
X91796Y268224D01*
X78740Y261112D02*
X79248Y261620D01*
X43420Y255420D02*
X73462D01*
X72390Y265938D02*
X89510D01*
X73462Y255420D02*
X76382Y252500D01*
X99846D01*
X78740Y259334D02*
Y259420D01*
Y261112D01*
X102410Y249936D02*
X110236D01*
X99846Y252500D02*
X102410Y249936D01*
X99846Y252500D02*
X108458Y261112D01*
X108204Y261366D02*
X108458Y261112D01*
X108204Y261366D02*
Y279400D01*
X356628Y220714D02*
X361442Y215900D01*
X337662Y220714D02*
X356628D01*
X361442Y210312D02*
X371856D01*
X374668Y207500D02*
X450500D01*
X371856Y210312D02*
X374668Y207500D01*
X520000Y930000D02*
G03*
X510000Y940000I-10000J0D01*
G01*
Y0D02*
G03*
X520000Y10000I0J10000D01*
G01*
X-180000D02*
G03*
X-170000Y0I10000J0D01*
G01*
Y940000D02*
G03*
X-180000Y930000I0J-10000D01*
G01*
X0Y-85000D02*
X340000D01*
X0Y1025000D02*
X340000D01*
X0Y940000D02*
Y1025000D01*
X340000Y940000D02*
Y1025000D01*
Y-85000D02*
Y0D01*
X0Y-85000D02*
Y0D01*
X-165000D02*
X0D01*
X-170000Y940000D02*
X0D01*
X-180000Y10000D02*
Y930000D01*
X340000Y940000D02*
X505000D01*
X340000Y0D02*
X505000D01*
X520000Y10000D02*
Y930000D01*
X505000Y940000D02*
X510000D01*
X505000Y0D02*
X510000D01*
X-170000D02*
X-165000D01*
D60*
X-49784Y579120D02*
Y612140D01*
X-30480Y631444D01*
D63*
X-174751Y844460D02*
Y849792D01*
Y852458D02*
Y857789D01*
Y860455D02*
Y865787D01*
Y868452D02*
Y873784D01*
Y876450D02*
Y881781D01*
Y884447D02*
Y889779D01*
Y892445D02*
Y897776D01*
Y900442D02*
Y905774D01*
X-176084Y912438D02*
X-184081D01*
X-180082Y908439D01*
Y913771D01*
X-184081Y916437D02*
X-176084D01*
Y920435D01*
X-177416Y921768D01*
X-178749D01*
X-180082Y920435D01*
Y916437D01*
Y920435D01*
X-181415Y921768D01*
X-182748D01*
X-184081Y920435D01*
Y916437D01*
D66*
X-160400Y377600D02*
D03*
X-135000D02*
D03*
X-160400Y352200D02*
D03*
X-135000D02*
D03*
X-160400Y326800D02*
D03*
X-135000D02*
D03*
X-160400Y301400D02*
D03*
X-135000D02*
D03*
X-160400Y276000D02*
D03*
X-135000D02*
D03*
X-160400Y250600D02*
D03*
X-135000D02*
D03*
X-160400Y225200D02*
D03*
X-135000D02*
D03*
X-160400Y199800D02*
D03*
X-135000D02*
D03*
X-160400Y174400D02*
D03*
X-135000D02*
D03*
X-160400Y149000D02*
D03*
X-85800Y513000D02*
D03*
X-111200D02*
D03*
X-136600D02*
D03*
X432562Y786384D02*
D03*
X457962Y760984D02*
D03*
Y786384D02*
D03*
X483362Y760984D02*
D03*
Y786384D02*
D03*
X-137400Y565000D02*
D03*
X-162800D02*
D03*
X278384Y476758D02*
D03*
X303784D02*
D03*
D67*
X-135000Y149000D02*
D03*
D68*
X-162000Y513000D02*
D03*
X432562Y760984D02*
D03*
X-112000Y565000D02*
D03*
X252984Y476758D02*
D03*
D69*
X21082Y555752D02*
D03*
X332740Y736854D02*
D03*
X201550Y902750D02*
D03*
X176150D02*
D03*
X332486Y315468D02*
D03*
X42418Y511556D02*
D03*
X-64000Y149600D02*
D03*
X-89000Y432600D02*
D03*
X344678Y560324D02*
D03*
X-91440Y652780D02*
D03*
X336600Y845600D02*
D03*
X362000D02*
D03*
X336600Y871000D02*
D03*
X362000Y820200D02*
D03*
X336600D02*
D03*
D70*
X21082Y581152D02*
D03*
X332740Y762254D02*
D03*
X332486Y290068D02*
D03*
X-64000Y175000D02*
D03*
X-89000Y458000D02*
D03*
X344678Y534924D02*
D03*
X-91440Y627380D02*
D03*
D71*
X431038Y378206D02*
D03*
Y403606D02*
D03*
Y429006D02*
D03*
Y454406D02*
D03*
Y479806D02*
D03*
Y505206D02*
D03*
Y530606D02*
D03*
Y556006D02*
D03*
X381038Y378206D02*
D03*
Y403606D02*
D03*
Y429006D02*
D03*
Y454406D02*
D03*
Y479806D02*
D03*
Y505206D02*
D03*
Y530606D02*
D03*
Y556006D02*
D03*
X432016Y142494D02*
D03*
Y167894D02*
D03*
Y193294D02*
D03*
Y218694D02*
D03*
Y244094D02*
D03*
Y269494D02*
D03*
Y294894D02*
D03*
Y320294D02*
D03*
X382016Y142494D02*
D03*
Y167894D02*
D03*
Y193294D02*
D03*
Y218694D02*
D03*
Y244094D02*
D03*
Y269494D02*
D03*
Y294894D02*
D03*
Y320294D02*
D03*
D72*
X-149860Y627794D02*
D03*
Y647794D02*
D03*
D73*
X150200Y615000D02*
D03*
X99400D02*
D03*
X175600D02*
D03*
X124800D02*
D03*
X74000D02*
D03*
D74*
X201000D02*
D03*
D75*
X26000Y184000D02*
D03*
D76*
X51400D02*
D03*
D77*
X150750Y902750D02*
D03*
X17018Y511556D02*
D03*
X362000Y871000D02*
D03*
D78*
X461000Y62500D02*
D03*
X-121000D02*
D03*
X461000Y877500D02*
D03*
X-121000D02*
D03*
D79*
X-22720Y800000D02*
D03*
X-10020D02*
D03*
X2680D02*
D03*
X15380D02*
D03*
X-22720Y787300D02*
D03*
X-10020D02*
D03*
X2680D02*
D03*
X15380D02*
D03*
X28080D02*
D03*
D80*
Y800000D02*
D03*
D81*
X-14000Y415000D02*
D03*
Y463800D02*
D03*
D82*
X-168148Y472440D02*
D03*
X179000Y447000D02*
D03*
X259334Y632968D02*
D03*
X249174Y632714D02*
D03*
X239014D02*
D03*
X48985Y368000D02*
D03*
X44450Y441198D02*
D03*
X-14986Y441706D02*
D03*
X-87376Y589788D02*
D03*
X260350Y238252D02*
D03*
X161000Y465000D02*
D03*
X232918Y488950D02*
D03*
X474472Y731012D02*
D03*
X456438Y677164D02*
D03*
X451612Y622046D02*
D03*
X451888Y589026D02*
D03*
X348488Y724662D02*
D03*
X211010Y564027D02*
D03*
X194000Y335000D02*
D03*
X201000Y325000D02*
D03*
X158000Y308999D02*
D03*
X187500Y309000D02*
D03*
X178000Y308999D02*
D03*
X210000Y314000D02*
D03*
X170000Y339000D02*
D03*
X182000D02*
D03*
X168000Y309000D02*
D03*
X194000Y236000D02*
D03*
X181000D02*
D03*
X168000D02*
D03*
X194000Y249000D02*
D03*
X181000D02*
D03*
X168000D02*
D03*
X194000Y262000D02*
D03*
X181000D02*
D03*
X168000D02*
D03*
X222000Y373000D02*
D03*
X201500Y75000D02*
D03*
X56000Y137000D02*
D03*
X225000Y208000D02*
D03*
X316000Y746000D02*
D03*
X253000Y508000D02*
D03*
X209550Y646176D02*
D03*
X-85598Y599440D02*
D03*
X14988Y830040D02*
D03*
X160000Y548000D02*
D03*
X311999Y507999D02*
D03*
X296999D02*
D03*
X297000Y534000D02*
D03*
X312000D02*
D03*
X-13476Y506876D02*
D03*
X1524D02*
D03*
Y519876D02*
D03*
X-13476D02*
D03*
X-12954Y551434D02*
D03*
X49022Y560894D02*
D03*
X-254Y550926D02*
D03*
X-40000Y198000D02*
D03*
X201000Y529000D02*
D03*
X36000Y153000D02*
D03*
X187500Y123500D02*
D03*
X181000Y178000D02*
D03*
X150500Y197500D02*
D03*
X-119000Y320000D02*
D03*
X122000Y459000D02*
D03*
X130000Y466000D02*
D03*
X146000Y426000D02*
D03*
X138000Y438000D02*
D03*
X-148000Y315000D02*
D03*
X-112000Y227000D02*
D03*
X-120000Y244000D02*
D03*
X-173000Y237000D02*
D03*
X128000Y325000D02*
D03*
X-104000Y217000D02*
D03*
X-111000Y196000D02*
D03*
X-118000Y203000D02*
D03*
X163000Y437000D02*
D03*
X79000Y502000D02*
D03*
X99000Y560000D02*
D03*
X74000Y543000D02*
D03*
X139000D02*
D03*
X150000Y526000D02*
D03*
X158000Y534000D02*
D03*
X187000Y560000D02*
D03*
X227000Y396000D02*
D03*
X107000Y404000D02*
D03*
X112000Y395999D02*
D03*
X107000Y388000D02*
D03*
X113000Y381000D02*
D03*
X174000Y816000D02*
D03*
X335000Y795000D02*
D03*
X11652Y860460D02*
D03*
X-7338Y847826D02*
D03*
X266000Y299000D02*
D03*
X62000Y560000D02*
D03*
X-72000Y727000D02*
D03*
X-42000Y719000D02*
D03*
X41000Y698000D02*
D03*
X18000Y709000D02*
D03*
X107000D02*
D03*
X348000Y779000D02*
D03*
X310662Y188714D02*
D03*
X299662Y249714D02*
D03*
X221000Y389000D02*
D03*
X227000Y381000D02*
D03*
X87000Y698000D02*
D03*
X71000Y148000D02*
D03*
X75000Y137000D02*
D03*
X136000Y88000D02*
D03*
X368662Y95714D02*
D03*
X294000Y274000D02*
D03*
X97872Y996741D02*
D03*
X88933Y995695D02*
D03*
X84260Y988003D02*
D03*
X84412Y970011D02*
D03*
X84858Y961022D02*
D03*
X67741Y966380D02*
D03*
Y984353D02*
D03*
X68304Y993335D02*
D03*
X71736Y1001655D02*
D03*
X77897Y1008215D02*
D03*
X85963Y1012207D02*
D03*
X94902Y1013259D02*
D03*
X53306Y901199D02*
D03*
X44307D02*
D03*
X35306D02*
D03*
X26307D02*
D03*
X17306D02*
D03*
X8306D02*
D03*
X-693D02*
D03*
X-9462Y899172D02*
D03*
X-11699Y890454D02*
D03*
Y881454D02*
D03*
X-11142Y872471D02*
D03*
X-28301Y879145D02*
D03*
Y888145D02*
D03*
X-28055Y897142D02*
D03*
X-25189Y905673D02*
D03*
X-19358Y912529D02*
D03*
X-11397Y916726D02*
D03*
X-2461Y917801D02*
D03*
X6539D02*
D03*
X15539D02*
D03*
X24539D02*
D03*
X33539D02*
D03*
X42539D02*
D03*
X51539D02*
D03*
X60539D02*
D03*
X84858Y948023D02*
D03*
X84259Y939043D02*
D03*
X84858Y930063D02*
D03*
X84259Y921083D02*
D03*
X67258Y944268D02*
D03*
X67562Y953263D02*
D03*
X84858Y903623D02*
D03*
X84320Y894639D02*
D03*
X81517Y853462D02*
D03*
X72516D02*
D03*
X67680Y894382D02*
D03*
X262858Y60623D02*
D03*
X270783Y56358D02*
D03*
X279769Y56858D02*
D03*
X287019Y39395D02*
D03*
X260112Y39699D02*
D03*
X251438Y42102D02*
D03*
X246255Y49460D02*
D03*
X245142Y58390D02*
D03*
X358996Y61031D02*
D03*
X362458Y43723D02*
D03*
X350447Y34542D02*
D03*
X341447D02*
D03*
X305059Y56358D02*
D03*
X314059Y56301D02*
D03*
X323059D02*
D03*
X332059D02*
D03*
X339636Y61157D02*
D03*
X348631Y61458D02*
D03*
X112194Y52648D02*
D03*
X108588Y44402D02*
D03*
X100744Y39989D02*
D03*
X73850Y38421D02*
D03*
X81337Y55858D02*
D03*
X90323Y56358D02*
D03*
X95142Y63959D02*
D03*
X57261Y38642D02*
D03*
X48276Y39157D02*
D03*
X43077Y55858D02*
D03*
X44408Y-4410D02*
D03*
X43851Y-13934D02*
D03*
X48594Y-41432D02*
D03*
X57045Y-45860D02*
D03*
X66580Y-46149D02*
D03*
X76120D02*
D03*
X85660D02*
D03*
X95200D02*
D03*
X104740D02*
D03*
X100930Y-63851D02*
D03*
X81850D02*
D03*
X62770D02*
D03*
X44256Y-59978D02*
D03*
X36520Y-54396D02*
D03*
X30684Y-46849D02*
D03*
X27157Y-37985D02*
D03*
X26149Y-28499D02*
D03*
X25647Y-18972D02*
D03*
X25881Y103D02*
D03*
X44082Y29908D02*
D03*
X44391Y10840D02*
D03*
X25792Y11759D02*
D03*
X25922Y21298D02*
D03*
X269750Y199250D02*
D03*
X286492Y187940D02*
D03*
X262533Y276709D02*
D03*
X260000Y257000D02*
D03*
X72898Y343408D02*
D03*
X58750Y478500D02*
D03*
X51308Y448310D02*
D03*
X112000Y428999D02*
D03*
X107000Y437000D02*
D03*
X93218Y406400D02*
D03*
X5334Y396240D02*
D03*
X56896Y319532D02*
D03*
X51000Y331500D02*
D03*
X66294Y248920D02*
D03*
X72390Y265938D02*
D03*
X121000Y279000D02*
D03*
X130048Y275590D02*
D03*
X95504Y268224D02*
D03*
X78740Y259334D02*
D03*
X108204Y279400D02*
D03*
X362458Y52723D02*
D03*
X125000Y560000D02*
D03*
X126000Y550000D02*
D03*
X153000Y458000D02*
D03*
X323214Y425704D02*
D03*
X446786Y367030D02*
D03*
X447040Y454406D02*
D03*
X340106Y679704D02*
D03*
X411734Y679958D02*
D03*
X411988Y806450D02*
D03*
X457708Y806196D02*
D03*
X427482Y595122D02*
D03*
X423926Y636270D02*
D03*
X422656Y738124D02*
D03*
X458216Y738378D02*
D03*
X333756Y425958D02*
D03*
X332232Y409448D02*
D03*
X359918Y450088D02*
D03*
X351282Y456438D02*
D03*
X388366Y516890D02*
D03*
X464058Y439420D02*
D03*
X479044Y503174D02*
D03*
X479806Y453644D02*
D03*
X493522Y500380D02*
D03*
X501904Y816610D02*
D03*
X389382Y816102D02*
D03*
X389128Y847090D02*
D03*
X370078Y491744D02*
D03*
X489204Y491490D02*
D03*
X508508Y824484D02*
D03*
X328662Y202714D02*
D03*
X337662Y220714D02*
D03*
X350774Y180594D02*
D03*
X337662Y259714D02*
D03*
X333502Y274574D02*
D03*
X11684Y429768D02*
D03*
X-61214Y441452D02*
D03*
X-68072Y474472D02*
D03*
X-8639Y57698D02*
D03*
X712Y55807D02*
D03*
X10252D02*
D03*
X19792D02*
D03*
X29313Y56408D02*
D03*
X22589Y38193D02*
D03*
X13049D02*
D03*
X3509D02*
D03*
X-6031D02*
D03*
X-15279Y35850D02*
D03*
X-27654Y46013D02*
D03*
X430022Y676910D02*
D03*
X440312Y684660D02*
D03*
X341884Y249428D02*
D03*
X440944Y630936D02*
D03*
X427736Y648462D02*
D03*
X341630Y667512D02*
D03*
X317500D02*
D03*
Y640080D02*
D03*
X67000Y727000D02*
D03*
X126000Y720250D02*
D03*
X116000Y773000D02*
D03*
X137750Y765000D02*
D03*
X176750Y753500D02*
D03*
X84607Y979009D02*
D03*
X112858Y61623D02*
D03*
X197358Y646176D02*
D03*
X211582Y655320D02*
D03*
X227584Y632714D02*
D03*
X-71628Y674624D02*
D03*
X-85598Y674370D02*
D03*
X-99568Y674116D02*
D03*
X415750Y479500D02*
D03*
X404000Y465750D02*
D03*
X395750Y416500D02*
D03*
X413750Y180250D02*
D03*
X400750Y194500D02*
D03*
Y219250D02*
D03*
X416000Y393000D02*
D03*
X413750Y231250D02*
D03*
X450500Y207500D02*
D03*
X-49784Y579120D02*
D03*
X-30480Y631444D02*
D03*
X312000Y522000D02*
D03*
X234950Y426212D02*
D03*
X222000Y438000D02*
D03*
X229000Y445000D02*
D03*
X233934Y460502D02*
D03*
X135174Y499618D02*
D03*
X130556Y507746D02*
D03*
X297000Y522000D02*
D03*
X242316Y531876D02*
D03*
X220472Y538734D02*
D03*
X316738Y590296D02*
D03*
X330454Y578104D02*
D03*
X253000Y525000D02*
D03*
X-254Y561340D02*
D03*
X-123444Y474726D02*
D03*
X334071Y39699D02*
D03*
X316071D02*
D03*
X325071D02*
D03*
X-33694Y857644D02*
D03*
X-41749Y853629D02*
D03*
X-42699Y844680D02*
D03*
Y835680D02*
D03*
Y826680D02*
D03*
X-43125Y817690D02*
D03*
X-46461Y809331D02*
D03*
X-52717Y802860D02*
D03*
X-60958Y799243D02*
D03*
X-69941Y798699D02*
D03*
X-78941D02*
D03*
X-87941D02*
D03*
X-96941D02*
D03*
X-105941D02*
D03*
X-114941D02*
D03*
X-123941D02*
D03*
X-132673Y796517D02*
D03*
X-135699Y788041D02*
D03*
Y779041D02*
D03*
Y770041D02*
D03*
X-130542Y744458D02*
D03*
X-130680Y735459D02*
D03*
X-138218Y730542D02*
D03*
X-147218D02*
D03*
X-157458Y741356D02*
D03*
Y750356D02*
D03*
X-152301Y766732D02*
D03*
Y775732D02*
D03*
Y784732D02*
D03*
X-152004Y793727D02*
D03*
X-149087Y802241D02*
D03*
X-143392Y809211D02*
D03*
X-135631Y813767D02*
D03*
X-126762Y815301D02*
D03*
X-117762D02*
D03*
X-108762D02*
D03*
X-99762D02*
D03*
X-90762D02*
D03*
X-81762D02*
D03*
X-72762D02*
D03*
X-63773Y815753D02*
D03*
X-59301Y823563D02*
D03*
Y832563D02*
D03*
Y841563D02*
D03*
X-59311Y850563D02*
D03*
X-57390Y859355D02*
D03*
X-52471Y866892D02*
D03*
X-45121Y872086D02*
D03*
X-36380Y874230D02*
D03*
X272542Y97282D02*
D03*
X354076Y102870D02*
D03*
X337566Y210058D02*
D03*
X353314Y128524D02*
D03*
X267716Y131572D02*
D03*
X323850Y132588D02*
D03*
X322326Y218694D02*
D03*
X-170002Y9998D02*
D03*
Y89998D02*
D03*
X-160002Y109998D02*
D03*
X-170002Y129998D02*
D03*
Y289998D02*
D03*
Y489997D02*
D03*
Y529997D02*
D03*
X-160002Y549997D02*
D03*
Y589997D02*
D03*
X-170002Y609997D02*
D03*
Y649997D02*
D03*
X-160002Y669997D02*
D03*
X-170002Y689997D02*
D03*
Y809997D02*
D03*
X-160002Y829997D02*
D03*
X-150002Y9998D02*
D03*
Y129998D02*
D03*
X-140002Y389998D02*
D03*
X-150002Y489997D02*
D03*
Y529997D02*
D03*
Y569997D02*
D03*
X-140002Y589997D02*
D03*
X-150002Y609997D02*
D03*
X-140002Y669997D02*
D03*
X-150002Y689997D02*
D03*
X-140002Y709997D02*
D03*
X-150002Y929997D02*
D03*
X-130002Y129998D02*
D03*
X-120002Y389998D02*
D03*
X-130002Y609997D02*
D03*
Y649997D02*
D03*
X-120002Y669997D02*
D03*
X-130002Y689997D02*
D03*
X-120002Y749997D02*
D03*
Y789997D02*
D03*
X-110002Y129998D02*
D03*
X-100002Y149998D02*
D03*
X-110002Y369998D02*
D03*
X-100002Y389998D02*
D03*
X-110002Y489997D02*
D03*
X-100002Y549997D02*
D03*
Y589997D02*
D03*
X-110002Y609997D02*
D03*
Y689997D02*
D03*
X-100002Y709997D02*
D03*
Y749997D02*
D03*
Y789997D02*
D03*
X-90002Y9998D02*
D03*
Y129998D02*
D03*
Y169998D02*
D03*
Y289998D02*
D03*
X-80002Y309998D02*
D03*
X-90002Y329998D02*
D03*
X-80002Y349998D02*
D03*
Y389998D02*
D03*
Y549997D02*
D03*
X-90002Y569997D02*
D03*
Y609997D02*
D03*
Y689997D02*
D03*
X-80002Y749997D02*
D03*
X-90002Y769997D02*
D03*
X-80002Y829997D02*
D03*
X-90002Y929997D02*
D03*
X-70002Y9998D02*
D03*
X-60002Y29998D02*
D03*
Y69998D02*
D03*
Y389998D02*
D03*
Y429998D02*
D03*
Y509997D02*
D03*
Y549997D02*
D03*
X-70002Y569997D02*
D03*
Y689997D02*
D03*
X-60002Y749997D02*
D03*
X-70002Y769997D02*
D03*
X-60002Y789997D02*
D03*
X-70002Y849997D02*
D03*
X-60002Y909997D02*
D03*
X-70002Y929997D02*
D03*
X-50002Y9998D02*
D03*
Y49998D02*
D03*
Y89998D02*
D03*
Y169998D02*
D03*
X-40002Y309998D02*
D03*
X-50002Y329998D02*
D03*
X-40002Y349998D02*
D03*
Y389998D02*
D03*
Y429998D02*
D03*
X-50002Y449997D02*
D03*
X-40002Y509997D02*
D03*
Y549997D02*
D03*
X-50002Y569997D02*
D03*
Y689997D02*
D03*
X-40002Y749997D02*
D03*
X-50002Y769997D02*
D03*
X-40002Y789997D02*
D03*
X-50002Y889997D02*
D03*
X-40002Y909997D02*
D03*
X-50002Y929997D02*
D03*
X-30002Y9998D02*
D03*
Y89998D02*
D03*
Y289998D02*
D03*
X-20002Y309998D02*
D03*
X-30002Y329998D02*
D03*
X-20002Y349998D02*
D03*
Y389998D02*
D03*
X-30002Y449997D02*
D03*
X-20002Y629997D02*
D03*
Y749997D02*
D03*
X-30002Y769997D02*
D03*
Y809997D02*
D03*
X-20002Y829997D02*
D03*
X-30002Y929997D02*
D03*
X-10002Y9998D02*
D03*
X-2Y69998D02*
D03*
X-10002Y89998D02*
D03*
Y289998D02*
D03*
X-2Y309998D02*
D03*
X-10002Y329998D02*
D03*
X-2Y349998D02*
D03*
Y429998D02*
D03*
X-10002Y449997D02*
D03*
X-2Y469997D02*
D03*
Y629997D02*
D03*
X-10002Y649997D02*
D03*
X-2Y669997D02*
D03*
X-10002Y689997D02*
D03*
X-2Y829997D02*
D03*
X-10002Y929997D02*
D03*
X9998Y-70001D02*
D03*
X19998Y-50002D02*
D03*
X9998Y-30001D02*
D03*
X19998Y-10002D02*
D03*
X9998Y9998D02*
D03*
X19998Y69998D02*
D03*
X9998Y89998D02*
D03*
X19998Y109998D02*
D03*
X9998Y169998D02*
D03*
Y329998D02*
D03*
X19998Y629997D02*
D03*
X9998Y649997D02*
D03*
X19998Y669997D02*
D03*
X9998Y809997D02*
D03*
Y889997D02*
D03*
Y929997D02*
D03*
X19998Y949996D02*
D03*
X9998Y969996D02*
D03*
X19998Y989996D02*
D03*
X9998Y1009996D02*
D03*
X29998Y-70001D02*
D03*
X39998Y69998D02*
D03*
X29998Y89998D02*
D03*
X39998Y109998D02*
D03*
X29998Y169998D02*
D03*
X39998Y229998D02*
D03*
X29998Y489997D02*
D03*
X39998Y629997D02*
D03*
X29998Y649997D02*
D03*
X39998Y669997D02*
D03*
Y829997D02*
D03*
Y869997D02*
D03*
X29998Y889997D02*
D03*
Y929997D02*
D03*
X39998Y949996D02*
D03*
X29998Y969996D02*
D03*
X39998Y989996D02*
D03*
X29998Y1009996D02*
D03*
X49998Y-70001D02*
D03*
X59998Y-10002D02*
D03*
Y29998D02*
D03*
Y69998D02*
D03*
X49998Y89998D02*
D03*
Y129998D02*
D03*
X59998Y349998D02*
D03*
Y429998D02*
D03*
X49998Y489997D02*
D03*
Y649997D02*
D03*
X59998Y829997D02*
D03*
X49998Y849997D02*
D03*
Y889997D02*
D03*
Y929997D02*
D03*
Y969996D02*
D03*
Y1009996D02*
D03*
X69998Y-70001D02*
D03*
Y-30001D02*
D03*
X79998Y-10002D02*
D03*
X69998Y9998D02*
D03*
X79998Y29998D02*
D03*
Y69998D02*
D03*
Y149998D02*
D03*
Y189998D02*
D03*
X69998Y329998D02*
D03*
X79998Y629997D02*
D03*
Y829997D02*
D03*
X89998Y-70001D02*
D03*
Y-30001D02*
D03*
X99998Y-10002D02*
D03*
X89998Y9998D02*
D03*
X99998Y29998D02*
D03*
X89998Y89998D02*
D03*
Y369998D02*
D03*
X99998Y509997D02*
D03*
Y549997D02*
D03*
Y629997D02*
D03*
X89998Y729997D02*
D03*
X99998Y789997D02*
D03*
Y829997D02*
D03*
X89998Y849997D02*
D03*
X99998Y909997D02*
D03*
Y949996D02*
D03*
X109998Y-70001D02*
D03*
Y-30001D02*
D03*
Y9998D02*
D03*
X119998Y29998D02*
D03*
Y69998D02*
D03*
X109998Y129998D02*
D03*
Y169998D02*
D03*
X119998Y189998D02*
D03*
X109998Y209998D02*
D03*
X119998Y629997D02*
D03*
X109998Y729997D02*
D03*
X119998Y789997D02*
D03*
Y829997D02*
D03*
X109998Y849997D02*
D03*
Y889997D02*
D03*
X119998Y909997D02*
D03*
X139998Y29998D02*
D03*
X129998Y49998D02*
D03*
X139998Y109998D02*
D03*
X129998Y729997D02*
D03*
X139998Y789997D02*
D03*
Y829997D02*
D03*
X129998Y849997D02*
D03*
Y889997D02*
D03*
X159997Y29998D02*
D03*
X149997Y49998D02*
D03*
X159997Y69998D02*
D03*
Y109998D02*
D03*
X149997Y129998D02*
D03*
X159997Y149998D02*
D03*
Y589997D02*
D03*
Y629997D02*
D03*
X149997Y649997D02*
D03*
X159997Y709997D02*
D03*
X149997Y729997D02*
D03*
Y769997D02*
D03*
X159997Y789997D02*
D03*
Y829997D02*
D03*
X149997Y849997D02*
D03*
X179997Y29998D02*
D03*
X169997Y49998D02*
D03*
X179997Y69998D02*
D03*
X169997Y129998D02*
D03*
X179997Y149998D02*
D03*
Y629997D02*
D03*
X169997Y649997D02*
D03*
Y729997D02*
D03*
Y769997D02*
D03*
X179997Y789997D02*
D03*
X169997Y849997D02*
D03*
X199997Y29998D02*
D03*
X189997Y49998D02*
D03*
Y89998D02*
D03*
X199997Y109998D02*
D03*
Y149998D02*
D03*
Y629997D02*
D03*
Y709997D02*
D03*
Y749997D02*
D03*
X219997Y29998D02*
D03*
X209997Y49998D02*
D03*
Y209998D02*
D03*
Y529997D02*
D03*
X219997Y549997D02*
D03*
Y709997D02*
D03*
X209997Y729997D02*
D03*
X219997Y749997D02*
D03*
X209997Y769997D02*
D03*
Y809997D02*
D03*
X219997Y829997D02*
D03*
X209997Y849997D02*
D03*
Y889997D02*
D03*
X219997Y909997D02*
D03*
X239997Y29998D02*
D03*
X229997Y49998D02*
D03*
X239997Y69998D02*
D03*
Y149998D02*
D03*
X229997Y529997D02*
D03*
Y649997D02*
D03*
X239997Y709997D02*
D03*
X229997Y729997D02*
D03*
X239997Y749997D02*
D03*
X229997Y769997D02*
D03*
Y809997D02*
D03*
X239997Y829997D02*
D03*
X229997Y849997D02*
D03*
Y889997D02*
D03*
X239997Y909997D02*
D03*
X259997Y-50002D02*
D03*
Y-10002D02*
D03*
Y29998D02*
D03*
X249997Y649997D02*
D03*
X259997Y709997D02*
D03*
X249997Y729997D02*
D03*
X259997Y749997D02*
D03*
X249997Y769997D02*
D03*
Y809997D02*
D03*
X259997Y829997D02*
D03*
X249997Y849997D02*
D03*
Y889997D02*
D03*
X259997Y909997D02*
D03*
X249997Y929997D02*
D03*
X259997Y949996D02*
D03*
X249997Y969996D02*
D03*
X259997Y989996D02*
D03*
X249997Y1009996D02*
D03*
X269997Y-70001D02*
D03*
X279997Y-50002D02*
D03*
X269997Y-30001D02*
D03*
X279997Y-10002D02*
D03*
X269997Y9998D02*
D03*
X279997Y29998D02*
D03*
X269997Y649997D02*
D03*
Y689997D02*
D03*
Y729997D02*
D03*
Y769997D02*
D03*
Y809997D02*
D03*
Y849997D02*
D03*
Y889997D02*
D03*
X279997Y909997D02*
D03*
X269997Y929997D02*
D03*
X279997Y949996D02*
D03*
X269997Y969996D02*
D03*
X279997Y989996D02*
D03*
X269997Y1009996D02*
D03*
X289997Y-70001D02*
D03*
X299997Y-50002D02*
D03*
X289997Y-30001D02*
D03*
X299997Y-10002D02*
D03*
X289997Y9998D02*
D03*
X299997Y189998D02*
D03*
X289997Y769997D02*
D03*
X299997Y869997D02*
D03*
X289997Y889997D02*
D03*
X299997Y909997D02*
D03*
X289997Y929997D02*
D03*
X299997Y949996D02*
D03*
X289997Y969996D02*
D03*
X299997Y989996D02*
D03*
X289997Y1009996D02*
D03*
X309997Y-70001D02*
D03*
X319997Y-50002D02*
D03*
X309997Y-30001D02*
D03*
X319997Y-10002D02*
D03*
X309997Y9998D02*
D03*
Y289998D02*
D03*
X319997Y469997D02*
D03*
Y829997D02*
D03*
Y869997D02*
D03*
X309997Y889997D02*
D03*
X319997Y909997D02*
D03*
X309997Y929997D02*
D03*
X319997Y949996D02*
D03*
X309997Y969996D02*
D03*
X319997Y989996D02*
D03*
X309997Y1009996D02*
D03*
X329997Y-70001D02*
D03*
Y-30001D02*
D03*
Y489997D02*
D03*
X339997Y509997D02*
D03*
X329997Y689997D02*
D03*
Y889997D02*
D03*
X339997Y909997D02*
D03*
X329997Y929997D02*
D03*
Y969996D02*
D03*
Y1009996D02*
D03*
X349997Y9998D02*
D03*
X359997Y109998D02*
D03*
X349997Y409998D02*
D03*
X359997Y709997D02*
D03*
X349997Y809997D02*
D03*
Y889997D02*
D03*
X359997Y909997D02*
D03*
X349997Y929997D02*
D03*
X369997Y129998D02*
D03*
Y249998D02*
D03*
X379997Y349998D02*
D03*
Y669997D02*
D03*
Y709997D02*
D03*
Y869997D02*
D03*
X369997Y889997D02*
D03*
X379997Y909997D02*
D03*
X369997Y929997D02*
D03*
X389997Y9998D02*
D03*
X399997Y29998D02*
D03*
X389997Y49998D02*
D03*
X399997Y69998D02*
D03*
X389997Y89998D02*
D03*
X399997Y109998D02*
D03*
X389997Y129998D02*
D03*
Y649997D02*
D03*
X399997Y669997D02*
D03*
Y749997D02*
D03*
Y789997D02*
D03*
Y869997D02*
D03*
X389997Y889997D02*
D03*
X399997Y909997D02*
D03*
X389997Y929997D02*
D03*
X409997Y9998D02*
D03*
Y89998D02*
D03*
X419997Y109998D02*
D03*
X409997Y129998D02*
D03*
X419997Y149998D02*
D03*
X409997Y169998D02*
D03*
X419997Y789997D02*
D03*
X409997Y849997D02*
D03*
Y929997D02*
D03*
X429997Y9998D02*
D03*
X439997Y229998D02*
D03*
Y309998D02*
D03*
Y349998D02*
D03*
Y389998D02*
D03*
Y469997D02*
D03*
X429997Y569997D02*
D03*
Y929997D02*
D03*
X449997Y129998D02*
D03*
X459997Y149998D02*
D03*
X449997Y169998D02*
D03*
X459997Y189998D02*
D03*
Y229998D02*
D03*
Y349998D02*
D03*
Y429998D02*
D03*
Y469997D02*
D03*
Y509997D02*
D03*
X449997Y529997D02*
D03*
X459997Y549997D02*
D03*
X449997Y729997D02*
D03*
X469997Y129998D02*
D03*
X479997Y149998D02*
D03*
X469997Y169998D02*
D03*
X479997Y189998D02*
D03*
X469997Y209998D02*
D03*
X479997Y229998D02*
D03*
X469997Y249998D02*
D03*
X479997Y269998D02*
D03*
X469997Y289998D02*
D03*
X479997Y309998D02*
D03*
X469997Y329998D02*
D03*
X479997Y349998D02*
D03*
X469997Y369998D02*
D03*
X479997Y389998D02*
D03*
X469997Y409998D02*
D03*
X479997Y429998D02*
D03*
X469997Y529997D02*
D03*
X479997Y549997D02*
D03*
X469997Y569997D02*
D03*
X479997Y669997D02*
D03*
X469997Y769997D02*
D03*
Y809997D02*
D03*
X489997Y9998D02*
D03*
X499997Y109998D02*
D03*
X489997Y129998D02*
D03*
X499997Y149998D02*
D03*
X489997Y169998D02*
D03*
X499997Y189998D02*
D03*
X489997Y209998D02*
D03*
X499997Y229998D02*
D03*
X489997Y249998D02*
D03*
X499997Y269998D02*
D03*
X489997Y289998D02*
D03*
X499997Y309998D02*
D03*
X489997Y329998D02*
D03*
X499997Y349998D02*
D03*
X489997Y369998D02*
D03*
X499997Y389998D02*
D03*
X489997Y409998D02*
D03*
X499997Y429998D02*
D03*
X489997Y449997D02*
D03*
X499997Y469997D02*
D03*
X489997Y689997D02*
D03*
Y729997D02*
D03*
Y809997D02*
D03*
Y929997D02*
D03*
D83*
X-97028Y364236D02*
D03*
X110236Y249936D02*
D03*
D102*
X348488Y724662D02*
Y759968D01*
X346202Y762254D02*
X348488Y759968D01*
X332740Y762254D02*
X346202D01*
D103*
X339162Y101214D02*
D03*
Y125214D02*
D03*
D104*
X284116Y77724D02*
D03*
X302116D02*
D03*
D105*
X451612Y574802D02*
D03*
D106*
X447112Y709802D02*
D03*
D107*
X405612D02*
D03*
D108*
X343612D02*
D03*
X300612Y598302D02*
D03*
D109*
Y700302D02*
D03*
Y690802D02*
D03*
Y679802D02*
D03*
Y668802D02*
D03*
Y657802D02*
D03*
Y646802D02*
D03*
Y635802D02*
D03*
Y624802D02*
D03*
Y613802D02*
D03*
D110*
X75032Y392614D02*
D03*
X56032D02*
D03*
X65532Y415614D02*
D03*
D111*
X37084Y415240D02*
D03*
Y396240D02*
D03*
X14084Y405740D02*
D03*
D112*
X251662Y96714D02*
D03*
Y109414D02*
D03*
Y122114D02*
D03*
Y134814D02*
D03*
X301662Y96714D02*
D03*
Y109414D02*
D03*
Y122114D02*
D03*
Y134814D02*
D03*
D113*
X274162Y230214D02*
D03*
X280662D02*
D03*
X287162D02*
D03*
X293662D02*
D03*
X300162D02*
D03*
X306662D02*
D03*
X313162D02*
D03*
X319662D02*
D03*
X326162D02*
D03*
X332662D02*
D03*
X274162Y174714D02*
D03*
X280662D02*
D03*
X287162D02*
D03*
X293662D02*
D03*
X300162D02*
D03*
X306662D02*
D03*
X313162D02*
D03*
X319662D02*
D03*
X326162D02*
D03*
X332662D02*
D03*
D114*
X301662Y109414D02*
X316290D01*
X324490Y101214D01*
X339162D01*
X352420D01*
X354076Y102870D01*
X301662Y122114D02*
X336062D01*
X339162Y125214D01*
X350004D01*
X353314Y128524D01*
M02*
