G04 Layer_Color=32896*
%FSLAX44Y44*%
%MOMM*%
G71*
G01*
G75*
%ADD58C,0.2000*%
%ADD63C,0.1000*%
%ADD115C,0.2500*%
%ADD118C,0.1016*%
%ADD121C,0.0050*%
%ADD123C,0.1270*%
%ADD127R,0.4080X0.8880*%
%ADD128R,0.8880X0.4080*%
%ADD194C,0.0254*%
%ADD195C,0.1200*%
D58*
X288112Y613302D02*
G03*
X288112Y613302I-2500J0D01*
G01*
X45158Y746438D02*
G03*
X32458Y733738I0J-12700D01*
G01*
X279837Y90364D02*
G03*
X273487Y90364I-3175J0D01*
G01*
X45158Y746438D02*
X141130D01*
X32458Y651988D02*
Y733738D01*
Y651988D02*
X259748D01*
Y686494D01*
X141130Y746438D02*
X259648D01*
X259748Y686888D02*
Y746438D01*
X80532Y402114D02*
Y411114D01*
X72532D02*
X80532D01*
X50532Y402114D02*
Y411114D01*
X58532D01*
X16834Y421240D02*
X25834D01*
X16834Y412490D02*
Y421240D01*
Y390240D02*
X25834D01*
X16834D02*
Y398990D01*
X265012Y90364D02*
X273487D01*
X279837D02*
X288312D01*
Y141164D01*
X265012D02*
X288312D01*
X265012Y90364D02*
Y141164D01*
X266662Y179714D02*
X340662D01*
X266662D02*
Y224714D01*
X340662D01*
Y179714D02*
Y224714D01*
X-37000Y797000D02*
X-39333D01*
X-38166D01*
Y803998D01*
X-37000Y802831D01*
X-39665Y784000D02*
X-35000D01*
X-39665Y788665D01*
Y789831D01*
X-38499Y790998D01*
X-36166D01*
X-35000Y789831D01*
X520000Y930000D02*
G03*
X510000Y940000I-10000J0D01*
G01*
Y0D02*
G03*
X520000Y10000I0J10000D01*
G01*
X-180000D02*
G03*
X-170000Y0I10000J0D01*
G01*
Y940000D02*
G03*
X-180000Y930000I0J-10000D01*
G01*
X0Y-85000D02*
X340000D01*
X0Y1025000D02*
X340000D01*
X0Y940000D02*
Y1025000D01*
X340000Y940000D02*
Y1025000D01*
Y-85000D02*
Y0D01*
X0Y-85000D02*
Y0D01*
X-165000D02*
X0D01*
X-170000Y940000D02*
X0D01*
X-180000Y10000D02*
Y930000D01*
X340000Y940000D02*
X505000D01*
X340000Y0D02*
X505000D01*
X520000Y10000D02*
Y930000D01*
X505000Y940000D02*
X510000D01*
X505000Y0D02*
X510000D01*
X-170000D02*
X-165000D01*
D63*
X304721Y149748D02*
X305721Y150748D01*
X307720D01*
X308720Y149748D01*
Y145750D01*
X307720Y144750D01*
X305721D01*
X304721Y145750D01*
X302722Y150748D02*
X298723D01*
Y149748D01*
X302722Y145750D01*
Y144750D01*
X296724Y145750D02*
X295724Y144750D01*
X293725D01*
X292725Y145750D01*
Y149748D01*
X293725Y150748D01*
X295724D01*
X296724Y149748D01*
Y148749D01*
X295724Y147749D01*
X292725D01*
X318581Y259506D02*
X319581Y260506D01*
X321580D01*
X322580Y259506D01*
Y255508D01*
X321580Y254508D01*
X319581D01*
X318581Y255508D01*
X313583Y254508D02*
Y260506D01*
X316582Y257507D01*
X312583D01*
X306585Y254508D02*
X310584D01*
X306585Y258507D01*
Y259506D01*
X307585Y260506D01*
X309584D01*
X310584Y259506D01*
X326073Y151272D02*
X327073Y152272D01*
X329072D01*
X330072Y151272D01*
Y147274D01*
X329072Y146274D01*
X327073D01*
X326073Y147274D01*
X320075Y152272D02*
X324074D01*
Y149273D01*
X322075Y150273D01*
X321075D01*
X320075Y149273D01*
Y147274D01*
X321075Y146274D01*
X323074D01*
X324074Y147274D01*
X318076Y152272D02*
X314077D01*
Y151272D01*
X318076Y147274D01*
Y146274D01*
X355157Y286684D02*
X356157Y287684D01*
X358156D01*
X359156Y286684D01*
Y282686D01*
X358156Y281686D01*
X356157D01*
X355157Y282686D01*
X349159Y287684D02*
X351159Y286684D01*
X353158Y284685D01*
Y282686D01*
X352158Y281686D01*
X350159D01*
X349159Y282686D01*
Y283685D01*
X350159Y284685D01*
X353158D01*
X347160Y287684D02*
X343161D01*
Y286684D01*
X347160Y282686D01*
Y281686D01*
X278917Y149766D02*
X279917Y150766D01*
X281916D01*
X282916Y149766D01*
Y145768D01*
X281916Y144768D01*
X279917D01*
X278917Y145768D01*
X276918Y150766D02*
X272919D01*
Y149766D01*
X276918Y145768D01*
Y144768D01*
X270920Y149766D02*
X269920Y150766D01*
X267921D01*
X266921Y149766D01*
Y148767D01*
X267921Y147767D01*
X266921Y146767D01*
Y145768D01*
X267921Y144768D01*
X269920D01*
X270920Y145768D01*
Y146767D01*
X269920Y147767D01*
X270920Y148767D01*
Y149766D01*
X269920Y147767D02*
X267921D01*
X287140Y259905D02*
Y265903D01*
X284141D01*
X283141Y264903D01*
Y262904D01*
X284141Y261904D01*
X287140D01*
X285141D02*
X283141Y259905D01*
X281142D02*
X279143D01*
X280142D01*
Y265903D01*
X281142Y264903D01*
X276144D02*
X275144Y265903D01*
X273144D01*
X272145Y264903D01*
Y263904D01*
X273144Y262904D01*
X272145Y261904D01*
Y260905D01*
X273144Y259905D01*
X275144D01*
X276144Y260905D01*
Y261904D01*
X275144Y262904D01*
X276144Y263904D01*
Y264903D01*
X275144Y262904D02*
X273144D01*
X283662Y84712D02*
Y79714D01*
X282662Y78714D01*
X280663D01*
X279663Y79714D01*
Y84712D01*
X277664Y78714D02*
X275665D01*
X276664D01*
Y84712D01*
X277664Y83712D01*
X272666D02*
X271666Y84712D01*
X269667D01*
X268667Y83712D01*
Y79714D01*
X269667Y78714D01*
X271666D01*
X272666Y79714D01*
Y83712D01*
X270158Y227584D02*
X265160D01*
X264160Y228584D01*
Y230583D01*
X265160Y231583D01*
X270158D01*
X264160Y233582D02*
Y235581D01*
Y234582D01*
X270158D01*
X269158Y233582D01*
X264160Y238580D02*
Y240580D01*
Y239580D01*
X270158D01*
X269158Y238580D01*
X365760Y198247D02*
Y204245D01*
X362761D01*
X361761Y203245D01*
Y201246D01*
X362761Y200246D01*
X365760D01*
X363761D02*
X361761Y198247D01*
X355763D02*
X359762D01*
X355763Y202246D01*
Y203245D01*
X356763Y204245D01*
X358762D01*
X359762Y203245D01*
X349765Y204245D02*
X353764D01*
Y201246D01*
X351764Y202246D01*
X350765D01*
X349765Y201246D01*
Y199247D01*
X350765Y198247D01*
X352764D01*
X353764Y199247D01*
X367538Y182880D02*
Y188878D01*
X364539D01*
X363539Y187878D01*
Y185879D01*
X364539Y184879D01*
X367538D01*
X365539D02*
X363539Y182880D01*
X361540Y187878D02*
X360540Y188878D01*
X358541D01*
X357541Y187878D01*
Y186879D01*
X358541Y185879D01*
X359541D01*
X358541D01*
X357541Y184879D01*
Y183880D01*
X358541Y182880D01*
X360540D01*
X361540Y183880D01*
X351543Y188878D02*
X355542D01*
Y185879D01*
X353543Y186879D01*
X352543D01*
X351543Y185879D01*
Y183880D01*
X352543Y182880D01*
X354542D01*
X355542Y183880D01*
X230632Y192786D02*
X236630D01*
Y195785D01*
X235630Y196785D01*
X233631D01*
X232631Y195785D01*
Y192786D01*
Y194785D02*
X230632Y196785D01*
X235630Y198784D02*
X236630Y199784D01*
Y201783D01*
X235630Y202783D01*
X234631D01*
X233631Y201783D01*
Y200783D01*
Y201783D01*
X232631Y202783D01*
X231632D01*
X230632Y201783D01*
Y199784D01*
X231632Y198784D01*
X236630Y204782D02*
Y208781D01*
X235630D01*
X231632Y204782D01*
X230632D01*
X362966Y130556D02*
Y136554D01*
X359967D01*
X358967Y135554D01*
Y133555D01*
X359967Y132555D01*
X362966D01*
X360967D02*
X358967Y130556D01*
X352969Y136554D02*
X356968D01*
Y133555D01*
X354969Y134555D01*
X353969D01*
X352969Y133555D01*
Y131556D01*
X353969Y130556D01*
X355968D01*
X356968Y131556D01*
X350970Y130556D02*
X348970D01*
X349970D01*
Y136554D01*
X350970Y135554D01*
X364236Y156464D02*
Y162462D01*
X361237D01*
X360237Y161462D01*
Y159463D01*
X361237Y158463D01*
X364236D01*
X362237D02*
X360237Y156464D01*
X354239Y162462D02*
X358238D01*
Y159463D01*
X356239Y160463D01*
X355239D01*
X354239Y159463D01*
Y157464D01*
X355239Y156464D01*
X357238D01*
X358238Y157464D01*
X348241Y156464D02*
X352240D01*
X348241Y160463D01*
Y161462D01*
X349241Y162462D01*
X351240D01*
X352240Y161462D01*
X364236Y216662D02*
Y222660D01*
X361237D01*
X360237Y221660D01*
Y219661D01*
X361237Y218661D01*
X364236D01*
X362237D02*
X360237Y216662D01*
X354239Y222660D02*
X358238D01*
Y219661D01*
X356239Y220661D01*
X355239D01*
X354239Y219661D01*
Y217662D01*
X355239Y216662D01*
X357238D01*
X358238Y217662D01*
X349241Y216662D02*
Y222660D01*
X352240Y219661D01*
X348241D01*
X290981Y61328D02*
X289981Y60328D01*
X287982D01*
X286982Y61328D01*
Y65326D01*
X287982Y66326D01*
X289981D01*
X290981Y65326D01*
X292980Y61328D02*
X293980Y60328D01*
X295979D01*
X296979Y61328D01*
Y62327D01*
X295979Y63327D01*
X296979Y64327D01*
Y65326D01*
X295979Y66326D01*
X293980D01*
X292980Y65326D01*
Y64327D01*
X293980Y63327D01*
X292980Y62327D01*
Y61328D01*
X293980Y63327D02*
X295979D01*
X298978Y61328D02*
X299978Y60328D01*
X301977D01*
X302977Y61328D01*
Y65326D01*
X301977Y66326D01*
X299978D01*
X298978Y65326D01*
Y61328D01*
X370250Y260031D02*
X371250Y259031D01*
Y257032D01*
X370250Y256032D01*
X366252D01*
X365252Y257032D01*
Y259031D01*
X366252Y260031D01*
X370250Y262030D02*
X371250Y263030D01*
Y265029D01*
X370250Y266029D01*
X369251D01*
X368251Y265029D01*
X367251Y266029D01*
X366252D01*
X365252Y265029D01*
Y263030D01*
X366252Y262030D01*
X367251D01*
X368251Y263030D01*
X369251Y262030D01*
X370250D01*
X368251Y263030D02*
Y265029D01*
X365252Y268028D02*
Y270028D01*
Y269028D01*
X371250D01*
X370250Y268028D01*
X315132Y73849D02*
X316132Y72849D01*
Y70850D01*
X315132Y69850D01*
X311134D01*
X310134Y70850D01*
Y72849D01*
X311134Y73849D01*
X315132Y75848D02*
X316132Y76848D01*
Y78847D01*
X315132Y79847D01*
X314133D01*
X313133Y78847D01*
X312133Y79847D01*
X311134D01*
X310134Y78847D01*
Y76848D01*
X311134Y75848D01*
X312133D01*
X313133Y76848D01*
X314133Y75848D01*
X315132D01*
X313133Y76848D02*
Y78847D01*
X310134Y85845D02*
Y81846D01*
X314133Y85845D01*
X315132D01*
X316132Y84845D01*
Y82846D01*
X315132Y81846D01*
X321818Y279146D02*
Y285144D01*
X318819D01*
X317819Y284144D01*
Y282145D01*
X318819Y281145D01*
X321818D01*
X319819D02*
X317819Y279146D01*
X311821D02*
X315820D01*
X311821Y283145D01*
Y284144D01*
X312821Y285144D01*
X314820D01*
X315820Y284144D01*
X306823Y279146D02*
Y285144D01*
X309822Y282145D01*
X305823D01*
X351384Y105704D02*
X357382D01*
Y108703D01*
X356382Y109703D01*
X354383D01*
X353383Y108703D01*
Y105704D01*
Y107703D02*
X351384Y109703D01*
X357382Y115701D02*
Y111702D01*
X354383D01*
X355383Y113701D01*
Y114701D01*
X354383Y115701D01*
X352384D01*
X351384Y114701D01*
Y112702D01*
X352384Y111702D01*
X357382Y121699D02*
Y117700D01*
X354383D01*
X355383Y119699D01*
Y120699D01*
X354383Y121699D01*
X352384D01*
X351384Y120699D01*
Y118700D01*
X352384Y117700D01*
X262890Y205740D02*
X268888D01*
Y208739D01*
X267888Y209739D01*
X265889D01*
X264889Y208739D01*
Y205740D01*
Y207739D02*
X262890Y209739D01*
Y214737D02*
X268888D01*
X265889Y211738D01*
Y215737D01*
X262890Y217736D02*
Y219736D01*
Y218736D01*
X268888D01*
X267888Y217736D01*
X408243Y730914D02*
X410243D01*
X409243D01*
Y725916D01*
X410243Y724916D01*
X411242D01*
X412242Y725916D01*
X406244Y724916D02*
X404245D01*
X405244D01*
Y730914D01*
X406244Y729914D01*
X401246D02*
X400246Y730914D01*
X398246D01*
X397247Y729914D01*
Y725916D01*
X398246Y724916D01*
X400246D01*
X401246Y725916D01*
Y729914D01*
X47055Y422132D02*
Y426130D01*
X48055Y427130D01*
X50054D01*
X51054Y426130D01*
Y422132D01*
X50054Y421132D01*
X48055D01*
X49055Y423131D02*
X47055Y421132D01*
X48055D02*
X47055Y422132D01*
X41057Y421132D02*
X45056D01*
X41057Y425131D01*
Y426130D01*
X42057Y427130D01*
X44056D01*
X45056Y426130D01*
X82615Y417560D02*
Y421558D01*
X83615Y422558D01*
X85614D01*
X86614Y421558D01*
Y417560D01*
X85614Y416560D01*
X83615D01*
X84615Y418559D02*
X82615Y416560D01*
X83615D02*
X82615Y417560D01*
X80616Y421558D02*
X79616Y422558D01*
X77617D01*
X76617Y421558D01*
Y420559D01*
X77617Y419559D01*
X78617D01*
X77617D01*
X76617Y418559D01*
Y417560D01*
X77617Y416560D01*
X79616D01*
X80616Y417560D01*
X33528Y435610D02*
Y441608D01*
X30529D01*
X29529Y440608D01*
Y438609D01*
X30529Y437609D01*
X33528D01*
X31529D02*
X29529Y435610D01*
X23531Y441608D02*
X27530D01*
Y438609D01*
X25531Y439609D01*
X24531D01*
X23531Y438609D01*
Y436610D01*
X24531Y435610D01*
X26530D01*
X27530Y436610D01*
X17533Y441608D02*
X19533Y440608D01*
X21532Y438609D01*
Y436610D01*
X20532Y435610D01*
X18533D01*
X17533Y436610D01*
Y437609D01*
X18533Y438609D01*
X21532D01*
X1270Y378968D02*
Y384966D01*
X-1729D01*
X-2729Y383966D01*
Y381967D01*
X-1729Y380967D01*
X1270D01*
X-729D02*
X-2729Y378968D01*
X-8727Y384966D02*
X-4728D01*
Y381967D01*
X-6727Y382967D01*
X-7727D01*
X-8727Y381967D01*
Y379968D01*
X-7727Y378968D01*
X-5728D01*
X-4728Y379968D01*
X-10726Y384966D02*
X-14725D01*
Y383966D01*
X-10726Y379968D01*
Y378968D01*
X52832Y372364D02*
Y378362D01*
X49833D01*
X48833Y377362D01*
Y375363D01*
X49833Y374363D01*
X52832D01*
X50833D02*
X48833Y372364D01*
X42835Y378362D02*
X46834D01*
Y375363D01*
X44835Y376363D01*
X43835D01*
X42835Y375363D01*
Y373364D01*
X43835Y372364D01*
X45834D01*
X46834Y373364D01*
X40836Y377362D02*
X39836Y378362D01*
X37837D01*
X36837Y377362D01*
Y376363D01*
X37837Y375363D01*
X36837Y374363D01*
Y373364D01*
X37837Y372364D01*
X39836D01*
X40836Y373364D01*
Y374363D01*
X39836Y375363D01*
X40836Y376363D01*
Y377362D01*
X39836Y375363D02*
X37837D01*
X27497Y362884D02*
X28497Y363884D01*
X30496D01*
X31496Y362884D01*
Y358886D01*
X30496Y357886D01*
X28497D01*
X27497Y358886D01*
X25498Y362884D02*
X24498Y363884D01*
X22499D01*
X21499Y362884D01*
Y361885D01*
X22499Y360885D01*
X21499Y359885D01*
Y358886D01*
X22499Y357886D01*
X24498D01*
X25498Y358886D01*
Y359885D01*
X24498Y360885D01*
X25498Y361885D01*
Y362884D01*
X24498Y360885D02*
X22499D01*
X19500Y362884D02*
X18500Y363884D01*
X16501D01*
X15501Y362884D01*
Y361885D01*
X16501Y360885D01*
X17500D01*
X16501D01*
X15501Y359885D01*
Y358886D01*
X16501Y357886D01*
X18500D01*
X19500Y358886D01*
X255688Y682025D02*
Y672028D01*
X249023D01*
X244025D02*
X240693D01*
X239027Y673694D01*
Y677026D01*
X240693Y678692D01*
X244025D01*
X245691Y677026D01*
Y673694D01*
X244025Y672028D01*
X235694D02*
Y682025D01*
X230696D01*
X229030Y680359D01*
Y677026D01*
X230696Y675360D01*
X235694D01*
X232362D02*
X229030Y672028D01*
X224031Y678692D02*
X220699D01*
X219033Y677026D01*
Y672028D01*
X224031D01*
X225697Y673694D01*
X224031Y675360D01*
X219033D01*
X205704Y672028D02*
Y682025D01*
X202372Y678692D01*
X199039Y682025D01*
Y672028D01*
X190709D02*
X194041D01*
X195707Y673694D01*
Y677026D01*
X194041Y678692D01*
X190709D01*
X189043Y677026D01*
Y675360D01*
X195707D01*
X185710Y672028D02*
X180712D01*
X179046Y673694D01*
X180712Y675360D01*
X184044D01*
X185710Y677026D01*
X184044Y678692D01*
X179046D01*
X175714Y682025D02*
Y672028D01*
Y677026D01*
X174048Y678692D01*
X170715D01*
X169049Y677026D01*
Y672028D01*
D115*
X84782Y392614D02*
G03*
X84782Y392614I-1250J0D01*
G01*
X38334Y423490D02*
G03*
X38334Y423490I-1250J0D01*
G01*
X335824Y186714D02*
G03*
X335824Y186714I-3162J0D01*
G01*
D118*
X294720Y156250D02*
X304720D01*
X294720D02*
Y161250D01*
X304720Y156250D02*
Y161250D01*
X294720D02*
X304720D01*
X25210Y373086D02*
X35210D01*
Y368086D02*
Y373086D01*
X25210Y368086D02*
Y373086D01*
Y368086D02*
X35210D01*
X326162Y72714D02*
Y82714D01*
X321162Y72714D02*
X326162D01*
X321162Y82714D02*
X326162D01*
X321162Y72714D02*
Y82714D01*
X350362Y241824D02*
Y261824D01*
X362362D01*
Y241824D02*
Y261824D01*
X350362Y241824D02*
X362362D01*
X283116Y83724D02*
X303116D01*
Y71724D02*
Y83724D01*
X283116Y71724D02*
X303116D01*
X283116D02*
Y83724D01*
X271098Y155996D02*
X281098D01*
X271098D02*
Y160996D01*
X281098Y155996D02*
Y160996D01*
X271098D02*
X281098D01*
X345862Y278090D02*
X355862D01*
Y273090D02*
Y278090D01*
X345862Y273090D02*
Y278090D01*
Y273090D02*
X355862D01*
X317072Y157774D02*
X327072D01*
X317072D02*
Y162774D01*
X327072Y157774D02*
Y162774D01*
X317072D02*
X327072D01*
X309662Y247214D02*
X319662D01*
X309662D02*
Y252214D01*
X319662Y247214D02*
Y252214D01*
X309662D02*
X319662D01*
D121*
X26416Y377825D02*
X45212D01*
Y386207D01*
X26416D02*
X45212D01*
X26416Y377825D02*
Y386207D01*
X4318Y378079D02*
X23114D01*
Y386461D01*
X4318D02*
X23114D01*
X4318Y378079D02*
Y386461D01*
X18288Y425831D02*
X37084D01*
Y434213D01*
X18288D02*
X37084D01*
X18288Y425831D02*
Y434213D01*
X346964Y223647D02*
X365760D01*
Y232029D01*
X346964D02*
X365760D01*
X346964Y223647D02*
Y232029D01*
X345694Y162433D02*
X364490D01*
Y170815D01*
X345694D02*
X364490D01*
X345694Y162433D02*
Y170815D01*
Y137541D02*
X364490D01*
Y145923D01*
X345694D02*
X364490D01*
X345694Y137541D02*
Y145923D01*
X260853Y202236D02*
Y221032D01*
X252471D02*
X260853D01*
X252471Y202236D02*
Y221032D01*
Y202236D02*
X260853D01*
X246853Y191236D02*
Y210032D01*
X238471D02*
X246853D01*
X238471Y191236D02*
Y210032D01*
Y191236D02*
X246853D01*
X346964Y189865D02*
X365760D01*
Y198247D01*
X346964D02*
X365760D01*
X346964Y189865D02*
Y198247D01*
Y206121D02*
X365760D01*
Y214503D01*
X346964D02*
X365760D01*
X346964Y206121D02*
Y214503D01*
X305682Y278191D02*
X324478D01*
X305682Y269809D02*
Y278191D01*
Y269809D02*
X324478D01*
Y278191D01*
X268344Y259905D02*
X287140D01*
X268344Y251523D02*
Y259905D01*
Y251523D02*
X287140D01*
Y259905D01*
D123*
X513612Y695802D02*
G03*
X508612Y700802I-5000J0D01*
G01*
X473612Y695802D02*
G03*
X468612Y700802I-5000J0D01*
G01*
X465612Y695802D02*
G03*
X460612Y700802I-5000J0D01*
G01*
X508612Y590802D02*
G03*
X513612Y595802I0J5000D01*
G01*
X468612Y590802D02*
G03*
X473612Y595802I0J5000D01*
G01*
X460612Y590802D02*
G03*
X465612Y595802I0J5000D01*
G01*
X298112Y572302D02*
X439612D01*
X298112D02*
Y590802D01*
Y710802D02*
X303612D01*
X298112Y706302D02*
Y710802D01*
X473612Y700802D02*
X508612D01*
X465612D02*
X468612D01*
X457612D02*
X460612D01*
X473612Y590802D02*
X508612D01*
X465612D02*
X468612D01*
X457612D02*
X460612D01*
X513612Y595802D02*
Y695802D01*
X457612Y590802D02*
Y700802D01*
X468612D02*
X473612D01*
Y695802D02*
Y700802D01*
Y595802D02*
Y695802D01*
Y590802D02*
Y595802D01*
X468612Y590802D02*
X473612D01*
X460612Y700802D02*
X465612D01*
Y695802D02*
Y700802D01*
Y595802D02*
Y695802D01*
Y590802D02*
Y595802D01*
X460612Y590802D02*
X465612D01*
D127*
X35833Y382016D02*
D03*
X13735Y382270D02*
D03*
X27705Y430022D02*
D03*
X356381Y227838D02*
D03*
X355111Y166624D02*
D03*
Y141732D02*
D03*
X356381Y194056D02*
D03*
Y210312D02*
D03*
X315061Y274000D02*
D03*
X277723Y255714D02*
D03*
D128*
X256662Y211653D02*
D03*
X242662Y200652D02*
D03*
D194*
X141130Y685364D02*
X259748D01*
X141130Y685618D02*
X259748D01*
X141130Y685872D02*
X259748D01*
X141130Y686126D02*
X259748D01*
X141130Y686380D02*
X259748D01*
X141130Y686634D02*
X259748D01*
X141130Y686888D02*
X259748D01*
X141130Y687142D02*
X259748D01*
X141130Y687396D02*
X259748D01*
X141130Y687650D02*
X259748D01*
X141130Y687904D02*
X259748D01*
X141130Y688158D02*
X259748D01*
X141130Y688412D02*
X259748D01*
X141130Y688666D02*
X259748D01*
X141130Y688920D02*
X174404D01*
X175420D02*
X259748D01*
X141130Y689174D02*
X174150D01*
X175420D02*
X259748D01*
X141130Y689428D02*
X174150D01*
X174912D02*
X259748D01*
X141130Y689682D02*
X173896D01*
X174658D02*
X259748D01*
X141130Y689936D02*
X157386D01*
X158402D02*
X161704D01*
X161958D02*
X163736D01*
X163990D02*
X165514D01*
X166530D02*
X170594D01*
X171610D02*
X173896D01*
X174658D02*
X176944D01*
X178214D02*
X182786D01*
X183548D02*
X186088D01*
X186850D02*
X189644D01*
X190660D02*
X193200D01*
X194216D02*
X196502D01*
X197264D02*
X199804D01*
X200566D02*
X223934D01*
X226220D02*
X233840D01*
X236126D02*
X243238D01*
X245524D02*
X251112D01*
X254414D02*
X259748D01*
X141130Y690190D02*
X156878D01*
X158910D02*
X159672D01*
X160434D02*
X161704D01*
X162212D02*
X163482D01*
X164244D02*
X165006D01*
X167038D02*
X167800D01*
X169070D02*
X170086D01*
X172118D02*
X173896D01*
X174658D02*
X176436D01*
X178976D02*
X181770D01*
X184310D02*
X185580D01*
X187358D02*
X188628D01*
X189136D02*
X189390D01*
X191168D02*
X192184D01*
X194724D02*
X195994D01*
X197772D02*
X199296D01*
X201074D02*
X201328D01*
X201836D02*
X202598D01*
X203360D02*
X204376D01*
X205138D02*
X206408D01*
X207170D02*
X207678D01*
X210726D02*
X223426D01*
X226728D02*
X233332D01*
X236634D02*
X242984D01*
X246032D02*
X250096D01*
X255176D02*
X259748D01*
X141130Y690444D02*
X156624D01*
X159164D02*
X159672D01*
X160434D02*
X161704D01*
X162212D02*
X163482D01*
X164244D02*
X164752D01*
X167292D02*
X167800D01*
X169070D02*
X169832D01*
X172372D02*
X173642D01*
X174658D02*
X176182D01*
X179230D02*
X181770D01*
X184564D02*
X185326D01*
X187612D02*
X188628D01*
X191168D02*
X192184D01*
X194978D02*
X195740D01*
X198026D02*
X199042D01*
X201836D02*
X202598D01*
X203106D02*
X204376D01*
X205138D02*
X206408D01*
X207170D02*
X207678D01*
X210726D02*
X222918D01*
X226982D02*
X233078D01*
X237142D02*
X242476D01*
X246286D02*
X249334D01*
X255684D02*
X259748D01*
X141130Y690698D02*
X156624D01*
X157132D02*
X158402D01*
X159164D02*
X159672D01*
X160434D02*
X161704D01*
X162212D02*
X163482D01*
X164244D02*
X164752D01*
X165514D02*
X166530D01*
X167292D02*
X168562D01*
X169070D02*
X169832D01*
X170594D02*
X171864D01*
X172626D02*
X173642D01*
X174658D02*
X175928D01*
X176690D02*
X178468D01*
X179230D02*
X181770D01*
X182532D02*
X183802D01*
X184564D02*
X185072D01*
X185834D02*
X187104D01*
X187866D02*
X188628D01*
X189390D02*
X190660D01*
X191422D02*
X192184D01*
X193200D02*
X194216D01*
X194978D02*
X195740D01*
X196248D02*
X197518D01*
X198280D02*
X199042D01*
X199804D02*
X201074D01*
X201836D02*
X202598D01*
X203106D02*
X204376D01*
X205138D02*
X206408D01*
X207170D02*
X209964D01*
X210726D02*
X222664D01*
X227236D02*
X232824D01*
X237396D02*
X242476D01*
X246540D02*
X248826D01*
X256192D02*
X259748D01*
X141130Y690952D02*
X156624D01*
X157132D02*
X158656D01*
X159164D02*
X159672D01*
X160434D02*
X161704D01*
X162212D02*
X163482D01*
X164244D02*
X164752D01*
X165260D02*
X166784D01*
X167546D02*
X168562D01*
X169070D02*
X169832D01*
X170594D02*
X171864D01*
X172626D02*
X173642D01*
X174912D02*
X175928D01*
X176690D02*
X178722D01*
X179484D02*
X181770D01*
X182532D02*
X184056D01*
X184818D02*
X185072D01*
X185834D02*
X187358D01*
X187866D02*
X188628D01*
X189390D02*
X190914D01*
X191676D02*
X192184D01*
X192946D02*
X194470D01*
X195232D02*
X195486D01*
X196248D02*
X197772D01*
X198280D02*
X198788D01*
X199550D02*
X201074D01*
X201836D02*
X202598D01*
X203106D02*
X204376D01*
X205138D02*
X206408D01*
X207170D02*
X209964D01*
X210726D02*
X222410D01*
X227490D02*
X232570D01*
X237650D02*
X242222D01*
X246794D02*
X248572D01*
X256446D02*
X259748D01*
X141130Y691206D02*
X156624D01*
X157386D02*
X159672D01*
X160434D02*
X161704D01*
X162212D02*
X163482D01*
X164244D02*
X166784D01*
X167546D02*
X168562D01*
X169070D02*
X169832D01*
X170848D02*
X173388D01*
X174150D02*
X174404D01*
X174912D02*
X175928D01*
X176690D02*
X178722D01*
X179484D02*
X181770D01*
X182278D02*
X184056D01*
X184818D02*
X187358D01*
X188120D02*
X188628D01*
X189136D02*
X190914D01*
X191676D02*
X192184D01*
X192946D02*
X194470D01*
X195232D02*
X197772D01*
X198534D02*
X198788D01*
X199550D02*
X201328D01*
X201836D02*
X202598D01*
X203106D02*
X204376D01*
X205138D02*
X206408D01*
X207170D02*
X209964D01*
X210726D02*
X222410D01*
X227744D02*
X232316D01*
X237650D02*
X241968D01*
X246794D02*
X248064D01*
X256700D02*
X259748D01*
X141130Y691460D02*
X156624D01*
X158402D02*
X159672D01*
X160434D02*
X161704D01*
X162212D02*
X163482D01*
X164244D02*
X164498D01*
X167546D02*
X168562D01*
X169070D02*
X170086D01*
X171864D02*
X173388D01*
X173896D02*
X174404D01*
X175166D02*
X175928D01*
X176690D02*
X178976D01*
X179484D02*
X181770D01*
X182278D02*
X184056D01*
X184818D02*
X185072D01*
X188120D02*
X188628D01*
X189136D02*
X190914D01*
X191676D02*
X192184D01*
X192692D02*
X194470D01*
X195232D02*
X195486D01*
X198534D02*
X198788D01*
X199550D02*
X201328D01*
X201836D02*
X202598D01*
X203106D02*
X204376D01*
X205138D02*
X206408D01*
X207170D02*
X209964D01*
X210726D02*
X222156D01*
X227998D02*
X232316D01*
X237904D02*
X241968D01*
X247048D02*
X247810D01*
X256954D02*
X259748D01*
X141130Y691714D02*
X156878D01*
X158910D02*
X159672D01*
X160434D02*
X161704D01*
X162212D02*
X163482D01*
X164244D02*
X164498D01*
X167546D02*
X168562D01*
X169070D02*
X170340D01*
X172118D02*
X173134D01*
X173896D02*
X174404D01*
X175166D02*
X175928D01*
X176944D02*
X181770D01*
X182278D02*
X184056D01*
X184818D02*
X185072D01*
X188120D02*
X188628D01*
X189136D02*
X190914D01*
X191676D02*
X192184D01*
X192692D02*
X194470D01*
X195232D02*
X195486D01*
X198534D02*
X198788D01*
X199550D02*
X201328D01*
X201836D02*
X202598D01*
X203106D02*
X204376D01*
X205138D02*
X206408D01*
X207170D02*
X209964D01*
X210726D02*
X222156D01*
X227998D02*
X232062D01*
X237904D02*
X241968D01*
X247048D02*
X247556D01*
X257208D02*
X259748D01*
X141130Y691968D02*
X157894D01*
X159164D02*
X159672D01*
X160434D02*
X161704D01*
X162212D02*
X163482D01*
X164244D02*
X164498D01*
X165260D02*
X166784D01*
X167546D02*
X168562D01*
X169070D02*
X171102D01*
X172372D02*
X173134D01*
X173896D02*
X174658D01*
X175420D02*
X176182D01*
X177960D02*
X181770D01*
X182278D02*
X184056D01*
X184818D02*
X185072D01*
X185834D02*
X187358D01*
X188120D02*
X188628D01*
X189136D02*
X190914D01*
X191676D02*
X192184D01*
X192946D02*
X194470D01*
X195232D02*
X195486D01*
X196248D02*
X197772D01*
X198534D02*
X198788D01*
X199550D02*
X201328D01*
X201836D02*
X202598D01*
X203106D02*
X204376D01*
X205138D02*
X206408D01*
X207170D02*
X207678D01*
X210726D02*
X221902D01*
X227998D02*
X232062D01*
X238158D02*
X241968D01*
X257462D02*
X259748D01*
X141130Y692222D02*
X156624D01*
X157132D02*
X158402D01*
X159164D02*
X159672D01*
X160434D02*
X161450D01*
X162212D02*
X163482D01*
X164244D02*
X164752D01*
X165260D02*
X166784D01*
X167546D02*
X168562D01*
X169070D02*
X170086D01*
X170594D02*
X171864D01*
X172626D02*
X173134D01*
X173642D02*
X174658D01*
X175420D02*
X176436D01*
X178722D02*
X181770D01*
X182532D02*
X184056D01*
X184818D02*
X185072D01*
X185834D02*
X187358D01*
X187866D02*
X188628D01*
X189390D02*
X190914D01*
X191676D02*
X192184D01*
X192946D02*
X194470D01*
X195232D02*
X195486D01*
X196248D02*
X197772D01*
X198280D02*
X198788D01*
X199550D02*
X201074D01*
X201836D02*
X202598D01*
X203360D02*
X204376D01*
X205138D02*
X206408D01*
X207170D02*
X207678D01*
X210726D02*
X221902D01*
X228252D02*
X231808D01*
X238158D02*
X241968D01*
X257716D02*
X259748D01*
X141130Y692476D02*
X156624D01*
X157386D02*
X158402D01*
X159164D02*
X159672D01*
X160434D02*
X161450D01*
X162212D02*
X163228D01*
X164244D02*
X164752D01*
X165514D02*
X166530D01*
X167292D02*
X168562D01*
X169070D02*
X169832D01*
X170594D02*
X171864D01*
X172626D02*
X172880D01*
X173642D02*
X174912D01*
X175420D02*
X177198D01*
X179230D02*
X181770D01*
X182786D02*
X183802D01*
X184564D02*
X185326D01*
X186088D02*
X187104D01*
X187866D02*
X188628D01*
X189390D02*
X190660D01*
X191422D02*
X192184D01*
X193200D02*
X194216D01*
X194978D02*
X195740D01*
X196502D02*
X197518D01*
X198280D02*
X199042D01*
X199804D02*
X201074D01*
X201836D02*
X202598D01*
X203360D02*
X204376D01*
X205138D02*
X206154D01*
X207170D02*
X207678D01*
X210726D02*
X221902D01*
X228252D02*
X231808D01*
X238158D02*
X242222D01*
X257716D02*
X259748D01*
X141130Y692730D02*
X156624D01*
X159164D02*
X159672D01*
X164244D02*
X165006D01*
X167292D02*
X167800D01*
X169578D02*
X170086D01*
X172372D02*
X172880D01*
X173642D02*
X174912D01*
X175674D02*
X178214D01*
X179230D02*
X181770D01*
X184564D02*
X185326D01*
X187612D02*
X188628D01*
X191422D02*
X192184D01*
X194978D02*
X195740D01*
X198026D02*
X199042D01*
X201836D02*
X202598D01*
X207170D02*
X209964D01*
X210726D02*
X221648D01*
X228252D02*
X231808D01*
X238412D02*
X242222D01*
X257970D02*
X259748D01*
X141130Y692984D02*
X156878D01*
X158910D02*
X159926D01*
X161450D02*
X161958D01*
X164244D02*
X165260D01*
X167038D02*
X167800D01*
X169578D02*
X170340D01*
X172118D02*
X172626D01*
X173388D02*
X174912D01*
X175674D02*
X178468D01*
X179230D02*
X181770D01*
X182278D02*
X182532D01*
X184310D02*
X185580D01*
X187358D02*
X188628D01*
X189136D02*
X189390D01*
X191168D02*
X192184D01*
X192692D02*
X192946D01*
X194724D02*
X195994D01*
X197772D02*
X199550D01*
X201074D02*
X201328D01*
X201836D02*
X202852D01*
X204376D02*
X204884D01*
X207170D02*
X209964D01*
X210726D02*
X221648D01*
X228252D02*
X231808D01*
X238412D02*
X242222D01*
X257970D02*
X259748D01*
X141130Y693238D02*
X157386D01*
X158402D02*
X160434D01*
X161196D02*
X162212D01*
X162974D02*
X165768D01*
X166530D02*
X168562D01*
X169070D02*
X170848D01*
X171610D02*
X176182D01*
X176690D02*
X178722D01*
X179484D02*
X181770D01*
X182278D02*
X183040D01*
X183802D02*
X186088D01*
X186850D02*
X188628D01*
X189136D02*
X189898D01*
X190660D02*
X192184D01*
X192692D02*
X193454D01*
X194216D02*
X196502D01*
X197264D02*
X199804D01*
X200820D02*
X201328D01*
X201836D02*
X203360D01*
X204122D02*
X205138D01*
X205900D02*
X209964D01*
X210726D02*
X221648D01*
X228506D02*
X231554D01*
X238412D02*
X242222D01*
X249842D02*
X252128D01*
X258224D02*
X259748D01*
X141130Y693492D02*
X168562D01*
X169070D02*
X176182D01*
X176944D02*
X178722D01*
X179230D02*
X181770D01*
X182278D02*
X188628D01*
X189136D02*
X192184D01*
X192692D02*
X201328D01*
X201836D02*
X209964D01*
X210726D02*
X221394D01*
X228506D02*
X231554D01*
X238666D02*
X242476D01*
X249080D02*
X252636D01*
X258224D02*
X259748D01*
X141130Y693746D02*
X168562D01*
X169070D02*
X176182D01*
X177198D02*
X178468D01*
X179230D02*
X181770D01*
X182278D02*
X188628D01*
X189136D02*
X192184D01*
X192692D02*
X201328D01*
X201836D02*
X209964D01*
X210726D02*
X221394D01*
X228506D02*
X231554D01*
X238666D02*
X242476D01*
X248572D02*
X253144D01*
X258224D02*
X259748D01*
X141130Y694000D02*
X168562D01*
X169070D02*
X176436D01*
X178976D02*
X181770D01*
X182278D02*
X188628D01*
X189136D02*
X192184D01*
X192692D02*
X201328D01*
X201836D02*
X207678D01*
X210726D02*
X221394D01*
X228506D02*
X231554D01*
X238666D02*
X242476D01*
X248318D02*
X253144D01*
X258224D02*
X259748D01*
X141130Y694254D02*
X176690D01*
X178722D02*
X181770D01*
X182278D02*
X188628D01*
X189136D02*
X192184D01*
X192692D02*
X201328D01*
X201836D02*
X207678D01*
X210726D02*
X221394D01*
X228760D02*
X231300D01*
X238920D02*
X242476D01*
X248064D02*
X253398D01*
X258224D02*
X259748D01*
X141130Y694508D02*
X221140D01*
X228760D02*
X231300D01*
X238920D02*
X242476D01*
X247810D02*
X253398D01*
X258224D02*
X259748D01*
X141130Y694762D02*
X221140D01*
X228760D02*
X231300D01*
X238920D02*
X242476D01*
X247556D02*
X253398D01*
X258224D02*
X259748D01*
X141130Y695016D02*
X221140D01*
X228760D02*
X231300D01*
X238920D02*
X242476D01*
X247556D02*
X253398D01*
X258224D02*
X259748D01*
X141130Y695270D02*
X220886D01*
X229014D02*
X231046D01*
X239174D02*
X242476D01*
X247556D02*
X253398D01*
X258224D02*
X259748D01*
X141130Y695524D02*
X220886D01*
X229014D02*
X231046D01*
X239174D02*
X242476D01*
X247302D02*
X253398D01*
X258224D02*
X259748D01*
X141130Y695778D02*
X220886D01*
X229014D02*
X231046D01*
X239174D02*
X242476D01*
X247302D02*
X253144D01*
X258224D02*
X259748D01*
X141130Y696032D02*
X220632D01*
X229014D02*
X231046D01*
X239428D02*
X242476D01*
X247302D02*
X253144D01*
X258224D02*
X259748D01*
X141130Y696286D02*
X220632D01*
X229268D02*
X230792D01*
X239428D02*
X242476D01*
X247302D02*
X252636D01*
X257970D02*
X259748D01*
X141130Y696540D02*
X220632D01*
X229268D02*
X230792D01*
X234602D02*
X234856D01*
X239428D02*
X242476D01*
X247302D02*
X252128D01*
X257970D02*
X259748D01*
X141130Y696794D02*
X220378D01*
X229268D02*
X230792D01*
X234602D02*
X234856D01*
X239682D02*
X242476D01*
X247302D02*
X251366D01*
X257970D02*
X259748D01*
X141130Y697048D02*
X220378D01*
X224950D02*
X225458D01*
X229268D02*
X230792D01*
X234602D02*
X234856D01*
X239682D02*
X242476D01*
X247302D02*
X249842D01*
X257716D02*
X259748D01*
X141130Y697302D02*
X171356D01*
X171864D02*
X176436D01*
X176944D02*
X181770D01*
X182532D02*
X189898D01*
X190660D02*
X200058D01*
X200820D02*
X220378D01*
X224950D02*
X225458D01*
X229522D02*
X230538D01*
X234602D02*
X234856D01*
X239682D02*
X242476D01*
X247302D02*
X248318D01*
X257716D02*
X259748D01*
X141130Y697556D02*
X168562D01*
X169324D02*
X170594D01*
X172626D02*
X175674D01*
X177452D02*
X178468D01*
X179484D02*
X180500D01*
X183040D02*
X183802D01*
X184818D02*
X185834D01*
X186596D02*
X187104D01*
X188120D02*
X189390D01*
X191422D02*
X192184D01*
X192946D02*
X194216D01*
X194978D02*
X195740D01*
X196502D02*
X199296D01*
X201582D02*
X202598D01*
X205646D02*
X206408D01*
X207170D02*
X208440D01*
X209202D02*
X209964D01*
X210726D02*
X220378D01*
X224950D02*
X225458D01*
X229522D02*
X230538D01*
X234602D02*
X235110D01*
X239936D02*
X242476D01*
X247302D02*
X247556D01*
X257462D02*
X259748D01*
X141130Y697810D02*
X168816D01*
X169324D02*
X170340D01*
X172880D02*
X175420D01*
X177706D02*
X178468D01*
X179738D02*
X180500D01*
X183294D02*
X183802D01*
X185072D02*
X185834D01*
X186596D02*
X187104D01*
X188374D02*
X189136D01*
X191676D02*
X192184D01*
X192946D02*
X194216D01*
X194978D02*
X195740D01*
X196502D02*
X199042D01*
X201836D02*
X202598D01*
X205646D02*
X206408D01*
X207170D02*
X208440D01*
X209202D02*
X209964D01*
X210726D02*
X220124D01*
X224950D02*
X225458D01*
X229522D02*
X230538D01*
X234348D02*
X235110D01*
X239936D02*
X242476D01*
X257208D02*
X259748D01*
X141130Y698064D02*
X168816D01*
X169324D02*
X170340D01*
X171102D02*
X172118D01*
X172880D02*
X175420D01*
X175928D02*
X177198D01*
X177960D02*
X178976D01*
X179738D02*
X180500D01*
X181516D02*
X182532D01*
X183294D02*
X184310D01*
X185072D02*
X185834D01*
X186596D02*
X187612D01*
X188374D02*
X188882D01*
X189644D02*
X190914D01*
X191676D02*
X192184D01*
X192946D02*
X194216D01*
X194978D02*
X195740D01*
X196502D02*
X198788D01*
X199550D02*
X201074D01*
X202090D02*
X205138D01*
X205646D02*
X206408D01*
X207170D02*
X208440D01*
X209202D02*
X209964D01*
X210726D02*
X220124D01*
X224950D02*
X225458D01*
X229522D02*
X230538D01*
X234348D02*
X235110D01*
X239936D02*
X242476D01*
X256954D02*
X259748D01*
X141130Y698318D02*
X168816D01*
X169324D02*
X170086D01*
X170848D02*
X172372D01*
X173134D02*
X175166D01*
X175928D02*
X177452D01*
X177960D02*
X178976D01*
X179738D02*
X180500D01*
X181262D02*
X182532D01*
X183294D02*
X184310D01*
X185072D02*
X185834D01*
X186596D02*
X187612D01*
X188374D02*
X188882D01*
X189644D02*
X191168D01*
X191676D02*
X192184D01*
X192946D02*
X194216D01*
X194978D02*
X195740D01*
X196502D02*
X198788D01*
X199550D02*
X201582D01*
X202090D02*
X205138D01*
X205646D02*
X206408D01*
X207170D02*
X208440D01*
X209202D02*
X209964D01*
X210726D02*
X220124D01*
X224696D02*
X225712D01*
X229776D02*
X230284D01*
X234348D02*
X235110D01*
X239936D02*
X242476D01*
X256700D02*
X259748D01*
X141130Y698572D02*
X168816D01*
X169324D02*
X170086D01*
X170848D02*
X172372D01*
X173134D02*
X177452D01*
X178214D02*
X178976D01*
X179738D02*
X180500D01*
X181262D02*
X182532D01*
X183294D02*
X184310D01*
X185072D02*
X185834D01*
X186596D02*
X187612D01*
X188374D02*
X188882D01*
X189898D02*
X192184D01*
X192946D02*
X194216D01*
X194978D02*
X195740D01*
X196502D02*
X198788D01*
X199296D02*
X201582D01*
X202344D02*
X205138D01*
X205646D02*
X206408D01*
X207170D02*
X208440D01*
X209202D02*
X209964D01*
X210726D02*
X219870D01*
X224696D02*
X225712D01*
X229776D02*
X230284D01*
X234348D02*
X235364D01*
X240190D02*
X242476D01*
X256446D02*
X259748D01*
X141130Y698826D02*
X168816D01*
X169324D02*
X170086D01*
X170848D02*
X172626D01*
X173134D02*
X175166D01*
X178214D02*
X178976D01*
X179738D02*
X180500D01*
X181262D02*
X182532D01*
X183294D02*
X184310D01*
X185072D02*
X185834D01*
X186596D02*
X187612D01*
X188374D02*
X189136D01*
X190914D02*
X192184D01*
X192946D02*
X194216D01*
X194978D02*
X195740D01*
X196502D02*
X198788D01*
X199550D02*
X201582D01*
X202344D02*
X205138D01*
X205646D02*
X206408D01*
X207170D02*
X208440D01*
X209202D02*
X209964D01*
X210726D02*
X219870D01*
X224696D02*
X225712D01*
X229776D02*
X230284D01*
X234348D02*
X235364D01*
X240190D02*
X242476D01*
X255938D02*
X259748D01*
X141130Y699080D02*
X168816D01*
X169324D02*
X170086D01*
X170848D02*
X172626D01*
X173134D02*
X175166D01*
X178214D02*
X178976D01*
X179738D02*
X180500D01*
X181262D02*
X182532D01*
X183294D02*
X184310D01*
X185072D02*
X185834D01*
X186596D02*
X187612D01*
X188374D02*
X189390D01*
X191422D02*
X192184D01*
X192946D02*
X194216D01*
X194978D02*
X195740D01*
X196502D02*
X198788D01*
X199804D02*
X205138D01*
X205646D02*
X206408D01*
X207170D02*
X208440D01*
X209202D02*
X209964D01*
X210726D02*
X219870D01*
X224696D02*
X225712D01*
X229776D02*
X230284D01*
X234094D02*
X235364D01*
X240190D02*
X242476D01*
X255430D02*
X259748D01*
X141130Y699334D02*
X168816D01*
X169324D02*
X170086D01*
X170848D02*
X172372D01*
X173134D02*
X175166D01*
X178214D02*
X178976D01*
X179738D02*
X180500D01*
X181262D02*
X182532D01*
X183294D02*
X184310D01*
X185072D02*
X185834D01*
X186596D02*
X187612D01*
X188374D02*
X190152D01*
X191676D02*
X192184D01*
X192946D02*
X194216D01*
X194978D02*
X195740D01*
X196502D02*
X199042D01*
X200566D02*
X202852D01*
X205646D02*
X206408D01*
X207170D02*
X208440D01*
X209202D02*
X209964D01*
X210726D02*
X219616D01*
X224442D02*
X225712D01*
X234094D02*
X235364D01*
X240444D02*
X242476D01*
X254922D02*
X259748D01*
X141130Y699588D02*
X168816D01*
X169324D02*
X170086D01*
X170848D02*
X172372D01*
X173134D02*
X175166D01*
X175928D02*
X177452D01*
X177960D02*
X178976D01*
X179738D02*
X180500D01*
X181262D02*
X182532D01*
X183294D02*
X184310D01*
X185072D02*
X185834D01*
X186596D02*
X187612D01*
X188374D02*
X189136D01*
X189644D02*
X190914D01*
X191676D02*
X192184D01*
X192946D02*
X194216D01*
X194978D02*
X195740D01*
X196502D02*
X199296D01*
X201582D02*
X202852D01*
X205646D02*
X206408D01*
X207170D02*
X208440D01*
X209202D02*
X209964D01*
X210726D02*
X219616D01*
X224442D02*
X225966D01*
X234094D02*
X235618D01*
X240444D02*
X242476D01*
X254160D02*
X259748D01*
X141130Y699842D02*
X168816D01*
X169324D02*
X170340D01*
X171102D02*
X172118D01*
X173134D02*
X175420D01*
X176182D02*
X177198D01*
X177960D02*
X178976D01*
X179738D02*
X180500D01*
X181262D02*
X182532D01*
X183294D02*
X184310D01*
X185072D02*
X185834D01*
X186596D02*
X187612D01*
X188374D02*
X189136D01*
X189898D02*
X190914D01*
X191676D02*
X192184D01*
X192946D02*
X193962D01*
X194978D02*
X195740D01*
X196502D02*
X199804D01*
X201836D02*
X202852D01*
X205646D02*
X206408D01*
X207170D02*
X208440D01*
X209202D02*
X209964D01*
X210726D02*
X219616D01*
X224442D02*
X225966D01*
X234094D02*
X235618D01*
X240444D02*
X242476D01*
X252890D02*
X259748D01*
X141130Y700096D02*
X168054D01*
X169832D02*
X170340D01*
X172880D02*
X175420D01*
X177706D02*
X178468D01*
X180246D02*
X180500D01*
X181262D02*
X182532D01*
X183294D02*
X183802D01*
X185580D02*
X185834D01*
X186596D02*
X187104D01*
X188882D02*
X189136D01*
X191676D02*
X192184D01*
X194978D02*
X195740D01*
X196502D02*
X200820D01*
X202090D02*
X205138D01*
X205646D02*
X206662D01*
X209202D02*
X209964D01*
X210726D02*
X219362D01*
X224442D02*
X225966D01*
X233840D02*
X235618D01*
X240698D02*
X242476D01*
X250858D02*
X259748D01*
X141130Y700350D02*
X168054D01*
X169832D02*
X170594D01*
X172626D02*
X175674D01*
X177452D02*
X178468D01*
X180246D02*
X180500D01*
X181262D02*
X182532D01*
X183294D02*
X183802D01*
X185580D02*
X185834D01*
X186596D02*
X187104D01*
X188882D02*
X189390D01*
X191422D02*
X192438D01*
X194978D02*
X195740D01*
X196502D02*
X201328D01*
X202090D02*
X205138D01*
X205646D02*
X206662D01*
X208440D02*
X208694D01*
X209202D02*
X209964D01*
X210726D02*
X219362D01*
X224188D02*
X225966D01*
X233840D02*
X235618D01*
X240698D02*
X242476D01*
X248826D02*
X259748D01*
X141130Y700604D02*
X168562D01*
X169324D02*
X171102D01*
X172118D02*
X176182D01*
X177198D02*
X178976D01*
X179738D02*
X182786D01*
X183040D02*
X184310D01*
X185072D02*
X186088D01*
X186342D02*
X187612D01*
X188374D02*
X189898D01*
X190914D02*
X192946D01*
X193708D02*
X195740D01*
X196502D02*
X198788D01*
X199550D02*
X201328D01*
X202090D02*
X205138D01*
X205646D02*
X207170D01*
X208186D02*
X208694D01*
X208948D02*
X209964D01*
X210726D02*
X219362D01*
X224188D02*
X226220D01*
X233840D02*
X235872D01*
X240698D02*
X242476D01*
X248064D02*
X259748D01*
X141130Y700858D02*
X168816D01*
X169324D02*
X178976D01*
X179738D02*
X184310D01*
X185072D02*
X187612D01*
X188374D02*
X195740D01*
X196502D02*
X199042D01*
X199550D02*
X201328D01*
X202090D02*
X205138D01*
X205646D02*
X209964D01*
X210726D02*
X219362D01*
X224188D02*
X226220D01*
X233840D02*
X235872D01*
X240952D02*
X242476D01*
X247810D02*
X254160D01*
X256192D02*
X259748D01*
X141130Y701112D02*
X168562D01*
X169324D02*
X178976D01*
X179738D02*
X184310D01*
X185072D02*
X185834D01*
X186596D02*
X187612D01*
X188374D02*
X195740D01*
X196502D02*
X199042D01*
X199804D02*
X201074D01*
X202090D02*
X205138D01*
X205646D02*
X209964D01*
X210726D02*
X219108D01*
X224188D02*
X226220D01*
X233840D02*
X235872D01*
X240952D02*
X242476D01*
X247556D02*
X253906D01*
X256446D02*
X259748D01*
X141130Y701366D02*
X168054D01*
X169324D02*
X178976D01*
X179738D02*
X184310D01*
X185072D02*
X185834D01*
X186596D02*
X187612D01*
X188374D02*
X195740D01*
X196502D02*
X199296D01*
X201836D02*
X202598D01*
X205646D02*
X209964D01*
X210726D02*
X219108D01*
X224188D02*
X226220D01*
X233586D02*
X235872D01*
X240952D02*
X242476D01*
X247556D02*
X253652D01*
X256700D02*
X259748D01*
X141130Y701620D02*
X168054D01*
X169070D02*
X185834D01*
X186596D02*
X195740D01*
X196502D02*
X199550D01*
X201582D02*
X202598D01*
X205646D02*
X209964D01*
X210726D02*
X219108D01*
X223934D02*
X226220D01*
X233586D02*
X236126D01*
X240952D02*
X242476D01*
X247556D02*
X253144D01*
X256954D02*
X259748D01*
X141130Y701874D02*
X200312D01*
X200820D02*
X218854D01*
X223934D02*
X226474D01*
X233586D02*
X236126D01*
X241206D02*
X242476D01*
X247556D02*
X252890D01*
X257208D02*
X259748D01*
X141130Y702128D02*
X218854D01*
X223934D02*
X226474D01*
X233586D02*
X236126D01*
X241206D02*
X242476D01*
X247556D02*
X252636D01*
X257208D02*
X259748D01*
X141130Y702382D02*
X218854D01*
X223934D02*
X226474D01*
X233586D02*
X236126D01*
X241206D02*
X242476D01*
X247810D02*
X252382D01*
X257208D02*
X259748D01*
X141130Y702636D02*
X218600D01*
X223680D02*
X226474D01*
X233332D02*
X236380D01*
X241460D02*
X242476D01*
X248064D02*
X252128D01*
X257208D02*
X259748D01*
X141130Y702890D02*
X218600D01*
X223680D02*
X226474D01*
X233332D02*
X236380D01*
X241460D02*
X242476D01*
X248572D02*
X251366D01*
X257208D02*
X259748D01*
X141130Y703144D02*
X218600D01*
X223680D02*
X226728D01*
X233332D02*
X236380D01*
X241460D02*
X242476D01*
X257208D02*
X259748D01*
X141130Y703398D02*
X218346D01*
X223680D02*
X226728D01*
X233332D02*
X236380D01*
X241714D02*
X242730D01*
X257208D02*
X259748D01*
X141130Y703652D02*
X218346D01*
X223680D02*
X226728D01*
X233078D02*
X236634D01*
X241714D02*
X242730D01*
X257208D02*
X259748D01*
X141130Y703906D02*
X218346D01*
X223426D02*
X226728D01*
X233078D02*
X236634D01*
X241714D02*
X242730D01*
X256954D02*
X259748D01*
X141130Y704160D02*
X218346D01*
X223426D02*
X226982D01*
X233078D02*
X236634D01*
X241714D02*
X242984D01*
X256954D02*
X259748D01*
X141130Y704414D02*
X218346D01*
X223426D02*
X226982D01*
X233078D02*
X236634D01*
X241714D02*
X242984D01*
X256700D02*
X259748D01*
X141130Y704668D02*
X218346D01*
X223426D02*
X226982D01*
X233078D02*
X236634D01*
X241714D02*
X243238D01*
X256446D02*
X259748D01*
X141130Y704922D02*
X218346D01*
X223172D02*
X226982D01*
X232824D02*
X236888D01*
X241714D02*
X243492D01*
X256192D02*
X259748D01*
X141130Y705176D02*
X218346D01*
X223172D02*
X227236D01*
X232824D02*
X236888D01*
X241714D02*
X243746D01*
X255938D02*
X259748D01*
X141130Y705430D02*
X218346D01*
X223172D02*
X227236D01*
X232570D02*
X236888D01*
X241714D02*
X244000D01*
X255684D02*
X259748D01*
X141130Y705684D02*
X218600D01*
X222918D02*
X227490D01*
X232570D02*
X237142D01*
X241460D02*
X244254D01*
X255176D02*
X259748D01*
X141130Y705938D02*
X218600D01*
X222918D02*
X227744D01*
X232316D02*
X237142D01*
X241460D02*
X244762D01*
X254922D02*
X259748D01*
X141130Y706192D02*
X218854D01*
X222664D02*
X227998D01*
X232062D02*
X237396D01*
X241206D02*
X245270D01*
X254414D02*
X259748D01*
X141130Y706446D02*
X158910D01*
X160434D02*
X195994D01*
X197518D02*
X219108D01*
X222410D02*
X228252D01*
X231808D02*
X237650D01*
X240952D02*
X245778D01*
X253652D02*
X259748D01*
X141130Y706700D02*
X158402D01*
X161196D02*
X195486D01*
X198280D02*
X219616D01*
X222156D02*
X228506D01*
X231300D02*
X238158D01*
X240444D02*
X246794D01*
X252890D02*
X259748D01*
X141130Y706954D02*
X157894D01*
X161450D02*
X195232D01*
X198788D02*
X220124D01*
X221394D02*
X229268D01*
X230792D02*
X238666D01*
X239936D02*
X248572D01*
X251112D02*
X259748D01*
X141130Y707208D02*
X157640D01*
X161704D02*
X194978D01*
X198788D02*
X259748D01*
X141130Y707462D02*
X157640D01*
X161704D02*
X194724D01*
X199042D02*
X259748D01*
X141130Y707716D02*
X157386D01*
X158910D02*
X160434D01*
X161704D02*
X194470D01*
X196248D02*
X197518D01*
X199042D02*
X259748D01*
X141130Y707970D02*
X157386D01*
X158910D02*
X160688D01*
X161704D02*
X194470D01*
X195994D02*
X197772D01*
X198788D02*
X259748D01*
X141130Y708224D02*
X157386D01*
X158656D02*
X163482D01*
X163736D02*
X186850D01*
X187104D02*
X192438D01*
X192692D02*
X194470D01*
X195994D02*
X200566D01*
X200820D02*
X203868D01*
X204122D02*
X220378D01*
X221648D02*
X230792D01*
X232062D02*
X236634D01*
X249080D02*
X259748D01*
X141130Y708478D02*
X157132D01*
X158656D02*
X162974D01*
X164244D02*
X166276D01*
X167546D02*
X168816D01*
X169832D02*
X172626D01*
X173642D02*
X175928D01*
X178468D02*
X181516D01*
X184056D02*
X186342D01*
X187612D02*
X189644D01*
X190660D02*
X191930D01*
X193200D02*
X194470D01*
X195740D02*
X200312D01*
X201328D02*
X203360D01*
X204630D02*
X205646D01*
X210472D02*
X219616D01*
X222156D02*
X230284D01*
X232824D02*
X235872D01*
X249588D02*
X259748D01*
X141130Y708732D02*
X157132D01*
X158656D02*
X159164D01*
X160942D02*
X162974D01*
X164244D02*
X166022D01*
X167546D02*
X168562D01*
X170086D02*
X172372D01*
X173896D02*
X175420D01*
X178722D02*
X181008D01*
X184564D02*
X186088D01*
X187612D02*
X189390D01*
X190914D02*
X191930D01*
X193454D02*
X194470D01*
X195740D02*
X196248D01*
X198280D02*
X200058D01*
X201582D02*
X203360D01*
X204630D02*
X205392D01*
X210726D02*
X219362D01*
X222410D02*
X229776D01*
X233078D02*
X235618D01*
X250096D02*
X259748D01*
X141130Y708986D02*
X157132D01*
X161450D02*
X162974D01*
X164498D02*
X166022D01*
X167546D02*
X168562D01*
X170086D02*
X172372D01*
X173896D02*
X175166D01*
X179230D02*
X180754D01*
X184818D02*
X186088D01*
X187612D02*
X189390D01*
X190914D02*
X191930D01*
X193454D02*
X194470D01*
X198534D02*
X200058D01*
X201582D02*
X203360D01*
X204884D02*
X205392D01*
X210726D02*
X219108D01*
X222918D02*
X229522D01*
X233332D02*
X235364D01*
X250350D02*
X259748D01*
X141130Y709240D02*
X157132D01*
X161704D02*
X162974D01*
X164244D02*
X166022D01*
X167546D02*
X168562D01*
X170086D02*
X172372D01*
X173896D02*
X174912D01*
X179230D02*
X180500D01*
X185072D02*
X186088D01*
X187612D02*
X189390D01*
X190914D02*
X191930D01*
X193454D02*
X194470D01*
X198788D02*
X200058D01*
X201582D02*
X203360D01*
X204884D02*
X205392D01*
X210980D02*
X218854D01*
X222918D02*
X229268D01*
X233586D02*
X235110D01*
X250604D02*
X259748D01*
X141130Y709494D02*
X157132D01*
X161958D02*
X162974D01*
X164244D02*
X166022D01*
X167546D02*
X168562D01*
X170086D02*
X172372D01*
X173896D02*
X174912D01*
X176690D02*
X177452D01*
X179484D02*
X180500D01*
X182278D02*
X183294D01*
X185072D02*
X186088D01*
X187612D02*
X189390D01*
X190914D02*
X191930D01*
X193454D02*
X194470D01*
X199042D02*
X200058D01*
X201582D02*
X203360D01*
X204884D02*
X205646D01*
X210980D02*
X218600D01*
X223172D02*
X229268D01*
X233840D02*
X235110D01*
X250604D02*
X259748D01*
X141130Y709748D02*
X157132D01*
X159164D02*
X160180D01*
X161958D02*
X162974D01*
X164244D02*
X166022D01*
X167546D02*
X168562D01*
X170086D02*
X172372D01*
X173896D02*
X174912D01*
X176182D02*
X177960D01*
X179484D02*
X180754D01*
X181770D02*
X183548D01*
X185326D02*
X186088D01*
X187612D02*
X189390D01*
X190914D02*
X191930D01*
X193454D02*
X194470D01*
X196248D02*
X197264D01*
X199042D02*
X200058D01*
X201582D02*
X203360D01*
X204884D02*
X209202D01*
X210980D02*
X218600D01*
X223426D02*
X229014D01*
X233840D02*
X235110D01*
X250604D02*
X259748D01*
X141130Y710002D02*
X157132D01*
X158910D02*
X160434D01*
X161958D02*
X162974D01*
X164244D02*
X166022D01*
X167546D02*
X168562D01*
X170086D02*
X172372D01*
X173896D02*
X175166D01*
X175928D02*
X178214D01*
X179738D02*
X181008D01*
X181516D02*
X183802D01*
X185326D02*
X186088D01*
X187612D02*
X189390D01*
X190914D02*
X191930D01*
X193454D02*
X194470D01*
X195994D02*
X197518D01*
X199296D02*
X200058D01*
X201582D02*
X203360D01*
X204884D02*
X209202D01*
X210980D02*
X218346D01*
X223426D02*
X229014D01*
X234094D02*
X234856D01*
X250858D02*
X259748D01*
X141130Y710256D02*
X157132D01*
X158656D02*
X160434D01*
X162212D02*
X162974D01*
X164244D02*
X166022D01*
X167546D02*
X168562D01*
X170086D02*
X172372D01*
X173896D02*
X178214D01*
X179738D02*
X183802D01*
X185326D02*
X186088D01*
X187612D02*
X189390D01*
X190914D02*
X191930D01*
X193454D02*
X194470D01*
X195994D02*
X197772D01*
X199296D02*
X200058D01*
X201582D02*
X203360D01*
X204884D02*
X209202D01*
X210980D02*
X218346D01*
X223426D02*
X229014D01*
X234094D02*
X234856D01*
X250858D02*
X259748D01*
X141130Y710510D02*
X157132D01*
X158656D02*
X160688D01*
X162212D02*
X162974D01*
X164244D02*
X166022D01*
X167546D02*
X168562D01*
X170086D02*
X172372D01*
X173896D02*
X175420D01*
X179738D02*
X181008D01*
X185326D02*
X186088D01*
X187612D02*
X189390D01*
X190914D02*
X191930D01*
X193454D02*
X194470D01*
X195740D02*
X197772D01*
X199296D02*
X200058D01*
X201582D02*
X203360D01*
X204884D02*
X209202D01*
X210980D02*
X218346D01*
X223426D02*
X228760D01*
X234094D02*
X234856D01*
X250858D02*
X259748D01*
X141130Y710764D02*
X157132D01*
X158656D02*
X160688D01*
X162212D02*
X162974D01*
X164244D02*
X166022D01*
X167546D02*
X168562D01*
X170086D02*
X172372D01*
X173896D02*
X174658D01*
X179738D02*
X180246D01*
X185326D02*
X186088D01*
X187612D02*
X189390D01*
X190914D02*
X191930D01*
X193454D02*
X194470D01*
X195740D02*
X197772D01*
X199296D02*
X200058D01*
X201582D02*
X203360D01*
X204884D02*
X209202D01*
X210980D02*
X218346D01*
X223426D02*
X228760D01*
X234094D02*
X235110D01*
X250604D02*
X259748D01*
X141130Y711018D02*
X157132D01*
X158656D02*
X160688D01*
X162212D02*
X162974D01*
X164498D02*
X166022D01*
X167546D02*
X168562D01*
X170086D02*
X172372D01*
X173896D02*
X174658D01*
X179738D02*
X180246D01*
X185326D02*
X186088D01*
X187612D02*
X189390D01*
X190914D02*
X191930D01*
X193454D02*
X194470D01*
X195740D02*
X197772D01*
X199296D02*
X200058D01*
X201582D02*
X203360D01*
X204884D02*
X209202D01*
X210980D02*
X218346D01*
X223426D02*
X228760D01*
X234094D02*
X235110D01*
X250604D02*
X259748D01*
X141130Y711272D02*
X157132D01*
X158656D02*
X160688D01*
X162212D02*
X162974D01*
X164244D02*
X166022D01*
X167546D02*
X168562D01*
X170086D02*
X172372D01*
X173896D02*
X174658D01*
X179738D02*
X180246D01*
X185326D02*
X186088D01*
X187612D02*
X189390D01*
X190914D02*
X191930D01*
X193454D02*
X194470D01*
X195740D02*
X197772D01*
X199296D02*
X200058D01*
X201582D02*
X203360D01*
X204884D02*
X206154D01*
X210980D02*
X218346D01*
X223426D02*
X228760D01*
X234094D02*
X235110D01*
X250604D02*
X259748D01*
X141130Y711526D02*
X157132D01*
X158656D02*
X160688D01*
X162212D02*
X162974D01*
X164498D02*
X166022D01*
X167546D02*
X168562D01*
X170086D02*
X172118D01*
X173896D02*
X174658D01*
X176182D02*
X178214D01*
X179738D02*
X180246D01*
X181770D02*
X183802D01*
X185326D02*
X186088D01*
X187612D02*
X189390D01*
X190914D02*
X191930D01*
X193454D02*
X194470D01*
X195994D02*
X197772D01*
X199296D02*
X200058D01*
X201582D02*
X203106D01*
X204884D02*
X205900D01*
X210980D02*
X218346D01*
X223426D02*
X228760D01*
X234094D02*
X235364D01*
X250604D02*
X259748D01*
X141130Y711780D02*
X157132D01*
X158910D02*
X160434D01*
X161958D02*
X162974D01*
X164498D02*
X166022D01*
X167546D02*
X168562D01*
X170086D02*
X172118D01*
X173896D02*
X174658D01*
X176182D02*
X178214D01*
X179738D02*
X180500D01*
X181770D02*
X183802D01*
X185326D02*
X186088D01*
X187612D02*
X189136D01*
X190914D02*
X191930D01*
X193454D02*
X194470D01*
X195994D02*
X197518D01*
X199296D02*
X200058D01*
X201582D02*
X203106D01*
X204884D02*
X205900D01*
X210980D02*
X218346D01*
X223426D02*
X228760D01*
X234094D02*
X235618D01*
X250350D02*
X259748D01*
X141130Y712034D02*
X157132D01*
X158910D02*
X160180D01*
X161958D02*
X162974D01*
X164498D02*
X165768D01*
X167546D02*
X168562D01*
X170086D02*
X171102D01*
X173896D02*
X174912D01*
X176436D02*
X177960D01*
X179484D02*
X180500D01*
X182024D02*
X183548D01*
X185072D02*
X186088D01*
X187866D02*
X188882D01*
X190914D02*
X191930D01*
X193454D02*
X194470D01*
X196248D02*
X197518D01*
X199042D02*
X200058D01*
X201836D02*
X202852D01*
X204884D02*
X205900D01*
X210980D02*
X218346D01*
X223426D02*
X228760D01*
X234094D02*
X235872D01*
X250096D02*
X259748D01*
X141130Y712288D02*
X157132D01*
X161958D02*
X162974D01*
X167546D02*
X168562D01*
X170086D02*
X170848D01*
X173896D02*
X174912D01*
X176690D02*
X177706D01*
X179484D02*
X180500D01*
X182278D02*
X183294D01*
X185072D02*
X186342D01*
X190914D02*
X191930D01*
X193454D02*
X194470D01*
X199042D02*
X200058D01*
X204884D02*
X206154D01*
X210980D02*
X218346D01*
X223426D02*
X228760D01*
X234094D02*
X236380D01*
X249842D02*
X259748D01*
X141130Y712542D02*
X157132D01*
X161704D02*
X162974D01*
X167546D02*
X168562D01*
X170086D02*
X170594D01*
X173896D02*
X175166D01*
X179230D02*
X180754D01*
X184818D02*
X186342D01*
X190914D02*
X191930D01*
X193454D02*
X194470D01*
X198788D02*
X200312D01*
X204884D02*
X209202D01*
X210980D02*
X218346D01*
X223426D02*
X228760D01*
X234094D02*
X243492D01*
X249588D02*
X259748D01*
X141130Y712796D02*
X157132D01*
X161450D02*
X163228D01*
X166022D02*
X166276D01*
X167546D02*
X168562D01*
X170086D02*
X170594D01*
X173896D02*
X175420D01*
X178976D02*
X181008D01*
X184564D02*
X186596D01*
X189390D02*
X189644D01*
X190914D02*
X191930D01*
X193454D02*
X194470D01*
X198534D02*
X200312D01*
X204630D02*
X209202D01*
X210980D02*
X218346D01*
X223426D02*
X228760D01*
X234094D02*
X243238D01*
X249334D02*
X259748D01*
X141130Y713050D02*
X157386D01*
X158656D02*
X158910D01*
X161196D02*
X163482D01*
X165768D02*
X166276D01*
X167546D02*
X168562D01*
X170086D02*
X170594D01*
X172118D02*
X172626D01*
X173896D02*
X175674D01*
X178722D02*
X181262D01*
X184310D02*
X186850D01*
X189136D02*
X189644D01*
X190914D02*
X191930D01*
X193200D02*
X194470D01*
X195740D02*
X195994D01*
X198280D02*
X200566D01*
X203106D02*
X203360D01*
X204630D02*
X209202D01*
X210980D02*
X218346D01*
X223426D02*
X228760D01*
X234094D02*
X242984D01*
X249334D02*
X259748D01*
X141130Y713304D02*
X157386D01*
X158402D02*
X159164D01*
X160688D02*
X163736D01*
X165514D02*
X166530D01*
X167292D02*
X168816D01*
X169832D02*
X170848D01*
X171864D02*
X172626D01*
X173642D02*
X176182D01*
X178214D02*
X181770D01*
X183802D02*
X187104D01*
X188628D02*
X189644D01*
X190660D02*
X192184D01*
X193200D02*
X194470D01*
X195486D02*
X196248D01*
X198026D02*
X201074D01*
X202598D02*
X203614D01*
X204630D02*
X209202D01*
X210980D02*
X218346D01*
X223426D02*
X228760D01*
X234094D02*
X242730D01*
X249080D02*
X259748D01*
X141130Y713558D02*
X209202D01*
X210980D02*
X218346D01*
X223426D02*
X228760D01*
X234094D02*
X242476D01*
X248826D02*
X259748D01*
X141130Y713812D02*
X169070D01*
X169578D02*
X192438D01*
X192946D02*
X206154D01*
X210980D02*
X218346D01*
X223426D02*
X228760D01*
X234094D02*
X242222D01*
X248572D02*
X259748D01*
X141130Y714066D02*
X168816D01*
X169832D02*
X191930D01*
X193200D02*
X205646D01*
X210980D02*
X218346D01*
X223426D02*
X228760D01*
X234094D02*
X241968D01*
X248318D02*
X259748D01*
X141130Y714320D02*
X168562D01*
X170086D02*
X191930D01*
X193454D02*
X205646D01*
X210980D02*
X218346D01*
X223426D02*
X228760D01*
X234094D02*
X241714D01*
X248064D02*
X259748D01*
X141130Y714574D02*
X168562D01*
X170086D02*
X191930D01*
X193454D02*
X205646D01*
X210726D02*
X218346D01*
X223426D02*
X228760D01*
X234094D02*
X241460D01*
X247810D02*
X259748D01*
X141130Y714828D02*
X168562D01*
X170086D02*
X191930D01*
X193454D02*
X205646D01*
X210726D02*
X218346D01*
X223426D02*
X228760D01*
X234094D02*
X241206D01*
X247556D02*
X259748D01*
X141130Y715082D02*
X168816D01*
X169832D02*
X192184D01*
X193200D02*
X205900D01*
X210472D02*
X218346D01*
X223426D02*
X228760D01*
X234094D02*
X240952D01*
X247302D02*
X259748D01*
X141130Y715336D02*
X218346D01*
X223426D02*
X228760D01*
X234094D02*
X240698D01*
X247048D02*
X259748D01*
X141130Y715590D02*
X218346D01*
X223426D02*
X228760D01*
X234094D02*
X240698D01*
X246794D02*
X259748D01*
X141130Y715844D02*
X218346D01*
X223426D02*
X228760D01*
X234094D02*
X240444D01*
X246540D02*
X259748D01*
X141130Y716098D02*
X218346D01*
X223426D02*
X228760D01*
X234094D02*
X240190D01*
X246540D02*
X259748D01*
X141130Y716352D02*
X218346D01*
X223426D02*
X228760D01*
X234094D02*
X239936D01*
X246286D02*
X259748D01*
X141130Y716606D02*
X218346D01*
X223426D02*
X228760D01*
X234094D02*
X239682D01*
X246032D02*
X259748D01*
X141130Y716860D02*
X218346D01*
X223426D02*
X228760D01*
X234094D02*
X239428D01*
X245778D02*
X259748D01*
X141130Y717114D02*
X218346D01*
X223426D02*
X228760D01*
X234094D02*
X239174D01*
X245524D02*
X259748D01*
X141130Y717368D02*
X218346D01*
X223426D02*
X228760D01*
X234094D02*
X238920D01*
X245270D02*
X259748D01*
X141130Y717622D02*
X218346D01*
X223426D02*
X228760D01*
X234094D02*
X238666D01*
X245016D02*
X259748D01*
X141130Y717876D02*
X170086D01*
X171102D02*
X173896D01*
X176182D02*
X181516D01*
X182532D02*
X185072D01*
X187104D02*
X190660D01*
X192946D02*
X195232D01*
X196248D02*
X198534D01*
X199550D02*
X201582D01*
X203614D02*
X206916D01*
X209710D02*
X218346D01*
X223426D02*
X228760D01*
X234094D02*
X238412D01*
X244762D02*
X259748D01*
X141130Y718130D02*
X169832D01*
X171356D02*
X173388D01*
X176690D02*
X181262D01*
X182786D02*
X184564D01*
X187612D02*
X190152D01*
X193454D02*
X195232D01*
X196502D02*
X198280D01*
X199804D02*
X201074D01*
X204122D02*
X206408D01*
X210218D02*
X218346D01*
X223426D02*
X228760D01*
X234094D02*
X238158D01*
X244508D02*
X259748D01*
X141130Y718384D02*
X169832D01*
X171356D02*
X173134D01*
X176944D02*
X181262D01*
X182786D02*
X184310D01*
X188120D02*
X189898D01*
X193708D02*
X194978D01*
X196502D02*
X198280D01*
X199804D02*
X200820D01*
X204376D02*
X206154D01*
X210726D02*
X218346D01*
X223426D02*
X228760D01*
X234094D02*
X238158D01*
X244254D02*
X259748D01*
X141130Y718638D02*
X169832D01*
X171356D02*
X172880D01*
X177198D02*
X181262D01*
X182786D02*
X184056D01*
X188120D02*
X189644D01*
X193962D02*
X194978D01*
X196502D02*
X198280D01*
X199804D02*
X200566D01*
X204630D02*
X205900D01*
X210980D02*
X218346D01*
X223426D02*
X228760D01*
X234094D02*
X237904D01*
X244000D02*
X259748D01*
X141130Y718892D02*
X169832D01*
X171356D02*
X172880D01*
X174658D02*
X175420D01*
X177198D02*
X181262D01*
X182786D02*
X183802D01*
X185834D02*
X186342D01*
X188374D02*
X189644D01*
X191422D02*
X192184D01*
X193962D02*
X194978D01*
X196502D02*
X198280D01*
X199804D02*
X200312D01*
X204630D02*
X205646D01*
X210980D02*
X218346D01*
X223426D02*
X228760D01*
X234094D02*
X237650D01*
X243746D02*
X259748D01*
X141130Y719146D02*
X169832D01*
X171356D02*
X172626D01*
X174404D02*
X175674D01*
X177452D02*
X181262D01*
X182786D02*
X183802D01*
X185326D02*
X186850D01*
X188374D02*
X189390D01*
X191168D02*
X192438D01*
X194216D02*
X194978D01*
X196502D02*
X198280D01*
X199804D02*
X200312D01*
X201836D02*
X203106D01*
X204884D02*
X205646D01*
X207424D02*
X209202D01*
X211234D02*
X218346D01*
X223680D02*
X228760D01*
X234094D02*
X237396D01*
X243746D02*
X259748D01*
X141130Y719400D02*
X169832D01*
X171356D02*
X172626D01*
X174150D02*
X175928D01*
X177452D02*
X181262D01*
X182786D02*
X183548D01*
X185326D02*
X187104D01*
X188628D02*
X189390D01*
X190914D02*
X192692D01*
X194216D02*
X194978D01*
X196502D02*
X198280D01*
X199804D02*
X200312D01*
X201582D02*
X203360D01*
X204884D02*
X205646D01*
X207424D02*
X209456D01*
X211234D02*
X218346D01*
X223680D02*
X228506D01*
X234094D02*
X237142D01*
X243492D02*
X259748D01*
X141130Y719654D02*
X169832D01*
X171356D02*
X172626D01*
X174150D02*
X175928D01*
X177452D02*
X181262D01*
X182786D02*
X183548D01*
X185072D02*
X187104D01*
X188628D02*
X189136D01*
X190914D02*
X192692D01*
X194216D02*
X194978D01*
X196502D02*
X198280D01*
X199804D02*
X200566D01*
X201328D02*
X203360D01*
X204884D02*
X205646D01*
X207170D02*
X209710D01*
X211234D02*
X218346D01*
X223680D02*
X228506D01*
X234094D02*
X236888D01*
X243238D02*
X259748D01*
X141130Y719908D02*
X169832D01*
X171356D02*
X172626D01*
X174150D02*
X176182D01*
X177706D02*
X181262D01*
X182786D02*
X183548D01*
X185072D02*
X187104D01*
X188628D02*
X189136D01*
X190660D02*
X192692D01*
X194216D02*
X194978D01*
X196502D02*
X198280D01*
X199804D02*
X203614D01*
X204884D02*
X205646D01*
X207170D02*
X209964D01*
X210980D02*
X218346D01*
X223680D02*
X228252D01*
X234094D02*
X236634D01*
X242984D02*
X259748D01*
X141130Y720162D02*
X169832D01*
X171356D02*
X172372D01*
X173896D02*
X176182D01*
X177706D02*
X181262D01*
X182786D02*
X183548D01*
X185072D02*
X187104D01*
X188628D02*
X189136D01*
X190660D02*
X192946D01*
X194470D02*
X194978D01*
X196502D02*
X198280D01*
X199804D02*
X203614D01*
X204884D02*
X205646D01*
X207424D02*
X218346D01*
X223934D02*
X227998D01*
X234094D02*
X236380D01*
X242730D02*
X259748D01*
X141130Y720416D02*
X169832D01*
X171356D02*
X172372D01*
X173896D02*
X176182D01*
X177706D02*
X181262D01*
X182786D02*
X183548D01*
X185072D02*
X187104D01*
X188628D02*
X189136D01*
X190660D02*
X192946D01*
X194470D02*
X194978D01*
X196502D02*
X198280D01*
X199804D02*
X203614D01*
X204884D02*
X205646D01*
X208186D02*
X218346D01*
X224188D02*
X227744D01*
X234094D02*
X236126D01*
X242476D02*
X259748D01*
X141130Y720670D02*
X169832D01*
X171356D02*
X172626D01*
X173896D02*
X176182D01*
X177706D02*
X181262D01*
X182786D02*
X183548D01*
X185072D02*
X187104D01*
X188628D02*
X189136D01*
X190660D02*
X192946D01*
X194216D02*
X194978D01*
X196502D02*
X198280D01*
X199804D02*
X203360D01*
X204884D02*
X205646D01*
X208948D02*
X218346D01*
X224442D02*
X227490D01*
X234094D02*
X235872D01*
X248826D02*
X259748D01*
X141130Y720924D02*
X169832D01*
X171356D02*
X172626D01*
X174150D02*
X176182D01*
X177452D02*
X181262D01*
X182786D02*
X183548D01*
X185072D02*
X187104D01*
X188628D02*
X189136D01*
X190660D02*
X192692D01*
X194216D02*
X194978D01*
X196502D02*
X198280D01*
X199804D02*
X203360D01*
X204884D02*
X205900D01*
X209964D02*
X218346D01*
X224696D02*
X226982D01*
X234094D02*
X235618D01*
X249080D02*
X259748D01*
X141130Y721178D02*
X169832D01*
X171356D02*
X172626D01*
X174150D02*
X175928D01*
X177452D02*
X181262D01*
X182786D02*
X183548D01*
X185326D02*
X187104D01*
X188628D02*
X189390D01*
X190914D02*
X192692D01*
X194216D02*
X194978D01*
X196502D02*
X198280D01*
X199804D02*
X200566D01*
X201582D02*
X203360D01*
X204884D02*
X206154D01*
X210472D02*
X218600D01*
X234094D02*
X235618D01*
X249334D02*
X259748D01*
X141130Y721432D02*
X169832D01*
X171356D02*
X172626D01*
X174404D02*
X175928D01*
X177452D02*
X181262D01*
X182786D02*
X183802D01*
X185326D02*
X186850D01*
X188374D02*
X189390D01*
X190914D02*
X192438D01*
X194216D02*
X194978D01*
X196756D02*
X198026D01*
X199804D02*
X200312D01*
X201836D02*
X203106D01*
X204884D02*
X206408D01*
X210726D02*
X218600D01*
X234094D02*
X235364D01*
X249588D02*
X259748D01*
X141130Y721686D02*
X169832D01*
X171356D02*
X172880D01*
X174658D02*
X175420D01*
X177198D02*
X181262D01*
X182786D02*
X183802D01*
X185580D02*
X186596D01*
X188374D02*
X189644D01*
X191422D02*
X192184D01*
X193962D02*
X195232D01*
X199804D02*
X200312D01*
X202090D02*
X202598D01*
X204630D02*
X206916D01*
X210980D02*
X218600D01*
X234094D02*
X235364D01*
X249842D02*
X259748D01*
X141130Y721940D02*
X169070D01*
X172118D02*
X172880D01*
X177198D02*
X181262D01*
X182786D02*
X184056D01*
X188120D02*
X189644D01*
X193962D02*
X195232D01*
X199804D02*
X200566D01*
X204630D02*
X207932D01*
X210980D02*
X218600D01*
X234094D02*
X235110D01*
X249842D02*
X259748D01*
X141130Y722194D02*
X168816D01*
X172118D02*
X173134D01*
X176944D02*
X181262D01*
X182786D02*
X184310D01*
X187866D02*
X189898D01*
X193708D02*
X195232D01*
X199804D02*
X200566D01*
X204376D02*
X208948D01*
X211234D02*
X218854D01*
X234094D02*
X235110D01*
X250096D02*
X259748D01*
X141130Y722448D02*
X168816D01*
X172118D02*
X173388D01*
X176690D02*
X181262D01*
X182786D02*
X184564D01*
X187612D02*
X190152D01*
X193454D02*
X195486D01*
X198026D02*
X198280D01*
X199804D02*
X200820D01*
X204122D02*
X209456D01*
X211234D02*
X218854D01*
X234094D02*
X235110D01*
X250096D02*
X259748D01*
X141130Y722702D02*
X169070D01*
X172118D02*
X173896D01*
X176182D02*
X181262D01*
X182786D02*
X185072D01*
X187358D02*
X190660D01*
X192946D02*
X195994D01*
X197772D02*
X198280D01*
X199804D02*
X201328D01*
X203614D02*
X205900D01*
X207170D02*
X209710D01*
X211234D02*
X219108D01*
X234094D02*
X235110D01*
X250096D02*
X259748D01*
X141130Y722956D02*
X169832D01*
X171356D02*
X181262D01*
X182786D02*
X198280D01*
X199804D02*
X205900D01*
X207424D02*
X209456D01*
X211234D02*
X219108D01*
X234094D02*
X235110D01*
X250096D02*
X259748D01*
X141130Y723210D02*
X169832D01*
X171356D02*
X181262D01*
X182786D02*
X198280D01*
X199804D02*
X205900D01*
X207678D02*
X209456D01*
X211234D02*
X219362D01*
X234094D02*
X235110D01*
X249842D02*
X259748D01*
X141130Y723464D02*
X169832D01*
X171356D02*
X181262D01*
X182786D02*
X198280D01*
X199804D02*
X205900D01*
X208440D02*
X208694D01*
X210980D02*
X219616D01*
X234094D02*
X235364D01*
X249842D02*
X259748D01*
X141130Y723718D02*
X169070D01*
X171356D02*
X181262D01*
X182786D02*
X198280D01*
X199804D02*
X205900D01*
X210980D02*
X219616D01*
X234094D02*
X235364D01*
X249842D02*
X259748D01*
X141130Y723972D02*
X168816D01*
X171356D02*
X181262D01*
X182786D02*
X198280D01*
X199804D02*
X206154D01*
X210726D02*
X219870D01*
X234094D02*
X235618D01*
X249588D02*
X259748D01*
X141130Y724226D02*
X168816D01*
X171102D02*
X181262D01*
X182786D02*
X198280D01*
X199804D02*
X206408D01*
X210472D02*
X220124D01*
X228252D02*
X228760D01*
X234094D02*
X235872D01*
X249334D02*
X259748D01*
X141130Y724480D02*
X169070D01*
X170848D02*
X181516D01*
X182532D02*
X198534D01*
X199550D02*
X206916D01*
X209964D02*
X220632D01*
X227998D02*
X228760D01*
X234094D02*
X236126D01*
X249080D02*
X259748D01*
X141130Y724734D02*
X169324D01*
X170340D02*
X181770D01*
X182278D02*
X198788D01*
X199296D02*
X207932D01*
X209202D02*
X220886D01*
X227490D02*
X228760D01*
X234094D02*
X236888D01*
X248318D02*
X259748D01*
X141130Y724988D02*
X221394D01*
X226982D02*
X228760D01*
X234094D02*
X259748D01*
X141130Y725242D02*
X222156D01*
X226474D02*
X228760D01*
X234094D02*
X259748D01*
X141130Y725496D02*
X223426D01*
X225204D02*
X228760D01*
X234094D02*
X259748D01*
X141130Y725750D02*
X228760D01*
X234094D02*
X259748D01*
X141130Y726004D02*
X228760D01*
X234094D02*
X259748D01*
X141130Y726258D02*
X228760D01*
X234094D02*
X259748D01*
X141130Y726512D02*
X228760D01*
X234094D02*
X259748D01*
X141130Y726766D02*
X228760D01*
X234094D02*
X259748D01*
X141130Y727020D02*
X228760D01*
X234094D02*
X259748D01*
X141130Y727274D02*
X228760D01*
X234094D02*
X259748D01*
X141130Y727528D02*
X228760D01*
X234094D02*
X259748D01*
X141130Y727782D02*
X228760D01*
X234094D02*
X259748D01*
X141130Y728036D02*
X228760D01*
X234094D02*
X259748D01*
X141130Y728290D02*
X228760D01*
X234094D02*
X259748D01*
X141130Y728544D02*
X228760D01*
X234094D02*
X259748D01*
X141130Y728798D02*
X228760D01*
X234094D02*
X259748D01*
X141130Y729052D02*
X228760D01*
X234094D02*
X259748D01*
X141130Y729306D02*
X228760D01*
X234094D02*
X259748D01*
X141130Y729560D02*
X229014D01*
X234094D02*
X259748D01*
X141130Y729814D02*
X229014D01*
X233840D02*
X259748D01*
X141130Y730068D02*
X229014D01*
X233840D02*
X259748D01*
X141130Y730322D02*
X229268D01*
X233586D02*
X259748D01*
X141130Y730576D02*
X229522D01*
X233332D02*
X259748D01*
X141130Y730830D02*
X229776D01*
X233332D02*
X259748D01*
X141130Y731084D02*
X230030D01*
X232824D02*
X259748D01*
X141130Y731338D02*
X230538D01*
X232316D02*
X259748D01*
X141130Y731592D02*
X259748D01*
X141130Y731846D02*
X259748D01*
X141130Y732100D02*
X259748D01*
X141130Y732354D02*
X259748D01*
X141130Y732608D02*
X259748D01*
X141130Y732862D02*
X259748D01*
X141130Y733116D02*
X259748D01*
X141130Y733370D02*
X259748D01*
X141130Y733624D02*
X259748D01*
X141130Y733878D02*
X259748D01*
X141130Y734132D02*
X259748D01*
X141130Y734386D02*
X259748D01*
X141130Y734640D02*
X259748D01*
X141130Y734894D02*
X259748D01*
X141130Y735148D02*
X259748D01*
X141130Y735402D02*
X259748D01*
X141130Y735656D02*
X259748D01*
X141130Y735910D02*
X259748D01*
X141130Y736164D02*
X259748D01*
X141130Y736418D02*
X259748D01*
X141130Y736672D02*
X259748D01*
X141130Y736926D02*
X259748D01*
X141130Y737180D02*
X259748D01*
X141130Y737434D02*
X248318D01*
X249080D02*
X259748D01*
X141130Y737688D02*
X248064D01*
X248572D02*
X248826D01*
X249334D02*
X259748D01*
X141130Y737942D02*
X247810D01*
X248318D02*
X249080D01*
X249334D02*
X259748D01*
X141130Y738196D02*
X211742D01*
X211996D02*
X212758D01*
X213266D02*
X213520D01*
X214790D02*
X215044D01*
X215806D02*
X216314D01*
X216822D02*
X217076D01*
X218600D02*
X218854D01*
X219362D02*
X220124D01*
X220378D02*
X220886D01*
X221902D02*
X222410D01*
X223680D02*
X224188D01*
X224442D02*
X225204D01*
X225712D02*
X225966D01*
X227236D02*
X227744D01*
X229014D02*
X229268D01*
X230538D02*
X230792D01*
X231300D02*
X232062D01*
X232570D02*
X233332D01*
X233840D02*
X235618D01*
X236634D02*
X237142D01*
X237904D02*
X238158D01*
X239682D02*
X240190D01*
X240698D02*
X241206D01*
X243492D02*
X244000D01*
X244508D02*
X245016D01*
X245524D02*
X246286D01*
X247302D02*
X247810D01*
X249334D02*
X249842D01*
X250096D02*
X250858D01*
X251874D02*
X253144D01*
X253652D02*
X254922D01*
X255430D02*
X255684D01*
X256954D02*
X257462D01*
X257970D02*
X259748D01*
X141130Y738450D02*
X211742D01*
X211996D02*
X212758D01*
X213266D02*
X213520D01*
X213774D02*
X214536D01*
X215044D02*
X215552D01*
X215806D02*
X216314D01*
X216822D02*
X217330D01*
X217838D02*
X218346D01*
X219362D02*
X220124D01*
X220378D02*
X220632D01*
X221140D02*
X221648D01*
X222156D02*
X222410D01*
X222918D02*
X223426D01*
X223934D02*
X224188D01*
X224442D02*
X225204D01*
X226220D02*
X226982D01*
X227236D02*
X227490D01*
X227998D02*
X228506D01*
X229014D02*
X229268D01*
X229522D02*
X230284D01*
X231300D02*
X231808D01*
X232570D02*
X233332D01*
X234094D02*
X235364D01*
X235872D02*
X236380D01*
X236888D02*
X237396D01*
X237904D02*
X238158D01*
X238920D02*
X239428D01*
X239936D02*
X240190D01*
X240698D02*
X241206D01*
X241714D02*
X241968D01*
X242476D02*
X242984D01*
X243492D02*
X244000D01*
X244508D02*
X245016D01*
X245524D02*
X246032D01*
X246540D02*
X247048D01*
X247556D02*
X247810D01*
X248572D02*
X248826D01*
X249334D02*
X249842D01*
X250096D02*
X250858D01*
X251874D02*
X252890D01*
X253398D02*
X254922D01*
X255430D02*
X255684D01*
X256192D02*
X256700D01*
X257208D02*
X257462D01*
X257970D02*
X259748D01*
X141130Y738704D02*
X211742D01*
X211996D02*
X212758D01*
X213266D02*
X214536D01*
X215044D02*
X215552D01*
X215806D02*
X216314D01*
X216822D02*
X217076D01*
X217584D02*
X218092D01*
X218600D02*
X218854D01*
X219362D02*
X220124D01*
X220378D02*
X220632D01*
X221140D02*
X221902D01*
X222156D02*
X222410D01*
X222918D02*
X224188D01*
X224442D02*
X225204D01*
X225712D02*
X226982D01*
X228252D02*
X229268D01*
X229776D02*
X230792D01*
X231300D02*
X231808D01*
X232570D02*
X233332D01*
X234094D02*
X236634D01*
X236888D02*
X237396D01*
X237904D02*
X238158D01*
X238666D02*
X239428D01*
X239936D02*
X240190D01*
X240698D02*
X241206D01*
X241714D02*
X241968D01*
X242476D02*
X242984D01*
X243492D02*
X243746D01*
X245778D02*
X247302D01*
X247556D02*
X247810D01*
X248318D02*
X249080D01*
X249588D02*
X249842D01*
X250096D02*
X250858D01*
X251366D02*
X251620D01*
X253398D02*
X254922D01*
X255430D02*
X255684D01*
X255938D02*
X256700D01*
X257208D02*
X257462D01*
X257970D02*
X259748D01*
X141130Y738958D02*
X211742D01*
X211996D02*
X212758D01*
X215044D02*
X215552D01*
X215806D02*
X216314D01*
X216822D02*
X217330D01*
X218600D02*
X218854D01*
X219362D02*
X220124D01*
X220378D02*
X221902D01*
X222410D02*
X222664D01*
X223680D02*
X224188D01*
X224442D02*
X225204D01*
X227490D02*
X227744D01*
X228760D02*
X229268D01*
X230538D02*
X230792D01*
X231300D02*
X231808D01*
X232824D02*
X233078D01*
X234094D02*
X235364D01*
X237142D02*
X237396D01*
X237904D02*
X238158D01*
X238666D02*
X239428D01*
X239936D02*
X240190D01*
X240698D02*
X241206D01*
X241714D02*
X241968D01*
X243238D02*
X243746D01*
X245778D02*
X246032D01*
X248318D02*
X249080D01*
X249588D02*
X249842D01*
X250096D02*
X250858D01*
X251366D02*
X251620D01*
X253144D02*
X254922D01*
X255430D02*
X255684D01*
X255938D02*
X256700D01*
X257208D02*
X257462D01*
X257970D02*
X259748D01*
X141130Y739212D02*
X211742D01*
X211996D02*
X212758D01*
X213266D02*
X213520D01*
X213774D02*
X214536D01*
X215044D02*
X215552D01*
X215806D02*
X216314D01*
X216822D02*
X217330D01*
X217584D02*
X218346D01*
X218600D02*
X218854D01*
X219362D02*
X220124D01*
X220378D02*
X220632D01*
X221140D02*
X221902D01*
X222156D02*
X222410D01*
X222664D02*
X223426D01*
X223934D02*
X224188D01*
X224442D02*
X225204D01*
X226220D02*
X226982D01*
X227490D02*
X227744D01*
X227998D02*
X228506D01*
X229014D02*
X229268D01*
X229522D02*
X230030D01*
X230538D02*
X230792D01*
X231300D02*
X231808D01*
X232062D02*
X232316D01*
X232824D02*
X233078D01*
X233586D02*
X233840D01*
X234094D02*
X235364D01*
X235872D02*
X236634D01*
X236888D02*
X237396D01*
X237904D02*
X238158D01*
X238666D02*
X239428D01*
X239936D02*
X240190D01*
X240698D02*
X241206D01*
X241714D02*
X241968D01*
X242476D02*
X242984D01*
X243492D02*
X243746D01*
X244000D02*
X244508D01*
X245016D02*
X245524D01*
X245778D02*
X246032D01*
X246540D02*
X247302D01*
X247556D02*
X247810D01*
X248318D02*
X249080D01*
X249588D02*
X249842D01*
X250096D02*
X250858D01*
X251366D02*
X251620D01*
X252128D02*
X252636D01*
X253144D02*
X254922D01*
X255430D02*
X255684D01*
X255938D02*
X256700D01*
X257208D02*
X257462D01*
X257970D02*
X259748D01*
X141130Y739466D02*
X211742D01*
X212250D02*
X212504D01*
X213266D02*
X213520D01*
X214028D02*
X214282D01*
X214790D02*
X215044D01*
X217076D02*
X217330D01*
X217838D02*
X218092D01*
X218600D02*
X218854D01*
X220378D02*
X220632D01*
X222156D02*
X222410D01*
X223172D02*
X223426D01*
X223934D02*
X224188D01*
X224696D02*
X224950D01*
X225712D02*
X225966D01*
X226474D02*
X226728D01*
X227236D02*
X227744D01*
X228252D02*
X228506D01*
X229014D02*
X229268D01*
X229776D02*
X230030D01*
X230538D02*
X230792D01*
X231300D02*
X231554D01*
X232062D02*
X232570D01*
X232824D02*
X233078D01*
X233332D02*
X233840D01*
X234348D02*
X235364D01*
X236126D02*
X236380D01*
X236888D02*
X237142D01*
X239936D02*
X240190D01*
X240698D02*
X240952D01*
X241714D02*
X241968D01*
X242476D02*
X242730D01*
X244000D02*
X244508D01*
X245016D02*
X245524D01*
X246794D02*
X247048D01*
X247556D02*
X247810D01*
X248572D02*
X248826D01*
X249334D02*
X249842D01*
X250350D02*
X250604D01*
X251366D02*
X251874D01*
X252382D02*
X252636D01*
X253144D02*
X254414D01*
X255430D02*
X255684D01*
X255938D02*
X256700D01*
X257208D02*
X257462D01*
X258224D02*
X259748D01*
X141130Y739720D02*
X211996D01*
X213266D02*
X213774D01*
X214536D02*
X215044D01*
X217076D02*
X217330D01*
X218346D02*
X219108D01*
X220378D02*
X220886D01*
X221902D02*
X222664D01*
X223680D02*
X224188D01*
X225712D02*
X226220D01*
X226982D02*
X227744D01*
X228760D02*
X229522D01*
X230538D02*
X230792D01*
X231300D02*
X231554D01*
X232062D02*
X232570D01*
X233332D02*
X233840D01*
X234348D02*
X235618D01*
X236634D02*
X237142D01*
X239682D02*
X240444D01*
X241714D02*
X242222D01*
X243238D02*
X243492D01*
X244000D02*
X244508D01*
X245016D02*
X245524D01*
X246032D02*
X246286D01*
X247302D02*
X247810D01*
X249080D02*
X249842D01*
X251366D02*
X251874D01*
X252382D02*
X252636D01*
X252890D02*
X254414D01*
X255430D02*
X255684D01*
X255938D02*
X256700D01*
X258224D02*
X259748D01*
X141130Y739974D02*
X215552D01*
X215806D02*
X216314D01*
X216822D02*
X220124D01*
X220378D02*
X231554D01*
X232062D02*
X232570D01*
X233332D02*
X233840D01*
X234348D02*
X237396D01*
X237904D02*
X238158D01*
X238666D02*
X252128D01*
X252890D02*
X255938D01*
X256192D02*
X256446D01*
X256954D02*
X257462D01*
X257970D02*
X259748D01*
X141130Y740228D02*
X215552D01*
X215806D02*
X216060D01*
X216822D02*
X220124D01*
X220378D02*
X230792D01*
X231300D02*
X231554D01*
X231808D02*
X232570D01*
X233332D02*
X233840D01*
X234348D02*
X237396D01*
X237904D02*
X238158D01*
X238666D02*
X252128D01*
X252636D02*
X255938D01*
X256192D02*
X256446D01*
X256954D02*
X257208D01*
X257970D02*
X259748D01*
X141130Y740482D02*
X216060D01*
X216568D02*
X257208D01*
X257462D02*
X259748D01*
X141130Y740736D02*
X259748D01*
X141130Y740990D02*
X259748D01*
X141130Y741244D02*
X259748D01*
X141130Y741498D02*
X259748D01*
X141130Y741752D02*
X259748D01*
X141130Y742006D02*
X259748D01*
X141130Y742260D02*
X229268D01*
X230284D02*
X231046D01*
X231300D02*
X231554D01*
X233078D02*
X233332D01*
X233840D02*
X234602D01*
X234856D02*
X235364D01*
X236380D02*
X237142D01*
X238158D02*
X238666D01*
X238920D02*
X239682D01*
X240190D02*
X240698D01*
X241460D02*
X242476D01*
X243492D02*
X244000D01*
X244508D02*
X245524D01*
X246032D02*
X247556D01*
X248064D02*
X248572D01*
X249588D02*
X250096D01*
X250350D02*
X251112D01*
X251620D02*
X252128D01*
X252890D02*
X253906D01*
X254414D02*
X254668D01*
X255938D02*
X256192D01*
X258224D02*
X259748D01*
X141130Y742514D02*
X229014D01*
X230538D02*
X231046D01*
X231300D02*
X231554D01*
X232316D02*
X232570D01*
X233078D02*
X233332D01*
X233840D02*
X234602D01*
X234856D02*
X235110D01*
X236634D02*
X236888D01*
X237396D02*
X237650D01*
X238412D02*
X238666D01*
X238920D02*
X239682D01*
X240190D02*
X240444D01*
X241714D02*
X242222D01*
X243746D02*
X244000D01*
X244508D02*
X245524D01*
X246032D02*
X247556D01*
X248064D02*
X248318D01*
X249588D02*
X250096D01*
X250350D02*
X251112D01*
X251620D02*
X251874D01*
X253144D02*
X253906D01*
X254414D02*
X254668D01*
X258224D02*
X259748D01*
X141130Y742768D02*
X229014D01*
X229522D02*
X230284D01*
X230792D02*
X231046D01*
X231300D02*
X231554D01*
X232062D02*
X232824D01*
X233078D02*
X233332D01*
X233840D02*
X234602D01*
X234856D02*
X235110D01*
X235618D02*
X236380D01*
X236634D02*
X236888D01*
X237396D02*
X238158D01*
X238412D02*
X238666D01*
X238920D02*
X239682D01*
X240698D02*
X241460D01*
X242476D02*
X243238D01*
X243746D02*
X244000D01*
X244508D02*
X245524D01*
X246032D02*
X247556D01*
X248064D02*
X248318D01*
X248572D02*
X249334D01*
X249842D02*
X250096D01*
X250350D02*
X251112D01*
X252128D02*
X252890D01*
X253398D02*
X253906D01*
X254414D02*
X254668D01*
X254922D02*
X255684D01*
X256192D02*
X257462D01*
X257970D02*
X259748D01*
X141130Y743022D02*
X229014D01*
X230792D02*
X231046D01*
X231300D02*
X231554D01*
X232062D02*
X232824D01*
X233078D02*
X233332D01*
X233840D02*
X234602D01*
X234856D02*
X236380D01*
X238158D02*
X238666D01*
X238920D02*
X239682D01*
X240190D02*
X241460D01*
X242476D02*
X243238D01*
X243746D02*
X244000D01*
X244508D02*
X245524D01*
X246032D02*
X247556D01*
X249842D02*
X250096D01*
X250350D02*
X251112D01*
X251620D02*
X252890D01*
X253398D02*
X253906D01*
X254414D02*
X254668D01*
X254922D02*
X255684D01*
X256192D02*
X257208D01*
X257716D02*
X259748D01*
X141130Y743276D02*
X229014D01*
X230792D02*
X231046D01*
X231300D02*
X231554D01*
X232062D02*
X232824D01*
X233078D02*
X233332D01*
X233840D02*
X234602D01*
X234856D02*
X236380D01*
X236888D02*
X237396D01*
X238412D02*
X238666D01*
X238920D02*
X239682D01*
X240190D02*
X241460D01*
X242476D02*
X243238D01*
X243746D02*
X244000D01*
X246032D02*
X247556D01*
X249842D02*
X250096D01*
X250350D02*
X251112D01*
X251620D02*
X252890D01*
X253398D02*
X253906D01*
X254414D02*
X254668D01*
X254922D02*
X255684D01*
X256192D02*
X256954D01*
X257716D02*
X259748D01*
X141130Y743530D02*
X229014D01*
X229522D02*
X230284D01*
X230538D02*
X231046D01*
X231300D02*
X231554D01*
X232062D02*
X232824D01*
X233078D02*
X233332D01*
X233840D02*
X234348D01*
X234856D02*
X235110D01*
X235618D02*
X236126D01*
X236634D02*
X236888D01*
X237396D02*
X237904D01*
X238412D02*
X238666D01*
X239174D02*
X239682D01*
X240698D02*
X241460D01*
X241968D02*
X242222D01*
X242730D02*
X243238D01*
X243746D02*
X244000D01*
X246032D02*
X247302D01*
X248064D02*
X248318D01*
X248826D02*
X249334D01*
X249842D02*
X250096D01*
X250604D02*
X251112D01*
X251620D02*
X251874D01*
X252128D02*
X252890D01*
X253398D02*
X253652D01*
X254414D02*
X254668D01*
X254922D02*
X255684D01*
X256192D02*
X256954D01*
X257462D02*
X259748D01*
X141130Y743784D02*
X229268D01*
X230538D02*
X231046D01*
X231300D02*
X231554D01*
X232062D02*
X232824D01*
X233078D02*
X233586D01*
X234856D02*
X235364D01*
X236634D02*
X237142D01*
X238158D02*
X238666D01*
X240190D02*
X240444D01*
X241714D02*
X242222D01*
X243492D02*
X244000D01*
X244508D02*
X245524D01*
X246032D02*
X247048D01*
X248064D02*
X248318D01*
X249588D02*
X250096D01*
X251620D02*
X251874D01*
X253144D02*
X253398D01*
X254414D02*
X254668D01*
X254922D02*
X255684D01*
X256192D02*
X256700D01*
X257208D02*
X259748D01*
X141130Y744038D02*
X231046D01*
X231300D02*
X234602D01*
X234856D02*
X239682D01*
X240190D02*
X244000D01*
X244508D02*
X245524D01*
X246032D02*
X251112D01*
X251620D02*
X256446D01*
X256954D02*
X259748D01*
X141130Y744292D02*
X231046D01*
X231300D02*
X234602D01*
X234856D02*
X239682D01*
X240190D02*
X244000D01*
X244508D02*
X245524D01*
X246032D02*
X251112D01*
X251620D02*
X254922D01*
X255176D02*
X255430D01*
X255938D02*
X256192D01*
X258224D02*
X259748D01*
X141130Y744546D02*
X231046D01*
X231300D02*
X234602D01*
X234856D02*
X239682D01*
X240190D02*
X244000D01*
X244508D02*
X245524D01*
X246032D02*
X251112D01*
X251620D02*
X254922D01*
X255176D02*
X255430D01*
X255684D02*
X256192D01*
X258224D02*
X259748D01*
X141130Y744800D02*
X259748D01*
X141130Y745054D02*
X259748D01*
X141130Y745308D02*
X259748D01*
D195*
X183228Y657228D02*
Y667225D01*
X178230D01*
X176563Y665559D01*
Y662226D01*
X178230Y660560D01*
X183228D01*
X179896D02*
X176563Y657228D01*
X168233D02*
X171565D01*
X173231Y658894D01*
Y662226D01*
X171565Y663893D01*
X168233D01*
X166567Y662226D01*
Y660560D01*
X173231D01*
X163234Y663893D02*
X159902Y657228D01*
X156570Y663893D01*
X136576Y657228D02*
X143241D01*
X136576Y663893D01*
Y665559D01*
X138242Y667225D01*
X141575D01*
X143241Y665559D01*
X133244Y657228D02*
Y658894D01*
X131578D01*
Y657228D01*
X133244D01*
X124913D02*
X121581D01*
X123247D01*
Y667225D01*
X124913Y665559D01*
X254758Y657228D02*
X249760D01*
X248093Y658894D01*
X249760Y660560D01*
X253092D01*
X254758Y662226D01*
X253092Y663893D01*
X248093D01*
X238097D02*
X243095D01*
X244761Y662226D01*
Y658894D01*
X243095Y657228D01*
X238097D01*
X233098Y663893D02*
X229766D01*
X228100Y662226D01*
Y657228D01*
X233098D01*
X234764Y658894D01*
X233098Y660560D01*
X228100D01*
X221435Y653896D02*
X219769D01*
X218103Y655562D01*
Y663893D01*
X223101D01*
X224767Y662226D01*
Y658894D01*
X223101Y657228D01*
X218103D01*
X204774D02*
X198109Y663893D01*
X130703Y743388D02*
X129371Y742055D01*
Y739389D01*
X130703Y738056D01*
X136035D01*
X137368Y739389D01*
Y742055D01*
X136035Y743388D01*
X130703D01*
X137368Y730059D02*
Y735391D01*
X132036Y730059D01*
X130703D01*
X129371Y731392D01*
Y734058D01*
X130703Y735391D01*
X137368Y727393D02*
X136035D01*
Y726060D01*
X137368D01*
Y727393D01*
Y720729D02*
Y718063D01*
Y719396D01*
X129371D01*
X130703Y720729D01*
X137368Y708733D02*
Y714064D01*
X132036Y708733D01*
X130703D01*
X129371Y710065D01*
Y712731D01*
X130703Y714064D01*
X137368Y706067D02*
X136035D01*
Y704734D01*
X137368D01*
Y706067D01*
Y699402D02*
Y696736D01*
Y698069D01*
X129371D01*
X130703Y699402D01*
X129371Y692738D02*
Y687406D01*
X130703D01*
X136035Y692738D01*
X137368D01*
M02*
