G04 Layer_Color=8421504*
%FSLAX44Y44*%
%MOMM*%
G71*
G01*
G75*
%ADD39R,0.6096X0.5842*%
%ADD40R,0.5842X0.6096*%
%ADD48R,0.9000X0.9000*%
%ADD49R,0.9000X0.9000*%
%ADD58C,0.2000*%
%ADD131R,1.9000X0.7000*%
%ADD132R,0.5500X0.5500*%
%ADD133R,0.9000X3.1000*%
%ADD134R,0.5500X0.5500*%
%ADD135R,1.2000X1.2000*%
%ADD136R,1.9000X1.1000*%
%ADD137R,1.8600X1.8600*%
%ADD138R,1.4700X1.4700*%
%ADD139R,0.9500X0.9000*%
%ADD140R,2.1000X0.9500*%
%ADD141R,1.8600X1.8600*%
%ADD142R,1.4700X1.4700*%
%ADD143C,0.1300*%
%ADD144R,1.0000X0.5500*%
%ADD145R,1.3000X0.5000*%
%ADD146R,0.3000X0.7500*%
G04:AMPARAMS|DCode=147|XSize=1.1mm|YSize=2.2mm|CornerRadius=0mm|HoleSize=0mm|Usage=FLASHONLY|Rotation=90.000|XOffset=0mm|YOffset=0mm|HoleType=Round|Shape=Octagon|*
%AMOCTAGOND147*
4,1,8,-1.1000,-0.2750,-1.1000,0.2750,-0.8250,0.5500,0.8250,0.5500,1.1000,0.2750,1.1000,-0.2750,0.8250,-0.5500,-0.8250,-0.5500,-1.1000,-0.2750,0.0*
%
%ADD147OCTAGOND147*%

%ADD148R,2.4000X1.1000*%
%ADD149R,1.1000X2.4000*%
G04:AMPARAMS|DCode=150|XSize=1.1mm|YSize=2.2mm|CornerRadius=0mm|HoleSize=0mm|Usage=FLASHONLY|Rotation=180.000|XOffset=0mm|YOffset=0mm|HoleType=Round|Shape=Octagon|*
%AMOCTAGOND150*
4,1,8,0.2750,-1.1000,-0.2750,-1.1000,-0.5500,-0.8250,-0.5500,0.8250,-0.2750,1.1000,0.2750,1.1000,0.5500,0.8250,0.5500,-0.8250,0.2750,-1.1000,0.0*
%
%ADD150OCTAGOND150*%

G04:AMPARAMS|DCode=151|XSize=1.1mm|YSize=2.1mm|CornerRadius=0mm|HoleSize=0mm|Usage=FLASHONLY|Rotation=180.000|XOffset=0mm|YOffset=0mm|HoleType=Round|Shape=Octagon|*
%AMOCTAGOND151*
4,1,8,0.2750,-1.0500,-0.2750,-1.0500,-0.5500,-0.7750,-0.5500,0.7750,-0.2750,1.0500,0.2750,1.0500,0.5500,0.7750,0.5500,-0.7750,0.2750,-1.0500,0.0*
%
%ADD151OCTAGOND151*%

%ADD152R,0.7890X1.1700*%
%ADD153R,1.4000X0.5000*%
%ADD154R,0.6620X0.6620*%
%ADD155R,0.9200X0.6600*%
%ADD156R,0.5300X0.5500*%
G04:AMPARAMS|DCode=157|XSize=0.53mm|YSize=0.55mm|CornerRadius=0mm|HoleSize=0mm|Usage=FLASHONLY|Rotation=180.000|XOffset=0mm|YOffset=0mm|HoleType=Round|Shape=Octagon|*
%AMOCTAGOND157*
4,1,8,0.1325,-0.2750,-0.1325,-0.2750,-0.2650,-0.1425,-0.2650,0.1425,-0.1325,0.2750,0.1325,0.2750,0.2650,0.1425,0.2650,-0.1425,0.1325,-0.2750,0.0*
%
%ADD157OCTAGOND157*%

%ADD158R,0.5500X0.5300*%
G04:AMPARAMS|DCode=159|XSize=0.53mm|YSize=0.55mm|CornerRadius=0mm|HoleSize=0mm|Usage=FLASHONLY|Rotation=90.000|XOffset=0mm|YOffset=0mm|HoleType=Round|Shape=Octagon|*
%AMOCTAGOND159*
4,1,8,-0.2750,-0.1325,-0.2750,0.1325,-0.1425,0.2650,0.1425,0.2650,0.2750,0.1325,0.2750,-0.1325,0.1425,-0.2650,-0.1425,-0.2650,-0.2750,-0.1325,0.0*
%
%ADD159OCTAGOND159*%

%ADD160R,0.9000X1.0000*%
%ADD161R,0.4400X0.7600*%
%ADD162R,0.7000X0.2000*%
%ADD163R,0.2000X0.7000*%
%ADD164R,1.1000X0.2000*%
%ADD165R,0.2000X1.1000*%
G36*
X197000Y245000D02*
X189000D01*
Y253000D01*
X197000D01*
Y245000D01*
D02*
G37*
G36*
X185000D02*
X177000D01*
Y253000D01*
X185000D01*
Y245000D01*
D02*
G37*
G36*
X197000Y257000D02*
X189000D01*
Y265000D01*
X197000D01*
Y257000D01*
D02*
G37*
G36*
X185000D02*
X177000D01*
Y265000D01*
X185000D01*
Y257000D01*
D02*
G37*
G36*
X197000Y233000D02*
X189000D01*
Y241000D01*
X197000D01*
Y233000D01*
D02*
G37*
G36*
X173000D02*
X165000D01*
Y241000D01*
X173000D01*
Y233000D01*
D02*
G37*
G36*
Y245000D02*
X165000D01*
Y253000D01*
X173000D01*
Y245000D01*
D02*
G37*
G36*
X185000Y233000D02*
X177000D01*
Y241000D01*
X185000D01*
Y233000D01*
D02*
G37*
G36*
X173000Y257000D02*
X165000D01*
Y265000D01*
X173000D01*
Y257000D01*
D02*
G37*
G36*
X-59334Y637486D02*
X-58684D01*
Y629906D01*
X-58694Y629916D01*
X-65844D01*
X-68624Y632696D01*
Y640456D01*
X-62304D01*
X-59334Y637486D01*
D02*
G37*
G36*
X-38604Y632686D02*
X-41384Y629906D01*
X-48534D01*
X-48544Y629896D01*
Y637476D01*
X-47894D01*
X-44924Y640446D01*
X-38604D01*
Y632686D01*
D02*
G37*
G36*
X-58614Y654976D02*
X-59264D01*
X-62234Y652006D01*
X-68554D01*
Y659766D01*
X-65774Y662546D01*
X-58624D01*
X-58614Y662556D01*
Y654976D01*
D02*
G37*
G36*
X-48464Y662536D02*
X-41314D01*
X-38534Y659756D01*
Y651996D01*
X-44854D01*
X-47824Y654966D01*
X-48474D01*
Y662546D01*
X-48464Y662536D01*
D02*
G37*
G36*
X235306Y598116D02*
X235956D01*
Y590536D01*
X235946Y590546D01*
X228796D01*
X226016Y593326D01*
Y601086D01*
X232336D01*
X235306Y598116D01*
D02*
G37*
G36*
X256036Y593316D02*
X253256Y590536D01*
X246106D01*
X246096Y590526D01*
Y598106D01*
X246746D01*
X249716Y601076D01*
X256036D01*
Y593316D01*
D02*
G37*
G36*
X236026Y615606D02*
X235376D01*
X232406Y612636D01*
X226086D01*
Y620396D01*
X228866Y623176D01*
X236016D01*
X236026Y623186D01*
Y615606D01*
D02*
G37*
G36*
X246176Y623166D02*
X253326D01*
X256106Y620386D01*
Y612626D01*
X249786D01*
X246816Y615596D01*
X246166D01*
Y623176D01*
X246176Y623166D01*
D02*
G37*
D39*
X-13732Y563880D02*
D03*
X-23892D02*
D03*
X-3572Y574548D02*
D03*
X-13732D02*
D03*
X474234Y680974D02*
D03*
X484394D02*
D03*
X473218Y634492D02*
D03*
X483378D02*
D03*
X471440Y589026D02*
D03*
X481600D02*
D03*
X365506Y686816D02*
D03*
X355346D02*
D03*
X45160Y-22606D02*
D03*
X35000D02*
D03*
Y21270D02*
D03*
X45160D02*
D03*
X276082Y517398D02*
D03*
X265922D02*
D03*
X286242Y527558D02*
D03*
X276082D02*
D03*
X76160Y974750D02*
D03*
X66000D02*
D03*
X65840Y932688D02*
D03*
X76000D02*
D03*
D40*
X279400Y451866D02*
D03*
Y441706D02*
D03*
X479552Y704088D02*
D03*
Y693928D02*
D03*
Y657860D02*
D03*
Y647700D02*
D03*
X480568Y612394D02*
D03*
Y602234D02*
D03*
X35000Y-3660D02*
D03*
Y6500D02*
D03*
X-31000Y141840D02*
D03*
Y152000D02*
D03*
X-17000Y141840D02*
D03*
Y152000D02*
D03*
X212000Y574840D02*
D03*
Y585000D02*
D03*
X-3000Y141840D02*
D03*
Y152000D02*
D03*
X74000Y575840D02*
D03*
Y586000D02*
D03*
X99000Y575840D02*
D03*
Y586000D02*
D03*
X125000Y575840D02*
D03*
Y586000D02*
D03*
X126000Y540160D02*
D03*
Y530000D02*
D03*
X150000Y575840D02*
D03*
Y586000D02*
D03*
X201000Y540840D02*
D03*
Y551000D02*
D03*
X150000Y548840D02*
D03*
Y559000D02*
D03*
X-22000Y738160D02*
D03*
Y728000D02*
D03*
X355374Y340538D02*
D03*
Y350698D02*
D03*
X325374Y340538D02*
D03*
Y350698D02*
D03*
X340374Y340538D02*
D03*
Y350698D02*
D03*
X378968Y602742D02*
D03*
Y612902D02*
D03*
X348488Y602488D02*
D03*
Y612648D02*
D03*
X364668Y602462D02*
D03*
Y612622D02*
D03*
X30000Y700160D02*
D03*
Y690000D02*
D03*
X7000Y700160D02*
D03*
Y690000D02*
D03*
X-134000Y428840D02*
D03*
Y439000D02*
D03*
X-149000Y428840D02*
D03*
Y439000D02*
D03*
X388000Y737840D02*
D03*
Y748000D02*
D03*
X-163000Y428840D02*
D03*
Y439000D02*
D03*
X76000Y948840D02*
D03*
Y959000D02*
D03*
X359000Y737840D02*
D03*
Y748000D02*
D03*
X374000Y737840D02*
D03*
Y748000D02*
D03*
D48*
X24384Y601338D02*
D03*
Y616338D02*
D03*
X4930Y601592D02*
D03*
Y616592D02*
D03*
X267208Y338448D02*
D03*
Y353448D02*
D03*
X15000Y140500D02*
D03*
Y125500D02*
D03*
X295402Y553586D02*
D03*
Y568586D02*
D03*
X311912Y553586D02*
D03*
Y568586D02*
D03*
D49*
X-31376Y618236D02*
D03*
X-16376D02*
D03*
X268090Y578866D02*
D03*
X283090D02*
D03*
D58*
X520000Y930000D02*
G03*
X510000Y940000I-10000J0D01*
G01*
Y0D02*
G03*
X520000Y10000I0J10000D01*
G01*
X-180000D02*
G03*
X-170000Y0I10000J0D01*
G01*
Y940000D02*
G03*
X-180000Y930000I0J-10000D01*
G01*
X0Y-85000D02*
X340000D01*
X0Y1025000D02*
X340000D01*
X0Y940000D02*
Y1025000D01*
X340000Y940000D02*
Y1025000D01*
Y-85000D02*
Y0D01*
X0Y-85000D02*
Y0D01*
X-165000D02*
X0D01*
X-170000Y940000D02*
X0D01*
X-180000Y10000D02*
Y930000D01*
X340000Y940000D02*
X505000D01*
X340000Y0D02*
X505000D01*
X520000Y10000D02*
Y930000D01*
X505000Y940000D02*
X510000D01*
X505000Y0D02*
X510000D01*
X-170000D02*
X-165000D01*
D131*
X-53594Y598330D02*
D03*
Y618330D02*
D03*
X241300Y577436D02*
D03*
Y557436D02*
D03*
D132*
X249050Y-64770D02*
D03*
X238050D02*
D03*
X240800Y1004570D02*
D03*
X229800D02*
D03*
X16500Y380000D02*
D03*
X27500D02*
D03*
X-58840Y414908D02*
D03*
X-48680D02*
D03*
X-58840Y463800D02*
D03*
X-47840D02*
D03*
X99988Y243078D02*
D03*
X88988D02*
D03*
X130976Y249936D02*
D03*
X119976D02*
D03*
X100242Y255270D02*
D03*
X89242D02*
D03*
X128778Y264922D02*
D03*
X117778D02*
D03*
X45500Y205000D02*
D03*
X34500D02*
D03*
X75500Y127000D02*
D03*
X64500D02*
D03*
X15500Y153000D02*
D03*
X26500D02*
D03*
X64500Y94000D02*
D03*
X75500D02*
D03*
X64500Y116000D02*
D03*
X75500D02*
D03*
Y105000D02*
D03*
X64500D02*
D03*
X78500Y47000D02*
D03*
X67500D02*
D03*
X282500Y48000D02*
D03*
X293500D02*
D03*
X126500Y227000D02*
D03*
X115500D02*
D03*
X216500Y198000D02*
D03*
X227500D02*
D03*
X136500Y166000D02*
D03*
X125500D02*
D03*
X42000Y47000D02*
D03*
X-13628Y584200D02*
D03*
X-2628D02*
D03*
X16500Y395000D02*
D03*
X27500D02*
D03*
X275932Y538226D02*
D03*
X286932D02*
D03*
X247500Y227000D02*
D03*
X236500D02*
D03*
X251500Y275000D02*
D03*
X240500D02*
D03*
X283500Y83000D02*
D03*
X272500D02*
D03*
X271500Y208000D02*
D03*
X260500D02*
D03*
X217500Y102000D02*
D03*
X228500D02*
D03*
X217500Y134000D02*
D03*
X228500D02*
D03*
X217500Y166000D02*
D03*
X228500D02*
D03*
X227500Y84000D02*
D03*
X216500D02*
D03*
X164500Y348000D02*
D03*
X175500D02*
D03*
X75500Y83000D02*
D03*
X64500D02*
D03*
X87500Y216000D02*
D03*
X98500D02*
D03*
X136500Y121000D02*
D03*
X125500D02*
D03*
X136500Y155000D02*
D03*
X125500D02*
D03*
Y199000D02*
D03*
X136500D02*
D03*
X176500Y115000D02*
D03*
X187500D02*
D03*
X251500Y264000D02*
D03*
X240500D02*
D03*
X247500Y239000D02*
D03*
X236500D02*
D03*
X247500Y250000D02*
D03*
X236500D02*
D03*
X-31900Y671163D02*
D03*
X-20900D02*
D03*
X272376Y633730D02*
D03*
X283376D02*
D03*
D133*
X113000Y1005000D02*
D03*
X213000D02*
D03*
X221250Y-64750D02*
D03*
X121250D02*
D03*
D134*
X318500Y783250D02*
D03*
Y794250D02*
D03*
X98000Y155500D02*
D03*
Y166500D02*
D03*
X261000Y165500D02*
D03*
Y176500D02*
D03*
X225000Y216500D02*
D03*
Y227500D02*
D03*
X229000Y123500D02*
D03*
Y112500D02*
D03*
Y155500D02*
D03*
Y144500D02*
D03*
X228000Y187500D02*
D03*
Y176500D02*
D03*
X125000Y144500D02*
D03*
Y133500D02*
D03*
X147000Y187500D02*
D03*
Y176500D02*
D03*
X195000Y186500D02*
D03*
Y197500D02*
D03*
X76000Y903500D02*
D03*
X-20000Y860000D02*
D03*
X36068Y131660D02*
D03*
Y142660D02*
D03*
X159000Y186500D02*
D03*
Y197500D02*
D03*
X85000Y354500D02*
D03*
Y343500D02*
D03*
X304000Y301500D02*
D03*
Y312500D02*
D03*
X56000Y58500D02*
D03*
Y47500D02*
D03*
X89000Y36500D02*
D03*
Y47500D02*
D03*
X136144Y67652D02*
D03*
Y78652D02*
D03*
X51000Y152500D02*
D03*
Y163500D02*
D03*
X305000Y36500D02*
D03*
Y47500D02*
D03*
X271000Y36500D02*
D03*
Y47500D02*
D03*
X254000Y60500D02*
D03*
Y71500D02*
D03*
X261000Y144500D02*
D03*
Y155500D02*
D03*
Y186500D02*
D03*
Y197500D02*
D03*
X181000Y186500D02*
D03*
Y197500D02*
D03*
X217000Y112500D02*
D03*
Y123500D02*
D03*
Y144500D02*
D03*
Y155500D02*
D03*
X206000Y186500D02*
D03*
Y197500D02*
D03*
X91000Y519500D02*
D03*
Y508500D02*
D03*
X170000Y186500D02*
D03*
Y197500D02*
D03*
X216000Y471500D02*
D03*
Y482500D02*
D03*
X140000Y271500D02*
D03*
Y282500D02*
D03*
X104000Y61500D02*
D03*
Y72500D02*
D03*
X98000Y123500D02*
D03*
Y134500D02*
D03*
Y189500D02*
D03*
Y200500D02*
D03*
X137000Y216500D02*
D03*
Y227500D02*
D03*
X-22098Y701206D02*
D03*
Y690206D02*
D03*
X-93000Y735500D02*
D03*
Y724500D02*
D03*
X137000Y133500D02*
D03*
Y144500D02*
D03*
X136000Y176500D02*
D03*
Y187500D02*
D03*
X159000Y165500D02*
D03*
Y176500D02*
D03*
X195000Y164500D02*
D03*
Y175500D02*
D03*
D135*
X-115000Y449000D02*
D03*
Y431000D02*
D03*
X285750Y356726D02*
D03*
Y338726D02*
D03*
X-64000Y100000D02*
D03*
Y118000D02*
D03*
X306374Y356698D02*
D03*
Y338698D02*
D03*
X399288Y626220D02*
D03*
Y608220D02*
D03*
X398000Y697000D02*
D03*
Y715000D02*
D03*
D136*
X284000Y290000D02*
D03*
X247000D02*
D03*
Y312000D02*
D03*
X284000D02*
D03*
D137*
X324800Y72200D02*
D03*
X373200D02*
D03*
X324800Y23800D02*
D03*
X373200D02*
D03*
D138*
X349000Y48000D02*
D03*
D139*
X244Y858520D02*
D03*
X-16246Y47008D02*
D03*
D140*
X15494Y843770D02*
D03*
Y873270D02*
D03*
X-31496Y61758D02*
D03*
Y32258D02*
D03*
D141*
X-168200Y719800D02*
D03*
Y768200D02*
D03*
X-119800Y719800D02*
D03*
Y768200D02*
D03*
D142*
X-144000Y744000D02*
D03*
D143*
X-13748Y594932D02*
D03*
X-17748D02*
D03*
X-13748Y598932D02*
D03*
X-17748D02*
D03*
X-13748Y602932D02*
D03*
X-17748D02*
D03*
X276718Y553466D02*
D03*
X272718D02*
D03*
X276718Y557466D02*
D03*
X272718D02*
D03*
X276718Y561466D02*
D03*
X272718D02*
D03*
D144*
X464312Y712978D02*
D03*
Y693978D02*
D03*
X440312D02*
D03*
Y703478D02*
D03*
Y712978D02*
D03*
X463982Y667328D02*
D03*
Y648328D02*
D03*
X439982D02*
D03*
Y657828D02*
D03*
Y667328D02*
D03*
X463820Y621354D02*
D03*
Y602354D02*
D03*
X439820D02*
D03*
Y611854D02*
D03*
Y621354D02*
D03*
X163000Y100500D02*
D03*
Y91000D02*
D03*
Y81500D02*
D03*
X187000D02*
D03*
Y100500D02*
D03*
D145*
X30700Y352000D02*
D03*
Y339300D02*
D03*
Y326600D02*
D03*
Y313900D02*
D03*
Y301200D02*
D03*
Y288500D02*
D03*
Y275800D02*
D03*
Y263100D02*
D03*
X-62000D02*
D03*
Y275800D02*
D03*
Y288500D02*
D03*
Y301200D02*
D03*
Y313900D02*
D03*
Y326600D02*
D03*
Y339300D02*
D03*
Y352000D02*
D03*
D146*
X260500Y83500D02*
D03*
X254000D02*
D03*
X247500D02*
D03*
Y102500D02*
D03*
X254000D02*
D03*
X260500D02*
D03*
X110500Y83500D02*
D03*
X104000D02*
D03*
X97500D02*
D03*
Y102500D02*
D03*
X104000D02*
D03*
X110500D02*
D03*
D147*
X295210Y854070D02*
D03*
Y694070D02*
D03*
D148*
X294210Y834070D02*
D03*
Y814070D02*
D03*
Y754070D02*
D03*
Y794070D02*
D03*
Y734070D02*
D03*
Y714070D02*
D03*
D149*
X236710Y871570D02*
D03*
X256710D02*
D03*
X216710D02*
D03*
X236710Y676570D02*
D03*
X216710D02*
D03*
X256710D02*
D03*
X176710Y871570D02*
D03*
X196710D02*
D03*
X156710D02*
D03*
X76710D02*
D03*
X96710D02*
D03*
X56710D02*
D03*
X136710D02*
D03*
X116710D02*
D03*
X136710Y676570D02*
D03*
X156710D02*
D03*
X116710D02*
D03*
X196710D02*
D03*
X176710D02*
D03*
X56710D02*
D03*
X96710D02*
D03*
X76710D02*
D03*
D150*
X276710Y872570D02*
D03*
D151*
X276710Y675570D02*
D03*
D152*
X-37160Y169570D02*
D03*
X-27000Y192430D02*
D03*
X-16840Y169570D02*
D03*
X323214Y368268D02*
D03*
X333374Y391128D02*
D03*
X343534Y368268D02*
D03*
X344678Y630682D02*
D03*
X354838Y653542D02*
D03*
X364998Y630682D02*
D03*
X-167640Y451612D02*
D03*
X-157480Y474472D02*
D03*
X-147320Y451612D02*
D03*
X354840Y765570D02*
D03*
X365000Y788430D02*
D03*
X375160Y765570D02*
D03*
D153*
X-72000Y740500D02*
D03*
Y708000D02*
D03*
X-42000Y708500D02*
D03*
Y741000D02*
D03*
D154*
X49000Y380015D02*
D03*
Y393985D02*
D03*
D155*
X241046Y594326D02*
D03*
X241076Y619386D02*
D03*
X-53594Y633696D02*
D03*
X-53564Y658756D02*
D03*
D156*
X30000Y47000D02*
D03*
D157*
X36000Y37000D02*
D03*
D158*
X76000Y915500D02*
D03*
X-20000Y872000D02*
D03*
D159*
X66000Y909500D02*
D03*
X-30000Y866000D02*
D03*
D160*
X30000Y718500D02*
D03*
Y735500D02*
D03*
X7000Y718500D02*
D03*
Y735500D02*
D03*
D161*
X194000Y568300D02*
D03*
Y589700D02*
D03*
D162*
X210500Y229500D02*
D03*
Y236000D02*
D03*
Y242500D02*
D03*
Y249000D02*
D03*
Y255500D02*
D03*
Y262000D02*
D03*
Y268500D02*
D03*
X151500D02*
D03*
Y262000D02*
D03*
Y255500D02*
D03*
Y249000D02*
D03*
Y242500D02*
D03*
Y236000D02*
D03*
Y229500D02*
D03*
D163*
X200500Y278500D02*
D03*
X194000D02*
D03*
X187500D02*
D03*
X181000D02*
D03*
X174500D02*
D03*
X168000D02*
D03*
X161500D02*
D03*
Y219500D02*
D03*
X168000D02*
D03*
X174500D02*
D03*
X181000D02*
D03*
X187500D02*
D03*
X194000D02*
D03*
X200500D02*
D03*
D164*
X78500Y462500D02*
D03*
Y457500D02*
D03*
Y452500D02*
D03*
Y447500D02*
D03*
Y442500D02*
D03*
Y437500D02*
D03*
Y432500D02*
D03*
Y427500D02*
D03*
Y422500D02*
D03*
Y417500D02*
D03*
Y412500D02*
D03*
Y407500D02*
D03*
Y402500D02*
D03*
Y397500D02*
D03*
Y392500D02*
D03*
Y387500D02*
D03*
X193500D02*
D03*
Y392500D02*
D03*
Y397500D02*
D03*
Y402500D02*
D03*
Y407500D02*
D03*
Y412500D02*
D03*
Y417500D02*
D03*
Y422500D02*
D03*
Y427500D02*
D03*
Y432500D02*
D03*
Y437500D02*
D03*
Y442500D02*
D03*
Y447500D02*
D03*
Y452500D02*
D03*
Y457500D02*
D03*
Y462500D02*
D03*
D165*
X98500Y367500D02*
D03*
X103500D02*
D03*
X108500D02*
D03*
X113500D02*
D03*
X118500D02*
D03*
X123500D02*
D03*
X128500D02*
D03*
X133500D02*
D03*
X138500D02*
D03*
X143500D02*
D03*
X148500D02*
D03*
X153500D02*
D03*
X158500D02*
D03*
X163500D02*
D03*
X168500D02*
D03*
X173500D02*
D03*
Y482500D02*
D03*
X168500D02*
D03*
X163500D02*
D03*
X158500D02*
D03*
X153500D02*
D03*
X148500D02*
D03*
X143500D02*
D03*
X138500D02*
D03*
X133500D02*
D03*
X128500D02*
D03*
X123500D02*
D03*
X118500D02*
D03*
X113500D02*
D03*
X108500D02*
D03*
X103500D02*
D03*
X98500D02*
D03*
M02*
