G04 Layer_Color=32768*
%FSLAX44Y44*%
%MOMM*%
G71*
G01*
G75*
%ADD15R,2.0000X0.8000*%
%ADD16R,0.6500X0.6500*%
%ADD18R,0.6500X0.6500*%
%ADD20R,2.0000X1.2000*%
%ADD21R,1.9600X1.9600*%
%ADD22R,1.5700X1.5700*%
%ADD23R,1.0500X1.0000*%
%ADD24R,2.2000X1.0500*%
%ADD25R,1.9600X1.9600*%
%ADD26R,1.5700X1.5700*%
%ADD27C,0.2300*%
%ADD29R,1.4000X0.6000*%
G04:AMPARAMS|DCode=31|XSize=1.2mm|YSize=2.3mm|CornerRadius=0mm|HoleSize=0mm|Usage=FLASHONLY|Rotation=90.000|XOffset=0mm|YOffset=0mm|HoleType=Round|Shape=Octagon|*
%AMOCTAGOND31*
4,1,8,-1.1500,-0.3000,-1.1500,0.3000,-0.8500,0.6000,0.8500,0.6000,1.1500,0.3000,1.1500,-0.3000,0.8500,-0.6000,-0.8500,-0.6000,-1.1500,-0.3000,0.0*
%
%ADD31OCTAGOND31*%

%ADD32R,2.5000X1.2000*%
%ADD33R,1.2000X2.5000*%
G04:AMPARAMS|DCode=34|XSize=1.2mm|YSize=2.3mm|CornerRadius=0mm|HoleSize=0mm|Usage=FLASHONLY|Rotation=180.000|XOffset=0mm|YOffset=0mm|HoleType=Round|Shape=Octagon|*
%AMOCTAGOND34*
4,1,8,0.3000,-1.1500,-0.3000,-1.1500,-0.6000,-0.8500,-0.6000,0.8500,-0.3000,1.1500,0.3000,1.1500,0.6000,0.8500,0.6000,-0.8500,0.3000,-1.1500,0.0*
%
%ADD34OCTAGOND34*%

G04:AMPARAMS|DCode=35|XSize=1.2mm|YSize=2.2mm|CornerRadius=0mm|HoleSize=0mm|Usage=FLASHONLY|Rotation=180.000|XOffset=0mm|YOffset=0mm|HoleType=Round|Shape=Octagon|*
%AMOCTAGOND35*
4,1,8,0.3000,-1.1000,-0.3000,-1.1000,-0.6000,-0.8000,-0.6000,0.8000,-0.3000,1.1000,0.3000,1.1000,0.6000,0.8000,0.6000,-0.8000,0.3000,-1.1000,0.0*
%
%ADD35OCTAGOND35*%

%ADD36R,0.8890X1.2700*%
%ADD37R,1.5000X0.6000*%
%ADD39R,0.6096X0.5842*%
%ADD40R,0.5842X0.6096*%
%ADD41R,0.7620X0.7620*%
%ADD42R,1.0200X0.7600*%
%ADD43R,0.6300X0.6500*%
G04:AMPARAMS|DCode=44|XSize=0.63mm|YSize=0.65mm|CornerRadius=0mm|HoleSize=0mm|Usage=FLASHONLY|Rotation=180.000|XOffset=0mm|YOffset=0mm|HoleType=Round|Shape=Octagon|*
%AMOCTAGOND44*
4,1,8,0.1575,-0.3250,-0.1575,-0.3250,-0.3150,-0.1675,-0.3150,0.1675,-0.1575,0.3250,0.1575,0.3250,0.3150,0.1675,0.3150,-0.1675,0.1575,-0.3250,0.0*
%
%ADD44OCTAGOND44*%

%ADD45R,0.6500X0.6300*%
G04:AMPARAMS|DCode=46|XSize=0.63mm|YSize=0.65mm|CornerRadius=0mm|HoleSize=0mm|Usage=FLASHONLY|Rotation=90.000|XOffset=0mm|YOffset=0mm|HoleType=Round|Shape=Octagon|*
%AMOCTAGOND46*
4,1,8,-0.3250,-0.1575,-0.3250,0.1575,-0.1675,0.3150,0.1675,0.3150,0.3250,0.1575,0.3250,-0.1575,0.1675,-0.3150,-0.1675,-0.3150,-0.3250,-0.1575,0.0*
%
%ADD46OCTAGOND46*%

%ADD50R,0.5400X0.8600*%
%ADD54R,1.2000X0.3000*%
%ADD55R,0.3000X1.2000*%
%ADD58C,0.2000*%
%ADD66C,1.5000*%
%ADD68R,1.5000X1.5000*%
%ADD69C,1.8000*%
%ADD70P,1.9483X8X292.5*%
%ADD71C,1.5240*%
%ADD72C,1.3000*%
%ADD73O,1.3970X1.7780*%
%ADD74R,1.3970X1.7780*%
%ADD77P,1.9483X8X22.5*%
%ADD78C,10.0000*%
%ADD79C,1.0500*%
%ADD80P,1.1365X8X292.5*%
%ADD81C,1.5748*%
%ADD166R,0.7500X0.7500*%
%ADD167R,1.2000X3.4000*%
%ADD168R,0.7500X0.7500*%
%ADD169R,1.4000X1.4000*%
%ADD170R,1.2000X0.7500*%
%ADD171R,0.5000X0.9500*%
%ADD172C,1.3700*%
%ADD173R,1.1000X1.2000*%
%ADD174R,1.0000X1.0000*%
%ADD175R,1.0000X1.0000*%
%ADD176R,4.7000X4.7000*%
%ADD177R,0.9000X0.4000*%
%ADD178R,0.4000X0.9000*%
%ADD179C,1.6000*%
G04:AMPARAMS|DCode=180|XSize=1.6mm|YSize=1.6mm|CornerRadius=0.125mm|HoleSize=0mm|Usage=FLASHONLY|Rotation=90.000|XOffset=0mm|YOffset=0mm|HoleType=Round|Shape=RoundedRectangle|*
%AMROUNDEDRECTD180*
21,1,1.6000,1.3500,0,0,90.0*
21,1,1.3500,1.6000,0,0,90.0*
1,1,0.2500,0.6750,0.6750*
1,1,0.2500,0.6750,-0.6750*
1,1,0.2500,-0.6750,-0.6750*
1,1,0.2500,-0.6750,0.6750*
%
%ADD180ROUNDEDRECTD180*%
G04:AMPARAMS|DCode=181|XSize=1.8mm|YSize=1.8mm|CornerRadius=0.22mm|HoleSize=0mm|Usage=FLASHONLY|Rotation=0.000|XOffset=0mm|YOffset=0mm|HoleType=Round|Shape=RoundedRectangle|*
%AMROUNDEDRECTD181*
21,1,1.8000,1.3600,0,0,0.0*
21,1,1.3600,1.8000,0,0,0.0*
1,1,0.4400,0.6800,-0.6800*
1,1,0.4400,-0.6800,-0.6800*
1,1,0.4400,-0.6800,0.6800*
1,1,0.4400,0.6800,0.6800*
%
%ADD181ROUNDEDRECTD181*%
G36*
X236366Y615026D02*
X236276D01*
X232806Y611556D01*
X225026D01*
X225046Y611576D01*
Y620816D01*
X228416Y624186D01*
X235006D01*
X236366Y615026D01*
D02*
G37*
G36*
X257146Y620836D02*
Y611596D01*
X257166Y611576D01*
X249386D01*
X245916Y615046D01*
X245826D01*
X247186Y624206D01*
X253776D01*
X257146Y620836D01*
D02*
G37*
G36*
X236206Y598666D02*
X236296D01*
X234936Y589506D01*
X228346D01*
X224976Y592876D01*
Y602116D01*
X224956Y602136D01*
X232736D01*
X236206Y598666D01*
D02*
G37*
G36*
X257076Y602136D02*
Y592896D01*
X253706Y589526D01*
X247116D01*
X245756Y598686D01*
X245846D01*
X249316Y602156D01*
X257096D01*
X257076Y602136D01*
D02*
G37*
G36*
X-58274Y654396D02*
X-58364D01*
X-61834Y650926D01*
X-69614D01*
X-69594Y650946D01*
Y660186D01*
X-66224Y663556D01*
X-59634D01*
X-58274Y654396D01*
D02*
G37*
G36*
X-37494Y660206D02*
Y650966D01*
X-37474Y650946D01*
X-45254D01*
X-48724Y654416D01*
X-48814D01*
X-47454Y663576D01*
X-40864D01*
X-37494Y660206D01*
D02*
G37*
G36*
X-58434Y638036D02*
X-58344D01*
X-59704Y628876D01*
X-66294D01*
X-69664Y632246D01*
Y641486D01*
X-69684Y641506D01*
X-61904D01*
X-58434Y638036D01*
D02*
G37*
G36*
X-37564Y641506D02*
Y632266D01*
X-40934Y628896D01*
X-47524D01*
X-48884Y638056D01*
X-48794D01*
X-45324Y641526D01*
X-37544D01*
X-37564Y641506D01*
D02*
G37*
D15*
X-53594Y598330D02*
D03*
Y618330D02*
D03*
X241300Y577436D02*
D03*
Y557436D02*
D03*
D16*
X42000Y47000D02*
D03*
D18*
X76000Y903500D02*
D03*
X-20000Y860000D02*
D03*
D20*
X284000Y290000D02*
D03*
X247000D02*
D03*
Y312000D02*
D03*
X284000D02*
D03*
D21*
X324800Y72200D02*
D03*
X373200D02*
D03*
X324800Y23800D02*
D03*
X373200D02*
D03*
D22*
X349000Y48000D02*
D03*
D23*
X244Y858520D02*
D03*
X-16246Y47008D02*
D03*
D24*
X15494Y843770D02*
D03*
Y873270D02*
D03*
X-31496Y61758D02*
D03*
Y32258D02*
D03*
D25*
X-168200Y719800D02*
D03*
Y768200D02*
D03*
X-119800Y719800D02*
D03*
Y768200D02*
D03*
D26*
X-144000Y744000D02*
D03*
D27*
X-13748Y594932D02*
D03*
X-17748D02*
D03*
X-13748Y598932D02*
D03*
X-17748D02*
D03*
X-13748Y602932D02*
D03*
X-17748D02*
D03*
X276718Y553466D02*
D03*
X272718D02*
D03*
X276718Y557466D02*
D03*
X272718D02*
D03*
X276718Y561466D02*
D03*
X272718D02*
D03*
D29*
X30700Y352000D02*
D03*
Y339300D02*
D03*
Y326600D02*
D03*
Y313900D02*
D03*
Y301200D02*
D03*
Y288500D02*
D03*
Y275800D02*
D03*
Y263100D02*
D03*
X-62000D02*
D03*
Y275800D02*
D03*
Y288500D02*
D03*
Y301200D02*
D03*
Y313900D02*
D03*
Y326600D02*
D03*
Y339300D02*
D03*
Y352000D02*
D03*
D31*
X295210Y854070D02*
D03*
Y694070D02*
D03*
D32*
X294210Y834070D02*
D03*
Y814070D02*
D03*
Y754070D02*
D03*
Y794070D02*
D03*
Y734070D02*
D03*
Y714070D02*
D03*
D33*
X236710Y871570D02*
D03*
X256710D02*
D03*
X216710D02*
D03*
X236710Y676570D02*
D03*
X216710D02*
D03*
X256710D02*
D03*
X176710Y871570D02*
D03*
X196710D02*
D03*
X156710D02*
D03*
X76710D02*
D03*
X96710D02*
D03*
X56710D02*
D03*
X136710D02*
D03*
X116710D02*
D03*
X136710Y676570D02*
D03*
X156710D02*
D03*
X116710D02*
D03*
X196710D02*
D03*
X176710D02*
D03*
X56710D02*
D03*
X96710D02*
D03*
X76710D02*
D03*
D34*
X276710Y872570D02*
D03*
D35*
X276710Y675570D02*
D03*
D36*
X-37160Y169570D02*
D03*
X-27000Y192430D02*
D03*
X-16840Y169570D02*
D03*
X323214Y368268D02*
D03*
X333374Y391128D02*
D03*
X343534Y368268D02*
D03*
X344678Y630682D02*
D03*
X354838Y653542D02*
D03*
X364998Y630682D02*
D03*
X-167640Y451612D02*
D03*
X-157480Y474472D02*
D03*
X-147320Y451612D02*
D03*
X354840Y765570D02*
D03*
X365000Y788430D02*
D03*
X375160Y765570D02*
D03*
D37*
X-72000Y740500D02*
D03*
Y708000D02*
D03*
X-42000Y708500D02*
D03*
Y741000D02*
D03*
D39*
X-13732Y563880D02*
D03*
X-23892D02*
D03*
X-3572Y574548D02*
D03*
X-13732D02*
D03*
X474234Y680974D02*
D03*
X484394D02*
D03*
X473218Y634492D02*
D03*
X483378D02*
D03*
X471440Y589026D02*
D03*
X481600D02*
D03*
X365506Y686816D02*
D03*
X355346D02*
D03*
X45160Y-22606D02*
D03*
X35000D02*
D03*
Y21270D02*
D03*
X45160D02*
D03*
X276082Y517398D02*
D03*
X265922D02*
D03*
X286242Y527558D02*
D03*
X276082D02*
D03*
X76160Y974750D02*
D03*
X66000D02*
D03*
X65840Y932688D02*
D03*
X76000D02*
D03*
D40*
X279400Y451866D02*
D03*
Y441706D02*
D03*
X479552Y704088D02*
D03*
Y693928D02*
D03*
Y657860D02*
D03*
Y647700D02*
D03*
X480568Y612394D02*
D03*
Y602234D02*
D03*
X35000Y-3660D02*
D03*
Y6500D02*
D03*
X-31000Y141840D02*
D03*
Y152000D02*
D03*
X-17000Y141840D02*
D03*
Y152000D02*
D03*
X212000Y574840D02*
D03*
Y585000D02*
D03*
X-3000Y141840D02*
D03*
Y152000D02*
D03*
X74000Y575840D02*
D03*
Y586000D02*
D03*
X99000Y575840D02*
D03*
Y586000D02*
D03*
X125000Y575840D02*
D03*
Y586000D02*
D03*
X126000Y540160D02*
D03*
Y530000D02*
D03*
X150000Y575840D02*
D03*
Y586000D02*
D03*
X201000Y540840D02*
D03*
Y551000D02*
D03*
X150000Y548840D02*
D03*
Y559000D02*
D03*
X-22000Y738160D02*
D03*
Y728000D02*
D03*
X355374Y340538D02*
D03*
Y350698D02*
D03*
X325374Y340538D02*
D03*
Y350698D02*
D03*
X340374Y340538D02*
D03*
Y350698D02*
D03*
X378968Y602742D02*
D03*
Y612902D02*
D03*
X348488Y602488D02*
D03*
Y612648D02*
D03*
X364668Y602462D02*
D03*
Y612622D02*
D03*
X30000Y700160D02*
D03*
Y690000D02*
D03*
X7000Y700160D02*
D03*
Y690000D02*
D03*
X-134000Y428840D02*
D03*
Y439000D02*
D03*
X-149000Y428840D02*
D03*
Y439000D02*
D03*
X388000Y737840D02*
D03*
Y748000D02*
D03*
X-163000Y428840D02*
D03*
Y439000D02*
D03*
X76000Y948840D02*
D03*
Y959000D02*
D03*
X359000Y737840D02*
D03*
Y748000D02*
D03*
X374000Y737840D02*
D03*
Y748000D02*
D03*
D41*
X49000Y380015D02*
D03*
Y393985D02*
D03*
D42*
X241046Y594326D02*
D03*
X241076Y619386D02*
D03*
X-53594Y633696D02*
D03*
X-53564Y658756D02*
D03*
D43*
X30000Y47000D02*
D03*
D44*
X36000Y37000D02*
D03*
D45*
X76000Y915500D02*
D03*
X-20000Y872000D02*
D03*
D46*
X66000Y909500D02*
D03*
X-30000Y866000D02*
D03*
D50*
X194000Y568300D02*
D03*
Y589700D02*
D03*
D54*
X78500Y462500D02*
D03*
Y457500D02*
D03*
Y452500D02*
D03*
Y447500D02*
D03*
Y442500D02*
D03*
Y437500D02*
D03*
Y432500D02*
D03*
Y427500D02*
D03*
Y422500D02*
D03*
Y417500D02*
D03*
Y412500D02*
D03*
Y407500D02*
D03*
Y402500D02*
D03*
Y397500D02*
D03*
Y392500D02*
D03*
Y387500D02*
D03*
X193500D02*
D03*
Y392500D02*
D03*
Y397500D02*
D03*
Y402500D02*
D03*
Y407500D02*
D03*
Y412500D02*
D03*
Y417500D02*
D03*
Y422500D02*
D03*
Y427500D02*
D03*
Y432500D02*
D03*
Y437500D02*
D03*
Y442500D02*
D03*
Y447500D02*
D03*
Y452500D02*
D03*
Y457500D02*
D03*
Y462500D02*
D03*
D55*
X98500Y367500D02*
D03*
X103500D02*
D03*
X108500D02*
D03*
X113500D02*
D03*
X118500D02*
D03*
X123500D02*
D03*
X128500D02*
D03*
X133500D02*
D03*
X138500D02*
D03*
X143500D02*
D03*
X148500D02*
D03*
X153500D02*
D03*
X158500D02*
D03*
X163500D02*
D03*
X168500D02*
D03*
X173500D02*
D03*
Y482500D02*
D03*
X168500D02*
D03*
X163500D02*
D03*
X158500D02*
D03*
X153500D02*
D03*
X148500D02*
D03*
X143500D02*
D03*
X138500D02*
D03*
X133500D02*
D03*
X128500D02*
D03*
X123500D02*
D03*
X118500D02*
D03*
X113500D02*
D03*
X108500D02*
D03*
X103500D02*
D03*
X98500D02*
D03*
D58*
X520000Y930000D02*
G03*
X510000Y940000I-10000J0D01*
G01*
Y0D02*
G03*
X520000Y10000I0J10000D01*
G01*
X-180000D02*
G03*
X-170000Y0I10000J0D01*
G01*
Y940000D02*
G03*
X-180000Y930000I0J-10000D01*
G01*
X0Y-85000D02*
X340000D01*
X0Y1025000D02*
X340000D01*
X0Y940000D02*
Y1025000D01*
X340000Y940000D02*
Y1025000D01*
Y-85000D02*
Y0D01*
X0Y-85000D02*
Y0D01*
X-165000D02*
X0D01*
X-170000Y940000D02*
X0D01*
X-180000Y10000D02*
Y930000D01*
X340000Y940000D02*
X505000D01*
X340000Y0D02*
X505000D01*
X520000Y10000D02*
Y930000D01*
X505000Y940000D02*
X510000D01*
X505000Y0D02*
X510000D01*
X-170000D02*
X-165000D01*
D66*
X-85800Y513000D02*
D03*
X-111200D02*
D03*
X-136600D02*
D03*
X432562Y786384D02*
D03*
X457962Y760984D02*
D03*
Y786384D02*
D03*
X483362Y760984D02*
D03*
Y786384D02*
D03*
X-137400Y565000D02*
D03*
X-162800D02*
D03*
X278384Y476758D02*
D03*
X303784D02*
D03*
D68*
X-162000Y513000D02*
D03*
X432562Y760984D02*
D03*
X-112000Y565000D02*
D03*
X252984Y476758D02*
D03*
D69*
X21082Y555752D02*
D03*
X332740Y736854D02*
D03*
X51400Y184000D02*
D03*
X201550Y902750D02*
D03*
X176150D02*
D03*
X332486Y315468D02*
D03*
X42418Y511556D02*
D03*
X-64000Y149600D02*
D03*
X-89000Y432600D02*
D03*
X344678Y560324D02*
D03*
X-91440Y652780D02*
D03*
X336600Y845600D02*
D03*
X362000D02*
D03*
X336600Y871000D02*
D03*
X362000Y820200D02*
D03*
X336600D02*
D03*
D70*
X21082Y581152D02*
D03*
X332740Y762254D02*
D03*
X332486Y290068D02*
D03*
X-64000Y175000D02*
D03*
X-89000Y458000D02*
D03*
X344678Y534924D02*
D03*
X-91440Y627380D02*
D03*
D71*
X431038Y378206D02*
D03*
Y403606D02*
D03*
Y429006D02*
D03*
Y454406D02*
D03*
Y479806D02*
D03*
Y505206D02*
D03*
Y530606D02*
D03*
Y556006D02*
D03*
X381038Y378206D02*
D03*
Y403606D02*
D03*
Y429006D02*
D03*
Y454406D02*
D03*
Y479806D02*
D03*
Y505206D02*
D03*
Y530606D02*
D03*
Y556006D02*
D03*
X432016Y142494D02*
D03*
Y167894D02*
D03*
Y193294D02*
D03*
Y218694D02*
D03*
Y244094D02*
D03*
Y269494D02*
D03*
Y294894D02*
D03*
Y320294D02*
D03*
X382016Y142494D02*
D03*
Y167894D02*
D03*
Y193294D02*
D03*
Y218694D02*
D03*
Y244094D02*
D03*
Y269494D02*
D03*
Y294894D02*
D03*
Y320294D02*
D03*
D72*
X-149860Y627794D02*
D03*
Y647794D02*
D03*
D73*
X150200Y615000D02*
D03*
X99400D02*
D03*
X175600D02*
D03*
X124800D02*
D03*
X74000D02*
D03*
D74*
X201000D02*
D03*
D77*
X150750Y902750D02*
D03*
X17018Y511556D02*
D03*
X362000Y871000D02*
D03*
D78*
X461000Y62500D02*
D03*
X-121000D02*
D03*
X461000Y877500D02*
D03*
X-121000D02*
D03*
D79*
X-22720Y800000D02*
D03*
X-10020D02*
D03*
X2680D02*
D03*
X15380D02*
D03*
X-22720Y787300D02*
D03*
X-10020D02*
D03*
X2680D02*
D03*
X15380D02*
D03*
X28080D02*
D03*
D80*
Y800000D02*
D03*
D81*
X-14000Y415000D02*
D03*
Y463800D02*
D03*
D166*
X249050Y-64770D02*
D03*
X238050D02*
D03*
X240800Y1004570D02*
D03*
X229800D02*
D03*
X16500Y380000D02*
D03*
X27500D02*
D03*
X-58840Y414908D02*
D03*
X-48680D02*
D03*
X-58840Y463800D02*
D03*
X-47840D02*
D03*
X99988Y243078D02*
D03*
X88988D02*
D03*
X130976Y249936D02*
D03*
X119976D02*
D03*
X100242Y255270D02*
D03*
X89242D02*
D03*
X128778Y264922D02*
D03*
X117778D02*
D03*
X45500Y205000D02*
D03*
X34500D02*
D03*
X75500Y127000D02*
D03*
X64500D02*
D03*
X15500Y153000D02*
D03*
X26500D02*
D03*
X64500Y94000D02*
D03*
X75500D02*
D03*
X64500Y116000D02*
D03*
X75500D02*
D03*
Y105000D02*
D03*
X64500D02*
D03*
X78500Y47000D02*
D03*
X67500D02*
D03*
X282500Y48000D02*
D03*
X293500D02*
D03*
X126500Y227000D02*
D03*
X115500D02*
D03*
X216500Y198000D02*
D03*
X227500D02*
D03*
X136500Y166000D02*
D03*
X125500D02*
D03*
X-13628Y584200D02*
D03*
X-2628D02*
D03*
X16500Y395000D02*
D03*
X27500D02*
D03*
X275932Y538226D02*
D03*
X286932D02*
D03*
X247500Y227000D02*
D03*
X236500D02*
D03*
X251500Y275000D02*
D03*
X240500D02*
D03*
X283500Y83000D02*
D03*
X272500D02*
D03*
X271500Y208000D02*
D03*
X260500D02*
D03*
X217500Y102000D02*
D03*
X228500D02*
D03*
X217500Y134000D02*
D03*
X228500D02*
D03*
X217500Y166000D02*
D03*
X228500D02*
D03*
X227500Y84000D02*
D03*
X216500D02*
D03*
X164500Y348000D02*
D03*
X175500D02*
D03*
X75500Y83000D02*
D03*
X64500D02*
D03*
X87500Y216000D02*
D03*
X98500D02*
D03*
X136500Y121000D02*
D03*
X125500D02*
D03*
X136500Y155000D02*
D03*
X125500D02*
D03*
Y199000D02*
D03*
X136500D02*
D03*
X176500Y115000D02*
D03*
X187500D02*
D03*
X251500Y264000D02*
D03*
X240500D02*
D03*
X247500Y239000D02*
D03*
X236500D02*
D03*
X247500Y250000D02*
D03*
X236500D02*
D03*
X-31900Y671163D02*
D03*
X-20900D02*
D03*
X272376Y633730D02*
D03*
X283376D02*
D03*
D167*
X113000Y1005000D02*
D03*
X213000D02*
D03*
X221250Y-64750D02*
D03*
X121250D02*
D03*
D168*
X318500Y783250D02*
D03*
Y794250D02*
D03*
X98000Y155500D02*
D03*
Y166500D02*
D03*
X261000Y165500D02*
D03*
Y176500D02*
D03*
X225000Y216500D02*
D03*
Y227500D02*
D03*
X229000Y123500D02*
D03*
Y112500D02*
D03*
Y155500D02*
D03*
Y144500D02*
D03*
X228000Y187500D02*
D03*
Y176500D02*
D03*
X125000Y144500D02*
D03*
Y133500D02*
D03*
X147000Y187500D02*
D03*
Y176500D02*
D03*
X195000Y186500D02*
D03*
Y197500D02*
D03*
X36068Y131660D02*
D03*
Y142660D02*
D03*
X159000Y186500D02*
D03*
Y197500D02*
D03*
X85000Y354500D02*
D03*
Y343500D02*
D03*
X304000Y301500D02*
D03*
Y312500D02*
D03*
X56000Y58500D02*
D03*
Y47500D02*
D03*
X89000Y36500D02*
D03*
Y47500D02*
D03*
X136144Y67652D02*
D03*
Y78652D02*
D03*
X51000Y152500D02*
D03*
Y163500D02*
D03*
X305000Y36500D02*
D03*
Y47500D02*
D03*
X271000Y36500D02*
D03*
Y47500D02*
D03*
X254000Y60500D02*
D03*
Y71500D02*
D03*
X261000Y144500D02*
D03*
Y155500D02*
D03*
Y186500D02*
D03*
Y197500D02*
D03*
X181000Y186500D02*
D03*
Y197500D02*
D03*
X217000Y112500D02*
D03*
Y123500D02*
D03*
Y144500D02*
D03*
Y155500D02*
D03*
X206000Y186500D02*
D03*
Y197500D02*
D03*
X91000Y519500D02*
D03*
Y508500D02*
D03*
X170000Y186500D02*
D03*
Y197500D02*
D03*
X216000Y471500D02*
D03*
Y482500D02*
D03*
X140000Y271500D02*
D03*
Y282500D02*
D03*
X104000Y61500D02*
D03*
Y72500D02*
D03*
X98000Y123500D02*
D03*
Y134500D02*
D03*
Y189500D02*
D03*
Y200500D02*
D03*
X137000Y216500D02*
D03*
Y227500D02*
D03*
X-22098Y701206D02*
D03*
Y690206D02*
D03*
X-93000Y735500D02*
D03*
Y724500D02*
D03*
X137000Y133500D02*
D03*
Y144500D02*
D03*
X136000Y176500D02*
D03*
Y187500D02*
D03*
X159000Y165500D02*
D03*
Y176500D02*
D03*
X195000Y164500D02*
D03*
Y175500D02*
D03*
D169*
X-115000Y449000D02*
D03*
Y431000D02*
D03*
X285750Y356726D02*
D03*
Y338726D02*
D03*
X-64000Y100000D02*
D03*
Y118000D02*
D03*
X306374Y356698D02*
D03*
Y338698D02*
D03*
X399288Y626220D02*
D03*
Y608220D02*
D03*
X398000Y697000D02*
D03*
Y715000D02*
D03*
D170*
X464312Y712978D02*
D03*
Y693978D02*
D03*
X440312D02*
D03*
Y703478D02*
D03*
Y712978D02*
D03*
X463982Y667328D02*
D03*
Y648328D02*
D03*
X439982D02*
D03*
Y657828D02*
D03*
Y667328D02*
D03*
X463820Y621354D02*
D03*
Y602354D02*
D03*
X439820D02*
D03*
Y611854D02*
D03*
Y621354D02*
D03*
X163000Y100500D02*
D03*
Y91000D02*
D03*
Y81500D02*
D03*
X187000D02*
D03*
Y100500D02*
D03*
D171*
X260500Y83500D02*
D03*
X254000D02*
D03*
X247500D02*
D03*
Y102500D02*
D03*
X254000D02*
D03*
X260500D02*
D03*
X110500Y83500D02*
D03*
X104000D02*
D03*
X97500D02*
D03*
Y102500D02*
D03*
X104000D02*
D03*
X110500D02*
D03*
D172*
X78000Y230000D02*
D03*
D173*
X30000Y718500D02*
D03*
Y735500D02*
D03*
X7000Y718500D02*
D03*
Y735500D02*
D03*
D174*
X24384Y601338D02*
D03*
Y616338D02*
D03*
X4930Y601592D02*
D03*
Y616592D02*
D03*
X267208Y338448D02*
D03*
Y353448D02*
D03*
X15000Y140500D02*
D03*
Y125500D02*
D03*
X295402Y553586D02*
D03*
Y568586D02*
D03*
X311912Y553586D02*
D03*
Y568586D02*
D03*
D175*
X-31376Y618236D02*
D03*
X-16376D02*
D03*
X268090Y578866D02*
D03*
X283090D02*
D03*
D176*
X181000Y249000D02*
D03*
D177*
X210500Y229500D02*
D03*
Y236000D02*
D03*
Y242500D02*
D03*
Y249000D02*
D03*
Y255500D02*
D03*
Y262000D02*
D03*
Y268500D02*
D03*
X151500D02*
D03*
Y262000D02*
D03*
Y255500D02*
D03*
Y249000D02*
D03*
Y242500D02*
D03*
Y236000D02*
D03*
Y229500D02*
D03*
D178*
X200500Y278500D02*
D03*
X194000D02*
D03*
X187500D02*
D03*
X181000D02*
D03*
X174500D02*
D03*
X168000D02*
D03*
X161500D02*
D03*
Y219500D02*
D03*
X168000D02*
D03*
X174500D02*
D03*
X181000D02*
D03*
X187500D02*
D03*
X194000D02*
D03*
X200500D02*
D03*
D179*
X-160400Y377600D02*
D03*
X-135000D02*
D03*
X-160400Y352200D02*
D03*
X-135000D02*
D03*
X-160400Y326800D02*
D03*
X-135000D02*
D03*
X-160400Y301400D02*
D03*
X-135000D02*
D03*
X-160400Y276000D02*
D03*
X-135000D02*
D03*
X-160400Y250600D02*
D03*
X-135000D02*
D03*
X-160400Y225200D02*
D03*
X-135000D02*
D03*
X-160400Y199800D02*
D03*
X-135000D02*
D03*
X-160400Y174400D02*
D03*
X-135000D02*
D03*
X-160400Y149000D02*
D03*
D180*
X-135000D02*
D03*
D181*
X26000Y184000D02*
D03*
M02*
