G04 Layer_Color=13875686*
%FSLAX44Y44*%
%MOMM*%
G71*
G01*
G75*
%ADD13C,0.2540*%
%ADD58C,0.2000*%
%ADD59C,0.5000*%
%ADD121C,0.0050*%
G36*
X-125938Y1210000D02*
X-132083D01*
Y1233090D01*
X-132118Y1233055D01*
X-132222Y1232951D01*
X-132431Y1232777D01*
X-132674Y1232569D01*
X-132986Y1232326D01*
X-133403Y1232014D01*
X-133820Y1231666D01*
X-134340Y1231319D01*
X-134896Y1230937D01*
X-135486Y1230555D01*
X-136146Y1230173D01*
X-136840Y1229791D01*
X-137570Y1229409D01*
X-138368Y1229062D01*
X-139167Y1228750D01*
X-140000Y1228437D01*
Y1234027D01*
X-139965D01*
X-139896Y1234062D01*
X-139757Y1234097D01*
X-139583Y1234166D01*
X-139340Y1234270D01*
X-139097Y1234375D01*
X-138785Y1234514D01*
X-138438Y1234687D01*
X-137674Y1235069D01*
X-136806Y1235590D01*
X-135833Y1236215D01*
X-134792Y1236979D01*
X-134757Y1237014D01*
X-134653Y1237083D01*
X-134514Y1237187D01*
X-134340Y1237361D01*
X-134097Y1237569D01*
X-133854Y1237847D01*
X-133576Y1238125D01*
X-133264Y1238472D01*
X-132604Y1239236D01*
X-131979Y1240104D01*
X-131389Y1241076D01*
X-131146Y1241597D01*
X-130938Y1242152D01*
X-125938D01*
Y1210000D01*
D02*
G37*
G36*
X-84410D02*
X-90556D01*
Y1216146D01*
X-84410D01*
Y1210000D01*
D02*
G37*
G36*
X-68612Y1242118D02*
X-68299D01*
X-67917Y1242048D01*
X-67466Y1241979D01*
X-66945Y1241875D01*
X-66390Y1241736D01*
X-65834Y1241562D01*
X-65244Y1241354D01*
X-64619Y1241076D01*
X-64029Y1240763D01*
X-63438Y1240382D01*
X-62848Y1239930D01*
X-62293Y1239409D01*
X-61772Y1238819D01*
X-61737Y1238784D01*
X-61633Y1238645D01*
X-61494Y1238402D01*
X-61286Y1238055D01*
X-61043Y1237638D01*
X-60765Y1237083D01*
X-60487Y1236458D01*
X-60209Y1235694D01*
X-59932Y1234861D01*
X-59619Y1233889D01*
X-59376Y1232812D01*
X-59133Y1231632D01*
X-58925Y1230347D01*
X-58786Y1228923D01*
X-58682Y1227396D01*
X-58647Y1225764D01*
Y1225729D01*
Y1225659D01*
Y1225521D01*
Y1225382D01*
Y1225139D01*
X-58682Y1224896D01*
Y1224618D01*
Y1224271D01*
X-58751Y1223541D01*
X-58820Y1222673D01*
X-58925Y1221736D01*
X-59029Y1220729D01*
X-59202Y1219653D01*
X-59411Y1218576D01*
X-59689Y1217465D01*
X-59966Y1216389D01*
X-60348Y1215382D01*
X-60765Y1214375D01*
X-61251Y1213472D01*
X-61807Y1212674D01*
X-61841Y1212639D01*
X-61911Y1212535D01*
X-62084Y1212361D01*
X-62293Y1212153D01*
X-62536Y1211910D01*
X-62883Y1211632D01*
X-63265Y1211354D01*
X-63682Y1211042D01*
X-64168Y1210729D01*
X-64723Y1210451D01*
X-65313Y1210174D01*
X-65973Y1209930D01*
X-66668Y1209722D01*
X-67431Y1209549D01*
X-68230Y1209444D01*
X-69063Y1209410D01*
X-69272D01*
X-69515Y1209444D01*
X-69827Y1209479D01*
X-70244Y1209514D01*
X-70695Y1209583D01*
X-71216Y1209722D01*
X-71772Y1209861D01*
X-72362Y1210035D01*
X-72952Y1210278D01*
X-73577Y1210590D01*
X-74202Y1210903D01*
X-74827Y1211319D01*
X-75452Y1211805D01*
X-76042Y1212361D01*
X-76598Y1212986D01*
X-76633Y1213021D01*
X-76702Y1213160D01*
X-76876Y1213368D01*
X-77049Y1213680D01*
X-77258Y1214097D01*
X-77501Y1214618D01*
X-77744Y1215243D01*
X-78022Y1215937D01*
X-78299Y1216771D01*
X-78542Y1217708D01*
X-78786Y1218750D01*
X-78994Y1219930D01*
X-79167Y1221215D01*
X-79306Y1222639D01*
X-79411Y1224166D01*
X-79445Y1225833D01*
Y1225868D01*
Y1225937D01*
Y1226076D01*
Y1226215D01*
Y1226458D01*
X-79411Y1226701D01*
Y1226979D01*
Y1227291D01*
X-79341Y1228055D01*
X-79272Y1228889D01*
X-79167Y1229826D01*
X-79063Y1230833D01*
X-78890Y1231909D01*
X-78681Y1232986D01*
X-78438Y1234062D01*
X-78126Y1235139D01*
X-77779Y1236180D01*
X-77362Y1237152D01*
X-76876Y1238055D01*
X-76320Y1238854D01*
X-76286Y1238888D01*
X-76181Y1238993D01*
X-76042Y1239166D01*
X-75834Y1239375D01*
X-75556Y1239618D01*
X-75244Y1239895D01*
X-74862Y1240208D01*
X-74445Y1240520D01*
X-73959Y1240798D01*
X-73404Y1241111D01*
X-72813Y1241388D01*
X-72154Y1241632D01*
X-71459Y1241840D01*
X-70695Y1242013D01*
X-69897Y1242118D01*
X-69063Y1242152D01*
X-68855D01*
X-68612Y1242118D01*
D02*
G37*
G36*
X-43716D02*
X-43404D01*
X-43022Y1242048D01*
X-42571Y1241979D01*
X-42050Y1241875D01*
X-41494Y1241736D01*
X-40939Y1241562D01*
X-40348Y1241354D01*
X-39723Y1241076D01*
X-39133Y1240763D01*
X-38543Y1240382D01*
X-37953Y1239930D01*
X-37397Y1239409D01*
X-36876Y1238819D01*
X-36841Y1238784D01*
X-36737Y1238645D01*
X-36598Y1238402D01*
X-36390Y1238055D01*
X-36147Y1237638D01*
X-35869Y1237083D01*
X-35591Y1236458D01*
X-35314Y1235694D01*
X-35036Y1234861D01*
X-34723Y1233889D01*
X-34480Y1232812D01*
X-34237Y1231632D01*
X-34029Y1230347D01*
X-33890Y1228923D01*
X-33786Y1227396D01*
X-33751Y1225764D01*
Y1225729D01*
Y1225659D01*
Y1225521D01*
Y1225382D01*
Y1225139D01*
X-33786Y1224896D01*
Y1224618D01*
Y1224271D01*
X-33856Y1223541D01*
X-33925Y1222673D01*
X-34029Y1221736D01*
X-34133Y1220729D01*
X-34307Y1219653D01*
X-34515Y1218576D01*
X-34793Y1217465D01*
X-35071Y1216389D01*
X-35453Y1215382D01*
X-35869Y1214375D01*
X-36355Y1213472D01*
X-36911Y1212674D01*
X-36946Y1212639D01*
X-37015Y1212535D01*
X-37189Y1212361D01*
X-37397Y1212153D01*
X-37640Y1211910D01*
X-37987Y1211632D01*
X-38369Y1211354D01*
X-38786Y1211042D01*
X-39272Y1210729D01*
X-39828Y1210451D01*
X-40418Y1210174D01*
X-41078Y1209930D01*
X-41772Y1209722D01*
X-42536Y1209549D01*
X-43334Y1209444D01*
X-44168Y1209410D01*
X-44376D01*
X-44619Y1209444D01*
X-44932Y1209479D01*
X-45348Y1209514D01*
X-45800Y1209583D01*
X-46321Y1209722D01*
X-46876Y1209861D01*
X-47466Y1210035D01*
X-48057Y1210278D01*
X-48682Y1210590D01*
X-49307Y1210903D01*
X-49932Y1211319D01*
X-50557Y1211805D01*
X-51147Y1212361D01*
X-51702Y1212986D01*
X-51737Y1213021D01*
X-51807Y1213160D01*
X-51980Y1213368D01*
X-52154Y1213680D01*
X-52362Y1214097D01*
X-52605Y1214618D01*
X-52848Y1215243D01*
X-53126Y1215937D01*
X-53404Y1216771D01*
X-53647Y1217708D01*
X-53890Y1218750D01*
X-54098Y1219930D01*
X-54272Y1221215D01*
X-54411Y1222639D01*
X-54515Y1224166D01*
X-54550Y1225833D01*
Y1225868D01*
Y1225937D01*
Y1226076D01*
Y1226215D01*
Y1226458D01*
X-54515Y1226701D01*
Y1226979D01*
Y1227291D01*
X-54446Y1228055D01*
X-54376Y1228889D01*
X-54272Y1229826D01*
X-54168Y1230833D01*
X-53994Y1231909D01*
X-53786Y1232986D01*
X-53543Y1234062D01*
X-53230Y1235139D01*
X-52883Y1236180D01*
X-52466Y1237152D01*
X-51980Y1238055D01*
X-51425Y1238854D01*
X-51390Y1238888D01*
X-51286Y1238993D01*
X-51147Y1239166D01*
X-50939Y1239375D01*
X-50661Y1239618D01*
X-50348Y1239895D01*
X-49966Y1240208D01*
X-49550Y1240520D01*
X-49064Y1240798D01*
X-48508Y1241111D01*
X-47918Y1241388D01*
X-47258Y1241632D01*
X-46564Y1241840D01*
X-45800Y1242013D01*
X-45001Y1242118D01*
X-44168Y1242152D01*
X-43959D01*
X-43716Y1242118D01*
D02*
G37*
G36*
X414340D02*
X414722Y1242083D01*
X415139Y1242013D01*
X415625Y1241944D01*
X416180Y1241875D01*
X417291Y1241562D01*
X417882Y1241388D01*
X418472Y1241145D01*
X419062Y1240902D01*
X419618Y1240555D01*
X420173Y1240208D01*
X420659Y1239791D01*
X420694Y1239757D01*
X420763Y1239687D01*
X420902Y1239548D01*
X421041Y1239375D01*
X421250Y1239132D01*
X421458Y1238854D01*
X421701Y1238541D01*
X421944Y1238194D01*
X422152Y1237777D01*
X422395Y1237326D01*
X422604Y1236840D01*
X422812Y1236319D01*
X422951Y1235764D01*
X423090Y1235173D01*
X423159Y1234548D01*
X423194Y1233889D01*
Y1233854D01*
Y1233784D01*
Y1233680D01*
Y1233507D01*
X423159Y1233333D01*
X423125Y1233090D01*
X423055Y1232569D01*
X422916Y1231944D01*
X422708Y1231284D01*
X422395Y1230590D01*
X422013Y1229930D01*
Y1229896D01*
X421944Y1229861D01*
X421805Y1229652D01*
X421527Y1229340D01*
X421180Y1228958D01*
X420729Y1228507D01*
X420173Y1228055D01*
X419513Y1227639D01*
X418784Y1227257D01*
X418819D01*
X418888Y1227222D01*
X419027Y1227153D01*
X419236Y1227048D01*
X419444Y1226944D01*
X419722Y1226805D01*
X420312Y1226458D01*
X420937Y1226007D01*
X421631Y1225486D01*
X422291Y1224861D01*
X422847Y1224132D01*
Y1224097D01*
X422916Y1224028D01*
X422986Y1223923D01*
X423055Y1223784D01*
X423159Y1223576D01*
X423298Y1223333D01*
X423402Y1223090D01*
X423541Y1222778D01*
X423784Y1222083D01*
X424027Y1221250D01*
X424166Y1220347D01*
X424236Y1219375D01*
Y1219340D01*
Y1219166D01*
X424201Y1218958D01*
Y1218646D01*
X424166Y1218264D01*
X424097Y1217847D01*
X423993Y1217361D01*
X423888Y1216840D01*
X423715Y1216250D01*
X423541Y1215694D01*
X423298Y1215069D01*
X423020Y1214479D01*
X422708Y1213889D01*
X422326Y1213299D01*
X421875Y1212743D01*
X421388Y1212188D01*
X421354Y1212153D01*
X421250Y1212083D01*
X421111Y1211944D01*
X420868Y1211771D01*
X420590Y1211528D01*
X420243Y1211319D01*
X419826Y1211042D01*
X419375Y1210799D01*
X418854Y1210555D01*
X418298Y1210278D01*
X417673Y1210069D01*
X417013Y1209861D01*
X416284Y1209653D01*
X415520Y1209514D01*
X414722Y1209444D01*
X413854Y1209410D01*
X413437D01*
X413125Y1209444D01*
X412743Y1209479D01*
X412326Y1209549D01*
X411840Y1209618D01*
X411319Y1209688D01*
X410139Y1209965D01*
X409548Y1210139D01*
X408923Y1210382D01*
X408333Y1210625D01*
X407708Y1210938D01*
X407118Y1211285D01*
X406562Y1211701D01*
X406527Y1211736D01*
X406423Y1211840D01*
X406250Y1211979D01*
X406041Y1212188D01*
X405764Y1212465D01*
X405486Y1212812D01*
X405173Y1213194D01*
X404861Y1213646D01*
X404548Y1214167D01*
X404236Y1214722D01*
X403958Y1215312D01*
X403680Y1215972D01*
X403472Y1216701D01*
X403298Y1217465D01*
X403194Y1218264D01*
X403159Y1219132D01*
Y1219166D01*
Y1219236D01*
Y1219375D01*
X403194Y1219583D01*
Y1219791D01*
X403229Y1220069D01*
X403333Y1220694D01*
X403472Y1221423D01*
X403715Y1222222D01*
X404027Y1223055D01*
X404444Y1223889D01*
Y1223923D01*
X404514Y1223993D01*
X404583Y1224097D01*
X404687Y1224236D01*
X405000Y1224653D01*
X405416Y1225139D01*
X406007Y1225659D01*
X406701Y1226250D01*
X407500Y1226771D01*
X408472Y1227257D01*
X408437D01*
X408368Y1227291D01*
X408264Y1227361D01*
X408090Y1227430D01*
X407673Y1227673D01*
X407152Y1227986D01*
X406597Y1228368D01*
X406041Y1228854D01*
X405486Y1229375D01*
X405034Y1230000D01*
Y1230034D01*
X405000Y1230069D01*
X404930Y1230173D01*
X404861Y1230312D01*
X404687Y1230659D01*
X404514Y1231146D01*
X404305Y1231736D01*
X404132Y1232396D01*
X403993Y1233125D01*
X403958Y1233889D01*
Y1233923D01*
Y1234062D01*
X403993Y1234236D01*
Y1234479D01*
X404027Y1234791D01*
X404097Y1235139D01*
X404166Y1235555D01*
X404271Y1235972D01*
X404409Y1236423D01*
X404583Y1236909D01*
X404757Y1237395D01*
X405000Y1237882D01*
X405312Y1238368D01*
X405625Y1238854D01*
X406007Y1239340D01*
X406458Y1239791D01*
X406493Y1239826D01*
X406562Y1239895D01*
X406736Y1240000D01*
X406909Y1240173D01*
X407187Y1240347D01*
X407500Y1240555D01*
X407847Y1240763D01*
X408298Y1240972D01*
X408750Y1241180D01*
X409305Y1241423D01*
X409896Y1241597D01*
X410521Y1241770D01*
X411215Y1241944D01*
X411944Y1242048D01*
X412743Y1242118D01*
X413576Y1242152D01*
X414027D01*
X414340Y1242118D01*
D02*
G37*
G36*
X394062Y1210000D02*
X387917D01*
Y1233090D01*
X387882Y1233055D01*
X387778Y1232951D01*
X387569Y1232777D01*
X387326Y1232569D01*
X387014Y1232326D01*
X386597Y1232014D01*
X386180Y1231666D01*
X385660Y1231319D01*
X385104Y1230937D01*
X384514Y1230555D01*
X383854Y1230173D01*
X383160Y1229791D01*
X382430Y1229409D01*
X381632Y1229062D01*
X380833Y1228750D01*
X380000Y1228437D01*
Y1234027D01*
X380035D01*
X380104Y1234062D01*
X380243Y1234097D01*
X380417Y1234166D01*
X380660Y1234270D01*
X380903Y1234375D01*
X381215Y1234514D01*
X381562Y1234687D01*
X382326Y1235069D01*
X383194Y1235590D01*
X384167Y1236215D01*
X385208Y1236979D01*
X385243Y1237014D01*
X385347Y1237083D01*
X385486Y1237187D01*
X385660Y1237361D01*
X385903Y1237569D01*
X386146Y1237847D01*
X386423Y1238125D01*
X386736Y1238472D01*
X387396Y1239236D01*
X388021Y1240104D01*
X388611Y1241076D01*
X388854Y1241597D01*
X389062Y1242152D01*
X394062D01*
Y1210000D01*
D02*
G37*
G36*
X435590D02*
X429444D01*
Y1216146D01*
X435590D01*
Y1210000D01*
D02*
G37*
G36*
X451388Y1242118D02*
X451701D01*
X452082Y1242048D01*
X452534Y1241979D01*
X453055Y1241875D01*
X453610Y1241736D01*
X454166Y1241562D01*
X454756Y1241354D01*
X455381Y1241076D01*
X455971Y1240763D01*
X456562Y1240382D01*
X457152Y1239930D01*
X457707Y1239409D01*
X458228Y1238819D01*
X458263Y1238784D01*
X458367Y1238645D01*
X458506Y1238402D01*
X458714Y1238055D01*
X458957Y1237638D01*
X459235Y1237083D01*
X459513Y1236458D01*
X459791Y1235694D01*
X460069Y1234861D01*
X460381Y1233889D01*
X460624Y1232812D01*
X460867Y1231632D01*
X461075Y1230347D01*
X461214Y1228923D01*
X461319Y1227396D01*
X461353Y1225764D01*
Y1225729D01*
Y1225659D01*
Y1225521D01*
Y1225382D01*
Y1225139D01*
X461319Y1224896D01*
Y1224618D01*
Y1224271D01*
X461249Y1223541D01*
X461180Y1222673D01*
X461075Y1221736D01*
X460971Y1220729D01*
X460798Y1219653D01*
X460589Y1218576D01*
X460312Y1217465D01*
X460034Y1216389D01*
X459652Y1215382D01*
X459235Y1214375D01*
X458749Y1213472D01*
X458194Y1212674D01*
X458159Y1212639D01*
X458089Y1212535D01*
X457916Y1212361D01*
X457707Y1212153D01*
X457464Y1211910D01*
X457117Y1211632D01*
X456735Y1211354D01*
X456319Y1211042D01*
X455832Y1210729D01*
X455277Y1210451D01*
X454687Y1210174D01*
X454027Y1209930D01*
X453332Y1209722D01*
X452569Y1209549D01*
X451770Y1209444D01*
X450937Y1209410D01*
X450728D01*
X450485Y1209444D01*
X450173Y1209479D01*
X449756Y1209514D01*
X449305Y1209583D01*
X448784Y1209722D01*
X448228Y1209861D01*
X447638Y1210035D01*
X447048Y1210278D01*
X446423Y1210590D01*
X445798Y1210903D01*
X445173Y1211319D01*
X444548Y1211805D01*
X443958Y1212361D01*
X443402Y1212986D01*
X443367Y1213021D01*
X443298Y1213160D01*
X443124Y1213368D01*
X442951Y1213680D01*
X442742Y1214097D01*
X442499Y1214618D01*
X442256Y1215243D01*
X441978Y1215937D01*
X441701Y1216771D01*
X441458Y1217708D01*
X441214Y1218750D01*
X441006Y1219930D01*
X440833Y1221215D01*
X440694Y1222639D01*
X440589Y1224166D01*
X440555Y1225833D01*
Y1225868D01*
Y1225937D01*
Y1226076D01*
Y1226215D01*
Y1226458D01*
X440589Y1226701D01*
Y1226979D01*
Y1227291D01*
X440659Y1228055D01*
X440728Y1228889D01*
X440833Y1229826D01*
X440937Y1230833D01*
X441110Y1231909D01*
X441319Y1232986D01*
X441562Y1234062D01*
X441874Y1235139D01*
X442221Y1236180D01*
X442638Y1237152D01*
X443124Y1238055D01*
X443680Y1238854D01*
X443714Y1238888D01*
X443819Y1238993D01*
X443958Y1239166D01*
X444166Y1239375D01*
X444444Y1239618D01*
X444756Y1239895D01*
X445138Y1240208D01*
X445555Y1240520D01*
X446041Y1240798D01*
X446596Y1241111D01*
X447187Y1241388D01*
X447846Y1241632D01*
X448541Y1241840D01*
X449305Y1242013D01*
X450103Y1242118D01*
X450937Y1242152D01*
X451145D01*
X451388Y1242118D01*
D02*
G37*
G36*
X476284D02*
X476596D01*
X476978Y1242048D01*
X477429Y1241979D01*
X477950Y1241875D01*
X478506Y1241736D01*
X479061Y1241562D01*
X479652Y1241354D01*
X480277Y1241076D01*
X480867Y1240763D01*
X481457Y1240382D01*
X482047Y1239930D01*
X482603Y1239409D01*
X483124Y1238819D01*
X483158Y1238784D01*
X483263Y1238645D01*
X483401Y1238402D01*
X483610Y1238055D01*
X483853Y1237638D01*
X484131Y1237083D01*
X484408Y1236458D01*
X484686Y1235694D01*
X484964Y1234861D01*
X485276Y1233889D01*
X485520Y1232812D01*
X485763Y1231632D01*
X485971Y1230347D01*
X486110Y1228923D01*
X486214Y1227396D01*
X486249Y1225764D01*
Y1225729D01*
Y1225659D01*
Y1225521D01*
Y1225382D01*
Y1225139D01*
X486214Y1224896D01*
Y1224618D01*
Y1224271D01*
X486144Y1223541D01*
X486075Y1222673D01*
X485971Y1221736D01*
X485867Y1220729D01*
X485693Y1219653D01*
X485485Y1218576D01*
X485207Y1217465D01*
X484929Y1216389D01*
X484547Y1215382D01*
X484131Y1214375D01*
X483645Y1213472D01*
X483089Y1212674D01*
X483054Y1212639D01*
X482985Y1212535D01*
X482811Y1212361D01*
X482603Y1212153D01*
X482360Y1211910D01*
X482013Y1211632D01*
X481631Y1211354D01*
X481214Y1211042D01*
X480728Y1210729D01*
X480172Y1210451D01*
X479582Y1210174D01*
X478922Y1209930D01*
X478228Y1209722D01*
X477464Y1209549D01*
X476665Y1209444D01*
X475832Y1209410D01*
X475624D01*
X475381Y1209444D01*
X475068Y1209479D01*
X474652Y1209514D01*
X474200Y1209583D01*
X473679Y1209722D01*
X473124Y1209861D01*
X472534Y1210035D01*
X471943Y1210278D01*
X471318Y1210590D01*
X470693Y1210903D01*
X470068Y1211319D01*
X469443Y1211805D01*
X468853Y1212361D01*
X468298Y1212986D01*
X468263Y1213021D01*
X468193Y1213160D01*
X468020Y1213368D01*
X467846Y1213680D01*
X467638Y1214097D01*
X467395Y1214618D01*
X467152Y1215243D01*
X466874Y1215937D01*
X466596Y1216771D01*
X466353Y1217708D01*
X466110Y1218750D01*
X465902Y1219930D01*
X465728Y1221215D01*
X465589Y1222639D01*
X465485Y1224166D01*
X465450Y1225833D01*
Y1225868D01*
Y1225937D01*
Y1226076D01*
Y1226215D01*
Y1226458D01*
X465485Y1226701D01*
Y1226979D01*
Y1227291D01*
X465555Y1228055D01*
X465624Y1228889D01*
X465728Y1229826D01*
X465832Y1230833D01*
X466006Y1231909D01*
X466214Y1232986D01*
X466457Y1234062D01*
X466770Y1235139D01*
X467117Y1236180D01*
X467534Y1237152D01*
X468020Y1238055D01*
X468575Y1238854D01*
X468610Y1238888D01*
X468714Y1238993D01*
X468853Y1239166D01*
X469061Y1239375D01*
X469339Y1239618D01*
X469652Y1239895D01*
X470034Y1240208D01*
X470450Y1240520D01*
X470936Y1240798D01*
X471492Y1241111D01*
X472082Y1241388D01*
X472742Y1241632D01*
X473436Y1241840D01*
X474200Y1242013D01*
X474999Y1242118D01*
X475832Y1242152D01*
X476040D01*
X476284Y1242118D01*
D02*
G37*
G36*
X-105660D02*
X-105278Y1242083D01*
X-104861Y1242013D01*
X-104375Y1241944D01*
X-103820Y1241875D01*
X-102709Y1241562D01*
X-102119Y1241388D01*
X-101528Y1241145D01*
X-100938Y1240902D01*
X-100382Y1240555D01*
X-99827Y1240208D01*
X-99341Y1239791D01*
X-99306Y1239757D01*
X-99237Y1239687D01*
X-99098Y1239548D01*
X-98959Y1239375D01*
X-98750Y1239132D01*
X-98542Y1238854D01*
X-98299Y1238541D01*
X-98056Y1238194D01*
X-97848Y1237777D01*
X-97605Y1237326D01*
X-97396Y1236840D01*
X-97188Y1236319D01*
X-97049Y1235764D01*
X-96910Y1235173D01*
X-96841Y1234548D01*
X-96806Y1233889D01*
Y1233854D01*
Y1233784D01*
Y1233680D01*
Y1233507D01*
X-96841Y1233333D01*
X-96875Y1233090D01*
X-96945Y1232569D01*
X-97084Y1231944D01*
X-97292Y1231284D01*
X-97605Y1230590D01*
X-97987Y1229930D01*
Y1229896D01*
X-98056Y1229861D01*
X-98195Y1229652D01*
X-98473Y1229340D01*
X-98820Y1228958D01*
X-99271Y1228507D01*
X-99827Y1228055D01*
X-100487Y1227639D01*
X-101216Y1227257D01*
X-101181D01*
X-101112Y1227222D01*
X-100973Y1227153D01*
X-100764Y1227048D01*
X-100556Y1226944D01*
X-100278Y1226805D01*
X-99688Y1226458D01*
X-99063Y1226007D01*
X-98369Y1225486D01*
X-97709Y1224861D01*
X-97153Y1224132D01*
Y1224097D01*
X-97084Y1224028D01*
X-97014Y1223923D01*
X-96945Y1223784D01*
X-96841Y1223576D01*
X-96702Y1223333D01*
X-96598Y1223090D01*
X-96459Y1222778D01*
X-96216Y1222083D01*
X-95973Y1221250D01*
X-95834Y1220347D01*
X-95764Y1219375D01*
Y1219340D01*
Y1219166D01*
X-95799Y1218958D01*
Y1218646D01*
X-95834Y1218264D01*
X-95903Y1217847D01*
X-96007Y1217361D01*
X-96112Y1216840D01*
X-96285Y1216250D01*
X-96459Y1215694D01*
X-96702Y1215069D01*
X-96980Y1214479D01*
X-97292Y1213889D01*
X-97674Y1213299D01*
X-98125Y1212743D01*
X-98612Y1212188D01*
X-98646Y1212153D01*
X-98750Y1212083D01*
X-98889Y1211944D01*
X-99132Y1211771D01*
X-99410Y1211528D01*
X-99757Y1211319D01*
X-100174Y1211042D01*
X-100625Y1210799D01*
X-101146Y1210555D01*
X-101702Y1210278D01*
X-102327Y1210069D01*
X-102987Y1209861D01*
X-103716Y1209653D01*
X-104480Y1209514D01*
X-105278Y1209444D01*
X-106146Y1209410D01*
X-106563D01*
X-106875Y1209444D01*
X-107257Y1209479D01*
X-107674Y1209549D01*
X-108160Y1209618D01*
X-108681Y1209688D01*
X-109861Y1209965D01*
X-110452Y1210139D01*
X-111077Y1210382D01*
X-111667Y1210625D01*
X-112292Y1210938D01*
X-112882Y1211285D01*
X-113438Y1211701D01*
X-113472Y1211736D01*
X-113577Y1211840D01*
X-113750Y1211979D01*
X-113959Y1212188D01*
X-114236Y1212465D01*
X-114514Y1212812D01*
X-114827Y1213194D01*
X-115139Y1213646D01*
X-115452Y1214167D01*
X-115764Y1214722D01*
X-116042Y1215312D01*
X-116320Y1215972D01*
X-116528Y1216701D01*
X-116702Y1217465D01*
X-116806Y1218264D01*
X-116841Y1219132D01*
Y1219166D01*
Y1219236D01*
Y1219375D01*
X-116806Y1219583D01*
Y1219791D01*
X-116771Y1220069D01*
X-116667Y1220694D01*
X-116528Y1221423D01*
X-116285Y1222222D01*
X-115972Y1223055D01*
X-115556Y1223889D01*
Y1223923D01*
X-115486Y1223993D01*
X-115417Y1224097D01*
X-115313Y1224236D01*
X-115000Y1224653D01*
X-114584Y1225139D01*
X-113993Y1225659D01*
X-113299Y1226250D01*
X-112500Y1226771D01*
X-111528Y1227257D01*
X-111563D01*
X-111632Y1227291D01*
X-111736Y1227361D01*
X-111910Y1227430D01*
X-112327Y1227673D01*
X-112848Y1227986D01*
X-113403Y1228368D01*
X-113959Y1228854D01*
X-114514Y1229375D01*
X-114966Y1230000D01*
Y1230034D01*
X-115000Y1230069D01*
X-115070Y1230173D01*
X-115139Y1230312D01*
X-115313Y1230659D01*
X-115486Y1231146D01*
X-115695Y1231736D01*
X-115868Y1232396D01*
X-116007Y1233125D01*
X-116042Y1233889D01*
Y1233923D01*
Y1234062D01*
X-116007Y1234236D01*
Y1234479D01*
X-115972Y1234791D01*
X-115903Y1235139D01*
X-115834Y1235555D01*
X-115730Y1235972D01*
X-115591Y1236423D01*
X-115417Y1236909D01*
X-115243Y1237395D01*
X-115000Y1237882D01*
X-114688Y1238368D01*
X-114375Y1238854D01*
X-113993Y1239340D01*
X-113542Y1239791D01*
X-113507Y1239826D01*
X-113438Y1239895D01*
X-113264Y1240000D01*
X-113091Y1240173D01*
X-112813Y1240347D01*
X-112500Y1240555D01*
X-112153Y1240763D01*
X-111702Y1240972D01*
X-111250Y1241180D01*
X-110695Y1241423D01*
X-110105Y1241597D01*
X-109480Y1241770D01*
X-108785Y1241944D01*
X-108056Y1242048D01*
X-107257Y1242118D01*
X-106424Y1242152D01*
X-105973D01*
X-105660Y1242118D01*
D02*
G37*
G36*
X163090Y1221840D02*
X167083D01*
Y1216458D01*
X163090D01*
Y1210000D01*
X157152D01*
Y1216458D01*
X144062D01*
Y1221805D01*
X157916Y1242152D01*
X163090D01*
Y1221840D01*
D02*
G37*
G36*
X177465Y1210000D02*
X171319D01*
Y1216146D01*
X177465D01*
Y1210000D01*
D02*
G37*
G36*
X193263Y1242118D02*
X193575D01*
X193957Y1242048D01*
X194409Y1241979D01*
X194930Y1241875D01*
X195485Y1241736D01*
X196041Y1241562D01*
X196631Y1241354D01*
X197256Y1241076D01*
X197846Y1240763D01*
X198437Y1240382D01*
X199027Y1239930D01*
X199582Y1239409D01*
X200103Y1238819D01*
X200138Y1238784D01*
X200242Y1238645D01*
X200381Y1238402D01*
X200589Y1238055D01*
X200832Y1237638D01*
X201110Y1237083D01*
X201388Y1236458D01*
X201666Y1235694D01*
X201943Y1234861D01*
X202256Y1233889D01*
X202499Y1232812D01*
X202742Y1231632D01*
X202950Y1230347D01*
X203089Y1228923D01*
X203193Y1227396D01*
X203228Y1225764D01*
Y1225729D01*
Y1225659D01*
Y1225521D01*
Y1225382D01*
Y1225139D01*
X203193Y1224896D01*
Y1224618D01*
Y1224271D01*
X203124Y1223541D01*
X203055Y1222673D01*
X202950Y1221736D01*
X202846Y1220729D01*
X202673Y1219653D01*
X202464Y1218576D01*
X202187Y1217465D01*
X201909Y1216389D01*
X201527Y1215382D01*
X201110Y1214375D01*
X200624Y1213472D01*
X200068Y1212674D01*
X200034Y1212639D01*
X199964Y1212535D01*
X199791Y1212361D01*
X199582Y1212153D01*
X199339Y1211910D01*
X198992Y1211632D01*
X198610Y1211354D01*
X198193Y1211042D01*
X197707Y1210729D01*
X197152Y1210451D01*
X196562Y1210174D01*
X195902Y1209930D01*
X195207Y1209722D01*
X194443Y1209549D01*
X193645Y1209444D01*
X192812Y1209410D01*
X192603D01*
X192360Y1209444D01*
X192048Y1209479D01*
X191631Y1209514D01*
X191180Y1209583D01*
X190659Y1209722D01*
X190103Y1209861D01*
X189513Y1210035D01*
X188923Y1210278D01*
X188298Y1210590D01*
X187673Y1210903D01*
X187048Y1211319D01*
X186423Y1211805D01*
X185833Y1212361D01*
X185277Y1212986D01*
X185242Y1213021D01*
X185173Y1213160D01*
X184999Y1213368D01*
X184826Y1213680D01*
X184617Y1214097D01*
X184374Y1214618D01*
X184131Y1215243D01*
X183853Y1215937D01*
X183576Y1216771D01*
X183333Y1217708D01*
X183090Y1218750D01*
X182881Y1219930D01*
X182708Y1221215D01*
X182569Y1222639D01*
X182465Y1224166D01*
X182430Y1225833D01*
Y1225868D01*
Y1225937D01*
Y1226076D01*
Y1226215D01*
Y1226458D01*
X182465Y1226701D01*
Y1226979D01*
Y1227291D01*
X182534Y1228055D01*
X182603Y1228889D01*
X182708Y1229826D01*
X182812Y1230833D01*
X182985Y1231909D01*
X183194Y1232986D01*
X183437Y1234062D01*
X183749Y1235139D01*
X184096Y1236180D01*
X184513Y1237152D01*
X184999Y1238055D01*
X185555Y1238854D01*
X185590Y1238888D01*
X185694Y1238993D01*
X185833Y1239166D01*
X186041Y1239375D01*
X186319Y1239618D01*
X186631Y1239895D01*
X187013Y1240208D01*
X187430Y1240520D01*
X187916Y1240798D01*
X188471Y1241111D01*
X189062Y1241388D01*
X189721Y1241632D01*
X190416Y1241840D01*
X191180Y1242013D01*
X191978Y1242118D01*
X192812Y1242152D01*
X193020D01*
X193263Y1242118D01*
D02*
G37*
G36*
X218158D02*
X218471D01*
X218853Y1242048D01*
X219304Y1241979D01*
X219825Y1241875D01*
X220381Y1241736D01*
X220936Y1241562D01*
X221527Y1241354D01*
X222152Y1241076D01*
X222742Y1240763D01*
X223332Y1240382D01*
X223922Y1239930D01*
X224478Y1239409D01*
X224999Y1238819D01*
X225033Y1238784D01*
X225138Y1238645D01*
X225277Y1238402D01*
X225485Y1238055D01*
X225728Y1237638D01*
X226006Y1237083D01*
X226283Y1236458D01*
X226561Y1235694D01*
X226839Y1234861D01*
X227152Y1233889D01*
X227395Y1232812D01*
X227638Y1231632D01*
X227846Y1230347D01*
X227985Y1228923D01*
X228089Y1227396D01*
X228124Y1225764D01*
Y1225729D01*
Y1225659D01*
Y1225521D01*
Y1225382D01*
Y1225139D01*
X228089Y1224896D01*
Y1224618D01*
Y1224271D01*
X228020Y1223541D01*
X227950Y1222673D01*
X227846Y1221736D01*
X227742Y1220729D01*
X227568Y1219653D01*
X227360Y1218576D01*
X227082Y1217465D01*
X226804Y1216389D01*
X226422Y1215382D01*
X226006Y1214375D01*
X225520Y1213472D01*
X224964Y1212674D01*
X224929Y1212639D01*
X224860Y1212535D01*
X224686Y1212361D01*
X224478Y1212153D01*
X224235Y1211910D01*
X223888Y1211632D01*
X223506Y1211354D01*
X223089Y1211042D01*
X222603Y1210729D01*
X222047Y1210451D01*
X221457Y1210174D01*
X220797Y1209930D01*
X220103Y1209722D01*
X219339Y1209549D01*
X218540Y1209444D01*
X217707Y1209410D01*
X217499D01*
X217256Y1209444D01*
X216943Y1209479D01*
X216527Y1209514D01*
X216075Y1209583D01*
X215554Y1209722D01*
X214999Y1209861D01*
X214409Y1210035D01*
X213818Y1210278D01*
X213193Y1210590D01*
X212568Y1210903D01*
X211943Y1211319D01*
X211318Y1211805D01*
X210728Y1212361D01*
X210173Y1212986D01*
X210138Y1213021D01*
X210068Y1213160D01*
X209895Y1213368D01*
X209721Y1213680D01*
X209513Y1214097D01*
X209270Y1214618D01*
X209027Y1215243D01*
X208749Y1215937D01*
X208471Y1216771D01*
X208228Y1217708D01*
X207985Y1218750D01*
X207777Y1219930D01*
X207603Y1221215D01*
X207464Y1222639D01*
X207360Y1224166D01*
X207325Y1225833D01*
Y1225868D01*
Y1225937D01*
Y1226076D01*
Y1226215D01*
Y1226458D01*
X207360Y1226701D01*
Y1226979D01*
Y1227291D01*
X207430Y1228055D01*
X207499Y1228889D01*
X207603Y1229826D01*
X207707Y1230833D01*
X207881Y1231909D01*
X208089Y1232986D01*
X208332Y1234062D01*
X208645Y1235139D01*
X208992Y1236180D01*
X209409Y1237152D01*
X209895Y1238055D01*
X210450Y1238854D01*
X210485Y1238888D01*
X210589Y1238993D01*
X210728Y1239166D01*
X210936Y1239375D01*
X211214Y1239618D01*
X211527Y1239895D01*
X211909Y1240208D01*
X212325Y1240520D01*
X212811Y1240798D01*
X213367Y1241111D01*
X213957Y1241388D01*
X214617Y1241632D01*
X215311Y1241840D01*
X216075Y1242013D01*
X216874Y1242118D01*
X217707Y1242152D01*
X217915D01*
X218158Y1242118D01*
D02*
G37*
G36*
X130799D02*
X131111D01*
X131493Y1242048D01*
X131944Y1242013D01*
X132430Y1241909D01*
X132951Y1241805D01*
X133541Y1241632D01*
X134132Y1241458D01*
X134722Y1241215D01*
X135312Y1240937D01*
X135937Y1240590D01*
X136528Y1240208D01*
X137083Y1239757D01*
X137604Y1239236D01*
X137639Y1239201D01*
X137708Y1239132D01*
X137812Y1238993D01*
X137951Y1238819D01*
X138125Y1238611D01*
X138333Y1238333D01*
X138541Y1238020D01*
X138750Y1237673D01*
X139166Y1236909D01*
X139548Y1236007D01*
X139687Y1235520D01*
X139791Y1235000D01*
X139861Y1234479D01*
X139896Y1233923D01*
Y1233889D01*
Y1233750D01*
X139861Y1233507D01*
X139826Y1233229D01*
X139757Y1232882D01*
X139653Y1232465D01*
X139514Y1231979D01*
X139305Y1231493D01*
X139062Y1230972D01*
X138785Y1230416D01*
X138403Y1229861D01*
X137951Y1229305D01*
X137430Y1228750D01*
X136805Y1228194D01*
X136076Y1227673D01*
X135278Y1227187D01*
X135312D01*
X135416Y1227153D01*
X135555Y1227118D01*
X135729Y1227048D01*
X135972Y1226979D01*
X136250Y1226875D01*
X136840Y1226632D01*
X137569Y1226284D01*
X138298Y1225798D01*
X138993Y1225243D01*
X139340Y1224896D01*
X139653Y1224514D01*
X139687Y1224479D01*
X139722Y1224409D01*
X139791Y1224305D01*
X139930Y1224166D01*
X140035Y1223958D01*
X140173Y1223715D01*
X140347Y1223437D01*
X140486Y1223125D01*
X140798Y1222396D01*
X141076Y1221562D01*
X141250Y1220590D01*
X141285Y1220069D01*
X141319Y1219548D01*
Y1219514D01*
Y1219375D01*
X141285Y1219132D01*
Y1218854D01*
X141215Y1218472D01*
X141146Y1218055D01*
X141076Y1217604D01*
X140937Y1217083D01*
X140764Y1216528D01*
X140555Y1215937D01*
X140312Y1215347D01*
X140000Y1214757D01*
X139653Y1214132D01*
X139236Y1213542D01*
X138785Y1212951D01*
X138229Y1212361D01*
X138194Y1212326D01*
X138090Y1212222D01*
X137916Y1212083D01*
X137673Y1211910D01*
X137361Y1211667D01*
X137014Y1211424D01*
X136597Y1211146D01*
X136111Y1210903D01*
X135590Y1210625D01*
X135000Y1210347D01*
X134340Y1210104D01*
X133680Y1209861D01*
X132951Y1209688D01*
X132187Y1209549D01*
X131354Y1209444D01*
X130521Y1209410D01*
X130312D01*
X130104Y1209444D01*
X129791D01*
X129444Y1209479D01*
X128993Y1209549D01*
X128507Y1209618D01*
X127986Y1209722D01*
X127430Y1209861D01*
X126840Y1210035D01*
X126250Y1210208D01*
X125660Y1210451D01*
X125035Y1210764D01*
X124444Y1211076D01*
X123854Y1211458D01*
X123299Y1211910D01*
X123264Y1211944D01*
X123160Y1212014D01*
X123021Y1212153D01*
X122847Y1212361D01*
X122639Y1212604D01*
X122361Y1212917D01*
X122118Y1213264D01*
X121805Y1213680D01*
X121528Y1214132D01*
X121250Y1214618D01*
X120972Y1215139D01*
X120694Y1215729D01*
X120486Y1216354D01*
X120278Y1217014D01*
X120104Y1217743D01*
X120000Y1218472D01*
X125937Y1219201D01*
Y1219166D01*
Y1219097D01*
X125972Y1218993D01*
X126007Y1218819D01*
X126076Y1218403D01*
X126250Y1217917D01*
X126424Y1217326D01*
X126701Y1216771D01*
X127049Y1216180D01*
X127465Y1215694D01*
X127535Y1215660D01*
X127674Y1215521D01*
X127951Y1215312D01*
X128299Y1215104D01*
X128750Y1214896D01*
X129271Y1214687D01*
X129861Y1214548D01*
X130486Y1214514D01*
X130660D01*
X130799Y1214548D01*
X131146Y1214583D01*
X131597Y1214687D01*
X132118Y1214861D01*
X132639Y1215104D01*
X133194Y1215451D01*
X133715Y1215937D01*
X133785Y1216007D01*
X133923Y1216215D01*
X134132Y1216528D01*
X134375Y1216979D01*
X134618Y1217535D01*
X134826Y1218194D01*
X134965Y1218958D01*
X135035Y1219826D01*
Y1219861D01*
Y1219930D01*
Y1220035D01*
X135000Y1220208D01*
Y1220416D01*
X134965Y1220625D01*
X134896Y1221146D01*
X134722Y1221736D01*
X134514Y1222361D01*
X134201Y1222951D01*
X133785Y1223507D01*
X133715Y1223576D01*
X133576Y1223715D01*
X133298Y1223958D01*
X132951Y1224201D01*
X132500Y1224444D01*
X131979Y1224687D01*
X131389Y1224826D01*
X130729Y1224896D01*
X130521D01*
X130278Y1224861D01*
X129930Y1224826D01*
X129514Y1224791D01*
X129062Y1224687D01*
X128507Y1224583D01*
X127917Y1224409D01*
X128576Y1229409D01*
X128993D01*
X129201Y1229444D01*
X129444D01*
X130000Y1229514D01*
X130625Y1229618D01*
X131250Y1229826D01*
X131840Y1230104D01*
X132396Y1230451D01*
X132465Y1230521D01*
X132604Y1230659D01*
X132812Y1230902D01*
X133090Y1231250D01*
X133333Y1231701D01*
X133541Y1232222D01*
X133680Y1232812D01*
X133750Y1233507D01*
Y1233541D01*
Y1233576D01*
Y1233784D01*
X133715Y1234062D01*
X133646Y1234444D01*
X133507Y1234826D01*
X133333Y1235277D01*
X133090Y1235694D01*
X132778Y1236076D01*
X132743Y1236111D01*
X132604Y1236215D01*
X132396Y1236389D01*
X132083Y1236562D01*
X131701Y1236736D01*
X131285Y1236909D01*
X130764Y1237014D01*
X130174Y1237048D01*
X129896D01*
X129618Y1236979D01*
X129236Y1236909D01*
X128819Y1236770D01*
X128368Y1236597D01*
X127917Y1236319D01*
X127465Y1235937D01*
X127430Y1235902D01*
X127292Y1235729D01*
X127118Y1235486D01*
X126875Y1235139D01*
X126632Y1234687D01*
X126424Y1234166D01*
X126250Y1233507D01*
X126111Y1232777D01*
X120451Y1233715D01*
Y1233750D01*
X120486Y1233854D01*
X120521Y1233993D01*
X120555Y1234201D01*
X120625Y1234444D01*
X120694Y1234722D01*
X120903Y1235382D01*
X121146Y1236145D01*
X121458Y1236909D01*
X121805Y1237673D01*
X122222Y1238368D01*
Y1238402D01*
X122292Y1238437D01*
X122430Y1238645D01*
X122708Y1238993D01*
X123090Y1239375D01*
X123542Y1239826D01*
X124097Y1240277D01*
X124757Y1240729D01*
X125521Y1241145D01*
X125555D01*
X125625Y1241180D01*
X125729Y1241250D01*
X125903Y1241319D01*
X126111Y1241388D01*
X126354Y1241458D01*
X126632Y1241562D01*
X126944Y1241666D01*
X127639Y1241840D01*
X128472Y1242013D01*
X129375Y1242118D01*
X130347Y1242152D01*
X130555D01*
X130799Y1242118D01*
D02*
G37*
G36*
X-300069Y-20973D02*
X-299722Y-21008D01*
X-299305Y-21077D01*
X-298854Y-21147D01*
X-298368Y-21216D01*
X-297812Y-21355D01*
X-297257Y-21494D01*
X-296667Y-21702D01*
X-296076Y-21910D01*
X-295451Y-22188D01*
X-294861Y-22501D01*
X-294236Y-22848D01*
X-293646Y-23265D01*
X-293611Y-23299D01*
X-293472Y-23403D01*
X-293264Y-23577D01*
X-292986Y-23855D01*
X-292674Y-24167D01*
X-292292Y-24549D01*
X-291910Y-25001D01*
X-291528Y-25522D01*
X-291146Y-26112D01*
X-290764Y-26772D01*
X-290382Y-27466D01*
X-290069Y-28230D01*
X-289792Y-29063D01*
X-289583Y-29966D01*
X-289445Y-30938D01*
X-289410Y-31945D01*
Y-31980D01*
Y-32153D01*
Y-32362D01*
X-289445Y-32674D01*
X-289479Y-33056D01*
X-289549Y-33507D01*
X-289618Y-33994D01*
X-289722Y-34514D01*
X-290000Y-35660D01*
X-290174Y-36285D01*
X-290417Y-36876D01*
X-290694Y-37501D01*
X-291007Y-38091D01*
X-291354Y-38646D01*
X-291771Y-39202D01*
X-291805Y-39237D01*
X-291875Y-39306D01*
X-292014Y-39445D01*
X-292222Y-39653D01*
X-292465Y-39862D01*
X-292743Y-40105D01*
X-293090Y-40382D01*
X-293472Y-40660D01*
X-293924Y-40938D01*
X-294410Y-41216D01*
X-294930Y-41494D01*
X-295486Y-41771D01*
X-296111Y-42014D01*
X-296771Y-42223D01*
X-297465Y-42362D01*
X-298194Y-42500D01*
X-298854Y-36389D01*
X-298750D01*
X-298646Y-36355D01*
X-298507Y-36320D01*
X-298125Y-36251D01*
X-297673Y-36112D01*
X-297118Y-35903D01*
X-296597Y-35626D01*
X-296042Y-35278D01*
X-295555Y-34862D01*
X-295521Y-34792D01*
X-295382Y-34619D01*
X-295174Y-34376D01*
X-294965Y-33994D01*
X-294722Y-33577D01*
X-294549Y-33056D01*
X-294410Y-32501D01*
X-294340Y-31876D01*
Y-31841D01*
Y-31771D01*
Y-31702D01*
X-294375Y-31563D01*
X-294410Y-31181D01*
X-294549Y-30730D01*
X-294722Y-30209D01*
X-295000Y-29688D01*
X-295382Y-29133D01*
X-295625Y-28855D01*
X-295903Y-28612D01*
X-295937D01*
X-295972Y-28542D01*
X-296076Y-28473D01*
X-296180Y-28403D01*
X-296354Y-28299D01*
X-296562Y-28195D01*
X-296805Y-28056D01*
X-297083Y-27917D01*
X-297396Y-27813D01*
X-297743Y-27674D01*
X-298125Y-27570D01*
X-298542Y-27466D01*
X-299028Y-27397D01*
X-299514Y-27327D01*
X-300069Y-27258D01*
X-300903D01*
X-301111Y-27292D01*
X-301354D01*
X-301632Y-27327D01*
X-302292Y-27431D01*
X-303021Y-27570D01*
X-303750Y-27813D01*
X-304444Y-28160D01*
X-305069Y-28612D01*
X-305104D01*
X-305139Y-28681D01*
X-305312Y-28855D01*
X-305555Y-29133D01*
X-305833Y-29549D01*
X-306076Y-30035D01*
X-306319Y-30626D01*
X-306493Y-31285D01*
X-306562Y-31667D01*
Y-32049D01*
Y-32084D01*
Y-32153D01*
Y-32292D01*
X-306528Y-32501D01*
X-306493Y-32744D01*
X-306423Y-32987D01*
X-306285Y-33646D01*
X-306007Y-34376D01*
X-305798Y-34792D01*
X-305590Y-35174D01*
X-305312Y-35591D01*
X-305000Y-36007D01*
X-304653Y-36424D01*
X-304236Y-36806D01*
X-304930Y-41771D01*
X-321632Y-38612D01*
Y-22362D01*
X-315868D01*
Y-33994D01*
X-310416Y-34966D01*
Y-34931D01*
X-310451Y-34862D01*
X-310521Y-34757D01*
X-310590Y-34619D01*
X-310660Y-34410D01*
X-310764Y-34202D01*
X-310937Y-33681D01*
X-311146Y-33021D01*
X-311285Y-32327D01*
X-311423Y-31563D01*
X-311458Y-30765D01*
Y-30730D01*
Y-30591D01*
X-311423Y-30382D01*
Y-30070D01*
X-311354Y-29723D01*
X-311285Y-29306D01*
X-311215Y-28855D01*
X-311076Y-28369D01*
X-310937Y-27813D01*
X-310729Y-27258D01*
X-310486Y-26702D01*
X-310208Y-26112D01*
X-309861Y-25522D01*
X-309444Y-24931D01*
X-308993Y-24376D01*
X-308472Y-23820D01*
X-308437Y-23785D01*
X-308333Y-23681D01*
X-308160Y-23542D01*
X-307917Y-23369D01*
X-307639Y-23160D01*
X-307292Y-22917D01*
X-306875Y-22640D01*
X-306389Y-22362D01*
X-305868Y-22119D01*
X-305278Y-21841D01*
X-304618Y-21598D01*
X-303958Y-21390D01*
X-303194Y-21216D01*
X-302430Y-21077D01*
X-301597Y-20973D01*
X-300729Y-20938D01*
X-300347D01*
X-300069Y-20973D01*
D02*
G37*
G36*
X-304896Y3055D02*
X-304271D01*
X-303542Y2985D01*
X-302673Y2916D01*
X-301736Y2812D01*
X-300729Y2707D01*
X-299653Y2534D01*
X-298576Y2325D01*
X-297465Y2048D01*
X-296389Y1770D01*
X-295382Y1388D01*
X-294375Y971D01*
X-293472Y485D01*
X-292674Y-70D01*
X-292639Y-105D01*
X-292535Y-175D01*
X-292361Y-348D01*
X-292153Y-556D01*
X-291910Y-800D01*
X-291632Y-1147D01*
X-291354Y-1529D01*
X-291042Y-1945D01*
X-290729Y-2431D01*
X-290451Y-2987D01*
X-290174Y-3577D01*
X-289931Y-4237D01*
X-289722Y-4931D01*
X-289549Y-5695D01*
X-289445Y-6494D01*
X-289410Y-7327D01*
Y-7397D01*
Y-7536D01*
X-289445Y-7779D01*
X-289479Y-8091D01*
X-289514Y-8508D01*
X-289583Y-8959D01*
X-289722Y-9480D01*
X-289861Y-10036D01*
X-290035Y-10626D01*
X-290278Y-11216D01*
X-290590Y-11841D01*
X-290903Y-12466D01*
X-291319Y-13091D01*
X-291805Y-13716D01*
X-292361Y-14306D01*
X-292986Y-14862D01*
X-293021Y-14897D01*
X-293160Y-14966D01*
X-293368Y-15140D01*
X-293680Y-15313D01*
X-294097Y-15522D01*
X-294618Y-15765D01*
X-295243Y-16008D01*
X-295937Y-16286D01*
X-296771Y-16563D01*
X-297708Y-16806D01*
X-298750Y-17049D01*
X-299930Y-17258D01*
X-301215Y-17431D01*
X-302639Y-17570D01*
X-304167Y-17674D01*
X-305833Y-17709D01*
X-306458D01*
X-306701Y-17674D01*
X-307292D01*
X-308055Y-17605D01*
X-308889Y-17536D01*
X-309826Y-17431D01*
X-310833Y-17327D01*
X-311910Y-17154D01*
X-312986Y-16945D01*
X-314062Y-16702D01*
X-315139Y-16390D01*
X-316180Y-16042D01*
X-317153Y-15626D01*
X-318055Y-15140D01*
X-318854Y-14584D01*
X-318888Y-14549D01*
X-318993Y-14445D01*
X-319166Y-14306D01*
X-319375Y-14098D01*
X-319618Y-13820D01*
X-319895Y-13508D01*
X-320208Y-13126D01*
X-320521Y-12709D01*
X-320798Y-12223D01*
X-321111Y-11667D01*
X-321389Y-11077D01*
X-321632Y-10417D01*
X-321840Y-9723D01*
X-322014Y-8959D01*
X-322118Y-8161D01*
X-322152Y-7327D01*
Y-7258D01*
Y-7119D01*
X-322118Y-6876D01*
Y-6563D01*
X-322048Y-6181D01*
X-321979Y-5730D01*
X-321875Y-5209D01*
X-321736Y-4654D01*
X-321562Y-4098D01*
X-321354Y-3508D01*
X-321076Y-2883D01*
X-320764Y-2293D01*
X-320382Y-1702D01*
X-319930Y-1112D01*
X-319409Y-556D01*
X-318819Y-36D01*
X-318784Y-1D01*
X-318645Y103D01*
X-318402Y242D01*
X-318055Y450D01*
X-317639Y693D01*
X-317083Y971D01*
X-316458Y1249D01*
X-315694Y1527D01*
X-314861Y1805D01*
X-313889Y2117D01*
X-312812Y2360D01*
X-311632Y2603D01*
X-310347Y2812D01*
X-308923Y2950D01*
X-307396Y3055D01*
X-305764Y3089D01*
X-305139D01*
X-304896Y3055D01*
D02*
G37*
G36*
X-298958Y-58959D02*
X-298646D01*
X-298264Y-58993D01*
X-297847Y-59063D01*
X-297361Y-59167D01*
X-296840Y-59271D01*
X-296250Y-59445D01*
X-295694Y-59618D01*
X-295069Y-59861D01*
X-294479Y-60139D01*
X-293889Y-60452D01*
X-293299Y-60834D01*
X-292743Y-61285D01*
X-292188Y-61771D01*
X-292153Y-61806D01*
X-292083Y-61910D01*
X-291944Y-62049D01*
X-291771Y-62292D01*
X-291528Y-62570D01*
X-291319Y-62917D01*
X-291042Y-63334D01*
X-290799Y-63785D01*
X-290556Y-64306D01*
X-290278Y-64861D01*
X-290069Y-65486D01*
X-289861Y-66146D01*
X-289653Y-66875D01*
X-289514Y-67639D01*
X-289445Y-68438D01*
X-289410Y-69306D01*
Y-69340D01*
Y-69514D01*
Y-69722D01*
X-289445Y-70035D01*
X-289479Y-70417D01*
X-289549Y-70833D01*
X-289618Y-71319D01*
X-289688Y-71840D01*
X-289965Y-73021D01*
X-290139Y-73611D01*
X-290382Y-74236D01*
X-290625Y-74826D01*
X-290938Y-75451D01*
X-291285Y-76042D01*
X-291701Y-76597D01*
X-291736Y-76632D01*
X-291840Y-76736D01*
X-291979Y-76910D01*
X-292188Y-77118D01*
X-292465Y-77396D01*
X-292812Y-77674D01*
X-293194Y-77986D01*
X-293646Y-78299D01*
X-294167Y-78611D01*
X-294722Y-78924D01*
X-295312Y-79201D01*
X-295972Y-79479D01*
X-296701Y-79688D01*
X-297465Y-79861D01*
X-298264Y-79965D01*
X-299132Y-80000D01*
X-299375D01*
X-299583Y-79965D01*
X-299792D01*
X-300069Y-79931D01*
X-300694Y-79826D01*
X-301423Y-79688D01*
X-302222Y-79444D01*
X-303055Y-79132D01*
X-303889Y-78715D01*
X-303923D01*
X-303993Y-78646D01*
X-304097Y-78576D01*
X-304236Y-78472D01*
X-304653Y-78160D01*
X-305139Y-77743D01*
X-305660Y-77153D01*
X-306250Y-76458D01*
X-306771Y-75660D01*
X-307257Y-74688D01*
Y-74722D01*
X-307292Y-74792D01*
X-307361Y-74896D01*
X-307430Y-75069D01*
X-307673Y-75486D01*
X-307986Y-76007D01*
X-308368Y-76562D01*
X-308854Y-77118D01*
X-309375Y-77674D01*
X-310000Y-78125D01*
X-310035D01*
X-310069Y-78160D01*
X-310173Y-78229D01*
X-310312Y-78299D01*
X-310660Y-78472D01*
X-311146Y-78646D01*
X-311736Y-78854D01*
X-312396Y-79028D01*
X-313125Y-79167D01*
X-313889Y-79201D01*
X-314062D01*
X-314236Y-79167D01*
X-314479D01*
X-314791Y-79132D01*
X-315139Y-79062D01*
X-315555Y-78993D01*
X-315972Y-78889D01*
X-316423Y-78750D01*
X-316909Y-78576D01*
X-317395Y-78403D01*
X-317882Y-78160D01*
X-318368Y-77847D01*
X-318854Y-77535D01*
X-319340Y-77153D01*
X-319791Y-76701D01*
X-319826Y-76667D01*
X-319895Y-76597D01*
X-320000Y-76424D01*
X-320173Y-76250D01*
X-320347Y-75972D01*
X-320555Y-75660D01*
X-320764Y-75312D01*
X-320972Y-74861D01*
X-321180Y-74410D01*
X-321423Y-73854D01*
X-321597Y-73264D01*
X-321771Y-72639D01*
X-321944Y-71944D01*
X-322048Y-71215D01*
X-322118Y-70417D01*
X-322152Y-69584D01*
Y-69514D01*
Y-69375D01*
Y-69132D01*
X-322118Y-68820D01*
X-322083Y-68438D01*
X-322014Y-68021D01*
X-321944Y-67535D01*
X-321875Y-66979D01*
X-321562Y-65868D01*
X-321389Y-65278D01*
X-321146Y-64688D01*
X-320902Y-64097D01*
X-320555Y-63542D01*
X-320208Y-62986D01*
X-319791Y-62500D01*
X-319757Y-62466D01*
X-319687Y-62396D01*
X-319548Y-62257D01*
X-319375Y-62118D01*
X-319132Y-61910D01*
X-318854Y-61702D01*
X-318541Y-61459D01*
X-318194Y-61216D01*
X-317777Y-61007D01*
X-317326Y-60764D01*
X-316840Y-60556D01*
X-316319Y-60347D01*
X-315764Y-60209D01*
X-315173Y-60070D01*
X-314548Y-60000D01*
X-313889Y-59966D01*
X-313507D01*
X-313333Y-60000D01*
X-313090Y-60035D01*
X-312569Y-60104D01*
X-311944Y-60243D01*
X-311285Y-60452D01*
X-310590Y-60764D01*
X-309930Y-61146D01*
X-309896D01*
X-309861Y-61216D01*
X-309653Y-61354D01*
X-309340Y-61632D01*
X-308958Y-61979D01*
X-308507Y-62431D01*
X-308055Y-62986D01*
X-307639Y-63646D01*
X-307257Y-64375D01*
Y-64341D01*
X-307222Y-64271D01*
X-307153Y-64132D01*
X-307048Y-63924D01*
X-306944Y-63716D01*
X-306805Y-63438D01*
X-306458Y-62847D01*
X-306007Y-62222D01*
X-305486Y-61528D01*
X-304861Y-60868D01*
X-304132Y-60313D01*
X-304097D01*
X-304028Y-60243D01*
X-303923Y-60174D01*
X-303785Y-60104D01*
X-303576Y-60000D01*
X-303333Y-59861D01*
X-303090Y-59757D01*
X-302778Y-59618D01*
X-302083Y-59375D01*
X-301250Y-59132D01*
X-300347Y-58993D01*
X-299375Y-58924D01*
X-299167D01*
X-298958Y-58959D01*
D02*
G37*
G36*
X-290000Y-53716D02*
X-296146D01*
Y-47570D01*
X-290000D01*
Y-53716D01*
D02*
G37*
G36*
X-310069Y999027D02*
X-309722Y998992D01*
X-309305Y998923D01*
X-308854Y998854D01*
X-308368Y998784D01*
X-307812Y998645D01*
X-307257Y998506D01*
X-306667Y998298D01*
X-306076Y998090D01*
X-305451Y997812D01*
X-304861Y997499D01*
X-304236Y997152D01*
X-303646Y996735D01*
X-303611Y996701D01*
X-303472Y996597D01*
X-303264Y996423D01*
X-302986Y996145D01*
X-302674Y995833D01*
X-302292Y995451D01*
X-301910Y994999D01*
X-301528Y994479D01*
X-301146Y993888D01*
X-300764Y993229D01*
X-300382Y992534D01*
X-300070Y991770D01*
X-299792Y990937D01*
X-299583Y990034D01*
X-299445Y989062D01*
X-299410Y988055D01*
Y988020D01*
Y987847D01*
Y987638D01*
X-299445Y987326D01*
X-299479Y986944D01*
X-299549Y986492D01*
X-299618Y986006D01*
X-299722Y985486D01*
X-300000Y984340D01*
X-300174Y983715D01*
X-300417Y983124D01*
X-300694Y982499D01*
X-301007Y981909D01*
X-301354Y981354D01*
X-301771Y980798D01*
X-301805Y980763D01*
X-301875Y980694D01*
X-302014Y980555D01*
X-302222Y980347D01*
X-302465Y980138D01*
X-302743Y979895D01*
X-303090Y979618D01*
X-303472Y979340D01*
X-303924Y979062D01*
X-304410Y978784D01*
X-304930Y978506D01*
X-305486Y978229D01*
X-306111Y977986D01*
X-306771Y977777D01*
X-307465Y977638D01*
X-308194Y977499D01*
X-308854Y983611D01*
X-308750D01*
X-308646Y983645D01*
X-308507Y983680D01*
X-308125Y983749D01*
X-307673Y983888D01*
X-307118Y984097D01*
X-306597Y984374D01*
X-306042Y984722D01*
X-305555Y985138D01*
X-305521Y985208D01*
X-305382Y985381D01*
X-305174Y985624D01*
X-304965Y986006D01*
X-304722Y986423D01*
X-304549Y986944D01*
X-304410Y987499D01*
X-304340Y988124D01*
Y988159D01*
Y988229D01*
Y988298D01*
X-304375Y988437D01*
X-304410Y988819D01*
X-304549Y989270D01*
X-304722Y989791D01*
X-305000Y990312D01*
X-305382Y990867D01*
X-305625Y991145D01*
X-305903Y991388D01*
X-305937D01*
X-305972Y991458D01*
X-306076Y991527D01*
X-306180Y991597D01*
X-306354Y991701D01*
X-306562Y991805D01*
X-306805Y991944D01*
X-307083Y992083D01*
X-307396Y992187D01*
X-307743Y992326D01*
X-308125Y992430D01*
X-308542Y992534D01*
X-309028Y992604D01*
X-309514Y992673D01*
X-310069Y992742D01*
X-310903D01*
X-311111Y992708D01*
X-311354D01*
X-311632Y992673D01*
X-312292Y992569D01*
X-313021Y992430D01*
X-313750Y992187D01*
X-314444Y991840D01*
X-315069Y991388D01*
X-315104D01*
X-315139Y991319D01*
X-315312Y991145D01*
X-315555Y990867D01*
X-315833Y990451D01*
X-316076Y989965D01*
X-316319Y989374D01*
X-316493Y988715D01*
X-316562Y988333D01*
Y987951D01*
Y987916D01*
Y987847D01*
Y987708D01*
X-316528Y987499D01*
X-316493Y987256D01*
X-316423Y987013D01*
X-316285Y986354D01*
X-316007Y985624D01*
X-315798Y985208D01*
X-315590Y984826D01*
X-315312Y984409D01*
X-315000Y983992D01*
X-314653Y983576D01*
X-314236Y983194D01*
X-314930Y978229D01*
X-331632Y981388D01*
Y997638D01*
X-325868D01*
Y986006D01*
X-320416Y985034D01*
Y985069D01*
X-320451Y985138D01*
X-320521Y985242D01*
X-320590Y985381D01*
X-320659Y985590D01*
X-320764Y985798D01*
X-320937Y986319D01*
X-321146Y986979D01*
X-321284Y987673D01*
X-321423Y988437D01*
X-321458Y989236D01*
Y989270D01*
Y989409D01*
X-321423Y989617D01*
Y989930D01*
X-321354Y990277D01*
X-321284Y990694D01*
X-321215Y991145D01*
X-321076Y991631D01*
X-320937Y992187D01*
X-320729Y992742D01*
X-320486Y993298D01*
X-320208Y993888D01*
X-319861Y994479D01*
X-319444Y995069D01*
X-318993Y995624D01*
X-318472Y996180D01*
X-318437Y996215D01*
X-318333Y996319D01*
X-318160Y996458D01*
X-317917Y996631D01*
X-317639Y996840D01*
X-317292Y997083D01*
X-316875Y997360D01*
X-316389Y997638D01*
X-315868Y997881D01*
X-315278Y998159D01*
X-314618Y998402D01*
X-313958Y998610D01*
X-313194Y998784D01*
X-312430Y998923D01*
X-311597Y999027D01*
X-310729Y999062D01*
X-310347D01*
X-310069Y999027D01*
D02*
G37*
G36*
X-314896Y1023055D02*
X-314271D01*
X-313542Y1022985D01*
X-312673Y1022916D01*
X-311736Y1022812D01*
X-310729Y1022707D01*
X-309653Y1022534D01*
X-308576Y1022325D01*
X-307465Y1022048D01*
X-306389Y1021770D01*
X-305382Y1021388D01*
X-304375Y1020971D01*
X-303472Y1020485D01*
X-302674Y1019930D01*
X-302639Y1019895D01*
X-302535Y1019825D01*
X-302361Y1019652D01*
X-302153Y1019444D01*
X-301910Y1019200D01*
X-301632Y1018853D01*
X-301354Y1018471D01*
X-301042Y1018055D01*
X-300729Y1017569D01*
X-300451Y1017013D01*
X-300174Y1016423D01*
X-299931Y1015763D01*
X-299722Y1015069D01*
X-299549Y1014305D01*
X-299445Y1013506D01*
X-299410Y1012673D01*
Y1012603D01*
Y1012464D01*
X-299445Y1012221D01*
X-299479Y1011909D01*
X-299514Y1011492D01*
X-299583Y1011041D01*
X-299722Y1010520D01*
X-299861Y1009964D01*
X-300035Y1009374D01*
X-300278Y1008784D01*
X-300590Y1008159D01*
X-300903Y1007534D01*
X-301319Y1006909D01*
X-301805Y1006284D01*
X-302361Y1005694D01*
X-302986Y1005138D01*
X-303021Y1005103D01*
X-303160Y1005034D01*
X-303368Y1004860D01*
X-303680Y1004687D01*
X-304097Y1004478D01*
X-304618Y1004235D01*
X-305243Y1003992D01*
X-305937Y1003715D01*
X-306771Y1003437D01*
X-307708Y1003194D01*
X-308750Y1002951D01*
X-309930Y1002742D01*
X-311215Y1002569D01*
X-312639Y1002430D01*
X-314167Y1002326D01*
X-315833Y1002291D01*
X-316458D01*
X-316701Y1002326D01*
X-317292D01*
X-318055Y1002395D01*
X-318889Y1002465D01*
X-319826Y1002569D01*
X-320833Y1002673D01*
X-321909Y1002847D01*
X-322986Y1003055D01*
X-324062Y1003298D01*
X-325139Y1003610D01*
X-326180Y1003958D01*
X-327152Y1004374D01*
X-328055Y1004860D01*
X-328854Y1005416D01*
X-328889Y1005451D01*
X-328993Y1005555D01*
X-329166Y1005694D01*
X-329375Y1005902D01*
X-329618Y1006180D01*
X-329896Y1006492D01*
X-330208Y1006874D01*
X-330521Y1007291D01*
X-330798Y1007777D01*
X-331111Y1008333D01*
X-331389Y1008923D01*
X-331632Y1009583D01*
X-331840Y1010277D01*
X-332014Y1011041D01*
X-332118Y1011839D01*
X-332152Y1012673D01*
Y1012742D01*
Y1012881D01*
X-332118Y1013124D01*
Y1013437D01*
X-332048Y1013819D01*
X-331979Y1014270D01*
X-331875Y1014791D01*
X-331736Y1015346D01*
X-331562Y1015902D01*
X-331354Y1016492D01*
X-331076Y1017117D01*
X-330764Y1017707D01*
X-330382Y1018298D01*
X-329930Y1018888D01*
X-329409Y1019444D01*
X-328819Y1019964D01*
X-328784Y1019999D01*
X-328646Y1020103D01*
X-328402Y1020242D01*
X-328055Y1020450D01*
X-327639Y1020694D01*
X-327083Y1020971D01*
X-326458Y1021249D01*
X-325694Y1021527D01*
X-324861Y1021805D01*
X-323889Y1022117D01*
X-322812Y1022360D01*
X-321632Y1022603D01*
X-320347Y1022812D01*
X-318923Y1022950D01*
X-317396Y1023055D01*
X-315764Y1023089D01*
X-315139D01*
X-314896Y1023055D01*
D02*
G37*
G36*
X-308958Y961041D02*
X-308646D01*
X-308264Y961007D01*
X-307847Y960937D01*
X-307361Y960833D01*
X-306840Y960729D01*
X-306250Y960555D01*
X-305694Y960382D01*
X-305069Y960139D01*
X-304479Y959861D01*
X-303889Y959548D01*
X-303299Y959166D01*
X-302743Y958715D01*
X-302188Y958229D01*
X-302153Y958194D01*
X-302083Y958090D01*
X-301944Y957951D01*
X-301771Y957708D01*
X-301528Y957430D01*
X-301319Y957083D01*
X-301042Y956666D01*
X-300799Y956215D01*
X-300556Y955694D01*
X-300278Y955139D01*
X-300070Y954514D01*
X-299861Y953854D01*
X-299653Y953125D01*
X-299514Y952361D01*
X-299445Y951562D01*
X-299410Y950694D01*
Y950660D01*
Y950486D01*
Y950278D01*
X-299445Y949965D01*
X-299479Y949583D01*
X-299549Y949167D01*
X-299618Y948680D01*
X-299688Y948160D01*
X-299965Y946979D01*
X-300139Y946389D01*
X-300382Y945764D01*
X-300625Y945173D01*
X-300938Y944549D01*
X-301285Y943958D01*
X-301701Y943403D01*
X-301736Y943368D01*
X-301840Y943264D01*
X-301979Y943090D01*
X-302188Y942882D01*
X-302465Y942604D01*
X-302812Y942326D01*
X-303194Y942014D01*
X-303646Y941701D01*
X-304167Y941389D01*
X-304722Y941076D01*
X-305312Y940799D01*
X-305972Y940521D01*
X-306701Y940312D01*
X-307465Y940139D01*
X-308264Y940035D01*
X-309132Y940000D01*
X-309375D01*
X-309583Y940035D01*
X-309792D01*
X-310069Y940069D01*
X-310694Y940174D01*
X-311423Y940312D01*
X-312222Y940555D01*
X-313055Y940868D01*
X-313889Y941285D01*
X-313923D01*
X-313993Y941354D01*
X-314097Y941424D01*
X-314236Y941528D01*
X-314653Y941840D01*
X-315139Y942257D01*
X-315660Y942847D01*
X-316250Y943542D01*
X-316771Y944340D01*
X-317257Y945312D01*
Y945278D01*
X-317292Y945208D01*
X-317361Y945104D01*
X-317430Y944930D01*
X-317673Y944514D01*
X-317986Y943993D01*
X-318368Y943438D01*
X-318854Y942882D01*
X-319375Y942326D01*
X-320000Y941875D01*
X-320034D01*
X-320069Y941840D01*
X-320173Y941771D01*
X-320312Y941701D01*
X-320659Y941528D01*
X-321146Y941354D01*
X-321736Y941146D01*
X-322396Y940972D01*
X-323125Y940833D01*
X-323889Y940799D01*
X-324062D01*
X-324236Y940833D01*
X-324479D01*
X-324791Y940868D01*
X-325139Y940938D01*
X-325555Y941007D01*
X-325972Y941111D01*
X-326423Y941250D01*
X-326909Y941424D01*
X-327396Y941597D01*
X-327882Y941840D01*
X-328368Y942153D01*
X-328854Y942465D01*
X-329340Y942847D01*
X-329791Y943299D01*
X-329826Y943333D01*
X-329896Y943403D01*
X-330000Y943576D01*
X-330173Y943750D01*
X-330347Y944028D01*
X-330555Y944340D01*
X-330764Y944687D01*
X-330972Y945139D01*
X-331180Y945590D01*
X-331423Y946146D01*
X-331597Y946736D01*
X-331771Y947361D01*
X-331944Y948055D01*
X-332048Y948785D01*
X-332118Y949583D01*
X-332152Y950416D01*
Y950486D01*
Y950625D01*
Y950868D01*
X-332118Y951180D01*
X-332083Y951562D01*
X-332014Y951979D01*
X-331944Y952465D01*
X-331875Y953021D01*
X-331562Y954132D01*
X-331389Y954722D01*
X-331146Y955312D01*
X-330902Y955903D01*
X-330555Y956458D01*
X-330208Y957014D01*
X-329791Y957500D01*
X-329757Y957534D01*
X-329687Y957604D01*
X-329548Y957743D01*
X-329375Y957882D01*
X-329132Y958090D01*
X-328854Y958298D01*
X-328541Y958541D01*
X-328194Y958784D01*
X-327777Y958993D01*
X-327326Y959236D01*
X-326840Y959444D01*
X-326319Y959652D01*
X-325764Y959791D01*
X-325173Y959930D01*
X-324548Y960000D01*
X-323889Y960034D01*
X-323507D01*
X-323333Y960000D01*
X-323090Y959965D01*
X-322569Y959896D01*
X-321944Y959757D01*
X-321284Y959548D01*
X-320590Y959236D01*
X-319930Y958854D01*
X-319896D01*
X-319861Y958784D01*
X-319653Y958646D01*
X-319340Y958368D01*
X-318958Y958021D01*
X-318507Y957569D01*
X-318055Y957014D01*
X-317639Y956354D01*
X-317257Y955625D01*
Y955659D01*
X-317222Y955729D01*
X-317153Y955868D01*
X-317048Y956076D01*
X-316944Y956284D01*
X-316805Y956562D01*
X-316458Y957153D01*
X-316007Y957778D01*
X-315486Y958472D01*
X-314861Y959132D01*
X-314132Y959687D01*
X-314097D01*
X-314028Y959757D01*
X-313923Y959826D01*
X-313785Y959896D01*
X-313576Y960000D01*
X-313333Y960139D01*
X-313090Y960243D01*
X-312778Y960382D01*
X-312083Y960625D01*
X-311250Y960868D01*
X-310347Y961007D01*
X-309375Y961076D01*
X-309167D01*
X-308958Y961041D01*
D02*
G37*
G36*
X-300000Y966284D02*
X-306146D01*
Y972430D01*
X-300000D01*
Y966284D01*
D02*
G37*
G36*
X-290000Y471562D02*
X-296146D01*
Y477708D01*
X-290000D01*
Y471562D01*
D02*
G37*
G36*
X-304896Y528332D02*
X-304271D01*
X-303542Y528263D01*
X-302673Y528193D01*
X-301736Y528089D01*
X-300729Y527985D01*
X-299653Y527811D01*
X-298576Y527603D01*
X-297465Y527325D01*
X-296389Y527047D01*
X-295382Y526665D01*
X-294375Y526249D01*
X-293472Y525763D01*
X-292674Y525207D01*
X-292639Y525172D01*
X-292535Y525103D01*
X-292361Y524929D01*
X-292153Y524721D01*
X-291910Y524478D01*
X-291632Y524131D01*
X-291354Y523749D01*
X-291042Y523332D01*
X-290729Y522846D01*
X-290451Y522290D01*
X-290174Y521700D01*
X-289931Y521040D01*
X-289722Y520346D01*
X-289549Y519582D01*
X-289445Y518783D01*
X-289410Y517950D01*
Y517881D01*
Y517742D01*
X-289445Y517499D01*
X-289479Y517186D01*
X-289514Y516770D01*
X-289583Y516318D01*
X-289722Y515797D01*
X-289861Y515242D01*
X-290035Y514652D01*
X-290278Y514061D01*
X-290590Y513436D01*
X-290903Y512811D01*
X-291319Y512186D01*
X-291805Y511561D01*
X-292361Y510971D01*
X-292986Y510416D01*
X-293021Y510381D01*
X-293160Y510311D01*
X-293368Y510138D01*
X-293680Y509964D01*
X-294097Y509756D01*
X-294618Y509513D01*
X-295243Y509270D01*
X-295937Y508992D01*
X-296771Y508714D01*
X-297708Y508471D01*
X-298750Y508228D01*
X-299930Y508020D01*
X-301215Y507846D01*
X-302639Y507707D01*
X-304167Y507603D01*
X-305833Y507568D01*
X-306458D01*
X-306701Y507603D01*
X-307292D01*
X-308055Y507673D01*
X-308889Y507742D01*
X-309826Y507846D01*
X-310833Y507950D01*
X-311910Y508124D01*
X-312986Y508332D01*
X-314062Y508575D01*
X-315139Y508888D01*
X-316180Y509235D01*
X-317153Y509652D01*
X-318055Y510138D01*
X-318854Y510693D01*
X-318888Y510728D01*
X-318993Y510832D01*
X-319166Y510971D01*
X-319375Y511179D01*
X-319618Y511457D01*
X-319895Y511770D01*
X-320208Y512152D01*
X-320521Y512568D01*
X-320798Y513054D01*
X-321111Y513610D01*
X-321389Y514200D01*
X-321632Y514860D01*
X-321840Y515554D01*
X-322014Y516318D01*
X-322118Y517117D01*
X-322152Y517950D01*
Y518020D01*
Y518158D01*
X-322118Y518402D01*
Y518714D01*
X-322048Y519096D01*
X-321979Y519547D01*
X-321875Y520068D01*
X-321736Y520624D01*
X-321562Y521179D01*
X-321354Y521770D01*
X-321076Y522395D01*
X-320764Y522985D01*
X-320382Y523575D01*
X-319930Y524165D01*
X-319409Y524721D01*
X-318819Y525242D01*
X-318784Y525276D01*
X-318645Y525381D01*
X-318402Y525519D01*
X-318055Y525728D01*
X-317639Y525971D01*
X-317083Y526249D01*
X-316458Y526526D01*
X-315694Y526804D01*
X-314861Y527082D01*
X-313889Y527394D01*
X-312812Y527638D01*
X-311632Y527881D01*
X-310347Y528089D01*
X-308923Y528228D01*
X-307396Y528332D01*
X-305764Y528367D01*
X-305139D01*
X-304896Y528332D01*
D02*
G37*
G36*
X-305139Y441354D02*
X-304548D01*
X-303819Y441284D01*
X-302986Y441215D01*
X-302083Y441111D01*
X-301111Y440972D01*
X-300069Y440798D01*
X-299028Y440590D01*
X-297951Y440312D01*
X-296910Y440000D01*
X-295903Y439652D01*
X-294965Y439201D01*
X-294097Y438715D01*
X-293299Y438125D01*
X-293264Y438090D01*
X-293125Y437986D01*
X-292951Y437778D01*
X-292708Y437534D01*
X-292396Y437222D01*
X-292083Y436805D01*
X-291701Y436354D01*
X-291354Y435833D01*
X-291007Y435278D01*
X-290625Y434618D01*
X-290312Y433923D01*
X-290035Y433160D01*
X-289757Y432361D01*
X-289583Y431528D01*
X-289445Y430590D01*
X-289410Y429653D01*
Y429618D01*
Y429479D01*
Y429305D01*
X-289445Y429028D01*
X-289479Y428715D01*
X-289514Y428333D01*
X-289583Y427917D01*
X-289653Y427500D01*
X-289896Y426528D01*
X-290069Y426007D01*
X-290243Y425521D01*
X-290486Y425000D01*
X-290729Y424514D01*
X-291042Y424028D01*
X-291389Y423576D01*
X-291424Y423542D01*
X-291493Y423472D01*
X-291597Y423368D01*
X-291771Y423194D01*
X-291979Y423021D01*
X-292257Y422812D01*
X-292535Y422604D01*
X-292917Y422361D01*
X-293299Y422118D01*
X-293750Y421875D01*
X-294236Y421597D01*
X-294792Y421389D01*
X-295382Y421146D01*
X-296007Y420972D01*
X-296701Y420799D01*
X-297430Y420660D01*
X-298090Y426597D01*
X-298021D01*
X-297917Y426632D01*
X-297778D01*
X-297465Y426701D01*
X-297048Y426805D01*
X-296632Y426944D01*
X-296180Y427153D01*
X-295764Y427396D01*
X-295382Y427708D01*
X-295347Y427743D01*
X-295243Y427882D01*
X-295104Y428090D01*
X-294965Y428368D01*
X-294792Y428715D01*
X-294653Y429132D01*
X-294549Y429583D01*
X-294514Y430139D01*
Y430173D01*
Y430208D01*
Y430312D01*
X-294549Y430451D01*
X-294618Y430798D01*
X-294722Y431250D01*
X-294930Y431736D01*
X-295243Y432291D01*
X-295451Y432535D01*
X-295694Y432812D01*
X-295937Y433090D01*
X-296250Y433333D01*
X-296285D01*
X-296319Y433403D01*
X-296458Y433472D01*
X-296597Y433541D01*
X-296805Y433646D01*
X-297083Y433785D01*
X-297430Y433923D01*
X-297812Y434062D01*
X-298264Y434201D01*
X-298785Y434340D01*
X-299375Y434479D01*
X-300035Y434618D01*
X-300798Y434757D01*
X-301597Y434861D01*
X-302500Y434965D01*
X-303507Y435034D01*
X-303472Y435000D01*
X-303403Y434930D01*
X-303264Y434791D01*
X-303090Y434618D01*
X-302882Y434409D01*
X-302673Y434132D01*
X-302430Y433819D01*
X-302187Y433437D01*
X-301910Y433055D01*
X-301667Y432604D01*
X-301458Y432153D01*
X-301250Y431632D01*
X-301076Y431076D01*
X-300937Y430486D01*
X-300868Y429896D01*
X-300833Y429236D01*
Y429201D01*
Y429062D01*
X-300868Y428889D01*
Y428611D01*
X-300937Y428298D01*
X-300972Y427917D01*
X-301076Y427465D01*
X-301180Y427014D01*
X-301354Y426528D01*
X-301528Y426007D01*
X-301771Y425451D01*
X-302048Y424930D01*
X-302396Y424375D01*
X-302778Y423819D01*
X-303194Y423264D01*
X-303715Y422743D01*
X-303750Y422708D01*
X-303854Y422639D01*
X-304028Y422500D01*
X-304236Y422326D01*
X-304548Y422118D01*
X-304896Y421875D01*
X-305312Y421632D01*
X-305764Y421389D01*
X-306285Y421111D01*
X-306840Y420868D01*
X-307465Y420625D01*
X-308160Y420417D01*
X-308889Y420243D01*
X-309653Y420104D01*
X-310451Y420035D01*
X-311319Y420000D01*
X-311528D01*
X-311805Y420035D01*
X-312118D01*
X-312535Y420104D01*
X-313021Y420139D01*
X-313541Y420243D01*
X-314132Y420347D01*
X-314722Y420521D01*
X-315382Y420694D01*
X-316041Y420938D01*
X-316666Y421215D01*
X-317326Y421562D01*
X-317986Y421944D01*
X-318576Y422361D01*
X-319166Y422882D01*
X-319201Y422917D01*
X-319305Y423021D01*
X-319444Y423194D01*
X-319618Y423403D01*
X-319861Y423680D01*
X-320104Y424028D01*
X-320382Y424444D01*
X-320659Y424896D01*
X-320937Y425382D01*
X-321215Y425937D01*
X-321458Y426562D01*
X-321701Y427187D01*
X-321875Y427917D01*
X-322014Y428646D01*
X-322118Y429410D01*
X-322152Y430243D01*
Y430312D01*
Y430451D01*
X-322118Y430729D01*
X-322083Y431041D01*
X-322048Y431458D01*
X-321944Y431944D01*
X-321840Y432500D01*
X-321666Y433090D01*
X-321493Y433715D01*
X-321215Y434340D01*
X-320937Y435034D01*
X-320555Y435694D01*
X-320139Y436354D01*
X-319618Y437014D01*
X-319027Y437673D01*
X-318368Y438264D01*
X-318333Y438298D01*
X-318194Y438403D01*
X-317951Y438541D01*
X-317639Y438750D01*
X-317222Y438993D01*
X-316701Y439271D01*
X-316111Y439548D01*
X-315416Y439826D01*
X-314583Y440104D01*
X-313680Y440416D01*
X-312673Y440659D01*
X-311528Y440902D01*
X-310312Y441111D01*
X-308993Y441250D01*
X-307535Y441354D01*
X-305972Y441389D01*
X-305382D01*
X-305139Y441354D01*
D02*
G37*
G36*
X-296458Y463333D02*
X-290000D01*
Y457395D01*
X-296458D01*
Y444305D01*
X-301805D01*
X-322152Y458159D01*
Y463333D01*
X-301840D01*
Y467326D01*
X-296458D01*
Y463333D01*
D02*
G37*
G36*
X-304896Y503437D02*
X-304271D01*
X-303542Y503367D01*
X-302673Y503298D01*
X-301736Y503193D01*
X-300729Y503089D01*
X-299653Y502916D01*
X-298576Y502707D01*
X-297465Y502430D01*
X-296389Y502152D01*
X-295382Y501770D01*
X-294375Y501353D01*
X-293472Y500867D01*
X-292674Y500312D01*
X-292639Y500277D01*
X-292535Y500207D01*
X-292361Y500034D01*
X-292153Y499825D01*
X-291910Y499582D01*
X-291632Y499235D01*
X-291354Y498853D01*
X-291042Y498437D01*
X-290729Y497950D01*
X-290451Y497395D01*
X-290174Y496805D01*
X-289931Y496145D01*
X-289722Y495451D01*
X-289549Y494687D01*
X-289445Y493888D01*
X-289410Y493055D01*
Y492985D01*
Y492846D01*
X-289445Y492603D01*
X-289479Y492291D01*
X-289514Y491874D01*
X-289583Y491423D01*
X-289722Y490902D01*
X-289861Y490346D01*
X-290035Y489756D01*
X-290278Y489166D01*
X-290590Y488541D01*
X-290903Y487916D01*
X-291319Y487291D01*
X-291805Y486666D01*
X-292361Y486076D01*
X-292986Y485520D01*
X-293021Y485485D01*
X-293160Y485416D01*
X-293368Y485242D01*
X-293680Y485069D01*
X-294097Y484860D01*
X-294618Y484617D01*
X-295243Y484374D01*
X-295937Y484096D01*
X-296771Y483819D01*
X-297708Y483576D01*
X-298750Y483333D01*
X-299930Y483124D01*
X-301215Y482951D01*
X-302639Y482812D01*
X-304167Y482708D01*
X-305833Y482673D01*
X-306458D01*
X-306701Y482708D01*
X-307292D01*
X-308055Y482777D01*
X-308889Y482846D01*
X-309826Y482951D01*
X-310833Y483055D01*
X-311910Y483228D01*
X-312986Y483437D01*
X-314062Y483680D01*
X-315139Y483992D01*
X-316180Y484339D01*
X-317153Y484756D01*
X-318055Y485242D01*
X-318854Y485798D01*
X-318888Y485832D01*
X-318993Y485937D01*
X-319166Y486076D01*
X-319375Y486284D01*
X-319618Y486562D01*
X-319895Y486874D01*
X-320208Y487256D01*
X-320521Y487673D01*
X-320798Y488159D01*
X-321111Y488714D01*
X-321389Y489305D01*
X-321632Y489964D01*
X-321840Y490659D01*
X-322014Y491423D01*
X-322118Y492221D01*
X-322152Y493055D01*
Y493124D01*
Y493263D01*
X-322118Y493506D01*
Y493819D01*
X-322048Y494201D01*
X-321979Y494652D01*
X-321875Y495173D01*
X-321736Y495728D01*
X-321562Y496284D01*
X-321354Y496874D01*
X-321076Y497499D01*
X-320764Y498089D01*
X-320382Y498680D01*
X-319930Y499270D01*
X-319409Y499825D01*
X-318819Y500346D01*
X-318784Y500381D01*
X-318645Y500485D01*
X-318402Y500624D01*
X-318055Y500832D01*
X-317639Y501075D01*
X-317083Y501353D01*
X-316458Y501631D01*
X-315694Y501909D01*
X-314861Y502187D01*
X-313889Y502499D01*
X-312812Y502742D01*
X-311632Y502985D01*
X-310347Y503193D01*
X-308923Y503332D01*
X-307396Y503437D01*
X-305764Y503471D01*
X-305139D01*
X-304896Y503437D01*
D02*
G37*
%LPC*%
G36*
X-69063Y1237048D02*
X-69237D01*
X-69445Y1237014D01*
X-69723Y1236944D01*
X-70036Y1236875D01*
X-70383Y1236736D01*
X-70695Y1236562D01*
X-71042Y1236319D01*
X-71077Y1236284D01*
X-71181Y1236180D01*
X-71355Y1236007D01*
X-71529Y1235729D01*
X-71737Y1235382D01*
X-71980Y1234965D01*
X-72188Y1234409D01*
X-72397Y1233784D01*
Y1233750D01*
X-72431Y1233680D01*
X-72466Y1233541D01*
X-72501Y1233333D01*
X-72536Y1233055D01*
X-72605Y1232743D01*
X-72640Y1232326D01*
X-72709Y1231875D01*
X-72779Y1231354D01*
X-72813Y1230764D01*
X-72883Y1230104D01*
X-72917Y1229375D01*
X-72952Y1228611D01*
X-72987Y1227708D01*
X-73022Y1226771D01*
Y1225764D01*
Y1225694D01*
Y1225521D01*
Y1225243D01*
Y1224861D01*
X-72987Y1224375D01*
Y1223854D01*
Y1223298D01*
X-72952Y1222673D01*
X-72883Y1221389D01*
X-72779Y1220104D01*
X-72709Y1219479D01*
X-72640Y1218923D01*
X-72570Y1218437D01*
X-72466Y1217986D01*
Y1217951D01*
X-72431Y1217882D01*
X-72397Y1217778D01*
X-72362Y1217639D01*
X-72258Y1217292D01*
X-72084Y1216875D01*
X-71876Y1216389D01*
X-71633Y1215937D01*
X-71355Y1215521D01*
X-71042Y1215208D01*
X-71008Y1215173D01*
X-70904Y1215104D01*
X-70695Y1215000D01*
X-70452Y1214861D01*
X-70174Y1214722D01*
X-69827Y1214618D01*
X-69480Y1214548D01*
X-69063Y1214514D01*
X-68890D01*
X-68681Y1214548D01*
X-68404Y1214618D01*
X-68091Y1214687D01*
X-67744Y1214792D01*
X-67431Y1214965D01*
X-67084Y1215208D01*
X-67049Y1215243D01*
X-66945Y1215347D01*
X-66772Y1215521D01*
X-66598Y1215798D01*
X-66355Y1216146D01*
X-66147Y1216562D01*
X-65938Y1217118D01*
X-65730Y1217743D01*
Y1217778D01*
X-65695Y1217847D01*
X-65661Y1217986D01*
X-65626Y1218194D01*
X-65591Y1218472D01*
X-65522Y1218785D01*
X-65452Y1219166D01*
X-65383Y1219618D01*
X-65348Y1220139D01*
X-65279Y1220729D01*
X-65209Y1221389D01*
X-65174Y1222118D01*
X-65140Y1222916D01*
X-65105Y1223784D01*
X-65070Y1224757D01*
Y1225764D01*
Y1225833D01*
Y1226007D01*
Y1226284D01*
Y1226666D01*
Y1227118D01*
X-65105Y1227673D01*
Y1228229D01*
X-65140Y1228854D01*
X-65209Y1230139D01*
X-65313Y1231389D01*
X-65383Y1232014D01*
X-65452Y1232569D01*
X-65557Y1233055D01*
X-65661Y1233507D01*
Y1233541D01*
X-65695Y1233611D01*
X-65730Y1233715D01*
X-65765Y1233854D01*
X-65869Y1234201D01*
X-66043Y1234652D01*
X-66251Y1235139D01*
X-66494Y1235590D01*
X-66772Y1236007D01*
X-67084Y1236319D01*
X-67119Y1236354D01*
X-67223Y1236423D01*
X-67431Y1236562D01*
X-67640Y1236701D01*
X-67952Y1236805D01*
X-68299Y1236944D01*
X-68647Y1237014D01*
X-69063Y1237048D01*
D02*
G37*
G36*
X-44168D02*
X-44341D01*
X-44550Y1237014D01*
X-44827Y1236944D01*
X-45140Y1236875D01*
X-45487Y1236736D01*
X-45800Y1236562D01*
X-46147Y1236319D01*
X-46182Y1236284D01*
X-46286Y1236180D01*
X-46459Y1236007D01*
X-46633Y1235729D01*
X-46841Y1235382D01*
X-47084Y1234965D01*
X-47293Y1234409D01*
X-47501Y1233784D01*
Y1233750D01*
X-47536Y1233680D01*
X-47571Y1233541D01*
X-47605Y1233333D01*
X-47640Y1233055D01*
X-47709Y1232743D01*
X-47744Y1232326D01*
X-47814Y1231875D01*
X-47883Y1231354D01*
X-47918Y1230764D01*
X-47987Y1230104D01*
X-48022Y1229375D01*
X-48057Y1228611D01*
X-48091Y1227708D01*
X-48126Y1226771D01*
Y1225764D01*
Y1225694D01*
Y1225521D01*
Y1225243D01*
Y1224861D01*
X-48091Y1224375D01*
Y1223854D01*
Y1223298D01*
X-48057Y1222673D01*
X-47987Y1221389D01*
X-47883Y1220104D01*
X-47814Y1219479D01*
X-47744Y1218923D01*
X-47675Y1218437D01*
X-47571Y1217986D01*
Y1217951D01*
X-47536Y1217882D01*
X-47501Y1217778D01*
X-47466Y1217639D01*
X-47362Y1217292D01*
X-47189Y1216875D01*
X-46980Y1216389D01*
X-46737Y1215937D01*
X-46459Y1215521D01*
X-46147Y1215208D01*
X-46112Y1215173D01*
X-46008Y1215104D01*
X-45800Y1215000D01*
X-45557Y1214861D01*
X-45279Y1214722D01*
X-44932Y1214618D01*
X-44584Y1214548D01*
X-44168Y1214514D01*
X-43994D01*
X-43786Y1214548D01*
X-43508Y1214618D01*
X-43196Y1214687D01*
X-42848Y1214792D01*
X-42536Y1214965D01*
X-42189Y1215208D01*
X-42154Y1215243D01*
X-42050Y1215347D01*
X-41876Y1215521D01*
X-41703Y1215798D01*
X-41459Y1216146D01*
X-41251Y1216562D01*
X-41043Y1217118D01*
X-40834Y1217743D01*
Y1217778D01*
X-40800Y1217847D01*
X-40765Y1217986D01*
X-40730Y1218194D01*
X-40696Y1218472D01*
X-40626Y1218785D01*
X-40557Y1219166D01*
X-40487Y1219618D01*
X-40453Y1220139D01*
X-40383Y1220729D01*
X-40314Y1221389D01*
X-40279Y1222118D01*
X-40244Y1222916D01*
X-40209Y1223784D01*
X-40175Y1224757D01*
Y1225764D01*
Y1225833D01*
Y1226007D01*
Y1226284D01*
Y1226666D01*
Y1227118D01*
X-40209Y1227673D01*
Y1228229D01*
X-40244Y1228854D01*
X-40314Y1230139D01*
X-40418Y1231389D01*
X-40487Y1232014D01*
X-40557Y1232569D01*
X-40661Y1233055D01*
X-40765Y1233507D01*
Y1233541D01*
X-40800Y1233611D01*
X-40834Y1233715D01*
X-40869Y1233854D01*
X-40973Y1234201D01*
X-41147Y1234652D01*
X-41355Y1235139D01*
X-41598Y1235590D01*
X-41876Y1236007D01*
X-42189Y1236319D01*
X-42223Y1236354D01*
X-42328Y1236423D01*
X-42536Y1236562D01*
X-42744Y1236701D01*
X-43057Y1236805D01*
X-43404Y1236944D01*
X-43751Y1237014D01*
X-44168Y1237048D01*
D02*
G37*
G36*
X413611Y1237291D02*
X413333D01*
X412986Y1237222D01*
X412604Y1237152D01*
X412152Y1237014D01*
X411666Y1236840D01*
X411215Y1236562D01*
X410798Y1236215D01*
X410764Y1236180D01*
X410625Y1236041D01*
X410486Y1235798D01*
X410277Y1235486D01*
X410104Y1235069D01*
X409930Y1234618D01*
X409791Y1234062D01*
X409757Y1233437D01*
Y1233402D01*
Y1233368D01*
Y1233264D01*
Y1233125D01*
X409826Y1232812D01*
X409896Y1232396D01*
X410000Y1231909D01*
X410173Y1231458D01*
X410416Y1230972D01*
X410764Y1230555D01*
X410798Y1230521D01*
X410972Y1230416D01*
X411180Y1230243D01*
X411493Y1230069D01*
X411909Y1229861D01*
X412361Y1229722D01*
X412916Y1229583D01*
X413541Y1229548D01*
X413611D01*
X413819Y1229583D01*
X414166Y1229618D01*
X414548Y1229687D01*
X415000Y1229791D01*
X415486Y1230000D01*
X415937Y1230243D01*
X416354Y1230590D01*
X416388Y1230625D01*
X416527Y1230798D01*
X416701Y1231007D01*
X416909Y1231354D01*
X417083Y1231736D01*
X417257Y1232257D01*
X417395Y1232812D01*
X417430Y1233472D01*
Y1233507D01*
Y1233541D01*
Y1233750D01*
X417361Y1234062D01*
X417291Y1234444D01*
X417187Y1234895D01*
X416979Y1235347D01*
X416736Y1235798D01*
X416388Y1236215D01*
X416354Y1236250D01*
X416215Y1236389D01*
X415972Y1236562D01*
X415659Y1236770D01*
X415243Y1236944D01*
X414791Y1237118D01*
X414236Y1237257D01*
X413611Y1237291D01*
D02*
G37*
G36*
X413645Y1224687D02*
X413437D01*
X413264Y1224653D01*
X412882Y1224618D01*
X412395Y1224479D01*
X411840Y1224305D01*
X411284Y1224028D01*
X410729Y1223646D01*
X410486Y1223403D01*
X410277Y1223125D01*
X410243Y1223055D01*
X410104Y1222847D01*
X409930Y1222535D01*
X409757Y1222118D01*
X409548Y1221597D01*
X409375Y1221041D01*
X409236Y1220382D01*
X409201Y1219722D01*
Y1219687D01*
Y1219618D01*
Y1219479D01*
X409236Y1219305D01*
Y1219097D01*
X409271Y1218854D01*
X409375Y1218264D01*
X409514Y1217639D01*
X409757Y1216979D01*
X410069Y1216354D01*
X410486Y1215764D01*
X410555Y1215694D01*
X410729Y1215555D01*
X411007Y1215312D01*
X411389Y1215069D01*
X411875Y1214792D01*
X412430Y1214548D01*
X413055Y1214410D01*
X413750Y1214340D01*
X413923D01*
X414062Y1214375D01*
X414409Y1214410D01*
X414861Y1214514D01*
X415347Y1214687D01*
X415902Y1214896D01*
X416423Y1215243D01*
X416909Y1215694D01*
X416979Y1215764D01*
X417118Y1215937D01*
X417291Y1216285D01*
X417534Y1216701D01*
X417777Y1217257D01*
X417951Y1217951D01*
X418090Y1218750D01*
X418159Y1219653D01*
Y1219687D01*
Y1219757D01*
Y1219861D01*
X418125Y1220035D01*
X418090Y1220451D01*
X417986Y1220972D01*
X417847Y1221528D01*
X417604Y1222153D01*
X417291Y1222743D01*
X416875Y1223298D01*
X416805Y1223368D01*
X416632Y1223507D01*
X416354Y1223750D01*
X416007Y1223993D01*
X415520Y1224236D01*
X414965Y1224479D01*
X414340Y1224618D01*
X413645Y1224687D01*
D02*
G37*
G36*
X450937Y1237048D02*
X450763D01*
X450555Y1237014D01*
X450277Y1236944D01*
X449964Y1236875D01*
X449617Y1236736D01*
X449305Y1236562D01*
X448957Y1236319D01*
X448923Y1236284D01*
X448819Y1236180D01*
X448645Y1236007D01*
X448471Y1235729D01*
X448263Y1235382D01*
X448020Y1234965D01*
X447812Y1234409D01*
X447603Y1233784D01*
Y1233750D01*
X447569Y1233680D01*
X447534Y1233541D01*
X447499Y1233333D01*
X447464Y1233055D01*
X447395Y1232743D01*
X447360Y1232326D01*
X447291Y1231875D01*
X447221Y1231354D01*
X447187Y1230764D01*
X447117Y1230104D01*
X447082Y1229375D01*
X447048Y1228611D01*
X447013Y1227708D01*
X446978Y1226771D01*
Y1225764D01*
Y1225694D01*
Y1225521D01*
Y1225243D01*
Y1224861D01*
X447013Y1224375D01*
Y1223854D01*
Y1223298D01*
X447048Y1222673D01*
X447117Y1221389D01*
X447221Y1220104D01*
X447291Y1219479D01*
X447360Y1218923D01*
X447430Y1218437D01*
X447534Y1217986D01*
Y1217951D01*
X447569Y1217882D01*
X447603Y1217778D01*
X447638Y1217639D01*
X447742Y1217292D01*
X447916Y1216875D01*
X448124Y1216389D01*
X448367Y1215937D01*
X448645Y1215521D01*
X448957Y1215208D01*
X448992Y1215173D01*
X449096Y1215104D01*
X449305Y1215000D01*
X449548Y1214861D01*
X449826Y1214722D01*
X450173Y1214618D01*
X450520Y1214548D01*
X450937Y1214514D01*
X451110D01*
X451319Y1214548D01*
X451596Y1214618D01*
X451909Y1214687D01*
X452256Y1214792D01*
X452569Y1214965D01*
X452916Y1215208D01*
X452951Y1215243D01*
X453055Y1215347D01*
X453228Y1215521D01*
X453402Y1215798D01*
X453645Y1216146D01*
X453853Y1216562D01*
X454062Y1217118D01*
X454270Y1217743D01*
Y1217778D01*
X454305Y1217847D01*
X454339Y1217986D01*
X454374Y1218194D01*
X454409Y1218472D01*
X454478Y1218785D01*
X454548Y1219166D01*
X454617Y1219618D01*
X454652Y1220139D01*
X454721Y1220729D01*
X454791Y1221389D01*
X454826Y1222118D01*
X454860Y1222916D01*
X454895Y1223784D01*
X454930Y1224757D01*
Y1225764D01*
Y1225833D01*
Y1226007D01*
Y1226284D01*
Y1226666D01*
Y1227118D01*
X454895Y1227673D01*
Y1228229D01*
X454860Y1228854D01*
X454791Y1230139D01*
X454687Y1231389D01*
X454617Y1232014D01*
X454548Y1232569D01*
X454444Y1233055D01*
X454339Y1233507D01*
Y1233541D01*
X454305Y1233611D01*
X454270Y1233715D01*
X454235Y1233854D01*
X454131Y1234201D01*
X453957Y1234652D01*
X453749Y1235139D01*
X453506Y1235590D01*
X453228Y1236007D01*
X452916Y1236319D01*
X452881Y1236354D01*
X452777Y1236423D01*
X452569Y1236562D01*
X452360Y1236701D01*
X452048Y1236805D01*
X451701Y1236944D01*
X451353Y1237014D01*
X450937Y1237048D01*
D02*
G37*
G36*
X475832D02*
X475659D01*
X475450Y1237014D01*
X475173Y1236944D01*
X474860Y1236875D01*
X474513Y1236736D01*
X474200Y1236562D01*
X473853Y1236319D01*
X473818Y1236284D01*
X473714Y1236180D01*
X473540Y1236007D01*
X473367Y1235729D01*
X473159Y1235382D01*
X472915Y1234965D01*
X472707Y1234409D01*
X472499Y1233784D01*
Y1233750D01*
X472464Y1233680D01*
X472429Y1233541D01*
X472395Y1233333D01*
X472360Y1233055D01*
X472290Y1232743D01*
X472256Y1232326D01*
X472186Y1231875D01*
X472117Y1231354D01*
X472082Y1230764D01*
X472013Y1230104D01*
X471978Y1229375D01*
X471943Y1228611D01*
X471909Y1227708D01*
X471874Y1226771D01*
Y1225764D01*
Y1225694D01*
Y1225521D01*
Y1225243D01*
Y1224861D01*
X471909Y1224375D01*
Y1223854D01*
Y1223298D01*
X471943Y1222673D01*
X472013Y1221389D01*
X472117Y1220104D01*
X472186Y1219479D01*
X472256Y1218923D01*
X472325Y1218437D01*
X472429Y1217986D01*
Y1217951D01*
X472464Y1217882D01*
X472499Y1217778D01*
X472534Y1217639D01*
X472638Y1217292D01*
X472811Y1216875D01*
X473020Y1216389D01*
X473263Y1215937D01*
X473540Y1215521D01*
X473853Y1215208D01*
X473888Y1215173D01*
X473992Y1215104D01*
X474200Y1215000D01*
X474443Y1214861D01*
X474721Y1214722D01*
X475068Y1214618D01*
X475415Y1214548D01*
X475832Y1214514D01*
X476006D01*
X476214Y1214548D01*
X476492Y1214618D01*
X476804Y1214687D01*
X477152Y1214792D01*
X477464Y1214965D01*
X477811Y1215208D01*
X477846Y1215243D01*
X477950Y1215347D01*
X478124Y1215521D01*
X478297Y1215798D01*
X478540Y1216146D01*
X478749Y1216562D01*
X478957Y1217118D01*
X479165Y1217743D01*
Y1217778D01*
X479200Y1217847D01*
X479235Y1217986D01*
X479270Y1218194D01*
X479304Y1218472D01*
X479374Y1218785D01*
X479443Y1219166D01*
X479513Y1219618D01*
X479547Y1220139D01*
X479617Y1220729D01*
X479686Y1221389D01*
X479721Y1222118D01*
X479756Y1222916D01*
X479790Y1223784D01*
X479825Y1224757D01*
Y1225764D01*
Y1225833D01*
Y1226007D01*
Y1226284D01*
Y1226666D01*
Y1227118D01*
X479790Y1227673D01*
Y1228229D01*
X479756Y1228854D01*
X479686Y1230139D01*
X479582Y1231389D01*
X479513Y1232014D01*
X479443Y1232569D01*
X479339Y1233055D01*
X479235Y1233507D01*
Y1233541D01*
X479200Y1233611D01*
X479165Y1233715D01*
X479131Y1233854D01*
X479027Y1234201D01*
X478853Y1234652D01*
X478645Y1235139D01*
X478402Y1235590D01*
X478124Y1236007D01*
X477811Y1236319D01*
X477777Y1236354D01*
X477672Y1236423D01*
X477464Y1236562D01*
X477256Y1236701D01*
X476943Y1236805D01*
X476596Y1236944D01*
X476249Y1237014D01*
X475832Y1237048D01*
D02*
G37*
G36*
X-106355Y1224687D02*
X-106563D01*
X-106736Y1224653D01*
X-107119Y1224618D01*
X-107605Y1224479D01*
X-108160Y1224305D01*
X-108716Y1224028D01*
X-109271Y1223646D01*
X-109514Y1223403D01*
X-109723Y1223125D01*
X-109757Y1223055D01*
X-109896Y1222847D01*
X-110070Y1222535D01*
X-110243Y1222118D01*
X-110452Y1221597D01*
X-110625Y1221041D01*
X-110764Y1220382D01*
X-110799Y1219722D01*
Y1219687D01*
Y1219618D01*
Y1219479D01*
X-110764Y1219305D01*
Y1219097D01*
X-110730Y1218854D01*
X-110625Y1218264D01*
X-110486Y1217639D01*
X-110243Y1216979D01*
X-109931Y1216354D01*
X-109514Y1215764D01*
X-109445Y1215694D01*
X-109271Y1215555D01*
X-108993Y1215312D01*
X-108611Y1215069D01*
X-108125Y1214792D01*
X-107570Y1214548D01*
X-106945Y1214410D01*
X-106250Y1214340D01*
X-106077D01*
X-105938Y1214375D01*
X-105591Y1214410D01*
X-105139Y1214514D01*
X-104653Y1214687D01*
X-104098Y1214896D01*
X-103577Y1215243D01*
X-103091Y1215694D01*
X-103021Y1215764D01*
X-102882Y1215937D01*
X-102709Y1216285D01*
X-102466Y1216701D01*
X-102223Y1217257D01*
X-102049Y1217951D01*
X-101910Y1218750D01*
X-101841Y1219653D01*
Y1219687D01*
Y1219757D01*
Y1219861D01*
X-101875Y1220035D01*
X-101910Y1220451D01*
X-102014Y1220972D01*
X-102153Y1221528D01*
X-102396Y1222153D01*
X-102709Y1222743D01*
X-103125Y1223298D01*
X-103195Y1223368D01*
X-103369Y1223507D01*
X-103646Y1223750D01*
X-103994Y1223993D01*
X-104480Y1224236D01*
X-105035Y1224479D01*
X-105660Y1224618D01*
X-106355Y1224687D01*
D02*
G37*
G36*
X-106389Y1237291D02*
X-106667D01*
X-107014Y1237222D01*
X-107396Y1237152D01*
X-107848Y1237014D01*
X-108334Y1236840D01*
X-108785Y1236562D01*
X-109202Y1236215D01*
X-109236Y1236180D01*
X-109375Y1236041D01*
X-109514Y1235798D01*
X-109723Y1235486D01*
X-109896Y1235069D01*
X-110070Y1234618D01*
X-110209Y1234062D01*
X-110243Y1233437D01*
Y1233402D01*
Y1233368D01*
Y1233264D01*
Y1233125D01*
X-110174Y1232812D01*
X-110105Y1232396D01*
X-110000Y1231909D01*
X-109827Y1231458D01*
X-109584Y1230972D01*
X-109236Y1230555D01*
X-109202Y1230521D01*
X-109028Y1230416D01*
X-108820Y1230243D01*
X-108507Y1230069D01*
X-108091Y1229861D01*
X-107639Y1229722D01*
X-107084Y1229583D01*
X-106459Y1229548D01*
X-106389D01*
X-106181Y1229583D01*
X-105834Y1229618D01*
X-105452Y1229687D01*
X-105000Y1229791D01*
X-104514Y1230000D01*
X-104063Y1230243D01*
X-103646Y1230590D01*
X-103612Y1230625D01*
X-103473Y1230798D01*
X-103299Y1231007D01*
X-103091Y1231354D01*
X-102917Y1231736D01*
X-102744Y1232257D01*
X-102605Y1232812D01*
X-102570Y1233472D01*
Y1233507D01*
Y1233541D01*
Y1233750D01*
X-102639Y1234062D01*
X-102709Y1234444D01*
X-102813Y1234895D01*
X-103021Y1235347D01*
X-103264Y1235798D01*
X-103612Y1236215D01*
X-103646Y1236250D01*
X-103785Y1236389D01*
X-104028Y1236562D01*
X-104341Y1236770D01*
X-104757Y1236944D01*
X-105209Y1237118D01*
X-105764Y1237257D01*
X-106389Y1237291D01*
D02*
G37*
G36*
X157152Y1232743D02*
X149826Y1221840D01*
X157152D01*
Y1232743D01*
D02*
G37*
G36*
X192812Y1237048D02*
X192638D01*
X192430Y1237014D01*
X192152Y1236944D01*
X191839Y1236875D01*
X191492Y1236736D01*
X191180Y1236562D01*
X190833Y1236319D01*
X190798Y1236284D01*
X190694Y1236180D01*
X190520Y1236007D01*
X190346Y1235729D01*
X190138Y1235382D01*
X189895Y1234965D01*
X189687Y1234409D01*
X189478Y1233784D01*
Y1233750D01*
X189444Y1233680D01*
X189409Y1233541D01*
X189374Y1233333D01*
X189339Y1233055D01*
X189270Y1232743D01*
X189235Y1232326D01*
X189166Y1231875D01*
X189096Y1231354D01*
X189062Y1230764D01*
X188992Y1230104D01*
X188958Y1229375D01*
X188923Y1228611D01*
X188888Y1227708D01*
X188853Y1226771D01*
Y1225764D01*
Y1225694D01*
Y1225521D01*
Y1225243D01*
Y1224861D01*
X188888Y1224375D01*
Y1223854D01*
Y1223298D01*
X188923Y1222673D01*
X188992Y1221389D01*
X189096Y1220104D01*
X189166Y1219479D01*
X189235Y1218923D01*
X189305Y1218437D01*
X189409Y1217986D01*
Y1217951D01*
X189444Y1217882D01*
X189478Y1217778D01*
X189513Y1217639D01*
X189617Y1217292D01*
X189791Y1216875D01*
X189999Y1216389D01*
X190242Y1215937D01*
X190520Y1215521D01*
X190833Y1215208D01*
X190867Y1215173D01*
X190971Y1215104D01*
X191180Y1215000D01*
X191423Y1214861D01*
X191700Y1214722D01*
X192048Y1214618D01*
X192395Y1214548D01*
X192812Y1214514D01*
X192985D01*
X193193Y1214548D01*
X193471Y1214618D01*
X193784Y1214687D01*
X194131Y1214792D01*
X194443Y1214965D01*
X194791Y1215208D01*
X194825Y1215243D01*
X194930Y1215347D01*
X195103Y1215521D01*
X195277Y1215798D01*
X195520Y1216146D01*
X195728Y1216562D01*
X195937Y1217118D01*
X196145Y1217743D01*
Y1217778D01*
X196180Y1217847D01*
X196214Y1217986D01*
X196249Y1218194D01*
X196284Y1218472D01*
X196353Y1218785D01*
X196423Y1219166D01*
X196492Y1219618D01*
X196527Y1220139D01*
X196596Y1220729D01*
X196666Y1221389D01*
X196700Y1222118D01*
X196735Y1222916D01*
X196770Y1223784D01*
X196805Y1224757D01*
Y1225764D01*
Y1225833D01*
Y1226007D01*
Y1226284D01*
Y1226666D01*
Y1227118D01*
X196770Y1227673D01*
Y1228229D01*
X196735Y1228854D01*
X196666Y1230139D01*
X196562Y1231389D01*
X196492Y1232014D01*
X196423Y1232569D01*
X196318Y1233055D01*
X196214Y1233507D01*
Y1233541D01*
X196180Y1233611D01*
X196145Y1233715D01*
X196110Y1233854D01*
X196006Y1234201D01*
X195832Y1234652D01*
X195624Y1235139D01*
X195381Y1235590D01*
X195103Y1236007D01*
X194791Y1236319D01*
X194756Y1236354D01*
X194652Y1236423D01*
X194443Y1236562D01*
X194235Y1236701D01*
X193923Y1236805D01*
X193575Y1236944D01*
X193228Y1237014D01*
X192812Y1237048D01*
D02*
G37*
G36*
X217707D02*
X217533D01*
X217325Y1237014D01*
X217047Y1236944D01*
X216735Y1236875D01*
X216388Y1236736D01*
X216075Y1236562D01*
X215728Y1236319D01*
X215693Y1236284D01*
X215589Y1236180D01*
X215415Y1236007D01*
X215242Y1235729D01*
X215034Y1235382D01*
X214790Y1234965D01*
X214582Y1234409D01*
X214374Y1233784D01*
Y1233750D01*
X214339Y1233680D01*
X214304Y1233541D01*
X214270Y1233333D01*
X214235Y1233055D01*
X214165Y1232743D01*
X214131Y1232326D01*
X214061Y1231875D01*
X213992Y1231354D01*
X213957Y1230764D01*
X213888Y1230104D01*
X213853Y1229375D01*
X213818Y1228611D01*
X213784Y1227708D01*
X213749Y1226771D01*
Y1225764D01*
Y1225694D01*
Y1225521D01*
Y1225243D01*
Y1224861D01*
X213784Y1224375D01*
Y1223854D01*
Y1223298D01*
X213818Y1222673D01*
X213888Y1221389D01*
X213992Y1220104D01*
X214061Y1219479D01*
X214131Y1218923D01*
X214200Y1218437D01*
X214304Y1217986D01*
Y1217951D01*
X214339Y1217882D01*
X214374Y1217778D01*
X214409Y1217639D01*
X214513Y1217292D01*
X214686Y1216875D01*
X214895Y1216389D01*
X215138Y1215937D01*
X215415Y1215521D01*
X215728Y1215208D01*
X215763Y1215173D01*
X215867Y1215104D01*
X216075Y1215000D01*
X216318Y1214861D01*
X216596Y1214722D01*
X216943Y1214618D01*
X217290Y1214548D01*
X217707Y1214514D01*
X217881D01*
X218089Y1214548D01*
X218367Y1214618D01*
X218679Y1214687D01*
X219027Y1214792D01*
X219339Y1214965D01*
X219686Y1215208D01*
X219721Y1215243D01*
X219825Y1215347D01*
X219999Y1215521D01*
X220172Y1215798D01*
X220415Y1216146D01*
X220624Y1216562D01*
X220832Y1217118D01*
X221040Y1217743D01*
Y1217778D01*
X221075Y1217847D01*
X221110Y1217986D01*
X221145Y1218194D01*
X221179Y1218472D01*
X221249Y1218785D01*
X221318Y1219166D01*
X221388Y1219618D01*
X221422Y1220139D01*
X221492Y1220729D01*
X221561Y1221389D01*
X221596Y1222118D01*
X221631Y1222916D01*
X221665Y1223784D01*
X221700Y1224757D01*
Y1225764D01*
Y1225833D01*
Y1226007D01*
Y1226284D01*
Y1226666D01*
Y1227118D01*
X221665Y1227673D01*
Y1228229D01*
X221631Y1228854D01*
X221561Y1230139D01*
X221457Y1231389D01*
X221388Y1232014D01*
X221318Y1232569D01*
X221214Y1233055D01*
X221110Y1233507D01*
Y1233541D01*
X221075Y1233611D01*
X221040Y1233715D01*
X221006Y1233854D01*
X220902Y1234201D01*
X220728Y1234652D01*
X220520Y1235139D01*
X220277Y1235590D01*
X219999Y1236007D01*
X219686Y1236319D01*
X219652Y1236354D01*
X219547Y1236423D01*
X219339Y1236562D01*
X219131Y1236701D01*
X218818Y1236805D01*
X218471Y1236944D01*
X218124Y1237014D01*
X217707Y1237048D01*
D02*
G37*
G36*
X-304757Y-3334D02*
X-307118D01*
X-307673Y-3369D01*
X-308229D01*
X-308854Y-3404D01*
X-310139Y-3473D01*
X-311389Y-3577D01*
X-312014Y-3647D01*
X-312569Y-3716D01*
X-313055Y-3820D01*
X-313507Y-3925D01*
X-313541D01*
X-313611Y-3959D01*
X-313715Y-3994D01*
X-313854Y-4029D01*
X-314201Y-4133D01*
X-314653Y-4306D01*
X-315139Y-4515D01*
X-315590Y-4758D01*
X-316007Y-5036D01*
X-316319Y-5348D01*
X-316354Y-5383D01*
X-316423Y-5487D01*
X-316562Y-5695D01*
X-316701Y-5904D01*
X-316805Y-6216D01*
X-316944Y-6563D01*
X-317014Y-6911D01*
X-317048Y-7327D01*
Y-7362D01*
Y-7501D01*
X-317014Y-7709D01*
X-316944Y-7987D01*
X-316875Y-8299D01*
X-316736Y-8647D01*
X-316562Y-8959D01*
X-316319Y-9306D01*
X-316284Y-9341D01*
X-316180Y-9445D01*
X-316007Y-9619D01*
X-315729Y-9793D01*
X-315382Y-10001D01*
X-314965Y-10244D01*
X-314409Y-10452D01*
X-313784Y-10661D01*
X-313750D01*
X-313680Y-10695D01*
X-313541Y-10730D01*
X-313333Y-10765D01*
X-313055Y-10799D01*
X-312743Y-10869D01*
X-312326Y-10904D01*
X-311875Y-10973D01*
X-311354Y-11042D01*
X-310764Y-11077D01*
X-310104Y-11147D01*
X-309375Y-11181D01*
X-308611Y-11216D01*
X-307708Y-11251D01*
X-306771Y-11286D01*
X-304861D01*
X-304375Y-11251D01*
X-303298D01*
X-302673Y-11216D01*
X-301389Y-11147D01*
X-300104Y-11042D01*
X-299479Y-10973D01*
X-298923Y-10904D01*
X-298437Y-10834D01*
X-297986Y-10730D01*
X-297951D01*
X-297882Y-10695D01*
X-297778Y-10661D01*
X-297639Y-10626D01*
X-297292Y-10522D01*
X-296875Y-10348D01*
X-296389Y-10140D01*
X-295937Y-9897D01*
X-295521Y-9619D01*
X-295208Y-9306D01*
X-295174Y-9272D01*
X-295104Y-9168D01*
X-295000Y-8959D01*
X-294861Y-8716D01*
X-294722Y-8438D01*
X-294618Y-8091D01*
X-294549Y-7744D01*
X-294514Y-7327D01*
Y-7293D01*
Y-7154D01*
X-294549Y-6945D01*
X-294618Y-6668D01*
X-294687Y-6355D01*
X-294792Y-6008D01*
X-294965Y-5695D01*
X-295208Y-5348D01*
X-295243Y-5313D01*
X-295347Y-5209D01*
X-295521Y-5036D01*
X-295798Y-4862D01*
X-296146Y-4619D01*
X-296562Y-4411D01*
X-297118Y-4202D01*
X-297743Y-3994D01*
X-297778D01*
X-297847Y-3959D01*
X-297986Y-3925D01*
X-298194Y-3890D01*
X-298472Y-3855D01*
X-298785Y-3786D01*
X-299167Y-3716D01*
X-299618Y-3647D01*
X-300139Y-3612D01*
X-300729Y-3543D01*
X-301389Y-3473D01*
X-302118Y-3438D01*
X-302917Y-3404D01*
X-303785Y-3369D01*
X-304757Y-3334D01*
D02*
G37*
G36*
X-313472Y-65729D02*
X-313750D01*
X-314062Y-65799D01*
X-314444Y-65868D01*
X-314895Y-65972D01*
X-315347Y-66181D01*
X-315798Y-66424D01*
X-316215Y-66771D01*
X-316250Y-66806D01*
X-316389Y-66945D01*
X-316562Y-67188D01*
X-316770Y-67500D01*
X-316944Y-67917D01*
X-317118Y-68368D01*
X-317257Y-68924D01*
X-317291Y-69549D01*
Y-69584D01*
Y-69618D01*
Y-69826D01*
X-317222Y-70174D01*
X-317153Y-70556D01*
X-317014Y-71007D01*
X-316840Y-71493D01*
X-316562Y-71944D01*
X-316215Y-72361D01*
X-316180Y-72396D01*
X-316041Y-72535D01*
X-315798Y-72674D01*
X-315486Y-72882D01*
X-315069Y-73056D01*
X-314618Y-73229D01*
X-314062Y-73368D01*
X-313437Y-73403D01*
X-313125D01*
X-312812Y-73333D01*
X-312396Y-73264D01*
X-311910Y-73160D01*
X-311458Y-72986D01*
X-310972Y-72743D01*
X-310555Y-72396D01*
X-310521Y-72361D01*
X-310416Y-72188D01*
X-310243Y-71979D01*
X-310069Y-71667D01*
X-309861Y-71250D01*
X-309722Y-70799D01*
X-309583Y-70243D01*
X-309548Y-69618D01*
Y-69584D01*
Y-69549D01*
X-309583Y-69340D01*
X-309618Y-68993D01*
X-309687Y-68611D01*
X-309791Y-68160D01*
X-310000Y-67674D01*
X-310243Y-67222D01*
X-310590Y-66806D01*
X-310625Y-66771D01*
X-310798Y-66632D01*
X-311007Y-66459D01*
X-311354Y-66250D01*
X-311736Y-66077D01*
X-312257Y-65903D01*
X-312812Y-65764D01*
X-313472Y-65729D01*
D02*
G37*
G36*
X-299653Y-65000D02*
X-299861D01*
X-300035Y-65035D01*
X-300451Y-65070D01*
X-300972Y-65174D01*
X-301528Y-65313D01*
X-302153Y-65556D01*
X-302743Y-65868D01*
X-303298Y-66285D01*
X-303368Y-66354D01*
X-303507Y-66528D01*
X-303750Y-66806D01*
X-303993Y-67153D01*
X-304236Y-67639D01*
X-304479Y-68195D01*
X-304618Y-68820D01*
X-304687Y-69514D01*
Y-69549D01*
Y-69618D01*
Y-69722D01*
X-304653Y-69896D01*
X-304618Y-70278D01*
X-304479Y-70764D01*
X-304305Y-71319D01*
X-304028Y-71875D01*
X-303646Y-72431D01*
X-303403Y-72674D01*
X-303125Y-72882D01*
X-303055Y-72917D01*
X-302847Y-73056D01*
X-302535Y-73229D01*
X-302118Y-73403D01*
X-301597Y-73611D01*
X-301042Y-73785D01*
X-300382Y-73924D01*
X-299722Y-73958D01*
X-299479D01*
X-299305Y-73924D01*
X-299097D01*
X-298854Y-73889D01*
X-298264Y-73785D01*
X-297639Y-73646D01*
X-296979Y-73403D01*
X-296354Y-73090D01*
X-295764Y-72674D01*
X-295694Y-72604D01*
X-295555Y-72431D01*
X-295312Y-72153D01*
X-295069Y-71771D01*
X-294792Y-71285D01*
X-294549Y-70729D01*
X-294410Y-70104D01*
X-294340Y-69410D01*
Y-69375D01*
Y-69340D01*
Y-69236D01*
X-294375Y-69097D01*
X-294410Y-68750D01*
X-294514Y-68299D01*
X-294687Y-67813D01*
X-294896Y-67257D01*
X-295243Y-66736D01*
X-295694Y-66250D01*
X-295764Y-66181D01*
X-295937Y-66042D01*
X-296285Y-65868D01*
X-296701Y-65625D01*
X-297257Y-65382D01*
X-297951Y-65209D01*
X-298750Y-65070D01*
X-299653Y-65000D01*
D02*
G37*
G36*
X-314757Y1016666D02*
X-317118D01*
X-317673Y1016631D01*
X-318229D01*
X-318854Y1016596D01*
X-320139Y1016527D01*
X-321389Y1016423D01*
X-322014Y1016353D01*
X-322569Y1016284D01*
X-323055Y1016180D01*
X-323507Y1016076D01*
X-323541D01*
X-323611Y1016041D01*
X-323715Y1016006D01*
X-323854Y1015971D01*
X-324201Y1015867D01*
X-324652Y1015694D01*
X-325139Y1015485D01*
X-325590Y1015242D01*
X-326007Y1014964D01*
X-326319Y1014652D01*
X-326354Y1014617D01*
X-326423Y1014513D01*
X-326562Y1014305D01*
X-326701Y1014096D01*
X-326805Y1013784D01*
X-326944Y1013437D01*
X-327014Y1013089D01*
X-327048Y1012673D01*
Y1012638D01*
Y1012499D01*
X-327014Y1012291D01*
X-326944Y1012013D01*
X-326875Y1011701D01*
X-326736Y1011353D01*
X-326562Y1011041D01*
X-326319Y1010694D01*
X-326284Y1010659D01*
X-326180Y1010555D01*
X-326007Y1010381D01*
X-325729Y1010208D01*
X-325382Y1009999D01*
X-324965Y1009756D01*
X-324409Y1009548D01*
X-323784Y1009339D01*
X-323750D01*
X-323680Y1009305D01*
X-323541Y1009270D01*
X-323333Y1009235D01*
X-323055Y1009201D01*
X-322743Y1009131D01*
X-322326Y1009096D01*
X-321875Y1009027D01*
X-321354Y1008958D01*
X-320764Y1008923D01*
X-320104Y1008853D01*
X-319375Y1008819D01*
X-318611Y1008784D01*
X-317708Y1008749D01*
X-316771Y1008714D01*
X-314861D01*
X-314375Y1008749D01*
X-313298D01*
X-312673Y1008784D01*
X-311389Y1008853D01*
X-310104Y1008958D01*
X-309479Y1009027D01*
X-308923Y1009096D01*
X-308437Y1009166D01*
X-307986Y1009270D01*
X-307951D01*
X-307882Y1009305D01*
X-307778Y1009339D01*
X-307639Y1009374D01*
X-307292Y1009478D01*
X-306875Y1009652D01*
X-306389Y1009860D01*
X-305937Y1010103D01*
X-305521Y1010381D01*
X-305208Y1010694D01*
X-305174Y1010728D01*
X-305104Y1010833D01*
X-305000Y1011041D01*
X-304861Y1011284D01*
X-304722Y1011562D01*
X-304618Y1011909D01*
X-304549Y1012256D01*
X-304514Y1012673D01*
Y1012707D01*
Y1012846D01*
X-304549Y1013055D01*
X-304618Y1013332D01*
X-304688Y1013645D01*
X-304792Y1013992D01*
X-304965Y1014305D01*
X-305208Y1014652D01*
X-305243Y1014687D01*
X-305347Y1014791D01*
X-305521Y1014964D01*
X-305799Y1015138D01*
X-306146Y1015381D01*
X-306562Y1015589D01*
X-307118Y1015798D01*
X-307743Y1016006D01*
X-307778D01*
X-307847Y1016041D01*
X-307986Y1016076D01*
X-308194Y1016110D01*
X-308472Y1016145D01*
X-308785Y1016214D01*
X-309167Y1016284D01*
X-309618Y1016353D01*
X-310139Y1016388D01*
X-310729Y1016457D01*
X-311389Y1016527D01*
X-312118Y1016562D01*
X-312917Y1016596D01*
X-313785Y1016631D01*
X-314757Y1016666D01*
D02*
G37*
G36*
X-309653Y955000D02*
X-309861D01*
X-310035Y954965D01*
X-310451Y954930D01*
X-310972Y954826D01*
X-311528Y954687D01*
X-312153Y954444D01*
X-312743Y954132D01*
X-313298Y953715D01*
X-313368Y953646D01*
X-313507Y953472D01*
X-313750Y953194D01*
X-313993Y952847D01*
X-314236Y952361D01*
X-314479Y951805D01*
X-314618Y951180D01*
X-314687Y950486D01*
Y950451D01*
Y950382D01*
Y950278D01*
X-314653Y950104D01*
X-314618Y949722D01*
X-314479Y949236D01*
X-314305Y948680D01*
X-314028Y948125D01*
X-313646Y947569D01*
X-313403Y947326D01*
X-313125Y947118D01*
X-313055Y947083D01*
X-312847Y946944D01*
X-312535Y946771D01*
X-312118Y946597D01*
X-311597Y946389D01*
X-311042Y946215D01*
X-310382Y946076D01*
X-309722Y946042D01*
X-309479D01*
X-309305Y946076D01*
X-309097D01*
X-308854Y946111D01*
X-308264Y946215D01*
X-307639Y946354D01*
X-306979Y946597D01*
X-306354Y946910D01*
X-305764Y947326D01*
X-305694Y947396D01*
X-305555Y947569D01*
X-305312Y947847D01*
X-305069Y948229D01*
X-304792Y948715D01*
X-304549Y949271D01*
X-304410Y949896D01*
X-304340Y950590D01*
Y950625D01*
Y950660D01*
Y950764D01*
X-304375Y950903D01*
X-304410Y951250D01*
X-304514Y951701D01*
X-304688Y952187D01*
X-304896Y952743D01*
X-305243Y953264D01*
X-305694Y953750D01*
X-305764Y953819D01*
X-305937Y953958D01*
X-306285Y954132D01*
X-306701Y954375D01*
X-307257Y954618D01*
X-307951Y954791D01*
X-308750Y954930D01*
X-309653Y955000D01*
D02*
G37*
G36*
X-323472Y954271D02*
X-323750D01*
X-324062Y954201D01*
X-324444Y954132D01*
X-324896Y954028D01*
X-325347Y953819D01*
X-325798Y953576D01*
X-326215Y953229D01*
X-326250Y953194D01*
X-326389Y953055D01*
X-326562Y952812D01*
X-326771Y952500D01*
X-326944Y952083D01*
X-327118Y951632D01*
X-327257Y951076D01*
X-327291Y950451D01*
Y950416D01*
Y950382D01*
Y950173D01*
X-327222Y949826D01*
X-327152Y949444D01*
X-327014Y948993D01*
X-326840Y948507D01*
X-326562Y948055D01*
X-326215Y947639D01*
X-326180Y947604D01*
X-326041Y947465D01*
X-325798Y947326D01*
X-325486Y947118D01*
X-325069Y946944D01*
X-324618Y946771D01*
X-324062Y946632D01*
X-323437Y946597D01*
X-323125D01*
X-322812Y946667D01*
X-322396Y946736D01*
X-321909Y946840D01*
X-321458Y947014D01*
X-320972Y947257D01*
X-320555Y947604D01*
X-320521Y947639D01*
X-320416Y947812D01*
X-320243Y948021D01*
X-320069Y948333D01*
X-319861Y948750D01*
X-319722Y949201D01*
X-319583Y949757D01*
X-319548Y950382D01*
Y950416D01*
Y950451D01*
X-319583Y950660D01*
X-319618Y951007D01*
X-319687Y951389D01*
X-319791Y951840D01*
X-320000Y952326D01*
X-320243Y952778D01*
X-320590Y953194D01*
X-320625Y953229D01*
X-320798Y953368D01*
X-321007Y953541D01*
X-321354Y953750D01*
X-321736Y953923D01*
X-322257Y954097D01*
X-322812Y954236D01*
X-323472Y954271D01*
D02*
G37*
G36*
X-304757Y521943D02*
X-307118D01*
X-307673Y521908D01*
X-308229D01*
X-308854Y521874D01*
X-310139Y521804D01*
X-311389Y521700D01*
X-312014Y521631D01*
X-312569Y521561D01*
X-313055Y521457D01*
X-313507Y521353D01*
X-313541D01*
X-313611Y521318D01*
X-313715Y521283D01*
X-313854Y521249D01*
X-314201Y521145D01*
X-314653Y520971D01*
X-315139Y520763D01*
X-315590Y520520D01*
X-316007Y520242D01*
X-316319Y519929D01*
X-316354Y519895D01*
X-316423Y519790D01*
X-316562Y519582D01*
X-316701Y519374D01*
X-316805Y519061D01*
X-316944Y518714D01*
X-317014Y518367D01*
X-317048Y517950D01*
Y517915D01*
Y517777D01*
X-317014Y517568D01*
X-316944Y517290D01*
X-316875Y516978D01*
X-316736Y516631D01*
X-316562Y516318D01*
X-316319Y515971D01*
X-316284Y515936D01*
X-316180Y515832D01*
X-316007Y515659D01*
X-315729Y515485D01*
X-315382Y515277D01*
X-314965Y515034D01*
X-314409Y514825D01*
X-313784Y514617D01*
X-313750D01*
X-313680Y514582D01*
X-313541Y514548D01*
X-313333Y514513D01*
X-313055Y514478D01*
X-312743Y514409D01*
X-312326Y514374D01*
X-311875Y514304D01*
X-311354Y514235D01*
X-310764Y514200D01*
X-310104Y514131D01*
X-309375Y514096D01*
X-308611Y514061D01*
X-307708Y514027D01*
X-306771Y513992D01*
X-304861D01*
X-304375Y514027D01*
X-303298D01*
X-302673Y514061D01*
X-301389Y514131D01*
X-300104Y514235D01*
X-299479Y514304D01*
X-298923Y514374D01*
X-298437Y514443D01*
X-297986Y514548D01*
X-297951D01*
X-297882Y514582D01*
X-297778Y514617D01*
X-297639Y514652D01*
X-297292Y514756D01*
X-296875Y514929D01*
X-296389Y515138D01*
X-295937Y515381D01*
X-295521Y515659D01*
X-295208Y515971D01*
X-295174Y516006D01*
X-295104Y516110D01*
X-295000Y516318D01*
X-294861Y516561D01*
X-294722Y516839D01*
X-294618Y517186D01*
X-294549Y517533D01*
X-294514Y517950D01*
Y517985D01*
Y518124D01*
X-294549Y518332D01*
X-294618Y518610D01*
X-294687Y518922D01*
X-294792Y519270D01*
X-294965Y519582D01*
X-295208Y519929D01*
X-295243Y519964D01*
X-295347Y520068D01*
X-295521Y520242D01*
X-295798Y520415D01*
X-296146Y520658D01*
X-296562Y520867D01*
X-297118Y521075D01*
X-297743Y521283D01*
X-297778D01*
X-297847Y521318D01*
X-297986Y521353D01*
X-298194Y521388D01*
X-298472Y521422D01*
X-298785Y521492D01*
X-299167Y521561D01*
X-299618Y521631D01*
X-300139Y521665D01*
X-300729Y521735D01*
X-301389Y521804D01*
X-302118Y521839D01*
X-302917Y521874D01*
X-303785Y521908D01*
X-304757Y521943D01*
D02*
G37*
G36*
X-310798Y434514D02*
X-311076D01*
X-311285Y434479D01*
X-311528D01*
X-311840Y434444D01*
X-312500Y434340D01*
X-313229Y434166D01*
X-313993Y433923D01*
X-314757Y433576D01*
X-315416Y433125D01*
X-315451D01*
X-315486Y433055D01*
X-315659Y432882D01*
X-315937Y432604D01*
X-316250Y432222D01*
X-316528Y431771D01*
X-316805Y431215D01*
X-316979Y430625D01*
X-317048Y430312D01*
Y429965D01*
Y429930D01*
Y429896D01*
X-317014Y429687D01*
X-316979Y429375D01*
X-316875Y428993D01*
X-316736Y428542D01*
X-316493Y428055D01*
X-316145Y427604D01*
X-315694Y427153D01*
X-315625Y427118D01*
X-315451Y426979D01*
X-315104Y426805D01*
X-314895Y426701D01*
X-314653Y426597D01*
X-314340Y426493D01*
X-314028Y426389D01*
X-313680Y426285D01*
X-313264Y426215D01*
X-312847Y426146D01*
X-312361Y426076D01*
X-311875Y426042D01*
X-311041D01*
X-310798Y426076D01*
X-310555D01*
X-310278Y426111D01*
X-309583Y426180D01*
X-308854Y426354D01*
X-308090Y426562D01*
X-307396Y426840D01*
X-307048Y427048D01*
X-306771Y427257D01*
X-306701Y427326D01*
X-306562Y427465D01*
X-306319Y427743D01*
X-306076Y428090D01*
X-305798Y428542D01*
X-305555Y429062D01*
X-305417Y429653D01*
X-305347Y430312D01*
Y430347D01*
Y430382D01*
X-305382Y430625D01*
X-305417Y430937D01*
X-305521Y431354D01*
X-305694Y431805D01*
X-305937Y432326D01*
X-306285Y432812D01*
X-306736Y433298D01*
X-306805Y433368D01*
X-306979Y433507D01*
X-307326Y433680D01*
X-307778Y433923D01*
X-308333Y434132D01*
X-309028Y434340D01*
X-309861Y434479D01*
X-310798Y434514D01*
D02*
G37*
G36*
X-301840Y457395D02*
X-312743D01*
X-301840Y450069D01*
Y457395D01*
D02*
G37*
G36*
X-304757Y497048D02*
X-307118D01*
X-307673Y497013D01*
X-308229D01*
X-308854Y496978D01*
X-310139Y496909D01*
X-311389Y496805D01*
X-312014Y496735D01*
X-312569Y496666D01*
X-313055Y496562D01*
X-313507Y496457D01*
X-313541D01*
X-313611Y496423D01*
X-313715Y496388D01*
X-313854Y496353D01*
X-314201Y496249D01*
X-314653Y496076D01*
X-315139Y495867D01*
X-315590Y495624D01*
X-316007Y495346D01*
X-316319Y495034D01*
X-316354Y494999D01*
X-316423Y494895D01*
X-316562Y494687D01*
X-316701Y494478D01*
X-316805Y494166D01*
X-316944Y493819D01*
X-317014Y493471D01*
X-317048Y493055D01*
Y493020D01*
Y492881D01*
X-317014Y492673D01*
X-316944Y492395D01*
X-316875Y492082D01*
X-316736Y491735D01*
X-316562Y491423D01*
X-316319Y491076D01*
X-316284Y491041D01*
X-316180Y490937D01*
X-316007Y490763D01*
X-315729Y490589D01*
X-315382Y490381D01*
X-314965Y490138D01*
X-314409Y489930D01*
X-313784Y489721D01*
X-313750D01*
X-313680Y489687D01*
X-313541Y489652D01*
X-313333Y489617D01*
X-313055Y489582D01*
X-312743Y489513D01*
X-312326Y489478D01*
X-311875Y489409D01*
X-311354Y489339D01*
X-310764Y489305D01*
X-310104Y489235D01*
X-309375Y489201D01*
X-308611Y489166D01*
X-307708Y489131D01*
X-306771Y489096D01*
X-304861D01*
X-304375Y489131D01*
X-303298D01*
X-302673Y489166D01*
X-301389Y489235D01*
X-300104Y489339D01*
X-299479Y489409D01*
X-298923Y489478D01*
X-298437Y489548D01*
X-297986Y489652D01*
X-297951D01*
X-297882Y489687D01*
X-297778Y489721D01*
X-297639Y489756D01*
X-297292Y489860D01*
X-296875Y490034D01*
X-296389Y490242D01*
X-295937Y490485D01*
X-295521Y490763D01*
X-295208Y491076D01*
X-295174Y491110D01*
X-295104Y491214D01*
X-295000Y491423D01*
X-294861Y491666D01*
X-294722Y491944D01*
X-294618Y492291D01*
X-294549Y492638D01*
X-294514Y493055D01*
Y493089D01*
Y493228D01*
X-294549Y493437D01*
X-294618Y493714D01*
X-294687Y494027D01*
X-294792Y494374D01*
X-294965Y494687D01*
X-295208Y495034D01*
X-295243Y495069D01*
X-295347Y495173D01*
X-295521Y495346D01*
X-295798Y495520D01*
X-296146Y495763D01*
X-296562Y495971D01*
X-297118Y496180D01*
X-297743Y496388D01*
X-297778D01*
X-297847Y496423D01*
X-297986Y496457D01*
X-298194Y496492D01*
X-298472Y496527D01*
X-298785Y496596D01*
X-299167Y496666D01*
X-299618Y496735D01*
X-300139Y496770D01*
X-300729Y496839D01*
X-301389Y496909D01*
X-302118Y496944D01*
X-302917Y496978D01*
X-303785Y497013D01*
X-304757Y497048D01*
D02*
G37*
%LPD*%
D13*
X-271282Y940000D02*
X-190000D01*
X-271282Y0D02*
X-190000D01*
X-268742Y470000D02*
Y940000D01*
Y0D02*
Y470000D01*
X-273822Y924760D02*
X-268742Y940000D01*
X-263662Y924760D01*
X-268742Y0D02*
X-263662Y15240D01*
X-273822D02*
X-268742Y0D01*
X-271540Y1025000D02*
X-3540D01*
X-271540Y940000D02*
X-173540D01*
X-269000Y982500D02*
Y1025000D01*
Y940000D02*
Y982500D01*
X-274080Y1009760D02*
X-269000Y1025000D01*
X-263920Y1009760D01*
X-269000Y940000D02*
X-263920Y955240D01*
X-274080D02*
X-269000Y940000D01*
X520000Y933540D02*
Y1204540D01*
X340000Y1028540D02*
Y1204540D01*
X430000Y1202000D02*
X520000D01*
X340000D02*
X430000D01*
X504760Y1207080D02*
X520000Y1202000D01*
X504760Y1196920D02*
X520000Y1202000D01*
X340000D02*
X355240Y1196920D01*
X340000Y1202000D02*
X355240Y1207080D01*
X0Y1028540D02*
Y1202540D01*
X-180000Y933540D02*
Y1202540D01*
X-90000Y1200000D02*
X0D01*
X-180000D02*
X-90000D01*
X-15240Y1205080D02*
X0Y1200000D01*
X-15240Y1194920D02*
X0Y1200000D01*
X-180000D02*
X-164760Y1194920D01*
X-180000Y1200000D02*
X-164760Y1205080D01*
X-271540Y0D02*
X-173540D01*
X-271540Y-85000D02*
X-3540D01*
X-269000Y-42500D02*
Y0D01*
Y-85000D02*
Y-42500D01*
X-274080Y-15240D02*
X-269000Y0D01*
X-263920Y-15240D01*
X-269000Y-85000D02*
X-263920Y-69760D01*
X-274080D02*
X-269000Y-85000D01*
X340000Y1028540D02*
Y1204540D01*
X0Y1028540D02*
Y1204540D01*
X170000Y1202000D02*
X340000D01*
X0D02*
X170000D01*
X324760Y1207080D02*
X340000Y1202000D01*
X324760Y1196920D02*
X340000Y1202000D01*
X0D02*
X15240Y1196920D01*
X0Y1202000D02*
X15240Y1207080D01*
X-68460Y877500D02*
X832040D01*
X3540Y-85000D02*
X832040D01*
X829500Y396250D02*
Y877500D01*
Y-85000D02*
Y396250D01*
X824420Y862260D02*
X829500Y877500D01*
X834580Y862260D01*
X829500Y-85000D02*
X834580Y-69760D01*
X824420D02*
X829500Y-85000D01*
X-68460Y62500D02*
X679540D01*
X3540Y-85000D02*
X679540D01*
X677000Y-11250D02*
Y62500D01*
Y-85000D02*
Y-11250D01*
X671920Y47260D02*
X677000Y62500D01*
X682080Y47260D01*
X677000Y-85000D02*
X682080Y-69760D01*
X671920D02*
X677000Y-85000D01*
X461000Y-212540D02*
Y824960D01*
X-121000Y-212540D02*
Y9960D01*
X170000Y-210000D02*
X461000D01*
X-121000D02*
X170000D01*
X445760Y-204920D02*
X461000Y-210000D01*
X445760Y-215080D02*
X461000Y-210000D01*
X-121000D02*
X-105760Y-215080D01*
X-121000Y-210000D02*
X-105760Y-204920D01*
X-121000Y-212540D02*
Y824960D01*
X-180000Y-212540D02*
Y6460D01*
X-150500Y-210000D02*
X-121000D01*
X-180000D02*
X-150500D01*
X-136240Y-204920D02*
X-121000Y-210000D01*
X-136240Y-215080D02*
X-121000Y-210000D01*
X-180000D02*
X-164760Y-215080D01*
X-180000Y-210000D02*
X-164760Y-204920D01*
D58*
X520000Y930000D02*
G03*
X510000Y940000I-10000J0D01*
G01*
Y0D02*
G03*
X520000Y10000I0J10000D01*
G01*
X-180000D02*
G03*
X-170000Y0I10000J0D01*
G01*
Y940000D02*
G03*
X-180000Y930000I0J-10000D01*
G01*
X0Y-85000D02*
X340000D01*
X0Y1025000D02*
X340000D01*
X0Y940000D02*
Y1025000D01*
X340000Y940000D02*
Y1025000D01*
Y-85000D02*
Y0D01*
X0Y-85000D02*
Y0D01*
X-165000D02*
X0D01*
X-170000Y940000D02*
X0D01*
X-180000Y10000D02*
Y930000D01*
X340000Y940000D02*
X505000D01*
X340000Y0D02*
X505000D01*
X520000Y10000D02*
Y930000D01*
X505000Y940000D02*
X510000D01*
X505000Y0D02*
X510000D01*
X-170000D02*
X-165000D01*
D59*
X805002Y320000D02*
X810000Y324998D01*
Y334995D01*
X805002Y339994D01*
X785008D01*
X780010Y334995D01*
Y324998D01*
X785008Y320000D01*
X790006D01*
X795005Y324998D01*
Y339994D01*
X780010Y369984D02*
X785008Y359987D01*
X795005Y349990D01*
X805002D01*
X810000Y354989D01*
Y364985D01*
X805002Y369984D01*
X800003D01*
X795005Y364985D01*
Y349990D01*
X810000Y379981D02*
X805002D01*
Y384979D01*
X810000D01*
Y379981D01*
Y424966D02*
Y404972D01*
X790006Y424966D01*
X785008D01*
X780010Y419968D01*
Y409971D01*
X785008Y404972D01*
X780010Y454956D02*
Y434963D01*
X795005D01*
X790006Y444959D01*
Y449958D01*
X795005Y454956D01*
X805002D01*
X810000Y449958D01*
Y439961D01*
X805002Y434963D01*
X660000Y-80000D02*
Y-70003D01*
Y-75002D01*
X630010D01*
X635008Y-80000D01*
X660000Y-40013D02*
X630010D01*
X645005Y-55008D01*
Y-35015D01*
X660000Y-25018D02*
X655002D01*
Y-20019D01*
X660000D01*
Y-25018D01*
X630010Y-26D02*
Y19968D01*
X635008D01*
X655002Y-26D01*
X660000D01*
X630010Y49958D02*
Y29964D01*
X645005D01*
X640006Y39961D01*
Y44960D01*
X645005Y49958D01*
X655002D01*
X660000Y44960D01*
Y34963D01*
X655002Y29964D01*
X119993Y-230010D02*
X100000D01*
Y-245005D01*
X109997Y-240007D01*
X114995D01*
X119993Y-245005D01*
Y-255002D01*
X114995Y-260000D01*
X104998D01*
X100000Y-255002D01*
X129990Y-235008D02*
X134989Y-230010D01*
X144985D01*
X149984Y-235008D01*
Y-240007D01*
X144985Y-245005D01*
X149984Y-250003D01*
Y-255002D01*
X144985Y-260000D01*
X134989D01*
X129990Y-255002D01*
Y-250003D01*
X134989Y-245005D01*
X129990Y-240007D01*
Y-235008D01*
X134989Y-245005D02*
X144985D01*
X159981Y-260000D02*
Y-255002D01*
X164979D01*
Y-260000D01*
X159981D01*
X204966D02*
X184972D01*
X204966Y-240007D01*
Y-235008D01*
X199968Y-230010D01*
X189971D01*
X184972Y-235008D01*
X214963D02*
X219961Y-230010D01*
X229958D01*
X234956Y-235008D01*
Y-255002D01*
X229958Y-260000D01*
X219961D01*
X214963Y-255002D01*
Y-235008D01*
X-180007Y-230010D02*
X-200000D01*
Y-245005D01*
X-190003Y-240007D01*
X-185005D01*
X-180007Y-245005D01*
Y-255002D01*
X-185005Y-260000D01*
X-195002D01*
X-200000Y-255002D01*
X-170010Y-260000D02*
Y-255002D01*
X-165011D01*
Y-260000D01*
X-170010D01*
X-145018Y-255002D02*
X-140019Y-260000D01*
X-130023D01*
X-125024Y-255002D01*
Y-235008D01*
X-130023Y-230010D01*
X-140019D01*
X-145018Y-235008D01*
Y-240007D01*
X-140019Y-245005D01*
X-125024D01*
X-115028Y-235008D02*
X-110029Y-230010D01*
X-100032D01*
X-95034Y-235008D01*
Y-255002D01*
X-100032Y-260000D01*
X-110029D01*
X-115028Y-255002D01*
Y-235008D01*
D121*
X-28210Y559689D02*
Y568071D01*
X-9414D01*
Y559689D02*
Y568071D01*
X-28210Y559689D02*
X-9414D01*
X-18050Y570357D02*
Y578739D01*
X746D01*
Y570357D02*
Y578739D01*
X-18050Y570357D02*
X746D01*
X275209Y437388D02*
X283591D01*
X275209D02*
Y456184D01*
X283591D01*
Y437388D02*
Y456184D01*
X475361Y689610D02*
X483743D01*
X475361D02*
Y708406D01*
X483743D01*
Y689610D02*
Y708406D01*
X475361Y643382D02*
X483743D01*
X475361D02*
Y662178D01*
X483743D01*
Y643382D02*
Y662178D01*
X476377Y597916D02*
X484759D01*
X476377D02*
Y616712D01*
X484759D01*
Y597916D02*
Y616712D01*
X488712Y676783D02*
Y685165D01*
X469916Y676783D02*
X488712D01*
X469916D02*
Y685165D01*
X488712D01*
X487696Y630301D02*
Y638683D01*
X468900Y630301D02*
X487696D01*
X468900D02*
Y638683D01*
X487696D01*
X485918Y584835D02*
Y593217D01*
X467122Y584835D02*
X485918D01*
X467122D02*
Y593217D01*
X485918D01*
X351028Y682625D02*
Y691007D01*
X369824D01*
Y682625D02*
Y691007D01*
X351028Y682625D02*
X369824D01*
X45212Y377825D02*
Y386207D01*
X26416D02*
X45212D01*
X26416Y377825D02*
Y386207D01*
Y377825D02*
X45212D01*
X23114Y378079D02*
Y386461D01*
X4318D02*
X23114D01*
X4318Y378079D02*
Y386461D01*
Y378079D02*
X23114D01*
X37084Y425831D02*
Y434213D01*
X18288D02*
X37084D01*
X18288Y425831D02*
Y434213D01*
Y425831D02*
X37084D01*
X365760Y223647D02*
Y232029D01*
X346964D02*
X365760D01*
X346964Y223647D02*
Y232029D01*
Y223647D02*
X365760D01*
X364490Y162433D02*
Y170815D01*
X345694D02*
X364490D01*
X345694Y162433D02*
Y170815D01*
Y162433D02*
X364490D01*
Y137541D02*
Y145923D01*
X345694D02*
X364490D01*
X345694Y137541D02*
Y145923D01*
Y137541D02*
X364490D01*
X30682Y-26797D02*
Y-18415D01*
X49478D01*
Y-26797D02*
Y-18415D01*
X30682Y-26797D02*
X49478D01*
X30809Y10818D02*
X39191D01*
Y-7978D02*
Y10818D01*
X30809Y-7978D02*
X39191D01*
X30809D02*
Y10818D01*
X49478Y17079D02*
Y25461D01*
X30682Y17079D02*
X49478D01*
X30682D02*
Y25461D01*
X49478D01*
X-35191Y156318D02*
X-26809D01*
Y137522D02*
Y156318D01*
X-35191Y137522D02*
X-26809D01*
X-35191D02*
Y156318D01*
X-21191Y156318D02*
X-12809D01*
Y137522D02*
Y156318D01*
X-21191Y137522D02*
X-12809D01*
X-21191D02*
Y156318D01*
X207809Y589318D02*
X216191D01*
Y570522D02*
Y589318D01*
X207809Y570522D02*
X216191D01*
X207809D02*
Y589318D01*
X252471Y221032D02*
X260853D01*
X252471Y202236D02*
Y221032D01*
Y202236D02*
X260853D01*
Y221032D01*
X-7191Y156318D02*
X1191D01*
Y137522D02*
Y156318D01*
X-7191Y137522D02*
X1191D01*
X-7191D02*
Y156318D01*
X69809Y590318D02*
X78191D01*
Y571522D02*
Y590318D01*
X69809Y571522D02*
X78191D01*
X69809D02*
Y590318D01*
X238471Y210032D02*
X246853D01*
X238471Y191236D02*
Y210032D01*
Y191236D02*
X246853D01*
Y210032D01*
X94809Y590318D02*
X103191D01*
Y571522D02*
Y590318D01*
X94809Y571522D02*
X103191D01*
X94809D02*
Y590318D01*
X365760Y189865D02*
Y198247D01*
X346964D02*
X365760D01*
X346964Y189865D02*
Y198247D01*
Y189865D02*
X365760D01*
X120809Y590318D02*
X129191D01*
Y571522D02*
Y590318D01*
X120809Y571522D02*
X129191D01*
X120809D02*
Y590318D01*
X121809Y525682D02*
X130191D01*
X121809D02*
Y544478D01*
X130191D01*
Y525682D02*
Y544478D01*
X145809Y590318D02*
X154191D01*
Y571522D02*
Y590318D01*
X145809Y571522D02*
X154191D01*
X145809D02*
Y590318D01*
X196809Y555318D02*
X205191D01*
Y536522D02*
Y555318D01*
X196809Y536522D02*
X205191D01*
X196809D02*
Y555318D01*
X145809Y563318D02*
X154191D01*
Y544522D02*
Y563318D01*
X145809Y544522D02*
X154191D01*
X145809D02*
Y563318D01*
X-26191Y723682D02*
X-17809D01*
X-26191D02*
Y742478D01*
X-17809D01*
Y723682D02*
Y742478D01*
X351183Y355016D02*
X359565D01*
Y336220D02*
Y355016D01*
X351183Y336220D02*
X359565D01*
X351183D02*
Y355016D01*
X321183D02*
X329565D01*
Y336220D02*
Y355016D01*
X321183Y336220D02*
X329565D01*
X321183D02*
Y355016D01*
X336183D02*
X344565D01*
Y336220D02*
Y355016D01*
X336183Y336220D02*
X344565D01*
X336183D02*
Y355016D01*
X365760Y206121D02*
Y214503D01*
X346964D02*
X365760D01*
X346964Y206121D02*
Y214503D01*
Y206121D02*
X365760D01*
X305682Y269809D02*
Y278191D01*
Y269809D02*
X324478D01*
Y278191D01*
X305682D02*
X324478D01*
X374777Y617220D02*
X383159D01*
Y598424D02*
Y617220D01*
X374777Y598424D02*
X383159D01*
X374777D02*
Y617220D01*
X344297Y616966D02*
X352679D01*
Y598170D02*
Y616966D01*
X344297Y598170D02*
X352679D01*
X344297D02*
Y616966D01*
X360477Y616940D02*
X368859D01*
Y598144D02*
Y616940D01*
X360477Y598144D02*
X368859D01*
X360477D02*
Y616940D01*
X268344Y251523D02*
Y259905D01*
Y251523D02*
X287140D01*
Y259905D01*
X268344D02*
X287140D01*
X25809Y685682D02*
X34191D01*
X25809D02*
Y704478D01*
X34191D01*
Y685682D02*
Y704478D01*
X2809Y685682D02*
X11191D01*
X2809D02*
Y704478D01*
X11191D01*
Y685682D02*
Y704478D01*
X-138191Y443318D02*
X-129809D01*
Y424522D02*
Y443318D01*
X-138191Y424522D02*
X-129809D01*
X-138191D02*
Y443318D01*
X-153191D02*
X-144809D01*
Y424522D02*
Y443318D01*
X-153191Y424522D02*
X-144809D01*
X-153191D02*
Y443318D01*
X261604Y513207D02*
Y521589D01*
X280400D01*
Y513207D02*
Y521589D01*
X261604Y513207D02*
X280400D01*
X271764Y523367D02*
Y531749D01*
X290560D01*
Y523367D02*
Y531749D01*
X271764Y523367D02*
X290560D01*
X383809Y752318D02*
X392191D01*
Y733522D02*
Y752318D01*
X383809Y733522D02*
X392191D01*
X383809D02*
Y752318D01*
X-167191Y443318D02*
X-158809D01*
Y424522D02*
Y443318D01*
X-167191Y424522D02*
X-158809D01*
X-167191D02*
Y443318D01*
X61682Y970559D02*
Y978941D01*
X80478D01*
Y970559D02*
Y978941D01*
X61682Y970559D02*
X80478D01*
X71809Y963318D02*
X80191D01*
Y944522D02*
Y963318D01*
X71809Y944522D02*
X80191D01*
X71809D02*
Y963318D01*
X80318Y928497D02*
Y936879D01*
X61522Y928497D02*
X80318D01*
X61522D02*
Y936879D01*
X80318D01*
X354809Y752318D02*
X363191D01*
Y733522D02*
Y752318D01*
X354809Y733522D02*
X363191D01*
X354809D02*
Y752318D01*
X369809D02*
X378191D01*
Y733522D02*
Y752318D01*
X369809Y733522D02*
X378191D01*
X369809D02*
Y752318D01*
M02*
