G04 Layer_Color=32768*
%FSLAX44Y44*%
%MOMM*%
G71*
G01*
G75*
%ADD58C,0.2000*%
%ADD196C,0.0508*%
D58*
X520000Y930000D02*
G03*
X510000Y940000I-10000J0D01*
G01*
Y0D02*
G03*
X520000Y10000I0J10000D01*
G01*
X-180000D02*
G03*
X-170000Y0I10000J0D01*
G01*
Y940000D02*
G03*
X-180000Y930000I0J-10000D01*
G01*
X0Y-85000D02*
X340000D01*
X0Y1025000D02*
X340000D01*
X0Y940000D02*
Y1025000D01*
X340000Y940000D02*
Y1025000D01*
Y-85000D02*
Y0D01*
X0Y-85000D02*
Y0D01*
X-165000D02*
X0D01*
X-170000Y940000D02*
X0D01*
X-180000Y10000D02*
Y930000D01*
X340000Y940000D02*
X505000D01*
X340000Y0D02*
X505000D01*
X520000Y10000D02*
Y930000D01*
X505000Y940000D02*
X510000D01*
X505000Y0D02*
X510000D01*
X-170000D02*
X-165000D01*
D196*
X-164900Y377600D02*
X-155900D01*
X-160400Y373100D02*
Y382100D01*
X-139500Y377600D02*
X-130500D01*
X-135000Y373100D02*
Y382100D01*
X-164900Y352200D02*
X-155900D01*
X-160400Y347700D02*
Y356700D01*
X-139500Y352200D02*
X-130500D01*
X-135000Y347700D02*
Y356700D01*
X-164900Y326800D02*
X-155900D01*
X-160400Y322300D02*
Y331300D01*
X-139500Y326800D02*
X-130500D01*
X-135000Y322300D02*
Y331300D01*
X-164900Y301400D02*
X-155900D01*
X-160400Y296900D02*
Y305900D01*
X-139500Y301400D02*
X-130500D01*
X-135000Y296900D02*
Y305900D01*
X-164900Y276000D02*
X-155900D01*
X-160400Y271500D02*
Y280500D01*
X-139500Y276000D02*
X-130500D01*
X-135000Y271500D02*
Y280500D01*
X-164900Y250600D02*
X-155900D01*
X-160400Y246100D02*
Y255100D01*
X-139500Y250600D02*
X-130500D01*
X-135000Y246100D02*
Y255100D01*
X-164900Y225200D02*
X-155900D01*
X-160400Y220700D02*
Y229700D01*
X-139500Y225200D02*
X-130500D01*
X-135000Y220700D02*
Y229700D01*
X-164900Y199800D02*
X-155900D01*
X-160400Y195300D02*
Y204300D01*
X-139500Y199800D02*
X-130500D01*
X-135000Y195300D02*
Y204300D01*
X-164900Y174400D02*
X-155900D01*
X-160400Y169900D02*
Y178900D01*
X-139500Y174400D02*
X-130500D01*
X-135000Y169900D02*
Y178900D01*
X-164900Y149000D02*
X-155900D01*
X-160400Y144500D02*
Y153500D01*
X-139500Y149000D02*
X-130500D01*
X-135000Y144500D02*
Y153500D01*
X-90300Y513000D02*
X-81300D01*
X-85800Y508500D02*
Y517500D01*
X-115700Y513000D02*
X-106700D01*
X-111200Y508500D02*
Y517500D01*
X-141100Y513000D02*
X-132100D01*
X-136600Y508500D02*
Y517500D01*
X-166500Y513000D02*
X-157500D01*
X-162000Y508500D02*
Y517500D01*
X427562Y760984D02*
X437562D01*
X432562Y755984D02*
Y765984D01*
X427562Y786384D02*
X437562D01*
X432562Y781384D02*
Y791384D01*
X452962Y760984D02*
X462962D01*
X457962Y755984D02*
Y765984D01*
X452962Y786384D02*
X462962D01*
X457962Y781384D02*
Y791384D01*
X478362Y760984D02*
X488362D01*
X483362Y755984D02*
Y765984D01*
X478362Y786384D02*
X488362D01*
X483362Y781384D02*
Y791384D01*
X-116500Y565000D02*
X-107500D01*
X-112000Y560500D02*
Y569500D01*
X-141900Y565000D02*
X-132900D01*
X-137400Y560500D02*
Y569500D01*
X-167300Y565000D02*
X-158300D01*
X-162800Y560500D02*
Y569500D01*
X248484Y476758D02*
X257484D01*
X252984Y472258D02*
Y481258D01*
X273884Y476758D02*
X282884D01*
X278384Y472258D02*
Y481258D01*
X299284Y476758D02*
X308284D01*
X303784Y472258D02*
Y481258D01*
X16082Y555752D02*
X26082D01*
X21082Y550752D02*
Y560752D01*
X16082Y581152D02*
X26082D01*
X21082Y576152D02*
Y586152D01*
X425488Y378206D02*
X436588D01*
X431038Y372656D02*
Y383756D01*
X425488Y403606D02*
X436588D01*
X431038Y398056D02*
Y409156D01*
X425488Y429006D02*
X436588D01*
X431038Y423456D02*
Y434556D01*
X425488Y454406D02*
X436588D01*
X431038Y448856D02*
Y459956D01*
X425488Y479806D02*
X436588D01*
X431038Y474256D02*
Y485356D01*
X425488Y505206D02*
X436588D01*
X431038Y499656D02*
Y510756D01*
X425488Y530606D02*
X436588D01*
X431038Y525056D02*
Y536156D01*
X425488Y556006D02*
X436588D01*
X431038Y550456D02*
Y561556D01*
X375488Y378206D02*
X386588D01*
X381038Y372656D02*
Y383756D01*
X375488Y403606D02*
X386588D01*
X381038Y398056D02*
Y409156D01*
X375488Y429006D02*
X386588D01*
X381038Y423456D02*
Y434556D01*
X375488Y454406D02*
X386588D01*
X381038Y448856D02*
Y459956D01*
X375488Y479806D02*
X386588D01*
X381038Y474256D02*
Y485356D01*
X375488Y505206D02*
X386588D01*
X381038Y499656D02*
Y510756D01*
X375488Y530606D02*
X386588D01*
X381038Y525056D02*
Y536156D01*
X375488Y556006D02*
X386588D01*
X381038Y550456D02*
Y561556D01*
X426466Y142494D02*
X437566D01*
X432016Y136944D02*
Y148044D01*
X426466Y167894D02*
X437566D01*
X432016Y162344D02*
Y173444D01*
X426466Y193294D02*
X437566D01*
X432016Y187744D02*
Y198844D01*
X426466Y218694D02*
X437566D01*
X432016Y213144D02*
Y224244D01*
X426466Y244094D02*
X437566D01*
X432016Y238544D02*
Y249644D01*
X426466Y269494D02*
X437566D01*
X432016Y263944D02*
Y275044D01*
X426466Y294894D02*
X437566D01*
X432016Y289344D02*
Y300444D01*
X426466Y320294D02*
X437566D01*
X432016Y314744D02*
Y325844D01*
X376466Y142494D02*
X387566D01*
X382016Y136944D02*
Y148044D01*
X376466Y167894D02*
X387566D01*
X382016Y162344D02*
Y173444D01*
X376466Y193294D02*
X387566D01*
X382016Y187744D02*
Y198844D01*
X376466Y218694D02*
X387566D01*
X382016Y213144D02*
Y224244D01*
X376466Y244094D02*
X387566D01*
X382016Y238544D02*
Y249644D01*
X376466Y269494D02*
X387566D01*
X382016Y263944D02*
Y275044D01*
X376466Y294894D02*
X387566D01*
X382016Y289344D02*
Y300444D01*
X376466Y320294D02*
X387566D01*
X382016Y314744D02*
Y325844D01*
X-153410Y627794D02*
X-146310D01*
X-149860Y624244D02*
Y631344D01*
X-153410Y647794D02*
X-146310D01*
X-149860Y644244D02*
Y651344D01*
X145120Y615000D02*
X155280D01*
X150200Y609920D02*
Y620080D01*
X94320Y615000D02*
X104480D01*
X99400Y609920D02*
Y620080D01*
X170520Y615000D02*
X180680D01*
X175600Y609920D02*
Y620080D01*
X195920Y615000D02*
X206080D01*
X201000Y609920D02*
Y620080D01*
X119720Y615000D02*
X129880D01*
X124800Y609920D02*
Y620080D01*
X68920Y615000D02*
X79080D01*
X74000Y609920D02*
Y620080D01*
X327740Y736854D02*
X337740D01*
X332740Y731854D02*
Y741854D01*
X327740Y762254D02*
X337740D01*
X332740Y757254D02*
Y767254D01*
X21000Y184000D02*
X31000D01*
X26000Y179000D02*
Y189000D01*
X46900Y184000D02*
X55900D01*
X51400Y179500D02*
Y188500D01*
X145750Y902750D02*
X155750D01*
X150750Y897750D02*
Y907750D01*
X196550Y902750D02*
X206550D01*
X201550Y897750D02*
Y907750D01*
X171150Y902750D02*
X181150D01*
X176150Y897750D02*
Y907750D01*
X327486Y315468D02*
X337486D01*
X332486Y310468D02*
Y320468D01*
X327486Y290068D02*
X337486D01*
X332486Y285068D02*
Y295068D01*
X37418Y511556D02*
X47418D01*
X42418Y506556D02*
Y516556D01*
X12018Y511556D02*
X22018D01*
X17018Y506556D02*
Y516556D01*
X-69000Y149600D02*
X-59000D01*
X-64000Y144600D02*
Y154600D01*
X-69000Y175000D02*
X-59000D01*
X-64000Y170000D02*
Y180000D01*
X-94000Y432600D02*
X-84000D01*
X-89000Y427600D02*
Y437600D01*
X-94000Y458000D02*
X-84000D01*
X-89000Y453000D02*
Y463000D01*
X339678Y560324D02*
X349678D01*
X344678Y555324D02*
Y565324D01*
X339678Y534924D02*
X349678D01*
X344678Y529924D02*
Y539924D01*
X-96440Y652780D02*
X-86440D01*
X-91440Y647780D02*
Y657780D01*
X-96440Y627380D02*
X-86440D01*
X-91440Y622380D02*
Y632380D01*
X434500Y62500D02*
X487500D01*
X461000Y36000D02*
Y89000D01*
X-147500Y62500D02*
X-94500D01*
X-121000Y36000D02*
Y89000D01*
X434500Y877500D02*
X487500D01*
X461000Y851000D02*
Y904000D01*
X-147500Y877500D02*
X-94500D01*
X-121000Y851000D02*
Y904000D01*
X331600Y845600D02*
X341600D01*
X336600Y840600D02*
Y850600D01*
X357000Y845600D02*
X367000D01*
X362000Y840600D02*
Y850600D01*
X331600Y871000D02*
X341600D01*
X336600Y866000D02*
Y876000D01*
X357000Y871000D02*
X367000D01*
X362000Y866000D02*
Y876000D01*
X357000Y820200D02*
X367000D01*
X362000Y815200D02*
Y825200D01*
X331600Y820200D02*
X341600D01*
X336600Y815200D02*
Y825200D01*
X-25970Y800000D02*
X-19470D01*
X-22720Y796750D02*
Y803250D01*
X-13270Y800000D02*
X-6770D01*
X-10020Y796750D02*
Y803250D01*
X-570Y800000D02*
X5930D01*
X2680Y796750D02*
Y803250D01*
X12130Y800000D02*
X18630D01*
X15380Y796750D02*
Y803250D01*
X24830Y800000D02*
X31330D01*
X28080Y796750D02*
Y803250D01*
X-25970Y787300D02*
X-19470D01*
X-22720Y784050D02*
Y790550D01*
X-13270Y787300D02*
X-6770D01*
X-10020Y784050D02*
Y790550D01*
X-570Y787300D02*
X5930D01*
X2680Y784050D02*
Y790550D01*
X12130Y787300D02*
X18630D01*
X15380Y784050D02*
Y790550D01*
X24830Y787300D02*
X31330D01*
X28080Y784050D02*
Y790550D01*
X-17556Y415000D02*
X-10444D01*
X-14000Y411444D02*
Y418556D01*
X-17556Y463800D02*
X-10444D01*
X-14000Y460244D02*
Y467356D01*
X-169648Y472440D02*
X-166648D01*
X-168148Y470940D02*
Y473940D01*
X177500Y447000D02*
X180500D01*
X179000Y445500D02*
Y448500D01*
X257834Y632968D02*
X260834D01*
X259334Y631468D02*
Y634468D01*
X247674Y632714D02*
X250674D01*
X249174Y631214D02*
Y634214D01*
X237514Y632714D02*
X240514D01*
X239014Y631214D02*
Y634214D01*
X47485Y368000D02*
X50485D01*
X48985Y366500D02*
Y369500D01*
X42950Y441198D02*
X45950D01*
X44450Y439698D02*
Y442698D01*
X-16486Y441706D02*
X-13486D01*
X-14986Y440206D02*
Y443206D01*
X-88876Y589788D02*
X-85876D01*
X-87376Y588288D02*
Y591288D01*
X258850Y238252D02*
X261850D01*
X260350Y236752D02*
Y239752D01*
X159500Y465000D02*
X162500D01*
X161000Y463500D02*
Y466500D01*
X231418Y488950D02*
X234418D01*
X232918Y487450D02*
Y490450D01*
X472972Y731012D02*
X475972D01*
X474472Y729512D02*
Y732512D01*
X454938Y677164D02*
X457938D01*
X456438Y675664D02*
Y678664D01*
X450112Y622046D02*
X453112D01*
X451612Y620546D02*
Y623546D01*
X450388Y589026D02*
X453388D01*
X451888Y587526D02*
Y590526D01*
X346988Y724662D02*
X349988D01*
X348488Y723162D02*
Y726162D01*
X209510Y564027D02*
X212510D01*
X211010Y562528D02*
Y565527D01*
X192500Y335000D02*
X195500D01*
X194000Y333500D02*
Y336500D01*
X199500Y325000D02*
X202500D01*
X201000Y323500D02*
Y326500D01*
X156500Y308999D02*
X159500D01*
X158000Y307499D02*
Y310499D01*
X186000Y309000D02*
X189000D01*
X187500Y307500D02*
Y310500D01*
X176500Y308999D02*
X179500D01*
X178000Y307499D02*
Y310499D01*
X208500Y314000D02*
X211500D01*
X210000Y312500D02*
Y315500D01*
X168500Y339000D02*
X171500D01*
X170000Y337500D02*
Y340500D01*
X180500Y339000D02*
X183500D01*
X182000Y337500D02*
Y340500D01*
X166500Y309000D02*
X169500D01*
X168000Y307500D02*
Y310500D01*
X192500Y236000D02*
X195500D01*
X194000Y234500D02*
Y237500D01*
X179500Y236000D02*
X182500D01*
X181000Y234500D02*
Y237500D01*
X166500Y236000D02*
X169500D01*
X168000Y234500D02*
Y237500D01*
X192500Y249000D02*
X195500D01*
X194000Y247500D02*
Y250500D01*
X179500Y249000D02*
X182500D01*
X181000Y247500D02*
Y250500D01*
X166500Y249000D02*
X169500D01*
X168000Y247500D02*
Y250500D01*
X192500Y262000D02*
X195500D01*
X194000Y260500D02*
Y263500D01*
X179500Y262000D02*
X182500D01*
X181000Y260500D02*
Y263500D01*
X166500Y262000D02*
X169500D01*
X168000Y260500D02*
Y263500D01*
X220500Y373000D02*
X223500D01*
X222000Y371500D02*
Y374500D01*
X200250Y75000D02*
X202750D01*
X201500Y73750D02*
Y76250D01*
X54500Y137000D02*
X57500D01*
X56000Y135500D02*
Y138500D01*
X223500Y208000D02*
X226500D01*
X225000Y206500D02*
Y209500D01*
X314500Y746000D02*
X317500D01*
X316000Y744500D02*
Y747500D01*
X251500Y508000D02*
X254500D01*
X253000Y506500D02*
Y509500D01*
X208050Y646176D02*
X211050D01*
X209550Y644676D02*
Y647676D01*
X-87098Y599440D02*
X-84098D01*
X-85598Y597940D02*
Y600940D01*
X13488Y830040D02*
X16488D01*
X14988Y828540D02*
Y831540D01*
X158500Y548000D02*
X161500D01*
X160000Y546500D02*
Y549500D01*
X310499Y507999D02*
X313499D01*
X311999Y506499D02*
Y509499D01*
X295499Y507999D02*
X298499D01*
X296999Y506499D02*
Y509499D01*
X295500Y534000D02*
X298500D01*
X297000Y532500D02*
Y535500D01*
X310500Y534000D02*
X313500D01*
X312000Y532500D02*
Y535500D01*
X-14976Y506876D02*
X-11976D01*
X-13476Y505376D02*
Y508376D01*
X24Y506876D02*
X3024D01*
X1524Y505376D02*
Y508376D01*
X24Y519876D02*
X3024D01*
X1524Y518376D02*
Y521376D01*
X-14976Y519876D02*
X-11976D01*
X-13476Y518376D02*
Y521376D01*
X-14454Y551434D02*
X-11454D01*
X-12954Y549934D02*
Y552934D01*
X47522Y560894D02*
X50522D01*
X49022Y559394D02*
Y562394D01*
X-1754Y550926D02*
X1246D01*
X-254Y549426D02*
Y552426D01*
X-41500Y198000D02*
X-38500D01*
X-40000Y196500D02*
Y199500D01*
X199500Y529000D02*
X202500D01*
X201000Y527500D02*
Y530500D01*
X34500Y153000D02*
X37500D01*
X36000Y151500D02*
Y154500D01*
X186000Y123500D02*
X189000D01*
X187500Y122000D02*
Y125000D01*
X179500Y178000D02*
X182500D01*
X181000Y176500D02*
Y179500D01*
X149000Y197500D02*
X152000D01*
X150500Y196000D02*
Y199000D01*
X-120500Y320000D02*
X-117500D01*
X-119000Y318500D02*
Y321500D01*
X120500Y459000D02*
X123500D01*
X122000Y457500D02*
Y460500D01*
X128500Y466000D02*
X131500D01*
X130000Y464500D02*
Y467500D01*
X144500Y426000D02*
X147500D01*
X146000Y424500D02*
Y427500D01*
X136500Y438000D02*
X139500D01*
X138000Y436500D02*
Y439500D01*
X-149500Y315000D02*
X-146500D01*
X-148000Y313500D02*
Y316500D01*
X-113500Y227000D02*
X-110500D01*
X-112000Y225500D02*
Y228500D01*
X-121500Y244000D02*
X-118500D01*
X-120000Y242500D02*
Y245500D01*
X-174500Y237000D02*
X-171500D01*
X-173000Y235500D02*
Y238500D01*
X126500Y325000D02*
X129500D01*
X128000Y323500D02*
Y326500D01*
X-105500Y217000D02*
X-102500D01*
X-104000Y215500D02*
Y218500D01*
X-112500Y196000D02*
X-109500D01*
X-111000Y194500D02*
Y197500D01*
X-119500Y203000D02*
X-116500D01*
X-118000Y201500D02*
Y204500D01*
X161500Y437000D02*
X164500D01*
X163000Y435500D02*
Y438500D01*
X77500Y502000D02*
X80500D01*
X79000Y500500D02*
Y503500D01*
X97500Y560000D02*
X100500D01*
X99000Y558500D02*
Y561500D01*
X72500Y543000D02*
X75500D01*
X74000Y541500D02*
Y544500D01*
X137500Y543000D02*
X140500D01*
X139000Y541500D02*
Y544500D01*
X148500Y526000D02*
X151500D01*
X150000Y524500D02*
Y527500D01*
X156500Y534000D02*
X159500D01*
X158000Y532500D02*
Y535500D01*
X185500Y560000D02*
X188500D01*
X187000Y558500D02*
Y561500D01*
X225500Y396000D02*
X228500D01*
X227000Y394500D02*
Y397500D01*
X105500Y404000D02*
X108500D01*
X107000Y402500D02*
Y405500D01*
X110500Y395999D02*
X113500D01*
X112000Y394499D02*
Y397499D01*
X105500Y388000D02*
X108500D01*
X107000Y386500D02*
Y389500D01*
X111500Y381000D02*
X114500D01*
X113000Y379500D02*
Y382500D01*
X172500Y816000D02*
X175500D01*
X174000Y814500D02*
Y817500D01*
X333500Y795000D02*
X336500D01*
X335000Y793500D02*
Y796500D01*
X10402Y860460D02*
X12902D01*
X11652Y859210D02*
Y861710D01*
X-8588Y847826D02*
X-6088D01*
X-7338Y846576D02*
Y849075D01*
X264500Y299000D02*
X267500D01*
X266000Y297500D02*
Y300500D01*
X60500Y560000D02*
X63500D01*
X62000Y558500D02*
Y561500D01*
X-73500Y727000D02*
X-70500D01*
X-72000Y725500D02*
Y728500D01*
X-43500Y719000D02*
X-40500D01*
X-42000Y717500D02*
Y720500D01*
X39500Y698000D02*
X42500D01*
X41000Y696500D02*
Y699500D01*
X16500Y709000D02*
X19500D01*
X18000Y707500D02*
Y710500D01*
X105500Y709000D02*
X108500D01*
X107000Y707500D02*
Y710500D01*
X346500Y779000D02*
X349500D01*
X348000Y777500D02*
Y780500D01*
X309162Y188714D02*
X312162D01*
X310662Y187214D02*
Y190214D01*
X298162Y249714D02*
X301162D01*
X299662Y248214D02*
Y251214D01*
X219500Y389000D02*
X222500D01*
X221000Y387500D02*
Y390500D01*
X225500Y381000D02*
X228500D01*
X227000Y379500D02*
Y382500D01*
X85500Y698000D02*
X88500D01*
X87000Y696500D02*
Y699500D01*
X69500Y148000D02*
X72500D01*
X71000Y146500D02*
Y149500D01*
X73500Y137000D02*
X76500D01*
X75000Y135500D02*
Y138500D01*
X134500Y88000D02*
X137500D01*
X136000Y86500D02*
Y89500D01*
X367162Y95714D02*
X370162D01*
X368662Y94214D02*
Y97214D01*
X292500Y274000D02*
X295500D01*
X294000Y272500D02*
Y275500D01*
X96372Y996741D02*
X99372D01*
X97872Y995241D02*
Y998241D01*
X87433Y995695D02*
X90433D01*
X88933Y994195D02*
Y997195D01*
X82760Y988003D02*
X85760D01*
X84260Y986503D02*
Y989503D01*
X82912Y970011D02*
X85912D01*
X84412Y968511D02*
Y971511D01*
X83358Y961022D02*
X86358D01*
X84858Y959522D02*
Y962523D01*
X66241Y966380D02*
X69241D01*
X67741Y964880D02*
Y967880D01*
X66241Y984353D02*
X69241D01*
X67741Y982853D02*
Y985853D01*
X66804Y993335D02*
X69804D01*
X68304Y991835D02*
Y994835D01*
X70236Y1001655D02*
X73236D01*
X71736Y1000155D02*
Y1003155D01*
X76397Y1008215D02*
X79397D01*
X77897Y1006715D02*
Y1009715D01*
X84463Y1012207D02*
X87463D01*
X85963Y1010707D02*
Y1013707D01*
X93402Y1013259D02*
X96402D01*
X94902Y1011759D02*
Y1014759D01*
X51807Y901199D02*
X54806D01*
X53306Y899699D02*
Y902699D01*
X42807Y901199D02*
X45806D01*
X44307Y899699D02*
Y902699D01*
X33807Y901199D02*
X36806D01*
X35306Y899699D02*
Y902699D01*
X24806Y901199D02*
X27806D01*
X26307Y899699D02*
Y902699D01*
X15806Y901199D02*
X18807D01*
X17306Y899699D02*
Y902699D01*
X6806Y901199D02*
X9807D01*
X8306Y899699D02*
Y902699D01*
X-2193Y901199D02*
X807D01*
X-693Y899699D02*
Y902699D01*
X-10962Y899172D02*
X-7962D01*
X-9462Y897672D02*
Y900672D01*
X-13199Y890454D02*
X-10199D01*
X-11699Y888954D02*
Y891954D01*
X-13199Y881454D02*
X-10199D01*
X-11699Y879954D02*
Y882954D01*
X-12642Y872471D02*
X-9642D01*
X-11142Y870971D02*
Y873971D01*
X-29801Y879145D02*
X-26801D01*
X-28301Y877645D02*
Y880645D01*
X-29801Y888145D02*
X-26801D01*
X-28301Y886645D02*
Y889645D01*
X-29555Y897142D02*
X-26555D01*
X-28055Y895642D02*
Y898642D01*
X-26689Y905673D02*
X-23689D01*
X-25189Y904174D02*
Y907173D01*
X-20858Y912529D02*
X-17858D01*
X-19358Y911029D02*
Y914029D01*
X-12897Y916726D02*
X-9897D01*
X-11397Y915226D02*
Y918226D01*
X-3961Y917801D02*
X-961D01*
X-2461Y916301D02*
Y919301D01*
X5039Y917801D02*
X8039D01*
X6539Y916301D02*
Y919301D01*
X14039Y917801D02*
X17039D01*
X15539Y916301D02*
Y919301D01*
X23039Y917801D02*
X26039D01*
X24539Y916301D02*
Y919301D01*
X32039Y917801D02*
X35039D01*
X33539Y916301D02*
Y919301D01*
X41039Y917801D02*
X44039D01*
X42539Y916301D02*
Y919301D01*
X50039Y917801D02*
X53039D01*
X51539Y916301D02*
Y919301D01*
X59039Y917801D02*
X62039D01*
X60539Y916301D02*
Y919301D01*
X83358Y948023D02*
X86358D01*
X84858Y946523D02*
Y949523D01*
X82759Y939043D02*
X85759D01*
X84259Y937543D02*
Y940543D01*
X83358Y930063D02*
X86358D01*
X84858Y928563D02*
Y931563D01*
X82759Y921083D02*
X85759D01*
X84259Y919583D02*
Y922583D01*
X65758Y944268D02*
X68758D01*
X67258Y942768D02*
Y945768D01*
X66062Y953263D02*
X69062D01*
X67562Y951763D02*
Y954763D01*
X83358Y903623D02*
X86358D01*
X84858Y902123D02*
Y905123D01*
X82820Y894639D02*
X85820D01*
X84320Y893139D02*
Y896139D01*
X80016Y853462D02*
X83017D01*
X81517Y851962D02*
Y854962D01*
X71017Y853462D02*
X74016D01*
X72516Y851962D02*
Y854962D01*
X66180Y894382D02*
X69180D01*
X67680Y892882D02*
Y895882D01*
X261358Y60623D02*
X264358D01*
X262858Y59123D02*
Y62123D01*
X269283Y56358D02*
X272283D01*
X270783Y54858D02*
Y57858D01*
X278269Y56858D02*
X281269D01*
X279769Y55358D02*
Y58358D01*
X285519Y39395D02*
X288519D01*
X287019Y37895D02*
Y40895D01*
X258612Y39699D02*
X261612D01*
X260112Y38199D02*
Y41199D01*
X249938Y42102D02*
X252938D01*
X251438Y40602D02*
Y43602D01*
X244755Y49460D02*
X247755D01*
X246255Y47959D02*
Y50960D01*
X243642Y58390D02*
X246642D01*
X245142Y56890D02*
Y59890D01*
X357496Y61031D02*
X360496D01*
X358996Y59531D02*
Y62531D01*
X360958Y43723D02*
X363958D01*
X362458Y42223D02*
Y45223D01*
X348947Y34542D02*
X351947D01*
X350447Y33042D02*
Y36042D01*
X339947Y34542D02*
X342947D01*
X341447Y33042D02*
Y36042D01*
X303559Y56358D02*
X306559D01*
X305059Y54858D02*
Y57858D01*
X312559Y56301D02*
X315559D01*
X314059Y54801D02*
Y57801D01*
X321559Y56301D02*
X324559D01*
X323059Y54801D02*
Y57801D01*
X330559Y56301D02*
X333559D01*
X332059Y54801D02*
Y57801D01*
X338136Y61157D02*
X341136D01*
X339636Y59657D02*
Y62657D01*
X347131Y61458D02*
X350131D01*
X348631Y59958D02*
Y62958D01*
X110694Y52648D02*
X113694D01*
X112194Y51148D02*
Y54148D01*
X107088Y44402D02*
X110088D01*
X108588Y42902D02*
Y45902D01*
X99244Y39989D02*
X102244D01*
X100744Y38489D02*
Y41489D01*
X72350Y38421D02*
X75350D01*
X73850Y36921D02*
Y39921D01*
X79837Y55858D02*
X82837D01*
X81337Y54358D02*
Y57358D01*
X88823Y56358D02*
X91823D01*
X90323Y54858D02*
Y57858D01*
X93642Y63959D02*
X96642D01*
X95142Y62459D02*
Y65459D01*
X55761Y38642D02*
X58761D01*
X57261Y37142D02*
Y40142D01*
X46776Y39157D02*
X49776D01*
X48276Y37657D02*
Y40657D01*
X41577Y55858D02*
X44577D01*
X43077Y54358D02*
Y57358D01*
X43158Y-4410D02*
X45658D01*
X44408Y-5660D02*
Y-3160D01*
X42601Y-13934D02*
X45101D01*
X43851Y-15184D02*
Y-12684D01*
X47344Y-41432D02*
X49844D01*
X48594Y-42682D02*
Y-40182D01*
X55795Y-45860D02*
X58295D01*
X57045Y-47110D02*
Y-44610D01*
X65330Y-46149D02*
X67830D01*
X66580Y-47399D02*
Y-44899D01*
X74870Y-46149D02*
X77370D01*
X76120Y-47399D02*
Y-44899D01*
X84410Y-46149D02*
X86910D01*
X85660Y-47399D02*
Y-44899D01*
X93950Y-46149D02*
X96450D01*
X95200Y-47399D02*
Y-44899D01*
X103490Y-46149D02*
X105990D01*
X104740Y-47399D02*
Y-44899D01*
X99680Y-63851D02*
X102180D01*
X100930Y-65101D02*
Y-62601D01*
X80600Y-63851D02*
X83100D01*
X81850Y-65101D02*
Y-62601D01*
X61520Y-63851D02*
X64020D01*
X62770Y-65101D02*
Y-62601D01*
X43006Y-59978D02*
X45506D01*
X44256Y-61228D02*
Y-58728D01*
X35270Y-54396D02*
X37770D01*
X36520Y-55646D02*
Y-53146D01*
X29434Y-46849D02*
X31934D01*
X30684Y-48099D02*
Y-45599D01*
X25907Y-37985D02*
X28407D01*
X27157Y-39235D02*
Y-36735D01*
X24899Y-28499D02*
X27399D01*
X26149Y-29749D02*
Y-27249D01*
X24397Y-18972D02*
X26897D01*
X25647Y-20222D02*
Y-17722D01*
X24631Y103D02*
X27131D01*
X25881Y-1147D02*
Y1353D01*
X42832Y29908D02*
X45332D01*
X44082Y28658D02*
Y31158D01*
X43141Y10840D02*
X45640D01*
X44391Y9590D02*
Y12090D01*
X24542Y11759D02*
X27042D01*
X25792Y10509D02*
Y13009D01*
X24672Y21298D02*
X27172D01*
X25922Y20048D02*
Y22548D01*
X268250Y199250D02*
X271250D01*
X269750Y197750D02*
Y200750D01*
X284992Y187940D02*
X287992D01*
X286492Y186440D02*
Y189440D01*
X261033Y276709D02*
X264033D01*
X262533Y275209D02*
Y278209D01*
X258500Y257000D02*
X261500D01*
X260000Y255500D02*
Y258500D01*
X71398Y343408D02*
X74398D01*
X72898Y341908D02*
Y344908D01*
X57500Y478500D02*
X60000D01*
X58750Y477250D02*
Y479750D01*
X-99528Y364236D02*
X-94528D01*
X-97028Y361736D02*
Y366736D01*
X49808Y448310D02*
X52808D01*
X51308Y446810D02*
Y449810D01*
X110500Y428999D02*
X113500D01*
X112000Y427499D02*
Y430499D01*
X105500Y437000D02*
X108500D01*
X107000Y435500D02*
Y438500D01*
X91718Y406400D02*
X94718D01*
X93218Y404900D02*
Y407900D01*
X3834Y396240D02*
X6834D01*
X5334Y394740D02*
Y397740D01*
X55396Y319532D02*
X58396D01*
X56896Y318032D02*
Y321032D01*
X49500Y331500D02*
X52500D01*
X51000Y330000D02*
Y333000D01*
X64794Y248920D02*
X67794D01*
X66294Y247420D02*
Y250420D01*
X70890Y265938D02*
X73890D01*
X72390Y264438D02*
Y267438D01*
X119500Y279000D02*
X122500D01*
X121000Y277500D02*
Y280500D01*
X128548Y275590D02*
X131548D01*
X130048Y274090D02*
Y277090D01*
X94004Y268224D02*
X97004D01*
X95504Y266724D02*
Y269724D01*
X77240Y259334D02*
X80240D01*
X78740Y257834D02*
Y260834D01*
X107736Y249936D02*
X112736D01*
X110236Y247436D02*
Y252436D01*
X106704Y279400D02*
X109704D01*
X108204Y277900D02*
Y280900D01*
X360958Y52723D02*
X363958D01*
X362458Y51223D02*
Y54223D01*
X123500Y560000D02*
X126500D01*
X125000Y558500D02*
Y561500D01*
X124500Y550000D02*
X127500D01*
X126000Y548500D02*
Y551500D01*
X151500Y458000D02*
X154500D01*
X153000Y456500D02*
Y459500D01*
X321714Y425704D02*
X324714D01*
X323214Y424204D02*
Y427204D01*
X445286Y367030D02*
X448286D01*
X446786Y365530D02*
Y368530D01*
X445540Y454406D02*
X448540D01*
X447040Y452906D02*
Y455906D01*
X338606Y679704D02*
X341606D01*
X340106Y678204D02*
Y681204D01*
X410234Y679958D02*
X413234D01*
X411734Y678458D02*
Y681458D01*
X410488Y806450D02*
X413488D01*
X411988Y804950D02*
Y807950D01*
X456208Y806196D02*
X459208D01*
X457708Y804696D02*
Y807696D01*
X425982Y595122D02*
X428982D01*
X427482Y593622D02*
Y596622D01*
X422426Y636270D02*
X425426D01*
X423926Y634770D02*
Y637770D01*
X421156Y738124D02*
X424156D01*
X422656Y736624D02*
Y739624D01*
X456716Y738378D02*
X459716D01*
X458216Y736878D02*
Y739878D01*
X332256Y425958D02*
X335256D01*
X333756Y424458D02*
Y427458D01*
X330732Y409448D02*
X333732D01*
X332232Y407948D02*
Y410948D01*
X358418Y450088D02*
X361418D01*
X359918Y448588D02*
Y451588D01*
X349782Y456438D02*
X352782D01*
X351282Y454938D02*
Y457938D01*
X386866Y516890D02*
X389866D01*
X388366Y515390D02*
Y518390D01*
X462558Y439420D02*
X465558D01*
X464058Y437920D02*
Y440920D01*
X477544Y503174D02*
X480544D01*
X479044Y501674D02*
Y504674D01*
X478306Y453644D02*
X481306D01*
X479806Y452144D02*
Y455144D01*
X492022Y500380D02*
X495022D01*
X493522Y498880D02*
Y501880D01*
X500404Y816610D02*
X503404D01*
X501904Y815110D02*
Y818110D01*
X387882Y816102D02*
X390882D01*
X389382Y814602D02*
Y817602D01*
X387628Y847090D02*
X390628D01*
X389128Y845590D02*
Y848590D01*
X368578Y491744D02*
X371578D01*
X370078Y490244D02*
Y493244D01*
X487704Y491490D02*
X490704D01*
X489204Y489990D02*
Y492990D01*
X507008Y824484D02*
X510008D01*
X508508Y822984D02*
Y825984D01*
X327162Y202714D02*
X330162D01*
X328662Y201214D02*
Y204214D01*
X336162Y220714D02*
X339162D01*
X337662Y219214D02*
Y222214D01*
X349274Y180594D02*
X352274D01*
X350774Y179094D02*
Y182094D01*
X336162Y259714D02*
X339162D01*
X337662Y258214D02*
Y261214D01*
X332002Y274574D02*
X335002D01*
X333502Y273074D02*
Y276074D01*
X10184Y429768D02*
X13184D01*
X11684Y428268D02*
Y431268D01*
X-62714Y441452D02*
X-59714D01*
X-61214Y439952D02*
Y442952D01*
X-69572Y474472D02*
X-66572D01*
X-68072Y472972D02*
Y475972D01*
X-10139Y57698D02*
X-7139D01*
X-8639Y56198D02*
Y59198D01*
X-788Y55807D02*
X2212D01*
X712Y54307D02*
Y57307D01*
X8752Y55807D02*
X11752D01*
X10252Y54307D02*
Y57307D01*
X18292Y55807D02*
X21292D01*
X19792Y54307D02*
Y57307D01*
X27813Y56408D02*
X30813D01*
X29313Y54908D02*
Y57908D01*
X21089Y38193D02*
X24089D01*
X22589Y36693D02*
Y39693D01*
X11549Y38193D02*
X14549D01*
X13049Y36693D02*
Y39693D01*
X2009Y38193D02*
X5009D01*
X3509Y36693D02*
Y39693D01*
X-7531Y38193D02*
X-4531D01*
X-6031Y36693D02*
Y39693D01*
X-16779Y35850D02*
X-13779D01*
X-15279Y34350D02*
Y37350D01*
X-29154Y46013D02*
X-26154D01*
X-27654Y44513D02*
Y47513D01*
X428522Y676910D02*
X431522D01*
X430022Y675410D02*
Y678410D01*
X438812Y684660D02*
X441812D01*
X440312Y683160D02*
Y686160D01*
X340384Y249428D02*
X343384D01*
X341884Y247928D02*
Y250928D01*
X439444Y630936D02*
X442444D01*
X440944Y629436D02*
Y632436D01*
X426236Y648462D02*
X429236D01*
X427736Y646962D02*
Y649962D01*
X340130Y667512D02*
X343130D01*
X341630Y666012D02*
Y669012D01*
X316000Y667512D02*
X319000D01*
X317500Y666012D02*
Y669012D01*
X316000Y640080D02*
X319000D01*
X317500Y638580D02*
Y641580D01*
X65500Y727000D02*
X68500D01*
X67000Y725500D02*
Y728500D01*
X124500Y720250D02*
X127500D01*
X126000Y718750D02*
Y721750D01*
X114500Y773000D02*
X117500D01*
X116000Y771500D02*
Y774500D01*
X136250Y765000D02*
X139250D01*
X137750Y763500D02*
Y766500D01*
X175250Y753500D02*
X178250D01*
X176750Y752000D02*
Y755000D01*
X83107Y979009D02*
X86107D01*
X84607Y977509D02*
Y980509D01*
X111358Y61623D02*
X114358D01*
X112858Y60123D02*
Y63123D01*
X195858Y646176D02*
X198858D01*
X197358Y644676D02*
Y647676D01*
X210082Y655320D02*
X213082D01*
X211582Y653820D02*
Y656820D01*
X226084Y632714D02*
X229084D01*
X227584Y631214D02*
Y634214D01*
X-73128Y674624D02*
X-70128D01*
X-71628Y673124D02*
Y676124D01*
X-87098Y674370D02*
X-84098D01*
X-85598Y672870D02*
Y675870D01*
X-101068Y674116D02*
X-98068D01*
X-99568Y672616D02*
Y675616D01*
X414250Y479500D02*
X417250D01*
X415750Y478000D02*
Y481000D01*
X402500Y465750D02*
X405500D01*
X404000Y464250D02*
Y467250D01*
X394250Y416500D02*
X397250D01*
X395750Y415000D02*
Y418000D01*
X412250Y180250D02*
X415250D01*
X413750Y178750D02*
Y181750D01*
X399250Y194500D02*
X402250D01*
X400750Y193000D02*
Y196000D01*
X399250Y219250D02*
X402250D01*
X400750Y217750D02*
Y220750D01*
X414500Y393000D02*
X417500D01*
X416000Y391500D02*
Y394500D01*
X412250Y231250D02*
X415250D01*
X413750Y229750D02*
Y232750D01*
X449000Y207500D02*
X452000D01*
X450500Y206000D02*
Y209000D01*
X-51284Y579120D02*
X-48284D01*
X-49784Y577620D02*
Y580620D01*
X-31980Y631444D02*
X-28980D01*
X-30480Y629944D02*
Y632944D01*
X310500Y522000D02*
X313500D01*
X312000Y520500D02*
Y523500D01*
X233450Y426212D02*
X236450D01*
X234950Y424712D02*
Y427712D01*
X220500Y438000D02*
X223500D01*
X222000Y436500D02*
Y439500D01*
X227500Y445000D02*
X230500D01*
X229000Y443500D02*
Y446500D01*
X232434Y460502D02*
X235434D01*
X233934Y459002D02*
Y462002D01*
X133674Y499618D02*
X136674D01*
X135174Y498118D02*
Y501118D01*
X129056Y507746D02*
X132056D01*
X130556Y506246D02*
Y509246D01*
X295500Y522000D02*
X298500D01*
X297000Y520500D02*
Y523500D01*
X240816Y531876D02*
X243816D01*
X242316Y530376D02*
Y533376D01*
X218972Y538734D02*
X221972D01*
X220472Y537234D02*
Y540234D01*
X315238Y590296D02*
X318238D01*
X316738Y588796D02*
Y591796D01*
X328954Y578104D02*
X331954D01*
X330454Y576604D02*
Y579604D01*
X251500Y525000D02*
X254500D01*
X253000Y523500D02*
Y526500D01*
X-1754Y561340D02*
X1246D01*
X-254Y559840D02*
Y562840D01*
X-124944Y474726D02*
X-121944D01*
X-123444Y473226D02*
Y476226D01*
X332571Y39699D02*
X335571D01*
X334071Y38199D02*
Y41199D01*
X314571Y39699D02*
X317571D01*
X316071Y38199D02*
Y41199D01*
X323571Y39699D02*
X326571D01*
X325071Y38199D02*
Y41199D01*
X-35194Y857644D02*
X-32194D01*
X-33694Y856144D02*
Y859144D01*
X-43249Y853629D02*
X-40249D01*
X-41749Y852129D02*
Y855129D01*
X-44199Y844680D02*
X-41199D01*
X-42699Y843180D02*
Y846180D01*
X-44199Y835680D02*
X-41199D01*
X-42699Y834180D02*
Y837180D01*
X-44199Y826680D02*
X-41199D01*
X-42699Y825180D02*
Y828180D01*
X-44625Y817690D02*
X-41625D01*
X-43125Y816190D02*
Y819190D01*
X-47961Y809331D02*
X-44961D01*
X-46461Y807831D02*
Y810831D01*
X-54217Y802860D02*
X-51217D01*
X-52717Y801360D02*
Y804360D01*
X-62458Y799243D02*
X-59458D01*
X-60958Y797743D02*
Y800743D01*
X-71441Y798699D02*
X-68441D01*
X-69941Y797199D02*
Y800199D01*
X-80441Y798699D02*
X-77441D01*
X-78941Y797199D02*
Y800199D01*
X-89441Y798699D02*
X-86441D01*
X-87941Y797199D02*
Y800199D01*
X-98441Y798699D02*
X-95441D01*
X-96941Y797199D02*
Y800199D01*
X-107441Y798699D02*
X-104441D01*
X-105941Y797199D02*
Y800199D01*
X-116441Y798699D02*
X-113441D01*
X-114941Y797199D02*
Y800199D01*
X-125441Y798699D02*
X-122441D01*
X-123941Y797199D02*
Y800199D01*
X-134173Y796517D02*
X-131173D01*
X-132673Y795017D02*
Y798017D01*
X-137199Y788041D02*
X-134199D01*
X-135699Y786541D02*
Y789541D01*
X-137199Y779041D02*
X-134199D01*
X-135699Y777541D02*
Y780541D01*
X-137199Y770041D02*
X-134199D01*
X-135699Y768541D02*
Y771541D01*
X-132042Y744458D02*
X-129042D01*
X-130542Y742958D02*
Y745958D01*
X-132180Y735459D02*
X-129180D01*
X-130680Y733959D02*
Y736959D01*
X-139718Y730542D02*
X-136718D01*
X-138218Y729042D02*
Y732042D01*
X-148718Y730542D02*
X-145718D01*
X-147218Y729042D02*
Y732042D01*
X-158958Y741356D02*
X-155958D01*
X-157458Y739856D02*
Y742856D01*
X-158958Y750356D02*
X-155958D01*
X-157458Y748856D02*
Y751856D01*
X-153801Y766732D02*
X-150801D01*
X-152301Y765232D02*
Y768232D01*
X-153801Y775732D02*
X-150801D01*
X-152301Y774232D02*
Y777232D01*
X-153801Y784732D02*
X-150801D01*
X-152301Y783232D02*
Y786232D01*
X-153504Y793727D02*
X-150504D01*
X-152004Y792227D02*
Y795228D01*
X-150587Y802241D02*
X-147586D01*
X-149087Y800741D02*
Y803741D01*
X-144892Y809211D02*
X-141892D01*
X-143392Y807711D02*
Y810711D01*
X-137131Y813767D02*
X-134131D01*
X-135631Y812267D02*
Y815267D01*
X-128262Y815301D02*
X-125262D01*
X-126762Y813801D02*
Y816801D01*
X-119262Y815301D02*
X-116262D01*
X-117762Y813801D02*
Y816801D01*
X-110262Y815301D02*
X-107262D01*
X-108762Y813801D02*
Y816801D01*
X-101262Y815301D02*
X-98262D01*
X-99762Y813801D02*
Y816801D01*
X-92262Y815301D02*
X-89262D01*
X-90762Y813801D02*
Y816801D01*
X-83262Y815301D02*
X-80262D01*
X-81762Y813801D02*
Y816801D01*
X-74262Y815301D02*
X-71262D01*
X-72762Y813801D02*
Y816801D01*
X-65273Y815753D02*
X-62274D01*
X-63773Y814253D02*
Y817253D01*
X-60801Y823563D02*
X-57801D01*
X-59301Y822063D02*
Y825063D01*
X-60801Y832563D02*
X-57801D01*
X-59301Y831063D02*
Y834063D01*
X-60801Y841563D02*
X-57801D01*
X-59301Y840063D02*
Y843063D01*
X-60811Y850563D02*
X-57811D01*
X-59311Y849063D02*
Y852063D01*
X-58890Y859355D02*
X-55890D01*
X-57390Y857855D02*
Y860855D01*
X-53971Y866892D02*
X-50971D01*
X-52471Y865392D02*
Y868392D01*
X-46621Y872086D02*
X-43621D01*
X-45121Y870586D02*
Y873586D01*
X-37880Y874230D02*
X-34880D01*
X-36380Y872730D02*
Y875731D01*
X271042Y97282D02*
X274042D01*
X272542Y95782D02*
Y98782D01*
X352576Y102870D02*
X355576D01*
X354076Y101370D02*
Y104370D01*
X336066Y210058D02*
X339066D01*
X337566Y208558D02*
Y211558D01*
X351814Y128524D02*
X354814D01*
X353314Y127024D02*
Y130024D01*
X266216Y131572D02*
X269216D01*
X267716Y130072D02*
Y133072D01*
X322350Y132588D02*
X325350D01*
X323850Y131088D02*
Y134088D01*
X320826Y218694D02*
X323826D01*
X322326Y217194D02*
Y220194D01*
X-171502Y9998D02*
X-168502D01*
X-170002Y8498D02*
Y11498D01*
X-171502Y89998D02*
X-168502D01*
X-170002Y88498D02*
Y91498D01*
X-161502Y109998D02*
X-158502D01*
X-160002Y108498D02*
Y111498D01*
X-171502Y129998D02*
X-168502D01*
X-170002Y128498D02*
Y131498D01*
X-171502Y289998D02*
X-168502D01*
X-170002Y288498D02*
Y291498D01*
X-171502Y489997D02*
X-168502D01*
X-170002Y488497D02*
Y491497D01*
X-171502Y529997D02*
X-168502D01*
X-170002Y528497D02*
Y531497D01*
X-161502Y549997D02*
X-158502D01*
X-160002Y548497D02*
Y551497D01*
X-161502Y589997D02*
X-158502D01*
X-160002Y588497D02*
Y591497D01*
X-171502Y609997D02*
X-168502D01*
X-170002Y608497D02*
Y611497D01*
X-171502Y649997D02*
X-168502D01*
X-170002Y648497D02*
Y651497D01*
X-161502Y669997D02*
X-158502D01*
X-160002Y668497D02*
Y671497D01*
X-171502Y689997D02*
X-168502D01*
X-170002Y688497D02*
Y691497D01*
X-171502Y809997D02*
X-168502D01*
X-170002Y808497D02*
Y811497D01*
X-161502Y829997D02*
X-158502D01*
X-160002Y828497D02*
Y831497D01*
X-151502Y9998D02*
X-148502D01*
X-150002Y8498D02*
Y11498D01*
X-151502Y129998D02*
X-148502D01*
X-150002Y128498D02*
Y131498D01*
X-141502Y389998D02*
X-138502D01*
X-140002Y388498D02*
Y391498D01*
X-151502Y489997D02*
X-148502D01*
X-150002Y488497D02*
Y491497D01*
X-151502Y529997D02*
X-148502D01*
X-150002Y528497D02*
Y531497D01*
X-151502Y569997D02*
X-148502D01*
X-150002Y568497D02*
Y571497D01*
X-141502Y589997D02*
X-138502D01*
X-140002Y588497D02*
Y591497D01*
X-151502Y609997D02*
X-148502D01*
X-150002Y608497D02*
Y611497D01*
X-141502Y669997D02*
X-138502D01*
X-140002Y668497D02*
Y671497D01*
X-151502Y689997D02*
X-148502D01*
X-150002Y688497D02*
Y691497D01*
X-141502Y709997D02*
X-138502D01*
X-140002Y708497D02*
Y711497D01*
X-151502Y929997D02*
X-148502D01*
X-150002Y928497D02*
Y931497D01*
X-131502Y129998D02*
X-128502D01*
X-130002Y128498D02*
Y131498D01*
X-121502Y389998D02*
X-118502D01*
X-120002Y388498D02*
Y391498D01*
X-131502Y609997D02*
X-128502D01*
X-130002Y608497D02*
Y611497D01*
X-131502Y649997D02*
X-128502D01*
X-130002Y648497D02*
Y651497D01*
X-121502Y669997D02*
X-118502D01*
X-120002Y668497D02*
Y671497D01*
X-131502Y689997D02*
X-128502D01*
X-130002Y688497D02*
Y691497D01*
X-121502Y749997D02*
X-118502D01*
X-120002Y748497D02*
Y751497D01*
X-121502Y789997D02*
X-118502D01*
X-120002Y788497D02*
Y791497D01*
X-111502Y129998D02*
X-108502D01*
X-110002Y128498D02*
Y131498D01*
X-101502Y149998D02*
X-98502D01*
X-100002Y148498D02*
Y151498D01*
X-111502Y369998D02*
X-108502D01*
X-110002Y368498D02*
Y371498D01*
X-101502Y389998D02*
X-98502D01*
X-100002Y388498D02*
Y391498D01*
X-111502Y489997D02*
X-108502D01*
X-110002Y488497D02*
Y491497D01*
X-101502Y549997D02*
X-98502D01*
X-100002Y548497D02*
Y551497D01*
X-101502Y589997D02*
X-98502D01*
X-100002Y588497D02*
Y591497D01*
X-111502Y609997D02*
X-108502D01*
X-110002Y608497D02*
Y611497D01*
X-111502Y689997D02*
X-108502D01*
X-110002Y688497D02*
Y691497D01*
X-101502Y709997D02*
X-98502D01*
X-100002Y708497D02*
Y711497D01*
X-101502Y749997D02*
X-98502D01*
X-100002Y748497D02*
Y751497D01*
X-101502Y789997D02*
X-98502D01*
X-100002Y788497D02*
Y791497D01*
X-91502Y9998D02*
X-88502D01*
X-90002Y8498D02*
Y11498D01*
X-91502Y129998D02*
X-88502D01*
X-90002Y128498D02*
Y131498D01*
X-91502Y169998D02*
X-88502D01*
X-90002Y168498D02*
Y171498D01*
X-91502Y289998D02*
X-88502D01*
X-90002Y288498D02*
Y291498D01*
X-81502Y309998D02*
X-78502D01*
X-80002Y308498D02*
Y311498D01*
X-91502Y329998D02*
X-88502D01*
X-90002Y328498D02*
Y331498D01*
X-81502Y349998D02*
X-78502D01*
X-80002Y348498D02*
Y351498D01*
X-81502Y389998D02*
X-78502D01*
X-80002Y388498D02*
Y391498D01*
X-81502Y549997D02*
X-78502D01*
X-80002Y548497D02*
Y551497D01*
X-91502Y569997D02*
X-88502D01*
X-90002Y568497D02*
Y571497D01*
X-91502Y609997D02*
X-88502D01*
X-90002Y608497D02*
Y611497D01*
X-91502Y689997D02*
X-88502D01*
X-90002Y688497D02*
Y691497D01*
X-81502Y749997D02*
X-78502D01*
X-80002Y748497D02*
Y751497D01*
X-91502Y769997D02*
X-88502D01*
X-90002Y768497D02*
Y771497D01*
X-81502Y829997D02*
X-78502D01*
X-80002Y828497D02*
Y831497D01*
X-91502Y929997D02*
X-88502D01*
X-90002Y928497D02*
Y931497D01*
X-71502Y9998D02*
X-68502D01*
X-70002Y8498D02*
Y11498D01*
X-61502Y29998D02*
X-58502D01*
X-60002Y28498D02*
Y31498D01*
X-61502Y69998D02*
X-58502D01*
X-60002Y68498D02*
Y71498D01*
X-61502Y389998D02*
X-58502D01*
X-60002Y388498D02*
Y391498D01*
X-61502Y429998D02*
X-58502D01*
X-60002Y428498D02*
Y431498D01*
X-61502Y509997D02*
X-58502D01*
X-60002Y508497D02*
Y511497D01*
X-61502Y549997D02*
X-58502D01*
X-60002Y548497D02*
Y551497D01*
X-71502Y569997D02*
X-68502D01*
X-70002Y568497D02*
Y571497D01*
X-71502Y689997D02*
X-68502D01*
X-70002Y688497D02*
Y691497D01*
X-61502Y749997D02*
X-58502D01*
X-60002Y748497D02*
Y751497D01*
X-71502Y769997D02*
X-68502D01*
X-70002Y768497D02*
Y771497D01*
X-61502Y789997D02*
X-58502D01*
X-60002Y788497D02*
Y791497D01*
X-71502Y849997D02*
X-68502D01*
X-70002Y848497D02*
Y851497D01*
X-61502Y909997D02*
X-58502D01*
X-60002Y908497D02*
Y911497D01*
X-71502Y929997D02*
X-68502D01*
X-70002Y928497D02*
Y931497D01*
X-51502Y9998D02*
X-48502D01*
X-50002Y8498D02*
Y11498D01*
X-51502Y49998D02*
X-48502D01*
X-50002Y48498D02*
Y51498D01*
X-51502Y89998D02*
X-48502D01*
X-50002Y88498D02*
Y91498D01*
X-51502Y169998D02*
X-48502D01*
X-50002Y168498D02*
Y171498D01*
X-41502Y309998D02*
X-38502D01*
X-40002Y308498D02*
Y311498D01*
X-51502Y329998D02*
X-48502D01*
X-50002Y328498D02*
Y331498D01*
X-41502Y349998D02*
X-38502D01*
X-40002Y348498D02*
Y351498D01*
X-41502Y389998D02*
X-38502D01*
X-40002Y388498D02*
Y391498D01*
X-41502Y429998D02*
X-38502D01*
X-40002Y428498D02*
Y431498D01*
X-51502Y449997D02*
X-48502D01*
X-50002Y448498D02*
Y451497D01*
X-41502Y509997D02*
X-38502D01*
X-40002Y508497D02*
Y511497D01*
X-41502Y549997D02*
X-38502D01*
X-40002Y548497D02*
Y551497D01*
X-51502Y569997D02*
X-48502D01*
X-50002Y568497D02*
Y571497D01*
X-51502Y689997D02*
X-48502D01*
X-50002Y688497D02*
Y691497D01*
X-41502Y749997D02*
X-38502D01*
X-40002Y748497D02*
Y751497D01*
X-51502Y769997D02*
X-48502D01*
X-50002Y768497D02*
Y771497D01*
X-41502Y789997D02*
X-38502D01*
X-40002Y788497D02*
Y791497D01*
X-51502Y889997D02*
X-48502D01*
X-50002Y888497D02*
Y891497D01*
X-41502Y909997D02*
X-38502D01*
X-40002Y908497D02*
Y911497D01*
X-51502Y929997D02*
X-48502D01*
X-50002Y928497D02*
Y931497D01*
X-31502Y9998D02*
X-28502D01*
X-30002Y8498D02*
Y11498D01*
X-31502Y89998D02*
X-28502D01*
X-30002Y88498D02*
Y91498D01*
X-31502Y289998D02*
X-28502D01*
X-30002Y288498D02*
Y291498D01*
X-21502Y309998D02*
X-18502D01*
X-20002Y308498D02*
Y311498D01*
X-31502Y329998D02*
X-28502D01*
X-30002Y328498D02*
Y331498D01*
X-21502Y349998D02*
X-18502D01*
X-20002Y348498D02*
Y351498D01*
X-21502Y389998D02*
X-18502D01*
X-20002Y388498D02*
Y391498D01*
X-31502Y449997D02*
X-28502D01*
X-30002Y448498D02*
Y451497D01*
X-21502Y629997D02*
X-18502D01*
X-20002Y628497D02*
Y631497D01*
X-21502Y749997D02*
X-18502D01*
X-20002Y748497D02*
Y751497D01*
X-31502Y769997D02*
X-28502D01*
X-30002Y768497D02*
Y771497D01*
X-31502Y809997D02*
X-28502D01*
X-30002Y808497D02*
Y811497D01*
X-21502Y829997D02*
X-18502D01*
X-20002Y828497D02*
Y831497D01*
X-31502Y929997D02*
X-28502D01*
X-30002Y928497D02*
Y931497D01*
X-11502Y9998D02*
X-8502D01*
X-10002Y8498D02*
Y11498D01*
X-1502Y69998D02*
X1498D01*
X-2Y68498D02*
Y71498D01*
X-11502Y89998D02*
X-8502D01*
X-10002Y88498D02*
Y91498D01*
X-11502Y289998D02*
X-8502D01*
X-10002Y288498D02*
Y291498D01*
X-1502Y309998D02*
X1498D01*
X-2Y308498D02*
Y311498D01*
X-11502Y329998D02*
X-8502D01*
X-10002Y328498D02*
Y331498D01*
X-1502Y349998D02*
X1498D01*
X-2Y348498D02*
Y351498D01*
X-1502Y429998D02*
X1498D01*
X-2Y428498D02*
Y431498D01*
X-11502Y449997D02*
X-8502D01*
X-10002Y448498D02*
Y451497D01*
X-1502Y469997D02*
X1498D01*
X-2Y468498D02*
Y471497D01*
X-1502Y629997D02*
X1498D01*
X-2Y628497D02*
Y631497D01*
X-11502Y649997D02*
X-8502D01*
X-10002Y648497D02*
Y651497D01*
X-1502Y669997D02*
X1498D01*
X-2Y668497D02*
Y671497D01*
X-11502Y689997D02*
X-8502D01*
X-10002Y688497D02*
Y691497D01*
X-1502Y829997D02*
X1498D01*
X-2Y828497D02*
Y831497D01*
X-11502Y929997D02*
X-8502D01*
X-10002Y928497D02*
Y931497D01*
X8498Y-70001D02*
X11498D01*
X9998Y-71501D02*
Y-68501D01*
X18498Y-50002D02*
X21498D01*
X19998Y-51501D02*
Y-48502D01*
X8498Y-30001D02*
X11498D01*
X9998Y-31502D02*
Y-28502D01*
X18498Y-10002D02*
X21498D01*
X19998Y-11502D02*
Y-8502D01*
X8498Y9998D02*
X11498D01*
X9998Y8498D02*
Y11498D01*
X18498Y69998D02*
X21498D01*
X19998Y68498D02*
Y71498D01*
X8498Y89998D02*
X11498D01*
X9998Y88498D02*
Y91498D01*
X18498Y109998D02*
X21498D01*
X19998Y108498D02*
Y111498D01*
X8498Y169998D02*
X11498D01*
X9998Y168498D02*
Y171498D01*
X8498Y329998D02*
X11498D01*
X9998Y328498D02*
Y331498D01*
X18498Y629997D02*
X21498D01*
X19998Y628497D02*
Y631497D01*
X8498Y649997D02*
X11498D01*
X9998Y648497D02*
Y651497D01*
X18498Y669997D02*
X21498D01*
X19998Y668497D02*
Y671497D01*
X8498Y809997D02*
X11498D01*
X9998Y808497D02*
Y811497D01*
X8498Y889997D02*
X11498D01*
X9998Y888497D02*
Y891497D01*
X8498Y929997D02*
X11498D01*
X9998Y928497D02*
Y931497D01*
X18498Y949996D02*
X21498D01*
X19998Y948496D02*
Y951497D01*
X8498Y969996D02*
X11498D01*
X9998Y968496D02*
Y971497D01*
X18498Y989996D02*
X21498D01*
X19998Y988496D02*
Y991496D01*
X8498Y1009996D02*
X11498D01*
X9998Y1008496D02*
Y1011496D01*
X28498Y-70001D02*
X31498D01*
X29998Y-71501D02*
Y-68501D01*
X38498Y69998D02*
X41498D01*
X39998Y68498D02*
Y71498D01*
X28498Y89998D02*
X31498D01*
X29998Y88498D02*
Y91498D01*
X38498Y109998D02*
X41498D01*
X39998Y108498D02*
Y111498D01*
X28498Y169998D02*
X31498D01*
X29998Y168498D02*
Y171498D01*
X38498Y229998D02*
X41498D01*
X39998Y228498D02*
Y231498D01*
X28498Y489997D02*
X31498D01*
X29998Y488497D02*
Y491497D01*
X38498Y629997D02*
X41498D01*
X39998Y628497D02*
Y631497D01*
X28498Y649997D02*
X31498D01*
X29998Y648497D02*
Y651497D01*
X38498Y669997D02*
X41498D01*
X39998Y668497D02*
Y671497D01*
X38498Y829997D02*
X41498D01*
X39998Y828497D02*
Y831497D01*
X38498Y869997D02*
X41498D01*
X39998Y868497D02*
Y871497D01*
X28498Y889997D02*
X31498D01*
X29998Y888497D02*
Y891497D01*
X28498Y929997D02*
X31498D01*
X29998Y928497D02*
Y931497D01*
X38498Y949996D02*
X41498D01*
X39998Y948496D02*
Y951497D01*
X28498Y969996D02*
X31498D01*
X29998Y968496D02*
Y971497D01*
X38498Y989996D02*
X41498D01*
X39998Y988496D02*
Y991496D01*
X28498Y1009996D02*
X31498D01*
X29998Y1008496D02*
Y1011496D01*
X48498Y-70001D02*
X51498D01*
X49998Y-71501D02*
Y-68501D01*
X58498Y-10002D02*
X61498D01*
X59998Y-11502D02*
Y-8502D01*
X58498Y29998D02*
X61498D01*
X59998Y28498D02*
Y31498D01*
X58498Y69998D02*
X61498D01*
X59998Y68498D02*
Y71498D01*
X48498Y89998D02*
X51498D01*
X49998Y88498D02*
Y91498D01*
X48498Y129998D02*
X51498D01*
X49998Y128498D02*
Y131498D01*
X58498Y349998D02*
X61498D01*
X59998Y348498D02*
Y351498D01*
X58498Y429998D02*
X61498D01*
X59998Y428498D02*
Y431498D01*
X48498Y489997D02*
X51498D01*
X49998Y488497D02*
Y491497D01*
X48498Y649997D02*
X51498D01*
X49998Y648497D02*
Y651497D01*
X58498Y829997D02*
X61498D01*
X59998Y828497D02*
Y831497D01*
X48498Y849997D02*
X51498D01*
X49998Y848497D02*
Y851497D01*
X48498Y889997D02*
X51498D01*
X49998Y888497D02*
Y891497D01*
X48498Y929997D02*
X51498D01*
X49998Y928497D02*
Y931497D01*
X48498Y969996D02*
X51498D01*
X49998Y968496D02*
Y971497D01*
X48498Y1009996D02*
X51498D01*
X49998Y1008496D02*
Y1011496D01*
X68498Y-70001D02*
X71498D01*
X69998Y-71501D02*
Y-68501D01*
X68498Y-30001D02*
X71498D01*
X69998Y-31502D02*
Y-28502D01*
X78498Y-10002D02*
X81498D01*
X79998Y-11502D02*
Y-8502D01*
X68498Y9998D02*
X71498D01*
X69998Y8498D02*
Y11498D01*
X78498Y29998D02*
X81498D01*
X79998Y28498D02*
Y31498D01*
X78498Y69998D02*
X81498D01*
X79998Y68498D02*
Y71498D01*
X78498Y149998D02*
X81498D01*
X79998Y148498D02*
Y151498D01*
X78498Y189998D02*
X81498D01*
X79998Y188498D02*
Y191498D01*
X68498Y329998D02*
X71498D01*
X69998Y328498D02*
Y331498D01*
X78498Y629997D02*
X81498D01*
X79998Y628497D02*
Y631497D01*
X78498Y829997D02*
X81498D01*
X79998Y828497D02*
Y831497D01*
X88498Y-70001D02*
X91498D01*
X89998Y-71501D02*
Y-68501D01*
X88498Y-30001D02*
X91498D01*
X89998Y-31502D02*
Y-28502D01*
X98497Y-10002D02*
X101497D01*
X99998Y-11502D02*
Y-8502D01*
X88498Y9998D02*
X91498D01*
X89998Y8498D02*
Y11498D01*
X98497Y29998D02*
X101497D01*
X99998Y28498D02*
Y31498D01*
X88498Y89998D02*
X91498D01*
X89998Y88498D02*
Y91498D01*
X88498Y369998D02*
X91498D01*
X89998Y368498D02*
Y371498D01*
X98497Y509997D02*
X101497D01*
X99998Y508497D02*
Y511497D01*
X98497Y549997D02*
X101497D01*
X99998Y548497D02*
Y551497D01*
X98497Y629997D02*
X101497D01*
X99998Y628497D02*
Y631497D01*
X88498Y729997D02*
X91498D01*
X89998Y728497D02*
Y731497D01*
X98497Y789997D02*
X101497D01*
X99998Y788497D02*
Y791497D01*
X98497Y829997D02*
X101497D01*
X99998Y828497D02*
Y831497D01*
X88498Y849997D02*
X91498D01*
X89998Y848497D02*
Y851497D01*
X98497Y909997D02*
X101497D01*
X99998Y908497D02*
Y911497D01*
X98497Y949996D02*
X101497D01*
X99998Y948496D02*
Y951497D01*
X108497Y-70001D02*
X111497D01*
X109998Y-71501D02*
Y-68501D01*
X108497Y-30001D02*
X111497D01*
X109998Y-31502D02*
Y-28502D01*
X108497Y9998D02*
X111497D01*
X109998Y8498D02*
Y11498D01*
X118497Y29998D02*
X121497D01*
X119998Y28498D02*
Y31498D01*
X118497Y69998D02*
X121497D01*
X119998Y68498D02*
Y71498D01*
X108497Y129998D02*
X111497D01*
X109998Y128498D02*
Y131498D01*
X108497Y169998D02*
X111497D01*
X109998Y168498D02*
Y171498D01*
X118497Y189998D02*
X121497D01*
X119998Y188498D02*
Y191498D01*
X108497Y209998D02*
X111497D01*
X109998Y208498D02*
Y211498D01*
X118497Y629997D02*
X121497D01*
X119998Y628497D02*
Y631497D01*
X108497Y729997D02*
X111497D01*
X109998Y728497D02*
Y731497D01*
X118497Y789997D02*
X121497D01*
X119998Y788497D02*
Y791497D01*
X118497Y829997D02*
X121497D01*
X119998Y828497D02*
Y831497D01*
X108497Y849997D02*
X111497D01*
X109998Y848497D02*
Y851497D01*
X108497Y889997D02*
X111497D01*
X109998Y888497D02*
Y891497D01*
X118497Y909997D02*
X121497D01*
X119998Y908497D02*
Y911497D01*
X138497Y29998D02*
X141497D01*
X139998Y28498D02*
Y31498D01*
X128497Y49998D02*
X131497D01*
X129998Y48498D02*
Y51498D01*
X138497Y109998D02*
X141497D01*
X139998Y108498D02*
Y111498D01*
X128497Y729997D02*
X131497D01*
X129998Y728497D02*
Y731497D01*
X138497Y789997D02*
X141497D01*
X139998Y788497D02*
Y791497D01*
X138497Y829997D02*
X141497D01*
X139998Y828497D02*
Y831497D01*
X128497Y849997D02*
X131497D01*
X129998Y848497D02*
Y851497D01*
X128497Y889997D02*
X131497D01*
X129998Y888497D02*
Y891497D01*
X158497Y29998D02*
X161497D01*
X159997Y28498D02*
Y31498D01*
X148497Y49998D02*
X151497D01*
X149997Y48498D02*
Y51498D01*
X158497Y69998D02*
X161497D01*
X159997Y68498D02*
Y71498D01*
X158497Y109998D02*
X161497D01*
X159997Y108498D02*
Y111498D01*
X148497Y129998D02*
X151497D01*
X149997Y128498D02*
Y131498D01*
X158497Y149998D02*
X161497D01*
X159997Y148498D02*
Y151498D01*
X158497Y589997D02*
X161497D01*
X159997Y588497D02*
Y591497D01*
X158497Y629997D02*
X161497D01*
X159997Y628497D02*
Y631497D01*
X148497Y649997D02*
X151497D01*
X149997Y648497D02*
Y651497D01*
X158497Y709997D02*
X161497D01*
X159997Y708497D02*
Y711497D01*
X148497Y729997D02*
X151497D01*
X149997Y728497D02*
Y731497D01*
X148497Y769997D02*
X151497D01*
X149997Y768497D02*
Y771497D01*
X158497Y789997D02*
X161497D01*
X159997Y788497D02*
Y791497D01*
X158497Y829997D02*
X161497D01*
X159997Y828497D02*
Y831497D01*
X148497Y849997D02*
X151497D01*
X149997Y848497D02*
Y851497D01*
X178497Y29998D02*
X181497D01*
X179997Y28498D02*
Y31498D01*
X168497Y49998D02*
X171497D01*
X169997Y48498D02*
Y51498D01*
X178497Y69998D02*
X181497D01*
X179997Y68498D02*
Y71498D01*
X168497Y129998D02*
X171497D01*
X169997Y128498D02*
Y131498D01*
X178497Y149998D02*
X181497D01*
X179997Y148498D02*
Y151498D01*
X178497Y629997D02*
X181497D01*
X179997Y628497D02*
Y631497D01*
X168497Y649997D02*
X171497D01*
X169997Y648497D02*
Y651497D01*
X168497Y729997D02*
X171497D01*
X169997Y728497D02*
Y731497D01*
X168497Y769997D02*
X171497D01*
X169997Y768497D02*
Y771497D01*
X178497Y789997D02*
X181497D01*
X179997Y788497D02*
Y791497D01*
X168497Y849997D02*
X171497D01*
X169997Y848497D02*
Y851497D01*
X198497Y29998D02*
X201497D01*
X199997Y28498D02*
Y31498D01*
X188497Y49998D02*
X191497D01*
X189997Y48498D02*
Y51498D01*
X188497Y89998D02*
X191497D01*
X189997Y88498D02*
Y91498D01*
X198497Y109998D02*
X201497D01*
X199997Y108498D02*
Y111498D01*
X198497Y149998D02*
X201497D01*
X199997Y148498D02*
Y151498D01*
X198497Y629997D02*
X201497D01*
X199997Y628497D02*
Y631497D01*
X198497Y709997D02*
X201497D01*
X199997Y708497D02*
Y711497D01*
X198497Y749997D02*
X201497D01*
X199997Y748497D02*
Y751497D01*
X218497Y29998D02*
X221497D01*
X219997Y28498D02*
Y31498D01*
X208497Y49998D02*
X211497D01*
X209997Y48498D02*
Y51498D01*
X208497Y209998D02*
X211497D01*
X209997Y208498D02*
Y211498D01*
X208497Y529997D02*
X211497D01*
X209997Y528497D02*
Y531497D01*
X218497Y549997D02*
X221497D01*
X219997Y548497D02*
Y551497D01*
X218497Y709997D02*
X221497D01*
X219997Y708497D02*
Y711497D01*
X208497Y729997D02*
X211497D01*
X209997Y728497D02*
Y731497D01*
X218497Y749997D02*
X221497D01*
X219997Y748497D02*
Y751497D01*
X208497Y769997D02*
X211497D01*
X209997Y768497D02*
Y771497D01*
X208497Y809997D02*
X211497D01*
X209997Y808497D02*
Y811497D01*
X218497Y829997D02*
X221497D01*
X219997Y828497D02*
Y831497D01*
X208497Y849997D02*
X211497D01*
X209997Y848497D02*
Y851497D01*
X208497Y889997D02*
X211497D01*
X209997Y888497D02*
Y891497D01*
X218497Y909997D02*
X221497D01*
X219997Y908497D02*
Y911497D01*
X238497Y29998D02*
X241497D01*
X239997Y28498D02*
Y31498D01*
X228497Y49998D02*
X231497D01*
X229997Y48498D02*
Y51498D01*
X238497Y69998D02*
X241497D01*
X239997Y68498D02*
Y71498D01*
X238497Y149998D02*
X241497D01*
X239997Y148498D02*
Y151498D01*
X228497Y529997D02*
X231497D01*
X229997Y528497D02*
Y531497D01*
X228497Y649997D02*
X231497D01*
X229997Y648497D02*
Y651497D01*
X238497Y709997D02*
X241497D01*
X239997Y708497D02*
Y711497D01*
X228497Y729997D02*
X231497D01*
X229997Y728497D02*
Y731497D01*
X238497Y749997D02*
X241497D01*
X239997Y748497D02*
Y751497D01*
X228497Y769997D02*
X231497D01*
X229997Y768497D02*
Y771497D01*
X228497Y809997D02*
X231497D01*
X229997Y808497D02*
Y811497D01*
X238497Y829997D02*
X241497D01*
X239997Y828497D02*
Y831497D01*
X228497Y849997D02*
X231497D01*
X229997Y848497D02*
Y851497D01*
X228497Y889997D02*
X231497D01*
X229997Y888497D02*
Y891497D01*
X238497Y909997D02*
X241497D01*
X239997Y908497D02*
Y911497D01*
X258497Y-50002D02*
X261497D01*
X259997Y-51501D02*
Y-48502D01*
X258497Y-10002D02*
X261497D01*
X259997Y-11502D02*
Y-8502D01*
X258497Y29998D02*
X261497D01*
X259997Y28498D02*
Y31498D01*
X248497Y649997D02*
X251497D01*
X249997Y648497D02*
Y651497D01*
X258497Y709997D02*
X261497D01*
X259997Y708497D02*
Y711497D01*
X248497Y729997D02*
X251497D01*
X249997Y728497D02*
Y731497D01*
X258497Y749997D02*
X261497D01*
X259997Y748497D02*
Y751497D01*
X248497Y769997D02*
X251497D01*
X249997Y768497D02*
Y771497D01*
X248497Y809997D02*
X251497D01*
X249997Y808497D02*
Y811497D01*
X258497Y829997D02*
X261497D01*
X259997Y828497D02*
Y831497D01*
X248497Y849997D02*
X251497D01*
X249997Y848497D02*
Y851497D01*
X248497Y889997D02*
X251497D01*
X249997Y888497D02*
Y891497D01*
X258497Y909997D02*
X261497D01*
X259997Y908497D02*
Y911497D01*
X248497Y929997D02*
X251497D01*
X249997Y928497D02*
Y931497D01*
X258497Y949996D02*
X261497D01*
X259997Y948496D02*
Y951497D01*
X248497Y969996D02*
X251497D01*
X249997Y968496D02*
Y971497D01*
X258497Y989996D02*
X261497D01*
X259997Y988496D02*
Y991496D01*
X248497Y1009996D02*
X251497D01*
X249997Y1008496D02*
Y1011496D01*
X268497Y-70001D02*
X271497D01*
X269997Y-71501D02*
Y-68501D01*
X278497Y-50002D02*
X281497D01*
X279997Y-51501D02*
Y-48502D01*
X268497Y-30001D02*
X271497D01*
X269997Y-31502D02*
Y-28502D01*
X278497Y-10002D02*
X281497D01*
X279997Y-11502D02*
Y-8502D01*
X268497Y9998D02*
X271497D01*
X269997Y8498D02*
Y11498D01*
X278497Y29998D02*
X281497D01*
X279997Y28498D02*
Y31498D01*
X268497Y649997D02*
X271497D01*
X269997Y648497D02*
Y651497D01*
X268497Y689997D02*
X271497D01*
X269997Y688497D02*
Y691497D01*
X268497Y729997D02*
X271497D01*
X269997Y728497D02*
Y731497D01*
X268497Y769997D02*
X271497D01*
X269997Y768497D02*
Y771497D01*
X268497Y809997D02*
X271497D01*
X269997Y808497D02*
Y811497D01*
X268497Y849997D02*
X271497D01*
X269997Y848497D02*
Y851497D01*
X268497Y889997D02*
X271497D01*
X269997Y888497D02*
Y891497D01*
X278497Y909997D02*
X281497D01*
X279997Y908497D02*
Y911497D01*
X268497Y929997D02*
X271497D01*
X269997Y928497D02*
Y931497D01*
X278497Y949996D02*
X281497D01*
X279997Y948496D02*
Y951497D01*
X268497Y969996D02*
X271497D01*
X269997Y968496D02*
Y971497D01*
X278497Y989996D02*
X281497D01*
X279997Y988496D02*
Y991496D01*
X268497Y1009996D02*
X271497D01*
X269997Y1008496D02*
Y1011496D01*
X288497Y-70001D02*
X291497D01*
X289997Y-71501D02*
Y-68501D01*
X298497Y-50002D02*
X301497D01*
X299997Y-51501D02*
Y-48502D01*
X288497Y-30001D02*
X291497D01*
X289997Y-31502D02*
Y-28502D01*
X298497Y-10002D02*
X301497D01*
X299997Y-11502D02*
Y-8502D01*
X288497Y9998D02*
X291497D01*
X289997Y8498D02*
Y11498D01*
X298497Y189998D02*
X301497D01*
X299997Y188498D02*
Y191498D01*
X288497Y769997D02*
X291497D01*
X289997Y768497D02*
Y771497D01*
X298497Y869997D02*
X301497D01*
X299997Y868497D02*
Y871497D01*
X288497Y889997D02*
X291497D01*
X289997Y888497D02*
Y891497D01*
X298497Y909997D02*
X301497D01*
X299997Y908497D02*
Y911497D01*
X288497Y929997D02*
X291497D01*
X289997Y928497D02*
Y931497D01*
X298497Y949996D02*
X301497D01*
X299997Y948496D02*
Y951497D01*
X288497Y969996D02*
X291497D01*
X289997Y968496D02*
Y971497D01*
X298497Y989996D02*
X301497D01*
X299997Y988496D02*
Y991496D01*
X288497Y1009996D02*
X291497D01*
X289997Y1008496D02*
Y1011496D01*
X308497Y-70001D02*
X311497D01*
X309997Y-71501D02*
Y-68501D01*
X318497Y-50002D02*
X321497D01*
X319997Y-51501D02*
Y-48502D01*
X308497Y-30001D02*
X311497D01*
X309997Y-31502D02*
Y-28502D01*
X318497Y-10002D02*
X321497D01*
X319997Y-11502D02*
Y-8502D01*
X308497Y9998D02*
X311497D01*
X309997Y8498D02*
Y11498D01*
X308497Y289998D02*
X311497D01*
X309997Y288498D02*
Y291498D01*
X318497Y469997D02*
X321497D01*
X319997Y468498D02*
Y471497D01*
X318497Y829997D02*
X321497D01*
X319997Y828497D02*
Y831497D01*
X318497Y869997D02*
X321497D01*
X319997Y868497D02*
Y871497D01*
X308497Y889997D02*
X311497D01*
X309997Y888497D02*
Y891497D01*
X318497Y909997D02*
X321497D01*
X319997Y908497D02*
Y911497D01*
X308497Y929997D02*
X311497D01*
X309997Y928497D02*
Y931497D01*
X318497Y949996D02*
X321497D01*
X319997Y948496D02*
Y951497D01*
X308497Y969996D02*
X311497D01*
X309997Y968496D02*
Y971497D01*
X318497Y989996D02*
X321497D01*
X319997Y988496D02*
Y991496D01*
X308497Y1009996D02*
X311497D01*
X309997Y1008496D02*
Y1011496D01*
X328497Y-70001D02*
X331497D01*
X329997Y-71501D02*
Y-68501D01*
X328497Y-30001D02*
X331497D01*
X329997Y-31502D02*
Y-28502D01*
X328497Y489997D02*
X331497D01*
X329997Y488497D02*
Y491497D01*
X338497Y509997D02*
X341497D01*
X339997Y508497D02*
Y511497D01*
X328497Y689997D02*
X331497D01*
X329997Y688497D02*
Y691497D01*
X328497Y889997D02*
X331497D01*
X329997Y888497D02*
Y891497D01*
X338497Y909997D02*
X341497D01*
X339997Y908497D02*
Y911497D01*
X328497Y929997D02*
X331497D01*
X329997Y928497D02*
Y931497D01*
X328497Y969996D02*
X331497D01*
X329997Y968496D02*
Y971497D01*
X328497Y1009996D02*
X331497D01*
X329997Y1008496D02*
Y1011496D01*
X348497Y9998D02*
X351497D01*
X349997Y8498D02*
Y11498D01*
X358497Y109998D02*
X361497D01*
X359997Y108498D02*
Y111498D01*
X348497Y409998D02*
X351497D01*
X349997Y408498D02*
Y411498D01*
X358497Y709997D02*
X361497D01*
X359997Y708497D02*
Y711497D01*
X348497Y809997D02*
X351497D01*
X349997Y808497D02*
Y811497D01*
X348497Y889997D02*
X351497D01*
X349997Y888497D02*
Y891497D01*
X358497Y909997D02*
X361497D01*
X359997Y908497D02*
Y911497D01*
X348497Y929997D02*
X351497D01*
X349997Y928497D02*
Y931497D01*
X368497Y129998D02*
X371497D01*
X369997Y128498D02*
Y131498D01*
X368497Y249998D02*
X371497D01*
X369997Y248498D02*
Y251498D01*
X378497Y349998D02*
X381497D01*
X379997Y348498D02*
Y351498D01*
X378497Y669997D02*
X381497D01*
X379997Y668497D02*
Y671497D01*
X378497Y709997D02*
X381497D01*
X379997Y708497D02*
Y711497D01*
X378497Y869997D02*
X381497D01*
X379997Y868497D02*
Y871497D01*
X368497Y889997D02*
X371497D01*
X369997Y888497D02*
Y891497D01*
X378497Y909997D02*
X381497D01*
X379997Y908497D02*
Y911497D01*
X368497Y929997D02*
X371497D01*
X369997Y928497D02*
Y931497D01*
X388497Y9998D02*
X391497D01*
X389997Y8498D02*
Y11498D01*
X398497Y29998D02*
X401497D01*
X399997Y28498D02*
Y31498D01*
X388497Y49998D02*
X391497D01*
X389997Y48498D02*
Y51498D01*
X398497Y69998D02*
X401497D01*
X399997Y68498D02*
Y71498D01*
X388497Y89998D02*
X391497D01*
X389997Y88498D02*
Y91498D01*
X398497Y109998D02*
X401497D01*
X399997Y108498D02*
Y111498D01*
X388497Y129998D02*
X391497D01*
X389997Y128498D02*
Y131498D01*
X388497Y649997D02*
X391497D01*
X389997Y648497D02*
Y651497D01*
X398497Y669997D02*
X401497D01*
X399997Y668497D02*
Y671497D01*
X398497Y749997D02*
X401497D01*
X399997Y748497D02*
Y751497D01*
X398497Y789997D02*
X401497D01*
X399997Y788497D02*
Y791497D01*
X398497Y869997D02*
X401497D01*
X399997Y868497D02*
Y871497D01*
X388497Y889997D02*
X391497D01*
X389997Y888497D02*
Y891497D01*
X398497Y909997D02*
X401497D01*
X399997Y908497D02*
Y911497D01*
X388497Y929997D02*
X391497D01*
X389997Y928497D02*
Y931497D01*
X408497Y9998D02*
X411497D01*
X409997Y8498D02*
Y11498D01*
X408497Y89998D02*
X411497D01*
X409997Y88498D02*
Y91498D01*
X418497Y109998D02*
X421497D01*
X419997Y108498D02*
Y111498D01*
X408497Y129998D02*
X411497D01*
X409997Y128498D02*
Y131498D01*
X418497Y149998D02*
X421497D01*
X419997Y148498D02*
Y151498D01*
X408497Y169998D02*
X411497D01*
X409997Y168498D02*
Y171498D01*
X418497Y789997D02*
X421497D01*
X419997Y788497D02*
Y791497D01*
X408497Y849997D02*
X411497D01*
X409997Y848497D02*
Y851497D01*
X408497Y929997D02*
X411497D01*
X409997Y928497D02*
Y931497D01*
X428497Y9998D02*
X431497D01*
X429997Y8498D02*
Y11498D01*
X438497Y229998D02*
X441497D01*
X439997Y228498D02*
Y231498D01*
X438497Y309998D02*
X441497D01*
X439997Y308498D02*
Y311498D01*
X438497Y349998D02*
X441497D01*
X439997Y348498D02*
Y351498D01*
X438497Y389998D02*
X441497D01*
X439997Y388498D02*
Y391498D01*
X438497Y469997D02*
X441497D01*
X439997Y468498D02*
Y471497D01*
X428497Y569997D02*
X431497D01*
X429997Y568497D02*
Y571497D01*
X428497Y929997D02*
X431497D01*
X429997Y928497D02*
Y931497D01*
X448497Y129998D02*
X451497D01*
X449997Y128498D02*
Y131498D01*
X458497Y149998D02*
X461497D01*
X459997Y148498D02*
Y151498D01*
X448497Y169998D02*
X451497D01*
X449997Y168498D02*
Y171498D01*
X458497Y189998D02*
X461497D01*
X459997Y188498D02*
Y191498D01*
X458497Y229998D02*
X461497D01*
X459997Y228498D02*
Y231498D01*
X458497Y349998D02*
X461497D01*
X459997Y348498D02*
Y351498D01*
X458497Y429998D02*
X461497D01*
X459997Y428498D02*
Y431498D01*
X458497Y469997D02*
X461497D01*
X459997Y468498D02*
Y471497D01*
X458497Y509997D02*
X461497D01*
X459997Y508497D02*
Y511497D01*
X448497Y529997D02*
X451497D01*
X449997Y528497D02*
Y531497D01*
X458497Y549997D02*
X461497D01*
X459997Y548497D02*
Y551497D01*
X448497Y729997D02*
X451497D01*
X449997Y728497D02*
Y731497D01*
X468497Y129998D02*
X471497D01*
X469997Y128498D02*
Y131498D01*
X478497Y149998D02*
X481497D01*
X479997Y148498D02*
Y151498D01*
X468497Y169998D02*
X471497D01*
X469997Y168498D02*
Y171498D01*
X478497Y189998D02*
X481497D01*
X479997Y188498D02*
Y191498D01*
X468497Y209998D02*
X471497D01*
X469997Y208498D02*
Y211498D01*
X478497Y229998D02*
X481497D01*
X479997Y228498D02*
Y231498D01*
X468497Y249998D02*
X471497D01*
X469997Y248498D02*
Y251498D01*
X478497Y269998D02*
X481497D01*
X479997Y268498D02*
Y271498D01*
X468497Y289998D02*
X471497D01*
X469997Y288498D02*
Y291498D01*
X478497Y309998D02*
X481497D01*
X479997Y308498D02*
Y311498D01*
X468497Y329998D02*
X471497D01*
X469997Y328498D02*
Y331498D01*
X478497Y349998D02*
X481497D01*
X479997Y348498D02*
Y351498D01*
X468497Y369998D02*
X471497D01*
X469997Y368498D02*
Y371498D01*
X478497Y389998D02*
X481497D01*
X479997Y388498D02*
Y391498D01*
X468497Y409998D02*
X471497D01*
X469997Y408498D02*
Y411498D01*
X478497Y429998D02*
X481497D01*
X479997Y428498D02*
Y431498D01*
X468497Y529997D02*
X471497D01*
X469997Y528497D02*
Y531497D01*
X478497Y549997D02*
X481497D01*
X479997Y548497D02*
Y551497D01*
X468497Y569997D02*
X471497D01*
X469997Y568497D02*
Y571497D01*
X478497Y669997D02*
X481497D01*
X479997Y668497D02*
Y671497D01*
X468497Y769997D02*
X471497D01*
X469997Y768497D02*
Y771497D01*
X468497Y809997D02*
X471497D01*
X469997Y808497D02*
Y811497D01*
X488497Y9998D02*
X491497D01*
X489997Y8498D02*
Y11498D01*
X498497Y109998D02*
X501497D01*
X499997Y108498D02*
Y111498D01*
X488497Y129998D02*
X491497D01*
X489997Y128498D02*
Y131498D01*
X498497Y149998D02*
X501497D01*
X499997Y148498D02*
Y151498D01*
X488497Y169998D02*
X491497D01*
X489997Y168498D02*
Y171498D01*
X498497Y189998D02*
X501497D01*
X499997Y188498D02*
Y191498D01*
X488497Y209998D02*
X491497D01*
X489997Y208498D02*
Y211498D01*
X498497Y229998D02*
X501497D01*
X499997Y228498D02*
Y231498D01*
X488497Y249998D02*
X491497D01*
X489997Y248498D02*
Y251498D01*
X498497Y269998D02*
X501497D01*
X499997Y268498D02*
Y271498D01*
X488497Y289998D02*
X491497D01*
X489997Y288498D02*
Y291498D01*
X498497Y309998D02*
X501497D01*
X499997Y308498D02*
Y311498D01*
X488497Y329998D02*
X491497D01*
X489997Y328498D02*
Y331498D01*
X498497Y349998D02*
X501497D01*
X499997Y348498D02*
Y351498D01*
X488497Y369998D02*
X491497D01*
X489997Y368498D02*
Y371498D01*
X498497Y389998D02*
X501497D01*
X499997Y388498D02*
Y391498D01*
X488497Y409998D02*
X491497D01*
X489997Y408498D02*
Y411498D01*
X498497Y429998D02*
X501497D01*
X499997Y428498D02*
Y431498D01*
X488497Y449997D02*
X491497D01*
X489997Y448498D02*
Y451497D01*
X498497Y469997D02*
X501497D01*
X499997Y468498D02*
Y471497D01*
X488497Y689997D02*
X491497D01*
X489997Y688497D02*
Y691497D01*
X488497Y729997D02*
X491497D01*
X489997Y728497D02*
Y731497D01*
X488497Y809997D02*
X491497D01*
X489997Y808497D02*
Y811497D01*
X488497Y929997D02*
X491497D01*
X489997Y928497D02*
Y931497D01*
M02*
