G04 Layer_Color=16711935*
%FSLAX44Y44*%
%MOMM*%
G71*
G01*
G75*
%ADD58C,0.2000*%
D58*
X520000Y930000D02*
G03*
X510000Y940000I-10000J0D01*
G01*
Y0D02*
G03*
X520000Y10000I0J10000D01*
G01*
X-180000D02*
G03*
X-170000Y0I10000J0D01*
G01*
Y940000D02*
G03*
X-180000Y930000I0J-10000D01*
G01*
X0Y-85000D02*
X340000D01*
X0Y1025000D02*
X340000D01*
X0Y940000D02*
Y1025000D01*
X340000Y940000D02*
Y1025000D01*
Y-85000D02*
Y0D01*
X0Y-85000D02*
Y0D01*
X-165000D02*
X0D01*
X-170000Y940000D02*
X0D01*
X-180000Y10000D02*
Y930000D01*
X340000Y940000D02*
X505000D01*
X340000Y0D02*
X505000D01*
X520000Y10000D02*
Y930000D01*
X505000Y940000D02*
X510000D01*
X505000Y0D02*
X510000D01*
X-170000D02*
X-165000D01*
X520000Y930000D02*
G03*
X510000Y940000I-10000J0D01*
G01*
Y0D02*
G03*
X520000Y10000I0J10000D01*
G01*
X-180000D02*
G03*
X-170000Y0I10000J0D01*
G01*
Y940000D02*
G03*
X-180000Y930000I0J-10000D01*
G01*
X0Y-85000D02*
X340000D01*
X0Y1025000D02*
X340000D01*
X0Y940000D02*
Y1025000D01*
X340000Y940000D02*
Y1025000D01*
Y-85000D02*
Y0D01*
X0Y-85000D02*
Y0D01*
X-165000D02*
X0D01*
X-170000Y940000D02*
X0D01*
X-180000Y10000D02*
Y930000D01*
X340000Y940000D02*
X505000D01*
X340000Y0D02*
X505000D01*
X520000Y10000D02*
Y930000D01*
X505000Y940000D02*
X510000D01*
X505000Y0D02*
X510000D01*
X-170000D02*
X-165000D01*
M02*
