G04 Layer_Color=8421504*
%FSLAX44Y44*%
%MOMM*%
G71*
G01*
G75*
%ADD39R,0.6096X0.5842*%
%ADD40R,0.5842X0.6096*%
%ADD58C,0.2000*%
%ADD132R,0.5500X0.5500*%
%ADD134R,0.5500X0.5500*%
%ADD135R,1.2000X1.2000*%
%ADD171R,0.5000X0.9500*%
%ADD184R,1.5000X1.5000*%
%ADD185R,1.2000X1.2000*%
%ADD186R,1.8000X1.2000*%
%ADD187R,2.7000X0.9000*%
%ADD188R,0.7000X0.9000*%
%ADD189R,1.1000X0.9000*%
%ADD190R,1.1000X0.6000*%
%ADD191R,1.4000X0.4500*%
%ADD192R,1.8800X0.4300*%
%ADD193R,0.3500X0.9500*%
D39*
X30734Y382016D02*
D03*
X40894D02*
D03*
X8636Y382270D02*
D03*
X18796D02*
D03*
X22606Y430022D02*
D03*
X32766D02*
D03*
X351282Y227838D02*
D03*
X361442D02*
D03*
X350012Y166624D02*
D03*
X360172D02*
D03*
X350012Y141732D02*
D03*
X360172D02*
D03*
X351282Y194056D02*
D03*
X361442D02*
D03*
X351282Y210312D02*
D03*
X361442D02*
D03*
X320160Y274000D02*
D03*
X310000D02*
D03*
X282822Y255714D02*
D03*
X272662D02*
D03*
D40*
X256662Y206554D02*
D03*
Y216714D02*
D03*
X242662Y195554D02*
D03*
Y205714D02*
D03*
D58*
X520000Y930000D02*
G03*
X510000Y940000I-10000J0D01*
G01*
Y0D02*
G03*
X520000Y10000I0J10000D01*
G01*
X-180000D02*
G03*
X-170000Y0I10000J0D01*
G01*
Y940000D02*
G03*
X-180000Y930000I0J-10000D01*
G01*
X0Y-85000D02*
X340000D01*
X0Y1025000D02*
X340000D01*
X0Y940000D02*
Y1025000D01*
X340000Y940000D02*
Y1025000D01*
Y-85000D02*
Y0D01*
X0Y-85000D02*
Y0D01*
X-165000D02*
X0D01*
X-170000Y940000D02*
X0D01*
X-180000Y10000D02*
Y930000D01*
X340000Y940000D02*
X505000D01*
X340000Y0D02*
X505000D01*
X520000Y10000D02*
Y930000D01*
X505000Y940000D02*
X510000D01*
X505000Y0D02*
X510000D01*
X-170000D02*
X-165000D01*
D132*
X294220Y158750D02*
D03*
X305220D02*
D03*
X35710Y370586D02*
D03*
X24710D02*
D03*
X270598Y158496D02*
D03*
X281598D02*
D03*
X356362Y275590D02*
D03*
X345362D02*
D03*
X316572Y160274D02*
D03*
X327572D02*
D03*
X309162Y249714D02*
D03*
X320162D02*
D03*
D134*
X323662Y72214D02*
D03*
Y83214D02*
D03*
D135*
X356362Y242824D02*
D03*
Y260824D02*
D03*
D171*
X75032Y392614D02*
D03*
X56032D02*
D03*
X65532Y415614D02*
D03*
D184*
X339162Y101214D02*
D03*
Y125214D02*
D03*
D185*
X284116Y77724D02*
D03*
X302116D02*
D03*
D186*
X451612Y574802D02*
D03*
D187*
X447112Y709802D02*
D03*
D188*
X405612D02*
D03*
D189*
X343612D02*
D03*
X300612Y598302D02*
D03*
D190*
Y700302D02*
D03*
Y690802D02*
D03*
Y679802D02*
D03*
Y668802D02*
D03*
Y657802D02*
D03*
Y646802D02*
D03*
Y635802D02*
D03*
Y624802D02*
D03*
Y613802D02*
D03*
D191*
X37084Y415240D02*
D03*
Y396240D02*
D03*
X14084Y405740D02*
D03*
D192*
X251662Y96714D02*
D03*
Y109414D02*
D03*
Y122114D02*
D03*
Y134814D02*
D03*
X301662Y96714D02*
D03*
Y109414D02*
D03*
Y122114D02*
D03*
Y134814D02*
D03*
D193*
X274162Y230214D02*
D03*
X280662D02*
D03*
X287162D02*
D03*
X293662D02*
D03*
X300162D02*
D03*
X306662D02*
D03*
X313162D02*
D03*
X319662D02*
D03*
X326162D02*
D03*
X332662D02*
D03*
X274162Y174714D02*
D03*
X280662D02*
D03*
X287162D02*
D03*
X293662D02*
D03*
X300162D02*
D03*
X306662D02*
D03*
X313162D02*
D03*
X319662D02*
D03*
X326162D02*
D03*
X332662D02*
D03*
M02*
